<?xml version="1.0" encoding="utf-8"?>
<!-- Generator: Adobe Illustrator 22.0.1, SVG Export Plug-In . SVG Version: 6.00 Build 0)  -->
<svg version="1.1" id="Capa_1" xmlns="http://www.w3.org/2000/svg" xmlns:xlink="http://www.w3.org/1999/xlink" x="0px" y="0px"
	 viewBox="0 0 1504 410.2" style="enable-background:new 0 0 1504 410.2;" xml:space="preserve">
<style type="text/css">
	.st0{opacity:0.8;fill:#D7E9EA;stroke:#416190;stroke-width:5.01;stroke-miterlimit:5.83;}
	.st1{fill:none;stroke:#000000;stroke-width:3.04;stroke-miterlimit:10;}
	.st2{fill:none;}
	.st3{font-family:'Arial-BoldMT';}
	.st4{font-size:16px;}
	.st5{fill:#FF0000;}
	.st6{font-size:21px;}
	.st7{font-family:'Verdana-Bold';}
	.st8{font-family:'ArialMT';}
	.st9{font-size:12.24px;}
	.st10{fill:#FCEE21;}
	.st11{font-size:16.65px;}
	.st12{fill:#FF0000;stroke:#FF0000;stroke-width:1.33;stroke-miterlimit:10;}
	.st13{font-size:24.79px;}
	.st14{fill:#FF0000;stroke:#FF0000;stroke-width:0.22;stroke-miterlimit:10;}
	.st15{font-size:20px;}
	.st16{stroke:#000000;stroke-width:0.14;stroke-miterlimit:10;}
</style>
<title>antofagasta</title>
<path class="st0" d="M31.5,2.5h1441c16,0,29,13,29,29v347.2c0,16-13,29-29,29H31.5c-16,0-29-13-29-29V31.5
	C2.5,15.5,15.5,2.5,31.5,2.5z"/>
<rect x="89.5" y="233.5" class="st1" width="1385.4" height="21.3"/>
<rect x="103.5" y="237.9" class="st2" width="1371.8" height="36.8"/>
<text transform="matrix(0.98 0 0 1 103.4497 249.9399)" class="st3 st4">$100.000</text>
<text transform="matrix(0.98 0 0 1 233.9199 249.9399)" class="st3 st4">$200.000</text>
<text transform="matrix(0.98 0 0 1 364.3799 249.9399)" class="st3 st4">$300.000</text>
<text transform="matrix(0.98 0 0 1 494.8496 249.9399)" class="st3 st4">$400.000</text>
<text transform="matrix(0.98 0 0 1 625.3096 249.9399)" class="st3 st4">$500.000</text>
<text transform="matrix(0.98 0 0 1 755.79 249.9399)" class="st3 st4">$600.000</text>
<text transform="matrix(0.98 0 0 1 886.25 249.9399)" class="st3 st4">$700.000</text>
<text transform="matrix(0.98 0 0 1 1016.7197 249.9399)" class="st3 st4">$800.000</text>
<text transform="matrix(0.98 0 0 1 1147.1895 249.9399)" class="st3 st4">$900.000</text>
<text transform="matrix(0.98 0 0 1 1277.6494 249.9399)" class="st3 st4">$1.000.000</text>
<text transform="matrix(0.98 0 0 1 1408.1201 249.9399)" class="st3 st4">   +++</text>
<path class="st5" d="M779.3,154.5h-3.7c-0.5-2.2-1.4-4.3-2.8-6.1l3.2-3.1c0.2-0.2,0.3-0.5,0.4-0.8c0-0.3-0.2-0.6-0.4-0.8l-4.1-4
	c-0.5-0.4-1.3-0.4-1.8,0l-3.2,3.1c-1.8-1.1-3.7-2-5.7-2.5v-4c-0.1-0.6-0.6-1.1-1.2-1.2h-5.9c-0.6,0-1.2,0.6-1.2,1.2v3.9
	c-2.1,0.4-4.1,1.2-5.9,2.3l-3.4-3.3c-0.5-0.4-1.3-0.4-1.8,0l-4.1,4c-0.2,0.2-0.3,0.5-0.4,0.8c0,0.3,0.2,0.6,0.4,0.8l3.4,3.3
	c-1.3,2-2.2,4.1-2.8,6.4h-3.8c-0.6,0-1.2,0.6-1.2,1.2v5.8c0.1,0.6,0.6,1.1,1.2,1.2h3.7c0.4,1.9,1.1,3.7,2.1,5.4l3-3.6
	c-0.8-1.9-1.3-3.9-1.3-5.9c-0.2-8.2,6.3-15,14.5-15.2c8.2-0.2,15,6.3,15.2,14.5c0.2,8.2-6.3,15-14.5,15.2h-0.3
	c-1.4,0-2.8-0.2-4.2-0.6l-2.9,3.4c0.9,0.3,1.9,0.6,2.9,0.8v3.3c0.1,0.6,0.6,1.1,1.2,1.2h5.9c0.6,0,1.2-0.6,1.2-1.2v-3.5
	c2.2-0.5,4.4-1.4,6.3-2.7l2.6,2.5c0.2,0.2,0.5,0.3,0.8,0.4c0.3,0,0.6-0.2,0.8-0.4l4.1-4c0.2-0.2,0.3-0.5,0.4-0.8
	c0-0.3-0.2-0.6-0.4-0.8l-2.5-2.5c1.2-1.7,2-3.7,2.3-5.8h3.7c0.6,0,1.2-0.6,1.2-1.2v-5.8C780.5,155.1,780.1,154.5,779.3,154.5z"/>
<path class="st5" d="M768.6,157.1c-0.2-1.9-0.9-3.7-2-5.2l-7.2,8.3l-4.7-3.8l7.2-8.2c-1.6-0.7-3.4-1-5.2-0.8
	c-5.9,0.4-10.4,5.6-10,11.5c0,0,0,0.1,0,0.1c0.1,1.2,0.4,2.4,0.9,3.5l0.1,0.1l-17.3,20.1c-0.7,0.9-1.1,2-1,3.1
	c0.1,1.1,0.6,2.2,1.5,2.9c0.9,0.7,2,1.1,3.2,1c1.1-0.1,2.1-0.6,2.9-1.4l17.2-19.8l0.2,0.1c1.4,0.4,2.9,0.6,4.4,0.5
	C764.7,168.3,769,163.1,768.6,157.1z M733.8,186.5c-0.8,0.1-1.5-0.5-1.6-1.3l0,0c-0.1-0.8,0.5-1.5,1.3-1.6l0,0
	c0.8-0.1,1.5,0.5,1.6,1.3c0.1,0.7-0.3,1.4-1.1,1.6C733.9,186.5,733.9,186.5,733.8,186.5L733.8,186.5z"/>
<rect x="810.5" y="377.7" class="st2" width="92" height="32.3"/>
<text transform="matrix(0.98 0 0 1 810.4697 393.5098)" class="st3 st6">$668.376</text>
<rect x="580.6" y="20.3" class="st2" width="439.9" height="108.7"/>
<text transform="matrix(1 0 0 1 723.16 31.97)" class="st7 st6">ANTOFAGASTA ll</text>
<text transform="matrix(1 0 0 1 561.12 86.55)" class="st7 st6">Población:</text>
<text transform="matrix(1 0 0 1 682.33 86.55)" class="st8 st6"> 607.534   </text>
<text transform="matrix(1 0 0 1 779.81 86.55)" class="st7 st6">Superficie:</text>
<text transform="matrix(1 0 0 1 904.86 87.52)" class="st8 st6"> 126.049,1 km</text>
<text transform="matrix(1 0 0 1 1041.41 77.23)" class="st8 st9">2</text>
<rect x="854.7" y="125" class="st10" width="4.5" height="244"/>
<rect x="6.9" y="177.6" class="st2" width="105.4" height="23.7"/>
<text transform="matrix(0.98 0 0 1 6.8999 189.5098)" class="st7 st11">MUJERES</text>
<rect x="6.9" y="299" class="st2" width="96.2" height="26"/>
<text transform="matrix(0.98 0 0 1 6.8999 310.9502)" class="st7 st11">HOMBRES</text>
<rect x="206" y="61.8" class="st2" width="80.5" height="23.3"/>
<path class="st12" d="M595.6,291.9h-13.8c-1.9,0.1-3.3,1.7-3.2,3.5c0,0,0,0,0,0.1v15.8c-0.1,1.9,1.3,3.5,3.1,3.6c0,0,0,0,0.1,0h13.8
	c1.9-0.1,3.3-1.7,3.2-3.5c0,0,0,0,0-0.1v-15.8C598.8,293.6,597.4,292.1,595.6,291.9z M597.6,311.3c0.1,1.2-0.8,2.3-2.1,2.4
	c0,0,0,0,0,0h-13.8c-1.2-0.1-2.1-1.2-2.1-2.4v-15.8c-0.1-1.2,0.8-2.3,2.1-2.4c0,0,0,0,0,0h13.8c1.2,0.1,2.1,1.2,2.1,2.4V311.3z"/>
<path class="st12" d="M591,302.3c1-0.4,1.6-1.4,1.5-2.5c0-1.7-1-3.1-3.6-3.1h-4v11.6h4.4c2.6,0,3.7-1.5,3.7-3.2
	C593.1,303.8,592.2,302.7,591,302.3z M586.6,298.6h2.2c1.1,0,1.8,0.3,1.8,1.6c0,1-0.6,1.4-1.9,1.4h-2.2L586.6,298.6L586.6,298.6z
	 M589.3,306.6h-2.7v-3.2h2.5c1.4,0,2.2,0.5,2.2,1.5C591.3,306.3,590.5,306.6,589.3,306.6L589.3,306.6z"/>
<path class="st12" d="M607.3,290c1.9-0.1,3.3-1.7,3.2-3.5c0,0,0,0,0-0.1v-15.8c0.1-1.9-1.3-3.5-3.1-3.6c0,0,0,0-0.1,0h-13.8
	c-1.9,0.1-3.3,1.7-3.2,3.5c0,0,0,0,0,0.1v15.8c-0.1,1.9,1.3,3.5,3.1,3.6c0,0,0,0,0.1,0H607.3z M591.4,286.4v-15.8
	c-0.1-1.2,0.8-2.3,2.1-2.4c0,0,0,0,0,0h13.8c1.2,0.1,2.1,1.2,2.1,2.4v15.8c0.1,1.2-0.8,2.3-2.1,2.4c0,0,0,0,0,0h-13.8
	c-1.2,0-2.1-1-2.1-2.1C591.4,286.6,591.4,286.5,591.4,286.4z"/>
<path class="st12" d="M597.8,280.9h5.1l1,2.6h1.8l-4.5-11.6h-1.8l-4.5,11.6h1.8L597.8,280.9z M600.3,274.3l1.8,4.8h-3.7L600.3,274.3
	z"/>
<path class="st12" d="M619,291.9h-13.8c-1.9,0.1-3.3,1.7-3.2,3.5c0,0,0,0,0,0.1v15.8c-0.1,1.9,1.3,3.5,3.1,3.6c0,0,0,0,0.1,0H619
	c1.9-0.1,3.3-1.7,3.2-3.5c0,0,0,0,0-0.1v-15.8C622.3,293.6,620.9,292,619,291.9C619,291.9,619,291.9,619,291.9z M621.1,311.3
	c0.1,1.2-0.8,2.3-2.1,2.4c0,0,0,0,0,0h-13.8c-1.2-0.1-2.1-1.2-2.1-2.4v-15.8c-0.1-1.2,0.8-2.3,2.1-2.4c0,0,0,0,0,0H619
	c1.2,0.1,2.1,1.2,2.1,2.4V311.3z"/>
<path class="st12" d="M612.9,298.4c1.1,0,2.2,0.5,2.9,1.4l1.1-1.4c-0.9-1.3-2.4-2-3.9-2c-3.2,0-5.5,2.6-5.5,6s2.3,6,5.3,6
	c1.5,0,3-0.7,3.9-2l-1.1-1.3c-0.7,0.9-1.8,1.4-2.9,1.4c-2.1-0.2-3.6-2-3.5-4.1c-0.2-2.1,1.3-3.9,3.4-4.1
	C612.8,298.4,612.8,298.4,612.9,298.4z"/>
<rect x="561.1" y="322.1" class="st2" width="84.3" height="24.1"/>
<text transform="matrix(0.88 0 0 1 561.1201 341.0898)" class="st3 st13">$472.794</text>
<path class="st14" d="M493.5,182.3c-0.6-0.4-1.4-0.6-2.1-0.5c-0.4,0.1-0.8,0.2-1.1,0.4l3.6,1.9c-1.1,1.6-2.1,3.3-2.9,5.1
	c-0.6,1.3-1.1,2.6-1.5,4c-0.3,1.1-0.5,2.3-0.4,3.5c1.7-0.5,3.5-2.9,4.7-5.8c0.8-1.9,1.2-4,1.1-6.1
	C494.8,183.8,494.3,182.9,493.5,182.3z"/>
<path class="st14" d="M469.3,159.1v7.4l19.9,9.1l0,0c1.5,0,3-0.1,4.5-0.3c3.9-0.7,6.4-2.1,6.4-3.6v-12.2l-12.2,5.3L469.3,159.1z"/>
<polygon class="st14" points="483.4,143.8 457.1,153 469.3,156.7 487.9,162.3 500.1,157 513.7,151.2 "/>
<path class="st14" d="M487.4,194c0-0.2,0-0.3,0.1-0.5c0-0.2,0.1-0.4,0.1-0.6v-0.1c0.4-1.7,1-3.3,1.8-4.8c0.4-1,0.9-1.9,1.5-2.8v-0.1
	l-2.4-1.2c-0.6,0.8-1.1,1.7-1.4,2.6c-0.5,1.2-1,2.4-1.3,3.6l-28.1-16l-0.2,1c-0.2,1.5-0.2,3.1,0.6,3.4l29.6,18
	C487.3,195.7,487.1,194.8,487.4,194z"/>
<path class="st14" d="M485.5,185.3c1.7-4.1,4.6-6.5,6.9-5.7h-0.1l-30.9-14.1c-1.1-0.6-2.8,1-3.7,3.8c-0.2,0.6-0.4,1.3-0.5,1.9
	L485,187C485.1,186.4,485.2,185.8,485.5,185.3z"/>
<rect x="437.9" y="200.1" class="st2" width="99.6" height="21.9"/>
<text transform="matrix(1.03 0 0 1 437.8999 215.8901)" class="st3 st6">$367.920</text>
<path class="st12" d="M374.3,170.8h-13.8c-1.9,0.1-3.3,1.7-3.2,3.5c0,0,0,0,0,0.1v15.8c-0.1,1.9,1.3,3.5,3.1,3.6c0,0,0,0,0.1,0h13.8
	c1.9-0.1,3.3-1.7,3.2-3.5c0,0,0,0,0-0.1v-15.8C377.6,172.5,376.2,170.9,374.3,170.8C374.3,170.8,374.3,170.8,374.3,170.8z
	 M376.4,190.2c0.1,1.2-0.8,2.3-2.1,2.4c0,0,0,0,0,0h-13.8c-1.2-0.1-2.1-1.2-2.1-2.4v-15.8c-0.1-1.2,0.8-2.3,2.1-2.4c0,0,0,0,0,0
	h13.8c1.2,0.1,2.1,1.2,2.1,2.4V190.2z"/>
<path class="st12" d="M369.7,181.2c1-0.4,1.6-1.4,1.5-2.5c0-1.7-1-3.1-3.6-3.1h-4v11.6h4.5c2.6,0,3.7-1.5,3.7-3.2
	C371.9,182.7,371,181.5,369.7,181.2z M365.4,177.5h2.2c1.1,0,1.8,0.3,1.8,1.6c0,1-0.6,1.4-1.9,1.4h-2.2L365.4,177.5z M368.1,185.5
	h-2.7v-3.2h2.5c1.4,0,2.2,0.5,2.2,1.5C370.1,185.2,369.3,185.4,368.1,185.5z"/>
<path class="st12" d="M386,169c1.9-0.1,3.3-1.7,3.2-3.5c0,0,0,0,0-0.1v-15.8c0.1-1.9-1.3-3.5-3.1-3.6c0,0,0,0-0.1,0h-13.9
	c-1.9,0.1-3.3,1.7-3.2,3.5c0,0,0,0,0,0.1v15.8c-0.1,1.9,1.3,3.5,3.1,3.6c0,0,0,0,0.1,0H386z M370.2,165.4v-15.8
	c-0.1-1.2,0.8-2.3,2.1-2.4c0,0,0,0,0,0h13.8c1.2,0.1,2.1,1.2,2.1,2.4v15.8c0.1,1.2-0.8,2.3-2.1,2.4c0,0,0,0,0,0h-13.9
	C371,167.7,370.1,166.6,370.2,165.4z"/>
<path class="st12" d="M376.6,159.8h5.1l1,2.6h1.8l-4.5-11.6h-1.8l-4.5,11.6h1.8L376.6,159.8z M379.1,153.2l1.8,4.8h-3.7L379.1,153.2
	z"/>
<path class="st12" d="M397.8,170.8H384c-1.9,0.1-3.3,1.7-3.2,3.5c0,0,0,0,0,0.1v15.8c-0.1,1.9,1.3,3.5,3.1,3.6c0,0,0,0,0.1,0h13.8
	c1.9-0.1,3.3-1.7,3.2-3.5c0,0,0,0,0-0.1v-15.8C401.1,172.5,399.7,170.9,397.8,170.8C397.8,170.8,397.8,170.8,397.8,170.8z
	 M399.9,190.2c0.1,1.2-0.8,2.3-2.1,2.4c0,0,0,0,0,0H384c-1.2-0.1-2.1-1.2-2.1-2.4v-15.8c0-1.2,0.9-2.2,2.1-2.3h13.8
	c1.2,0.1,2.1,1.2,2.1,2.4V190.2L399.9,190.2z"/>
<path class="st12" d="M391.7,177.3c1.1,0,2.2,0.5,2.9,1.4l1.1-1.4c-0.9-1.3-2.4-2-3.9-2c-3.2,0-5.5,2.6-5.5,6s2.3,6,5.3,6
	c1.5,0,3-0.7,3.9-2l-1.1-1.3c-0.7,0.9-1.8,1.4-2.9,1.4c-2.1-0.2-3.6-2-3.5-4.1c-0.2-2.1,1.3-3.9,3.4-4.1
	C391.6,177.3,391.6,177.3,391.7,177.3z"/>
<rect x="334.4" y="200.4" class="st2" width="93.1" height="18.8"/>
<text transform="matrix(1.03 0 0 1 334.3701 216.21)" class="st3 st6">$307.179</text>
<path class="st14" d="M842.5,308.3c-0.6-0.4-1.4-0.6-2.1-0.5c-0.4,0.1-0.8,0.2-1.1,0.4l3.6,1.9c-1.1,1.6-2.1,3.3-2.9,5.1
	c-0.6,1.3-1.1,2.6-1.5,4c-0.3,1.1-0.5,2.3-0.4,3.5c1.7-0.5,3.5-2.9,4.7-5.8c0.8-1.9,1.2-4,1.2-6.1
	C843.9,309.8,843.3,308.9,842.5,308.3z"/>
<path class="st14" d="M818.3,285.1v7.4l19.9,9.1l0,0c1.5,0,3-0.1,4.5-0.3c3.9-0.7,6.4-2.1,6.4-3.6v-12.2l-12.2,5.3L818.3,285.1z"/>
<polygon class="st14" points="832.4,269.8 806.1,279 818.3,282.7 836.8,288.3 849.1,283 862.7,277.1 "/>
<path class="st14" d="M836.4,320c0-0.2,0-0.3,0.1-0.5c0-0.2,0.1-0.4,0.1-0.6v-0.1c0.4-1.7,1-3.3,1.8-4.8c0.4-1,0.9-1.9,1.5-2.8v-0.1
	l-2.4-1.2c-0.6,0.8-1.1,1.7-1.4,2.6c-0.5,1.2-0.9,2.4-1.2,3.6l-28.1-16l-0.2,1c-0.2,1.5-0.2,3,0.6,3.5l29.6,18
	C836.2,321.9,836.1,320.9,836.4,320z"/>
<path class="st14" d="M834.4,311.3c1.7-4.1,4.6-6.5,6.9-5.7h-0.1l-30.9-14.1c-1.2-0.6-2.8,1-3.7,3.8c-0.2,0.6-0.3,1.3-0.4,1.9
	L834,313C834.1,312.4,834.2,311.8,834.4,311.3z"/>
<rect x="795.5" y="329" class="st2" width="100" height="21"/>
<text transform="matrix(1.03 0 0 1 795.46 344.1201)" class="st3 st15">$656.333</text>
<rect x="704.7" y="196.6" class="st2" width="103.7" height="22.3"/>
<text transform="matrix(1.03 0 0 1 704.75 212.4199)" class="st3 st6">$599.961</text>
<path class="st16" d="M1218.2,288.3h-3.7c-0.5-2.2-1.4-4.3-2.8-6.1l3.2-3.1c0.2-0.2,0.3-0.5,0.4-0.8c0-0.3-0.2-0.6-0.4-0.8l-4.1-4
	c-0.5-0.4-1.3-0.4-1.8,0l-3.2,3.1c-1.8-1.1-3.7-2-5.7-2.5v-4c-0.1-0.6-0.6-1.1-1.2-1.2h-5.9c-0.6,0-1.2,0.6-1.2,1.2v3.9
	c-2.1,0.4-4.1,1.2-5.9,2.3l-3.4-3.3c-0.5-0.4-1.3-0.4-1.8,0l-4.1,4c-0.2,0.2-0.3,0.5-0.4,0.8c0,0.3,0.2,0.6,0.4,0.8l3.4,3.3
	c-1.3,2-2.2,4.1-2.8,6.4h-3.8c-0.6,0-1.2,0.6-1.2,1.2v5.8c0.1,0.6,0.6,1.1,1.2,1.2h3.7c0.4,1.9,1.1,3.7,2.1,5.4l3-3.6
	c-0.8-1.9-1.3-3.9-1.3-5.9c-0.2-8.2,6.3-15,14.5-15.2c8.2-0.2,15,6.3,15.2,14.5c0.2,8.2-6.3,15-14.5,15.2h-0.3
	c-1.4,0-2.8-0.2-4.2-0.6l-2.9,3.4c0.9,0.3,1.9,0.6,2.9,0.8v3.3c0.1,0.6,0.6,1.1,1.2,1.2h5.9c0.6,0,1.2-0.6,1.2-1.2v-3.5
	c2.2-0.5,4.4-1.4,6.3-2.7l2.6,2.5c0.2,0.2,0.5,0.3,0.8,0.4c0.3,0,0.6-0.2,0.8-0.4l4.1-4c0.2-0.2,0.3-0.5,0.4-0.8
	c0-0.3-0.2-0.6-0.4-0.8l-2.6-2.5c1.2-1.7,2-3.7,2.3-5.8h3.8c0.6,0,1.2-0.6,1.2-1.2v-5.8C1219.4,289,1219,288.3,1218.2,288.3z"/>
<path class="st16" d="M1207.6,291c-0.2-1.9-0.8-3.7-1.9-5.2l-7.2,8.3l-4.7-3.8l7.2-8.2c-1.6-0.7-3.4-1-5.2-0.8
	c-5.9,0.4-10.4,5.6-10,11.5c0,0,0,0.1,0,0.1c0.1,1.2,0.4,2.4,0.9,3.5l0.1,0.1l-17.4,20.1c-0.7,0.9-1.1,2-1,3.1
	c0.1,1.1,0.6,2.2,1.5,2.9c0.9,0.7,2,1.1,3.2,1c1.1-0.1,2.2-0.6,2.9-1.5l17.1-19.8l0.2,0.1c1.4,0.4,2.9,0.6,4.4,0.5
	C1203.6,302.2,1208,297,1207.6,291L1207.6,291z M1172.8,320.4c-0.8,0.1-1.5-0.5-1.6-1.3l0,0c-0.1-0.8,0.5-1.5,1.3-1.6l0,0
	c0.8-0.1,1.5,0.5,1.6,1.3l0,0C1174.2,319.6,1173.6,320.3,1172.8,320.4z"/>
<rect x="1147.5" y="332.4" class="st2" width="86.8" height="19.6"/>
<text transform="matrix(1.03 0 0 1 1147.46 347.5098)" class="st3 st15">$902.774</text>
<path d="M1132,141.1l-2.1,2.4c-2.9-2.6-6.5-4.2-10.3-4.6c-8,13.1-17,20.6-28.8,28.7c-0.4,0.1-0.7,0.2-1,0.4c-2.1,1.4-3,3.8-3.5,6.7
	c-1.2,6.7,0.9,14.8,7.2,16.2c3.7,0.8,6.1,0.2,7.7-1.8c1.2-1.4,6.5-7.5,13.3-14.6c6.6-6.6,13.5-12.8,20.8-18.6
	c3.5-3,2.8-7.7,0.3-11.3c-0.9-1.3-2-2.5-3.3-3.4L1132,141.1z M1102.8,183.8c0.4-4.2,0.5-8.3,0.2-12.5c2-1.2,4-2.5,5.8-4
	c8.9-6.7,16.1-14.6,23.4-23.3c2.6,2.4,4.9,7.3,1.8,10.1c-7.3,5.8-14.3,12-21,18.6C1108.9,177,1105.2,181,1102.8,183.8L1102.8,183.8z
	 M1099.4,187.6c-1,1.4-2.8,1.8-5.6,1.2c-5.8-1.4-7-9.5-5.4-15.2c1.6-5.5,6.5-4.7,8-0.8l-6.3,6.3c0.2,0.6,0.5,4.6,3.7,5.5
	c2.3,0.8,4.2-1.6,4.9-4.4c0.4-2.1,0.4-4.4,0-6.5c-0.2-2.7-1.9-5-4.4-6.1c11-7.7,18.5-14.2,26-26.1c2.9,0.4,5.7,1.7,7.9,3.6
	c-7.3,8.5-22.4,24.5-27.4,24.5c0,1.2,0.5,11.3-0.2,14.8C1100.5,185.6,1100.1,186.7,1099.4,187.6z M1097,175.3c0.2,2.2,0,4.9-1.2,6.3
	c-1.2,1.8-2.8,0-3.3-1.8L1097,175.3z"/>
<path d="M1129.7,182.6c-0.8-2.5-1.9-4.9-3.3-7.1c-1.6-2-3.7-3.7-6.1-4.7c1.8,2.3,3,4.9,3.7,7.7c0.6,2.1,1.1,4.3,1.4,6.5l-2.4-1.4
	l-1.9,4c0.5-3.4,0-6.9-1.2-10.1c-1.9-4.7-3.3-6.1-3.3-6.1c0.5-8.5-3.2-13.1-10.7-13.6l5.6-5.7c6.6-0.2,10.5,7.9,9.8,14.8
	c5.1,3.2,9.8,7.7,14,12.1l-3.8,0.8L1129.7,182.6z"/>
<rect x="1071.1" y="196.2" class="st2" width="92.4" height="17.8"/>
<text transform="matrix(1.03 0 0 1 1071.0898 212.02)" class="st3 st6">$865.914</text>
<path d="M1456.8,273.8l-2.1,2.4c-2.8-2.6-6.5-4.2-10.3-4.5c-8,13-17,20.6-28.8,28.7c-0.4,0.1-0.7,0.2-1,0.4c-2.1,1.4-3,3.8-3.5,6.7
	c-1.2,6.7,0.9,14.8,7.2,16.2c3.7,0.8,6.1,0.2,7.7-1.8c1.2-1.4,6.5-7.5,13.3-14.6c6.6-6.6,13.5-12.8,20.8-18.6
	c3.5-3,2.8-7.7,0.3-11.3c-0.9-1.3-2-2.5-3.3-3.4L1456.8,273.8z M1427.6,316.5c0.4-4.2,0.5-8.3,0.2-12.5c2-1.2,4-2.5,5.8-4
	c8.9-6.7,16.1-14.6,23.4-23.3c2.6,2.4,4.9,7.3,1.8,10.1c-7.3,5.8-14.3,12-21,18.6C1433.7,309.8,1430,313.8,1427.6,316.5
	L1427.6,316.5z M1424.3,320.3c-1,1.4-2.8,1.8-5.6,1.2c-5.8-1.4-7-9.5-5.4-15.2c1.6-5.5,6.5-4.7,8-0.8l-6.3,6.3
	c0.2,0.6,0.5,4.5,3.7,5.5c2.3,0.8,4.2-1.6,4.9-4.4c0.4-2.1,0.4-4.4,0-6.5c-0.2-2.7-1.9-5-4.4-6.1c11-7.7,18.5-14.2,26-26.1
	c2.9,0.4,5.7,1.7,7.9,3.6c-7.3,8.5-22.4,24.5-27.4,24.5c0,1.2,0.5,11.3-0.2,14.8C1425.3,318.2,1424.9,319.3,1424.3,320.3z
	 M1421.8,308c0.2,2.2,0,4.9-1.2,6.3c-1.2,1.8-2.8,0-3.3-1.8L1421.8,308z"/>
<path d="M1454.5,315.3c-0.8-2.5-1.9-4.9-3.3-7.1c-1.6-2-3.7-3.7-6.1-4.7c1.8,2.3,3,4.9,3.7,7.7c0.6,2.1,1.1,4.3,1.4,6.5l-2.4-1.4
	l-1.9,4c0.5-3.4,0-6.9-1.2-10.1c-1.9-4.7-3.3-6.1-3.3-6.1c0.5-8.5-3.2-13-10.7-13.6l5.6-5.7c6.6-0.2,10.5,7.9,9.8,14.8
	c5.1,3.2,9.8,7.7,14,12.1l-3.8,0.8L1454.5,315.3z"/>
<rect x="1389.5" y="331.9" class="st2" width="109" height="19.1"/>
<text transform="matrix(1.03 0 0 1 1389.46 347.73)" class="st3 st6">$1.400.529</text>
</svg>
