<svg id="Capa_1" data-name="Capa 1" xmlns="http://www.w3.org/2000/svg" viewBox="0 0 1504.01 410.21"><defs><style>.cls-1{fill:#dcf4f3;stroke:#416190;stroke-miterlimit:5.83;stroke-width:5.01px;}.cls-2,.cls-3{fill:none;}.cls-16,.cls-2{stroke:#000;}.cls-12,.cls-14,.cls-16,.cls-2{stroke-miterlimit:10;}.cls-2{stroke-width:3.04px;}.cls-11,.cls-13,.cls-15,.cls-4,.cls-6,.cls-7,.cls-8,.cls-9{isolation:isolate;}.cls-4{font-size:16px;}.cls-13,.cls-15,.cls-4,.cls-6{font-family:Optima-Bold, Optima;}.cls-11,.cls-13,.cls-15,.cls-4,.cls-6,.cls-7{font-weight:700;}.cls-12,.cls-14,.cls-5{fill:red;}.cls-6,.cls-7,.cls-8{font-size:21px;}.cls-11,.cls-7{font-family:Verdana-Bold, Verdana;}.cls-8,.cls-9{font-family:Optima-Regular, Optima;}.cls-9{font-size:12.24px;}.cls-10{fill:#fcee21;}.cls-11{font-size:16.65px;}.cls-12,.cls-14{stroke:red;}.cls-12{stroke-width:1.33px;}.cls-13{font-size:24.79px;}.cls-14{stroke-width:0.22px;}.cls-15{font-size:20px;}.cls-16{stroke-width:0.14px;}.cls-17{fill-rule:evenodd;}</style></defs><title>antofagasta</title><rect class="cls-1" x="2.5" y="2.5" width="1499" height="405.2"/><rect class="cls-2" x="89.5" y="233.5" width="1385.4" height="21.3"/><rect class="cls-3" x="103.5" y="237.9" width="1371.8" height="36.8"/><text class="cls-4" transform="translate(103.45 249.94) scale(0.98 1)">$100.000</text><text class="cls-4" transform="translate(233.92 249.94) scale(0.98 1)">$200.000</text><text class="cls-4" transform="translate(364.38 249.94) scale(0.98 1)">$300.000</text><text class="cls-4" transform="translate(494.85 249.94) scale(0.98 1)">$400.000</text><text class="cls-4" transform="translate(625.31 249.94) scale(0.98 1)">$500.000</text><text class="cls-4" transform="translate(755.79 249.94) scale(0.98 1)">$600.000</text><text class="cls-4" transform="translate(886.25 249.94) scale(0.98 1)">$700.000</text><text class="cls-4" transform="translate(1016.72 249.94) scale(0.98 1)">$800.000</text><text class="cls-4" transform="translate(1147.19 249.94) scale(0.98 1)">$900.000</text><text class="cls-4" transform="translate(1277.65 249.94) scale(0.98 1)">$1.000.000</text><text class="cls-4" transform="translate(1408.12 249.94) scale(0.98 1)"><tspan xml:space="preserve">   +++</tspan></text><path class="cls-5" d="M781.16,155.77h-3.7a15.43,15.43,0,0,0-2.8-6.1l3.2-3.1a2,2,0,0,0,.4-.8,1.23,1.23,0,0,0-.4-.8l-4.1-4a1.5,1.5,0,0,0-1.8,0l-3.2,3.1a20.62,20.62,0,0,0-5.7-2.5v-4a1.38,1.38,0,0,0-1.2-1.2H756a1.29,1.29,0,0,0-1.2,1.2v3.9a17.7,17.7,0,0,0-5.9,2.3l-3.4-3.3a1.5,1.5,0,0,0-1.8,0l-4.1,4a2,2,0,0,0-.4.8,1.23,1.23,0,0,0,.4.8l3.4,3.3a21.5,21.5,0,0,0-2.8,6.4h-3.8a1.29,1.29,0,0,0-1.2,1.2v5.8a1.38,1.38,0,0,0,1.2,1.2h3.7a17.83,17.83,0,0,0,2.1,5.4l3-3.6a14.54,14.54,0,0,1-1.3-5.9,14.85,14.85,0,1,1,15.2,14.5h-.3a15.23,15.23,0,0,1-4.2-.6l-2.9,3.4a24.54,24.54,0,0,0,2.9.8v3.3a1.38,1.38,0,0,0,1.2,1.2h5.9a1.29,1.29,0,0,0,1.2-1.2v-3.5a18.51,18.51,0,0,0,6.3-2.7l2.6,2.5a2,2,0,0,0,.8.4,1.23,1.23,0,0,0,.8-.4l4.1-4a2,2,0,0,0,.4-.8,1.23,1.23,0,0,0-.4-.8l-2.5-2.5a13.37,13.37,0,0,0,2.3-5.8H781a1.29,1.29,0,0,0,1.2-1.2v-5.8C782.36,156.37,782,155.77,781.16,155.77Z" transform="translate(-1.86 -1.27)"/><path class="cls-5" d="M770.46,158.37a10.7,10.7,0,0,0-2-5.2l-7.2,8.3-4.7-3.8,7.2-8.2a10.37,10.37,0,0,0-5.2-.8,10.79,10.79,0,0,0-10,11.6,10.64,10.64,0,0,0,.9,3.5l.1.1L732.26,184a4.45,4.45,0,0,0-1,3.1,4.35,4.35,0,0,0,1.5,2.9,4.55,4.55,0,0,0,3.2,1,4.45,4.45,0,0,0,2.9-1.4l17.2-19.8.2.1a13,13,0,0,0,4.4.5A11.33,11.33,0,0,0,770.46,158.37Zm-34.8,29.4a1.46,1.46,0,0,1-1.6-1.3h0a1.46,1.46,0,0,1,1.3-1.6h0a1.46,1.46,0,0,1,1.6,1.3A1.35,1.35,0,0,1,735.66,187.77Z" transform="translate(-1.86 -1.27)"/><rect class="cls-3" x="810.5" y="377.7" width="92" height="32.3"/><text class="cls-6" transform="translate(810.47 393.51) scale(0.98 1)">$668.376</text><rect class="cls-3" x="580.6" y="20.3" width="439.9" height="108.7"/><text class="cls-7" transform="translate(723.16 31.97)">ANTOFAGASTA ll</text><text class="cls-7" transform="translate(561.12 86.55)">Población:</text><text class="cls-8" transform="translate(682.33 86.55)"><tspan xml:space="preserve"> 607.534   </tspan></text><text class="cls-7" transform="translate(779.81 86.55)">Superficie:</text><text class="cls-8" transform="translate(904.86 87.52)"><tspan xml:space="preserve"> 126.049,1 km</tspan></text><text class="cls-9" transform="translate(1041.41 77.23)">2</text><rect class="cls-10" x="854.7" y="125" width="4.5" height="244"/><rect class="cls-3" x="6.9" y="177.6" width="105.4" height="23.7"/><text class="cls-11" transform="translate(6.9 189.51) scale(0.98 1)">MUJERES</text><rect class="cls-3" x="6.9" y="299" width="96.2" height="26"/><text class="cls-11" transform="translate(6.9 310.95) scale(0.98 1)">HOMBRES</text><rect class="cls-3" x="206" y="61.8" width="80.5" height="23.3"/><path class="cls-12" d="M597.46,293.17h-13.8a3.38,3.38,0,0,0-3.2,3.6v15.8a3.38,3.38,0,0,0,3.2,3.6h13.8a3.38,3.38,0,0,0,3.2-3.6v-15.8A3.52,3.52,0,0,0,597.46,293.17Zm2,19.4a2.24,2.24,0,0,1-2.1,2.4h-13.8a2.32,2.32,0,0,1-2.1-2.4v-15.8a2.24,2.24,0,0,1,2.1-2.4h13.8a2.32,2.32,0,0,1,2.1,2.4Z" transform="translate(-1.86 -1.27)"/><path class="cls-12" d="M592.86,303.57a2.42,2.42,0,0,0,1.5-2.5c0-1.7-1-3.1-3.6-3.1h-4v11.6h4.4c2.6,0,3.7-1.5,3.7-3.2A2.79,2.79,0,0,0,592.86,303.57Zm-4.4-3.7h2.2c1.1,0,1.8.3,1.8,1.6,0,1-.6,1.4-1.9,1.4h-2.2l.1-3Zm2.7,8h-2.7v-3.2H591c1.4,0,2.2.5,2.2,1.5,0,1.4-.8,1.7-2,1.7Z" transform="translate(-1.86 -1.27)"/><path class="cls-12" d="M609.16,291.27a3.38,3.38,0,0,0,3.2-3.6v-15.8a3.38,3.38,0,0,0-3.2-3.6h-13.8a3.38,3.38,0,0,0-3.2,3.6v15.8a3.38,3.38,0,0,0,3.2,3.6Zm-15.9-3.6v-15.8a2.24,2.24,0,0,1,2.1-2.4h13.8a2.32,2.32,0,0,1,2.1,2.4v15.8a2.24,2.24,0,0,1-2.1,2.4h-13.8a2.13,2.13,0,0,1-2.1-2.4Z" transform="translate(-1.86 -1.27)"/><path class="cls-12" d="M599.66,282.17h5.1l1,2.6h1.8l-4.5-11.6h-1.8l-4.5,11.6h1.8Zm2.5-6.6,1.8,4.8h-3.7Z" transform="translate(-1.86 -1.27)"/><path class="cls-12" d="M620.86,293.17h-13.8a3.38,3.38,0,0,0-3.2,3.6v15.8a3.38,3.38,0,0,0,3.2,3.6h13.8a3.38,3.38,0,0,0,3.2-3.6v-15.8A3.38,3.38,0,0,0,620.86,293.17Zm2.1,19.4a2.24,2.24,0,0,1-2.1,2.4h-13.8a2.32,2.32,0,0,1-2.1-2.4v-15.8a2.24,2.24,0,0,1,2.1-2.4h13.8a2.32,2.32,0,0,1,2.1,2.4v15.8Z" transform="translate(-1.86 -1.27)"/><path class="cls-12" d="M614.76,299.67a3.7,3.7,0,0,1,2.9,1.4l1.1-1.4a4.74,4.74,0,0,0-3.9-2c-3.2,0-5.5,2.6-5.5,6s2.3,6,5.3,6a4.74,4.74,0,0,0,3.9-2l-1.1-1.3a3.56,3.56,0,0,1-2.9,1.4,3.84,3.84,0,0,1-3.5-4.1,3.8,3.8,0,0,1,3.4-4.1C614.66,299.67,614.66,299.67,614.76,299.67Z" transform="translate(-1.86 -1.27)"/><rect class="cls-3" x="561.1" y="322.1" width="84.3" height="24.1"/><text class="cls-13" transform="translate(561.12 341.09) scale(0.88 1)">$472.794</text><path class="cls-14" d="M495.36,183.57a3,3,0,0,0-2.1-.5,3.58,3.58,0,0,0-1.1.4l3.6,1.9a42.12,42.12,0,0,0-2.9,5.1,27.4,27.4,0,0,0-1.5,4,10.2,10.2,0,0,0-.4,3.5c1.7-.5,3.5-2.9,4.7-5.8a14.07,14.07,0,0,0,1.1-6.1A3.23,3.23,0,0,0,495.36,183.57Z" transform="translate(-1.86 -1.27)"/><path class="cls-14" d="M471.16,160.37v7.4l19.9,9.1h0a34,34,0,0,0,4.5-.3c3.9-.7,6.4-2.1,6.4-3.6v-12.2l-12.2,5.3Z" transform="translate(-1.86 -1.27)"/><polygon class="cls-14" points="483.4 143.8 457.1 153 469.3 156.7 487.9 162.3 500.1 157 513.7 151.2 483.4 143.8"/><path class="cls-14" d="M489.26,195.27a1.09,1.09,0,0,1,.1-.5c0-.2.1-.4.1-.6v-.1a19.78,19.78,0,0,1,1.8-4.8,19.1,19.1,0,0,1,1.5-2.8v-.1l-2.4-1.2a9.39,9.39,0,0,0-1.4,2.6,26,26,0,0,0-1.3,3.6l-28.1-16-.2,1c-.2,1.5-.2,3.1.6,3.4l29.6,18A3.14,3.14,0,0,1,489.26,195.27Z" transform="translate(-1.86 -1.27)"/><path class="cls-14" d="M487.36,186.57c1.7-4.1,4.6-6.5,6.9-5.7h-.1l-30.9-14.1c-1.1-.6-2.8,1-3.7,3.8a13.32,13.32,0,0,0-.5,1.9l27.8,15.8A4.8,4.8,0,0,1,487.36,186.57Z" transform="translate(-1.86 -1.27)"/><rect class="cls-3" x="437.9" y="200.1" width="99.6" height="21.9"/><text class="cls-6" transform="translate(437.9 215.89) scale(1.03 1)">$367.920</text><path class="cls-12" d="M376.16,172.07h-13.8a3.38,3.38,0,0,0-3.2,3.6v15.8a3.38,3.38,0,0,0,3.2,3.6h13.8a3.38,3.38,0,0,0,3.2-3.6v-15.8A3.38,3.38,0,0,0,376.16,172.07Zm2.1,19.4a2.24,2.24,0,0,1-2.1,2.4h-13.8a2.32,2.32,0,0,1-2.1-2.4v-15.8a2.24,2.24,0,0,1,2.1-2.4h13.8a2.32,2.32,0,0,1,2.1,2.4Z" transform="translate(-1.86 -1.27)"/><path class="cls-12" d="M371.56,182.47a2.42,2.42,0,0,0,1.5-2.5c0-1.7-1-3.1-3.6-3.1h-4v11.6H370c2.6,0,3.7-1.5,3.7-3.2A2.7,2.7,0,0,0,371.56,182.47Zm-4.3-3.7h2.2c1.1,0,1.8.3,1.8,1.6,0,1-.6,1.4-1.9,1.4h-2.2l.1-3Zm2.7,8h-2.7v-3.2h2.5c1.4,0,2.2.5,2.2,1.5,0,1.4-.8,1.6-2,1.7Z" transform="translate(-1.86 -1.27)"/><path class="cls-12" d="M387.86,170.27a3.38,3.38,0,0,0,3.2-3.6v-15.8a3.38,3.38,0,0,0-3.2-3.6H374a3.38,3.38,0,0,0-3.2,3.6v15.8a3.38,3.38,0,0,0,3.2,3.6Zm-15.8-3.6v-15.8a2.24,2.24,0,0,1,2.1-2.4H388a2.32,2.32,0,0,1,2.1,2.4v15.8a2.24,2.24,0,0,1-2.1,2.4h-13.9A2.29,2.29,0,0,1,372.06,166.67Z" transform="translate(-1.86 -1.27)"/><path class="cls-12" d="M378.46,161.07h5.1l1,2.6h1.8l-4.5-11.6h-1.8l-4.5,11.6h1.8Zm2.5-6.6,1.8,4.8h-3.7Z" transform="translate(-1.86 -1.27)"/><path class="cls-12" d="M399.66,172.07h-13.8a3.38,3.38,0,0,0-3.2,3.6v15.8a3.38,3.38,0,0,0,3.2,3.6h13.8a3.38,3.38,0,0,0,3.2-3.6v-15.8A3.38,3.38,0,0,0,399.66,172.07Zm2.1,19.4a2.24,2.24,0,0,1-2.1,2.4h-13.8a2.32,2.32,0,0,1-2.1-2.4v-15.8a2.22,2.22,0,0,1,2.1-2.3h13.8a2.32,2.32,0,0,1,2.1,2.4v15.7Z" transform="translate(-1.86 -1.27)"/><path class="cls-12" d="M393.56,178.57a3.7,3.7,0,0,1,2.9,1.4l1.1-1.4a4.74,4.74,0,0,0-3.9-2c-3.2,0-5.5,2.6-5.5,6s2.3,6,5.3,6a4.74,4.74,0,0,0,3.9-2l-1.1-1.3a3.56,3.56,0,0,1-2.9,1.4,3.84,3.84,0,0,1-3.5-4.1,3.8,3.8,0,0,1,3.4-4.1C393.46,178.57,393.46,178.57,393.56,178.57Z" transform="translate(-1.86 -1.27)"/><rect class="cls-3" x="334.4" y="200.4" width="93.1" height="18.8"/><text class="cls-6" transform="translate(334.37 216.21) scale(1.03 1)">$307.179</text><path class="cls-14" d="M844.36,309.57a3,3,0,0,0-2.1-.5,3.58,3.58,0,0,0-1.1.4l3.6,1.9a42.12,42.12,0,0,0-2.9,5.1,27.4,27.4,0,0,0-1.5,4,10.2,10.2,0,0,0-.4,3.5c1.7-.5,3.5-2.9,4.7-5.8a15.8,15.8,0,0,0,1.2-6.1A3.67,3.67,0,0,0,844.36,309.57Z" transform="translate(-1.86 -1.27)"/><path class="cls-14" d="M820.16,286.37v7.4l19.9,9.1h0a34,34,0,0,0,4.5-.3c3.9-.7,6.4-2.1,6.4-3.6v-12.2l-12.2,5.3Z" transform="translate(-1.86 -1.27)"/><polygon class="cls-14" points="832.4 269.8 806.1 279 818.3 282.7 836.8 288.3 849.1 283 862.7 277.1 832.4 269.8"/><path class="cls-14" d="M838.26,321.27a1.09,1.09,0,0,1,.1-.5c0-.2.1-.4.1-.6v-.1a19.78,19.78,0,0,1,1.8-4.8,19.1,19.1,0,0,1,1.5-2.8v-.1l-2.4-1.2a9.39,9.39,0,0,0-1.4,2.6,25.33,25.33,0,0,0-1.2,3.6l-28.1-16-.2,1c-.2,1.5-.2,3,.6,3.5l29.6,18A2.72,2.72,0,0,1,838.26,321.27Z" transform="translate(-1.86 -1.27)"/><path class="cls-14" d="M836.26,312.57c1.7-4.1,4.6-6.5,6.9-5.7h-.1l-30.9-14.1c-1.2-.6-2.8,1-3.7,3.8a10.62,10.62,0,0,0-.4,1.9l27.8,15.8A7.09,7.09,0,0,1,836.26,312.57Z" transform="translate(-1.86 -1.27)"/><rect class="cls-3" x="795.5" y="329" width="100" height="21"/><text class="cls-15" transform="translate(795.46 344.12) scale(1.03 1)">$656.333</text><rect class="cls-3" x="704.7" y="196.6" width="103.7" height="22.3"/><text class="cls-6" transform="translate(704.75 212.42) scale(1.03 1)">$599.961</text><path class="cls-16" d="M1220.06,289.57h-3.7a15.43,15.43,0,0,0-2.8-6.1l3.2-3.1a2,2,0,0,0,.4-.8,1.23,1.23,0,0,0-.4-.8l-4.1-4a1.5,1.5,0,0,0-1.8,0l-3.2,3.1a20.62,20.62,0,0,0-5.7-2.5v-4a1.38,1.38,0,0,0-1.2-1.2h-5.9a1.29,1.29,0,0,0-1.2,1.2v3.9a17.7,17.7,0,0,0-5.9,2.3l-3.4-3.3a1.5,1.5,0,0,0-1.8,0l-4.1,4a2,2,0,0,0-.4.8,1.23,1.23,0,0,0,.4.8l3.4,3.3a21.5,21.5,0,0,0-2.8,6.4h-3.8a1.29,1.29,0,0,0-1.2,1.2v5.8a1.38,1.38,0,0,0,1.2,1.2h3.7a17.83,17.83,0,0,0,2.1,5.4l3-3.6a14.54,14.54,0,0,1-1.3-5.9,14.85,14.85,0,1,1,15.2,14.5h-.3a15.23,15.23,0,0,1-4.2-.6l-2.9,3.4a24.54,24.54,0,0,0,2.9.8v3.3a1.38,1.38,0,0,0,1.2,1.2h5.9a1.29,1.29,0,0,0,1.2-1.2v-3.5a18.51,18.51,0,0,0,6.3-2.7l2.6,2.5a2,2,0,0,0,.8.4,1.23,1.23,0,0,0,.8-.4l4.1-4a2,2,0,0,0,.4-.8,1.23,1.23,0,0,0-.4-.8l-2.6-2.5a13.37,13.37,0,0,0,2.3-5.8h3.8a1.29,1.29,0,0,0,1.2-1.2v-5.8C1221.26,290.27,1220.86,289.57,1220.06,289.57Z" transform="translate(-1.86 -1.27)"/><path class="cls-16" d="M1209.46,292.27a10.58,10.58,0,0,0-1.9-5.2l-7.2,8.3-4.7-3.8,7.2-8.2a10.37,10.37,0,0,0-5.2-.8,10.79,10.79,0,0,0-10,11.6,10.64,10.64,0,0,0,.9,3.5l.1.1-17.4,20.1a4.45,4.45,0,0,0-1,3.1,4.35,4.35,0,0,0,1.5,2.9,4.55,4.55,0,0,0,3.2,1,4.14,4.14,0,0,0,2.9-1.5l17.1-19.8.2.1a13,13,0,0,0,4.4.5,11.32,11.32,0,0,0,9.9-11.9Zm-34.8,29.4a1.46,1.46,0,0,1-1.6-1.3h0a1.46,1.46,0,0,1,1.3-1.6h0a1.46,1.46,0,0,1,1.6,1.3h0a1.46,1.46,0,0,1-1.3,1.6Z" transform="translate(-1.86 -1.27)"/><rect class="cls-3" x="1147.5" y="332.4" width="86.8" height="19.6"/><text class="cls-15" transform="translate(1147.46 347.51) scale(1.03 1)">$902.774</text><path d="M1133.86,142.37l-2.1,2.4a18,18,0,0,0-10.3-4.6c-8,13.1-17,20.6-28.8,28.7a3,3,0,0,0-1,.4c-2.1,1.4-3,3.8-3.5,6.7-1.2,6.7.9,14.8,7.2,16.2,3.7.8,6.1.2,7.7-1.8,1.2-1.4,6.5-7.5,13.3-14.6a244.36,244.36,0,0,1,20.8-18.6c3.5-3,2.8-7.7.3-11.3a13.34,13.34,0,0,0-3.3-3.4Zm-29.2,42.7a74.39,74.39,0,0,0,.2-12.5,46,46,0,0,0,5.8-4c8.9-6.7,16.1-14.6,23.4-23.3,2.6,2.4,4.9,7.3,1.8,10.1a263.38,263.38,0,0,0-21,18.6c-4.1,4.3-7.8,8.3-10.2,11.1Zm-3.4,3.8c-1,1.4-2.8,1.8-5.6,1.2-5.8-1.4-7-9.5-5.4-15.2,1.6-5.5,6.5-4.7,8-.8l-6.3,6.3c.2.6.5,4.6,3.7,5.5,2.3.8,4.2-1.6,4.9-4.4a17.75,17.75,0,0,0,0-6.5,7.26,7.26,0,0,0-4.4-6.1c11-7.7,18.5-14.2,26-26.1a15.06,15.06,0,0,1,7.9,3.6c-7.3,8.5-22.4,24.5-27.4,24.5,0,1.2.5,11.3-.2,14.8a6.63,6.63,0,0,1-1.2,3.2Zm-2.4-12.3c.2,2.2,0,4.9-1.2,6.3-1.2,1.8-2.8,0-3.3-1.8Z" transform="translate(-1.86 -1.27)"/><path class="cls-17" d="M1131.56,183.87a30.6,30.6,0,0,0-3.3-7.1,15.68,15.68,0,0,0-6.1-4.7,20.36,20.36,0,0,1,3.7,7.7,46.94,46.94,0,0,1,1.4,6.5l-2.4-1.4-1.9,4a20.47,20.47,0,0,0-1.2-10.1c-1.9-4.7-3.3-6.1-3.3-6.1.5-8.5-3.2-13.1-10.7-13.6l5.6-5.7c6.6-.2,10.5,7.9,9.8,14.8,5.1,3.2,9.8,7.7,14,12.1l-3.8.8Z" transform="translate(-1.86 -1.27)"/><rect class="cls-3" x="1071.1" y="196.2" width="92.4" height="17.8"/><text class="cls-6" transform="translate(1071.09 212.02) scale(1.03 1)">$865.914</text><path d="M1458.66,275.07l-2.1,2.4a17.26,17.26,0,0,0-10.3-4.5c-8,13-17,20.6-28.8,28.7a3,3,0,0,0-1,.4c-2.1,1.4-3,3.8-3.5,6.7-1.2,6.7.9,14.8,7.2,16.2,3.7.8,6.1.2,7.7-1.8,1.2-1.4,6.5-7.5,13.3-14.6A244.36,244.36,0,0,1,1462,290c3.5-3,2.8-7.7.3-11.3a13.34,13.34,0,0,0-3.3-3.4Zm-29.2,42.7a74.39,74.39,0,0,0,.2-12.5,46,46,0,0,0,5.8-4c8.9-6.7,16.1-14.6,23.4-23.3,2.6,2.4,4.9,7.3,1.8,10.1a263.38,263.38,0,0,0-21,18.6C1435.56,311.07,1431.86,315.07,1429.46,317.77Zm-3.3,3.8c-1,1.4-2.8,1.8-5.6,1.2-5.8-1.4-7-9.5-5.4-15.2,1.6-5.5,6.5-4.7,8-.8l-6.3,6.3c.2.6.5,4.5,3.7,5.5,2.3.8,4.2-1.6,4.9-4.4a17.75,17.75,0,0,0,0-6.5,7.26,7.26,0,0,0-4.4-6.1c11-7.7,18.5-14.2,26-26.1a15.06,15.06,0,0,1,7.9,3.6c-7.3,8.5-22.4,24.5-27.4,24.5,0,1.2.5,11.3-.2,14.8a8.2,8.2,0,0,1-1.2,3.2Zm-2.5-12.3c.2,2.2,0,4.9-1.2,6.3-1.2,1.8-2.8,0-3.3-1.8Z" transform="translate(-1.86 -1.27)"/><path class="cls-17" d="M1456.36,316.57a30.6,30.6,0,0,0-3.3-7.1,15.68,15.68,0,0,0-6.1-4.7,20.36,20.36,0,0,1,3.7,7.7,46.94,46.94,0,0,1,1.4,6.5l-2.4-1.4-1.9,4a20.47,20.47,0,0,0-1.2-10.1c-1.9-4.7-3.3-6.1-3.3-6.1.5-8.5-3.2-13-10.7-13.6l5.6-5.7c6.6-.2,10.5,7.9,9.8,14.8,5.1,3.2,9.8,7.7,14,12.1l-3.8.8Z" transform="translate(-1.86 -1.27)"/><rect class="cls-3" x="1389.5" y="331.9" width="109" height="19.1"/><text class="cls-6" transform="translate(1389.46 347.73) scale(1.03 1)">$1.400.529</text></svg>