<?xml version="1.0" encoding="utf-8"?>
<!-- Generator: Adobe Illustrator 24.2.3, SVG Export Plug-In . SVG Version: 6.00 Build 0)  -->
<svg version="1.1" id="Capa_1" xmlns="http://www.w3.org/2000/svg" xmlns:xlink="http://www.w3.org/1999/xlink" x="0px" y="0px"
	 viewBox="0 0 1498.3 410.5" style="enable-background:new 0 0 1498.3 410.5;" xml:space="preserve">
<style type="text/css">
	.st0{fill:none;stroke:#000000;stroke-width:3.0401;stroke-miterlimit:10;}
	.st1{fill:none;}
	.st2{font-family:'Optima-Bold';}
	.st3{font-size:16px;}
	.st4{letter-spacing:27.6;}
	.st5{letter-spacing:9.2;}
	.st6{fill:#FF0000;}
	.st7{font-size:21px;}
	.st8{font-family:'Verdana-Bold';}
	.st9{font-family:'Optima-Regular';}
	.st10{fill:none;stroke:#000000;stroke-width:0.25;stroke-miterlimit:10;}
	.st11{font-size:12.243px;}
	.st12{fill:#FCEE21;}
	.st13{font-size:16.6514px;}
	.st14{fill:#FF0000;stroke:#FF0000;stroke-width:1.3664;stroke-miterlimit:10;}
	.st15{font-size:18.9273px;}
	.st16{fill:#FF0000;stroke:#FF0000;stroke-width:1.3343;stroke-miterlimit:10;}
	.st17{font-size:18px;}
	.st18{fill:#FF0000;stroke:#FF0000;stroke-width:0.2169;stroke-miterlimit:10;}
	.st19{fill:#FF0000;stroke:#FF0000;stroke-width:0.1414;stroke-miterlimit:10;}
	.st20{fill-rule:evenodd;clip-rule:evenodd;}
	.st21{fill:#DCF4F3;fill-opacity:0.8;stroke:#416190;stroke-width:5;stroke-miterlimit:5.83;}
</style>
<rect x="97" y="236.2" class="st0" width="1385.4" height="21.3"/>
<rect x="110.9" y="240.6" class="st1" width="1371.8" height="36.8"/>
<text transform="matrix(0.9794 0 0 1 110.9321 252.6137)" class="st2 st3">$100.000</text>
<text transform="matrix(0.9794 0 0 1 176.2769 252.6137)" class="st2 st3 st4"> </text>
<text transform="matrix(0.9794 0 0 1 208.7837 252.6137)" class="st2 st3 st4"> </text>
<text transform="matrix(0.9794 0 0 1 241.3979 252.6137)" class="st2 st3">$200.000</text>
<text transform="matrix(0.9794 0 0 1 306.7432 252.6137)" class="st2 st3 st4"> </text>
<text transform="matrix(0.9794 0 0 1 339.25 252.6137)" class="st2 st3 st4"> </text>
<text transform="matrix(0.9794 0 0 1 371.8643 252.6137)" class="st2 st3">$300.000</text>
<text transform="matrix(0.9794 0 0 1 437.21 252.6137)" class="st2 st3 st4"> </text>
<text transform="matrix(0.9794 0 0 1 469.7158 252.6137)" class="st2 st3 st4"> </text>
<text transform="matrix(0.9794 0 0 1 502.3301 252.6137)" class="st2 st3">$400.000</text>
<text transform="matrix(0.9794 0 0 1 567.6758 252.6137)" class="st2 st3 st4"> </text>
<text transform="matrix(0.9794 0 0 1 600.1816 252.6137)" class="st2 st3 st4"> </text>
<text transform="matrix(0.9794 0 0 1 632.8057 252.6137)" class="st2 st3">$500.000</text>
<text transform="matrix(0.9794 0 0 1 698.1514 252.6137)" class="st2 st3 st4"> </text>
<text transform="matrix(0.9794 0 0 1 730.6475 252.6137)" class="st2 st3 st4"> </text>
<text transform="matrix(0.9794 0 0 1 763.2715 252.6137)" class="st2 st3">$600.000</text>
<text transform="matrix(0.9794 0 0 1 828.6172 252.6137)" class="st2 st3 st4"> </text>
<text transform="matrix(0.9794 0 0 1 861.123 252.6137)" class="st2 st3 st4"> </text>
<text transform="matrix(0.9794 0 0 1 893.7363 252.6137)" class="st2 st3">$700.000</text>
<text transform="matrix(0.9794 0 0 1 959.082 252.6137)" class="st2 st3 st4"> </text>
<text transform="matrix(0.9794 0 0 1 991.5889 252.6137)" class="st2 st3 st4"> </text>
<text transform="matrix(0.9794 0 0 1 1024.2031 252.6137)" class="st2 st3">$800.000</text>
<text transform="matrix(0.9794 0 0 1 1089.5488 252.6137)" class="st2 st3 st4"> </text>
<text transform="matrix(0.9794 0 0 1 1122.0547 252.6137)" class="st2 st3 st4"> </text>
<text transform="matrix(0.9794 0 0 1 1154.6689 252.6137)" class="st2 st3">$900.000</text>
<text transform="matrix(0.9794 0 0 1 1220.0146 252.6137)" class="st2 st3 st4"> </text>
<text transform="matrix(0.9794 0 0 1 1252.5205 252.6137)" class="st2 st3 st4"> </text>
<text transform="matrix(0.9794 0 0 1 1285.1348 252.6137)" class="st2 st3">$1.000.000 </text>
<text transform="matrix(0.9794 0 0 1 1367.9043 252.6137)" class="st2 st3 st5"> </text>
<text transform="matrix(0.9794 0 0 1 1382.9863 252.6137)" class="st2 st3 st4"> </text>
<text transform="matrix(0.9794 0 0 1 1415.6006 252.6137)" class="st2 st3">   +++</text>
<path class="st6" d="M585.7,157.3H582c-0.6-2.3-1.4-4.2-2.8-6.1l3.2-3.1c0.2-0.2,0.4-0.6,0.4-0.8c0-0.4-0.2-0.6-0.4-0.8l-4.1-4
	c-0.4-0.4-1.2-0.4-1.8,0l-3.2,3.1c-1.8-1.2-3.7-1.9-5.7-2.5v-4c0-0.6-0.6-1.2-1.2-1.2h-5.9c-0.6,0-1.2,0.6-1.2,1.2v3.9
	c-2.2,0.4-4.1,1.3-5.9,2.3L550,142c-0.4-0.4-1.2-0.4-1.8,0l-4.1,4c-0.2,0.2-0.4,0.6-0.4,0.8s0.2,0.6,0.4,0.8l3.4,3.3
	c-1.2,1.9-2.2,4-2.8,6.4h-3.8c-0.6,0-1.2,0.6-1.2,1.2v5.8c0,0.6,0.6,1.2,1.2,1.2h3.7c0.3,2,1.3,3.7,2.1,5.4l3-3.6
	c-0.8-1.8-1.3-3.8-1.3-5.9c0-8,6.6-14.5,14.8-14.5s14.8,6.5,14.8,14.5s-6.6,14.5-14.8,14.5c-1.4,0-2.9-0.2-4.2-0.6l-2.9,3.4
	c0.9,0.3,1.9,0.6,2.9,0.8v3.3c0,0.6,0.6,1.2,1.2,1.2h5.9c0.6,0,1.2-0.6,1.2-1.2v-3.5c2.3-0.6,4.3-1.3,6.3-2.7l2.6,2.5
	c0.2,0.2,0.6,0.4,0.8,0.4s0.6-0.2,0.8-0.4l4.1-4c0.2-0.2,0.4-0.6,0.4-0.8c0-0.4-0.2-0.6-0.4-0.8l-2.6-2.5c1.2-1.7,2-3.6,2.3-5.8h3.7
	c0.6,0,1.2-0.6,1.2-1.2v-5.8C586.9,157.9,586.5,157.3,585.7,157.3z"/>
<path class="st6" d="M575.1,159.9c-0.2-1.8-0.8-3.6-2-5.2l-7.2,8.3l-4.7-3.8l7.2-8.2c-1.7-0.7-3.4-1-5.2-0.8
	c-6,0.5-10.5,5.7-10,11.6c0.1,1.2,0.4,2.4,0.9,3.5l0.1,0.1l-17.4,19.9c-0.7,0.8-1.1,2-1,3.1s0.6,2.1,1.5,2.8s2,1.1,3.2,1
	c1.1-0.1,2.2-0.6,2.9-1.5l17.2-19.8l0.2,0.1c1.4,0.5,2.9,0.6,4.4,0.5C571.1,171,575.6,165.8,575.1,159.9z M540.3,189.3
	c-0.9,0.1-1.5-0.6-1.6-1.3c-0.1-0.8,0.6-1.5,1.4-1.6c0.9-0.1,1.5,0.6,1.6,1.3C541.7,188.5,541.2,189.2,540.3,189.3z"/>
<rect x="823" y="380.4" class="st1" width="92" height="32.3"/>
<text transform="matrix(0.9794 0 0 1 822.9502 396.1801)" class="st2 st7">$657.647</text>
<rect x="588" y="23.1" class="st1" width="439.9" height="108.7"/>
<text transform="matrix(1 0 0 1 734.4744 38.8235)" class="st8 st7">ARAUCANIA lX</text>
<text transform="matrix(1 0 0 1 574.9814 88.2793)" class="st8 st7">Población: </text>
<text transform="matrix(1 0 0 1 705.5647 89.2234)" class="st9 st7">957.224 </text>
<text transform="matrix(1 0 0 1 705.5647 89.2234)" class="st10 st9 st7">957.224 </text>
<text transform="matrix(1 0 0 1 793.2952 89.2234)" class="st8 st7">Superficie:</text>
<text transform="matrix(1 0 0 1 918.8781 89.2235)" class="st9 st7"> 31.842.3 km</text>
<text transform="matrix(1 0 0 1 1036.9982 77.3719)" class="st9 st11">2</text>
<rect x="861.1" y="127.8" class="st12" width="4.5" height="244"/>
<rect x="14.4" y="180.3" class="st1" width="105.4" height="23.7"/>
<text transform="matrix(0.9794 0 0 1 14.3823 192.185)" class="st8 st13">MUJERES</text>
<rect x="14.4" y="301.7" class="st1" width="96.2" height="26"/>
<text transform="matrix(0.9794 0 0 1 14.3823 313.6293)" class="st8 st13">HOMBRES</text>
<rect x="213.5" y="64.5" class="st1" width="80.5" height="23.3"/>
<g>
	<g>
		<path class="st14" d="M377.9,297.9h-13.8c-1.7,0-3.2,1.7-3.2,3.8v16.6c0,2.1,1.4,3.8,3.2,3.8h13.8c1.7,0,3.2-1.7,3.2-3.8v-16.6
			C381.1,299.6,379.7,297.9,377.9,297.9z M380,318.4c0,1.4-0.9,2.5-2,2.5h-13.8c-1.1,0-2-1.1-2-2.5v-16.6c0-1.4,0.9-2.5,2-2.5H378
			c1.1,0,2,1.1,2,2.5V318.4L380,318.4z"/>
		<path class="st14" d="M373.4,308.9c1-0.5,1.5-1.2,1.5-2.6c0-1.8-1-3.2-3.6-3.2h-3.9v12.2h4.4c2.6,0,3.7-1.6,3.7-3.4
			C375.4,310.3,374.6,309.3,373.4,308.9z M369,305h2.2c1.1,0,1.8,0.3,1.8,1.6c0,1-0.6,1.5-1.8,1.5H369V305L369,305z M371.7,313.4
			H369v-3.3h2.5c1.4,0,2.2,0.5,2.2,1.6C373.7,313.1,372.9,313.4,371.7,313.4z"/>
		<path class="st14" d="M389.6,296.1c1.7,0,3.2-1.7,3.2-3.8v-16.6c0-2.1-1.4-3.8-3.2-3.8h-13.8c-1.7,0-3.2,1.7-3.2,3.8v16.6
			c0,2.1,1.4,3.8,3.2,3.8H389.6L389.6,296.1z M373.8,292.3v-16.6c0-1.4,0.9-2.5,2-2.5h13.8c1.1,0,2,1.1,2,2.5v16.6
			c0,1.4-0.9,2.5-2,2.5h-13.8C374.7,294.7,373.8,293.6,373.8,292.3z"/>
		<path class="st14" d="M380.2,286.4h5.1l1,2.8h1.8l-4.5-12.2h-1.8l-4.5,12.2h1.8L380.2,286.4z M382.7,279.5l1.8,5h-3.7L382.7,279.5
			z"/>
		<path class="st14" d="M401.3,297.9h-13.8c-1.7,0-3.2,1.7-3.2,3.8v16.6c0,2.1,1.4,3.8,3.2,3.8h13.8c1.7,0,3.2-1.7,3.2-3.8v-16.6
			C404.5,299.6,403.1,297.9,401.3,297.9z M403.4,318.4c0,1.4-0.9,2.5-2,2.5h-13.8c-1.1,0-2-1.1-2-2.5v-16.6c0-1.4,0.9-2.5,2-2.5
			h13.8c1.1,0,2,1.1,2,2.5V318.4L403.4,318.4z"/>
		<path class="st14" d="M395.3,304.8c1.2,0,2,0.5,2.9,1.5l1.1-1.4c-1-1.4-2.4-2.1-3.9-2.1c-3.2,0-5.4,2.7-5.4,6.3
			c0,3.7,2.3,6.3,5.3,6.3c1.5,0,2.8-0.7,3.9-2.1l-1.1-1.4c-1,1.2-1.8,1.5-2.8,1.5c-1.8,0-3.5-1.8-3.5-4.3
			C391.6,306.5,393.3,304.8,395.3,304.8z"/>
	</g>
	<rect x="343.6" y="329.7" class="st1" width="84.1" height="25.4"/>
	<text transform="matrix(0.9484 0 0 1 343.6055 343.8784)" class="st2 st15">$291.733</text>
</g>
<g>
	<g>
		<path class="st16" d="M265.8,173.5H252c-1.7,0-3.2,1.6-3.2,3.6v15.8c0,2,1.4,3.6,3.2,3.6h13.8c1.7,0,3.2-1.6,3.2-3.6v-15.8
			C269,175.1,267.6,173.5,265.8,173.5z M267.9,193c0,1.3-0.9,2.3-2.1,2.3H252c-1.1,0-2.1-1.1-2.1-2.3v-15.8c0-1.3,0.9-2.4,2.1-2.4
			h13.8c1.1,0,2.1,1.1,2.1,2.4V193L267.9,193z"/>
		<path class="st16" d="M261.2,184c1-0.5,1.5-1.1,1.5-2.5c0-1.7-1-3.1-3.6-3.1h-4V190h4.4c2.6,0,3.7-1.5,3.7-3.2
			C263.3,185.3,262.5,184.3,261.2,184z M256.9,180.2h2.2c1.1,0,1.8,0.3,1.8,1.6c0,1-0.6,1.4-1.9,1.4h-2.2L256.9,180.2L256.9,180.2z
			 M259.6,188.2h-2.7V185h2.5c1.4,0,2.2,0.5,2.2,1.5C261.5,187.9,260.8,188.2,259.6,188.2z"/>
		<path class="st16" d="M277.5,171.7c1.7,0,3.2-1.6,3.2-3.6v-15.8c0-2-1.4-3.6-3.2-3.6h-13.8c-1.7,0-3.2,1.6-3.2,3.6v15.8
			c0,2,1.4,3.6,3.2,3.6L277.5,171.7L277.5,171.7z M261.6,168.1v-15.8c0-1.3,0.9-2.4,2.1-2.4h13.8c1.1,0,2.1,1.1,2.1,2.4v15.8
			c0,1.3-0.9,2.4-2.1,2.4h-13.8C262.6,170.5,261.6,169.4,261.6,168.1z"/>
		<path class="st16" d="M268.1,162.6h5.1l1,2.6h1.8l-4.5-11.6h-1.8l-4.5,11.6h1.8L268.1,162.6z M270.6,156l1.8,4.8h-3.7L270.6,156z"
			/>
		<path class="st16" d="M289.3,173.5h-13.8c-1.7,0-3.2,1.6-3.2,3.6v15.8c0,2,1.4,3.6,3.2,3.6h13.8c1.7,0,3.2-1.6,3.2-3.6v-15.8
			C292.5,175.1,291,173.5,289.3,173.5z M291.4,193c0,1.3-0.9,2.3-2.1,2.3h-13.8c-1.1,0-2.1-1.1-2.1-2.3v-15.8c0-1.3,0.9-2.4,2.1-2.4
			h13.8c1.1,0,2.1,1.1,2.1,2.4V193L291.4,193z"/>
		<path class="st16" d="M283.2,180.1c1.2,0,2,0.4,2.9,1.4l1.1-1.4c-1-1.3-2.4-2-3.9-2c-3.2,0-5.5,2.6-5.5,6c0,3.5,2.3,6,5.3,6
			c1.5,0,2.8-0.7,3.9-2l-1.1-1.3c-1,1.1-1.8,1.4-2.9,1.4c-1.8,0-3.5-1.7-3.5-4.1C279.6,181.7,281.2,180.1,283.2,180.1z"/>
	</g>
	<rect x="225.9" y="203.1" class="st1" width="93.1" height="18.8"/>
	<text transform="matrix(1.0255 0 0 1 225.853 216.6244)" class="st2 st17">$196.720</text>
</g>
<g>
	<path class="st18" d="M552,311.1c-0.6-0.4-1.3-0.6-2.1-0.5c-0.4,0-0.8,0.2-1.1,0.4l3.6,1.8c-1.1,1.6-2,3.3-2.9,5.1
		c-0.6,1.2-1.1,2.6-1.5,4c-0.3,1.1-0.5,2.3-0.4,3.5c1.7-0.5,3.5-2.9,4.7-5.8c0.8-1.8,1.2-3.9,1.2-6.1
		C553.3,312.4,552.7,311.5,552,311.1z"/>
	<path class="st18" d="M527.8,287.9v7.4l19.9,9.1l0,0c1.5,0,3-0.1,4.5-0.3c3.9-0.7,6.4-2.1,6.4-3.6v-12.2l-12.2,5.3L527.8,287.9z"/>
	<polygon class="st18" points="541.9,272.5 515.5,281.8 527.8,285.5 546.3,291.1 558.6,285.8 572.2,279.9 	"/>
	<path class="st18" d="M545.8,322.8c0-0.2,0-0.3,0.1-0.5s0.1-0.4,0.1-0.6v-0.1c0.5-1.7,1-3.3,1.8-4.8c0.4-1,0.9-1.9,1.5-2.8v-0.1
		l-2.4-1.2c-0.6,0.8-1,1.6-1.4,2.6c-0.5,1.2-1,2.4-1.3,3.7l-28.1-16l-0.2,1c-0.2,1.5-0.2,3,0.6,3.5l29.6,18
		C545.8,324.8,545.7,323.9,545.8,322.8z"/>
	<path class="st18" d="M543.9,314c1.7-4.1,4.6-6.5,6.9-5.7h-0.1l-30.9-14.1c-1.2-0.6-2.8,1-3.7,3.8c-0.2,0.6-0.4,1.3-0.5,1.9
		l27.8,15.8C543.5,315.1,543.7,314.5,543.9,314z"/>
	<rect x="504.9" y="331.8" class="st1" width="100" height="21"/>
	<text transform="matrix(1.0255 0 0 1 504.9443 345.2885)" class="st2 st17">$408.866</text>
</g>
<rect x="511.2" y="202.3" class="st1" width="103.7" height="22.3"/>
<text transform="matrix(1.0255 0 0 1 511.2314 215.8422)" class="st2 st17">$415.312</text>
<g>
	<path class="st19" d="M783.7,287.1H780c-0.6-2.3-1.4-4.2-2.8-6.2l3.2-3.1c0.2-0.2,0.4-0.6,0.4-0.8c0-0.4-0.2-0.6-0.4-0.8l-4.1-4
		c-0.4-0.4-1.2-0.4-1.8,0l-3.2,3.1c-1.8-1.2-3.7-1.9-5.7-2.5v-4c0-0.6-0.6-1.2-1.2-1.2h-5.9c-0.6,0-1.2,0.6-1.2,1.2v3.9
		c-2.2,0.4-4.1,1.3-5.9,2.3l-3.4-3.3c-0.4-0.4-1.2-0.4-1.8,0l-4.1,4c-0.2,0.2-0.4,0.6-0.4,0.8c0,0.2,0.2,0.6,0.4,0.8l3.4,3.3
		c-1.2,1.9-2.2,4-2.8,6.4H739c-0.6,0-1.2,0.6-1.2,1.2v5.8c0,0.6,0.6,1.2,1.2,1.2h3.7c0.3,2,1.3,3.7,2.1,5.4l3-3.6
		c-0.8-1.8-1.3-3.8-1.3-5.9c0-8,6.6-14.5,14.8-14.5s14.8,6.5,14.8,14.5s-6.6,14.5-14.8,14.5c-1.4,0-2.9-0.2-4.2-0.6l-2.9,3.3
		c0.9,0.3,1.9,0.6,2.9,0.8v3.3c0,0.6,0.6,1.2,1.2,1.2h5.9c0.6,0,1.2-0.6,1.2-1.2v-3.5c2.3-0.6,4.3-1.3,6.3-2.7l2.6,2.5
		c0.2,0.2,0.6,0.4,0.8,0.4s0.6-0.2,0.8-0.4l4.1-4c0.2-0.2,0.4-0.6,0.4-0.8c0-0.4-0.2-0.6-0.4-0.8l-2.6-2.5c1.2-1.7,2-3.6,2.3-5.8
		h3.7c0.6,0,1.2-0.6,1.2-1.2v-5.8C784.9,287.7,784.5,287.1,783.7,287.1z"/>
	<path class="st19" d="M773,289.7c-0.2-1.8-0.8-3.6-2-5.2l-7.2,8.3l-4.7-3.8l7.2-8.2c-1.7-0.7-3.4-1-5.2-0.8
		c-6,0.5-10.5,5.7-10,11.6c0.1,1.2,0.4,2.3,0.9,3.5l0.1,0.1l-17.4,20.1c-0.7,0.8-1.1,2-1,3.1s0.6,2.1,1.5,2.8s2,1.1,3.2,1
		c1.1-0.1,2.2-0.6,2.9-1.5l17.2-19.8l0.2,0.1c1.4,0.5,2.9,0.6,4.4,0.5C769,300.8,773.6,295.6,773,289.7z M738.3,319.1
		c-0.9,0.1-1.5-0.6-1.6-1.3c-0.1-0.8,0.6-1.5,1.4-1.6c0.9-0.1,1.5,0.6,1.6,1.3C739.7,318.3,739.1,319.1,738.3,319.1z"/>
	<rect x="716.9" y="331.2" class="st1" width="86.8" height="19.6"/>
	<text transform="matrix(1.0255 0 0 1 716.9434 344.6752)" class="st2 st17">$587.653</text>
</g>
<g>
	<g>
		<path d="M1002.4,143.9c-0.5,0.6-1.2,1.4-2.1,2.4c-3.8-3.6-7.5-4.1-10.3-4.5c-8,13-17,20.6-28.8,28.7c-0.3,0-0.7,0.2-1.1,0.4
			c-2.1,1.4-3,3.8-3.5,6.7c-1.2,6.7,0.9,14.8,7.2,16.2c3.7,0.8,6.1,0.2,7.7-1.8c1.2-1.4,6.5-7.5,13.3-14.6
			c7.7-7.9,17-15.4,20.8-18.6c3.5-3,2.8-7.7,0.3-11.3c-0.9-1.4-2.1-2.6-3.3-3.4L1002.4,143.9z M973.2,186.6
			c0.5-3.6,0.3-10.3,0.2-12.5c0.9-0.4,2.6-1.6,5.8-4c8.9-6.7,16.1-14.6,23.4-23.3c2.6,2.4,4.9,7.3,1.8,10.1
			c-3.7,3-13.5,10.9-21,18.6C979.4,179.8,975.7,183.8,973.2,186.6z M969.9,190.3c-1.1,1.4-2.8,1.8-5.6,1.2c-5.8-1.4-7-9.5-5.4-15.2
			c1.6-5.5,6.5-4.7,8-0.8l-6.3,6.3c0.2,0.6,0.5,4.6,3.7,5.5c2.3,0.8,4.2-1.6,4.9-4.4c0.3-1.8,0.5-4,0-6.5c-0.3-3-2.1-5.1-4.4-6.1
			c11-7.7,18.5-14.2,26.1-26.1c3.2,0.6,5.2,1.4,7.9,3.6c-7.3,8.5-22.4,24.5-27.4,24.5c0,1.2,0.5,11.3-0.2,14.8
			C971,188.3,970.6,189.5,969.9,190.3z M967.5,178.1c0.2,2.2,0,4.9-1.2,6.3c-1.2,1.8-2.8,0-3.3-1.8L967.5,178.1z"/>
		<path class="st20" d="M1000.2,185.4c0,0-1.2-4.1-3.3-7.1s-6.1-4.7-6.1-4.7s2.6,3.2,3.7,7.7c1.2,4.5,1.4,6.5,1.4,6.5l-2.4-1.4
			l-1.9,4c0,0,0.9-5.3-1.2-10.1c-1.9-4.7-3.3-6.1-3.3-6.1c0.5-8.5-3.2-13-10.7-13.6l5.6-5.7c6.6-0.2,10.5,7.9,9.8,14.8
			c5.1,3.2,9.8,7.7,14,12.1l-3.8,0.8L1000.2,185.4z"/>
	</g>
	<rect x="941.6" y="198.9" class="st1" width="92.4" height="17.8"/>
	<text transform="matrix(1.0255 0 0 1 941.5684 212.4428)" class="st2 st17">$761.316</text>
</g>
<g>
	<g>
		<path d="M1150.3,276.6c-0.5,0.6-1.2,1.4-2.1,2.4c-3.8-3.6-7.5-4.2-10.3-4.5c-8,13-17,20.6-28.8,28.7c-0.3,0-0.7,0.2-1.1,0.4
			c-2.1,1.4-3,3.8-3.5,6.7c-1.2,6.7,0.9,14.8,7.2,16.2c3.7,0.8,6.1,0.2,7.7-1.8c1.2-1.4,6.5-7.5,13.3-14.6
			c7.7-7.9,17-15.4,20.8-18.6c3.5-3,2.8-7.7,0.3-11.3c-0.9-1.4-2.1-2.6-3.3-3.4L1150.3,276.6z M1121.1,319.3
			c0.5-3.6,0.3-10.3,0.2-12.5c0.9-0.4,2.6-1.6,5.8-4c8.9-6.7,16.1-14.6,23.4-23.3c2.6,2.4,4.9,7.3,1.8,10.1
			c-3.7,3-13.5,10.9-21,18.6C1127.2,312.6,1123.5,316.5,1121.1,319.3z M1117.8,323c-1.1,1.4-2.8,1.8-5.6,1.2
			c-5.8-1.4-7-9.5-5.4-15.2c1.6-5.5,6.5-4.7,8-0.8l-6.3,6.3c0.2,0.6,0.5,4.5,3.7,5.5c2.3,0.8,4.2-1.6,4.9-4.3c0.3-1.8,0.5-4,0-6.5
			c-0.3-3-2.1-5.1-4.4-6.1c11-7.7,18.5-14.2,26.1-26.1c3.2,0.6,5.2,1.4,7.9,3.6c-7.3,8.5-22.4,24.5-27.4,24.5
			c0,1.2,0.5,11.3-0.2,14.8C1118.8,321.1,1118.5,322.2,1117.8,323z M1115.3,310.8c0.2,2.2,0,4.9-1.2,6.3c-1.2,1.8-2.8,0-3.3-1.8
			L1115.3,310.8z"/>
		<path class="st20" d="M1148,318.1c0,0-1.2-4.2-3.3-7.1s-6.1-4.7-6.1-4.7s2.6,3.2,3.7,7.7c1.2,4.5,1.4,6.5,1.4,6.5l-2.4-1.4l-1.9,4
			c0,0,0.9-5.3-1.2-10.1c-1.9-4.7-3.3-6.1-3.3-6.1c0.5-8.5-3.2-13-10.7-13.6l5.6-5.7c6.6-0.2,10.5,7.9,9.8,14.8
			c5.1,3.2,9.8,7.7,14,12.1l-3.8,0.8L1148,318.1z"/>
	</g>
	<rect x="1092.9" y="334.6" class="st1" width="109" height="19.1"/>
	<text transform="matrix(1.0255 0 0 1 1092.9443 348.1498)" class="st2 st17">$866.796</text>
</g>
<g>
	<rect x="361.4" y="202.8" class="st1" width="99.6" height="21.9"/>
	<text transform="matrix(1.0255 0 0 1 361.3818 216.3071)" class="st2 st17">$299.746</text>
	<path class="st18" d="M418.9,183.5c-0.6-0.4-1.3-0.6-2.1-0.5c-0.4,0-0.8,0.2-1.1,0.4l3.6,1.9c-1.1,1.6-2,3.3-2.9,5.1
		c-0.6,1.2-1.1,2.6-1.5,4c-0.3,1.1-0.5,2.3-0.4,3.5c1.7-0.5,3.5-2.9,4.7-5.8c0.8-1.8,1.2-3.9,1.2-6.1
		C420.2,184.9,419.7,184,418.9,183.5z"/>
	<path class="st18" d="M394.7,160.3v7.4l19.9,9.1l0,0c1.5,0,3-0.1,4.5-0.3c3.9-0.7,6.4-2.1,6.4-3.6v-12.2l-12.2,5.3L394.7,160.3z"/>
	<polygon class="st18" points="408.8,145 382.5,154.2 394.7,157.9 413.2,163.5 425.5,158.2 439.1,152.3 	"/>
	<path class="st18" d="M412.8,195.2c0-0.2,0-0.3,0.1-0.5s0.1-0.4,0.1-0.6V194c0.5-1.7,1-3.3,1.8-4.8c0.4-1,0.9-1.9,1.5-2.8v-0.1
		l-2.4-1.2c-0.6,0.8-1,1.6-1.4,2.6c-0.5,1.2-1,2.4-1.3,3.7l-28.1-16l-0.2,1c-0.2,1.5-0.2,3,0.6,3.5l29.6,18
		C412.7,197.2,412.6,196.4,412.8,195.2z"/>
	<path class="st18" d="M410.8,186.5c1.7-4.1,4.6-6.5,6.9-5.7h-0.1l-30.9-14.1c-1.2-0.6-2.8,1-3.7,3.8c-0.2,0.6-0.4,1.3-0.5,1.9
		l27.8,15.8C410.4,187.5,410.6,187,410.8,186.5z"/>
</g>
<rect x="0.3" y="2.6" class="st21" width="1495.5" height="405.2"/>
</svg>
