<?xml version="1.0" encoding="utf-8"?>
<!-- Generator: Adobe Illustrator 22.0.1, SVG Export Plug-In . SVG Version: 6.00 Build 0)  -->
<svg version="1.1" id="Capa_1" xmlns="http://www.w3.org/2000/svg" xmlns:xlink="http://www.w3.org/1999/xlink" x="0px" y="0px"
	 viewBox="0 0 1500.5 412.6" style="enable-background:new 0 0 1500.5 412.6;" xml:space="preserve">
<style type="text/css">
	.st0{opacity:0.8;fill:#DCF4F3;stroke:#416190;stroke-width:5;stroke-miterlimit:5.83;}
	.st1{fill:none;stroke:#000000;stroke-width:3.04;stroke-miterlimit:10;}
	.st2{fill:none;}
	.st3{font-family:'Arial-BoldMT';}
	.st4{font-size:16px;}
	.st5{fill:#FF0000;}
	.st6{font-size:21px;}
	.st7{font-family:'Verdana-Bold';}
	.st8{font-family:'ArialMT';}
	.st9{fill:none;stroke:#000000;stroke-width:0.25;stroke-miterlimit:10;}
	.st10{font-size:12.24px;}
	.st11{fill:#FCEE21;}
	.st12{font-size:16.65px;}
	.st13{fill:#FF0000;stroke:#FF0000;stroke-width:1.37;stroke-miterlimit:10;}
	.st14{font-size:18.93px;}
	.st15{fill:#FF0000;stroke:#FF0000;stroke-width:1.33;stroke-miterlimit:10;}
	.st16{font-size:18px;}
	.st17{fill:#FF0000;stroke:#FF0000;stroke-width:0.22;stroke-miterlimit:10;}
	.st18{fill:#FF0000;stroke:#FF0000;stroke-width:0.14;stroke-miterlimit:10;}
</style>
<title>araucania</title>
<path class="st0" d="M45,2.5h1410.5c23.5,0,42.5,19,42.5,42.5v320.2c0,23.5-19,42.5-42.5,42.5H45c-23.5,0-42.5-19-42.5-42.5V45
	C2.5,21.5,21.5,2.5,45,2.5z"/>
<rect x="99.2" y="236.1" class="st1" width="1385.4" height="21.3"/>
<rect x="113.1" y="240.5" class="st2" width="1371.8" height="36.8"/>
<text transform="matrix(0.98 0 0 1 113.1299 252.5098)" class="st3 st4">$100.000</text>
<text transform="matrix(0.98 0 0 1 243.5996 252.5098)" class="st3 st4">$200.000</text>
<text transform="matrix(0.98 0 0 1 374.0596 252.5098)" class="st3 st4">$300.000</text>
<text transform="matrix(0.98 0 0 1 504.5298 252.5098)" class="st3 st4">$400.000</text>
<text transform="matrix(0.98 0 0 1 635.0098 252.5098)" class="st3 st4">$500.000</text>
<text transform="matrix(0.98 0 0 1 765.4697 252.5098)" class="st3 st4">$600.000</text>
<text transform="matrix(0.98 0 0 1 895.9395 252.5098)" class="st3 st4">$700.000</text>
<text transform="matrix(0.98 0 0 1 1026.3994 252.5098)" class="st3 st4">$800.000</text>
<text transform="matrix(0.98 0 0 1 1156.8701 252.5098)" class="st3 st4">$900.000</text>
<text transform="matrix(0.98 0 0 1 1287.3301 252.5098)" class="st3 st4">$1.000.000</text>
<text transform="matrix(0.98 0 0 1 1417.7998 252.5098)" class="st3 st4">   +++</text>
<path class="st5" d="M587.9,157.2h-3.7c-0.5-2.2-1.5-4.3-2.8-6.1l3.2-3.1c0.2-0.2,0.3-0.5,0.4-0.8c0-0.3-0.1-0.6-0.4-0.8l-4.1-4
	c-0.5-0.4-1.3-0.4-1.8,0l-3.2,3.1c-1.8-1.1-3.7-2-5.7-2.5v-4c0-0.6-0.6-1.2-1.2-1.2h-5.9c-0.6,0-1.2,0.6-1.2,1.2v3.9
	c-2.1,0.4-4.1,1.2-5.9,2.3l-3.4-3.3c-0.5-0.4-1.3-0.4-1.8,0l-4.1,4c-0.4,0.3-0.5,1-0.2,1.4c0.1,0.1,0.1,0.1,0.2,0.2l3.4,3.3
	c-1.3,2-2.2,4.1-2.8,6.4h-3.8c-0.6,0-1.2,0.6-1.2,1.2v5.8c0,0.6,0.6,1.2,1.2,1.2h3.7c0.4,1.9,1.1,3.7,2.1,5.4l3-3.6
	c-3.4-7.4-0.2-16.3,7.2-19.7c7.4-3.4,16.3-0.2,19.7,7.2s0.2,16.3-7.2,19.7c-1.9,0.9-4.1,1.4-6.2,1.4c-1.4,0-2.8-0.2-4.2-0.6
	l-2.9,3.4c0.9,0.3,1.9,0.6,2.9,0.8v3.3c0,0.6,0.6,1.2,1.2,1.2h5.9c0.6,0,1.2-0.6,1.2-1.2v-3.5c2.2-0.5,4.4-1.4,6.3-2.7l2.6,2.5
	c0.3,0.4,1,0.5,1.4,0.2c0.1-0.1,0.1-0.1,0.2-0.2l4.1-4c0.2-0.2,0.3-0.5,0.4-0.8c0-0.3-0.1-0.6-0.4-0.8l-2.6-2.5
	c1.2-1.7,2-3.7,2.3-5.8h3.7c0.6,0,1.2-0.6,1.2-1.2v-5.8C589.1,157.8,588.7,157.2,587.9,157.2z"/>
<path class="st5" d="M577.3,159.8c-0.2-1.9-0.9-3.7-2-5.2l-7.2,8.3l-4.7-3.8l7.2-8.2c-1.6-0.7-3.4-1-5.2-0.8
	c-6,0.4-10.4,5.6-10,11.6c0.1,1.2,0.4,2.4,0.9,3.5l0.1,0.1L539,185.2c-0.7,0.9-1.1,2-1,3.1c0.1,1.1,0.6,2.1,1.5,2.8
	c0.9,0.7,2,1.1,3.2,1c1.1-0.1,2.2-0.6,2.9-1.5l17.2-19.8l0.2,0.1c5.7,1.9,11.9-1.2,13.8-7C577.2,162.6,577.4,161.2,577.3,159.8
	L577.3,159.8z M542.5,189.2c-0.8,0.1-1.5-0.5-1.6-1.3c0-0.8,0.6-1.5,1.4-1.6c0.8-0.1,1.5,0.5,1.6,1.3
	C544,188.4,543.4,189.1,542.5,189.2z"/>
<rect x="825.2" y="380.3" class="st2" width="92" height="32.3"/>
<text transform="matrix(0.98 0 0 1 825.1494 396.0801)" class="st3 st6">$657.647</text>
<rect x="590.2" y="23" class="st2" width="439.9" height="108.7"/>
<text transform="matrix(1 0 0 1 736.67 38.72)" class="st7 st6">ARAUCANIA lX</text>
<text transform="matrix(1 0 0 1 577.18 88.18)" class="st7 st6">Población:</text>
<text transform="matrix(1 0 0 1 707.76 89.12)" class="st8 st6">957.224</text>
<text transform="matrix(1 0 0 1 707.76 89.12)" class="st9 st8 st6">957.224</text>
<text transform="matrix(1 0 0 1 795.5 89.12)" class="st7 st6">Superficie:</text>
<text transform="matrix(1 0 0 1 921.08 89.12)" class="st8 st6"> 31.842.3 km</text>
<text transform="matrix(1 0 0 1 1039.2 77.27)" class="st8 st10">2</text>
<rect x="863.3" y="127.7" class="st11" width="4.5" height="244"/>
<rect x="16.6" y="180.2" class="st2" width="105.4" height="23.7"/>
<text transform="matrix(0.98 0 0 1 16.5796 192.0898)" class="st7 st12">MUJERES</text>
<rect x="16.6" y="301.6" class="st2" width="96.2" height="26"/>
<text transform="matrix(0.98 0 0 1 16.5796 313.5298)" class="st7 st12">HOMBRES</text>
<rect x="215.7" y="64.4" class="st2" width="80.5" height="23.3"/>
<path class="st13" d="M380.1,297.8h-13.8c-1.7,0-3.2,1.7-3.2,3.8v16.6c0,2.1,1.4,3.8,3.2,3.8h13.8c1.7,0,3.2-1.7,3.2-3.8v-16.6
	C383.3,299.5,381.9,297.8,380.1,297.8z M382.2,318.3c0.1,1.2-0.8,2.4-2,2.5h-13.8c-1.2-0.1-2.1-1.3-2-2.5v-16.6
	c-0.1-1.2,0.8-2.4,2-2.5h13.8c1.2,0.1,2.1,1.3,2,2.5V318.3z"/>
<path class="st13" d="M375.6,308.8c1-0.4,1.6-1.5,1.5-2.6c0-1.8-1-3.2-3.6-3.2h-3.9v12.2h4.4c2.6,0,3.7-1.6,3.7-3.4
	C377.7,310.4,376.9,309.2,375.6,308.8z M371.2,304.9h2.2c1.1,0,1.8,0.3,1.8,1.6c0,1-0.6,1.5-1.8,1.5h-2.2V304.9z M373.9,313.3h-2.7
	V310h2.5c1.4,0,2.2,0.5,2.2,1.6C375.9,313,375.1,313.3,373.9,313.3L373.9,313.3z"/>
<path class="st13" d="M391.8,296c1.7,0,3.2-1.7,3.2-3.8v-16.6c0-2.1-1.4-3.8-3.2-3.8H378c-1.7,0-3.2,1.7-3.2,3.8v16.6
	c0,2.1,1.4,3.8,3.2,3.8H391.8z M376,292.2v-16.6c-0.1-1.2,0.8-2.4,2-2.5h13.8c1.2,0.1,2.1,1.3,2,2.5v16.6c0.1,1.2-0.8,2.4-2,2.5H378
	C376.8,294.5,375.9,293.4,376,292.2L376,292.2z"/>
<path class="st13" d="M382.4,286.3h5.1l1,2.8h1.8l-4.5-12.2H384l-4.5,12.2h1.8L382.4,286.3z M384.9,279.4l1.8,5H383L384.9,279.4z"/>
<path class="st13" d="M403.5,297.8h-13.8c-1.7,0-3.2,1.7-3.2,3.8v16.6c0,2.1,1.4,3.8,3.2,3.8h13.8c1.7,0,3.2-1.7,3.2-3.8v-16.6
	C406.7,299.5,405.3,297.8,403.5,297.8z M405.6,318.3c0.1,1.2-0.8,2.4-2,2.5h-13.8c-1.2-0.1-2.1-1.3-2-2.5v-16.6
	c-0.1-1.2,0.8-2.4,2-2.5h13.8c1.2,0.1,2.1,1.3,2,2.5V318.3z"/>
<path class="st13" d="M397.5,304.7c1.1,0,2.2,0.6,2.9,1.5l1.1-1.4c-0.9-1.3-2.3-2.1-3.9-2.1c-3.2,0-5.4,2.7-5.4,6.3s2.3,6.3,5.3,6.3
	c1.6,0,3-0.8,3.9-2.1l-1.1-1.4c-0.6,0.9-1.7,1.5-2.8,1.5c-1.8,0-3.5-1.8-3.5-4.3C393.8,306.4,395.5,304.7,397.5,304.7z"/>
<rect x="345.8" y="329.6" class="st2" width="84.1" height="25.4"/>
<text transform="matrix(0.95 0 0 1 345.8101 343.7798)" class="st3 st14">$291.733</text>
<path class="st15" d="M268,173.4h-13.8c-1.9,0.1-3.3,1.7-3.2,3.6v15.8c-0.1,1.9,1.3,3.5,3.2,3.6c0,0,0,0,0,0H268
	c1.9-0.1,3.3-1.7,3.2-3.6V177C271.3,175.1,269.9,173.5,268,173.4C268,173.4,268,173.4,268,173.4z M270.1,192.9
	c0.1,1.2-0.8,2.2-2,2.3c0,0-0.1,0-0.1,0h-13.8c-1.2-0.1-2.1-1.1-2.1-2.3v-15.8c-0.1-1.2,0.9-2.3,2.1-2.4c0,0,0,0,0,0H268
	c1.2,0.1,2.1,1.2,2.1,2.4V192.9z"/>
<path class="st15" d="M263.4,183.9c1-0.4,1.6-1.4,1.5-2.5c0-1.7-1-3.1-3.6-3.1h-4v11.6h4.4c2.6,0,3.7-1.5,3.7-3.2
	C265.6,185.4,264.7,184.1,263.4,183.9z M259.1,180.1h2.2c1.1,0,1.8,0.3,1.8,1.6c0,1-0.6,1.4-1.9,1.4H259L259.1,180.1z M261.8,188.1
	h-2.7v-3.2h2.5c1.4,0,2.2,0.5,2.2,1.5C263.7,187.8,263,188.1,261.8,188.1z"/>
<path class="st15" d="M279.7,171.6c1.9-0.1,3.3-1.7,3.2-3.6v-15.8c0.1-1.9-1.3-3.5-3.2-3.6c0,0,0,0,0,0h-13.8
	c-1.9,0.1-3.3,1.7-3.2,3.6V168c-0.1,1.9,1.3,3.5,3.2,3.6c0,0,0,0,0,0L279.7,171.6z M263.8,168v-15.8c-0.1-1.2,0.9-2.3,2.1-2.4
	c0,0,0,0,0,0h13.8c1.2,0.1,2.1,1.2,2.1,2.4V168c0.1,1.2-0.9,2.3-2.1,2.4c0,0,0,0,0,0h-13.8C264.7,170.3,263.8,169.2,263.8,168
	L263.8,168z"/>
<path class="st15" d="M270.3,162.5h5.1l1,2.6h1.8l-4.5-11.6h-1.8l-4.5,11.6h1.8L270.3,162.5z M272.8,155.9l1.8,4.8h-3.7L272.8,155.9
	z"/>
<path class="st15" d="M291.5,173.4h-13.8c-1.9,0.1-3.3,1.7-3.2,3.6v15.8c-0.1,1.9,1.3,3.5,3.2,3.6c0,0,0,0,0,0h13.8
	c1.9-0.1,3.3-1.7,3.2-3.6V177C294.8,175.1,293.4,173.5,291.5,173.4z M293.6,192.9c0.1,1.2-0.8,2.2-2,2.3c0,0-0.1,0-0.1,0h-13.8
	c-1.2-0.1-2.1-1.1-2.1-2.3v-15.8c-0.1-1.2,0.9-2.3,2.1-2.4c0,0,0,0,0,0h13.8c1.2,0.1,2.1,1.2,2.1,2.4V192.9z"/>
<path class="st15" d="M285.4,180c1.1,0,2.2,0.5,2.9,1.4l1.1-1.4c-0.9-1.2-2.4-2-3.9-2c-3.2,0-5.5,2.6-5.5,6s2.3,6,5.3,6
	c1.5,0,3-0.8,3.9-2l-1.1-1.3c-0.7,0.9-1.8,1.4-2.9,1.4c-2.1-0.2-3.6-2-3.5-4.1C281.8,181.6,283.4,180,285.4,180z"/>
<rect x="228.1" y="203" class="st2" width="93.1" height="18.8"/>
<text transform="matrix(1.03 0 0 1 228.0503 216.52)" class="st3 st16">$196.720</text>
<path class="st17" d="M554.2,311c-0.6-0.4-1.4-0.6-2.1-0.5c-0.4,0-0.8,0.2-1.1,0.4l3.6,1.8c-1.1,1.6-2.1,3.3-2.9,5.1
	c-0.6,1.3-1.1,2.6-1.5,4c-0.3,1.1-0.5,2.3-0.4,3.5c1.7-0.5,3.5-2.9,4.7-5.8c0.8-1.9,1.2-4,1.2-6.1C555.6,312.4,555,311.6,554.2,311z
	"/>
<path class="st17" d="M530,287.8v7.4l19.9,9.1l0,0c1.5,0,3-0.1,4.5-0.3c3.9-0.7,6.4-2.1,6.4-3.6v-12.2l-12.2,5.3L530,287.8z"/>
<polygon class="st17" points="544.1,272.4 517.7,281.7 530,285.4 548.5,291 560.8,285.7 574.4,279.8 "/>
<path class="st17" d="M548,322.7c0-0.2,0-0.3,0.1-0.5c0.1-0.2,0.1-0.4,0.1-0.6v-0.1c0.4-1.7,1-3.3,1.8-4.8c0.4-1,0.9-1.9,1.5-2.8
	v-0.1l-2.4-1.2c-0.6,0.8-1.1,1.7-1.4,2.6c-0.5,1.2-1,2.4-1.3,3.7l-28.1-16l-0.2,1c-0.2,1.5-0.2,3,0.6,3.5l29.6,18
	C548,324.5,547.9,323.6,548,322.7z"/>
<path class="st17" d="M546.1,313.9c1.7-4.1,4.6-6.5,6.9-5.7h-0.1L522,294.1c-1.2-0.6-2.8,1-3.7,3.8c-0.2,0.6-0.4,1.3-0.5,1.9
	l27.8,15.8C545.7,315,545.9,314.4,546.1,313.9z"/>
<rect x="507.1" y="331.7" class="st2" width="100" height="21"/>
<text transform="matrix(1.03 0 0 1 507.1401 345.1899)" class="st3 st16">$408.866</text>
<rect x="513.4" y="202.2" class="st2" width="103.7" height="22.3"/>
<text transform="matrix(1.03 0 0 1 513.4302 215.7402)" class="st3 st16">$415.312</text>
<path class="st18" d="M785.9,287h-3.7c-0.5-2.2-1.5-4.3-2.8-6.2l3.2-3.1c0.2-0.2,0.3-0.5,0.4-0.8c0-0.3-0.1-0.6-0.4-0.8l-4.1-4
	c-0.5-0.4-1.3-0.4-1.8,0l-3.2,3.1c-1.8-1.1-3.7-2-5.7-2.5v-4c0-0.6-0.6-1.2-1.2-1.2h-5.9c-0.6,0-1.2,0.6-1.2,1.2v3.9
	c-2.1,0.4-4.1,1.2-5.9,2.3l-3.4-3.3c-0.5-0.4-1.3-0.4-1.8,0l-4.1,4c-0.4,0.3-0.5,1-0.2,1.4c0.1,0.1,0.1,0.1,0.2,0.2l3.4,3.3
	c-1.3,2-2.2,4.1-2.8,6.4h-3.7c-0.6,0-1.2,0.6-1.2,1.2v5.8c0,0.6,0.6,1.2,1.2,1.2h3.7c0.4,1.9,1.1,3.7,2.1,5.4l3-3.6
	c-3.4-7.4-0.2-16.3,7.2-19.7c7.4-3.4,16.3-0.2,19.7,7.2c3.4,7.4,0.2,16.3-7.2,19.7c-1.9,0.9-4.1,1.4-6.2,1.4c-1.4,0-2.8-0.2-4.2-0.6
	l-2.9,3.3c0.9,0.3,1.9,0.6,2.9,0.8v3.3c0,0.6,0.6,1.2,1.2,1.2h5.9c0.6,0,1.2-0.6,1.2-1.2v-3.5c2.2-0.5,4.4-1.4,6.3-2.7l2.6,2.5
	c0.3,0.4,1,0.5,1.4,0.2c0.1-0.1,0.1-0.1,0.2-0.2l4.1-4c0.2-0.2,0.3-0.5,0.4-0.8c0-0.3-0.1-0.6-0.4-0.8l-2.6-2.5
	c1.2-1.7,2-3.7,2.3-5.8h3.7c0.6,0,1.2-0.6,1.2-1.2v-5.8C787.1,287.6,786.7,287,785.9,287z"/>
<path class="st18" d="M775.2,289.6c-0.2-1.9-0.9-3.7-2-5.2l-7.2,8.3l-4.7-3.8l7.2-8.2c-1.6-0.7-3.4-1-5.2-0.8
	c-6,0.4-10.4,5.6-10,11.6c0.1,1.2,0.4,2.4,0.9,3.5l0.1,0.1l-17.4,20.1c-0.7,0.9-1.1,2-1,3.1c0.1,1.1,0.6,2.1,1.5,2.8
	c0.9,0.7,2,1.1,3.2,1c1.1-0.1,2.2-0.6,2.9-1.5l17.2-19.8l0.2,0.1c1.4,0.5,2.9,0.6,4.4,0.5C771.2,300.7,775.8,295.5,775.2,289.6z
	 M740.5,319c-0.8,0.1-1.5-0.5-1.6-1.3c0-0.8,0.6-1.5,1.4-1.6c0.8-0.1,1.5,0.5,1.6,1.3C742,318.2,741.4,318.9,740.5,319z"/>
<rect x="719.1" y="331.1" class="st2" width="86.8" height="19.6"/>
<text transform="matrix(1.03 0 0 1 719.1406 344.5801)" class="st3 st16">$587.653</text>
<path d="M1004.6,143.8c-0.5,0.6-1.2,1.4-2.1,2.4c-3.8-3.6-7.5-4.1-10.3-4.5c-8,13-17,20.6-28.8,28.7c-0.4,0.1-0.8,0.2-1.1,0.4
	c-2.1,1.4-3,3.8-3.5,6.7c-1.2,6.7,0.9,14.8,7.2,16.2c3.7,0.8,6.1,0.2,7.7-1.8c1.2-1.4,6.5-7.5,13.3-14.6c7.7-7.9,17-15.4,20.8-18.6
	c3.5-3,2.8-7.7,0.3-11.3c-0.9-1.3-2-2.5-3.3-3.4L1004.6,143.8z M975.4,186.5c0.4-4.2,0.4-8.3,0.2-12.5c2-1.2,4-2.5,5.8-4
	c8.9-6.7,16.1-14.6,23.4-23.3c2.6,2.4,4.9,7.3,1.8,10.1c-7.3,5.8-14.3,12-21,18.6C981.6,179.7,977.9,183.7,975.4,186.5L975.4,186.5z
	 M972.1,190.2c-1.1,1.4-2.8,1.8-5.6,1.2c-5.8-1.4-7-9.5-5.4-15.2c1.6-5.5,6.5-4.7,8-0.8l-6.3,6.3c0.2,0.6,0.5,4.6,3.7,5.5
	c2.3,0.8,4.2-1.6,4.9-4.4c0.4-2.1,0.4-4.4,0-6.5c-0.2-2.7-1.9-5-4.4-6.1c11-7.7,18.5-14.2,26.1-26.1c2.9,0.4,5.7,1.7,7.9,3.6
	c-7.3,8.5-22.4,24.5-27.4,24.5c0,1.2,0.5,11.3-0.2,14.8C973.3,188.2,972.8,189.3,972.1,190.2L972.1,190.2z M969.7,178
	c0.2,2.2,0,4.9-1.2,6.3c-1.2,1.8-2.8,0-3.3-1.8L969.7,178z"/>
<path d="M1002.4,185.3c-0.8-2.5-1.9-4.9-3.3-7.1c-1.6-2-3.7-3.6-6.1-4.7c1.7,2.3,3,4.9,3.7,7.7c0.6,2.1,1.1,4.3,1.4,6.5l-2.4-1.4
	l-1.9,4c0.5-3.4,0.1-6.9-1.2-10.1c-1.9-4.7-3.3-6.1-3.3-6.1c0.5-8.5-3.2-13-10.7-13.6l5.6-5.7c6.6-0.2,10.5,7.9,9.8,14.8
	c5.1,3.2,9.8,7.7,14,12.1l-3.8,0.8L1002.4,185.3z"/>
<rect x="943.8" y="198.8" class="st2" width="92.4" height="17.8"/>
<text transform="matrix(1.03 0 0 1 943.7705 212.3398)" class="st3 st16">$761.316</text>
<path d="M1152.5,276.5c-0.5,0.6-1.2,1.4-2.1,2.4c-2.8-2.7-6.4-4.3-10.3-4.5c-8,13-17,20.6-28.8,28.7c-0.4,0.1-0.8,0.2-1.1,0.4
	c-2.1,1.4-3,3.8-3.5,6.7c-1.2,6.7,0.9,14.8,7.2,16.2c3.7,0.8,6.1,0.2,7.7-1.8c1.2-1.4,6.5-7.5,13.3-14.6c7.7-7.9,17-15.4,20.8-18.6
	c3.5-3,2.8-7.7,0.3-11.3c-0.9-1.3-2-2.5-3.3-3.4L1152.5,276.5z M1123.3,319.2c0.4-4.2,0.4-8.3,0.2-12.5c2-1.2,4-2.5,5.8-4
	c8.9-6.7,16.1-14.6,23.4-23.3c2.6,2.4,4.9,7.3,1.8,10.1c-7.3,5.8-14.3,12-21,18.6C1129.4,312.5,1125.7,316.4,1123.3,319.2
	L1123.3,319.2z M1120,322.9c-1.1,1.4-2.8,1.8-5.6,1.2c-5.8-1.4-7-9.5-5.4-15.2c1.6-5.5,6.5-4.7,8-0.8l-6.3,6.3
	c0.2,0.6,0.5,4.5,3.7,5.5c2.3,0.8,4.2-1.6,4.9-4.3c0.4-2.1,0.4-4.4,0-6.5c-0.2-2.7-1.9-5-4.4-6.1c11-7.7,18.5-14.2,26.1-26.1
	c2.9,0.4,5.7,1.7,7.9,3.6c-7.3,8.5-22.4,24.5-27.4,24.5c0,1.2,0.5,11.3-0.2,14.8C1121.1,320.9,1120.7,322,1120,322.9L1120,322.9z
	 M1117.5,310.7c0.2,2.2,0,4.9-1.2,6.3c-1.2,1.8-2.8,0-3.3-1.8L1117.5,310.7z"/>
<path d="M1150.2,318c-0.7-2.5-1.9-4.9-3.3-7.1c-1.7-2-3.7-3.6-6.1-4.7c1.7,2.3,3,4.9,3.7,7.7c0.6,2.1,1.1,4.3,1.4,6.5l-2.4-1.4
	l-1.9,4c0.5-3.4,0.1-6.9-1.2-10.1c-1.9-4.7-3.3-6.1-3.3-6.1c0.5-8.5-3.2-13-10.7-13.6l5.6-5.7c6.6-0.2,10.5,7.9,9.8,14.8
	c5.1,3.2,9.8,7.7,14,12.1l-3.8,0.8L1150.2,318z"/>
<rect x="1095.1" y="334.5" class="st2" width="109" height="19.1"/>
<text transform="matrix(1.03 0 0 1 1095.1406 348.0498)" class="st3 st16">$866.796</text>
<rect x="363.6" y="202.7" class="st2" width="99.6" height="21.9"/>
<text transform="matrix(1.03 0 0 1 363.5801 216.21)" class="st3 st16">$299.746</text>
<path class="st17" d="M421.1,183.4c-0.6-0.4-1.4-0.6-2.1-0.5c-0.4,0-0.8,0.2-1.1,0.4l3.6,1.9c-1.1,1.6-2.1,3.3-2.9,5.1
	c-0.6,1.3-1.1,2.6-1.5,4c-0.3,1.1-0.5,2.3-0.4,3.5c1.7-0.5,3.5-2.9,4.7-5.8c0.8-1.9,1.2-4,1.2-6.1
	C422.5,184.9,421.9,184,421.1,183.4z"/>
<path class="st17" d="M396.9,160.2v7.4l19.9,9.1l0,0c1.5,0,3-0.1,4.5-0.3c3.9-0.7,6.4-2.1,6.4-3.6v-12.2l-12.2,5.3L396.9,160.2z"/>
<polygon class="st17" points="411,144.9 384.7,154.1 396.9,157.8 415.4,163.4 427.7,158.1 441.3,152.2 "/>
<path class="st17" d="M415,195.1c0-0.2,0-0.3,0.1-0.5c0.1-0.2,0.1-0.4,0.1-0.6v-0.1c0.4-1.7,1-3.3,1.8-4.8c0.4-1,0.9-1.9,1.5-2.8
	v-0.1l-2.4-1.2c-0.6,0.8-1.1,1.7-1.4,2.6c-0.5,1.2-1,2.4-1.3,3.7l-28.1-16l-0.2,1c-0.2,1.5-0.2,3,0.6,3.5l29.6,18
	C414.9,197,414.8,196,415,195.1z"/>
<path class="st17" d="M413,186.4c1.7-4.1,4.6-6.5,6.9-5.7h-0.1l-30.9-14.1c-1.2-0.6-2.8,1-3.7,3.8c-0.2,0.6-0.4,1.3-0.5,1.9
	l27.8,15.8C412.6,187.5,412.8,186.9,413,186.4z"/>
</svg>
