<svg id="Capa_1" data-name="Capa 1" xmlns="http://www.w3.org/2000/svg" viewBox="0 0 1500.5 412.6"><defs><style>.cls-1{fill:#dcf4f3;stroke:#416190;stroke-miterlimit:5.83;stroke-width:5px;}.cls-11,.cls-2,.cls-3{fill:none;}.cls-11,.cls-2{stroke:#000;}.cls-11,.cls-15,.cls-17,.cls-19,.cls-2,.cls-20{stroke-miterlimit:10;}.cls-2{stroke-width:3.04px;}.cls-10,.cls-11,.cls-12,.cls-14,.cls-16,.cls-18,.cls-4,.cls-5,.cls-6,.cls-8,.cls-9{isolation:isolate;}.cls-4,.cls-5,.cls-6{font-size:16px;}.cls-16,.cls-18,.cls-4,.cls-5,.cls-6,.cls-8{font-family:Optima-Bold, Optima;}.cls-14,.cls-16,.cls-18,.cls-4,.cls-5,.cls-6,.cls-8,.cls-9{font-weight:700;}.cls-5{letter-spacing:1.72em;}.cls-6{letter-spacing:0.58em;}.cls-15,.cls-17,.cls-19,.cls-20,.cls-7{fill:red;}.cls-10,.cls-11,.cls-8,.cls-9{font-size:21px;}.cls-14,.cls-9{font-family:Verdana-Bold, Verdana;}.cls-10,.cls-11,.cls-12{font-family:Optima-Regular, Optima;}.cls-11{stroke-width:0.25px;}.cls-12{font-size:12.24px;}.cls-13{fill:#fcee21;}.cls-14{font-size:16.65px;}.cls-15,.cls-17,.cls-19,.cls-20{stroke:red;}.cls-15{stroke-width:1.37px;}.cls-16{font-size:18.93px;}.cls-17{stroke-width:1.33px;}.cls-18{font-size:18px;}.cls-19{stroke-width:0.22px;}.cls-20{stroke-width:0.14px;}.cls-21{fill-rule:evenodd;}</style></defs><title>araucania</title><rect class="cls-1" x="2.5" y="2.5" width="1495.5" height="405.2"/><rect class="cls-2" x="99.2" y="236.1" width="1385.4" height="21.3"/><rect class="cls-3" x="113.1" y="240.5" width="1371.8" height="36.8"/><text class="cls-4" transform="translate(113.13 252.51) scale(0.98 1)">$100.000</text><text class="cls-5" transform="translate(178.48 252.51) scale(0.98 1)"> </text><text class="cls-5" transform="translate(210.98 252.51) scale(0.98 1)"> </text><text class="cls-4" transform="translate(243.6 252.51) scale(0.98 1)">$200.000</text><text class="cls-5" transform="translate(308.94 252.51) scale(0.98 1)"> </text><text class="cls-5" transform="translate(341.45 252.51) scale(0.98 1)"> </text><text class="cls-4" transform="translate(374.06 252.51) scale(0.98 1)">$300.000</text><text class="cls-5" transform="translate(439.41 252.51) scale(0.98 1)"> </text><text class="cls-5" transform="translate(471.92 252.51) scale(0.98 1)"> </text><text class="cls-4" transform="translate(504.53 252.51) scale(0.98 1)">$400.000</text><text class="cls-5" transform="translate(569.88 252.51) scale(0.98 1)"> </text><text class="cls-5" transform="translate(602.38 252.51) scale(0.98 1)"> </text><text class="cls-4" transform="translate(635.01 252.51) scale(0.98 1)">$500.000</text><text class="cls-5" transform="translate(700.35 252.51) scale(0.98 1)"> </text><text class="cls-5" transform="translate(732.85 252.51) scale(0.98 1)"> </text><text class="cls-4" transform="translate(765.47 252.51) scale(0.98 1)">$600.000</text><text class="cls-5" transform="translate(830.82 252.51) scale(0.98 1)"> </text><text class="cls-5" transform="translate(863.32 252.51) scale(0.98 1)"> </text><text class="cls-4" transform="translate(895.94 252.51) scale(0.98 1)">$700.000</text><text class="cls-5" transform="translate(961.28 252.51) scale(0.98 1)"> </text><text class="cls-5" transform="translate(993.79 252.51) scale(0.98 1)"> </text><text class="cls-4" transform="translate(1026.4 252.51) scale(0.98 1)">$800.000</text><text class="cls-5" transform="translate(1091.75 252.51) scale(0.98 1)"> </text><text class="cls-5" transform="translate(1124.25 252.51) scale(0.98 1)"> </text><text class="cls-4" transform="translate(1156.87 252.51) scale(0.98 1)">$900.000</text><text class="cls-5" transform="translate(1222.21 252.51) scale(0.98 1)"> </text><text class="cls-5" transform="translate(1254.72 252.51) scale(0.98 1)"> </text><text class="cls-4" transform="translate(1287.33 252.51) scale(0.98 1)">$1.000.000 </text><text class="cls-6" transform="translate(1370.1 252.51) scale(0.98 1)"> </text><text class="cls-5" transform="translate(1385.19 252.51) scale(0.98 1)"> </text><text class="cls-4" transform="translate(1417.8 252.51) scale(0.98 1)"><tspan xml:space="preserve">   +++</tspan></text><path class="cls-7" d="M588.36,157.3h-3.7a17,17,0,0,0-2.8-6.1l3.2-3.1a1.52,1.52,0,0,0,.4-.8,1,1,0,0,0-.4-.8l-4.1-4a1.49,1.49,0,0,0-1.8,0l-3.2,3.1a20.62,20.62,0,0,0-5.7-2.5v-4a1.29,1.29,0,0,0-1.2-1.2h-5.9a1.29,1.29,0,0,0-1.2,1.2V143a19.1,19.1,0,0,0-5.9,2.3l-3.4-3.3a1.49,1.49,0,0,0-1.8,0l-4.1,4a1,1,0,0,0,0,1.6l3.4,3.3a21.81,21.81,0,0,0-2.8,6.4h-3.8a1.29,1.29,0,0,0-1.2,1.2v5.8a1.29,1.29,0,0,0,1.2,1.2h3.7a19.57,19.57,0,0,0,2.1,5.4l3-3.6a14.84,14.84,0,1,1,13.5,8.6,14.71,14.71,0,0,1-4.2-.6l-2.9,3.4a24.54,24.54,0,0,0,2.9.8v3.3a1.29,1.29,0,0,0,1.2,1.2h5.9a1.29,1.29,0,0,0,1.2-1.2v-3.5a18.51,18.51,0,0,0,6.3-2.7l2.6,2.5a1,1,0,0,0,1.6,0l4.1-4a1.52,1.52,0,0,0,.4-.8,1,1,0,0,0-.4-.8L582,171a12.9,12.9,0,0,0,2.3-5.8H588a1.29,1.29,0,0,0,1.2-1.2v-5.8C589.56,157.9,589.16,157.3,588.36,157.3Z" transform="translate(-0.46 -0.1)"/><path class="cls-7" d="M577.76,159.9a10.48,10.48,0,0,0-2-5.2l-7.2,8.3-4.7-3.8,7.2-8.2a10.37,10.37,0,0,0-5.2-.8,10.84,10.84,0,0,0-10,11.6,10.64,10.64,0,0,0,.9,3.5l.1.1-17.4,19.9a4.3,4.3,0,0,0-1,3.1,3.93,3.93,0,0,0,1.5,2.8,4.55,4.55,0,0,0,3.2,1,4.14,4.14,0,0,0,2.9-1.5l17.2-19.8.2.1a10.92,10.92,0,0,0,14.3-11.1ZM543,189.3a1.47,1.47,0,0,1-1.6-1.3,1.54,1.54,0,0,1,1.4-1.6,1.47,1.47,0,0,1,1.6,1.3A1.54,1.54,0,0,1,543,189.3Z" transform="translate(-0.46 -0.1)"/><rect class="cls-3" x="825.2" y="380.3" width="92" height="32.3"/><text class="cls-8" transform="translate(825.15 396.08) scale(0.98 1)">$657.647</text><rect class="cls-3" x="590.2" y="23" width="439.9" height="108.7"/><text class="cls-9" transform="translate(736.67 38.72)">ARAUCANIA lX</text><text class="cls-9" transform="translate(577.18 88.18)">Población: </text><text class="cls-10" transform="translate(707.76 89.12)">957.224 </text><text class="cls-11" transform="translate(707.76 89.12)">957.224 </text><text class="cls-9" transform="translate(795.5 89.12)">Superficie:</text><text class="cls-10" transform="translate(921.08 89.12)"><tspan xml:space="preserve"> 31.842.3 km</tspan></text><text class="cls-12" transform="translate(1039.2 77.27)">2</text><rect class="cls-13" x="863.3" y="127.7" width="4.5" height="244"/><rect class="cls-3" x="16.6" y="180.2" width="105.4" height="23.7"/><text class="cls-14" transform="translate(16.58 192.09) scale(0.98 1)">MUJERES</text><rect class="cls-3" x="16.6" y="301.6" width="96.2" height="26"/><text class="cls-14" transform="translate(16.58 313.53) scale(0.98 1)">HOMBRES</text><rect class="cls-3" x="215.7" y="64.4" width="80.5" height="23.3"/><path class="cls-15" d="M380.56,297.9h-13.8c-1.7,0-3.2,1.7-3.2,3.8v16.6c0,2.1,1.4,3.8,3.2,3.8h13.8c1.7,0,3.2-1.7,3.2-3.8V301.7C383.76,299.6,382.36,297.9,380.56,297.9Zm2.1,20.5a2.28,2.28,0,0,1-2,2.5h-13.8a2.28,2.28,0,0,1-2-2.5V301.8a2.28,2.28,0,0,1,2-2.5h13.8a2.28,2.28,0,0,1,2,2.5v16.6Z" transform="translate(-0.46 -0.1)"/><path class="cls-15" d="M376.06,308.9a2.52,2.52,0,0,0,1.5-2.6c0-1.8-1-3.2-3.6-3.2h-3.9v12.2h4.4c2.6,0,3.7-1.6,3.7-3.4A3.1,3.1,0,0,0,376.06,308.9Zm-4.4-3.9h2.2c1.1,0,1.8.3,1.8,1.6q0,1.5-1.8,1.5h-2.2V305Zm2.7,8.4h-2.7v-3.3h2.5c1.4,0,2.2.5,2.2,1.6C376.36,313.1,375.56,313.4,374.36,313.4Z" transform="translate(-0.46 -0.1)"/><path class="cls-15" d="M392.26,296.1c1.7,0,3.2-1.7,3.2-3.8V275.7c0-2.1-1.4-3.8-3.2-3.8h-13.8c-1.7,0-3.2,1.7-3.2,3.8v16.6c0,2.1,1.4,3.8,3.2,3.8Zm-15.8-3.8V275.7a2.28,2.28,0,0,1,2-2.5h13.8a2.28,2.28,0,0,1,2,2.5v16.6a2.28,2.28,0,0,1-2,2.5h-13.8A2.42,2.42,0,0,1,376.46,292.3Z" transform="translate(-0.46 -0.1)"/><path class="cls-15" d="M382.86,286.4H388l1,2.8h1.8l-4.5-12.2h-1.8L380,289.2h1.8Zm2.5-6.9,1.8,5h-3.7Z" transform="translate(-0.46 -0.1)"/><path class="cls-15" d="M404,297.9h-13.8c-1.7,0-3.2,1.7-3.2,3.8v16.6c0,2.1,1.4,3.8,3.2,3.8H404c1.7,0,3.2-1.7,3.2-3.8V301.7C407.16,299.6,405.76,297.9,404,297.9Zm2.1,20.5a2.28,2.28,0,0,1-2,2.5h-13.8a2.28,2.28,0,0,1-2-2.5V301.8a2.28,2.28,0,0,1,2-2.5h13.8a2.28,2.28,0,0,1,2,2.5v16.6Z" transform="translate(-0.46 -0.1)"/><path class="cls-15" d="M398,304.8a3.65,3.65,0,0,1,2.9,1.5l1.1-1.4a4.72,4.72,0,0,0-3.9-2.1c-3.2,0-5.4,2.7-5.4,6.3s2.3,6.3,5.3,6.3a4.85,4.85,0,0,0,3.9-2.1l-1.1-1.4a3.33,3.33,0,0,1-2.8,1.5c-1.8,0-3.5-1.8-3.5-4.3C394.26,306.5,396,304.8,398,304.8Z" transform="translate(-0.46 -0.1)"/><rect class="cls-3" x="345.8" y="329.6" width="84.1" height="25.4"/><text class="cls-16" transform="translate(345.81 343.78) scale(0.95 1)">$291.733</text><path class="cls-17" d="M268.46,173.5h-13.8a3.46,3.46,0,0,0-3.2,3.6v15.8a3.39,3.39,0,0,0,3.2,3.6h13.8a3.46,3.46,0,0,0,3.2-3.6V177.1A3.39,3.39,0,0,0,268.46,173.5Zm2.1,19.5a2.16,2.16,0,0,1-2.1,2.3h-13.8a2.3,2.3,0,0,1-2.1-2.3V177.2a2.25,2.25,0,0,1,2.1-2.4h13.8a2.32,2.32,0,0,1,2.1,2.4V193Z" transform="translate(-0.46 -0.1)"/><path class="cls-17" d="M263.86,184a2.39,2.39,0,0,0,1.5-2.5c0-1.7-1-3.1-3.6-3.1h-4V190h4.4c2.6,0,3.7-1.5,3.7-3.2A2.49,2.49,0,0,0,263.86,184Zm-4.3-3.8h2.2c1.1,0,1.8.3,1.8,1.6,0,1-.6,1.4-1.9,1.4h-2.2l.1-3Zm2.7,8h-2.7V185h2.5c1.4,0,2.2.5,2.2,1.5C264.16,187.9,263.46,188.2,262.26,188.2Z" transform="translate(-0.46 -0.1)"/><path class="cls-17" d="M280.16,171.7a3.46,3.46,0,0,0,3.2-3.6V152.3a3.39,3.39,0,0,0-3.2-3.6h-13.8a3.46,3.46,0,0,0-3.2,3.6v15.8a3.39,3.39,0,0,0,3.2,3.6Zm-15.9-3.6V152.3a2.25,2.25,0,0,1,2.1-2.4h13.8a2.32,2.32,0,0,1,2.1,2.4v15.8a2.25,2.25,0,0,1-2.1,2.4h-13.8A2.32,2.32,0,0,1,264.26,168.1Z" transform="translate(-0.46 -0.1)"/><path class="cls-17" d="M270.76,162.6h5.1l1,2.6h1.8l-4.5-11.6h-1.8l-4.5,11.6h1.8Zm2.5-6.6,1.8,4.8h-3.7Z" transform="translate(-0.46 -0.1)"/><path class="cls-17" d="M292,173.5h-13.8a3.46,3.46,0,0,0-3.2,3.6v15.8a3.39,3.39,0,0,0,3.2,3.6H292a3.46,3.46,0,0,0,3.2-3.6V177.1A3.46,3.46,0,0,0,292,173.5Zm2.1,19.5a2.16,2.16,0,0,1-2.1,2.3h-13.8a2.3,2.3,0,0,1-2.1-2.3V177.2a2.25,2.25,0,0,1,2.1-2.4H292a2.32,2.32,0,0,1,2.1,2.4V193Z" transform="translate(-0.46 -0.1)"/><path class="cls-17" d="M285.86,180.1a3.54,3.54,0,0,1,2.9,1.4l1.1-1.4a4.88,4.88,0,0,0-3.9-2c-3.2,0-5.5,2.6-5.5,6s2.3,6,5.3,6a5,5,0,0,0,3.9-2l-1.1-1.3a3.51,3.51,0,0,1-2.9,1.4,3.84,3.84,0,0,1-3.5-4.1C282.26,181.7,283.86,180.1,285.86,180.1Z" transform="translate(-0.46 -0.1)"/><rect class="cls-3" x="228.1" y="203" width="93.1" height="18.8"/><text class="cls-18" transform="translate(228.05 216.52) scale(1.03 1)">$196.720</text><path class="cls-19" d="M554.66,311.1a3,3,0,0,0-2.1-.5,2.1,2.1,0,0,0-1.1.4l3.6,1.8a42.12,42.12,0,0,0-2.9,5.1,23.66,23.66,0,0,0-1.5,4,10.2,10.2,0,0,0-.4,3.5c1.7-.5,3.5-2.9,4.7-5.8a15.09,15.09,0,0,0,1.2-6.1A3.48,3.48,0,0,0,554.66,311.1Z" transform="translate(-0.46 -0.1)"/><path class="cls-19" d="M530.46,287.9v7.4l19.9,9.1h0a34,34,0,0,0,4.5-.3c3.9-.7,6.4-2.1,6.4-3.6V288.3l-12.2,5.3Z" transform="translate(-0.46 -0.1)"/><polygon class="cls-19" points="544.1 272.4 517.7 281.7 530 285.4 548.5 291 560.8 285.7 574.4 279.8 544.1 272.4"/><path class="cls-19" d="M548.46,322.8a.9.9,0,0,1,.1-.5,1.27,1.27,0,0,0,.1-.6v-.1a25,25,0,0,1,1.8-4.8A15.09,15.09,0,0,1,552,314v-.1l-2.4-1.2a10.78,10.78,0,0,0-1.4,2.6,23.15,23.15,0,0,0-1.3,3.7l-28.1-16-.2,1c-.2,1.5-.2,3,.6,3.5l29.6,18A5.6,5.6,0,0,1,548.46,322.8Z" transform="translate(-0.46 -0.1)"/><path class="cls-19" d="M546.56,314c1.7-4.1,4.6-6.5,6.9-5.7h-.1l-30.9-14.1c-1.2-.6-2.8,1-3.7,3.8a13.32,13.32,0,0,0-.5,1.9l27.8,15.8A8.45,8.45,0,0,1,546.56,314Z" transform="translate(-0.46 -0.1)"/><rect class="cls-3" x="507.1" y="331.7" width="100" height="21"/><text class="cls-18" transform="translate(507.14 345.19) scale(1.03 1)">$408.866</text><rect class="cls-3" x="513.4" y="202.2" width="103.7" height="22.3"/><text class="cls-18" transform="translate(513.43 215.74) scale(1.03 1)">$415.312</text><path class="cls-20" d="M786.36,287.1h-3.7a18.25,18.25,0,0,0-2.8-6.2l3.2-3.1a1.52,1.52,0,0,0,.4-.8,1,1,0,0,0-.4-.8l-4.1-4a1.49,1.49,0,0,0-1.8,0l-3.2,3.1a20.62,20.62,0,0,0-5.7-2.5v-4a1.29,1.29,0,0,0-1.2-1.2h-5.9a1.29,1.29,0,0,0-1.2,1.2v3.9a19.1,19.1,0,0,0-5.9,2.3l-3.4-3.3a1.49,1.49,0,0,0-1.8,0l-4.1,4a1,1,0,0,0,0,1.6l3.4,3.3a21.81,21.81,0,0,0-2.8,6.4h-3.7a1.29,1.29,0,0,0-1.2,1.2V294a1.29,1.29,0,0,0,1.2,1.2h3.7a19.57,19.57,0,0,0,2.1,5.4l3-3.6a14.84,14.84,0,1,1,13.5,8.6,14.71,14.71,0,0,1-4.2-.6l-2.9,3.3a24.54,24.54,0,0,0,2.9.8v3.3a1.29,1.29,0,0,0,1.2,1.2h5.9a1.29,1.29,0,0,0,1.2-1.2v-3.5a18.51,18.51,0,0,0,6.3-2.7l2.6,2.5a1,1,0,0,0,1.6,0l4.1-4a1.52,1.52,0,0,0,.4-.8,1,1,0,0,0-.4-.8l-2.6-2.5a12.9,12.9,0,0,0,2.3-5.8h3.7a1.29,1.29,0,0,0,1.2-1.2v-5.8C787.56,287.7,787.16,287.1,786.36,287.1Z" transform="translate(-0.46 -0.1)"/><path class="cls-20" d="M775.66,289.7a10.48,10.48,0,0,0-2-5.2l-7.2,8.3-4.7-3.8,7.2-8.2a10.37,10.37,0,0,0-5.2-.8,10.84,10.84,0,0,0-10,11.6,11.31,11.31,0,0,0,.9,3.5l.1.1-17.4,20.1a4.3,4.3,0,0,0-1,3.1,3.93,3.93,0,0,0,1.5,2.8,4.55,4.55,0,0,0,3.2,1,4.14,4.14,0,0,0,2.9-1.5l17.2-19.8.2.1a10.87,10.87,0,0,0,4.4.5C771.66,300.8,776.26,295.6,775.66,289.7ZM741,319.1a1.47,1.47,0,0,1-1.6-1.3,1.54,1.54,0,0,1,1.4-1.6,1.47,1.47,0,0,1,1.6,1.3A1.55,1.55,0,0,1,741,319.1Z" transform="translate(-0.46 -0.1)"/><rect class="cls-3" x="719.1" y="331.1" width="86.8" height="19.6"/><text class="cls-18" transform="translate(719.14 344.58) scale(1.03 1)">$587.653</text><path d="M1005.06,143.9q-.75.9-2.1,2.4c-3.8-3.6-7.5-4.1-10.3-4.5-8,13-17,20.6-28.8,28.7a3,3,0,0,0-1.1.4c-2.1,1.4-3,3.8-3.5,6.7-1.2,6.7.9,14.8,7.2,16.2,3.7.8,6.1.2,7.7-1.8,1.2-1.4,6.5-7.5,13.3-14.6,7.7-7.9,17-15.4,20.8-18.6,3.5-3,2.8-7.7.3-11.3a11.92,11.92,0,0,0-3.3-3.4Zm-29.2,42.7a89.67,89.67,0,0,0,.2-12.5,43.6,43.6,0,0,0,5.8-4c8.9-6.7,16.1-14.6,23.4-23.3,2.6,2.4,4.9,7.3,1.8,10.1a256.15,256.15,0,0,0-21,18.6C982.06,179.8,978.36,183.8,975.86,186.6Zm-3.3,3.7c-1.1,1.4-2.8,1.8-5.6,1.2-5.8-1.4-7-9.5-5.4-15.2,1.6-5.5,6.5-4.7,8-.8l-6.3,6.3c.2.6.5,4.6,3.7,5.5,2.3.8,4.2-1.6,4.9-4.4a17.64,17.64,0,0,0,0-6.5,7.27,7.27,0,0,0-4.4-6.1c11-7.7,18.5-14.2,26.1-26.1a15.41,15.41,0,0,1,7.9,3.6c-7.3,8.5-22.4,24.5-27.4,24.5,0,1.2.5,11.3-.2,14.8A6.58,6.58,0,0,1,972.56,190.3Zm-2.4-12.2c.2,2.2,0,4.9-1.2,6.3-1.2,1.8-2.8,0-3.3-1.8Z" transform="translate(-0.46 -0.1)"/><path class="cls-21" d="M1002.86,185.4a28.28,28.28,0,0,0-3.3-7.1,16.22,16.22,0,0,0-6.1-4.7,21.63,21.63,0,0,1,3.7,7.7,47.41,47.41,0,0,1,1.4,6.5l-2.4-1.4-1.9,4a20,20,0,0,0-1.2-10.1c-1.9-4.7-3.3-6.1-3.3-6.1.5-8.5-3.2-13-10.7-13.6l5.6-5.7c6.6-.2,10.5,7.9,9.8,14.8,5.1,3.2,9.8,7.7,14,12.1l-3.8.8Z" transform="translate(-0.46 -0.1)"/><rect class="cls-3" x="943.8" y="198.8" width="92.4" height="17.8"/><text class="cls-18" transform="translate(943.77 212.34) scale(1.03 1)">$761.316</text><path d="M1153,276.6q-.75.9-2.1,2.4a16.21,16.21,0,0,0-10.3-4.5c-8,13-17,20.6-28.8,28.7a3,3,0,0,0-1.1.4c-2.1,1.4-3,3.8-3.5,6.7-1.2,6.7.9,14.8,7.2,16.2,3.7.8,6.1.2,7.7-1.8,1.2-1.4,6.5-7.5,13.3-14.6,7.7-7.9,17-15.4,20.8-18.6,3.5-3,2.8-7.7.3-11.3a11.92,11.92,0,0,0-3.3-3.4Zm-29.2,42.7a89.67,89.67,0,0,0,.2-12.5,43.6,43.6,0,0,0,5.8-4c8.9-6.7,16.1-14.6,23.4-23.3,2.6,2.4,4.9,7.3,1.8,10.1a256.15,256.15,0,0,0-21,18.6C1129.86,312.6,1126.16,316.5,1123.76,319.3Zm-3.3,3.7c-1.1,1.4-2.8,1.8-5.6,1.2-5.8-1.4-7-9.5-5.4-15.2,1.6-5.5,6.5-4.7,8-.8l-6.3,6.3c.2.6.5,4.5,3.7,5.5,2.3.8,4.2-1.6,4.9-4.3a17.64,17.64,0,0,0,0-6.5,7.27,7.27,0,0,0-4.4-6.1c11-7.7,18.5-14.2,26.1-26.1a15.41,15.41,0,0,1,7.9,3.6c-7.3,8.5-22.4,24.5-27.4,24.5,0,1.2.5,11.3-.2,14.8A7.28,7.28,0,0,1,1120.46,323Zm-2.5-12.2c.2,2.2,0,4.9-1.2,6.3-1.2,1.8-2.8,0-3.3-1.8Z" transform="translate(-0.46 -0.1)"/><path class="cls-21" d="M1150.66,318.1a26.72,26.72,0,0,0-3.3-7.1,17.53,17.53,0,0,0-6.1-4.7,21.63,21.63,0,0,1,3.7,7.7,47.41,47.41,0,0,1,1.4,6.5l-2.4-1.4-1.9,4a20,20,0,0,0-1.2-10.1c-1.9-4.7-3.3-6.1-3.3-6.1.5-8.5-3.2-13-10.7-13.6l5.6-5.7c6.6-.2,10.5,7.9,9.8,14.8,5.1,3.2,9.8,7.7,14,12.1l-3.8.8Z" transform="translate(-0.46 -0.1)"/><rect class="cls-3" x="1095.1" y="334.5" width="109" height="19.1"/><text class="cls-18" transform="translate(1095.14 348.05) scale(1.03 1)">$866.796</text><rect class="cls-3" x="363.6" y="202.7" width="99.6" height="21.9"/><text class="cls-18" transform="translate(363.58 216.21) scale(1.03 1)">$299.746</text><path class="cls-19" d="M421.56,183.5a3,3,0,0,0-2.1-.5,2.1,2.1,0,0,0-1.1.4l3.6,1.9a42.12,42.12,0,0,0-2.9,5.1,23.66,23.66,0,0,0-1.5,4,10.2,10.2,0,0,0-.4,3.5c1.7-.5,3.5-2.9,4.7-5.8a15.09,15.09,0,0,0,1.2-6.1A3.59,3.59,0,0,0,421.56,183.5Z" transform="translate(-0.46 -0.1)"/><path class="cls-19" d="M397.36,160.3v7.4l19.9,9.1h0a34,34,0,0,0,4.5-.3c3.9-.7,6.4-2.1,6.4-3.6V160.7L416,166Z" transform="translate(-0.46 -0.1)"/><polygon class="cls-19" points="411 144.9 384.7 154.1 396.9 157.8 415.4 163.4 427.7 158.1 441.3 152.2 411 144.9"/><path class="cls-19" d="M415.46,195.2a.9.9,0,0,1,.1-.5,1.27,1.27,0,0,0,.1-.6V194a25,25,0,0,1,1.8-4.8,15.09,15.09,0,0,1,1.5-2.8v-.1l-2.4-1.2a10.78,10.78,0,0,0-1.4,2.6,23.15,23.15,0,0,0-1.3,3.7l-28.1-16-.2,1c-.2,1.5-.2,3,.6,3.5l29.6,18A3.85,3.85,0,0,1,415.46,195.2Z" transform="translate(-0.46 -0.1)"/><path class="cls-19" d="M413.46,186.5c1.7-4.1,4.6-6.5,6.9-5.7h-.1l-30.9-14.1c-1.2-.6-2.8,1-3.7,3.8a13.32,13.32,0,0,0-.5,1.9L413,188.2A6.87,6.87,0,0,1,413.46,186.5Z" transform="translate(-0.46 -0.1)"/></svg>