<?xml version="1.0" encoding="utf-8"?>
<!-- Generator: Adobe Illustrator 24.2.3, SVG Export Plug-In . SVG Version: 6.00 Build 0)  -->
<svg version="1.1" id="Capa_1" xmlns="http://www.w3.org/2000/svg" xmlns:xlink="http://www.w3.org/1999/xlink" x="0px" y="0px"
	 viewBox="0 0 1500.5 410" style="enable-background:new 0 0 1500.5 410;" xml:space="preserve">
<style type="text/css">
	.st0{fill:#DCF4F3;stroke:#416190;stroke-width:5;stroke-miterlimit:5.83;}
	.st1{fill:none;stroke:#000000;stroke-width:3.0401;stroke-miterlimit:10;}
	.st2{fill:none;}
	.st3{font-family:'Optima-Bold';}
	.st4{font-size:16px;}
	.st5{letter-spacing:27.6;}
	.st6{letter-spacing:9.2;}
	.st7{fill:#FF0000;}
	.st8{font-size:21px;}
	.st9{font-family:'Verdana-Bold';}
	.st10{font-family:'Optima-Regular';}
	.st11{fill:none;stroke:#000000;stroke-width:0.25;stroke-miterlimit:10;}
	.st12{font-size:12.243px;}
	.st13{fill:#FCEE21;}
	.st14{font-size:16.6514px;}
	.st15{fill:#FF0000;stroke:#FF0000;stroke-width:1.3664;stroke-miterlimit:10;}
	.st16{font-size:18.9273px;}
	.st17{fill:#FF0000;stroke:#FF0000;stroke-width:1.3343;stroke-miterlimit:10;}
	.st18{font-size:18px;}
	.st19{fill:#FF0000;stroke:#FF0000;stroke-width:0.2169;stroke-miterlimit:10;}
	.st20{fill:#FF0000;stroke:#FF0000;stroke-width:0.1414;stroke-miterlimit:10;}
	.st21{fill-rule:evenodd;clip-rule:evenodd;}
</style>
<rect x="2.5" y="2.5" class="st0" width="1495.5" height="405.2"/>
<rect x="91.4" y="228.9" class="st1" width="1385.4" height="21.3"/>
<rect x="105.3" y="233.2" class="st2" width="1371.8" height="36.8"/>
<text transform="matrix(0.9794 0 0 1 105.3198 245.277)" class="st3 st4">$100.000</text>
<text transform="matrix(0.9794 0 0 1 170.6646 245.277)" class="st3 st4 st5"> </text>
<text transform="matrix(0.9794 0 0 1 203.1714 245.277)" class="st3 st4 st5"> </text>
<text transform="matrix(0.9794 0 0 1 235.7856 245.277)" class="st3 st4">$200.000</text>
<text transform="matrix(0.9794 0 0 1 301.1289 245.277)" class="st3 st4 st5"> </text>
<text transform="matrix(0.9794 0 0 1 333.6357 245.277)" class="st3 st4 st5"> </text>
<text transform="matrix(0.9794 0 0 1 366.25 245.277)" class="st3 st4">$300.000</text>
<text transform="matrix(0.9794 0 0 1 431.5957 245.277)" class="st3 st4 st5"> </text>
<text transform="matrix(0.9794 0 0 1 464.1016 245.277)" class="st3 st4 st5"> </text>
<text transform="matrix(0.9794 0 0 1 496.7158 245.277)" class="st3 st4">$400.000</text>
<text transform="matrix(0.9794 0 0 1 562.0615 245.277)" class="st3 st4 st5"> </text>
<text transform="matrix(0.9794 0 0 1 594.5674 245.277)" class="st3 st4 st5"> </text>
<text transform="matrix(0.9794 0 0 1 627.1914 245.277)" class="st3 st4">$500.000</text>
<text transform="matrix(0.9794 0 0 1 692.5371 245.277)" class="st3 st4 st5"> </text>
<text transform="matrix(0.9794 0 0 1 725.0332 245.277)" class="st3 st4 st5"> </text>
<text transform="matrix(0.9794 0 0 1 757.6572 245.277)" class="st3 st4">$600.000</text>
<text transform="matrix(0.9794 0 0 1 823.0029 245.277)" class="st3 st4 st5"> </text>
<text transform="matrix(0.9794 0 0 1 855.5088 245.277)" class="st3 st4 st5"> </text>
<text transform="matrix(0.9794 0 0 1 888.123 245.277)" class="st3 st4">$700.000</text>
<text transform="matrix(0.9794 0 0 1 953.4688 245.277)" class="st3 st4 st5"> </text>
<text transform="matrix(0.9794 0 0 1 985.9746 245.277)" class="st3 st4 st5"> </text>
<text transform="matrix(0.9794 0 0 1 1018.5889 245.277)" class="st3 st4">$800.000</text>
<text transform="matrix(0.9794 0 0 1 1083.9355 245.277)" class="st3 st4 st5"> </text>
<text transform="matrix(0.9794 0 0 1 1116.4414 245.277)" class="st3 st4 st5"> </text>
<text transform="matrix(0.9794 0 0 1 1149.0547 245.277)" class="st3 st4">$900.000</text>
<text transform="matrix(0.9794 0 0 1 1214.4004 245.277)" class="st3 st4 st5"> </text>
<text transform="matrix(0.9794 0 0 1 1246.9062 245.277)" class="st3 st4 st5"> </text>
<text transform="matrix(0.9794 0 0 1 1279.5215 245.277)" class="st3 st4">$1.000.000 </text>
<text transform="matrix(0.9794 0 0 1 1362.291 245.277)" class="st3 st4 st6"> </text>
<text transform="matrix(0.9794 0 0 1 1377.373 245.277)" class="st3 st4 st5"> </text>
<text transform="matrix(0.9794 0 0 1 1409.9863 245.277)" class="st3 st4">   +++</text>
<path class="st7" d="M536.1,149.9h-3.7c-0.6-2.3-1.4-4.2-2.8-6.1l3.2-3.1c0.2-0.2,0.4-0.6,0.4-0.8c0-0.4-0.2-0.6-0.4-0.8l-4.1-4
	c-0.4-0.4-1.2-0.4-1.8,0l-3.2,3.1c-1.8-1.2-3.7-1.9-5.7-2.5v-4c0-0.6-0.6-1.2-1.2-1.2h-5.9c-0.6,0-1.2,0.6-1.2,1.2v3.9
	c-2.2,0.4-4.1,1.3-5.9,2.3l-3.4-3.3c-0.4-0.4-1.2-0.4-1.8,0l-4.1,4c-0.2,0.2-0.4,0.6-0.4,0.8s0.2,0.6,0.4,0.8l3.4,3.3
	c-1.2,1.9-2.2,4-2.8,6.4h-3.8c-0.6,0-1.2,0.6-1.2,1.2v5.8c0,0.6,0.6,1.2,1.2,1.2h3.7c0.3,2,1.3,3.7,2.1,5.4l3-3.6
	c-0.8-1.8-1.3-3.8-1.3-5.9c0-8,6.6-14.5,14.8-14.5c8.2,0,14.8,6.5,14.8,14.5s-6.6,14.5-14.8,14.5c-1.4,0-2.9-0.2-4.2-0.6l-2.9,3.4
	c0.9,0.3,1.9,0.6,2.9,0.8v3.3c0,0.6,0.6,1.2,1.2,1.2h5.9c0.6,0,1.2-0.6,1.2-1.2v-3.5c2.3-0.6,4.3-1.3,6.3-2.7l2.6,2.5
	c0.2,0.2,0.6,0.4,0.8,0.4s0.6-0.2,0.8-0.4l4.1-4c0.2-0.2,0.4-0.6,0.4-0.8c0-0.4-0.2-0.6-0.4-0.8l-2.6-2.5c1.2-1.7,2-3.6,2.3-5.8h3.7
	c0.6,0,1.2-0.6,1.2-1.2v-5.8C537.3,150.5,536.9,149.9,536.1,149.9z"/>
<path class="st7" d="M525.5,152.5c-0.2-1.8-0.8-3.6-2-5.2l-7.2,8.3l-4.7-3.8l7.2-8.2c-1.7-0.7-3.4-1-5.2-0.8
	c-6,0.5-10.5,5.7-10,11.6c0.1,1.2,0.4,2.4,0.9,3.5l0.1,0.1l-17.4,20.1c-0.7,0.8-1.1,2-1,3.1s0.6,2.1,1.5,2.8s2,1.1,3.2,1
	c1.1-0.1,2.2-0.6,2.9-1.5l17.2-19.8l0.2,0.1c1.4,0.5,2.9,0.6,4.4,0.5C521.5,163.6,526,158.4,525.5,152.5z M490.7,181.9
	c-0.9,0.1-1.5-0.6-1.6-1.3c-0.1-0.8,0.6-1.5,1.4-1.6c0.9-0.1,1.5,0.6,1.6,1.3C492.1,181.1,491.5,181.9,490.7,181.9z"/>
<rect x="764.3" y="373.1" class="st2" width="92" height="32.3"/>
<text transform="matrix(0.9794 0 0 1 764.3359 388.8434)" class="st3 st8">$616.393</text>
<rect x="582.4" y="15.7" class="st2" width="439.9" height="108.7"/>
<text transform="matrix(1 0 0 1 673.4332 31.4867)" class="st3 st8"> </text>
<text transform="matrix(1 0 0 1 679.2332 31.4867)" class="st9 st8">ARICA Y PARINACOTA XV</text>
<text transform="matrix(1 0 0 1 572.2219 81.8867)" class="st9 st8">Población: </text>
<text transform="matrix(1 0 0 1 699.9522 81.8867)" class="st10 st8">226.068 </text>
<text transform="matrix(1 0 0 1 699.9522 81.8867)" class="st11 st10 st8">226.068 </text>
<text transform="matrix(1 0 0 1 781.6827 81.8867)" class="st9 st8">Superficie:</text>
<text transform="matrix(1 0 0 1 904.3317 81.8867)" class="st10 st8"> 16.873,3 km</text>
<text transform="matrix(1 0 0 1 1025.4233 68.5539)" class="st10 st12">2</text>
<rect x="808.5" y="120.4" class="st13" width="4.5" height="244"/>
<rect x="8.8" y="172.9" class="st2" width="105.4" height="23.7"/>
<text transform="matrix(0.9794 0 0 1 8.77 184.8483)" class="st9 st14">MUJERES</text>
<rect x="8.8" y="294.4" class="st2" width="96.2" height="26"/>
<text transform="matrix(0.9794 0 0 1 8.77 306.2926)" class="st9 st14">HOMBRES</text>
<rect x="207.8" y="57.2" class="st2" width="80.5" height="23.3"/>
<g>
	<g>
		<path class="st15" d="M433.3,290.6h-13.8c-1.7,0-3.2,1.7-3.2,3.8V311c0,2.1,1.4,3.8,3.2,3.8h13.8c1.7,0,3.2-1.7,3.2-3.8v-16.6
			C436.5,292.3,435,290.6,433.3,290.6z M435.4,311c0,1.4-0.9,2.5-2,2.5h-13.9c-1.1,0-2-1.1-2-2.5v-16.6c0-1.4,0.9-2.5,2-2.5h13.8
			c1.1,0,2,1.1,2,2.5V311H435.4z"/>
		<path class="st15" d="M428.7,301.6c1-0.5,1.5-1.2,1.5-2.6c0-1.8-1-3.2-3.6-3.2h-3.9V308h4.4c2.6,0,3.7-1.6,3.7-3.4
			C430.8,303,430,301.9,428.7,301.6z M424.4,297.6h2.2c1.1,0,1.8,0.3,1.8,1.6c0,1-0.6,1.5-1.8,1.5h-2.2V297.6L424.4,297.6z
			 M427.1,306h-2.7v-3.3h2.5c1.4,0,2.2,0.5,2.2,1.6C429,305.7,428.3,306,427.1,306z"/>
		<path class="st15" d="M445,288.7c1.7,0,3.2-1.7,3.2-3.8v-16.6c0-2.1-1.4-3.8-3.2-3.8h-13.8c-1.7,0-3.2,1.7-3.2,3.8v16.6
			c0,2.1,1.4,3.8,3.2,3.8H445L445,288.7z M429.1,284.9v-16.6c0-1.4,0.9-2.5,2-2.5h13.8c1.1,0,2,1.1,2,2.5v16.6c0,1.4-0.9,2.5-2,2.5
			h-13.8C430,287.4,429.1,286.3,429.1,284.9z"/>
		<path class="st15" d="M435.5,279h5.1l1,2.8h1.8l-4.5-12.2h-1.8l-4.5,12.2h1.8L435.5,279z M438.1,272.1l1.8,5h-3.7L438.1,272.1z"/>
		<path class="st15" d="M456.7,290.6h-13.8c-1.7,0-3.2,1.7-3.2,3.8V311c0,2.1,1.4,3.8,3.2,3.8h13.8c1.7,0,3.2-1.7,3.2-3.8v-16.6
			C459.9,292.3,458.4,290.6,456.7,290.6z M458.8,311c0,1.4-0.9,2.5-2,2.5H443c-1.1,0-2-1.1-2-2.5v-16.6c0-1.4,0.9-2.5,2-2.5h13.8
			c1.1,0,2,1.1,2,2.5V311L458.8,311z"/>
		<path class="st15" d="M450.6,297.4c1.2,0,2,0.5,2.9,1.5l1.1-1.4c-1-1.4-2.4-2.1-3.9-2.1c-3.2,0-5.4,2.7-5.4,6.3
			c0,3.7,2.3,6.3,5.3,6.3c1.5,0,2.8-0.7,3.9-2.1l-1.1-1.4c-1,1.2-1.8,1.5-2.8,1.5c-1.8,0-3.5-1.8-3.5-4.3
			C447,299.1,448.6,297.4,450.6,297.4z"/>
	</g>
	<rect x="399" y="322.3" class="st2" width="84.1" height="25.4"/>
	<text transform="matrix(0.9484 0 0 1 398.9941 336.5416)" class="st3 st16">$336.657</text>
</g>
<g>
	<g>
		<path class="st17" d="M304.2,166.2h-13.8c-1.7,0-3.2,1.6-3.2,3.6v15.8c0,2,1.4,3.6,3.2,3.6h13.8c1.7,0,3.2-1.6,3.2-3.6v-15.8
			C307.4,167.8,305.9,166.2,304.2,166.2z M306.3,185.6c0,1.3-0.9,2.3-2.1,2.3h-13.8c-1.1,0-2.1-1.1-2.1-2.3v-15.8
			c0-1.3,0.9-2.4,2.1-2.4h13.8c1.1,0,2.1,1.1,2.1,2.4V185.6L306.3,185.6z"/>
		<path class="st17" d="M299.6,176.6c1-0.5,1.5-1.1,1.5-2.5c0-1.7-1-3.1-3.6-3.1h-4v11.6h4.4c2.6,0,3.7-1.5,3.7-3.2
			C301.7,177.9,300.8,176.9,299.6,176.6z M295.3,172.9h2.2c1.1,0,1.8,0.3,1.8,1.6c0,1-0.6,1.4-1.9,1.4h-2.2L295.3,172.9L295.3,172.9
			z M298,180.8h-2.7v-3.2h2.5c1.4,0,2.2,0.5,2.2,1.5C299.9,180.5,299.1,180.8,298,180.8z"/>
		<path class="st17" d="M315.9,164.4c1.7,0,3.2-1.6,3.2-3.6V145c0-2-1.4-3.6-3.2-3.6h-13.8c-1.7,0-3.2,1.6-3.2,3.6v15.8
			c0,2,1.4,3.6,3.2,3.6L315.9,164.4L315.9,164.4z M300,160.8V145c0-1.3,0.9-2.4,2.1-2.4h13.8c1.1,0,2.1,1.1,2.1,2.4v15.8
			c0,1.3-0.9,2.4-2.1,2.4h-13.8C300.9,163.1,300,162.1,300,160.8z"/>
		<path class="st17" d="M306.4,155.2h5.1l1,2.6h1.8l-4.5-11.6H308l-4.5,11.6h1.8L306.4,155.2z M309,148.6l1.8,4.8h-3.7L309,148.6z"
			/>
		<path class="st17" d="M327.7,166.2h-13.8c-1.7,0-3.2,1.6-3.2,3.6v15.8c0,2,1.4,3.6,3.2,3.6h13.8c1.7,0,3.2-1.6,3.2-3.6v-15.8
			C330.8,167.8,329.4,166.2,327.7,166.2z M329.7,185.6c0,1.3-0.9,2.3-2.1,2.3h-13.8c-1.1,0-2.1-1.1-2.1-2.3v-15.8
			c0-1.3,0.9-2.4,2.1-2.4h13.8c1.1,0,2.1,1.1,2.1,2.4V185.6L329.7,185.6z"/>
		<path class="st17" d="M321.6,172.7c1.2,0,2,0.4,2.9,1.4l1.1-1.4c-1-1.3-2.4-2-3.9-2c-3.2,0-5.5,2.6-5.5,6c0,3.5,2.3,6,5.3,6
			c1.5,0,2.8-0.7,3.9-2l-1.1-1.3c-1,1.1-1.8,1.4-2.9,1.4c-1.8,0-3.5-1.7-3.5-4.1C317.9,174.3,319.6,172.7,321.6,172.7z"/>
	</g>
	<rect x="264.2" y="195.8" class="st2" width="93.1" height="18.8"/>
	<text transform="matrix(1.0255 0 0 1 264.2407 209.2877)" class="st3 st18">$235.927</text>
</g>
<g>
	<path class="st19" d="M573.3,303.7c-0.6-0.4-1.3-0.6-2.1-0.5c-0.4,0-0.8,0.2-1.1,0.4l3.6,1.8c-1.1,1.6-2,3.3-2.9,5.1
		c-0.6,1.2-1.1,2.6-1.5,4c-0.3,1.1-0.5,2.3-0.4,3.5c1.7-0.5,3.5-2.9,4.7-5.8c0.8-1.8,1.2-3.9,1.2-6.1
		C574.7,305.1,574.1,304.1,573.3,303.7z"/>
	<path class="st19" d="M549.1,280.5v7.4L569,297l0,0c1.5,0,3-0.1,4.5-0.3c3.9-0.7,6.4-2.1,6.4-3.6v-12.2l-12.2,5.3L549.1,280.5z"/>
	<polygon class="st19" points="563.2,265.2 536.9,274.4 549.1,278.1 567.7,283.7 580,278.4 593.5,272.5 	"/>
	<path class="st19" d="M567.2,315.4c0-0.2,0-0.3,0.1-0.5s0.1-0.4,0.1-0.6v-0.1c0.5-1.7,1-3.3,1.8-4.8c0.4-1,0.9-1.9,1.5-2.8v-0.1
		l-2.4-1.2c-0.6,0.8-1,1.6-1.4,2.6c-0.5,1.2-1,2.4-1.3,3.7l-28.1-16.2l-0.2,1c-0.2,1.5-0.2,3,0.6,3.5l29.6,18
		C567.1,317.4,567,316.6,567.2,315.4z"/>
	<path class="st19" d="M565.3,306.6c1.7-4.1,4.6-6.5,6.9-5.7h-0.1l-30.9-14.1c-1.2-0.6-2.8,1-3.7,3.8c-0.2,0.6-0.4,1.3-0.5,1.9
		l27.8,15.8C564.9,307.7,565.1,307.2,565.3,306.6z"/>
	<rect x="526.3" y="324.4" class="st2" width="100" height="21"/>
	<text transform="matrix(1.0255 0 0 1 526.3301 337.9518)" class="st3 st18">$431.550</text>
</g>
<rect x="461.6" y="195" class="st2" width="103.7" height="22.3"/>
<text transform="matrix(1.0255 0 0 1 461.6182 208.5055)" class="st3 st18">$393.183</text>
<g>
	<path class="st20" d="M769.1,279.7h-3.7c-0.6-2.3-1.4-4.2-2.8-6.2l3.2-3.1c0.2-0.2,0.4-0.6,0.4-0.8c0-0.4-0.2-0.6-0.4-0.8l-4.1-4
		c-0.4-0.4-1.2-0.4-1.8,0l-3.2,3.1c-1.8-1.2-3.7-1.9-5.7-2.5v-4c0-0.6-0.6-1.2-1.2-1.2h-5.9c-0.6,0-1.2,0.6-1.2,1.2v3.9
		c-2.2,0.4-4.1,1.3-5.9,2.3l-3.4-3.3c-0.4-0.4-1.2-0.4-1.8,0l-4.1,4c-0.2,0.2-0.4,0.6-0.4,0.8c0,0.2,0.2,0.6,0.4,0.8l3.4,3.3
		c-1.2,1.9-2.2,4-2.8,6.4h-3.8c-0.6,0-1.2,0.6-1.2,1.2v5.8c0,0.6,0.6,1.2,1.2,1.2h3.7c0.3,2,1.3,3.7,2.1,5.4l3-3.6
		c-0.8-1.8-1.3-3.8-1.3-5.9c0-8,6.6-14.5,14.8-14.5s14.8,6.5,14.8,14.5s-6.6,14.5-14.8,14.5c-1.4,0-2.9-0.2-4.2-0.6l-2.9,3.3
		c0.9,0.3,1.9,0.6,2.9,0.8v3.3c0,0.6,0.6,1.2,1.2,1.2h5.9c0.6,0,1.2-0.6,1.2-1.2v-3.5c2.3-0.6,4.3-1.3,6.3-2.7l2.6,2.5
		c0.2,0.2,0.6,0.4,0.8,0.4s0.6-0.2,0.8-0.4l4.1-4c0.2-0.2,0.4-0.6,0.4-0.8c0-0.4-0.2-0.6-0.4-0.8l-2.6-2.5c1.2-1.7,2-3.6,2.3-5.8
		h3.7c0.6,0,1.2-0.6,1.2-1.2v-5.8C770.3,280.3,769.9,279.7,769.1,279.7z"/>
	<path class="st20" d="M758.4,282.4c-0.2-1.8-0.8-3.6-2-5.2l-7.2,8.3l-4.7-3.8l7.2-8.2c-1.7-0.7-3.4-1-5.2-0.8
		c-6,0.5-10.5,5.7-10,11.6c0.1,1.2,0.4,2.3,0.9,3.5l0.1,0.1L720.1,308c-0.7,0.8-1.1,2-1,3.1s0.6,2.1,1.5,2.8s2,1.1,3.2,1
		c1.1-0.1,2.2-0.6,2.9-1.5l17.2-19.8l0.2,0.1c1.4,0.5,2.9,0.6,4.4,0.5C754.4,293.5,758.9,288.3,758.4,282.4z M723.6,311.7
		c-0.9,0.1-1.5-0.6-1.6-1.3c-0.1-0.8,0.6-1.5,1.4-1.6c0.9-0.1,1.5,0.6,1.6,1.3C725.1,311,724.5,311.7,723.6,311.7z"/>
	<rect x="702.3" y="323.8" class="st2" width="86.8" height="19.6"/>
	<text transform="matrix(1.0255 0 0 1 702.3301 337.3385)" class="st3 st18">$573.913</text>
</g>
<g>
	<g>
		<path d="M1012.8,136.5c-0.5,0.6-1.2,1.4-2.1,2.4c-3.8-3.6-7.5-4.1-10.3-4.5c-8,13-17,20.6-28.8,28.7c-0.3,0-0.7,0.2-1.1,0.4
			c-2.1,1.4-3,3.8-3.5,6.7c-1.2,6.7,0.9,14.8,7.2,16.2c3.7,0.8,6.1,0.2,7.7-1.8c1.2-1.4,6.5-7.5,13.3-14.6
			c7.7-7.9,17-15.4,20.8-18.6c3.5-3,2.8-7.7,0.3-11.3c-0.9-1.4-2.1-2.6-3.3-3.4L1012.8,136.5z M983.6,179.2
			c0.5-3.6,0.3-10.3,0.2-12.5c0.9-0.4,2.6-1.6,5.8-4c8.9-6.7,16.1-14.6,23.4-23.3c2.6,2.4,4.9,7.3,1.8,10.1
			c-3.7,3-13.5,10.9-21,18.6C989.7,172.5,986.1,176.4,983.6,179.2z M980.3,183c-1.1,1.4-2.8,1.8-5.6,1.2c-5.8-1.4-7-9.5-5.4-15.2
			c1.6-5.5,6.5-4.7,8-0.8l-6.3,6.3c0.2,0.6,0.5,4.6,3.7,5.5c2.3,0.8,4.2-1.6,4.9-4.4c0.3-1.8,0.5-4,0-6.5c-0.3-3-2.1-5.1-4.4-6.1
			c11-7.7,18.5-14.2,26.1-26.1c3.2,0.6,5.2,1.4,7.9,3.6c-7.3,8.5-22.4,24.5-27.4,24.5c0,1.2,0.5,11.3-0.2,14.8
			C981.3,181,981,182.2,980.3,183z M977.8,170.7c0.2,2.2,0,4.9-1.2,6.3c-1.2,1.8-2.8,0-3.3-1.8L977.8,170.7z"/>
		<path class="st21" d="M1010.5,178c0,0-1.2-4.1-3.3-7.1s-6.1-4.7-6.1-4.7s2.6,3.2,3.7,7.7c1.2,4.5,1.4,6.5,1.4,6.5l-2.4-1.4l-1.9,4
			c0,0,0.9-5.3-1.2-10.1c-1.9-4.7-3.3-6.1-3.3-6.1c0.5-8.5-3.2-13-10.7-13.6l5.6-5.7c6.6-0.2,10.5,7.9,9.8,14.8
			c5.1,3.2,9.8,7.7,14,12.1l-3.8,0.8L1010.5,178z"/>
	</g>
	<rect x="951.9" y="191.6" class="st2" width="92.4" height="17.8"/>
	<text transform="matrix(1.0255 0 0 1 951.9551 205.1061)" class="st3 st18">$769.679</text>
</g>
<g>
	<g>
		<path d="M1248.6,269.2c-0.5,0.6-1.2,1.4-2.1,2.4c-3.8-3.6-7.5-4.2-10.3-4.5c-8,13-17,20.6-28.8,28.7c-0.3,0-0.7,0.2-1.1,0.4
			c-2.1,1.4-3,3.8-3.5,6.7c-1.2,6.7,0.9,14.8,7.2,16.2c3.7,0.8,6.1,0.2,7.7-1.8c1.2-1.4,6.5-7.5,13.3-14.6
			c7.7-7.9,17-15.4,20.8-18.6c3.5-3,2.8-7.7,0.3-11.3c-0.9-1.4-2.1-2.6-3.3-3.4L1248.6,269.2z M1219.4,311.9
			c0.5-3.6,0.3-10.3,0.2-12.5c0.9-0.4,2.6-1.6,5.8-4c8.9-6.7,16.1-14.6,23.4-23.3c2.6,2.4,4.9,7.3,1.8,10.1
			c-3.7,3-13.5,10.9-21,18.6C1225.6,305.2,1221.9,309.1,1219.4,311.9z M1216.1,315.7c-1.1,1.4-2.8,1.8-5.6,1.2
			c-5.8-1.4-7-9.5-5.4-15.2c1.6-5.5,6.5-4.7,8-0.8l-6.3,6.3c0.2,0.6,0.5,4.5,3.7,5.5c2.3,0.8,4.2-1.6,4.9-4.3c0.3-1.8,0.5-4,0-6.5
			c-0.3-3-2.1-5.1-4.4-6.1c11-7.7,18.5-14.2,26.1-26.1c3.2,0.6,5.2,1.4,7.9,3.6c-7.3,8.5-22.4,24.5-27.4,24.5
			c0,1.2,0.5,11.3-0.2,14.8C1217.2,313.7,1216.8,314.9,1216.1,315.7z M1213.7,303.4c0.2,2.2,0,4.9-1.2,6.3c-1.2,1.8-2.8,0-3.3-1.8
			L1213.7,303.4z"/>
		<path class="st21" d="M1246.4,310.7c0,0-1.2-4.2-3.3-7.1s-6.1-4.7-6.1-4.7s2.6,3.2,3.7,7.7c1.2,4.5,1.4,6.5,1.4,6.5l-2.4-1.4
			l-1.9,4c0,0,0.9-5.3-1.2-10.1c-1.9-4.7-3.3-6.1-3.3-6.1c0.5-8.5-3.2-13-10.7-13.6l5.6-5.7c6.6-0.2,10.5,7.9,9.8,14.8
			c5.1,3.2,9.8,7.7,14,12.1l-3.8,0.8L1246.4,310.7z"/>
	</g>
	<rect x="1181.3" y="327.3" class="st2" width="109" height="19.1"/>
	<text transform="matrix(1.0255 0 0 1 1181.3301 340.8131)" class="st3 st18">$936.833</text>
</g>
<g>
	<rect x="371.8" y="195.4" class="st2" width="99.6" height="21.9"/>
	<text transform="matrix(1.0255 0 0 1 371.7686 208.9703)" class="st3 st18">$306.707</text>
	<path class="st19" d="M429.3,176.1c-0.6-0.4-1.3-0.6-2.1-0.5c-0.4,0-0.8,0.2-1.1,0.4l3.6,1.9c-1.1,1.6-2,3.3-2.9,5.1
		c-0.6,1.2-1.1,2.6-1.5,4c-0.3,1.1-0.5,2.3-0.4,3.5c1.7-0.5,3.5-2.9,4.7-5.8c0.8-1.8,1.2-3.9,1.2-6.1
		C430.6,177.5,430,176.6,429.3,176.1z"/>
	<path class="st19" d="M405.1,153v7.4l19.9,9.1l0,0c1.5,0,3-0.1,4.5-0.3c3.9-0.7,6.4-2.1,6.4-3.6v-12.2l-12.2,5.3L405.1,153z"/>
	<polygon class="st19" points="419.2,137.6 392.8,146.8 405.1,150.5 423.6,156.2 435.9,150.8 449.4,145 	"/>
	<path class="st19" d="M423.1,187.8c0-0.2,0-0.3,0.1-0.5s0.1-0.4,0.1-0.6v-0.1c0.5-1.7,1-3.3,1.8-4.8c0.4-1,0.9-1.9,1.5-2.8v-0.1
		l-2.4-1.2c-0.6,0.8-1,1.6-1.4,2.6c-0.5,1.2-1,2.4-1.3,3.7l-28.1-16l-0.2,1c-0.2,1.5-0.2,3,0.6,3.5l29.6,18
		C423.1,189.9,423,189,423.1,187.8z"/>
	<path class="st19" d="M421.2,179.1c1.7-4.1,4.6-6.5,6.9-5.7H428l-30.9-14.1c-1.2-0.6-2.8,1-3.7,3.8c-0.2,0.6-0.4,1.3-0.5,1.9
		l27.8,15.8C420.8,180.2,421,179.6,421.2,179.1z"/>
</g>
</svg>
