<?xml version="1.0" encoding="utf-8"?>
<!-- Generator: Adobe Illustrator 24.2.3, SVG Export Plug-In . SVG Version: 6.00 Build 0)  -->
<svg version="1.1" id="Capa_1" xmlns="http://www.w3.org/2000/svg" xmlns:xlink="http://www.w3.org/1999/xlink" x="0px" y="0px"
	 viewBox="0 0 1500.4 403" style="enable-background:new 0 0 1500.4 403;" xml:space="preserve">
<style type="text/css">
	.st0{fill:#DCF4F3;fill-opacity:0.8;stroke:#416190;stroke-width:5;stroke-miterlimit:5.83;}
	.st1{fill:none;stroke:#000000;stroke-width:3.0401;stroke-miterlimit:10;}
	.st2{fill:none;}
	.st3{font-family:'Optima-Bold';}
	.st4{font-size:16px;}
	.st5{letter-spacing:27.6;}
	.st6{letter-spacing:9.2;}
	.st7{fill:#FF0000;}
	.st8{font-size:21px;}
	.st9{font-family:'Verdana-Bold';}
	.st10{font-family:'Optima-Regular';}
	.st11{fill:none;stroke:#000000;stroke-width:0.25;stroke-miterlimit:10;}
	.st12{font-size:12.243px;}
	.st13{fill:#FCEE21;}
	.st14{font-size:16.6514px;}
	.st15{fill:#FF0000;stroke:#FF0000;stroke-width:1.3664;stroke-miterlimit:10;}
	.st16{font-size:18.9273px;}
	.st17{fill:#FF0000;stroke:#FF0000;stroke-width:1.3343;stroke-miterlimit:10;}
	.st18{font-size:18px;}
	.st19{fill:#FF0000;stroke:#FF0000;stroke-width:0.2169;stroke-miterlimit:10;}
	.st20{fill:#FF0000;stroke:#FF0000;stroke-width:0.1414;stroke-miterlimit:10;}
	.st21{fill-rule:evenodd;clip-rule:evenodd;}
</style>
<rect x="3.1" y="0.1" class="st0" width="1495.5" height="405.2"/>
<rect x="92" y="226.5" class="st1" width="1385.4" height="21.3"/>
<rect x="105.9" y="230.8" class="st2" width="1371.8" height="36.8"/>
<text transform="matrix(0.9794 0 0 1 105.9208 242.8815)" class="st3 st4">$100.000</text>
<text transform="matrix(0.9794 0 0 1 171.2656 242.8815)" class="st3 st4 st5"> </text>
<text transform="matrix(0.9794 0 0 1 203.7724 242.8815)" class="st3 st4 st5"> </text>
<text transform="matrix(0.9794 0 0 1 236.3867 242.8815)" class="st3 st4">$200.000</text>
<text transform="matrix(0.9794 0 0 1 301.7309 242.8815)" class="st3 st4 st5"> </text>
<text transform="matrix(0.9794 0 0 1 334.2377 242.8815)" class="st3 st4 st5"> </text>
<text transform="matrix(0.9794 0 0 1 366.852 242.8815)" class="st3 st4">$300.000</text>
<text transform="matrix(0.9794 0 0 1 432.1977 242.8815)" class="st3 st4 st5"> </text>
<text transform="matrix(0.9794 0 0 1 464.7036 242.8815)" class="st3 st4 st5"> </text>
<text transform="matrix(0.9794 0 0 1 497.3178 242.8815)" class="st3 st4">$400.000</text>
<text transform="matrix(0.9794 0 0 1 562.6635 242.8815)" class="st3 st4 st5"> </text>
<text transform="matrix(0.9794 0 0 1 595.1694 242.8815)" class="st3 st4 st5"> </text>
<text transform="matrix(0.9794 0 0 1 627.7934 242.8815)" class="st3 st4">$500.000</text>
<text transform="matrix(0.9794 0 0 1 693.1391 242.8815)" class="st3 st4 st5"> </text>
<text transform="matrix(0.9794 0 0 1 725.6352 242.8815)" class="st3 st4 st5"> </text>
<text transform="matrix(0.9794 0 0 1 758.2592 242.8815)" class="st3 st4">$600.000</text>
<text transform="matrix(0.9794 0 0 1 823.6049 242.8815)" class="st3 st4 st5"> </text>
<text transform="matrix(0.9794 0 0 1 856.1108 242.8815)" class="st3 st4 st5"> </text>
<text transform="matrix(0.9794 0 0 1 888.725 242.8815)" class="st3 st4">$700.000</text>
<text transform="matrix(0.9794 0 0 1 954.0707 242.8815)" class="st3 st4 st5"> </text>
<text transform="matrix(0.9794 0 0 1 986.5766 242.8815)" class="st3 st4 st5"> </text>
<text transform="matrix(0.9794 0 0 1 1019.1909 242.8815)" class="st3 st4">$800.000</text>
<text transform="matrix(0.9794 0 0 1 1084.5365 242.8815)" class="st3 st4 st5"> </text>
<text transform="matrix(0.9794 0 0 1 1117.0424 242.8815)" class="st3 st4 st5"> </text>
<text transform="matrix(0.9794 0 0 1 1149.6566 242.8815)" class="st3 st4">$900.000</text>
<text transform="matrix(0.9794 0 0 1 1215.0023 242.8815)" class="st3 st4 st5"> </text>
<text transform="matrix(0.9794 0 0 1 1247.5082 242.8815)" class="st3 st4 st5"> </text>
<text transform="matrix(0.9794 0 0 1 1280.1224 242.8815)" class="st3 st4">$1.000.000 </text>
<text transform="matrix(0.9794 0 0 1 1362.892 242.8815)" class="st3 st4 st6"> </text>
<text transform="matrix(0.9794 0 0 1 1377.974 242.8815)" class="st3 st4 st5"> </text>
<text transform="matrix(0.9794 0 0 1 1410.5883 242.8815)" class="st3 st4">   +++</text>
<path class="st7" d="M536.7,147.5H533c-0.6-2.3-1.4-4.2-2.8-6.1l3.2-3.1c0.2-0.2,0.4-0.6,0.4-0.8c0-0.4-0.2-0.6-0.4-0.8l-4.1-4
	c-0.4-0.4-1.2-0.4-1.8,0l-3.2,3.1c-1.8-1.2-3.7-1.9-5.7-2.5v-4c0-0.6-0.6-1.2-1.2-1.2h-5.9c-0.6,0-1.2,0.6-1.2,1.2v3.9
	c-2.2,0.4-4.1,1.3-5.9,2.3l-3.4-3.3c-0.4-0.4-1.2-0.4-1.8,0l-4.1,4c-0.2,0.2-0.4,0.6-0.4,0.8s0.2,0.6,0.4,0.8l3.4,3.3
	c-1.2,1.9-2.2,4-2.8,6.4h-3.8c-0.6,0-1.2,0.6-1.2,1.2v5.8c0,0.6,0.6,1.2,1.2,1.2h3.7c0.3,2,1.3,3.7,2.1,5.4l3-3.6
	c-0.8-1.8-1.3-3.8-1.3-5.9c0-8,6.6-14.5,14.8-14.5s14.8,6.5,14.8,14.5s-6.6,14.5-14.8,14.5c-1.4,0-2.9-0.2-4.2-0.6l-2.9,3.4
	c0.9,0.3,1.9,0.6,2.9,0.8v3.3c0,0.6,0.6,1.2,1.2,1.2h5.9c0.6,0,1.2-0.6,1.2-1.2v-3.5c2.3-0.6,4.3-1.3,6.3-2.7l2.6,2.5
	c0.2,0.2,0.6,0.4,0.8,0.4s0.6-0.2,0.8-0.4l4.1-4c0.2-0.2,0.4-0.6,0.4-0.8c0-0.4-0.2-0.6-0.4-0.8l-2.6-2.5c1.2-1.7,2-3.6,2.3-5.8h3.7
	c0.6,0,1.2-0.6,1.2-1.2v-5.8C537.9,148.1,537.5,147.5,536.7,147.5z"/>
<path class="st7" d="M526.1,150.1c-0.2-1.8-0.8-3.6-2-5.2l-7.2,8.3l-4.7-3.8l7.2-8.2c-1.7-0.7-3.4-1-5.2-0.8
	c-6,0.5-10.5,5.7-10,11.6c0.1,1.2,0.4,2.4,0.9,3.5l0.1,0.1l-17.4,20.1c-0.7,0.8-1.1,2-1,3.1s0.6,2.1,1.5,2.8s2,1.1,3.2,1
	c1.1-0.1,2.2-0.6,2.9-1.5l17.2-19.8l0.2,0.1c1.4,0.5,2.9,0.6,4.4,0.5C522.1,161.2,526.6,156,526.1,150.1z M491.3,179.5
	c-0.9,0.1-1.5-0.6-1.6-1.3c-0.1-0.8,0.6-1.5,1.4-1.6c0.9-0.1,1.5,0.6,1.6,1.3C492.7,178.7,492.1,179.5,491.3,179.5z"/>
<rect x="764.9" y="370.7" class="st2" width="92" height="32.3"/>
<text transform="matrix(0.9794 0 0 1 764.9379 386.4479)" class="st3 st8">$616.393</text>
<rect x="583" y="13.3" class="st2" width="439.9" height="108.7"/>
<text transform="matrix(1 0 0 1 674.0342 29.0913)" class="st3 st8"> </text>
<text transform="matrix(1 0 0 1 679.8342 29.0913)" class="st9 st8">ARICA Y PARINACOTA XV</text>
<text transform="matrix(1 0 0 1 572.8228 79.4912)" class="st9 st8">Población: </text>
<text transform="matrix(1 0 0 1 700.5532 79.4912)" class="st10 st8">226.068 </text>
<text transform="matrix(1 0 0 1 700.5532 79.4912)" class="st11 st10 st8">226.068 </text>
<text transform="matrix(1 0 0 1 782.2837 79.4912)" class="st9 st8">Superficie:</text>
<text transform="matrix(1 0 0 1 904.9327 79.4912)" class="st10 st8"> 16.873,3 km</text>
<text transform="matrix(1 0 0 1 1026.0243 66.1585)" class="st10 st12">2</text>
<rect x="809.1" y="118" class="st13" width="4.5" height="244"/>
<rect x="9.4" y="170.5" class="st2" width="105.4" height="23.7"/>
<text transform="matrix(0.9794 0 0 1 9.371 182.4528)" class="st9 st14">MUJERES</text>
<rect x="9.4" y="292" class="st2" width="96.2" height="26"/>
<text transform="matrix(0.9794 0 0 1 9.371 303.8971)" class="st9 st14">HOMBRES</text>
<rect x="208.4" y="54.8" class="st2" width="80.5" height="23.3"/>
<g>
	<g>
		<path class="st15" d="M433.9,288.2h-13.8c-1.7,0-3.2,1.7-3.2,3.8v16.6c0,2.1,1.4,3.8,3.2,3.8h13.8c1.7,0,3.2-1.7,3.2-3.8V292
			C437.1,289.9,435.6,288.2,433.9,288.2z M436,308.6c0,1.4-0.9,2.5-2,2.5h-13.9c-1.1,0-2-1.1-2-2.5V292c0-1.4,0.9-2.5,2-2.5h13.8
			c1.1,0,2,1.1,2,2.5v16.6H436z"/>
		<path class="st15" d="M429.3,299.2c1-0.5,1.5-1.2,1.5-2.6c0-1.8-1-3.2-3.6-3.2h-3.9v12.2h4.4c2.6,0,3.7-1.6,3.7-3.4
			C431.4,300.6,430.6,299.5,429.3,299.2z M425,295.2h2.2c1.1,0,1.8,0.3,1.8,1.6c0,1-0.6,1.5-1.8,1.5H425V295.2L425,295.2z
			 M427.7,303.6H425v-3.3h2.5c1.4,0,2.2,0.5,2.2,1.6C429.6,303.3,428.9,303.6,427.7,303.6z"/>
		<path class="st15" d="M445.6,286.3c1.7,0,3.2-1.7,3.2-3.8v-16.6c0-2.1-1.4-3.8-3.2-3.8h-13.8c-1.7,0-3.2,1.7-3.2,3.8v16.6
			c0,2.1,1.4,3.8,3.2,3.8H445.6L445.6,286.3z M429.7,282.5v-16.6c0-1.4,0.9-2.5,2-2.5h13.8c1.1,0,2,1.1,2,2.5v16.6
			c0,1.4-0.9,2.5-2,2.5h-13.8C430.6,285,429.7,283.9,429.7,282.5z"/>
		<path class="st15" d="M436.1,276.6h5.1l1,2.8h1.8l-4.5-12.2h-1.8l-4.5,12.2h1.8L436.1,276.6z M438.7,269.7l1.8,5h-3.7L438.7,269.7
			z"/>
		<path class="st15" d="M457.3,288.2h-13.8c-1.7,0-3.2,1.7-3.2,3.8v16.6c0,2.1,1.4,3.8,3.2,3.8h13.8c1.7,0,3.2-1.7,3.2-3.8V292
			C460.5,289.9,459,288.2,457.3,288.2z M459.4,308.6c0,1.4-0.9,2.5-2,2.5h-13.8c-1.1,0-2-1.1-2-2.5V292c0-1.4,0.9-2.5,2-2.5h13.8
			c1.1,0,2,1.1,2,2.5V308.6L459.4,308.6z"/>
		<path class="st15" d="M451.2,295c1.2,0,2,0.5,2.9,1.5l1.1-1.4c-1-1.4-2.4-2.1-3.9-2.1c-3.2,0-5.4,2.7-5.4,6.3
			c0,3.7,2.3,6.3,5.3,6.3c1.5,0,2.8-0.7,3.9-2.1l-1.1-1.4c-1,1.2-1.8,1.5-2.8,1.5c-1.8,0-3.5-1.8-3.5-4.3
			C447.6,296.7,449.2,295,451.2,295z"/>
	</g>
	<rect x="399.6" y="319.9" class="st2" width="84.1" height="25.4"/>
	<text transform="matrix(0.9484 0 0 1 399.5942 334.1461)" class="st3 st16">$336.657</text>
</g>
<g>
	<g>
		<path class="st17" d="M304.8,163.8H291c-1.7,0-3.2,1.6-3.2,3.6v15.8c0,2,1.4,3.6,3.2,3.6h13.8c1.7,0,3.2-1.6,3.2-3.6v-15.8
			C308,165.4,306.5,163.8,304.8,163.8z M306.9,183.2c0,1.3-0.9,2.3-2.1,2.3H291c-1.1,0-2.1-1.1-2.1-2.3v-15.8c0-1.3,0.9-2.4,2.1-2.4
			h13.8c1.1,0,2.1,1.1,2.1,2.4V183.2L306.9,183.2z"/>
		<path class="st17" d="M300.2,174.2c1-0.5,1.5-1.1,1.5-2.5c0-1.7-1-3.1-3.6-3.1h-4v11.6h4.4c2.6,0,3.7-1.5,3.7-3.2
			C302.3,175.5,301.4,174.5,300.2,174.2z M295.9,170.5h2.2c1.1,0,1.8,0.3,1.8,1.6c0,1-0.6,1.4-1.9,1.4h-2.2L295.9,170.5L295.9,170.5
			z M298.6,178.4h-2.7v-3.2h2.5c1.4,0,2.2,0.5,2.2,1.5C300.5,178.1,299.7,178.4,298.6,178.4z"/>
		<path class="st17" d="M316.5,162c1.7,0,3.2-1.6,3.2-3.6v-15.8c0-2-1.4-3.6-3.2-3.6h-13.8c-1.7,0-3.2,1.6-3.2,3.6v15.8
			c0,2,1.4,3.6,3.2,3.6H316.5L316.5,162z M300.6,158.4v-15.8c0-1.3,0.9-2.4,2.1-2.4h13.8c1.1,0,2.1,1.1,2.1,2.4v15.8
			c0,1.3-0.9,2.4-2.1,2.4h-13.8C301.5,160.7,300.6,159.7,300.6,158.4z"/>
		<path class="st17" d="M307,152.8h5.1l1,2.6h1.8l-4.5-11.6h-1.8l-4.5,11.6h1.8L307,152.8z M309.6,146.2l1.8,4.8h-3.7L309.6,146.2z"
			/>
		<path class="st17" d="M328.3,163.8h-13.8c-1.7,0-3.2,1.6-3.2,3.6v15.8c0,2,1.4,3.6,3.2,3.6h13.8c1.7,0,3.2-1.6,3.2-3.6v-15.8
			C331.4,165.4,330,163.8,328.3,163.8z M330.3,183.2c0,1.3-0.9,2.3-2.1,2.3h-13.8c-1.1,0-2.1-1.1-2.1-2.3v-15.8
			c0-1.3,0.9-2.4,2.1-2.4h13.8c1.1,0,2.1,1.1,2.1,2.4V183.2L330.3,183.2z"/>
		<path class="st17" d="M322.2,170.3c1.2,0,2,0.4,2.9,1.4l1.1-1.4c-1-1.3-2.4-2-3.9-2c-3.2,0-5.5,2.6-5.5,6c0,3.5,2.3,6,5.3,6
			c1.5,0,2.8-0.7,3.9-2l-1.1-1.3c-1,1.1-1.8,1.4-2.9,1.4c-1.8,0-3.5-1.7-3.5-4.1C318.5,171.9,320.2,170.3,322.2,170.3z"/>
	</g>
	<rect x="264.8" y="193.4" class="st2" width="93.1" height="18.8"/>
	<text transform="matrix(1.0255 0 0 1 264.8417 206.8922)" class="st3 st18">$235.927</text>
</g>
<g>
	<path class="st19" d="M573.9,301.3c-0.6-0.4-1.3-0.6-2.1-0.5c-0.4,0-0.8,0.2-1.1,0.4l3.6,1.8c-1.1,1.6-2,3.3-2.9,5.1
		c-0.6,1.2-1.1,2.6-1.5,4c-0.3,1.1-0.5,2.3-0.4,3.5c1.7-0.5,3.5-2.9,4.7-5.8c0.8-1.8,1.2-3.9,1.2-6.1
		C575.3,302.7,574.7,301.7,573.9,301.3z"/>
	<path class="st19" d="M549.7,278.1v7.4l19.9,9.1l0,0c1.5,0,3-0.1,4.5-0.3c3.9-0.7,6.4-2.1,6.4-3.6v-12.2l-12.2,5.3L549.7,278.1z"/>
	<polygon class="st19" points="563.8,262.8 537.5,272 549.7,275.7 568.3,281.3 580.6,276 594.1,270.1 	"/>
	<path class="st19" d="M567.8,313c0-0.2,0-0.3,0.1-0.5s0.1-0.4,0.1-0.6v-0.1c0.5-1.7,1-3.3,1.8-4.8c0.4-1,0.9-1.9,1.5-2.8v-0.1
		l-2.4-1.2c-0.6,0.8-1,1.6-1.4,2.6c-0.5,1.2-1,2.4-1.3,3.7L538.1,293l-0.2,1c-0.2,1.5-0.2,3,0.6,3.5l29.6,18
		C567.7,315,567.6,314.2,567.8,313z"/>
	<path class="st19" d="M565.9,304.2c1.7-4.1,4.6-6.5,6.9-5.7h-0.1l-30.9-14.1c-1.2-0.6-2.8,1-3.7,3.8c-0.2,0.6-0.4,1.3-0.5,1.9
		l27.8,15.8C565.5,305.3,565.7,304.8,565.9,304.2z"/>
	<rect x="526.9" y="322" class="st2" width="100" height="21"/>
	<text transform="matrix(1.0255 0 0 1 526.9321 335.5563)" class="st3 st18">$431.550</text>
</g>
<rect x="462.2" y="192.6" class="st2" width="103.7" height="22.3"/>
<text transform="matrix(1.0255 0 0 1 462.2192 206.11)" class="st3 st18">$393.183</text>
<g>
	<path class="st20" d="M769.7,277.3H766c-0.6-2.3-1.4-4.2-2.8-6.2l3.2-3.1c0.2-0.2,0.4-0.6,0.4-0.8c0-0.4-0.2-0.6-0.4-0.8l-4.1-4
		c-0.4-0.4-1.2-0.4-1.8,0l-3.2,3.1c-1.8-1.2-3.7-1.9-5.7-2.5v-4c0-0.6-0.6-1.2-1.2-1.2h-5.9c-0.6,0-1.2,0.6-1.2,1.2v3.9
		c-2.2,0.4-4.1,1.3-5.9,2.3l-3.4-3.3c-0.4-0.4-1.2-0.4-1.8,0l-4.1,4c-0.2,0.2-0.4,0.6-0.4,0.8c0,0.2,0.2,0.6,0.4,0.8l3.4,3.3
		c-1.2,1.9-2.2,4-2.8,6.4h-3.8c-0.6,0-1.2,0.6-1.2,1.2v5.8c0,0.6,0.6,1.2,1.2,1.2h3.7c0.3,2,1.3,3.7,2.1,5.4l3-3.6
		c-0.8-1.8-1.3-3.8-1.3-5.9c0-8,6.6-14.5,14.8-14.5s14.8,6.5,14.8,14.5s-6.6,14.5-14.8,14.5c-1.4,0-2.9-0.2-4.2-0.6l-2.9,3.3
		c0.9,0.3,1.9,0.6,2.9,0.8v3.3c0,0.6,0.6,1.2,1.2,1.2h5.9c0.6,0,1.2-0.6,1.2-1.2v-3.5c2.3-0.6,4.3-1.3,6.3-2.7l2.6,2.5
		c0.2,0.2,0.6,0.4,0.8,0.4s0.6-0.2,0.8-0.4l4.1-4c0.2-0.2,0.4-0.6,0.4-0.8c0-0.4-0.2-0.6-0.4-0.8l-2.6-2.5c1.2-1.7,2-3.6,2.3-5.8
		h3.7c0.6,0,1.2-0.6,1.2-1.2V278C770.9,277.9,770.5,277.3,769.7,277.3z"/>
	<path class="st20" d="M759,280c-0.2-1.8-0.8-3.6-2-5.2l-7.2,8.3l-4.7-3.8l7.2-8.2c-1.7-0.7-3.4-1-5.2-0.8c-6,0.5-10.5,5.7-10,11.6
		c0.1,1.2,0.4,2.3,0.9,3.5l0.1,0.1l-17.4,20.1c-0.7,0.8-1.1,2-1,3.1s0.6,2.1,1.5,2.8s2,1.1,3.2,1c1.1-0.1,2.2-0.6,2.9-1.5l17.2-19.8
		l0.2,0.1c1.4,0.5,2.9,0.6,4.4,0.5C755,291.1,759.5,285.9,759,280z M724.2,309.3c-0.9,0.1-1.5-0.6-1.6-1.3c-0.1-0.8,0.6-1.5,1.4-1.6
		c0.9-0.1,1.5,0.6,1.6,1.3C725.7,308.6,725.1,309.3,724.2,309.3z"/>
	<rect x="702.9" y="321.4" class="st2" width="86.8" height="19.6"/>
	<text transform="matrix(1.0255 0 0 1 702.9321 334.943)" class="st3 st18">$573.913</text>
</g>
<g>
	<g>
		<path d="M1013.4,134.1c-0.5,0.6-1.2,1.4-2.1,2.4c-3.8-3.6-7.5-4.1-10.3-4.5c-8,13-17,20.6-28.8,28.7c-0.3,0-0.7,0.2-1.1,0.4
			c-2.1,1.4-3,3.8-3.5,6.7c-1.2,6.7,0.9,14.8,7.2,16.2c3.7,0.8,6.1,0.2,7.7-1.8c1.2-1.4,6.5-7.5,13.3-14.6
			c7.7-7.9,17-15.4,20.8-18.6c3.5-3,2.8-7.7,0.3-11.3c-0.9-1.4-2.1-2.6-3.3-3.4L1013.4,134.1z M984.2,176.8
			c0.5-3.6,0.3-10.3,0.2-12.5c0.9-0.4,2.6-1.6,5.8-4c8.9-6.7,16.1-14.6,23.4-23.3c2.6,2.4,4.9,7.3,1.8,10.1
			c-3.7,3-13.5,10.9-21,18.6C990.3,170.1,986.7,174,984.2,176.8z M980.9,180.6c-1.1,1.4-2.8,1.8-5.6,1.2c-5.8-1.4-7-9.5-5.4-15.2
			c1.6-5.5,6.5-4.7,8-0.8l-6.3,6.3c0.2,0.6,0.5,4.6,3.7,5.5c2.3,0.8,4.2-1.6,4.9-4.4c0.3-1.8,0.5-4,0-6.5c-0.3-3-2.1-5.1-4.4-6.1
			c11-7.7,18.5-14.2,26.1-26.1c3.2,0.6,5.2,1.4,7.9,3.6c-7.3,8.5-22.4,24.5-27.4,24.5c0,1.2,0.5,11.3-0.2,14.8
			C981.9,178.6,981.6,179.8,980.9,180.6z M978.4,168.3c0.2,2.2,0,4.9-1.2,6.3c-1.2,1.8-2.8,0-3.3-1.8L978.4,168.3z"/>
		<path class="st21" d="M1011.1,175.6c0,0-1.2-4.1-3.3-7.1s-6.1-4.7-6.1-4.7s2.6,3.2,3.7,7.7c1.2,4.5,1.4,6.5,1.4,6.5l-2.4-1.4
			l-1.9,4c0,0,0.9-5.3-1.2-10.1c-1.9-4.7-3.3-6.1-3.3-6.1c0.5-8.5-3.2-13-10.7-13.6l5.6-5.7c6.6-0.2,10.5,7.9,9.8,14.8
			c5.1,3.2,9.8,7.7,14,12.1l-3.8,0.8L1011.1,175.6z"/>
	</g>
	<rect x="952.5" y="189.2" class="st2" width="92.4" height="17.8"/>
	<text transform="matrix(1.0255 0 0 1 952.5571 202.7106)" class="st3 st18">$769.679</text>
</g>
<g>
	<g>
		<path d="M1249.2,266.8c-0.5,0.6-1.2,1.4-2.1,2.4c-3.8-3.6-7.5-4.2-10.3-4.5c-8,13-17,20.6-28.8,28.7c-0.3,0-0.7,0.2-1.1,0.4
			c-2.1,1.4-3,3.8-3.5,6.7c-1.2,6.7,0.9,14.8,7.2,16.2c3.7,0.8,6.1,0.2,7.7-1.8c1.2-1.4,6.5-7.5,13.3-14.6
			c7.7-7.9,17-15.4,20.8-18.6c3.5-3,2.8-7.7,0.3-11.3c-0.9-1.4-2.1-2.6-3.3-3.4L1249.2,266.8z M1220,309.5
			c0.5-3.6,0.3-10.3,0.2-12.5c0.9-0.4,2.6-1.6,5.8-4c8.9-6.7,16.1-14.6,23.4-23.3c2.6,2.4,4.9,7.3,1.8,10.1
			c-3.7,3-13.5,10.9-21,18.6C1226.2,302.8,1222.5,306.7,1220,309.5z M1216.7,313.3c-1.1,1.4-2.8,1.8-5.6,1.2
			c-5.8-1.4-7-9.5-5.4-15.2c1.6-5.5,6.5-4.7,8-0.8l-6.3,6.3c0.2,0.6,0.5,4.5,3.7,5.5c2.3,0.8,4.2-1.6,4.9-4.3c0.3-1.8,0.5-4,0-6.5
			c-0.3-3-2.1-5.1-4.4-6.1c11-7.7,18.5-14.2,26.1-26.1c3.2,0.6,5.2,1.4,7.9,3.6c-7.3,8.5-22.4,24.5-27.4,24.5
			c0,1.2,0.5,11.3-0.2,14.8C1217.8,311.3,1217.4,312.5,1216.7,313.3z M1214.3,301c0.2,2.2,0,4.9-1.2,6.3c-1.2,1.8-2.8,0-3.3-1.8
			L1214.3,301z"/>
		<path class="st21" d="M1247,308.3c0,0-1.2-4.2-3.3-7.1s-6.1-4.7-6.1-4.7s2.6,3.2,3.7,7.7c1.2,4.5,1.4,6.5,1.4,6.5l-2.4-1.4l-1.9,4
			c0,0,0.9-5.3-1.2-10.1c-1.9-4.7-3.3-6.1-3.3-6.1c0.5-8.5-3.2-13-10.7-13.6l5.6-5.7c6.6-0.2,10.5,7.9,9.8,14.8
			c5.1,3.2,9.8,7.7,14,12.1l-3.8,0.8L1247,308.3z"/>
	</g>
	<rect x="1181.9" y="324.9" class="st2" width="109" height="19.1"/>
	<text transform="matrix(1.0255 0 0 1 1181.932 338.4176)" class="st3 st18">$936.833</text>
</g>
<g>
	<rect x="372.4" y="193" class="st2" width="99.6" height="21.9"/>
	<text transform="matrix(1.0255 0 0 1 372.3696 206.5748)" class="st3 st18">$306.707</text>
	<path class="st19" d="M429.9,173.7c-0.6-0.4-1.3-0.6-2.1-0.5c-0.4,0-0.8,0.2-1.1,0.4l3.6,1.9c-1.1,1.6-2,3.3-2.9,5.1
		c-0.6,1.2-1.1,2.6-1.5,4c-0.3,1.1-0.5,2.3-0.4,3.5c1.7-0.5,3.5-2.9,4.7-5.8c0.8-1.8,1.2-3.9,1.2-6.1
		C431.2,175.1,430.6,174.2,429.9,173.7z"/>
	<path class="st19" d="M405.7,150.6v7.4l19.9,9.1l0,0c1.5,0,3-0.1,4.5-0.3c3.9-0.7,6.4-2.1,6.4-3.6V151l-12.2,5.3L405.7,150.6z"/>
	<polygon class="st19" points="419.8,135.2 393.4,144.4 405.7,148.1 424.2,153.8 436.5,148.4 450,142.6 	"/>
	<path class="st19" d="M423.7,185.4c0-0.2,0-0.3,0.1-0.5s0.1-0.4,0.1-0.6v-0.1c0.5-1.7,1-3.3,1.8-4.8c0.4-1,0.9-1.9,1.5-2.8v-0.1
		l-2.4-1.2c-0.6,0.8-1,1.6-1.4,2.6c-0.5,1.2-1,2.4-1.3,3.7l-28.1-16l-0.2,1c-0.2,1.5-0.2,3,0.6,3.5l29.6,18
		C423.7,187.5,423.6,186.6,423.7,185.4z"/>
	<path class="st19" d="M421.8,176.7c1.7-4.1,4.6-6.5,6.9-5.7h-0.1l-30.9-14.1c-1.2-0.6-2.8,1-3.7,3.8c-0.2,0.6-0.4,1.3-0.5,1.9
		l27.8,15.8C421.4,177.8,421.6,177.2,421.8,176.7z"/>
</g>
</svg>
