<?xml version="1.0" encoding="utf-8"?>
<!-- Generator: Adobe Illustrator 24.2.3, SVG Export Plug-In . SVG Version: 6.00 Build 0)  -->
<svg version="1.1" id="Capa_1" xmlns="http://www.w3.org/2000/svg" xmlns:xlink="http://www.w3.org/1999/xlink" x="0px" y="0px"
	 viewBox="0 0 1500.4 410.1" style="enable-background:new 0 0 1500.4 410.1;" xml:space="preserve">
<style type="text/css">
	.st0{fill:#DCF4F3;fill-opacity:0.8;stroke:#416190;stroke-width:5;stroke-miterlimit:5.83;}
	.st1{fill:none;stroke:#000000;stroke-width:3.0401;stroke-miterlimit:10;}
	.st2{fill:none;}
	.st3{font-family:'Optima-Bold';}
	.st4{font-size:16px;}
	.st5{letter-spacing:27.6;}
	.st6{letter-spacing:9.2;}
	.st7{fill:#FF0000;}
	.st8{font-size:21px;}
	.st9{font-family:'Verdana-Bold';}
	.st10{font-family:'Optima-Regular';}
	.st11{fill:none;stroke:#000000;stroke-width:0.25;stroke-miterlimit:10;}
	.st12{font-size:12.243px;}
	.st13{fill:#FCEE21;}
	.st14{font-size:16.6514px;}
	.st15{fill:#FF0000;stroke:#FF0000;stroke-width:1.3343;stroke-miterlimit:10;}
	.st16{font-size:18px;}
	.st17{fill:#FF0000;stroke:#FF0000;stroke-width:0.2169;stroke-miterlimit:10;}
	.st18{stroke:#000000;stroke-width:0.1414;stroke-miterlimit:10;}
	.st19{fill-rule:evenodd;clip-rule:evenodd;}
</style>
<rect x="2.4" y="2.4" class="st0" width="1495.5" height="405.2"/>
<rect x="91.7" y="228.7" class="st1" width="1385.4" height="21.3"/>
<rect x="105.6" y="233.1" class="st2" width="1371.8" height="36.8"/>
<text transform="matrix(0.9794 0 0 1 105.5443 245.0983)" class="st3 st4">$100.000</text>
<text transform="matrix(0.9794 0 0 1 170.89 245.0983)" class="st3 st4 st5"> </text>
<text transform="matrix(0.9794 0 0 1 203.3958 245.0983)" class="st3 st4 st5"> </text>
<text transform="matrix(0.9794 0 0 1 236.0101 245.0983)" class="st3 st4">$200.000</text>
<text transform="matrix(0.9794 0 0 1 301.3558 245.0983)" class="st3 st4 st5"> </text>
<text transform="matrix(0.9794 0 0 1 333.8617 245.0983)" class="st3 st4 st5"> </text>
<text transform="matrix(0.9794 0 0 1 366.4759 245.0983)" class="st3 st4">$300.000</text>
<text transform="matrix(0.9794 0 0 1 431.8216 245.0983)" class="st3 st4 st5"> </text>
<text transform="matrix(0.9794 0 0 1 464.3275 245.0983)" class="st3 st4 st5"> </text>
<text transform="matrix(0.9794 0 0 1 496.9417 245.0983)" class="st3 st4">$400.000</text>
<text transform="matrix(0.9794 0 0 1 562.2874 245.0983)" class="st3 st4 st5"> </text>
<text transform="matrix(0.9794 0 0 1 594.7943 245.0983)" class="st3 st4 st5"> </text>
<text transform="matrix(0.9794 0 0 1 627.4173 245.0983)" class="st3 st4">$500.000</text>
<text transform="matrix(0.9794 0 0 1 692.763 245.0983)" class="st3 st4 st5"> </text>
<text transform="matrix(0.9794 0 0 1 725.2591 245.0983)" class="st3 st4 st5"> </text>
<text transform="matrix(0.9794 0 0 1 757.8831 245.0983)" class="st3 st4">$600.000</text>
<text transform="matrix(0.9794 0 0 1 823.2288 245.0983)" class="st3 st4 st5"> </text>
<text transform="matrix(0.9794 0 0 1 855.7357 245.0983)" class="st3 st4 st5"> </text>
<text transform="matrix(0.9794 0 0 1 888.3489 245.0983)" class="st3 st4">$700.000</text>
<text transform="matrix(0.9794 0 0 1 953.6946 245.0983)" class="st3 st4 st5"> </text>
<text transform="matrix(0.9794 0 0 1 986.2015 245.0983)" class="st3 st4 st5"> </text>
<text transform="matrix(0.9794 0 0 1 1018.8148 245.0983)" class="st3 st4">$800.000</text>
<text transform="matrix(0.9794 0 0 1 1084.1605 245.0983)" class="st3 st4 st5"> </text>
<text transform="matrix(0.9794 0 0 1 1116.6674 245.0983)" class="st3 st4 st5"> </text>
<text transform="matrix(0.9794 0 0 1 1149.2806 245.0983)" class="st3 st4">$900.000</text>
<text transform="matrix(0.9794 0 0 1 1214.6263 245.0983)" class="st3 st4 st5"> </text>
<text transform="matrix(0.9794 0 0 1 1247.1332 245.0983)" class="st3 st4 st5"> </text>
<text transform="matrix(0.9794 0 0 1 1279.7474 245.0983)" class="st3 st4">$1.000.000 </text>
<text transform="matrix(0.9794 0 0 1 1362.516 245.0983)" class="st3 st4 st6"> </text>
<text transform="matrix(0.9794 0 0 1 1377.599 245.0983)" class="st3 st4 st5"> </text>
<text transform="matrix(0.9794 0 0 1 1410.2133 245.0983)" class="st3 st4">   +++</text>
<path class="st7" d="M557.4,149.8h-3.7c-0.6-2.3-1.4-4.2-2.8-6.1l3.2-3.1c0.2-0.2,0.4-0.6,0.4-0.8c0-0.4-0.2-0.6-0.4-0.8l-4.1-4
	c-0.4-0.4-1.2-0.4-1.8,0l-3.2,3.1c-1.8-1.2-3.7-1.9-5.7-2.5v-4c0-0.6-0.6-1.2-1.2-1.2h-5.9c-0.6,0-1.2,0.6-1.2,1.2v3.9
	c-2.2,0.4-4.1,1.3-5.9,2.3l-3.4-3.3c-0.4-0.4-1.2-0.4-1.8,0l-4.1,4c-0.2,0.2-0.4,0.6-0.4,0.8s0.2,0.6,0.4,0.8l3.4,3.3
	c-1.2,1.9-2.2,4-2.8,6.4h-3.8c-0.6,0-1.2,0.6-1.2,1.2v5.8c0,0.6,0.6,1.2,1.2,1.2h3.7c0.3,2,1.3,3.7,2.1,5.4l3-3.6
	c-0.8-1.8-1.3-3.8-1.3-5.9c0-8,6.6-14.5,14.8-14.5s14.8,6.5,14.8,14.5s-6.6,14.5-14.8,14.5c-1.4,0-2.9-0.2-4.2-0.6l-2.9,3.4
	c0.9,0.3,1.9,0.6,2.9,0.8v3.3c0,0.6,0.6,1.2,1.2,1.2h5.9c0.6,0,1.2-0.6,1.2-1.2v-3.5c2.3-0.6,4.3-1.3,6.3-2.7l2.6,2.5
	c0.2,0.2,0.6,0.4,0.8,0.4s0.6-0.2,0.8-0.4l4.1-4c0.2-0.2,0.4-0.6,0.4-0.8c0-0.4-0.2-0.6-0.4-0.8l-2.6-2.5c1.2-1.7,2-3.6,2.3-5.8h3.7
	c0.6,0,1.2-0.6,1.2-1.2v-5.8C558.6,150.4,558.2,149.8,557.4,149.8z"/>
<path class="st7" d="M546.7,152.4c-0.2-1.8-0.8-3.6-2-5.2l-7.2,8.3l-4.7-3.8l7.2-8.2c-1.7-0.7-3.4-1-5.2-0.8
	c-6,0.5-10.5,5.7-10,11.6c0.1,1.2,0.4,2.4,0.9,3.5l0.1,0.1l-17.3,19.9c-0.7,0.8-1.1,2-1,3.1s0.6,2.1,1.5,2.8s2,1.1,3.2,1
	c1.1-0.1,2.2-0.6,2.9-1.5l17.2-19.8l0.2,0.1c1.4,0.5,2.9,0.6,4.4,0.5C542.7,163.5,547.2,158.3,546.7,152.4z M512,181.8
	c-0.9,0.1-1.5-0.6-1.6-1.3c-0.1-0.8,0.6-1.5,1.4-1.6c0.9-0.1,1.5,0.6,1.6,1.3S512.8,181.7,512,181.8z"/>
<rect x="812.6" y="372.9" class="st2" width="92" height="32.3"/>
<text transform="matrix(0.9794 0 0 1 812.5628 388.6656)" class="st3 st8">$638.654</text>
<rect x="582.7" y="15.6" class="st2" width="439.9" height="108.7"/>
<text transform="matrix(1 0 0 1 740.7416 31.3084)" class="st9 st8">ATACAMA lll</text>
<text transform="matrix(1 0 0 1 569.6088 81.7083)" class="st9 st8">Población:</text>
<text transform="matrix(1 0 0 1 688.5013 81.7083)" class="st10 st8"> 286.168   </text>
<text transform="matrix(1 0 0 1 688.5013 81.7083)" class="st11 st10 st8"> 286.168   </text>
<text transform="matrix(1 0 0 1 777.7455 81.7083)" class="st9 st8">Superficie:</text>
<text transform="matrix(1 0 0 1 903.3944 81.7083)" class="st10 st8"> 75.176,2 km</text>
<text transform="matrix(1 0 0 1 1028.7932 74.7155)" class="st10 st12">2</text>
<rect x="856.8" y="120.3" class="st13" width="4.5" height="244"/>
<rect x="9" y="172.8" class="st2" width="105.5" height="23.7"/>
<text transform="matrix(0.9794 0 0 1 8.995 184.671)" class="st9 st14">MUJERES</text>
<rect x="9" y="294.3" class="st2" width="96.2" height="26"/>
<text transform="matrix(0.9794 0 0 1 8.995 306.1134)" class="st9 st14">HOMBRES</text>
<rect x="208.1" y="57" class="st2" width="80.5" height="23.3"/>
<g>
	<g>
		<path class="st15" d="M487.7,287.1h-13.8c-1.7,0-3.2,1.6-3.2,3.6v15.8c0,2,1.4,3.6,3.2,3.6h13.8c1.7,0,3.2-1.6,3.2-3.6v-15.8
			C490.8,288.8,489.4,287.1,487.7,287.1z M489.7,306.6c0,1.3-0.9,2.3-2.1,2.3h-13.8c-1.1,0-2.1-1.1-2.1-2.3v-15.8
			c0-1.3,0.9-2.3,2.1-2.3h13.8c1.1,0,2.1,1.1,2.1,2.3V306.6L489.7,306.6z"/>
		<path class="st15" d="M483.1,297.6c1-0.5,1.5-1.1,1.5-2.5c0-1.7-1-3.1-3.6-3.1h-4v11.6h4.4c2.6,0,3.7-1.5,3.7-3.2
			C485.1,298.9,484.3,297.9,483.1,297.6z M478.7,293.8h2.2c1.1,0,1.8,0.3,1.8,1.6c0,1-0.6,1.4-1.9,1.4h-2.2L478.7,293.8L478.7,293.8
			z M481.4,301.8h-2.7v-3.2h2.5c1.4,0,2.2,0.5,2.2,1.5C483.4,301.5,482.6,301.8,481.4,301.8z"/>
		<path class="st15" d="M499.4,285.4c1.7,0,3.2-1.6,3.2-3.6V266c0-2-1.4-3.6-3.2-3.6h-13.8c-1.7,0-3.2,1.6-3.2,3.6v15.8
			c0,2,1.4,3.6,3.2,3.6H499.4L499.4,285.4z M483.5,281.7v-15.8c0-1.3,0.9-2.3,2.1-2.3h13.8c1.1,0,2.1,1.1,2.1,2.3v15.8
			c0,1.3-0.9,2.3-2.1,2.3h-13.8C484.4,284.1,483.5,283,483.5,281.7z"/>
		<path class="st15" d="M489.9,276.2h5.1l1,2.6h1.8l-4.5-11.6h-1.8l-4.4,11.6h1.8L489.9,276.2z M492.4,269.6l1.8,4.8h-3.7
			L492.4,269.6z"/>
		<path class="st15" d="M511.1,287.1h-13.8c-1.7,0-3.2,1.6-3.2,3.6v15.8c0,2,1.4,3.6,3.2,3.6h13.8c1.7,0,3.2-1.6,3.2-3.6v-15.8
			C514.3,288.8,512.9,287.1,511.1,287.1z M513.2,306.6c0,1.3-0.9,2.3-2.1,2.3h-13.8c-1.1,0-2.1-1.1-2.1-2.3v-15.8
			c0-1.3,0.9-2.3,2.1-2.3h13.8c1.1,0,2.1,1.1,2.1,2.3V306.6L513.2,306.6z"/>
		<path class="st15" d="M505,293.7c1.2,0,2,0.4,2.9,1.4l1.1-1.4c-1-1.3-2.4-2-3.9-2c-3.2,0-5.5,2.6-5.5,6c0,3.5,2.3,6,5.3,6
			c1.5,0,2.8-0.7,3.9-2l-1.1-1.3c-1,1.1-1.8,1.4-2.9,1.4c-1.8,0-3.5-1.7-3.5-4.1C501.4,295.3,503,293.7,505,293.7z"/>
	</g>
	<rect x="453.2" y="317.3" class="st2" width="84.3" height="24.1"/>
	<text transform="matrix(0.9273 0 0 1 453.2171 330.7975)" class="st3 st16">$380.891</text>
</g>
<rect x="395" y="195.3" class="st2" width="99.6" height="21.9"/>
<text transform="matrix(1.0255 0 0 1 394.9935 208.7921)" class="st3 st16">$336.659</text>
<g>
	<g>
		<path class="st15" d="M336.5,166h-13.8c-1.7,0-3.2,1.6-3.2,3.6v15.8c0,2,1.4,3.6,3.2,3.6h13.8c1.7,0,3.2-1.6,3.2-3.6v-15.8
			C339.6,167.7,338.2,166,336.5,166z M338.5,185.5c0,1.3-0.9,2.3-2.1,2.3h-13.8c-1.1,0-2.1-1.1-2.1-2.3v-15.8c0-1.3,0.9-2.4,2.1-2.4
			h13.8c1.1,0,2.1,1.1,2.1,2.4V185.5L338.5,185.5z"/>
		<path class="st15" d="M331.9,176.5c1-0.5,1.5-1.1,1.5-2.5c0-1.7-1-3.1-3.6-3.1h-4v11.6h4.4c2.6,0,3.7-1.5,3.7-3.2
			C333.9,177.8,333.1,176.8,331.9,176.5z M327.5,172.7h2.2c1.1,0,1.8,0.3,1.8,1.6c0,1-0.6,1.4-1.9,1.4h-2.2L327.5,172.7L327.5,172.7
			z M330.2,180.7h-2.7v-3.2h2.5c1.4,0,2.2,0.5,2.2,1.5C332.2,180.4,331.4,180.7,330.2,180.7z"/>
		<path class="st15" d="M348.2,164.3c1.7,0,3.2-1.6,3.2-3.6v-15.9c0-2-1.4-3.6-3.2-3.6h-13.8c-1.7,0-3.2,1.6-3.2,3.6v15.8
			c0,2,1.4,3.6,3.2,3.6L348.2,164.3L348.2,164.3z M332.3,160.6v-15.8c0-1.3,0.9-2.4,2.1-2.4h13.8c1.1,0,2.1,1.1,2.1,2.4v15.8
			c0,1.3-0.9,2.4-2.1,2.4h-13.8C333.2,163,332.3,161.9,332.3,160.6z"/>
		<path class="st15" d="M338.7,155.1h5.1l1,2.6h1.8l-4.5-11.6h-1.8l-4.5,11.6h1.8L338.7,155.1z M341.2,148.5l1.8,4.8h-3.7
			L341.2,148.5z"/>
		<path class="st15" d="M359.9,166h-13.8c-1.7,0-3.2,1.6-3.2,3.6v15.8c0,2,1.4,3.6,3.2,3.6h13.8c1.7,0,3.2-1.6,3.2-3.6v-15.8
			C363.1,167.7,361.7,166,359.9,166z M362,185.5c0,1.3-0.9,2.3-2.1,2.3h-13.8c-1.1,0-2.1-1.1-2.1-2.3v-15.8c0-1.3,0.9-2.4,2.1-2.4
			h13.8c1.1,0,2.1,1.1,2.1,2.4V185.5L362,185.5z"/>
		<path class="st15" d="M353.8,172.6c1.2,0,2,0.4,2.9,1.4l1.1-1.4c-1-1.3-2.4-2-3.9-2c-3.2,0-5.5,2.6-5.5,6c0,3.5,2.3,6,5.3,6
			c1.5,0,2.8-0.7,3.9-2l-1.1-1.3c-1,1.1-1.8,1.4-2.9,1.4c-1.8,0-3.5-1.7-3.5-4.1C350.2,174.2,351.8,172.6,353.8,172.6z"/>
	</g>
	<rect x="296.5" y="195.6" class="st2" width="93.1" height="18.8"/>
	<text transform="matrix(1.0255 0 0 1 296.4662 209.1095)" class="st3 st16">$269.457</text>
</g>
<path class="st17" d="M734.6,303.6c-0.6-0.4-1.3-0.6-2.1-0.5c-0.4,0-0.8,0.2-1.1,0.4l3.6,1.8c-1.1,1.6-2,3.3-2.9,5.1
	c-0.6,1.2-1.1,2.6-1.5,4c-0.3,1.1-0.5,2.3-0.4,3.5c1.7-0.5,3.5-2.9,4.7-5.8c0.8-1.8,1.2-3.9,1.2-6.1
	C735.9,304.9,735.4,304,734.6,303.6z"/>
<path class="st17" d="M710.4,280.4v7.4l19.9,9.1l0,0c1.5,0,3-0.1,4.5-0.3c3.9-0.7,6.4-2.1,6.4-3.6v-12.2l-12.2,5.3L710.4,280.4z"/>
<polygon class="st17" points="724.5,265 698.2,274.3 710.4,278 729,283.6 741.2,278.3 754.8,272.4 "/>
<path class="st17" d="M728.5,315.3c0-0.2,0-0.3,0.1-0.5s0.1-0.4,0.1-0.6v-0.1c0.5-1.7,1-3.3,1.8-4.8c0.4-1,0.9-1.9,1.5-2.8v-0.1
	l-2.4-1.2c-0.6,0.8-1,1.6-1.4,2.6c-0.5,1.2-1,2.4-1.3,3.7l-28.1-16l-0.2,1c-0.2,1.5-0.2,3,0.6,3.5l29.6,18
	C728.4,317.3,728.3,316.4,728.5,315.3z"/>
<path class="st17" d="M726.5,306.5c1.7-4.1,4.6-6.5,6.9-5.7h-0.1l-30.9-14.1c-1.2-0.6-2.8,1-3.7,3.8c-0.2,0.6-0.4,1.3-0.5,1.9
	l27.8,15.8C726.1,307.6,726.3,307.1,726.5,306.5z"/>
<rect x="687.6" y="324.3" class="st2" width="100" height="21"/>
<text transform="matrix(1.0255 0 0 1 687.556 337.7726)" class="st3 st16">$545.241</text>
<rect x="482.9" y="194.8" class="st2" width="103.7" height="22.3"/>
<text transform="matrix(1.0255 0 0 1 482.8441 208.3263)" class="st3 st16">$386.726</text>
<g>
	<path class="st18" d="M1220.3,283.6h-3.7c-0.6-2.3-1.4-4.2-2.8-6.2l3.2-3.1c0.2-0.2,0.4-0.6,0.4-0.8c0-0.4-0.2-0.6-0.4-0.8l-4.1-4
		c-0.4-0.4-1.2-0.4-1.8,0l-3.2,3.1c-1.8-1.2-3.7-1.9-5.7-2.5v-4c0-0.6-0.6-1.2-1.2-1.2h-5.9c-0.6,0-1.2,0.6-1.2,1.2v3.9
		c-2.2,0.4-4.1,1.3-5.9,2.3l-3.4-3.3c-0.4-0.4-1.2-0.4-1.8,0l-4.1,4c-0.2,0.2-0.4,0.6-0.4,0.8c0,0.2,0.2,0.6,0.4,0.8l3.4,3.3
		c-1.2,1.9-2.2,4-2.8,6.4h-3.8c-0.6,0-1.2,0.6-1.2,1.2v5.8c0,0.6,0.6,1.2,1.2,1.2h3.7c0.3,2,1.3,3.7,2.1,5.4l3-3.6
		c-0.8-1.8-1.3-3.8-1.3-5.9c0-8,6.6-14.5,14.8-14.5c8.2,0,14.8,6.5,14.8,14.5s-6.6,14.5-14.8,14.5c-1.4,0-2.9-0.2-4.2-0.6l-2.9,3.3
		c0.9,0.3,1.9,0.6,2.9,0.8v3.3c0,0.6,0.6,1.2,1.2,1.2h5.9c0.6,0,1.2-0.6,1.2-1.2v-3.5c2.3-0.6,4.3-1.3,6.3-2.7l2.6,2.5
		c0.2,0.2,0.6,0.4,0.8,0.4c0.2,0,0.6-0.2,0.8-0.4l4.1-4c0.2-0.2,0.4-0.6,0.4-0.8c0-0.4-0.2-0.6-0.4-0.8l-2.6-2.5
		c1.2-1.7,1.9-3.6,2.3-5.8h3.7c0.6,0,1.2-0.6,1.2-1.2v-5.8C1221.5,284.2,1221.1,283.6,1220.3,283.6z"/>
	<path class="st18" d="M1209.7,286.2c-0.2-1.8-0.8-3.6-1.9-5.2l-7.2,8.3l-4.7-3.8l7.2-8.2c-1.7-0.7-3.4-1-5.2-0.8
		c-6,0.5-10.5,5.7-10,11.6c0.1,1.2,0.4,2.3,0.9,3.5l0.1,0.1l-17.4,20.1c-0.7,0.8-1.1,2-1,3.1s0.6,2.1,1.5,2.8s2,1.1,3.2,1
		c1.1-0.1,2.2-0.6,2.9-1.5l17.2-19.8l0.2,0.1c1.4,0.5,2.9,0.6,4.4,0.5C1205.7,297.4,1210.2,292.2,1209.7,286.2z M1174.9,315.6
		c-0.9,0.1-1.5-0.6-1.6-1.3c-0.1-0.8,0.6-1.5,1.4-1.6c0.9-0.1,1.5,0.6,1.6,1.3C1176.3,314.8,1175.8,315.6,1174.9,315.6z"/>
	<rect x="1149.6" y="327.7" class="st2" width="86.8" height="19.6"/>
	<text transform="matrix(1.0255 0 0 1 1149.556 341.1603)" class="st3 st16">$705.257</text>
</g>
<g>
	<g>
		<path d="M1134.1,136.4c-0.5,0.6-1.2,1.4-2.1,2.4c-3.8-3.6-7.5-4.1-10.3-4.5c-8,13-17,20.6-28.8,28.7c-0.3,0-0.7,0.2-1.1,0.4
			c-2.1,1.4-3,3.8-3.5,6.7c-1.2,6.7,0.9,14.8,7.2,16.2c3.7,0.8,6.1,0.2,7.7-1.8c1.2-1.4,6.5-7.5,13.3-14.6
			c7.7-7.9,17-15.4,20.8-18.6c3.5-3,2.8-7.7,0.3-11.3c-0.9-1.4-2.1-2.6-3.3-3.4L1134.1,136.4z M1104.9,179.1
			c0.5-3.6,0.3-10.3,0.2-12.5c0.9-0.4,2.6-1.6,5.8-4c8.9-6.7,16.1-14.6,23.4-23.3c2.6,2.4,4.9,7.3,1.8,10.1
			c-3.7,3-13.5,10.9-21,18.6C1111,172.4,1107.3,176.3,1104.9,179.1z M1101.6,182.8c-1.1,1.4-2.8,1.8-5.6,1.2
			c-5.8-1.4-7-9.5-5.4-15.2c1.6-5.5,6.5-4.7,8-0.8l-6.3,6.3c0.2,0.6,0.5,4.5,3.7,5.5c2.3,0.8,4.2-1.6,4.9-4.4c0.3-1.8,0.5-4,0-6.5
			c-0.3-3-2.1-5.1-4.4-6.1c11-7.7,18.5-14.2,26.1-26.1c3.2,0.6,5.2,1.4,7.9,3.6c-7.3,8.5-22.4,24.5-27.4,24.5
			c0,1.2,0.5,11.3-0.2,14.8C1102.6,180.9,1102.3,182,1101.6,182.8z M1099.1,170.6c0.2,2.2,0,4.9-1.2,6.3c-1.2,1.8-2.8,0-3.3-1.8
			L1099.1,170.6z"/>
		<path class="st19" d="M1131.8,177.9c0,0-1.2-4.1-3.3-7.1s-6.1-4.7-6.1-4.7s2.6,3.2,3.7,7.7c1.2,4.5,1.4,6.5,1.4,6.5l-2.4-1.4
			l-1.9,4c0,0,0.9-5.3-1.2-10.1c-1.9-4.7-3.3-6.1-3.3-6.1c0.5-8.5-3.2-13-10.7-13.6l5.6-5.7c6.6-0.2,10.5,7.9,9.8,14.8
			c5.1,3.2,9.8,7.7,14,12.1l-3.8,0.8L1131.8,177.9z"/>
	</g>
	<rect x="1073.2" y="191.4" class="st2" width="92.4" height="17.8"/>
	<text transform="matrix(1.0255 0 0 1 1073.182 204.9274)" class="st3 st16">$695.073</text>
</g>
<g>
	<g>
		<path d="M1458.9,269.1c-0.5,0.6-1.2,1.4-2.1,2.4c-3.8-3.6-7.5-4.2-10.3-4.5c-8,13-17,20.6-28.8,28.7c-0.3,0-0.7,0.2-1.1,0.4
			c-2.1,1.4-3,3.8-3.5,6.7c-1.2,6.7,0.9,14.8,7.2,16.2c3.7,0.8,6.1,0.2,7.7-1.8c1.2-1.4,6.5-7.5,13.3-14.6
			c7.7-7.9,17-15.4,20.8-18.6c3.5-3,2.8-7.7,0.3-11.3c-0.9-1.4-2.1-2.6-3.3-3.4L1458.9,269.1z M1429.7,311.8
			c0.5-3.6,0.3-10.3,0.2-12.5c0.9-0.4,2.6-1.6,5.8-4c8.9-6.7,16.1-14.6,23.4-23.3c2.6,2.4,4.9,7.3,1.8,10.1
			c-3.7,3-13.5,10.9-21,18.6C1435.8,305.1,1432.2,309,1429.7,311.8z M1426.4,315.5c-1.1,1.4-2.8,1.8-5.6,1.2
			c-5.8-1.4-7-9.5-5.4-15.2c1.6-5.5,6.5-4.7,8-0.8l-6.3,6.3c0.2,0.6,0.5,4.5,3.7,5.5c2.3,0.8,4.2-1.6,4.9-4.3c0.3-1.8,0.5-4,0-6.5
			c-0.3-3-2.1-5.1-4.4-6.1c11-7.7,18.5-14.2,26.1-26.1c3.2,0.6,5.2,1.4,7.9,3.6c-7.3,8.5-22.4,24.5-27.4,24.5
			c0,1.2,0.5,11.3-0.2,14.8C1427.4,313.6,1427.1,314.7,1426.4,315.5z M1423.9,303.3c0.2,2.2,0,4.9-1.2,6.3c-1.2,1.8-2.8,0-3.3-1.8
			L1423.9,303.3z"/>
		<path class="st19" d="M1456.6,310.6c0,0-1.2-4.2-3.3-7.1s-6.1-4.7-6.1-4.7s2.6,3.2,3.7,7.7c1.2,4.5,1.4,6.5,1.4,6.5l-2.4-1.4
			l-1.9,4c0,0,0.9-5.3-1.2-10.1c-1.9-4.7-3.3-6.1-3.3-6.1c0.5-8.5-3.2-13-10.7-13.6l5.6-5.7c6.6-0.2,10.5,7.9,9.8,14.8
			c5.1,3.2,9.8,7.7,14,12.1l-3.8,0.8L1456.6,310.6z"/>
	</g>
	<rect x="1391.6" y="327.2" class="st2" width="109" height="19.1"/>
	<text transform="matrix(1.0255 0 0 1 1391.556 340.6344)" class="st3 st16">$1.041.390</text>
</g>
<path class="st17" d="M452.5,176c-0.6-0.4-1.3-0.6-2.1-0.5c-0.4,0-0.8,0.2-1.1,0.4l3.6,1.9c-1.1,1.6-2,3.3-2.9,5.1
	c-0.6,1.2-1.1,2.6-1.5,4c-0.3,1.1-0.5,2.3-0.4,3.5c1.7-0.5,3.5-2.9,4.7-5.8c0.8-1.8,1.2-3.9,1.2-6.1
	C453.8,177.4,453.3,176.5,452.5,176z"/>
<path class="st17" d="M428.3,152.8v7.4l19.9,9.1l0,0c1.5,0,3-0.1,4.5-0.3c3.9-0.7,6.4-2.1,6.4-3.6v-12.2l-12.2,5.3L428.3,152.8z"/>
<polygon class="st17" points="442.4,137.5 416.1,146.7 428.3,150.4 446.9,156 459.2,150.7 472.7,144.8 "/>
<path class="st17" d="M446.4,187.7c0-0.2,0-0.3,0.1-0.5s0.1-0.4,0.1-0.6v-0.1c0.5-1.7,1-3.3,1.8-4.8c0.4-1,0.9-1.9,1.5-2.8v-0.1
	l-2.4-1.2c-0.6,0.8-1,1.6-1.4,2.6c-0.5,1.2-1,2.4-1.3,3.7l-28.1-16l-0.2,1c-0.2,1.5-0.2,3,0.6,3.5l29.6,18
	C446.3,189.8,446.2,188.9,446.4,187.7z"/>
<path class="st17" d="M444.5,179c1.7-4.1,4.6-6.5,6.9-5.7h-0.1l-30.9-14.1c-1.2-0.6-2.8,1-3.7,3.8c-0.2,0.6-0.4,1.3-0.5,1.9
	l27.8,15.8C444.1,180.1,444.3,179.5,444.5,179z"/>
</svg>
