<?xml version="1.0" encoding="utf-8"?>
<!-- Generator: Adobe Illustrator 24.2.3, SVG Export Plug-In . SVG Version: 6.00 Build 0)  -->
<svg version="1.1" id="Capa_1" xmlns="http://www.w3.org/2000/svg" xmlns:xlink="http://www.w3.org/1999/xlink" x="0px" y="0px"
	 viewBox="0 0 1499.5 410.6" style="enable-background:new 0 0 1499.5 410.6;" xml:space="preserve">
<style type="text/css">
	.st0{fill:#DCF4F3;fill-opacity:0.8;stroke:#416190;stroke-width:5;stroke-miterlimit:5.83;}
	.st1{fill:none;stroke:#000000;stroke-width:3.0401;stroke-miterlimit:10;}
	.st2{fill:none;}
	.st3{font-family:'Optima-Bold';}
	.st4{font-size:16px;}
	.st5{letter-spacing:27.6;}
	.st6{letter-spacing:9.2;}
	.st7{fill:#FF0000;}
	.st8{font-size:21px;}
	.st9{font-family:'Verdana-Bold';}
	.st10{font-family:'Optima-Regular';}
	.st11{fill:none;stroke:#000000;stroke-width:0.25;stroke-miterlimit:10;}
	.st12{font-size:12.243px;}
	.st13{fill:#FCEE21;}
	.st14{font-size:16.6514px;}
	.st15{fill:#FF0000;stroke:#FF0000;stroke-width:1.3343;stroke-miterlimit:10;}
	.st16{font-size:18px;}
	.st17{fill:#FF0000;stroke:#FF0000;stroke-width:0.2169;stroke-miterlimit:10;}
	.st18{stroke:#000000;stroke-width:0.1414;stroke-miterlimit:10;}
	.st19{fill-rule:evenodd;clip-rule:evenodd;}
</style>
<rect x="1.3" y="1.9" class="st0" width="1495.5" height="405.2"/>
<rect x="90.6" y="228.2" class="st1" width="1385.4" height="21.3"/>
<rect x="104.5" y="232.6" class="st2" width="1371.8" height="36.8"/>
<text transform="matrix(0.9794 0 0 1 104.4727 244.6209)" class="st3 st4">$100.000</text>
<text transform="matrix(0.9794 0 0 1 169.8184 244.6209)" class="st3 st4 st5"> </text>
<text transform="matrix(0.9794 0 0 1 202.3242 244.6209)" class="st3 st4 st5"> </text>
<text transform="matrix(0.9794 0 0 1 234.9385 244.6209)" class="st3 st4">$200.000</text>
<text transform="matrix(0.9794 0 0 1 300.2842 244.6209)" class="st3 st4 st5"> </text>
<text transform="matrix(0.9794 0 0 1 332.79 244.6209)" class="st3 st4 st5"> </text>
<text transform="matrix(0.9794 0 0 1 365.4043 244.6209)" class="st3 st4">$300.000</text>
<text transform="matrix(0.9794 0 0 1 430.75 244.6209)" class="st3 st4 st5"> </text>
<text transform="matrix(0.9794 0 0 1 463.2559 244.6209)" class="st3 st4 st5"> </text>
<text transform="matrix(0.9794 0 0 1 495.8701 244.6209)" class="st3 st4">$400.000</text>
<text transform="matrix(0.9794 0 0 1 561.2158 244.6209)" class="st3 st4 st5"> </text>
<text transform="matrix(0.9794 0 0 1 593.7227 244.6209)" class="st3 st4 st5"> </text>
<text transform="matrix(0.9794 0 0 1 626.3457 244.6209)" class="st3 st4">$500.000</text>
<text transform="matrix(0.9794 0 0 1 691.6914 244.6209)" class="st3 st4 st5"> </text>
<text transform="matrix(0.9794 0 0 1 724.1875 244.6209)" class="st3 st4 st5"> </text>
<text transform="matrix(0.9794 0 0 1 756.8115 244.6209)" class="st3 st4">$600.000</text>
<text transform="matrix(0.9794 0 0 1 822.1572 244.6209)" class="st3 st4 st5"> </text>
<text transform="matrix(0.9794 0 0 1 854.6641 244.6209)" class="st3 st4 st5"> </text>
<text transform="matrix(0.9794 0 0 1 887.2773 244.6209)" class="st3 st4">$700.000</text>
<text transform="matrix(0.9794 0 0 1 952.623 244.6209)" class="st3 st4 st5"> </text>
<text transform="matrix(0.9794 0 0 1 985.1299 244.6209)" class="st3 st4 st5"> </text>
<text transform="matrix(0.9794 0 0 1 1017.7432 244.6209)" class="st3 st4">$800.000</text>
<text transform="matrix(0.9794 0 0 1 1083.0889 244.6209)" class="st3 st4 st5"> </text>
<text transform="matrix(0.9794 0 0 1 1115.5957 244.6209)" class="st3 st4 st5"> </text>
<text transform="matrix(0.9794 0 0 1 1148.209 244.6209)" class="st3 st4">$900.000</text>
<text transform="matrix(0.9794 0 0 1 1213.5547 244.6209)" class="st3 st4 st5"> </text>
<text transform="matrix(0.9794 0 0 1 1246.0615 244.6209)" class="st3 st4 st5"> </text>
<text transform="matrix(0.9794 0 0 1 1278.6758 244.6209)" class="st3 st4">$1.000.000 </text>
<text transform="matrix(0.9794 0 0 1 1361.4443 244.6209)" class="st3 st4 st6"> </text>
<text transform="matrix(0.9794 0 0 1 1376.5273 244.6209)" class="st3 st4 st5"> </text>
<text transform="matrix(0.9794 0 0 1 1409.1416 244.6209)" class="st3 st4">   +++</text>
<path class="st7" d="M556.3,149.3h-3.7c-0.6-2.3-1.4-4.2-2.8-6.1l3.2-3.1c0.2-0.2,0.4-0.6,0.4-0.8c0-0.4-0.2-0.6-0.4-0.8l-4.1-4
	c-0.4-0.4-1.2-0.4-1.8,0l-3.2,3.1c-1.8-1.2-3.7-1.9-5.7-2.5v-4c0-0.6-0.6-1.2-1.2-1.2h-5.9c-0.6,0-1.2,0.6-1.2,1.2v3.9
	c-2.2,0.4-4.1,1.3-5.9,2.3l-3.4-3.3c-0.4-0.4-1.2-0.4-1.8,0l-4.1,4c-0.2,0.2-0.4,0.6-0.4,0.8s0.2,0.6,0.4,0.8l3.4,3.3
	c-1.2,1.9-2.2,4-2.8,6.4h-3.8c-0.6,0-1.2,0.6-1.2,1.2v5.8c0,0.6,0.6,1.2,1.2,1.2h3.7c0.3,2,1.3,3.7,2.1,5.4l3-3.6
	c-0.8-1.8-1.3-3.8-1.3-5.9c0-8,6.6-14.5,14.8-14.5s14.8,6.5,14.8,14.5s-6.6,14.5-14.8,14.5c-1.4,0-2.9-0.2-4.2-0.6l-2.9,3.4
	c0.9,0.3,1.9,0.6,2.9,0.8v3.3c0,0.6,0.6,1.2,1.2,1.2h5.9c0.6,0,1.2-0.6,1.2-1.2v-3.5c2.3-0.6,4.3-1.3,6.3-2.7l2.6,2.5
	c0.2,0.2,0.6,0.4,0.8,0.4s0.6-0.2,0.8-0.4l4.1-4c0.2-0.2,0.4-0.6,0.4-0.8c0-0.4-0.2-0.6-0.4-0.8l-2.6-2.5c1.2-1.7,2-3.6,2.3-5.8h3.7
	c0.6,0,1.2-0.6,1.2-1.2v-5.8C557.5,149.9,557.1,149.3,556.3,149.3z"/>
<path class="st7" d="M545.6,151.9c-0.2-1.8-0.8-3.6-2-5.2l-7.2,8.3l-4.7-3.8l7.2-8.2c-1.7-0.7-3.4-1-5.2-0.8
	c-6,0.5-10.5,5.7-10,11.6c0.1,1.2,0.4,2.4,0.9,3.5l0.1,0.1l-17.3,19.9c-0.7,0.8-1.1,2-1,3.1s0.6,2.1,1.5,2.8s2,1.1,3.2,1
	c1.1-0.1,2.2-0.6,2.9-1.5l17.2-19.8l0.2,0.1c1.4,0.5,2.9,0.6,4.4,0.5C541.6,163,546.1,157.8,545.6,151.9z M510.9,181.3
	c-0.9,0.1-1.5-0.6-1.6-1.3c-0.1-0.8,0.6-1.5,1.4-1.6c0.9-0.1,1.5,0.6,1.6,1.3S511.7,181.2,510.9,181.3z"/>
<rect x="811.5" y="372.4" class="st2" width="92" height="32.3"/>
<text transform="matrix(0.9794 0 0 1 811.4912 388.1883)" class="st3 st8">$638.654</text>
<rect x="581.6" y="15.1" class="st2" width="439.9" height="108.7"/>
<text transform="matrix(1 0 0 1 739.67 30.8309)" class="st9 st8">ATACAMA lll</text>
<text transform="matrix(1 0 0 1 568.5372 81.2308)" class="st9 st8">Población:</text>
<text transform="matrix(1 0 0 1 687.4297 81.2308)" class="st10 st8"> 286.168   </text>
<text transform="matrix(1 0 0 1 687.4297 81.2308)" class="st11 st10 st8"> 286.168   </text>
<text transform="matrix(1 0 0 1 776.6739 81.2308)" class="st9 st8">Superficie:</text>
<text transform="matrix(1 0 0 1 902.3228 81.2308)" class="st10 st8"> 75.176,2 km</text>
<text transform="matrix(1 0 0 1 1027.7216 74.2379)" class="st10 st12">2</text>
<rect x="855.7" y="119.8" class="st13" width="4.5" height="244"/>
<rect x="7.9" y="172.3" class="st2" width="105.5" height="23.7"/>
<text transform="matrix(0.9794 0 0 1 7.9233 184.1932)" class="st9 st14">MUJERES</text>
<rect x="7.9" y="293.8" class="st2" width="96.2" height="26"/>
<text transform="matrix(0.9794 0 0 1 7.9233 305.636)" class="st9 st14">HOMBRES</text>
<rect x="207" y="56.5" class="st2" width="80.5" height="23.3"/>
<g>
	<g>
		<path class="st15" d="M486.6,286.6h-13.8c-1.7,0-3.2,1.6-3.2,3.6V306c0,2,1.4,3.6,3.2,3.6h13.8c1.7,0,3.2-1.6,3.2-3.6v-15.8
			C489.7,288.3,488.3,286.6,486.6,286.6z M488.6,306.1c0,1.3-0.9,2.3-2.1,2.3h-13.8c-1.1,0-2.1-1.1-2.1-2.3v-15.8
			c0-1.3,0.9-2.3,2.1-2.3h13.8c1.1,0,2.1,1.1,2.1,2.3V306.1L488.6,306.1z"/>
		<path class="st15" d="M482,297.1c1-0.5,1.5-1.1,1.5-2.5c0-1.7-1-3.1-3.6-3.1h-4v11.6h4.4c2.6,0,3.7-1.5,3.7-3.2
			C484,298.4,483.2,297.4,482,297.1z M477.6,293.3h2.2c1.1,0,1.8,0.3,1.8,1.6c0,1-0.6,1.4-1.9,1.4h-2.2L477.6,293.3L477.6,293.3z
			 M480.3,301.3h-2.7v-3.2h2.5c1.4,0,2.2,0.5,2.2,1.5C482.3,301,481.5,301.3,480.3,301.3z"/>
		<path class="st15" d="M498.3,284.9c1.7,0,3.2-1.6,3.2-3.6v-15.8c0-2-1.4-3.6-3.2-3.6h-13.8c-1.7,0-3.2,1.6-3.2,3.6v15.8
			c0,2,1.4,3.6,3.2,3.6H498.3L498.3,284.9z M482.4,281.2v-15.8c0-1.3,0.9-2.3,2.1-2.3h13.8c1.1,0,2.1,1.1,2.1,2.3v15.8
			c0,1.3-0.9,2.3-2.1,2.3h-13.8C483.3,283.6,482.4,282.5,482.4,281.2z"/>
		<path class="st15" d="M488.8,275.7h5.1l1,2.6h1.8l-4.5-11.6h-1.8l-4.4,11.6h1.8L488.8,275.7z M491.3,269.1l1.8,4.8h-3.7
			L491.3,269.1z"/>
		<path class="st15" d="M510,286.6h-13.8c-1.7,0-3.2,1.6-3.2,3.6V306c0,2,1.4,3.6,3.2,3.6H510c1.7,0,3.2-1.6,3.2-3.6v-15.8
			C513.2,288.3,511.8,286.6,510,286.6z M512.1,306.1c0,1.3-0.9,2.3-2.1,2.3h-13.8c-1.1,0-2.1-1.1-2.1-2.3v-15.8
			c0-1.3,0.9-2.3,2.1-2.3H510c1.1,0,2.1,1.1,2.1,2.3V306.1L512.1,306.1z"/>
		<path class="st15" d="M503.9,293.2c1.2,0,2,0.4,2.9,1.4l1.1-1.4c-1-1.3-2.4-2-3.9-2c-3.2,0-5.5,2.6-5.5,6c0,3.5,2.3,6,5.3,6
			c1.5,0,2.8-0.7,3.9-2l-1.1-1.3c-1,1.1-1.8,1.4-2.9,1.4c-1.8,0-3.5-1.7-3.5-4.1C500.3,294.8,501.9,293.2,503.9,293.2z"/>
	</g>
	<rect x="452.1" y="316.8" class="st2" width="84.3" height="24.1"/>
	<text transform="matrix(0.9273 0 0 1 452.1455 330.3201)" class="st3 st16">$380.891</text>
</g>
<rect x="393.9" y="194.8" class="st2" width="99.6" height="21.9"/>
<text transform="matrix(1.0255 0 0 1 393.9219 208.3143)" class="st3 st16">$336.659</text>
<g>
	<g>
		<path class="st15" d="M335.4,165.5h-13.8c-1.7,0-3.2,1.6-3.2,3.6v15.8c0,2,1.4,3.6,3.2,3.6h13.8c1.7,0,3.2-1.6,3.2-3.6v-15.8
			C338.5,167.2,337.1,165.5,335.4,165.5z M337.4,185c0,1.3-0.9,2.3-2.1,2.3h-13.8c-1.1,0-2.1-1.1-2.1-2.3v-15.8
			c0-1.3,0.9-2.4,2.1-2.4h13.8c1.1,0,2.1,1.1,2.1,2.4V185L337.4,185z"/>
		<path class="st15" d="M330.8,176c1-0.5,1.5-1.1,1.5-2.5c0-1.7-1-3.1-3.6-3.1h-4V182h4.4c2.6,0,3.7-1.5,3.7-3.2
			C332.8,177.3,332,176.3,330.8,176z M326.4,172.2h2.2c1.1,0,1.8,0.3,1.8,1.6c0,1-0.6,1.4-1.9,1.4h-2.2L326.4,172.2L326.4,172.2z
			 M329.1,180.2h-2.7V177h2.5c1.4,0,2.2,0.5,2.2,1.5C331.1,179.9,330.3,180.2,329.1,180.2z"/>
		<path class="st15" d="M347.1,163.8c1.7,0,3.2-1.6,3.2-3.6v-15.9c0-2-1.4-3.6-3.2-3.6h-13.8c-1.7,0-3.2,1.6-3.2,3.6v15.8
			c0,2,1.4,3.6,3.2,3.6L347.1,163.8L347.1,163.8z M331.2,160.1v-15.8c0-1.3,0.9-2.4,2.1-2.4h13.8c1.1,0,2.1,1.1,2.1,2.4v15.8
			c0,1.3-0.9,2.4-2.1,2.4h-13.8C332.1,162.5,331.2,161.4,331.2,160.1z"/>
		<path class="st15" d="M337.6,154.6h5.1l1,2.6h1.8l-4.5-11.6h-1.8l-4.5,11.6h1.8L337.6,154.6z M340.1,148l1.8,4.8h-3.7L340.1,148z"
			/>
		<path class="st15" d="M358.8,165.5H345c-1.7,0-3.2,1.6-3.2,3.6v15.8c0,2,1.4,3.6,3.2,3.6h13.8c1.7,0,3.2-1.6,3.2-3.6v-15.8
			C362,167.2,360.6,165.5,358.8,165.5z M360.9,185c0,1.3-0.9,2.3-2.1,2.3H345c-1.1,0-2.1-1.1-2.1-2.3v-15.8c0-1.3,0.9-2.4,2.1-2.4
			h13.8c1.1,0,2.1,1.1,2.1,2.4V185L360.9,185z"/>
		<path class="st15" d="M352.7,172.1c1.2,0,2,0.4,2.9,1.4l1.1-1.4c-1-1.3-2.4-2-3.9-2c-3.2,0-5.5,2.6-5.5,6c0,3.5,2.3,6,5.3,6
			c1.5,0,2.8-0.7,3.9-2l-1.1-1.3c-1,1.1-1.8,1.4-2.9,1.4c-1.8,0-3.5-1.7-3.5-4.1C349.1,173.7,350.7,172.1,352.7,172.1z"/>
	</g>
	<rect x="295.4" y="195.1" class="st2" width="93.1" height="18.8"/>
	<text transform="matrix(1.0255 0 0 1 295.3945 208.6321)" class="st3 st16">$269.457</text>
</g>
<path class="st17" d="M733.5,303.1c-0.6-0.4-1.3-0.6-2.1-0.5c-0.4,0-0.8,0.2-1.1,0.4l3.6,1.8c-1.1,1.6-2,3.3-2.9,5.1
	c-0.6,1.2-1.1,2.6-1.5,4c-0.3,1.1-0.5,2.3-0.4,3.5c1.7-0.5,3.5-2.9,4.7-5.8c0.8-1.8,1.2-3.9,1.2-6.1
	C734.8,304.4,734.3,303.5,733.5,303.1z"/>
<path class="st17" d="M709.3,279.9v7.4l19.9,9.1l0,0c1.5,0,3-0.1,4.5-0.3c3.9-0.7,6.4-2.1,6.4-3.6v-12.2l-12.2,5.3L709.3,279.9z"/>
<polygon class="st17" points="723.4,264.5 697.1,273.8 709.3,277.5 727.9,283.1 740.1,277.8 753.7,271.9 "/>
<path class="st17" d="M727.4,314.8c0-0.2,0-0.3,0.1-0.5s0.1-0.4,0.1-0.6v-0.1c0.5-1.7,1-3.3,1.8-4.8c0.4-1,0.9-1.9,1.5-2.8v-0.1
	l-2.4-1.2c-0.6,0.8-1,1.6-1.4,2.6c-0.5,1.2-1,2.4-1.3,3.7l-28.1-16l-0.2,1c-0.2,1.5-0.2,3,0.6,3.5l29.6,18
	C727.3,316.8,727.2,315.9,727.4,314.8z"/>
<path class="st17" d="M725.4,306c1.7-4.1,4.6-6.5,6.9-5.7h-0.1l-30.9-14.1c-1.2-0.6-2.8,1-3.7,3.8c-0.2,0.6-0.4,1.3-0.5,1.9
	l27.8,15.8C725,307.1,725.2,306.6,725.4,306z"/>
<rect x="686.5" y="323.8" class="st2" width="100" height="21"/>
<text transform="matrix(1.0255 0 0 1 686.4844 337.2952)" class="st3 st16">$545.241</text>
<rect x="481.8" y="194.3" class="st2" width="103.7" height="22.3"/>
<text transform="matrix(1.0255 0 0 1 481.7725 207.8489)" class="st3 st16">$386.726</text>
<g>
	<path class="st18" d="M1219.2,283.1h-3.7c-0.6-2.3-1.4-4.2-2.8-6.2l3.2-3.1c0.2-0.2,0.4-0.6,0.4-0.8c0-0.4-0.2-0.6-0.4-0.8l-4.1-4
		c-0.4-0.4-1.2-0.4-1.8,0l-3.2,3.1c-1.8-1.2-3.7-1.9-5.7-2.5v-4c0-0.6-0.6-1.2-1.2-1.2h-5.9c-0.6,0-1.2,0.6-1.2,1.2v3.9
		c-2.2,0.4-4.1,1.3-5.9,2.3l-3.4-3.3c-0.4-0.4-1.2-0.4-1.8,0l-4.1,4c-0.2,0.2-0.4,0.6-0.4,0.8c0,0.2,0.2,0.6,0.4,0.8l3.4,3.3
		c-1.2,1.9-2.2,4-2.8,6.4h-3.8c-0.6,0-1.2,0.6-1.2,1.2v5.8c0,0.6,0.6,1.2,1.2,1.2h3.7c0.3,2,1.3,3.7,2.1,5.4l3-3.6
		c-0.8-1.8-1.3-3.8-1.3-5.9c0-8,6.6-14.5,14.8-14.5c8.2,0,14.8,6.5,14.8,14.5s-6.6,14.5-14.8,14.5c-1.4,0-2.9-0.2-4.2-0.6l-2.9,3.3
		c0.9,0.3,1.9,0.6,2.9,0.8v3.3c0,0.6,0.6,1.2,1.2,1.2h5.9c0.6,0,1.2-0.6,1.2-1.2v-3.5c2.3-0.6,4.3-1.3,6.3-2.7l2.6,2.5
		c0.2,0.2,0.6,0.4,0.8,0.4c0.2,0,0.6-0.2,0.8-0.4l4.1-4c0.2-0.2,0.4-0.6,0.4-0.8c0-0.4-0.2-0.6-0.4-0.8l-2.6-2.5
		c1.2-1.7,1.9-3.6,2.3-5.8h3.7c0.6,0,1.2-0.6,1.2-1.2v-5.8C1220.4,283.7,1220,283.1,1219.2,283.1z"/>
	<path class="st18" d="M1208.6,285.7c-0.2-1.8-0.8-3.6-1.9-5.2l-7.2,8.3l-4.7-3.8l7.2-8.2c-1.7-0.7-3.4-1-5.2-0.8
		c-6,0.5-10.5,5.7-10,11.6c0.1,1.2,0.4,2.3,0.9,3.5l0.1,0.1l-17.4,20.1c-0.7,0.8-1.1,2-1,3.1s0.6,2.1,1.5,2.8s2,1.1,3.2,1
		c1.1-0.1,2.2-0.6,2.9-1.5l17.2-19.8l0.2,0.1c1.4,0.5,2.9,0.6,4.4,0.5C1204.6,296.9,1209.1,291.7,1208.6,285.7z M1173.8,315.1
		c-0.9,0.1-1.5-0.6-1.6-1.3c-0.1-0.8,0.6-1.5,1.4-1.6c0.9-0.1,1.5,0.6,1.6,1.3C1175.2,314.3,1174.7,315.1,1173.8,315.1z"/>
	<rect x="1148.5" y="327.2" class="st2" width="86.8" height="19.6"/>
	<text transform="matrix(1.0255 0 0 1 1148.4844 340.6829)" class="st3 st16">$705.257</text>
</g>
<g>
	<g>
		<path d="M1133,135.9c-0.5,0.6-1.2,1.4-2.1,2.4c-3.8-3.6-7.5-4.1-10.3-4.5c-8,13-17,20.6-28.8,28.7c-0.3,0-0.7,0.2-1.1,0.4
			c-2.1,1.4-3,3.8-3.5,6.7c-1.2,6.7,0.9,14.8,7.2,16.2c3.7,0.8,6.1,0.2,7.7-1.8c1.2-1.4,6.5-7.5,13.3-14.6
			c7.7-7.9,17-15.4,20.8-18.6c3.5-3,2.8-7.7,0.3-11.3c-0.9-1.4-2.1-2.6-3.3-3.4L1133,135.9z M1103.8,178.6
			c0.5-3.6,0.3-10.3,0.2-12.5c0.9-0.4,2.6-1.6,5.8-4c8.9-6.7,16.1-14.6,23.4-23.3c2.6,2.4,4.9,7.3,1.8,10.1
			c-3.7,3-13.5,10.9-21,18.6C1109.9,171.9,1106.2,175.8,1103.8,178.6z M1100.5,182.3c-1.1,1.4-2.8,1.8-5.6,1.2
			c-5.8-1.4-7-9.5-5.4-15.2c1.6-5.5,6.5-4.7,8-0.8l-6.3,6.3c0.2,0.6,0.5,4.5,3.7,5.5c2.3,0.8,4.2-1.6,4.9-4.4c0.3-1.8,0.5-4,0-6.5
			c-0.3-3-2.1-5.1-4.4-6.1c11-7.7,18.5-14.2,26.1-26.1c3.2,0.6,5.2,1.4,7.9,3.6c-7.3,8.5-22.4,24.5-27.4,24.5
			c0,1.2,0.5,11.3-0.2,14.8C1101.5,180.4,1101.2,181.5,1100.5,182.3z M1098,170.1c0.2,2.2,0,4.9-1.2,6.3c-1.2,1.8-2.8,0-3.3-1.8
			L1098,170.1z"/>
		<path class="st19" d="M1130.7,177.4c0,0-1.2-4.1-3.3-7.1s-6.1-4.7-6.1-4.7s2.6,3.2,3.7,7.7c1.2,4.5,1.4,6.5,1.4,6.5l-2.4-1.4
			l-1.9,4c0,0,0.9-5.3-1.2-10.1c-1.9-4.7-3.3-6.1-3.3-6.1c0.5-8.5-3.2-13-10.7-13.6l5.6-5.7c6.6-0.2,10.5,7.9,9.8,14.8
			c5.1,3.2,9.8,7.7,14,12.1l-3.8,0.8L1130.7,177.4z"/>
	</g>
	<rect x="1072.1" y="190.9" class="st2" width="92.4" height="17.8"/>
	<text transform="matrix(1.0255 0 0 1 1072.1104 204.45)" class="st3 st16">$695.073</text>
</g>
<g>
	<g>
		<path d="M1457.8,268.6c-0.5,0.6-1.2,1.4-2.1,2.4c-3.8-3.6-7.5-4.2-10.3-4.5c-8,13-17,20.6-28.8,28.7c-0.3,0-0.7,0.2-1.1,0.4
			c-2.1,1.4-3,3.8-3.5,6.7c-1.2,6.7,0.9,14.8,7.2,16.2c3.7,0.8,6.1,0.2,7.7-1.8c1.2-1.4,6.5-7.5,13.3-14.6
			c7.7-7.9,17-15.4,20.8-18.6c3.5-3,2.8-7.7,0.3-11.3c-0.9-1.4-2.1-2.6-3.3-3.4L1457.8,268.6z M1428.6,311.3
			c0.5-3.6,0.3-10.3,0.2-12.5c0.9-0.4,2.6-1.6,5.8-4c8.9-6.7,16.1-14.6,23.4-23.3c2.6,2.4,4.9,7.3,1.8,10.1
			c-3.7,3-13.5,10.9-21,18.6C1434.7,304.6,1431.1,308.5,1428.6,311.3z M1425.3,315c-1.1,1.4-2.8,1.8-5.6,1.2
			c-5.8-1.4-7-9.5-5.4-15.2c1.6-5.5,6.5-4.7,8-0.8l-6.3,6.3c0.2,0.6,0.5,4.5,3.7,5.5c2.3,0.8,4.2-1.6,4.9-4.3c0.3-1.8,0.5-4,0-6.5
			c-0.3-3-2.1-5.1-4.4-6.1c11-7.7,18.5-14.2,26.1-26.1c3.2,0.6,5.2,1.4,7.9,3.6c-7.3,8.5-22.4,24.5-27.4,24.5
			c0,1.2,0.5,11.3-0.2,14.8C1426.3,313.1,1426,314.2,1425.3,315z M1422.8,302.8c0.2,2.2,0,4.9-1.2,6.3c-1.2,1.8-2.8,0-3.3-1.8
			L1422.8,302.8z"/>
		<path class="st19" d="M1455.5,310.1c0,0-1.2-4.2-3.3-7.1s-6.1-4.7-6.1-4.7s2.6,3.2,3.7,7.7c1.2,4.5,1.4,6.5,1.4,6.5l-2.4-1.4
			l-1.9,4c0,0,0.9-5.3-1.2-10.1c-1.9-4.7-3.3-6.1-3.3-6.1c0.5-8.5-3.2-13-10.7-13.6l5.6-5.7c6.6-0.2,10.5,7.9,9.8,14.8
			c5.1,3.2,9.8,7.7,14,12.1l-3.8,0.8L1455.5,310.1z"/>
	</g>
	<rect x="1390.5" y="326.7" class="st2" width="109" height="19.1"/>
	<text transform="matrix(1.0255 0 0 1 1390.4844 340.157)" class="st3 st16">$1.041.390</text>
</g>
<path class="st17" d="M451.4,175.5c-0.6-0.4-1.3-0.6-2.1-0.5c-0.4,0-0.8,0.2-1.1,0.4l3.6,1.9c-1.1,1.6-2,3.3-2.9,5.1
	c-0.6,1.2-1.1,2.6-1.5,4c-0.3,1.1-0.5,2.3-0.4,3.5c1.7-0.5,3.5-2.9,4.7-5.8c0.8-1.8,1.2-3.9,1.2-6.1
	C452.7,176.9,452.2,176,451.4,175.5z"/>
<path class="st17" d="M427.2,152.3v7.4l19.9,9.1l0,0c1.5,0,3-0.1,4.5-0.3c3.9-0.7,6.4-2.1,6.4-3.6v-12.2l-12.2,5.3L427.2,152.3z"/>
<polygon class="st17" points="441.3,137 415,146.2 427.2,149.9 445.8,155.5 458.1,150.2 471.6,144.3 "/>
<path class="st17" d="M445.3,187.2c0-0.2,0-0.3,0.1-0.5s0.1-0.4,0.1-0.6V186c0.5-1.7,1-3.3,1.8-4.8c0.4-1,0.9-1.9,1.5-2.8v-0.1
	l-2.4-1.2c-0.6,0.8-1,1.6-1.4,2.6c-0.5,1.2-1,2.4-1.3,3.7l-28.1-16l-0.2,1c-0.2,1.5-0.2,3,0.6,3.5l29.6,18
	C445.2,189.3,445.1,188.4,445.3,187.2z"/>
<path class="st17" d="M443.4,178.5c1.7-4.1,4.6-6.5,6.9-5.7h-0.1l-30.9-14.1c-1.2-0.6-2.8,1-3.7,3.8c-0.2,0.6-0.4,1.3-0.5,1.9
	l27.8,15.8C443,179.6,443.2,179,443.4,178.5z"/>
</svg>
