<?xml version="1.0" encoding="utf-8"?>
<!-- Generator: Adobe Illustrator 24.2.3, SVG Export Plug-In . SVG Version: 6.00 Build 0)  -->
<svg version="1.1" id="Capa_1" xmlns="http://www.w3.org/2000/svg" xmlns:xlink="http://www.w3.org/1999/xlink" x="0px" y="0px"
	 viewBox="0 0 1920 1080" style="enable-background:new 0 0 1920 1080;" xml:space="preserve">
<style type="text/css">
	.st0{fill:none;stroke:#000000;stroke-width:3.0401;stroke-miterlimit:10;}
	.st1{fill:none;}
	.st2{font-family:'Optima-Bold';}
	.st3{font-size:16px;}
	.st4{letter-spacing:28.59;}
	.st5{letter-spacing:10.21;}
	.st6{fill:#FF0000;}
	.st7{font-size:21px;}
	.st8{stroke:#000000;stroke-width:0.25;stroke-miterlimit:10;}
	.st9{font-family:'Optima-Regular';}
	.st10{fill:#FCEE21;}
	.st11{font-family:'Arial-Black';}
	.st12{font-size:16.6514px;}
	.st13{fill:#FF0000;stroke:#FF0000;stroke-width:1.3343;stroke-miterlimit:10;}
	.st14{font-size:18px;}
	.st15{fill:#FF0000;stroke:#FF0000;stroke-width:0.2169;stroke-miterlimit:10;}
	.st16{stroke:#000000;stroke-width:0.1414;stroke-miterlimit:10;}
	.st17{fill-rule:evenodd;clip-rule:evenodd;}
</style>
<rect x="292.27" y="561.5" class="st0" width="1385.42" height="21.28"/>
<rect x="306.17" y="565.88" class="st1" width="1371.8" height="36.79"/>
<text transform="matrix(0.9794 0 0 1 306.174 577.9117)"><tspan x="0" y="0" class="st2 st3">$100.000</tspan><tspan x="66.72" y="0" class="st2 st3 st4">	</tspan><tspan x="99.91" y="0" class="st2 st3 st4">	</tspan><tspan x="133.21" y="0" class="st2 st3">$200.000</tspan><tspan x="199.93" y="0" class="st2 st3 st4">	</tspan><tspan x="233.12" y="0" class="st2 st3 st4">	</tspan><tspan x="266.42" y="0" class="st2 st3">$300.000</tspan><tspan x="333.14" y="0" class="st2 st3 st4">	</tspan><tspan x="366.33" y="0" class="st2 st3 st4">	</tspan><tspan x="399.63" y="0" class="st2 st3">$400.000</tspan><tspan x="466.35" y="0" class="st2 st3 st4">	</tspan><tspan x="499.54" y="0" class="st2 st3 st4">	</tspan><tspan x="532.85" y="0" class="st2 st3">$500.000</tspan><tspan x="599.57" y="0" class="st2 st3 st4">	</tspan><tspan x="632.75" y="0" class="st2 st3 st4">	</tspan><tspan x="666.06" y="0" class="st2 st3">$600.000</tspan><tspan x="732.78" y="0" class="st2 st3 st4">	</tspan><tspan x="765.97" y="0" class="st2 st3 st4">	</tspan><tspan x="799.27" y="0" class="st2 st3">$700.000</tspan><tspan x="865.99" y="0" class="st2 st3 st4">	</tspan><tspan x="899.18" y="0" class="st2 st3 st4">	</tspan><tspan x="932.48" y="0" class="st2 st3">$800.000</tspan><tspan x="999.2" y="0" class="st2 st3 st4">	</tspan><tspan x="1032.39" y="0" class="st2 st3 st4">	</tspan><tspan x="1065.69" y="0" class="st2 st3">$900.000</tspan><tspan x="1132.41" y="0" class="st2 st3 st4">	</tspan><tspan x="1165.6" y="0" class="st2 st3 st4">	</tspan><tspan x="1198.9" y="0" class="st2 st3">$1.000.000 </tspan><tspan x="1283.41" y="0" class="st2 st3 st5">	</tspan><tspan x="1298.81" y="0" class="st2 st3 st4">	</tspan><tspan x="1332.11" y="0" class="st2 st3">   +++</tspan></text>
<path class="st6" d="M757.98,482.53h-3.72c-0.57-2.29-1.37-4.25-2.75-6.15l3.15-3.07c0.17-0.17,0.4-0.56,0.4-0.78
	c0-0.39-0.17-0.56-0.4-0.78l-4.12-4.02c-0.4-0.39-1.2-0.39-1.77,0l-3.15,3.07c-1.77-1.17-3.72-1.9-5.72-2.51v-4.02
	c0-0.56-0.57-1.17-1.2-1.17h-5.89c-0.57,0-1.2,0.56-1.2,1.17v3.86c-2.17,0.39-4.12,1.34-5.89,2.29l-3.38-3.3
	c-0.4-0.39-1.2-0.39-1.77,0l-4.12,4.02c-0.17,0.17-0.4,0.56-0.4,0.78c0,0.17,0.17,0.56,0.4,0.78l3.38,3.3
	c-1.2,1.9-2.17,4.02-2.75,6.37h-3.78c-0.57,0-1.2,0.56-1.2,1.17v5.76c0,0.56,0.57,1.17,1.2,1.17h3.72c0.34,1.96,1.26,3.74,2.12,5.36
	l3.03-3.58c-0.8-1.79-1.26-3.8-1.26-5.87c0-7.99,6.64-14.47,14.82-14.47c8.18,0,14.82,6.48,14.82,14.47
	c0,7.99-6.64,14.47-14.82,14.47c-1.43,0-2.86-0.22-4.18-0.56l-2.86,3.35c0.92,0.34,1.89,0.61,2.86,0.84v3.3
	c0,0.56,0.57,1.17,1.2,1.17h5.89c0.57,0,1.2-0.56,1.2-1.17v-3.46c2.35-0.56,4.35-1.34,6.29-2.68l2.57,2.51
	c0.17,0.17,0.57,0.39,0.8,0.39s0.57-0.17,0.8-0.39l4.12-4.02c0.17-0.17,0.4-0.56,0.4-0.78c0-0.39-0.17-0.56-0.4-0.78l-2.57-2.51
	c1.2-1.73,1.95-3.63,2.35-5.76h3.72c0.57,0,1.2-0.56,1.2-1.17v-5.81C759.18,483.14,758.78,482.53,757.98,482.53z"/>
<path class="st6" d="M747.34,485.15c-0.17-1.84-0.8-3.63-1.95-5.2l-7.15,8.27l-4.69-3.8l7.15-8.21c-1.66-0.67-3.43-0.95-5.21-0.84
	c-6.01,0.5-10.53,5.7-10.01,11.57c0.11,1.17,0.4,2.35,0.92,3.46l0.06,0.11l-17.39,20.06c-0.74,0.84-1.09,1.96-1.03,3.07
	c0.11,1.12,0.63,2.12,1.49,2.85c0.86,0.73,2,1.06,3.15,1.01c1.14-0.11,2.17-0.61,2.92-1.45l17.16-19.84l0.17,0.06
	c1.43,0.45,2.92,0.61,4.4,0.5C743.33,496.27,747.85,491.08,747.34,485.15z M712.56,514.55c-0.86,0.06-1.54-0.56-1.6-1.34
	c-0.06-0.84,0.57-1.51,1.37-1.56c0.86-0.06,1.54,0.56,1.6,1.34C713.99,513.77,713.41,514.49,712.56,514.55z"/>
<rect x="1013.19" y="705.69" class="st1" width="91.99" height="32.32"/>
<text transform="matrix(0.9794 0 0 1 1013.1925 721.4786)" class="st2 st7">$638.654</text>
<rect x="783.29" y="348.33" class="st1" width="439.9" height="108.68"/>
<text transform="matrix(1 0 0 1 941.3712 364.1216)" class="st8 st2 st7">ATACAMA lll</text>
<text transform="matrix(1 0 0 1 792.2384 414.5215)" class="st8 st2 st7">Población:</text>
<text transform="matrix(1 0 0 1 889.131 414.5215)" class="st8 st9 st7"> 286.168   </text>
<text transform="matrix(1 0 0 1 988.3751 414.5215)" class="st8 st2 st7">Superficie:</text>
<text transform="matrix(1 0 0 1 1086.024 414.5215)" class="st8 st9 st7"> 75.176,2 km</text>
<text transform="matrix(0.583 0 0 0.583 1207.423 407.5289)" class="st8 st9 st7">2</text>
<rect x="1057.38" y="453.06" class="st10" width="4.53" height="244"/>
<rect x="209.62" y="505.56" class="st1" width="105.45" height="23.66"/>
<text transform="matrix(0.9794 0 0 1 209.6246 517.4835)" class="st11 st12">MUJERES</text>
<rect x="209.62" y="627.01" class="st1" width="96.18" height="26.03"/>
<text transform="matrix(0.9794 0 0 1 209.6246 638.9273)" class="st11 st12">HOMBRES</text>
<rect x="408.69" y="389.8" class="st1" width="80.55" height="23.32"/>
<g>
	<g>
		<path class="st13" d="M688.27,619.89h-13.84c-1.74,0-3.16,1.62-3.16,3.61v15.82c0,1.99,1.42,3.61,3.16,3.61h13.84
			c1.74,0,3.16-1.62,3.16-3.61V623.5C691.43,621.51,690.02,619.89,688.27,619.89z M690.33,639.32c0,1.3-0.92,2.35-2.06,2.35h-13.84
			c-1.13,0-2.06-1.06-2.06-2.35V623.5c0-1.3,0.92-2.35,2.06-2.35h13.84c1.13,0,2.06,1.06,2.06,2.35L690.33,639.32L690.33,639.32z"/>
		<path class="st13" d="M683.67,630.36c0.96-0.49,1.49-1.1,1.49-2.5c0-1.72-1.01-3.07-3.58-3.07h-3.95v11.59h4.44
			c2.64,0,3.66-1.48,3.66-3.22C685.73,631.67,684.91,630.66,683.67,630.36z M679.35,626.6h2.19c1.09,0,1.84,0.32,1.84,1.56
			c0,0.96-0.62,1.44-1.86,1.44h-2.18L679.35,626.6L679.35,626.6z M682.04,634.57h-2.68v-3.17h2.47c1.44,0,2.16,0.51,2.16,1.54
			C683.98,634.27,683.2,634.57,682.04,634.57z"/>
		<path class="st13" d="M699.97,618.11c1.74,0,3.16-1.62,3.16-3.61v-15.82c0-1.99-1.42-3.61-3.16-3.61h-13.84
			c-1.74,0-3.16,1.62-3.16,3.61v15.82c0,1.99,1.42,3.61,3.16,3.61L699.97,618.11L699.97,618.11z M684.07,614.5v-15.82
			c0-1.3,0.92-2.35,2.06-2.35h13.84c1.13,0,2.06,1.06,2.06,2.35v15.82c0,1.3-0.92,2.35-2.06,2.35h-13.84
			C685,616.86,684.07,615.8,684.07,614.5z"/>
		<path class="st13" d="M690.51,608.93h5.08l1.02,2.64h1.83l-4.47-11.59h-1.83l-4.47,11.59h1.83L690.51,608.93z M693.05,602.34
			l1.84,4.78h-3.68L693.05,602.34z"/>
		<path class="st13" d="M711.74,619.89H697.9c-1.74,0-3.16,1.62-3.16,3.61v15.82c0,1.99,1.42,3.61,3.16,3.61h13.84
			c1.74,0,3.16-1.62,3.16-3.61V623.5C714.89,621.51,713.48,619.89,711.74,619.89z M713.79,639.32c0,1.3-0.92,2.35-2.06,2.35H697.9
			c-1.13,0-2.06-1.06-2.06-2.35V623.5c0-1.3,0.92-2.35,2.06-2.35h13.84c1.13,0,2.06,1.06,2.06,2.35L713.79,639.32L713.79,639.32z"/>
		<path class="st13" d="M705.64,626.43c1.23,0,1.98,0.43,2.89,1.43l1.09-1.36c-1.05-1.33-2.37-1.99-3.94-1.99
			c-3.19,0-5.45,2.61-5.45,6.03c0,3.53,2.31,5.97,5.33,5.97c1.53,0,2.84-0.68,3.91-2.04l-1.1-1.29c-1.05,1.12-1.82,1.43-2.86,1.43
			c-1.83,0-3.5-1.68-3.5-4.14C702.02,628.05,703.64,626.43,705.64,626.43z"/>
	</g>
	<rect x="653.85" y="650.07" class="st1" width="84.34" height="24.12"/>
	<text transform="matrix(0.9273 0 0 1 653.8468 663.6109)" class="st2 st14">$380.891</text>
</g>
<rect x="595.62" y="528.07" class="st1" width="99.56" height="21.94"/>
<text transform="matrix(1.0255 0 0 1 595.6232 541.605)" class="st2 st14">$336.659</text>
<g>
	<g>
		<path class="st13" d="M537.07,498.79h-13.84c-1.74,0-3.16,1.62-3.16,3.61v15.82c0,1.99,1.42,3.61,3.16,3.61h13.84
			c1.74,0,3.16-1.62,3.16-3.61v-15.82C540.23,500.41,538.81,498.79,537.07,498.79z M539.13,518.22c0,1.3-0.92,2.35-2.06,2.35h-13.84
			c-1.13,0-2.06-1.06-2.06-2.35v-15.82c0-1.3,0.92-2.35,2.06-2.35h13.84c1.13,0,2.06,1.06,2.06,2.35L539.13,518.22L539.13,518.22z"
			/>
		<path class="st13" d="M532.47,509.26c0.96-0.49,1.49-1.1,1.49-2.5c0-1.72-1.01-3.07-3.58-3.07h-3.95v11.59h4.44
			c2.64,0,3.66-1.48,3.66-3.22C534.53,510.57,533.71,509.56,532.47,509.26z M528.15,505.49h2.19c1.09,0,1.84,0.32,1.84,1.56
			c0,0.96-0.62,1.44-1.86,1.44h-2.18L528.15,505.49L528.15,505.49z M530.83,513.47h-2.68v-3.17h2.47c1.44,0,2.16,0.51,2.16,1.54
			C532.78,513.17,532,513.47,530.83,513.47z"/>
		<path class="st13" d="M548.77,497.01c1.74,0,3.16-1.62,3.16-3.61v-15.82c0-1.99-1.42-3.61-3.16-3.61h-13.84
			c-1.74,0-3.16,1.62-3.16,3.61v15.82c0,1.99,1.42,3.61,3.16,3.61L548.77,497.01L548.77,497.01z M532.87,493.4v-15.82
			c0-1.3,0.92-2.35,2.06-2.35h13.84c1.13,0,2.06,1.06,2.06,2.35v15.82c0,1.3-0.92,2.35-2.06,2.35h-13.84
			C533.8,495.75,532.87,494.7,532.87,493.4z"/>
		<path class="st13" d="M539.31,487.82h5.08l1.02,2.64h1.83l-4.47-11.59h-1.83l-4.47,11.59h1.83L539.31,487.82z M541.85,481.24
			l1.84,4.78h-3.68L541.85,481.24z"/>
		<path class="st13" d="M560.53,498.79h-13.84c-1.74,0-3.16,1.62-3.16,3.61v15.82c0,1.99,1.42,3.61,3.16,3.61h13.84
			c1.74,0,3.16-1.62,3.16-3.61v-15.82C563.69,500.41,562.28,498.79,560.53,498.79z M562.59,518.22c0,1.3-0.92,2.35-2.06,2.35h-13.84
			c-1.13,0-2.06-1.06-2.06-2.35v-15.82c0-1.3,0.92-2.35,2.06-2.35h13.84c1.13,0,2.06,1.06,2.06,2.35L562.59,518.22L562.59,518.22z"
			/>
		<path class="st13" d="M554.44,505.33c1.23,0,1.98,0.43,2.89,1.43l1.09-1.36c-1.05-1.33-2.37-1.99-3.94-1.99
			c-3.19,0-5.45,2.61-5.45,6.03c0,3.53,2.31,5.97,5.33,5.97c1.53,0,2.84-0.68,3.91-2.04l-1.1-1.29c-1.05,1.12-1.82,1.43-2.86,1.43
			c-1.83,0-3.5-1.68-3.5-4.14C550.82,506.94,552.43,505.33,554.44,505.33z"/>
	</g>
	<rect x="497.1" y="528.39" class="st1" width="93.09" height="18.81"/>
	<text transform="matrix(1.0255 0 0 1 497.0953 541.9229)" class="st2 st14">$269.457</text>
</g>
<path class="st15" d="M935.19,636.32c-0.64-0.41-1.35-0.59-2.06-0.54c-0.39,0.05-0.77,0.18-1.12,0.38l3.58,1.85
	c-1.06,1.61-2.03,3.32-2.89,5.11c-0.62,1.25-1.12,2.59-1.5,3.99c-0.33,1.12-0.46,2.31-0.38,3.5c1.71-0.49,3.52-2.9,4.69-5.78
	c0.83-1.84,1.23-3.94,1.15-6.06C936.52,637.69,935.97,636.78,935.19,636.32z"/>
<path class="st15" d="M911.01,613.14v7.41l19.89,9.06h0.01c1.52,0,3.04-0.11,4.55-0.33c3.88-0.72,6.39-2.11,6.39-3.57V613.5
	l-12.21,5.29L911.01,613.14z"/>
<polygon class="st15" points="925.1,597.8 898.78,607.02 911.01,610.72 929.56,616.33 941.85,611.02 955.39,605.15 "/>
<path class="st15" d="M929.09,648.02c0.02-0.15,0.05-0.33,0.07-0.52c0.02-0.19,0.07-0.41,0.14-0.63l0.04-0.14
	c0.45-1.7,1.05-3.32,1.8-4.84c0.44-0.96,0.94-1.88,1.48-2.75c0.02-0.03,0.04-0.06,0.05-0.1l-2.42-1.24
	c-0.57,0.77-1.05,1.63-1.44,2.56c-0.53,1.16-0.97,2.38-1.31,3.65l-28.08-16l-0.17,0.96c-0.24,1.48-0.17,3.05,0.58,3.45l29.61,18.02
	C929.01,650.05,928.92,649.19,929.09,648.02z"/>
<path class="st15" d="M927.15,639.28c1.67-4.12,4.61-6.48,6.87-5.72l-0.09-0.04L903,619.4c-1.15-0.63-2.8,1.04-3.7,3.77
	c-0.21,0.62-0.36,1.27-0.46,1.93l27.76,15.81C926.75,640.35,926.94,639.81,927.15,639.28z"/>
<rect x="888.19" y="657.05" class="st1" width="100" height="20.96"/>
<text transform="matrix(1.0255 0 0 1 888.1857 670.5865)" class="st2 st14">$545.241</text>
<rect x="683.47" y="527.6" class="st1" width="103.71" height="22.29"/>
<text transform="matrix(1.0255 0 0 1 683.4738 541.1402)" class="st2 st14">$386.726</text>
<g>
	<path class="st16" d="M1420.93,616.36h-3.72c-0.57-2.29-1.37-4.25-2.75-6.15l3.15-3.07c0.17-0.17,0.4-0.56,0.4-0.78
		c0-0.39-0.17-0.56-0.4-0.78l-4.12-4.02c-0.4-0.39-1.2-0.39-1.77,0l-3.15,3.07c-1.77-1.17-3.72-1.9-5.72-2.51v-4.02
		c0-0.56-0.57-1.17-1.2-1.17h-5.89c-0.57,0-1.2,0.56-1.2,1.17v3.86c-2.17,0.39-4.12,1.34-5.89,2.29l-3.38-3.3
		c-0.4-0.39-1.2-0.39-1.77,0l-4.12,4.02c-0.17,0.17-0.4,0.56-0.4,0.78c0,0.17,0.17,0.56,0.4,0.78l3.38,3.3
		c-1.2,1.9-2.17,4.02-2.75,6.37h-3.78c-0.57,0-1.2,0.56-1.2,1.17v5.76c0,0.56,0.57,1.17,1.2,1.17h3.72
		c0.34,1.96,1.26,3.74,2.12,5.36l3.03-3.58c-0.8-1.79-1.26-3.8-1.26-5.87c0-7.99,6.64-14.47,14.82-14.47
		c8.18,0,14.82,6.48,14.82,14.47s-6.64,14.47-14.82,14.47c-1.43,0-2.86-0.22-4.18-0.56l-2.86,3.35c0.92,0.34,1.89,0.61,2.86,0.84
		v3.3c0,0.56,0.57,1.17,1.2,1.17h5.89c0.57,0,1.2-0.56,1.2-1.17v-3.46c2.35-0.56,4.35-1.34,6.29-2.68l2.57,2.51
		c0.17,0.17,0.57,0.39,0.8,0.39c0.23,0,0.57-0.17,0.8-0.39l4.12-4.02c0.17-0.17,0.4-0.56,0.4-0.78c0-0.39-0.17-0.56-0.4-0.78
		l-2.57-2.51c1.2-1.73,1.94-3.63,2.35-5.76h3.72c0.57,0,1.2-0.56,1.2-1.17v-5.81C1422.13,616.98,1421.73,616.36,1420.93,616.36z"/>
	<path class="st16" d="M1410.29,618.99c-0.17-1.84-0.8-3.63-1.94-5.2l-7.15,8.27l-4.69-3.8l7.15-8.21
		c-1.66-0.67-3.43-0.95-5.21-0.84c-6.01,0.5-10.53,5.7-10.01,11.57c0.11,1.17,0.4,2.35,0.92,3.46l0.06,0.11l-17.39,20.06
		c-0.74,0.84-1.09,1.96-1.03,3.07c0.11,1.12,0.63,2.12,1.49,2.85c0.86,0.73,2,1.06,3.15,1.01c1.14-0.11,2.17-0.61,2.92-1.45
		l17.16-19.84l0.17,0.06c1.43,0.45,2.92,0.61,4.4,0.5C1406.28,630.11,1410.8,624.91,1410.29,618.99z M1375.51,648.38
		c-0.86,0.06-1.54-0.56-1.6-1.34c-0.06-0.84,0.57-1.51,1.37-1.56c0.86-0.06,1.54,0.56,1.6,1.34
		C1376.94,647.6,1376.36,648.33,1375.51,648.38z"/>
	<rect x="1350.19" y="660.44" class="st1" width="86.83" height="19.57"/>
	<text transform="matrix(1.0255 0 0 1 1350.1857 673.9737)" class="st2 st14">$705.257</text>
</g>
<g>
	<g>
		<path d="M1334.68,469.13c-0.52,0.59-1.22,1.38-2.1,2.37c-3.85-3.56-7.52-4.15-10.31-4.55c-8.04,13.05-16.96,20.56-28.85,28.67
			c-0.35,0-0.7,0.2-1.05,0.4c-2.1,1.38-2.97,3.76-3.5,6.72c-1.22,6.72,0.87,14.83,7.17,16.21c3.67,0.79,6.12,0.2,7.69-1.78
			c1.22-1.38,6.47-7.51,13.29-14.63c7.69-7.91,16.96-15.42,20.8-18.58c3.5-2.97,2.8-7.71,0.35-11.27c-0.87-1.38-2.1-2.57-3.32-3.36
			L1334.68,469.13z M1305.48,511.83c0.52-3.56,0.35-10.28,0.17-12.46c0.87-0.4,2.62-1.58,5.77-3.95
			c8.92-6.72,16.08-14.63,23.43-23.33c2.62,2.37,4.9,7.32,1.75,10.08c-3.67,2.97-13.46,10.87-20.98,18.58
			C1311.6,505.11,1307.93,509.06,1305.48,511.83z M1302.16,515.59c-1.05,1.38-2.8,1.78-5.59,1.19c-5.77-1.38-6.99-9.49-5.42-15.22
			c1.57-5.54,6.47-4.74,8.04-0.79l-6.29,6.33c0.17,0.59,0.52,4.55,3.67,5.54c2.27,0.79,4.2-1.58,4.9-4.35
			c0.35-1.78,0.52-3.95,0-6.52c-0.35-2.97-2.1-5.14-4.37-6.13c11.01-7.71,18.53-14.23,26.05-26.1c3.15,0.59,5.24,1.38,7.87,3.56
			c-7.34,8.5-22.38,24.52-27.45,24.52c0,1.19,0.52,11.27-0.17,14.83C1303.21,513.61,1302.86,514.8,1302.16,515.59z M1299.71,503.33
			c0.17,2.17,0,4.94-1.22,6.33c-1.22,1.78-2.8,0-3.32-1.78L1299.71,503.33z"/>
		<path class="st17" d="M1332.41,510.65c0,0-1.22-4.15-3.32-7.12s-6.12-4.74-6.12-4.74s2.62,3.16,3.67,7.71
			c1.22,4.55,1.4,6.52,1.4,6.52l-2.45-1.38l-1.92,3.95c0,0,0.87-5.34-1.22-10.08c-1.92-4.74-3.32-6.13-3.32-6.13
			c0.52-8.5-3.15-13.05-10.66-13.64l5.59-5.73c6.64-0.2,10.49,7.91,9.79,14.83c5.07,3.16,9.79,7.71,13.99,12.06l-3.85,0.79
			L1332.41,510.65z"/>
	</g>
	<rect x="1273.81" y="524.2" class="st1" width="92.37" height="17.8"/>
	<text transform="matrix(1.0255 0 0 1 1273.8116 537.7408)" class="st2 st14">$695.073</text>
</g>
<g>
	<g>
		<path d="M1659.51,601.83c-0.52,0.59-1.22,1.38-2.1,2.37c-3.85-3.56-7.52-4.15-10.31-4.55c-8.04,13.05-16.96,20.56-28.85,28.67
			c-0.35,0-0.7,0.2-1.05,0.4c-2.1,1.38-2.97,3.76-3.5,6.72c-1.22,6.72,0.87,14.83,7.17,16.21c3.67,0.79,6.12,0.2,7.69-1.78
			c1.22-1.38,6.47-7.51,13.29-14.63c7.69-7.91,16.96-15.42,20.8-18.58c3.5-2.97,2.8-7.71,0.35-11.27c-0.87-1.38-2.1-2.57-3.32-3.36
			L1659.51,601.83z M1630.31,644.54c0.52-3.56,0.35-10.28,0.17-12.46c0.87-0.4,2.62-1.58,5.77-3.95
			c8.92-6.72,16.08-14.63,23.43-23.33c2.62,2.37,4.9,7.32,1.75,10.08c-3.67,2.97-13.46,10.87-20.98,18.58
			C1636.43,637.82,1632.76,641.77,1630.31,644.54z M1626.99,648.3c-1.05,1.38-2.8,1.78-5.59,1.19c-5.77-1.38-6.99-9.49-5.42-15.22
			c1.57-5.54,6.47-4.74,8.04-0.79l-6.29,6.33c0.17,0.59,0.52,4.55,3.67,5.54c2.27,0.79,4.2-1.58,4.9-4.35
			c0.35-1.78,0.52-3.95,0-6.52c-0.35-2.97-2.1-5.14-4.37-6.13c11.01-7.71,18.53-14.23,26.05-26.1c3.15,0.59,5.24,1.38,7.87,3.56
			c-7.34,8.5-22.38,24.52-27.45,24.52c0,1.19,0.52,11.27-0.17,14.83C1628.04,646.32,1627.69,647.5,1626.99,648.3z M1624.55,636.04
			c0.17,2.17,0,4.94-1.22,6.33c-1.22,1.78-2.8,0-3.32-1.78L1624.55,636.04z"/>
		<path class="st17" d="M1657.24,643.35c0,0-1.22-4.15-3.32-7.12c-2.1-2.97-6.12-4.74-6.12-4.74s2.62,3.16,3.67,7.71
			c1.22,4.55,1.4,6.52,1.4,6.52l-2.45-1.38l-1.92,3.95c0,0,0.87-5.34-1.22-10.08c-1.92-4.74-3.32-6.13-3.32-6.13
			c0.52-8.5-3.15-13.05-10.66-13.64l5.59-5.73c6.64-0.2,10.49,7.91,9.79,14.83c5.07,3.16,9.79,7.71,13.99,12.06l-3.85,0.79
			L1657.24,643.35z"/>
	</g>
	<rect x="1592.19" y="659.91" class="st1" width="109" height="19.1"/>
	<text transform="matrix(1.0255 0 0 1 1592.1857 673.4478)" class="st2 st14">$1.041.390</text>
</g>
<path class="st15" d="M653.12,508.78c-0.64-0.41-1.35-0.59-2.06-0.54c-0.39,0.05-0.77,0.18-1.12,0.38l3.58,1.85
	c-1.06,1.61-2.03,3.32-2.89,5.11c-0.62,1.25-1.12,2.59-1.5,3.99c-0.33,1.12-0.46,2.31-0.38,3.5c1.71-0.49,3.52-2.9,4.69-5.78
	c0.83-1.84,1.23-3.94,1.15-6.06C654.45,510.15,653.9,509.23,653.12,508.78z"/>
<path class="st15" d="M628.94,485.6v7.41l19.89,9.06h0.01c1.52,0,3.04-0.11,4.55-0.33c3.88-0.72,6.39-2.11,6.39-3.57v-12.21
	l-12.21,5.29L628.94,485.6z"/>
<polygon class="st15" points="643.03,470.26 616.7,479.48 628.94,483.17 647.48,488.79 659.78,483.47 673.32,477.6 "/>
<path class="st15" d="M647.02,520.48c0.02-0.15,0.05-0.33,0.07-0.52c0.02-0.19,0.07-0.41,0.14-0.63l0.04-0.14
	c0.45-1.7,1.05-3.32,1.8-4.84c0.44-0.96,0.94-1.88,1.48-2.75c0.02-0.03,0.04-0.06,0.05-0.1l-2.42-1.24
	c-0.57,0.77-1.05,1.63-1.44,2.56c-0.53,1.16-0.97,2.38-1.31,3.65l-28.08-16l-0.17,0.96c-0.24,1.48-0.17,3.05,0.58,3.45l29.61,18.02
	C646.94,522.51,646.84,521.65,647.02,520.48z"/>
<path class="st15" d="M645.08,511.73c1.67-4.12,4.61-6.48,6.87-5.72l-0.09-0.04l-30.93-14.12c-1.15-0.63-2.8,1.04-3.7,3.77
	c-0.21,0.62-0.36,1.27-0.46,1.93l27.76,15.81C644.68,512.81,644.86,512.26,645.08,511.73z"/>
</svg>
