<?xml version="1.0" encoding="utf-8"?>
<!-- Generator: Adobe Illustrator 22.0.1, SVG Export Plug-In . SVG Version: 6.00 Build 0)  -->
<svg version="1.1" id="Capa_1" xmlns="http://www.w3.org/2000/svg" xmlns:xlink="http://www.w3.org/1999/xlink" x="0px" y="0px"
	 viewBox="0 0 1500.3 410.5" style="enable-background:new 0 0 1500.3 410.5;" xml:space="preserve">
<style type="text/css">
	.st0{opacity:0.8;fill:#DCF4F3;stroke:#416190;stroke-width:5;stroke-miterlimit:5.83;}
	.st1{fill:none;stroke:#000000;stroke-width:3.0401;stroke-miterlimit:10;}
	.st2{fill:none;}
	.st3{font-family:'ArialMT';}
	.st4{font-size:16px;}
	.st5{letter-spacing:27.6;}
	.st6{letter-spacing:8.2;}
	.st7{fill:#FF0000;}
	.st8{font-size:21px;}
	.st9{font-family:'Verdana-Bold';}
	.st10{fill:none;stroke:#000000;stroke-width:0.25;stroke-miterlimit:10;}
	.st11{font-size:12.243px;}
	.st12{fill:#FCEE21;}
	.st13{font-size:16.6514px;}
	.st14{fill:#FF0000;stroke:#FF0000;stroke-width:1.3664;stroke-miterlimit:10;}
	.st15{font-size:18.9273px;}
	.st16{fill:#FF0000;stroke:#FF0000;stroke-width:1.3343;stroke-miterlimit:10;}
	.st17{font-size:18px;}
	.st18{fill:#FF0000;stroke:#FF0000;stroke-width:0.2169;stroke-miterlimit:10;}
	.st19{stroke:#000000;stroke-width:0.1414;stroke-miterlimit:10;}
</style>
<path class="st0" d="M44.9,2.6h1410.5c23.5,0,42.5,19,42.5,42.5v320.2c0,23.5-19,42.5-42.5,42.5H44.9c-23.5,0-42.5-19-42.5-42.5
	V45.1C2.4,21.6,21.4,2.6,44.9,2.6z"/>
<rect x="99" y="236.4" class="st1" width="1385.4" height="21.3"/>
<rect x="112.9" y="240.8" class="st2" width="1371.8" height="36.8"/>
<text transform="matrix(0.9794 0 0 1 112.8584 252.7837)" class="st3 st4">$100.000</text>
<text transform="matrix(0.9794 0 0 1 178.2041 252.7837)" class="st3 st4 st5"> </text>
<text transform="matrix(0.9794 0 0 1 210.7109 252.7837)" class="st3 st4 st5"> </text>
<text transform="matrix(0.9794 0 0 1 243.3247 252.7837)" class="st3 st4">$200.000</text>
<text transform="matrix(0.9794 0 0 1 308.6699 252.7837)" class="st3 st4 st5"> </text>
<text transform="matrix(0.9794 0 0 1 341.1768 252.7837)" class="st3 st4 st5"> </text>
<text transform="matrix(0.9794 0 0 1 373.79 252.7837)" class="st3 st4">$300.000</text>
<text transform="matrix(0.9794 0 0 1 439.1357 252.7837)" class="st3 st4 st5"> </text>
<text transform="matrix(0.9794 0 0 1 471.6426 252.7837)" class="st3 st4 st5"> </text>
<text transform="matrix(0.9794 0 0 1 504.2559 252.7837)" class="st3 st4">$400.000</text>
<text transform="matrix(0.9794 0 0 1 569.6016 252.7837)" class="st3 st4 st5"> </text>
<text transform="matrix(0.9794 0 0 1 602.1084 252.7837)" class="st3 st4 st5"> </text>
<text transform="matrix(0.9794 0 0 1 634.7324 252.7837)" class="st3 st4">$500.000</text>
<text transform="matrix(0.9794 0 0 1 700.0771 252.7837)" class="st3 st4 st5"> </text>
<text transform="matrix(0.9794 0 0 1 732.5742 252.7837)" class="st3 st4 st5"> </text>
<text transform="matrix(0.9794 0 0 1 765.1982 252.7837)" class="st3 st4">$600.000</text>
<text transform="matrix(0.9794 0 0 1 830.5439 252.7837)" class="st3 st4 st5"> </text>
<text transform="matrix(0.9794 0 0 1 863.0498 252.7837)" class="st3 st4 st5"> </text>
<text transform="matrix(0.9794 0 0 1 895.6641 252.7837)" class="st3 st4">$700.000</text>
<text transform="matrix(0.9794 0 0 1 961.0098 252.7837)" class="st3 st4 st5"> </text>
<text transform="matrix(0.9794 0 0 1 993.5156 252.7837)" class="st3 st4 st5"> </text>
<text transform="matrix(0.9794 0 0 1 1026.1299 252.7837)" class="st3 st4">$800.000</text>
<text transform="matrix(0.9794 0 0 1 1091.4756 252.7837)" class="st3 st4 st5"> </text>
<text transform="matrix(0.9794 0 0 1 1123.9814 252.7837)" class="st3 st4 st5"> </text>
<text transform="matrix(0.9794 0 0 1 1156.5957 252.7837)" class="st3 st4">$900.000</text>
<text transform="matrix(0.9794 0 0 1 1221.9414 252.7837)" class="st3 st4 st5"> </text>
<text transform="matrix(0.9794 0 0 1 1254.4473 252.7837)" class="st3 st4 st5"> </text>
<text transform="matrix(0.9794 0 0 1 1287.0615 252.7837)" class="st3 st4">$1.000.000 </text>
<text transform="matrix(0.9794 0 0 1 1369.8311 252.7837)" class="st3 st4 st6"> </text>
<text transform="matrix(0.9794 0 0 1 1384.9131 252.7837)" class="st3 st4 st5"> </text>
<text transform="matrix(0.9794 0 0 1 1417.5273 252.7837)" class="st3 st4">   +++</text>
<path class="st7" d="M804.7,157.4H801c-0.6-2.3-1.4-4.2-2.8-6.1l3.2-3.1c0.2-0.2,0.4-0.6,0.4-0.8c0-0.4-0.2-0.6-0.4-0.8l-4.1-4
	c-0.4-0.4-1.2-0.4-1.8,0l-3.2,3.1c-1.8-1.2-3.7-1.9-5.7-2.5v-4c0-0.6-0.6-1.2-1.2-1.2h-5.9c-0.6,0-1.2,0.6-1.2,1.2v3.9
	c-2.2,0.4-4.1,1.3-5.9,2.3l-3.4-3.3c-0.4-0.4-1.2-0.4-1.8,0l-4.1,4c-0.2,0.2-0.4,0.6-0.4,0.8s0.2,0.6,0.4,0.8l3.4,3.3
	c-1.2,1.9-2.2,4-2.8,6.4h-3.8c-0.6,0-1.2,0.6-1.2,1.2v5.8c0,0.6,0.6,1.2,1.2,1.2h3.7c0.3,2,1.3,3.7,2.1,5.4l3-3.6
	c-0.8-1.8-1.3-3.8-1.3-5.9c0-8,6.6-14.5,14.8-14.5s14.8,6.5,14.8,14.5s-6.6,14.5-14.8,14.5c-1.4,0-2.9-0.2-4.2-0.6l-2.9,3.4
	c0.9,0.3,1.9,0.6,2.9,0.8v3.3c0,0.6,0.6,1.2,1.2,1.2h5.9c0.6,0,1.2-0.6,1.2-1.2v-3.5c2.3-0.6,4.3-1.3,6.3-2.7l2.6,2.5
	c0.2,0.2,0.6,0.4,0.8,0.4s0.6-0.2,0.8-0.4l4.1-4c0.2-0.2,0.4-0.6,0.4-0.8c0-0.4-0.2-0.6-0.4-0.8l-2.6-2.5c1.2-1.7,2-3.6,2.3-5.8h3.7
	c0.6,0,1.2-0.6,1.2-1.2v-5.8C805.9,158,805.5,157.4,804.7,157.4z"/>
<path class="st7" d="M794,160c-0.2-1.8-0.8-3.6-2-5.2l-7.2,8.3l-4.7-3.8l7.2-8.2c-1.7-0.7-3.4-1-5.2-0.8c-6,0.5-10.5,5.7-10,11.6
	c0.1,1.2,0.4,2.4,0.9,3.5l0.1,0.1l-17.3,20c-0.7,0.8-1.1,2-1,3.1s0.6,2.1,1.5,2.8s2,1.1,3.2,1c1.1-0.1,2.2-0.6,2.9-1.5l17.2-19.8
	l0.2,0.1c1.4,0.5,2.9,0.6,4.4,0.5C790,171.2,794.5,166,794,160z M759.2,189.4c-0.9,0.1-1.5-0.6-1.6-1.3c-0.1-0.8,0.6-1.5,1.4-1.6
	c0.9-0.1,1.5,0.6,1.6,1.3C760.7,188.7,760.1,189.4,759.2,189.4z"/>
<rect x="764.9" y="380.6" class="st2" width="92" height="32.3"/>
<text transform="matrix(0.9794 0 0 1 764.877 396.3506)" class="st3 st8">$604.521</text>
<rect x="590" y="23.2" class="st2" width="439.9" height="108.7"/>
<text transform="matrix(1 0 0 1 762.6623 38.9935)" class="st9 st8"> AYSÉN Xl</text>
<text transform="matrix(1 0 0 1 578.924 89.3934)" class="st9 st8">Población:</text>
<text transform="matrix(1 0 0 1 702.024 89.3934)" class="st3 st8"> </text>
<text transform="matrix(1 0 0 1 598.924 89.3934)" class="st10 st3 st8"> </text>
<text transform="matrix(1 0 0 1 704.6545 89.3934)" class="st3 st8">103.158 </text>
<text transform="matrix(1 0 0 1 791.3849 89.3934)" class="st9 st8">Superficie:</text>
<text transform="matrix(1 0 0 1 915.0339 89.3934)" class="st3 st8"> 108.494,4 km</text>
<text transform="matrix(1 0 0 1 1048.108 78.4007)" class="st3 st11">2</text>
<rect x="803.1" y="128" class="st12" width="4.5" height="244"/>
<rect x="16.3" y="180.5" class="st2" width="105.4" height="23.7"/>
<text transform="matrix(0.9794 0 0 1 16.3096 192.355)" class="st9 st13">MUJERES</text>
<rect x="16.3" y="301.9" class="st2" width="96.2" height="26"/>
<text transform="matrix(0.9794 0 0 1 16.3096 313.7993)" class="st9 st13">HOMBRES</text>
<rect x="215.4" y="64.7" class="st2" width="80.5" height="23.3"/>
<g>
	<g>
		<path class="st14" d="M467.9,298.1h-13.8c-1.7,0-3.2,1.7-3.2,3.8v16.6c0,2.1,1.4,3.8,3.2,3.8h13.8c1.7,0,3.2-1.7,3.2-3.8v-16.6
			C471,299.8,469.6,298.1,467.9,298.1z M469.9,318.5c0,1.4-0.9,2.5-2,2.5h-13.8c-1.1,0-2-1.1-2-2.5v-16.6c0-1.4,0.9-2.5,2-2.5h13.8
			c1.1,0,2,1.1,2,2.5V318.5L469.9,318.5z"/>
		<path class="st14" d="M463.3,309.1c1-0.5,1.5-1.2,1.5-2.6c0-1.8-1-3.2-3.6-3.2h-3.9v12.2h4.4c2.6,0,3.7-1.6,3.7-3.4
			C465.3,310.5,464.5,309.4,463.3,309.1z M459,305.1h2.2c1.1,0,1.8,0.3,1.8,1.6c0,1-0.6,1.5-1.8,1.5H459V305.1L459,305.1z
			 M461.7,313.5H459v-3.3h2.5c1.4,0,2.2,0.5,2.2,1.6C463.6,313.2,462.8,313.5,461.7,313.5z"/>
		<path class="st14" d="M479.5,296.2c1.7,0,3.2-1.7,3.2-3.8v-16.6c0-2.1-1.4-3.8-3.2-3.8h-13.8c-1.7,0-3.2,1.7-3.2,3.8v16.6
			c0,2.1,1.4,3.8,3.2,3.8H479.5L479.5,296.2z M463.7,292.4v-16.6c0-1.4,0.9-2.5,2-2.5h13.8c1.1,0,2,1.1,2,2.5v16.6
			c0,1.4-0.9,2.5-2,2.5h-13.8C464.6,294.9,463.7,293.8,463.7,292.4z"/>
		<path class="st14" d="M470.1,286.6h5.1l1,2.8h1.8l-4.5-12.2h-1.8l-4.5,12.2h1.8L470.1,286.6z M472.6,279.6l1.8,5h-3.7L472.6,279.6
			z"/>
		<path class="st14" d="M491.3,298.1h-13.8c-1.7,0-3.2,1.7-3.2,3.8v16.6c0,2.1,1.4,3.8,3.2,3.8h13.8c1.7,0,3.2-1.7,3.2-3.8v-16.6
			C494.4,299.8,493,298.1,491.3,298.1z M493.3,318.5c0,1.4-0.9,2.5-2,2.5h-13.8c-1.1,0-2-1.1-2-2.5v-16.6c0-1.4,0.9-2.5,2-2.5h13.8
			c1.1,0,2,1.1,2,2.5V318.5L493.3,318.5z"/>
		<path class="st14" d="M485.2,305c1.2,0,2,0.5,2.9,1.5l1.1-1.4c-1-1.4-2.4-2.1-3.9-2.1c-3.2,0-5.4,2.7-5.4,6.3
			c0,3.7,2.3,6.3,5.3,6.3c1.5,0,2.8-0.7,3.9-2.1l-1.1-1.4c-1,1.2-1.8,1.5-2.8,1.5c-1.8,0-3.5-1.8-3.5-4.3
			C481.6,306.7,483.2,305,485.2,305z"/>
	</g>
	<rect x="433.5" y="329.8" class="st2" width="84.1" height="25.4"/>
	<text transform="matrix(0.9484 0 0 1 433.5332 344.0483)" class="st3 st15">$387.882</text>
</g>
<g>
	<g>
		<path class="st16" d="M327.8,173.7H314c-1.7,0-3.2,1.6-3.2,3.6v15.8c0,2,1.4,3.6,3.2,3.6h13.8c1.7,0,3.2-1.6,3.2-3.6v-15.8
			C330.9,175.3,329.5,173.7,327.8,173.7z M329.8,193.1c0,1.3-0.9,2.3-2.1,2.3h-13.8c-1.1,0-2.1-1.1-2.1-2.3v-15.8
			c0-1.3,0.9-2.4,2.1-2.4h13.8c1.1,0,2.1,1.1,2.1,2.4V193.1L329.8,193.1z"/>
		<path class="st16" d="M323.2,184.2c1-0.5,1.5-1.1,1.5-2.5c0-1.7-1-3.1-3.6-3.1h-4v11.6h4.4c2.6,0,3.7-1.5,3.7-3.2
			C325.2,185.5,324.4,184.5,323.2,184.2z M318.8,180.4h2.2c1.1,0,1.8,0.3,1.8,1.6c0,1-0.6,1.4-1.9,1.4h-2.2L318.8,180.4L318.8,180.4
			z M321.5,188.4h-2.7v-3.2h2.5c1.4,0,2.2,0.5,2.2,1.5C323.5,188.1,322.7,188.4,321.5,188.4z"/>
		<path class="st16" d="M339.5,171.9c1.7,0,3.2-1.6,3.2-3.6v-15.8c0-2-1.4-3.6-3.2-3.6h-13.8c-1.7,0-3.2,1.6-3.2,3.6v15.8
			c0,2,1.4,3.6,3.2,3.6H339.5L339.5,171.9z M323.6,168.3v-15.8c0-1.3,0.9-2.4,2.1-2.4h13.8c1.1,0,2.1,1.1,2.1,2.4v15.8
			c0,1.3-0.9,2.4-2.1,2.4h-13.8C324.5,170.6,323.6,169.6,323.6,168.3z"/>
		<path class="st16" d="M330,162.7h5.1l1,2.6h1.8l-4.5-11.6h-1.8l-4.5,11.6h1.8L330,162.7z M332.5,156.1l1.8,4.8h-3.7L332.5,156.1z"
			/>
		<path class="st16" d="M351.2,173.7h-13.8c-1.7,0-3.2,1.6-3.2,3.6v15.8c0,2,1.4,3.6,3.2,3.6h13.8c1.7,0,3.2-1.6,3.2-3.6v-15.8
			C354.4,175.3,353,173.7,351.2,173.7z M353.3,193.1c0,1.3-0.9,2.3-2.1,2.3h-13.8c-1.1,0-2.1-1.1-2.1-2.3v-15.8
			c0-1.3,0.9-2.4,2.1-2.4h13.8c1.1,0,2.1,1.1,2.1,2.4V193.1L353.3,193.1z"/>
		<path class="st16" d="M345.1,180.2c1.2,0,2,0.4,2.9,1.4l1.1-1.4c-1-1.3-2.4-2-3.9-2c-3.2,0-5.5,2.6-5.5,6c0,3.5,2.3,6,5.3,6
			c1.5,0,2.8-0.7,3.9-2l-1.1-1.3c-1,1.1-1.8,1.4-2.9,1.4c-1.8,0-3.5-1.7-3.5-4.1C341.5,181.8,343.1,180.2,345.1,180.2z"/>
	</g>
	<rect x="287.8" y="203.3" class="st2" width="93.1" height="18.8"/>
	<text transform="matrix(1.0255 0 0 1 287.7803 216.7944)" class="st3 st17">$262.292</text>
</g>
<g>
	<path class="st18" d="M736.9,311.2c-0.6-0.4-1.3-0.6-2.1-0.5c-0.4,0-0.8,0.2-1.1,0.4l3.6,1.8c-1.1,1.6-2,3.3-2.9,5.1
		c-0.6,1.2-1.1,2.6-1.5,4c-0.3,1.1-0.5,2.3-0.4,3.5c1.7-0.5,3.5-2.9,4.7-5.8c0.8-1.8,1.2-3.9,1.2-6.1
		C738.2,312.6,737.7,311.7,736.9,311.2z"/>
	<path class="st18" d="M712.7,288v7.4l19.9,9.1l0,0c1.5,0,3-0.1,4.5-0.3c3.9-0.7,6.4-2.1,6.4-3.6v-12.2l-12.2,5.3L712.7,288z"/>
	<polygon class="st18" points="726.8,272.7 700.5,281.9 712.7,285.6 731.2,291.2 743.5,285.9 757.1,280 	"/>
	<path class="st18" d="M730.8,322.9c0-0.2,0-0.3,0.1-0.5s0.1-0.4,0.1-0.6v-0.1c0.5-1.7,1-3.3,1.8-4.8c0.4-1,0.9-1.9,1.5-2.8V314
		l-2.4-1.2c-0.6,0.8-1,1.6-1.4,2.6c-0.5,1.2-1,2.4-1.3,3.7l-28.1-16l-0.2,1c-0.2,1.5-0.2,3,0.6,3.5l29.6,18
		C730.7,324.9,730.6,324.1,730.8,322.9z"/>
	<path class="st18" d="M728.8,314.2c1.7-4.1,4.6-6.5,6.9-5.7h-0.1l-30.9-14.1c-1.2-0.6-2.8,1-3.7,3.8c-0.2,0.6-0.4,1.3-0.5,1.9
		l27.8,15.8C728.4,315.2,728.6,314.7,728.8,314.2z"/>
	<rect x="689.9" y="331.9" class="st2" width="100" height="21"/>
	<text transform="matrix(1.0255 0 0 1 689.8711 345.4585)" class="st3 st17">$573.675</text>
</g>
<rect x="730.2" y="202.5" class="st2" width="103.7" height="22.3"/>
<text transform="matrix(1.0255 0 0 1 730.1582 216.0122)" class="st3 st17">$594.635</text>
<g>
	<path class="st19" d="M1013.6,287.3h-3.7c-0.6-2.3-1.4-4.2-2.8-6.2l3.2-3.1c0.2-0.2,0.4-0.6,0.4-0.8c0-0.4-0.2-0.6-0.4-0.8l-4.1-4
		c-0.4-0.4-1.2-0.4-1.8,0l-3.2,3.1c-1.8-1.2-3.7-1.9-5.7-2.5v-4c0-0.6-0.6-1.2-1.2-1.2h-5.9c-0.6,0-1.2,0.6-1.2,1.2v3.9
		c-2.2,0.4-4.1,1.3-5.9,2.3l-3.4-3.3c-0.4-0.4-1.2-0.4-1.8,0l-4.1,4c-0.2,0.2-0.4,0.6-0.4,0.8c0,0.2,0.2,0.6,0.4,0.8l3.4,3.3
		c-1.2,1.9-2.2,4-2.8,6.4h-3.8c-0.6,0-1.2,0.6-1.2,1.2v5.8c0,0.6,0.6,1.2,1.2,1.2h3.7c0.3,2,1.3,3.7,2.1,5.4l3-3.6
		c-0.8-1.8-1.3-3.8-1.3-5.9c0-8,6.6-14.5,14.8-14.5s14.8,6.5,14.8,14.5s-6.6,14.5-14.8,14.5c-1.4,0-2.9-0.2-4.2-0.6l-2.9,3.3
		c0.9,0.3,1.9,0.6,2.9,0.8v3.3c0,0.6,0.6,1.2,1.2,1.2h5.9c0.6,0,1.2-0.6,1.2-1.2v-3.5c2.3-0.6,4.3-1.3,6.3-2.7l2.6,2.5
		c0.2,0.2,0.6,0.4,0.8,0.4s0.6-0.2,0.8-0.4l4.1-4c0.2-0.2,0.4-0.6,0.4-0.8c0-0.4-0.2-0.6-0.4-0.8l-2.6-2.5c1.2-1.7,1.9-3.6,2.3-5.8
		h3.7c0.6,0,1.2-0.6,1.2-1.2V288C1014.8,287.9,1014.4,287.3,1013.6,287.3z"/>
	<path class="st19" d="M1003,289.9c-0.2-1.8-0.8-3.6-1.9-5.2l-7.2,8.3l-4.7-3.8l7.2-8.2c-1.7-0.7-3.4-1-5.2-0.8
		c-6,0.5-10.5,5.7-10,11.6c0.1,1.2,0.4,2.3,0.9,3.5l0.1,0.1l-17.4,20.1c-0.7,0.8-1.1,2-1,3.1s0.6,2.1,1.5,2.8s2,1.1,3.2,1
		c1.1-0.1,2.2-0.6,2.9-1.5l17.2-19.8l0.2,0.1c1.4,0.5,2.9,0.6,4.4,0.5C999,301,1003.5,295.8,1003,289.9z M968.2,319.3
		c-0.9,0.1-1.5-0.6-1.6-1.3c-0.1-0.8,0.6-1.5,1.4-1.6c0.9-0.1,1.5,0.6,1.6,1.3C969.6,318.5,969.1,319.2,968.2,319.3z"/>
	<rect x="946.9" y="331.3" class="st2" width="86.8" height="19.6"/>
	<text transform="matrix(1.0255 0 0 1 946.8711 344.8452)" class="st3 st17">$764.878</text>
</g>
<g>
	<g>
		<path d="M1361.4,144c-0.5,0.6-1.2,1.4-2.1,2.4c-3.8-3.6-7.5-4.1-10.3-4.5c-8,13-17,20.6-28.8,28.7c-0.3,0-0.7,0.2-1.1,0.4
			c-2.1,1.4-3,3.8-3.5,6.7c-1.2,6.7,0.9,14.8,7.2,16.2c3.7,0.8,6.1,0.2,7.7-1.8c1.2-1.4,6.5-7.5,13.3-14.6
			c7.7-7.9,17-15.4,20.8-18.6c3.5-3,2.8-7.7,0.3-11.3c-0.9-1.4-2.1-2.6-3.3-3.4L1361.4,144z M1332.2,186.7
			c0.5-3.6,0.3-10.3,0.2-12.5c0.9-0.4,2.6-1.6,5.8-4c8.9-6.7,16.1-14.6,23.4-23.3c2.6,2.4,4.9,7.3,1.8,10.1
			c-3.7,3-13.5,10.9-21,18.6C1338.3,180,1334.6,184,1332.2,186.7z M1328.9,190.5c-1.1,1.4-2.8,1.8-5.6,1.2c-5.8-1.4-7-9.5-5.4-15.2
			c1.6-5.5,6.5-4.7,8-0.8l-6.3,6.3c0.2,0.6,0.5,4.6,3.7,5.5c2.3,0.8,4.2-1.6,4.9-4.4c0.3-1.8,0.5-4,0-6.5c-0.3-3-2.1-5.1-4.4-6.1
			c11-7.7,18.5-14.2,26.1-26.1c3.2,0.6,5.2,1.4,7.9,3.6c-7.3,8.5-22.4,24.5-27.4,24.5c0,1.2,0.5,11.3-0.2,14.8
			C1329.9,188.5,1329.6,189.7,1328.9,190.5z M1326.4,178.2c0.2,2.2,0,4.9-1.2,6.3c-1.2,1.8-2.8,0-3.3-1.8L1326.4,178.2z"/>
		<path d="M1359.1,185.5c0,0-1.2-4.1-3.3-7.1s-6.1-4.7-6.1-4.7s2.6,3.2,3.7,7.7c1.2,4.5,1.4,6.5,1.4,6.5l-2.4-1.4l-1.9,4
			c0,0,0.9-5.3-1.2-10.1c-1.9-4.7-3.3-6.1-3.3-6.1c0.5-8.5-3.2-13-10.7-13.6l5.6-5.7c6.6-0.2,10.5,7.9,9.8,14.8
			c5.1,3.2,9.8,7.7,14,12.1l-3.8,0.8L1359.1,185.5z"/>
	</g>
	<rect x="1300.5" y="199.1" class="st2" width="92.4" height="17.8"/>
	<text transform="matrix(1.0255 0 0 1 1300.4971 212.6128)" class="st3 st17">$1.063.544</text>
</g>
<g>
	<g>
		<path d="M1459.2,276.7c-0.5,0.6-1.2,1.4-2.1,2.4c-3.8-3.6-7.5-4.2-10.3-4.5c-8,13-17,20.6-28.8,28.7c-0.3,0-0.7,0.2-1.1,0.4
			c-2.1,1.4-3,3.8-3.5,6.7c-1.2,6.7,0.9,14.8,7.2,16.2c3.7,0.8,6.1,0.2,7.7-1.8c1.2-1.4,6.5-7.5,13.3-14.6
			c7.7-7.9,17-15.4,20.8-18.6c3.5-3,2.8-7.7,0.3-11.3c-0.9-1.4-2.1-2.6-3.3-3.4L1459.2,276.7z M1430,319.4
			c0.5-3.6,0.3-10.3,0.2-12.5c0.9-0.4,2.6-1.6,5.8-4c8.9-6.7,16.1-14.6,23.4-23.3c2.6,2.4,4.9,7.3,1.8,10.1
			c-3.7,3-13.5,10.9-21,18.6C1436.1,312.7,1432.5,316.7,1430,319.4z M1426.7,323.2c-1.1,1.4-2.8,1.8-5.6,1.2
			c-5.8-1.4-7-9.5-5.4-15.2c1.6-5.5,6.5-4.7,8-0.8l-6.3,6.3c0.2,0.6,0.5,4.5,3.7,5.5c2.3,0.8,4.2-1.6,4.9-4.3c0.3-1.8,0.5-4,0-6.5
			c-0.3-3-2.1-5.1-4.4-6.1c11-7.7,18.5-14.2,26.1-26.1c3.2,0.6,5.2,1.4,7.9,3.6c-7.3,8.5-22.4,24.5-27.4,24.5
			c0,1.2,0.5,11.3-0.2,14.8C1427.7,321.2,1427.4,322.4,1426.7,323.2z M1424.2,310.9c0.2,2.2,0,4.9-1.2,6.3c-1.2,1.8-2.8,0-3.3-1.8
			L1424.2,310.9z"/>
		<path d="M1456.9,318.2c0,0-1.2-4.2-3.3-7.1s-6.1-4.7-6.1-4.7s2.6,3.2,3.7,7.7c1.2,4.5,1.4,6.5,1.4,6.5l-2.4-1.4l-1.9,4
			c0,0,0.9-5.3-1.2-10.1c-1.9-4.7-3.3-6.1-3.3-6.1c0.5-8.5-3.2-13-10.7-13.6l5.6-5.7c6.6-0.2,10.5,7.9,9.8,14.8
			c5.1,3.2,9.8,7.7,14,12.1l-3.8,0.8L1456.9,318.2z"/>
	</g>
	<rect x="1391.9" y="334.8" class="st2" width="109" height="19.1"/>
	<text transform="matrix(1.0255 0 0 1 1391.8711 348.3198)" class="st3 st17">$1.365.869</text>
</g>
<g>
	<rect x="413.3" y="203" class="st2" width="99.6" height="21.9"/>
	<text transform="matrix(1.0255 0 0 1 413.3086 216.4771)" class="st3 st17">$390.350</text>
	<path class="st18" d="M470.8,183.7c-0.6-0.4-1.3-0.6-2.1-0.5c-0.4,0-0.8,0.2-1.1,0.4l3.6,1.9c-1.1,1.6-2,3.3-2.9,5.1
		c-0.6,1.2-1.1,2.6-1.5,4c-0.3,1.1-0.5,2.3-0.4,3.5c1.7-0.5,3.5-2.9,4.7-5.8c0.8-1.8,1.2-3.9,1.2-6.1
		C472.1,185,471.6,184.1,470.8,183.7z"/>
	<path class="st18" d="M446.6,160.5v7.4l19.9,9.1l0,0c1.5,0,3-0.1,4.5-0.3c3.9-0.7,6.4-2.1,6.4-3.6v-12.2l-12.2,5.3L446.6,160.5z"/>
	<polygon class="st18" points="460.7,145.2 434.4,154.4 446.6,158.1 465.2,163.7 477.5,158.4 491,152.5 	"/>
	<path class="st18" d="M464.7,195.4c0-0.2,0-0.3,0.1-0.5s0.1-0.4,0.1-0.6v-0.1c0.5-1.7,1-3.3,1.8-4.8c0.4-1,0.9-1.9,1.5-2.8v-0.1
		l-2.4-1.2c-0.6,0.8-1,1.6-1.4,2.6c-0.5,1.2-1,2.4-1.3,3.7l-28.1-16l-0.2,1c-0.2,1.5-0.2,3,0.6,3.5l29.6,18
		C464.6,197.4,464.5,196.5,464.7,195.4z"/>
	<path class="st18" d="M462.8,186.6c1.7-4.1,4.6-6.5,6.9-5.7h-0.1l-30.9-14.1c-1.2-0.6-2.8,1-3.7,3.8c-0.2,0.6-0.4,1.3-0.5,1.9
		l27.8,15.8C462.4,187.7,462.6,187.2,462.8,186.6z"/>
</g>
</svg>
