<?xml version="1.0" encoding="utf-8"?>
<!-- Generator: Adobe Illustrator 24.2.3, SVG Export Plug-In . SVG Version: 6.00 Build 0)  -->
<svg version="1.1" id="Capa_1" xmlns="http://www.w3.org/2000/svg" xmlns:xlink="http://www.w3.org/1999/xlink" x="0px" y="0px"
	 viewBox="0 0 1499.2 410.5" style="enable-background:new 0 0 1499.2 410.5;" xml:space="preserve">
<style type="text/css">
	.st0{fill:#DCF4F3;fill-opacity:0.8;stroke:#416190;stroke-width:5;stroke-miterlimit:5.83;}
	.st1{fill:none;stroke:#000000;stroke-width:3.0401;stroke-miterlimit:10;}
	.st2{fill:none;}
	.st3{font-family:'Optima-Bold';}
	.st4{font-size:16px;}
	.st5{letter-spacing:27.6;}
	.st6{letter-spacing:8.2;}
	.st7{fill:#FF0000;}
	.st8{font-size:21px;}
	.st9{font-family:'Verdana-Bold';}
	.st10{fill:none;stroke:#000000;stroke-width:0.25;stroke-miterlimit:10;}
	.st11{font-family:'Optima-Regular';}
	.st12{font-size:12.243px;}
	.st13{fill:#FCEE21;}
	.st14{font-size:16.6514px;}
	.st15{fill:#FF0000;stroke:#FF0000;stroke-width:1.3664;stroke-miterlimit:10;}
	.st16{font-size:18.9273px;}
	.st17{fill:#FF0000;stroke:#FF0000;stroke-width:1.3343;stroke-miterlimit:10;}
	.st18{font-size:18px;}
	.st19{fill:#FF0000;stroke:#FF0000;stroke-width:0.2169;stroke-miterlimit:10;}
	.st20{stroke:#000000;stroke-width:0.1414;stroke-miterlimit:10;}
	.st21{fill-rule:evenodd;clip-rule:evenodd;}
</style>
<rect x="1.3" y="2.6" class="st0" width="1495.5" height="405.2"/>
<rect x="97.9" y="236.4" class="st1" width="1385.4" height="21.3"/>
<rect x="111.8" y="240.8" class="st2" width="1371.8" height="36.8"/>
<text transform="matrix(0.9794 0 0 1 111.7676 252.7838)" class="st3 st4">$100.000</text>
<text transform="matrix(0.9794 0 0 1 177.1133 252.7838)" class="st3 st4 st5"> </text>
<text transform="matrix(0.9794 0 0 1 209.6201 252.7838)" class="st3 st4 st5"> </text>
<text transform="matrix(0.9794 0 0 1 242.2339 252.7838)" class="st3 st4">$200.000</text>
<text transform="matrix(0.9794 0 0 1 307.5791 252.7838)" class="st3 st4 st5"> </text>
<text transform="matrix(0.9794 0 0 1 340.0859 252.7838)" class="st3 st4 st5"> </text>
<text transform="matrix(0.9794 0 0 1 372.6992 252.7838)" class="st3 st4">$300.000</text>
<text transform="matrix(0.9794 0 0 1 438.0449 252.7838)" class="st3 st4 st5"> </text>
<text transform="matrix(0.9794 0 0 1 470.5518 252.7838)" class="st3 st4 st5"> </text>
<text transform="matrix(0.9794 0 0 1 503.165 252.7838)" class="st3 st4">$400.000</text>
<text transform="matrix(0.9794 0 0 1 568.5107 252.7838)" class="st3 st4 st5"> </text>
<text transform="matrix(0.9794 0 0 1 601.0176 252.7838)" class="st3 st4 st5"> </text>
<text transform="matrix(0.9794 0 0 1 633.6416 252.7838)" class="st3 st4">$500.000</text>
<text transform="matrix(0.9794 0 0 1 698.9863 252.7838)" class="st3 st4 st5"> </text>
<text transform="matrix(0.9794 0 0 1 731.4834 252.7838)" class="st3 st4 st5"> </text>
<text transform="matrix(0.9794 0 0 1 764.1074 252.7838)" class="st3 st4">$600.000</text>
<text transform="matrix(0.9794 0 0 1 829.4531 252.7838)" class="st3 st4 st5"> </text>
<text transform="matrix(0.9794 0 0 1 861.959 252.7838)" class="st3 st4 st5"> </text>
<text transform="matrix(0.9794 0 0 1 894.5732 252.7838)" class="st3 st4">$700.000</text>
<text transform="matrix(0.9794 0 0 1 959.9189 252.7838)" class="st3 st4 st5"> </text>
<text transform="matrix(0.9794 0 0 1 992.4248 252.7838)" class="st3 st4 st5"> </text>
<text transform="matrix(0.9794 0 0 1 1025.0391 252.7838)" class="st3 st4">$800.000</text>
<text transform="matrix(0.9794 0 0 1 1090.3848 252.7838)" class="st3 st4 st5"> </text>
<text transform="matrix(0.9794 0 0 1 1122.8906 252.7838)" class="st3 st4 st5"> </text>
<text transform="matrix(0.9794 0 0 1 1155.5049 252.7838)" class="st3 st4">$900.000</text>
<text transform="matrix(0.9794 0 0 1 1220.8506 252.7838)" class="st3 st4 st5"> </text>
<text transform="matrix(0.9794 0 0 1 1253.3564 252.7838)" class="st3 st4 st5"> </text>
<text transform="matrix(0.9794 0 0 1 1285.9707 252.7838)" class="st3 st4">$1.000.000 </text>
<text transform="matrix(0.9794 0 0 1 1368.7402 252.7838)" class="st3 st4 st6"> </text>
<text transform="matrix(0.9794 0 0 1 1383.8223 252.7838)" class="st3 st4 st5"> </text>
<text transform="matrix(0.9794 0 0 1 1416.4365 252.7838)" class="st3 st4">   +++</text>
<path class="st7" d="M803.6,157.4h-3.7c-0.6-2.3-1.4-4.2-2.8-6.1l3.2-3.1c0.2-0.2,0.4-0.6,0.4-0.8c0-0.4-0.2-0.6-0.4-0.8l-4.1-4
	c-0.4-0.4-1.2-0.4-1.8,0l-3.2,3.1c-1.8-1.2-3.7-1.9-5.7-2.5v-4c0-0.6-0.6-1.2-1.2-1.2h-5.9c-0.6,0-1.2,0.6-1.2,1.2v3.9
	c-2.2,0.4-4.1,1.3-5.9,2.3l-3.4-3.3c-0.4-0.4-1.2-0.4-1.8,0l-4.1,4c-0.2,0.2-0.4,0.6-0.4,0.8s0.2,0.6,0.4,0.8l3.4,3.3
	c-1.2,1.9-2.2,4-2.8,6.4h-3.8c-0.6,0-1.2,0.6-1.2,1.2v5.8c0,0.6,0.6,1.2,1.2,1.2h3.7c0.3,2,1.3,3.7,2.1,5.4l3-3.6
	c-0.8-1.8-1.3-3.8-1.3-5.9c0-8,6.6-14.5,14.8-14.5s14.8,6.5,14.8,14.5s-6.6,14.5-14.8,14.5c-1.4,0-2.9-0.2-4.2-0.6l-2.9,3.4
	c0.9,0.3,1.9,0.6,2.9,0.8v3.3c0,0.6,0.6,1.2,1.2,1.2h5.9c0.6,0,1.2-0.6,1.2-1.2v-3.5c2.3-0.6,4.3-1.3,6.3-2.7l2.6,2.5
	c0.2,0.2,0.6,0.4,0.8,0.4s0.6-0.2,0.8-0.4l4.1-4c0.2-0.2,0.4-0.6,0.4-0.8c0-0.4-0.2-0.6-0.4-0.8l-2.6-2.5c1.2-1.7,2-3.6,2.3-5.8h3.7
	c0.6,0,1.2-0.6,1.2-1.2v-5.8C804.8,158,804.4,157.4,803.6,157.4z"/>
<path class="st7" d="M792.9,160c-0.2-1.8-0.8-3.6-2-5.2l-7.2,8.3l-4.7-3.8l7.2-8.2c-1.7-0.7-3.4-1-5.2-0.8c-6,0.5-10.5,5.7-10,11.6
	c0.1,1.2,0.4,2.4,0.9,3.5l0.1,0.1l-17.3,20c-0.7,0.8-1.1,2-1,3.1s0.6,2.1,1.5,2.8s2,1.1,3.2,1c1.1-0.1,2.2-0.6,2.9-1.5l17.2-19.8
	l0.2,0.1c1.4,0.5,2.9,0.6,4.4,0.5C788.9,171.2,793.4,166,792.9,160z M758.1,189.4c-0.9,0.1-1.5-0.6-1.6-1.3
	c-0.1-0.8,0.6-1.5,1.4-1.6c0.9-0.1,1.5,0.6,1.6,1.3C759.6,188.7,759,189.4,758.1,189.4z"/>
<rect x="763.8" y="380.6" class="st2" width="92" height="32.3"/>
<text transform="matrix(0.9794 0 0 1 763.7861 396.3502)" class="st3 st8">$604.521</text>
<rect x="588.9" y="23.2" class="st2" width="439.9" height="108.7"/>
<text transform="matrix(1 0 0 1 761.5713 38.9935)" class="st9 st8"> AYSÉN Xl</text>
<text transform="matrix(1 0 0 1 577.833 89.3934)" class="st9 st8">Población:</text>
<text transform="matrix(1 0 0 1 700.933 89.3934)" class="st3 st8"> </text>
<text transform="matrix(1 0 0 1 597.833 89.3934)" class="st10 st3 st8"> </text>
<text transform="matrix(1 0 0 1 703.5635 89.3934)" class="st11 st8">103.158 </text>
<text transform="matrix(1 0 0 1 790.2939 89.3934)" class="st9 st8">Superficie:</text>
<text transform="matrix(1 0 0 1 913.9429 89.3934)" class="st11 st8"> 108.494,4 km</text>
<text transform="matrix(1 0 0 1 1047.017 78.4007)" class="st11 st12">2</text>
<rect x="802" y="128" class="st13" width="4.5" height="244"/>
<rect x="15.2" y="180.5" class="st2" width="105.4" height="23.7"/>
<text transform="matrix(0.9794 0 0 1 15.2188 192.3551)" class="st9 st14">MUJERES</text>
<rect x="15.2" y="301.9" class="st2" width="96.2" height="26"/>
<text transform="matrix(0.9794 0 0 1 15.2188 313.7994)" class="st9 st14">HOMBRES</text>
<rect x="214.3" y="64.7" class="st2" width="80.5" height="23.3"/>
<g>
	<g>
		<path class="st15" d="M466.8,298.1H453c-1.7,0-3.2,1.7-3.2,3.8v16.6c0,2.1,1.4,3.8,3.2,3.8h13.8c1.7,0,3.2-1.7,3.2-3.8v-16.6
			C469.9,299.8,468.5,298.1,466.8,298.1z M468.8,318.5c0,1.4-0.9,2.5-2,2.5H453c-1.1,0-2-1.1-2-2.5v-16.6c0-1.4,0.9-2.5,2-2.5h13.8
			c1.1,0,2,1.1,2,2.5V318.5L468.8,318.5z"/>
		<path class="st15" d="M462.2,309.1c1-0.5,1.5-1.2,1.5-2.6c0-1.8-1-3.2-3.6-3.2h-3.9v12.2h4.4c2.6,0,3.7-1.6,3.7-3.4
			C464.2,310.5,463.4,309.4,462.2,309.1z M457.9,305.1h2.2c1.1,0,1.8,0.3,1.8,1.6c0,1-0.6,1.5-1.8,1.5h-2.2V305.1L457.9,305.1z
			 M460.6,313.5h-2.7v-3.3h2.5c1.4,0,2.2,0.5,2.2,1.6C462.5,313.2,461.7,313.5,460.6,313.5z"/>
		<path class="st15" d="M478.4,296.2c1.7,0,3.2-1.7,3.2-3.8v-16.6c0-2.1-1.4-3.8-3.2-3.8h-13.8c-1.7,0-3.2,1.7-3.2,3.8v16.6
			c0,2.1,1.4,3.8,3.2,3.8H478.4L478.4,296.2z M462.6,292.4v-16.6c0-1.4,0.9-2.5,2-2.5h13.8c1.1,0,2,1.1,2,2.5v16.6
			c0,1.4-0.9,2.5-2,2.5h-13.8C463.5,294.9,462.6,293.8,462.6,292.4z"/>
		<path class="st15" d="M469,286.6h5.1l1,2.8h1.8l-4.5-12.2h-1.8l-4.5,12.2h1.8L469,286.6z M471.5,279.6l1.8,5h-3.7L471.5,279.6z"/>
		<path class="st15" d="M490.2,298.1h-13.8c-1.7,0-3.2,1.7-3.2,3.8v16.6c0,2.1,1.4,3.8,3.2,3.8h13.8c1.7,0,3.2-1.7,3.2-3.8v-16.6
			C493.3,299.8,491.9,298.1,490.2,298.1z M492.2,318.5c0,1.4-0.9,2.5-2,2.5h-13.8c-1.1,0-2-1.1-2-2.5v-16.6c0-1.4,0.9-2.5,2-2.5
			h13.8c1.1,0,2,1.1,2,2.5V318.5L492.2,318.5z"/>
		<path class="st15" d="M484.1,305c1.2,0,2,0.5,2.9,1.5l1.1-1.4c-1-1.4-2.4-2.1-3.9-2.1c-3.2,0-5.4,2.7-5.4,6.3
			c0,3.7,2.3,6.3,5.3,6.3c1.5,0,2.8-0.7,3.9-2.1l-1.1-1.4c-1,1.2-1.8,1.5-2.8,1.5c-1.8,0-3.5-1.8-3.5-4.3
			C480.5,306.7,482.1,305,484.1,305z"/>
	</g>
	<rect x="432.4" y="329.8" class="st2" width="84.1" height="25.4"/>
	<text transform="matrix(0.9484 0 0 1 432.4424 344.0485)" class="st3 st16">$387.882</text>
</g>
<g>
	<g>
		<path class="st17" d="M326.7,173.7h-13.8c-1.7,0-3.2,1.6-3.2,3.6v15.8c0,2,1.4,3.6,3.2,3.6h13.8c1.7,0,3.2-1.6,3.2-3.6v-15.8
			C329.8,175.3,328.4,173.7,326.7,173.7z M328.7,193.1c0,1.3-0.9,2.3-2.1,2.3h-13.8c-1.1,0-2.1-1.1-2.1-2.3v-15.8
			c0-1.3,0.9-2.4,2.1-2.4h13.8c1.1,0,2.1,1.1,2.1,2.4V193.1L328.7,193.1z"/>
		<path class="st17" d="M322.1,184.2c1-0.5,1.5-1.1,1.5-2.5c0-1.7-1-3.1-3.6-3.1h-4v11.6h4.4c2.6,0,3.7-1.5,3.7-3.2
			C324.1,185.5,323.3,184.5,322.1,184.2z M317.7,180.4h2.2c1.1,0,1.8,0.3,1.8,1.6c0,1-0.6,1.4-1.9,1.4h-2.2L317.7,180.4L317.7,180.4
			z M320.4,188.4h-2.7v-3.2h2.5c1.4,0,2.2,0.5,2.2,1.5C322.4,188.1,321.6,188.4,320.4,188.4z"/>
		<path class="st17" d="M338.4,171.9c1.7,0,3.2-1.6,3.2-3.6v-15.8c0-2-1.4-3.6-3.2-3.6h-13.8c-1.7,0-3.2,1.6-3.2,3.6v15.8
			c0,2,1.4,3.6,3.2,3.6L338.4,171.9L338.4,171.9z M322.5,168.3v-15.8c0-1.3,0.9-2.4,2.1-2.4h13.8c1.1,0,2.1,1.1,2.1,2.4v15.8
			c0,1.3-0.9,2.4-2.1,2.4h-13.8C323.4,170.6,322.5,169.6,322.5,168.3z"/>
		<path class="st17" d="M328.9,162.7h5.1l1,2.6h1.8l-4.5-11.6h-1.8l-4.5,11.6h1.8L328.9,162.7z M331.4,156.1l1.8,4.8h-3.7
			L331.4,156.1z"/>
		<path class="st17" d="M350.1,173.7h-13.8c-1.7,0-3.2,1.6-3.2,3.6v15.8c0,2,1.4,3.6,3.2,3.6h13.8c1.7,0,3.2-1.6,3.2-3.6v-15.8
			C353.3,175.3,351.9,173.7,350.1,173.7z M352.2,193.1c0,1.3-0.9,2.3-2.1,2.3h-13.8c-1.1,0-2.1-1.1-2.1-2.3v-15.8
			c0-1.3,0.9-2.4,2.1-2.4h13.8c1.1,0,2.1,1.1,2.1,2.4V193.1L352.2,193.1z"/>
		<path class="st17" d="M344,180.2c1.2,0,2,0.4,2.9,1.4l1.1-1.4c-1-1.3-2.4-2-3.9-2c-3.2,0-5.5,2.6-5.5,6c0,3.5,2.3,6,5.3,6
			c1.5,0,2.8-0.7,3.9-2l-1.1-1.3c-1,1.1-1.8,1.4-2.9,1.4c-1.8,0-3.5-1.7-3.5-4.1C340.4,181.8,342,180.2,344,180.2z"/>
	</g>
	<rect x="286.7" y="203.3" class="st2" width="93.1" height="18.8"/>
	<text transform="matrix(1.0255 0 0 1 286.6895 216.7946)" class="st3 st18">$262.292</text>
</g>
<g>
	<path class="st19" d="M735.8,311.2c-0.6-0.4-1.3-0.6-2.1-0.5c-0.4,0-0.8,0.2-1.1,0.4l3.6,1.8c-1.1,1.6-2,3.3-2.9,5.1
		c-0.6,1.2-1.1,2.6-1.5,4c-0.3,1.1-0.5,2.3-0.4,3.5c1.7-0.5,3.5-2.9,4.7-5.8c0.8-1.8,1.2-3.9,1.2-6.1
		C737.1,312.6,736.6,311.7,735.8,311.2z"/>
	<path class="st19" d="M711.6,288v7.4l19.9,9.1l0,0c1.5,0,3-0.1,4.5-0.3c3.9-0.7,6.4-2.1,6.4-3.6v-12.2l-12.2,5.3L711.6,288z"/>
	<polygon class="st19" points="725.7,272.7 699.4,281.9 711.6,285.6 730.1,291.2 742.4,285.9 756,280 	"/>
	<path class="st19" d="M729.7,322.9c0-0.2,0-0.3,0.1-0.5s0.1-0.4,0.1-0.6v-0.1c0.5-1.7,1-3.3,1.8-4.8c0.4-1,0.9-1.9,1.5-2.8V314
		l-2.4-1.2c-0.6,0.8-1,1.6-1.4,2.6c-0.5,1.2-1,2.4-1.3,3.7l-28.1-16l-0.2,1c-0.2,1.5-0.2,3,0.6,3.5l29.6,18
		C729.6,324.9,729.5,324.1,729.7,322.9z"/>
	<path class="st19" d="M727.7,314.2c1.7-4.1,4.6-6.5,6.9-5.7h-0.1l-30.9-14.1c-1.2-0.6-2.8,1-3.7,3.8c-0.2,0.6-0.4,1.3-0.5,1.9
		l27.8,15.8C727.3,315.2,727.5,314.7,727.7,314.2z"/>
	<rect x="688.8" y="331.9" class="st2" width="100" height="21"/>
	<text transform="matrix(1.0255 0 0 1 688.7803 345.4586)" class="st3 st18">$573.675</text>
</g>
<rect x="729.1" y="202.5" class="st2" width="103.7" height="22.3"/>
<text transform="matrix(1.0255 0 0 1 729.0674 216.0123)" class="st3 st18">$594.635</text>
<g>
	<path class="st20" d="M1012.5,287.3h-3.7c-0.6-2.3-1.4-4.2-2.8-6.2l3.2-3.1c0.2-0.2,0.4-0.6,0.4-0.8c0-0.4-0.2-0.6-0.4-0.8l-4.1-4
		c-0.4-0.4-1.2-0.4-1.8,0l-3.2,3.1c-1.8-1.2-3.7-1.9-5.7-2.5v-4c0-0.6-0.6-1.2-1.2-1.2h-5.9c-0.6,0-1.2,0.6-1.2,1.2v3.9
		c-2.2,0.4-4.1,1.3-5.9,2.3l-3.4-3.3c-0.4-0.4-1.2-0.4-1.8,0l-4.1,4c-0.2,0.2-0.4,0.6-0.4,0.8c0,0.2,0.2,0.6,0.4,0.8l3.4,3.3
		c-1.2,1.9-2.2,4-2.8,6.4h-3.8c-0.6,0-1.2,0.6-1.2,1.2v5.8c0,0.6,0.6,1.2,1.2,1.2h3.7c0.3,2,1.3,3.7,2.1,5.4l3-3.6
		c-0.8-1.8-1.3-3.8-1.3-5.9c0-8,6.6-14.5,14.8-14.5s14.8,6.5,14.8,14.5s-6.6,14.5-14.8,14.5c-1.4,0-2.9-0.2-4.2-0.6l-2.9,3.3
		c0.9,0.3,1.9,0.6,2.9,0.8v3.3c0,0.6,0.6,1.2,1.2,1.2h5.9c0.6,0,1.2-0.6,1.2-1.2v-3.5c2.3-0.6,4.3-1.3,6.3-2.7l2.6,2.5
		c0.2,0.2,0.6,0.4,0.8,0.4s0.6-0.2,0.8-0.4l4.1-4c0.2-0.2,0.4-0.6,0.4-0.8c0-0.4-0.2-0.6-0.4-0.8l-2.6-2.5c1.2-1.7,1.9-3.6,2.3-5.8
		h3.7c0.6,0,1.2-0.6,1.2-1.2V288C1013.7,287.9,1013.3,287.3,1012.5,287.3z"/>
	<path class="st20" d="M1001.9,289.9c-0.2-1.8-0.8-3.6-1.9-5.2l-7.2,8.3l-4.7-3.8l7.2-8.2c-1.7-0.7-3.4-1-5.2-0.8
		c-6,0.5-10.5,5.7-10,11.6c0.1,1.2,0.4,2.3,0.9,3.5l0.1,0.1l-17.4,20.1c-0.7,0.8-1.1,2-1,3.1s0.6,2.1,1.5,2.8s2,1.1,3.2,1
		c1.1-0.1,2.2-0.6,2.9-1.5l17.2-19.8l0.2,0.1c1.4,0.5,2.9,0.6,4.4,0.5C997.9,301,1002.4,295.8,1001.9,289.9z M967.1,319.3
		c-0.9,0.1-1.5-0.6-1.6-1.3c-0.1-0.8,0.6-1.5,1.4-1.6c0.9-0.1,1.5,0.6,1.6,1.3C968.5,318.5,968,319.2,967.1,319.3z"/>
	<rect x="945.8" y="331.3" class="st2" width="86.8" height="19.6"/>
	<text transform="matrix(1.0255 0 0 1 945.7803 344.8453)" class="st3 st18">$764.878</text>
</g>
<g>
	<g>
		<path d="M1360.3,144c-0.5,0.6-1.2,1.4-2.1,2.4c-3.8-3.6-7.5-4.1-10.3-4.5c-8,13-17,20.6-28.8,28.7c-0.3,0-0.7,0.2-1.1,0.4
			c-2.1,1.4-3,3.8-3.5,6.7c-1.2,6.7,0.9,14.8,7.2,16.2c3.7,0.8,6.1,0.2,7.7-1.8c1.2-1.4,6.5-7.5,13.3-14.6
			c7.7-7.9,17-15.4,20.8-18.6c3.5-3,2.8-7.7,0.3-11.3c-0.9-1.4-2.1-2.6-3.3-3.4L1360.3,144z M1331.1,186.7
			c0.5-3.6,0.3-10.3,0.2-12.5c0.9-0.4,2.6-1.6,5.8-4c8.9-6.7,16.1-14.6,23.4-23.3c2.6,2.4,4.9,7.3,1.8,10.1
			c-3.7,3-13.5,10.9-21,18.6C1337.2,180,1333.5,184,1331.1,186.7z M1327.8,190.5c-1.1,1.4-2.8,1.8-5.6,1.2c-5.8-1.4-7-9.5-5.4-15.2
			c1.6-5.5,6.5-4.7,8-0.8l-6.3,6.3c0.2,0.6,0.5,4.6,3.7,5.5c2.3,0.8,4.2-1.6,4.9-4.4c0.3-1.8,0.5-4,0-6.5c-0.3-3-2.1-5.1-4.4-6.1
			c11-7.7,18.5-14.2,26.1-26.1c3.2,0.6,5.2,1.4,7.9,3.6c-7.3,8.5-22.4,24.5-27.4,24.5c0,1.2,0.5,11.3-0.2,14.8
			C1328.8,188.5,1328.5,189.7,1327.8,190.5z M1325.3,178.2c0.2,2.2,0,4.9-1.2,6.3c-1.2,1.8-2.8,0-3.3-1.8L1325.3,178.2z"/>
		<path class="st21" d="M1358,185.5c0,0-1.2-4.1-3.3-7.1s-6.1-4.7-6.1-4.7s2.6,3.2,3.7,7.7c1.2,4.5,1.4,6.5,1.4,6.5l-2.4-1.4l-1.9,4
			c0,0,0.9-5.3-1.2-10.1c-1.9-4.7-3.3-6.1-3.3-6.1c0.5-8.5-3.2-13-10.7-13.6l5.6-5.7c6.6-0.2,10.5,7.9,9.8,14.8
			c5.1,3.2,9.8,7.7,14,12.1l-3.8,0.8L1358,185.5z"/>
	</g>
	<rect x="1299.4" y="199.1" class="st2" width="92.4" height="17.8"/>
	<text transform="matrix(1.0255 0 0 1 1299.4062 212.6129)" class="st3 st18">$1.063.544</text>
</g>
<g>
	<g>
		<path d="M1458.1,276.7c-0.5,0.6-1.2,1.4-2.1,2.4c-3.8-3.6-7.5-4.2-10.3-4.5c-8,13-17,20.6-28.8,28.7c-0.3,0-0.7,0.2-1.1,0.4
			c-2.1,1.4-3,3.8-3.5,6.7c-1.2,6.7,0.9,14.8,7.2,16.2c3.7,0.8,6.1,0.2,7.7-1.8c1.2-1.4,6.5-7.5,13.3-14.6
			c7.7-7.9,17-15.4,20.8-18.6c3.5-3,2.8-7.7,0.3-11.3c-0.9-1.4-2.1-2.6-3.3-3.4L1458.1,276.7z M1428.9,319.4
			c0.5-3.6,0.3-10.3,0.2-12.5c0.9-0.4,2.6-1.6,5.8-4c8.9-6.7,16.1-14.6,23.4-23.3c2.6,2.4,4.9,7.3,1.8,10.1
			c-3.7,3-13.5,10.9-21,18.6C1435,312.7,1431.4,316.7,1428.9,319.4z M1425.6,323.2c-1.1,1.4-2.8,1.8-5.6,1.2
			c-5.8-1.4-7-9.5-5.4-15.2c1.6-5.5,6.5-4.7,8-0.8l-6.3,6.3c0.2,0.6,0.5,4.5,3.7,5.5c2.3,0.8,4.2-1.6,4.9-4.3c0.3-1.8,0.5-4,0-6.5
			c-0.3-3-2.1-5.1-4.4-6.1c11-7.7,18.5-14.2,26.1-26.1c3.2,0.6,5.2,1.4,7.9,3.6c-7.3,8.5-22.4,24.5-27.4,24.5
			c0,1.2,0.5,11.3-0.2,14.8C1426.6,321.2,1426.3,322.4,1425.6,323.2z M1423.1,310.9c0.2,2.2,0,4.9-1.2,6.3c-1.2,1.8-2.8,0-3.3-1.8
			L1423.1,310.9z"/>
		<path class="st21" d="M1455.8,318.2c0,0-1.2-4.2-3.3-7.1s-6.1-4.7-6.1-4.7s2.6,3.2,3.7,7.7c1.2,4.5,1.4,6.5,1.4,6.5l-2.4-1.4
			l-1.9,4c0,0,0.9-5.3-1.2-10.1c-1.9-4.7-3.3-6.1-3.3-6.1c0.5-8.5-3.2-13-10.7-13.6l5.6-5.7c6.6-0.2,10.5,7.9,9.8,14.8
			c5.1,3.2,9.8,7.7,14,12.1l-3.8,0.8L1455.8,318.2z"/>
	</g>
	<rect x="1390.8" y="334.8" class="st2" width="109" height="19.1"/>
	<text transform="matrix(1.0255 0 0 1 1390.7803 348.3199)" class="st3 st18">$1.365.869</text>
</g>
<g>
	<rect x="412.2" y="203" class="st2" width="99.6" height="21.9"/>
	<text transform="matrix(1.0255 0 0 1 412.2178 216.4772)" class="st3 st18">$390.350</text>
	<path class="st19" d="M469.7,183.7c-0.6-0.4-1.3-0.6-2.1-0.5c-0.4,0-0.8,0.2-1.1,0.4l3.6,1.9c-1.1,1.6-2,3.3-2.9,5.1
		c-0.6,1.2-1.1,2.6-1.5,4c-0.3,1.1-0.5,2.3-0.4,3.5c1.7-0.5,3.5-2.9,4.7-5.8c0.8-1.8,1.2-3.9,1.2-6.1
		C471,185,470.5,184.1,469.7,183.7z"/>
	<path class="st19" d="M445.5,160.5v7.4l19.9,9.1l0,0c1.5,0,3-0.1,4.5-0.3c3.9-0.7,6.4-2.1,6.4-3.6v-12.2l-12.2,5.3L445.5,160.5z"/>
	<polygon class="st19" points="459.6,145.2 433.3,154.4 445.5,158.1 464.1,163.7 476.4,158.4 489.9,152.5 	"/>
	<path class="st19" d="M463.6,195.4c0-0.2,0-0.3,0.1-0.5s0.1-0.4,0.1-0.6v-0.1c0.5-1.7,1-3.3,1.8-4.8c0.4-1,0.9-1.9,1.5-2.8v-0.1
		l-2.4-1.2c-0.6,0.8-1,1.6-1.4,2.6c-0.5,1.2-1,2.4-1.3,3.7l-28.1-16l-0.2,1c-0.2,1.5-0.2,3,0.6,3.5l29.6,18
		C463.5,197.4,463.4,196.5,463.6,195.4z"/>
	<path class="st19" d="M461.7,186.6c1.7-4.1,4.6-6.5,6.9-5.7h-0.1l-30.9-14.1c-1.2-0.6-2.8,1-3.7,3.8c-0.2,0.6-0.4,1.3-0.5,1.9
		l27.8,15.8C461.3,187.7,461.5,187.2,461.7,186.6z"/>
</g>
</svg>
