<?xml version="1.0" encoding="utf-8"?>
<!-- Generator: Adobe Illustrator 24.2.3, SVG Export Plug-In . SVG Version: 6.00 Build 0)  -->
<svg version="1.1" id="Capa_1" xmlns="http://www.w3.org/2000/svg" xmlns:xlink="http://www.w3.org/1999/xlink" x="0px" y="0px"
	 viewBox="0 0 1498.4 407.8" style="enable-background:new 0 0 1498.4 407.8;" xml:space="preserve">
<style type="text/css">
	.st0{fill:#DCF4F3;fill-opacity:0.8;stroke:#416190;stroke-width:5;stroke-miterlimit:5.83;}
	.st1{fill:none;stroke:#000000;stroke-width:3.0401;stroke-miterlimit:10;}
	.st2{fill:none;}
	.st3{font-family:'Optima-Bold';}
	.st4{font-size:16px;}
	.st5{letter-spacing:27.6;}
	.st6{letter-spacing:9.2;}
	.st7{fill:#FF0000;}
	.st8{font-size:21px;}
	.st9{font-family:'Verdana-Bold';}
	.st10{fill:none;stroke:#000000;stroke-width:0.25;stroke-miterlimit:10;}
	.st11{font-family:'Optima-Regular';}
	.st12{font-size:12.243px;}
	.st13{fill:#FCEE21;}
	.st14{font-size:16.6514px;}
	.st15{fill:#FF0000;stroke:#FF0000;stroke-width:1.3664;stroke-miterlimit:10;}
	.st16{font-size:18.9273px;}
	.st17{fill:#FF0000;stroke:#FF0000;stroke-width:1.3343;stroke-miterlimit:10;}
	.st18{font-size:18px;}
	.st19{fill:#FF0000;stroke:#FF0000;stroke-width:0.2169;stroke-miterlimit:10;}
	.st20{fill:#FF0000;stroke:#FF0000;stroke-width:0.1414;stroke-miterlimit:10;}
	.st21{fill-rule:evenodd;clip-rule:evenodd;}
</style>
<rect x="0.3" y="1.3" class="st0" width="1495.5" height="405.2"/>
<rect x="99.9" y="231.3" class="st1" width="1385.4" height="21.3"/>
<rect x="113.8" y="235.7" class="st2" width="1371.8" height="36.8"/>
<text transform="matrix(0.9794 0 0 1 113.8438 247.7345)" class="st3 st4">$100.000</text>
<text transform="matrix(0.9794 0 0 1 179.1895 247.7345)" class="st3 st4 st5"> </text>
<text transform="matrix(0.9794 0 0 1 211.6963 247.7345)" class="st3 st4 st5"> </text>
<text transform="matrix(0.9794 0 0 1 244.3096 247.7345)" class="st3 st4">$200.000</text>
<text transform="matrix(0.9794 0 0 1 309.6553 247.7345)" class="st3 st4 st5"> </text>
<text transform="matrix(0.9794 0 0 1 342.1621 247.7345)" class="st3 st4 st5"> </text>
<text transform="matrix(0.9794 0 0 1 374.7764 247.7345)" class="st3 st4">$300.000</text>
<text transform="matrix(0.9794 0 0 1 440.1211 247.7345)" class="st3 st4 st5"> </text>
<text transform="matrix(0.9794 0 0 1 472.6279 247.7345)" class="st3 st4 st5"> </text>
<text transform="matrix(0.9794 0 0 1 505.2422 247.7345)" class="st3 st4">$400.000</text>
<text transform="matrix(0.9794 0 0 1 570.5869 247.7345)" class="st3 st4 st5"> </text>
<text transform="matrix(0.9794 0 0 1 603.0938 247.7345)" class="st3 st4 st5"> </text>
<text transform="matrix(0.9794 0 0 1 635.7178 247.7345)" class="st3 st4">$500.000</text>
<text transform="matrix(0.9794 0 0 1 701.0635 247.7345)" class="st3 st4 st5"> </text>
<text transform="matrix(0.9794 0 0 1 733.5596 247.7345)" class="st3 st4 st5"> </text>
<text transform="matrix(0.9794 0 0 1 766.1836 247.7345)" class="st3 st4">$600.000</text>
<text transform="matrix(0.9794 0 0 1 831.5293 247.7345)" class="st3 st4 st5"> </text>
<text transform="matrix(0.9794 0 0 1 864.0352 247.7345)" class="st3 st4 st5"> </text>
<text transform="matrix(0.9794 0 0 1 896.6494 247.7345)" class="st3 st4">$700.000</text>
<text transform="matrix(0.9794 0 0 1 961.9951 247.7345)" class="st3 st4 st5"> </text>
<text transform="matrix(0.9794 0 0 1 994.501 247.7345)" class="st3 st4 st5"> </text>
<text transform="matrix(0.9794 0 0 1 1027.1152 247.7345)" class="st3 st4">$800.000</text>
<text transform="matrix(0.9794 0 0 1 1092.4609 247.7345)" class="st3 st4 st5"> </text>
<text transform="matrix(0.9794 0 0 1 1124.9668 247.7345)" class="st3 st4 st5"> </text>
<text transform="matrix(0.9794 0 0 1 1157.5811 247.7345)" class="st3 st4">$900.000</text>
<text transform="matrix(0.9794 0 0 1 1222.9268 247.7345)" class="st3 st4 st5"> </text>
<text transform="matrix(0.9794 0 0 1 1255.4326 247.7345)" class="st3 st4 st5"> </text>
<text transform="matrix(0.9794 0 0 1 1288.0469 247.7345)" class="st3 st4">$1.000.000 </text>
<text transform="matrix(0.9794 0 0 1 1370.8154 247.7345)" class="st3 st4 st6"> </text>
<text transform="matrix(0.9794 0 0 1 1385.8984 247.7345)" class="st3 st4 st5"> </text>
<text transform="matrix(0.9794 0 0 1 1418.5127 247.7345)" class="st3 st4">   +++</text>
<path class="st7" d="M573.6,152.4h-3.7c-0.6-2.3-1.4-4.2-2.8-6.1l3.2-3.1c0.2-0.2,0.4-0.6,0.4-0.8c0-0.4-0.2-0.6-0.4-0.8l-4.1-4
	c-0.4-0.4-1.2-0.4-1.8,0l-3.2,3.1c-1.8-1.2-3.7-1.9-5.7-2.5v-4c0-0.6-0.6-1.2-1.2-1.2h-5.9c-0.6,0-1.2,0.6-1.2,1.2v3.9
	c-2.2,0.4-4.1,1.3-5.9,2.3l-3.4-3.3c-0.4-0.4-1.2-0.4-1.8,0l-4.1,4c-0.2,0.2-0.4,0.6-0.4,0.8s0.2,0.6,0.4,0.8l3.4,3.3
	c-1.2,1.9-2.2,4-2.8,6.4H529c-0.6,0-1.2,0.6-1.2,1.2v5.8c0,0.6,0.6,1.2,1.2,1.2h3.7c0.3,2,1.3,3.7,2.1,5.4l3-3.6
	c-0.8-1.8-1.3-3.8-1.3-5.9c0-8,6.6-14.5,14.8-14.5s14.8,6.5,14.8,14.5s-6.6,14.5-14.8,14.5c-1.4,0-2.9-0.2-4.2-0.6l-2.9,3.4
	c0.9,0.3,1.9,0.6,2.9,0.8v3.3c0,0.6,0.6,1.2,1.2,1.2h5.9c0.6,0,1.2-0.6,1.2-1.2v-3.5c2.3-0.6,4.3-1.3,6.3-2.7l2.6,2.5
	c0.2,0.2,0.6,0.4,0.8,0.4s0.6-0.2,0.8-0.4l4.1-4c0.2-0.2,0.4-0.6,0.4-0.8c0-0.4-0.2-0.6-0.4-0.8l-2.6-2.5c1.2-1.7,2-3.6,2.3-5.8h3.7
	c0.6,0,1.2-0.6,1.2-1.2v-5.8C574.8,153,574.4,152.4,573.6,152.4z"/>
<path class="st7" d="M563,155c-0.2-1.8-0.8-3.6-2-5.2l-7.2,8.3l-4.7-3.8l7.2-8.2c-1.7-0.7-3.4-1-5.2-0.8c-6,0.5-10.5,5.7-10,11.6
	c0.1,1.2,0.4,2.4,0.9,3.5l0.1,0.1l-17.4,20.1c-0.7,0.8-1.1,2-1,3.1s0.6,2.1,1.5,2.8s2,1.1,3.2,1c1.1-0.1,2.2-0.6,2.9-1.5l17.2-19.8
	l0.2,0.1c1.4,0.5,2.9,0.6,4.4,0.5C559,166.1,563.5,160.9,563,155z M528.2,184.4c-0.9,0.1-1.5-0.6-1.6-1.3c-0.1-0.8,0.6-1.5,1.4-1.6
	c0.9-0.1,1.5,0.6,1.6,1.3C529.7,183.6,529.1,184.3,528.2,184.4z"/>
<rect x="823.9" y="375.5" class="st2" width="92" height="32.3"/>
<text transform="matrix(0.9794 0 0 1 823.8623 391.3009)" class="st3 st8">$650.728</text>
<rect x="591" y="18.2" class="st2" width="439.9" height="108.7"/>
<text transform="matrix(1 0 0 1 749.0734 33.9442)" class="st9 st8"> BIO BIO Vlll</text>
<text transform="matrix(1 0 0 1 573.9899 84.3441)" class="st9 st8">Población:</text>
<text transform="matrix(1 0 0 1 697.0899 84.3441)" class="st3 st8"> </text>
<text transform="matrix(1 0 0 1 596.9899 84.3441)" class="st10 st3 st8"> </text>
<text transform="matrix(1 0 0 1 694.7205 84.3441)" class="st11 st8">1.556.805 </text>
<text transform="matrix(1 0 0 1 798.9647 84.3441)" class="st9 st8">Superficie:</text>
<text transform="matrix(1 0 0 1 926.613 84.3441)" class="st11 st8"> 23.890,2 km</text>
<text transform="matrix(1 0 0 1 1049.0128 74.3516)" class="st11 st12">2</text>
<rect x="862.1" y="122.9" class="st13" width="4.5" height="244"/>
<rect x="17.3" y="175.4" class="st2" width="105.4" height="23.7"/>
<text transform="matrix(0.9794 0 0 1 17.2949 187.3058)" class="st9 st14">MUJERES</text>
<rect x="17.3" y="296.8" class="st2" width="96.2" height="26"/>
<text transform="matrix(0.9794 0 0 1 17.2949 308.7501)" class="st9 st14">HOMBRES</text>
<rect x="216.4" y="59.6" class="st2" width="80.5" height="23.3"/>
<g>
	<g>
		<path class="st15" d="M410.9,293h-13.8c-1.7,0-3.2,1.7-3.2,3.8v16.6c0,2.1,1.4,3.8,3.2,3.8h13.8c1.7,0,3.2-1.7,3.2-3.8v-16.6
			C414,294.7,412.6,293,410.9,293z M412.9,313.5c0,1.4-0.9,2.5-2,2.5h-13.8c-1.1,0-2-1.1-2-2.5v-16.6c0-1.4,0.9-2.5,2-2.5h13.8
			c1.1,0,2,1.1,2,2.5V313.5L412.9,313.5z"/>
		<path class="st15" d="M406.3,304c1-0.5,1.5-1.2,1.5-2.6c0-1.8-1-3.2-3.6-3.2h-3.9v12.2h4.4c2.6,0,3.7-1.6,3.7-3.4
			C408.3,305.4,407.5,304.4,406.3,304z M402,300.1h2.2c1.1,0,1.8,0.3,1.8,1.6c0,1-0.6,1.5-1.8,1.5H402V300.1L402,300.1z
			 M404.6,308.5H402v-3.3h2.5c1.4,0,2.2,0.5,2.2,1.6C406.6,308.1,405.8,308.5,404.6,308.5z"/>
		<path class="st15" d="M422.5,291.2c1.7,0,3.2-1.7,3.2-3.8v-16.6c0-2.1-1.4-3.8-3.2-3.8h-13.8c-1.7,0-3.2,1.7-3.2,3.8v16.6
			c0,2.1,1.4,3.8,3.2,3.8H422.5L422.5,291.2z M406.7,287.4v-16.6c0-1.4,0.9-2.5,2-2.5h13.8c1.1,0,2,1.1,2,2.5v16.6
			c0,1.4-0.9,2.5-2,2.5h-13.8C407.6,289.8,406.7,288.7,406.7,287.4z"/>
		<path class="st15" d="M413.1,281.5h5.1l1,2.8h1.8l-4.5-12.2h-1.8l-4.5,12.2h1.8L413.1,281.5z M415.6,274.6l1.8,5h-3.7L415.6,274.6
			z"/>
		<path class="st15" d="M434.2,293h-13.8c-1.7,0-3.2,1.7-3.2,3.8v16.6c0,2.1,1.4,3.8,3.2,3.8h13.8c1.7,0,3.2-1.7,3.2-3.8v-16.6
			C437.4,294.7,436,293,434.2,293z M436.3,313.5c0,1.4-0.9,2.5-2,2.5h-13.8c-1.1,0-2-1.1-2-2.5v-16.6c0-1.4,0.9-2.5,2-2.5h13.8
			c1.1,0,2,1.1,2,2.5V313.5L436.3,313.5z"/>
		<path class="st15" d="M428.2,299.9c1.2,0,2,0.5,2.9,1.5l1.1-1.4c-1-1.4-2.4-2.1-3.9-2.1c-3.2,0-5.4,2.7-5.4,6.3
			c0,3.7,2.3,6.3,5.3,6.3c1.5,0,2.8-0.7,3.9-2.1L431,307c-1,1.2-1.8,1.5-2.8,1.5c-1.8,0-3.5-1.8-3.5-4.3
			C424.6,301.6,426.2,299.9,428.2,299.9z"/>
	</g>
	<rect x="376.5" y="324.8" class="st2" width="84.1" height="25.4"/>
	<text transform="matrix(0.9484 0 0 1 376.5176 338.9991)" class="st3 st16">$306.235</text>
</g>
<g>
	<g>
		<path class="st17" d="M298.7,168.6h-13.8c-1.7,0-3.2,1.6-3.2,3.6V188c0,2,1.4,3.6,3.2,3.6h13.8c1.7,0,3.2-1.6,3.2-3.6v-15.8
			C301.9,170.2,300.5,168.6,298.7,168.6z M300.8,188c0,1.3-0.9,2.3-2.1,2.3h-13.8c-1.1,0-2.1-1.1-2.1-2.3v-15.8
			c0-1.3,0.9-2.4,2.1-2.4h13.8c1.1,0,2.1,1.1,2.1,2.4V188L300.8,188z"/>
		<path class="st17" d="M294.1,179.1c1-0.5,1.5-1.1,1.5-2.5c0-1.7-1-3.1-3.6-3.1h-4v11.6h4.4c2.6,0,3.7-1.5,3.7-3.2
			C296.2,180.4,295.4,179.4,294.1,179.1z M289.8,175.3h2.2c1.1,0,1.8,0.3,1.8,1.6c0,1-0.6,1.4-1.9,1.4h-2.2L289.8,175.3L289.8,175.3
			z M292.5,183.3h-2.7v-3.2h2.5c1.4,0,2.2,0.5,2.2,1.5C294.4,183,293.7,183.3,292.5,183.3z"/>
		<path class="st17" d="M310.4,166.8c1.7,0,3.2-1.6,3.2-3.6v-15.8c0-2-1.4-3.6-3.2-3.6h-13.8c-1.7,0-3.2,1.6-3.2,3.6v15.8
			c0,2,1.4,3.6,3.2,3.6H310.4L310.4,166.8z M294.5,163.2v-15.8c0-1.3,0.9-2.4,2.1-2.4h13.8c1.1,0,2.1,1.1,2.1,2.4v15.8
			c0,1.3-0.9,2.4-2.1,2.4h-13.8C295.5,165.6,294.5,164.5,294.5,163.2z"/>
		<path class="st17" d="M301,157.6h5.1l1,2.6h1.8l-4.5-11.6h-1.8l-4.5,11.6h1.8L301,157.6z M303.5,151.1l1.8,4.8h-3.7L303.5,151.1z"
			/>
		<path class="st17" d="M322.2,168.6h-13.8c-1.7,0-3.2,1.6-3.2,3.6V188c0,2,1.4,3.6,3.2,3.6h13.8c1.7,0,3.2-1.6,3.2-3.6v-15.8
			C325.4,170.2,323.9,168.6,322.2,168.6z M324.3,188c0,1.3-0.9,2.3-2.1,2.3h-13.8c-1.1,0-2.1-1.1-2.1-2.3v-15.8
			c0-1.3,0.9-2.4,2.1-2.4h13.8c1.1,0,2.1,1.1,2.1,2.4V188L324.3,188z"/>
		<path class="st17" d="M316.1,175.2c1.2,0,2,0.4,2.9,1.4l1.1-1.4c-1-1.3-2.4-2-3.9-2c-3.2,0-5.5,2.6-5.5,6c0,3.5,2.3,6,5.3,6
			c1.5,0,2.8-0.7,3.9-2l-1.1-1.3c-1,1.1-1.8,1.4-2.9,1.4c-1.8,0-3.5-1.7-3.5-4.1C312.5,176.8,314.1,175.2,316.1,175.2z"/>
	</g>
	<rect x="258.8" y="198.2" class="st2" width="93.1" height="18.8"/>
	<text transform="matrix(1.0255 0 0 1 258.7656 211.7452)" class="st3 st18">$211.401</text>
</g>
<g>
	<path class="st19" d="M573.9,306.1c-0.6-0.4-1.3-0.6-2.1-0.5c-0.4,0-0.8,0.2-1.1,0.4l3.6,1.8c-1.1,1.6-2,3.3-2.9,5.1
		c-0.6,1.2-1.1,2.6-1.5,4c-0.3,1.1-0.5,2.3-0.4,3.5c1.7-0.5,3.5-2.9,4.7-5.8c0.8-1.8,1.2-3.9,1.2-6.1
		C575.2,307.5,574.6,306.6,573.9,306.1z"/>
	<path class="st19" d="M549.7,283v7.4l19.9,9.1l0,0c1.5,0,3-0.1,4.5-0.3c3.9-0.7,6.4-2.1,6.4-3.6v-12.2l-12.2,5.3L549.7,283z"/>
	<polygon class="st19" points="563.8,267.6 537.4,276.8 549.7,280.5 568.2,286.2 580.5,280.8 594.1,275 	"/>
	<path class="st19" d="M567.8,317.8c0-0.2,0-0.3,0.1-0.5s0.1-0.4,0.1-0.6v-0.1c0.5-1.7,1-3.3,1.8-4.8c0.4-1,0.9-1.9,1.5-2.8v-0.1
		l-2.4-1.2c-0.6,0.8-1,1.6-1.4,2.6c-0.5,1.2-1,2.4-1.3,3.7l-28.1-16l-0.2,1c-0.2,1.5-0.2,3,0.6,3.5l29.6,18
		C567.7,319.9,567.6,319,567.8,317.8z"/>
	<path class="st19" d="M565.8,309.1c1.7-4.1,4.6-6.5,6.9-5.7h-0.1l-30.9-14.1c-1.2-0.6-2.8,1-3.7,3.8c-0.2,0.6-0.4,1.3-0.5,1.9
		l27.8,15.8C565.4,310.2,565.6,309.6,565.8,309.1z"/>
	<rect x="526.9" y="326.9" class="st2" width="100" height="21"/>
	<text transform="matrix(1.0255 0 0 1 526.8564 340.4093)" class="st3 st18">$420.264</text>
</g>
<rect x="499.1" y="197.4" class="st2" width="103.7" height="22.3"/>
<text transform="matrix(1.0255 0 0 1 499.1436 210.963)" class="st3 st18">$399.701</text>
<g>
	<path class="st20" d="M686.6,282.2h-3.7c-0.6-2.3-1.4-4.2-2.8-6.2l3.2-3.1c0.2-0.2,0.4-0.6,0.4-0.8c0-0.4-0.2-0.6-0.4-0.8l-4.1-4
		c-0.4-0.4-1.2-0.4-1.8,0l-3.2,3.1c-1.8-1.2-3.7-1.9-5.7-2.5v-4c0-0.6-0.6-1.2-1.2-1.2h-5.9c-0.6,0-1.2,0.6-1.2,1.2v3.9
		c-2.2,0.4-4.1,1.3-5.9,2.3l-3.4-3.3c-0.4-0.4-1.2-0.4-1.8,0l-4.1,4c-0.2,0.2-0.4,0.6-0.4,0.8c0,0.2,0.2,0.6,0.4,0.8l3.4,3.3
		c-1.2,1.9-2.2,4-2.8,6.4h-3.8c-0.6,0-1.2,0.6-1.2,1.2v5.8c0,0.6,0.6,1.2,1.2,1.2h3.7c0.3,2,1.3,3.7,2.1,5.4l3-3.6
		c-0.8-1.8-1.3-3.8-1.3-5.9c0-8,6.6-14.5,14.8-14.5s14.8,6.5,14.8,14.5s-6.6,14.5-14.8,14.5c-1.4,0-2.9-0.2-4.2-0.6l-2.9,3.3
		c0.9,0.3,1.9,0.6,2.9,0.8v3.3c0,0.6,0.6,1.2,1.2,1.2h5.9c0.6,0,1.2-0.6,1.2-1.2V304c2.3-0.6,4.3-1.3,6.3-2.7l2.6,2.5
		c0.2,0.2,0.6,0.4,0.8,0.4s0.6-0.2,0.8-0.4l4.1-4c0.2-0.2,0.4-0.6,0.4-0.8c0-0.4-0.2-0.6-0.4-0.8l-2.6-2.5c1.2-1.7,2-3.6,2.3-5.8
		h3.7c0.6,0,1.2-0.6,1.2-1.2V283C687.8,282.8,687.4,282.2,686.6,282.2z"/>
	<path class="st20" d="M676,284.8c-0.2-1.8-0.8-3.6-1.9-5.2l-7.2,8.3l-4.7-3.8l7.2-8.2c-1.7-0.7-3.4-1-5.2-0.8
		c-6,0.5-10.5,5.7-10,11.6c0.1,1.2,0.4,2.3,0.9,3.5l0.1,0.1l-17.4,20.1c-0.7,0.8-1.1,2-1,3.1s0.6,2.1,1.5,2.8s2,1.1,3.2,1
		c1.1-0.1,2.2-0.6,2.9-1.5l17.2-19.8l0.2,0.1c1.4,0.5,2.9,0.6,4.4,0.5C672,295.9,676.5,290.7,676,284.8z M641.2,314.2
		c-0.9,0.1-1.5-0.6-1.6-1.3c-0.1-0.8,0.6-1.5,1.4-1.6c0.9-0.1,1.5,0.6,1.6,1.3S642,314.2,641.2,314.2z"/>
	<rect x="619.9" y="326.3" class="st2" width="86.8" height="19.6"/>
	<text transform="matrix(1.0255 0 0 1 619.8564 339.796)" class="st3 st18">$498.226</text>
</g>
<g>
	<g>
		<path d="M998.3,139c-0.5,0.6-1.2,1.4-2.1,2.4c-3.8-3.6-7.5-4.1-10.3-4.5c-8,13-17,20.6-28.8,28.7c-0.3,0-0.7,0.2-1.1,0.4
			c-2.1,1.4-3,3.8-3.5,6.7c-1.2,6.7,0.9,14.8,7.2,16.2c3.7,0.8,6.1,0.2,7.7-1.8c1.2-1.4,6.5-7.5,13.3-14.6
			c7.7-7.9,17-15.4,20.8-18.6c3.5-3,2.8-7.7,0.3-11.3c-0.9-1.4-2.1-2.6-3.3-3.4L998.3,139z M969.2,181.7c0.5-3.6,0.3-10.3,0.2-12.5
			c0.9-0.4,2.6-1.6,5.8-4c8.9-6.7,16.1-14.6,23.4-23.3c2.6,2.4,4.9,7.3,1.8,10.1c-3.7,3-13.5,10.9-21,18.6
			C975.3,174.9,971.6,178.9,969.2,181.7z M965.8,185.4c-1.1,1.4-2.8,1.8-5.6,1.2c-5.8-1.4-7-9.5-5.4-15.2c1.6-5.5,6.5-4.7,8-0.8
			l-6.3,6.3c0.2,0.6,0.5,4.6,3.7,5.5c2.3,0.8,4.2-1.6,4.9-4.4c0.3-1.8,0.5-4,0-6.5c-0.3-3-2.1-5.1-4.4-6.1
			c11-7.7,18.5-14.2,26.1-26.1c3.2,0.6,5.2,1.4,7.9,3.6c-7.3,8.5-22.4,24.5-27.4,24.5c0,1.2,0.5,11.3-0.2,14.8
			C966.9,183.4,966.5,184.6,965.8,185.4z M963.4,173.2c0.2,2.2,0,4.9-1.2,6.3c-1.2,1.8-2.8,0-3.3-1.8L963.4,173.2z"/>
		<path class="st21" d="M996.1,180.5c0,0-1.2-4.1-3.3-7.1s-6.1-4.7-6.1-4.7s2.6,3.2,3.7,7.7c1.2,4.5,1.4,6.5,1.4,6.5l-2.4-1.4
			l-1.9,4c0,0,0.9-5.3-1.2-10.1c-1.9-4.7-3.3-6.1-3.3-6.1c0.5-8.5-3.2-13-10.7-13.6l5.6-5.7c6.6-0.2,10.5,7.9,9.8,14.8
			c5.1,3.2,9.8,7.7,14,12.1l-3.8,0.8L996.1,180.5z"/>
	</g>
	<rect x="937.5" y="194" class="st2" width="92.4" height="17.8"/>
	<text transform="matrix(1.0255 0 0 1 937.4814 207.5636)" class="st3 st18">$742.019</text>
</g>
<g>
	<g>
		<path d="M1171.2,271.7c-0.5,0.6-1.2,1.4-2.1,2.4c-3.8-3.6-7.5-4.2-10.3-4.5c-8,13-17,20.6-28.8,28.7c-0.3,0-0.7,0.2-1.1,0.4
			c-2.1,1.4-3,3.8-3.5,6.7c-1.2,6.7,0.9,14.8,7.2,16.2c3.7,0.8,6.1,0.2,7.7-1.8c1.2-1.4,6.5-7.5,13.3-14.6
			c7.7-7.9,17-15.4,20.8-18.6c3.5-3,2.8-7.7,0.3-11.3c-0.9-1.4-2.1-2.6-3.3-3.4L1171.2,271.7z M1142,314.4
			c0.5-3.6,0.3-10.3,0.2-12.5c0.9-0.4,2.6-1.6,5.8-4c8.9-6.7,16.1-14.6,23.4-23.3c2.6,2.4,4.9,7.3,1.8,10.1
			c-3.7,3-13.5,10.9-21,18.6C1148.1,307.6,1144.4,311.6,1142,314.4z M1138.7,318.1c-1.1,1.4-2.8,1.8-5.6,1.2
			c-5.8-1.4-7-9.5-5.4-15.2c1.6-5.5,6.5-4.7,8-0.8l-6.3,6.3c0.2,0.6,0.5,4.5,3.7,5.5c2.3,0.8,4.2-1.6,4.9-4.3c0.3-1.8,0.5-4,0-6.5
			c-0.3-3-2.1-5.1-4.4-6.1c11-7.7,18.5-14.2,26.1-26.1c3.2,0.6,5.2,1.4,7.9,3.6c-7.3,8.5-22.4,24.5-27.4,24.5
			c0,1.2,0.5,11.3-0.2,14.8C1139.7,316.1,1139.4,317.3,1138.7,318.1z M1136.2,305.9c0.2,2.2,0,4.9-1.2,6.3c-1.2,1.8-2.8,0-3.3-1.8
			L1136.2,305.9z"/>
		<path class="st21" d="M1168.9,313.2c0,0-1.2-4.2-3.3-7.1s-6.1-4.7-6.1-4.7s2.6,3.2,3.7,7.7c1.2,4.5,1.4,6.5,1.4,6.5l-2.4-1.4
			l-1.9,4c0,0,0.9-5.3-1.2-10.1c-1.9-4.7-3.3-6.1-3.3-6.1c0.5-8.5-3.2-13-10.7-13.6l5.6-5.7c6.6-0.2,10.5,7.9,9.8,14.8
			c5.1,3.2,9.8,7.7,14,12.1l-3.8,0.8L1168.9,313.2z"/>
	</g>
	<rect x="1103.9" y="329.7" class="st2" width="109" height="19.1"/>
	<text transform="matrix(1.0255 0 0 1 1103.8564 343.2706)" class="st3 st18">$876.618</text>
</g>
<g>
	<rect x="344.3" y="197.9" class="st2" width="99.6" height="21.9"/>
	<text transform="matrix(1.0255 0 0 1 344.2939 211.4279)" class="st3 st18">$282.611</text>
	<path class="st19" d="M401.8,178.6c-0.6-0.4-1.3-0.6-2.1-0.5c-0.4,0-0.8,0.2-1.1,0.4l3.6,1.9c-1.1,1.6-2,3.3-2.9,5.1
		c-0.6,1.2-1.1,2.6-1.5,4c-0.3,1.1-0.5,2.3-0.4,3.5c1.7-0.5,3.5-2.9,4.7-5.8c0.8-1.8,1.2-3.9,1.2-6.1
		C403.1,180,402.6,179.1,401.8,178.6z"/>
	<path class="st19" d="M377.6,155.4v7.4l19.9,9.1l0,0c1.5,0,3-0.1,4.5-0.3c3.9-0.7,6.4-2.1,6.4-3.6v-12.2l-12.2,5.3L377.6,155.4z"/>
	<polygon class="st19" points="391.7,140.1 365.4,149.3 377.6,153 396.2,158.6 408.5,153.3 422,147.4 	"/>
	<path class="st19" d="M395.7,190.3c0-0.2,0-0.3,0.1-0.5s0.1-0.4,0.1-0.6v-0.1c0.5-1.7,1-3.3,1.8-4.8c0.4-1,0.9-1.9,1.5-2.8v-0.1
		l-2.4-1.2c-0.6,0.8-1,1.6-1.4,2.6c-0.5,1.2-1,2.4-1.3,3.7l-28.1-16l-0.2,1c-0.2,1.5-0.2,3,0.6,3.5l29.6,18
		C395.6,192.3,395.5,191.5,395.7,190.3z"/>
	<path class="st19" d="M393.8,181.6c1.7-4.1,4.6-6.5,6.9-5.7h-0.1l-30.9-14.1c-1.2-0.6-2.8,1-3.7,3.8c-0.2,0.6-0.4,1.3-0.5,1.9
		l27.8,15.8C393.3,182.6,393.5,182.1,393.8,181.6z"/>
</g>
</svg>
