<?xml version="1.0" encoding="utf-8"?>
<!-- Generator: Adobe Illustrator 22.0.1, SVG Export Plug-In . SVG Version: 6.00 Build 0)  -->
<svg version="1.1" id="Capa_1" xmlns="http://www.w3.org/2000/svg" xmlns:xlink="http://www.w3.org/1999/xlink" x="0px" y="0px"
	 viewBox="0 0 1500.6 410.2" style="enable-background:new 0 0 1500.6 410.2;" xml:space="preserve">
<style type="text/css">
	.st0{opacity:0.8;fill:#DCF4F3;stroke:#416190;stroke-width:5;stroke-miterlimit:5.83;}
	.st1{fill:none;stroke:#000000;stroke-width:3.0401;stroke-miterlimit:10;}
	.st2{fill:none;}
	.st3{font-family:'ArialMT';}
	.st4{font-size:16px;}
	.st5{letter-spacing:27.6;}
	.st6{letter-spacing:9.2;}
	.st7{fill:#FF0000;}
	.st8{font-size:21px;}
	.st9{font-family:'Verdana-Bold';}
	.st10{fill:none;stroke:#000000;stroke-width:0.25;stroke-miterlimit:10;}
	.st11{font-size:12.243px;}
	.st12{fill:#FCEE21;}
	.st13{font-size:16.6514px;}
	.st14{fill:#FF0000;stroke:#FF0000;stroke-width:1.3664;stroke-miterlimit:10;}
	.st15{font-size:18.9273px;}
	.st16{fill:#FF0000;stroke:#FF0000;stroke-width:1.3343;stroke-miterlimit:10;}
	.st17{font-size:18px;}
	.st18{fill:#FF0000;stroke:#FF0000;stroke-width:0.2169;stroke-miterlimit:10;}
	.st19{fill:#FF0000;stroke:#FF0000;stroke-width:0.1414;stroke-miterlimit:10;}
</style>
<path class="st0" d="M45,2.5h1410.4c23.5,0,42.6,19.1,42.6,42.5v320.1c0,23.5-19.1,42.5-42.6,42.5H45c-23.5,0-42.5-19.1-42.5-42.5
	V45C2.4,21.6,21.5,2.5,45,2.5z"/>
<rect x="102.1" y="232.5" class="st1" width="1385.4" height="21.3"/>
<rect x="116" y="236.9" class="st2" width="1371.8" height="36.8"/>
<text transform="matrix(0.9794 0 0 1 116.0098 248.9712)" class="st3 st4">$100.000</text>
<text transform="matrix(0.9794 0 0 1 181.3555 248.9712)" class="st3 st4 st5"> </text>
<text transform="matrix(0.9794 0 0 1 213.8623 248.9712)" class="st3 st4 st5"> </text>
<text transform="matrix(0.9794 0 0 1 246.4756 248.9712)" class="st3 st4">$200.000</text>
<text transform="matrix(0.9794 0 0 1 311.8213 248.9712)" class="st3 st4 st5"> </text>
<text transform="matrix(0.9794 0 0 1 344.3281 248.9712)" class="st3 st4 st5"> </text>
<text transform="matrix(0.9794 0 0 1 376.9424 248.9712)" class="st3 st4">$300.000</text>
<text transform="matrix(0.9794 0 0 1 442.2871 248.9712)" class="st3 st4 st5"> </text>
<text transform="matrix(0.9794 0 0 1 474.7939 248.9712)" class="st3 st4 st5"> </text>
<text transform="matrix(0.9794 0 0 1 507.4082 248.9712)" class="st3 st4">$400.000</text>
<text transform="matrix(0.9794 0 0 1 572.7529 248.9712)" class="st3 st4 st5"> </text>
<text transform="matrix(0.9794 0 0 1 605.2598 248.9712)" class="st3 st4 st5"> </text>
<text transform="matrix(0.9794 0 0 1 637.8838 248.9712)" class="st3 st4">$500.000</text>
<text transform="matrix(0.9794 0 0 1 703.2295 248.9712)" class="st3 st4 st5"> </text>
<text transform="matrix(0.9794 0 0 1 735.7256 248.9712)" class="st3 st4 st5"> </text>
<text transform="matrix(0.9794 0 0 1 768.3496 248.9712)" class="st3 st4">$600.000</text>
<text transform="matrix(0.9794 0 0 1 833.6953 248.9712)" class="st3 st4 st5"> </text>
<text transform="matrix(0.9794 0 0 1 866.2012 248.9712)" class="st3 st4 st5"> </text>
<text transform="matrix(0.9794 0 0 1 898.8154 248.9712)" class="st3 st4">$700.000</text>
<text transform="matrix(0.9794 0 0 1 964.1611 248.9712)" class="st3 st4 st5"> </text>
<text transform="matrix(0.9794 0 0 1 996.667 248.9712)" class="st3 st4 st5"> </text>
<text transform="matrix(0.9794 0 0 1 1029.2813 248.9712)" class="st3 st4">$800.000</text>
<text transform="matrix(0.9794 0 0 1 1094.627 248.9712)" class="st3 st4 st5"> </text>
<text transform="matrix(0.9794 0 0 1 1127.1328 248.9712)" class="st3 st4 st5"> </text>
<text transform="matrix(0.9794 0 0 1 1159.7471 248.9712)" class="st3 st4">$900.000</text>
<text transform="matrix(0.9794 0 0 1 1225.0928 248.9712)" class="st3 st4 st5"> </text>
<text transform="matrix(0.9794 0 0 1 1257.5986 248.9712)" class="st3 st4 st5"> </text>
<text transform="matrix(0.9794 0 0 1 1290.2129 248.9712)" class="st3 st4">$1.000.000 </text>
<text transform="matrix(0.9794 0 0 1 1372.9814 248.9712)" class="st3 st4 st6"> </text>
<text transform="matrix(0.9794 0 0 1 1388.0645 248.9712)" class="st3 st4 st5"> </text>
<text transform="matrix(0.9794 0 0 1 1420.6787 248.9712)" class="st3 st4">   +++</text>
<path class="st7" d="M575.8,153.6h-3.7c-0.6-2.3-1.4-4.2-2.8-6.1l3.2-3.1c0.2-0.2,0.4-0.6,0.4-0.8c0-0.4-0.2-0.6-0.4-0.8l-4.1-4
	c-0.4-0.4-1.2-0.4-1.8,0l-3.2,3.1c-1.8-1.2-3.7-1.9-5.7-2.5v-4c0-0.6-0.6-1.2-1.2-1.2h-5.9c-0.6,0-1.2,0.6-1.2,1.2v3.9
	c-2.2,0.4-4.1,1.3-5.9,2.3l-3.4-3.3c-0.4-0.4-1.2-0.4-1.8,0l-4.1,4c-0.2,0.2-0.4,0.6-0.4,0.8s0.2,0.6,0.4,0.8l3.4,3.3
	c-1.2,1.9-2.2,4-2.8,6.4h-3.6c-0.6,0-1.2,0.6-1.2,1.2v5.8c0,0.6,0.6,1.2,1.2,1.2h3.7c0.3,2,1.3,3.7,2.1,5.4l3-3.6
	c-0.8-1.8-1.3-3.8-1.3-5.9c0-8,6.6-14.5,14.8-14.5s14.8,6.5,14.8,14.5s-6.6,14.5-14.8,14.5c-1.4,0-2.9-0.2-4.2-0.6l-2.9,3.4
	c0.9,0.3,1.9,0.6,2.9,0.8v3.3c0,0.6,0.6,1.2,1.2,1.2h5.9c0.6,0,1.2-0.6,1.2-1.2v-3.5c2.3-0.6,4.3-1.3,6.3-2.7l2.6,2.5
	c0.2,0.2,0.6,0.4,0.8,0.4s0.6-0.2,0.8-0.4l4.1-4c0.2-0.2,0.4-0.6,0.4-0.8c0-0.4-0.2-0.6-0.4-0.8l-2.6-2.5c1.2-1.7,2-3.6,2.3-5.8h3.7
	c0.6,0,1.2-0.6,1.2-1.2v-5.8C577,154.2,576.6,153.6,575.8,153.6z"/>
<path class="st7" d="M565.2,156.2c-0.2-1.8-0.8-3.6-2-5.2l-7.2,8.3l-4.7-3.8l7.2-8.2c-1.7-0.7-3.4-1-5.2-0.8
	c-6,0.5-10.5,5.7-10,11.6c0.1,1.2,0.4,2.4,0.9,3.5l0.1,0.1l-17.4,20.1c-0.7,0.8-1.1,2-1,3.1s0.6,2.1,1.5,2.8s2,1.1,3.2,1
	c1.1-0.1,2.2-0.6,2.9-1.5l17.2-19.8l0.2,0.1c1.4,0.5,2.9,0.6,4.4,0.5C561.2,167.3,565.7,162.1,565.2,156.2z M530.4,185.6
	c-0.9,0.1-1.5-0.6-1.6-1.3c-0.1-0.8,0.6-1.5,1.4-1.6c0.9-0.1,1.5,0.6,1.6,1.3C531.9,184.8,531.3,185.5,530.4,185.6z"/>
<rect x="826.1" y="376.7" class="st2" width="92" height="32.3"/>
<text transform="matrix(0.9794 0 0 1 826.0283 392.5376)" class="st3 st8">$650.728</text>
<rect x="593.2" y="19.4" class="st2" width="439.9" height="108.7"/>
<text transform="matrix(1 0 0 1 751.2394 35.1808)" class="st9 st8"> BIO BIO Vlll</text>
<text transform="matrix(1 0 0 1 576.1559 85.5807)" class="st9 st8">Población:</text>
<text transform="matrix(1 0 0 1 699.2559 85.5807)" class="st3 st8"> </text>
<text transform="matrix(1 0 0 1 599.1559 85.5807)" class="st10 st3 st8"> </text>
<text transform="matrix(1 0 0 1 696.8865 85.5807)" class="st3 st8">1.556.805 </text>
<text transform="matrix(1 0 0 1 801.1307 85.5807)" class="st9 st8">Superficie:</text>
<text transform="matrix(1 0 0 1 928.779 85.5807)" class="st3 st8"> 23.890,2 km</text>
<text transform="matrix(1 0 0 1 1051.1788 75.5882)" class="st3 st11">2</text>
<rect x="864.3" y="124.1" class="st12" width="4.5" height="244"/>
<rect x="19.5" y="176.6" class="st2" width="105.4" height="23.7"/>
<text transform="matrix(0.9794 0 0 1 19.4609 188.5425)" class="st9 st13">MUJERES</text>
<rect x="19.5" y="298" class="st2" width="96.2" height="26"/>
<text transform="matrix(0.9794 0 0 1 19.4609 309.9868)" class="st9 st13">HOMBRES</text>
<rect x="218.6" y="60.8" class="st2" width="80.5" height="23.3"/>
<g>
	<g>
		<path class="st14" d="M413.1,294.2h-13.8c-1.7,0-3.2,1.7-3.2,3.8v16.6c0,2.1,1.4,3.8,3.2,3.8h13.8c1.7,0,3.2-1.7,3.2-3.8V298
			C416.2,295.9,414.8,294.2,413.1,294.2z M415.1,314.7c0,1.4-0.9,2.5-2,2.5h-13.8c-1.1,0-2-1.1-2-2.5v-16.6c0-1.4,0.9-2.5,2-2.5
			h13.8c1.1,0,2,1.1,2,2.5V314.7L415.1,314.7z"/>
		<path class="st14" d="M408.5,305.2c1-0.5,1.5-1.2,1.5-2.6c0-1.8-1-3.2-3.6-3.2h-3.9v12.2h4.4c2.6,0,3.7-1.6,3.7-3.4
			C410.5,306.6,409.7,305.6,408.5,305.2z M404.2,301.3h2.2c1.1,0,1.8,0.3,1.8,1.6c0,1-0.6,1.5-1.8,1.5h-2.2V301.3L404.2,301.3z
			 M406.8,309.7h-2.6v-3.3h2.5c1.4,0,2.2,0.5,2.2,1.6C408.8,309.3,408,309.7,406.8,309.7z"/>
		<path class="st14" d="M424.7,292.4c1.7,0,3.2-1.7,3.2-3.8V272c0-2.1-1.4-3.8-3.2-3.8h-13.8c-1.7,0-3.2,1.7-3.2,3.8v16.6
			c0,2.1,1.4,3.8,3.2,3.8H424.7L424.7,292.4z M408.9,288.6V272c0-1.4,0.9-2.5,2-2.5h13.8c1.1,0,2,1.1,2,2.5v16.6
			c0,1.4-0.9,2.5-2,2.5h-13.8C409.8,291,408.9,289.9,408.9,288.6z"/>
		<path class="st14" d="M415.3,282.7h5.1l1,2.8h1.8l-4.5-12.2h-1.8l-4.5,12.2h1.8L415.3,282.7z M417.8,275.8l1.8,5h-3.7L417.8,275.8
			z"/>
		<path class="st14" d="M436.4,294.2h-13.8c-1.7,0-3.2,1.7-3.2,3.8v16.6c0,2.1,1.4,3.8,3.2,3.8h13.8c1.7,0,3.2-1.7,3.2-3.8V298
			C439.6,295.9,438.2,294.2,436.4,294.2z M438.5,314.7c0,1.4-0.9,2.5-2,2.5h-13.8c-1.1,0-2-1.1-2-2.5v-16.6c0-1.4,0.9-2.5,2-2.5
			h13.8c1.1,0,2,1.1,2,2.5V314.7L438.5,314.7z"/>
		<path class="st14" d="M430.4,301.1c1.2,0,2,0.5,2.9,1.5l1.1-1.4c-1-1.4-2.4-2.1-3.9-2.1c-3.2,0-5.4,2.7-5.4,6.3
			c0,3.7,2.3,6.3,5.3,6.3c1.5,0,2.8-0.7,3.9-2.1l-1.1-1.4c-1,1.2-1.8,1.5-2.8,1.5c-1.8,0-3.5-1.8-3.5-4.3
			C426.8,302.8,428.4,301.1,430.4,301.1z"/>
	</g>
	<rect x="378.7" y="326" class="st2" width="84.1" height="25.4"/>
	<text transform="matrix(0.9484 0 0 1 378.6836 340.2358)" class="st3 st15">$306.235</text>
</g>
<g>
	<g>
		<path class="st16" d="M300.9,169.8h-13.8c-1.7,0-3.2,1.6-3.2,3.6v15.8c0,2,1.4,3.6,3.2,3.6h13.8c1.7,0,3.2-1.6,3.2-3.6v-15.8
			C304.1,171.4,302.7,169.8,300.9,169.8z M303,189.2c0,1.3-0.9,2.3-2.1,2.3h-13.8c-1.1,0-2.1-1.1-2.1-2.3v-15.8
			c0-1.3,0.9-2.4,2.1-2.4h13.8c1.1,0,2.1,1.1,2.1,2.4V189.2L303,189.2z"/>
		<path class="st16" d="M296.3,180.3c1-0.5,1.5-1.1,1.5-2.5c0-1.7-1-3.1-3.6-3.1h-4v11.6h4.4c2.6,0,3.7-1.5,3.7-3.2
			C298.4,181.6,297.6,180.6,296.3,180.3z M292,176.5h2.2c1.1,0,1.8,0.3,1.8,1.6c0,1-0.6,1.4-1.9,1.4h-2.2L292,176.5L292,176.5z
			 M294.7,184.5H292v-3.2h2.5c1.4,0,2.2,0.5,2.2,1.5C296.6,184.2,295.9,184.5,294.7,184.5z"/>
		<path class="st16" d="M312.6,168c1.7,0,3.2-1.6,3.2-3.6v-15.8c0-2-1.4-3.6-3.2-3.6h-13.8c-1.7,0-3.2,1.6-3.2,3.6v15.8
			c0,2,1.4,3.6,3.2,3.6H312.6L312.6,168z M296.7,164.4v-15.8c0-1.3,0.9-2.4,2.1-2.4h13.8c1.1,0,2.1,1.1,2.1,2.4v15.8
			c0,1.3-0.9,2.4-2.1,2.4h-13.8C297.7,166.8,296.7,165.7,296.7,164.4z"/>
		<path class="st16" d="M303.2,158.8h5.1l1,2.6h1.8l-4.5-11.6h-1.8l-4.5,11.6h1.8L303.2,158.8z M305.7,152.3l1.8,4.8h-3.7
			L305.7,152.3z"/>
		<path class="st16" d="M324.4,169.8h-13.8c-1.7,0-3.2,1.6-3.2,3.6v15.8c0,2,1.4,3.6,3.2,3.6h13.8c1.7,0,3.2-1.6,3.2-3.6v-15.8
			C327.6,171.4,326.1,169.8,324.4,169.8z M326.5,189.2c0,1.3-0.9,2.3-2.1,2.3h-13.8c-1.1,0-2.1-1.1-2.1-2.3v-15.8
			c0-1.3,0.9-2.4,2.1-2.4h13.8c1.1,0,2.1,1.1,2.1,2.4V189.2L326.5,189.2z"/>
		<path class="st16" d="M318.3,176.4c1.2,0,2,0.4,2.9,1.4l1.1-1.4c-1-1.3-2.4-2-3.9-2c-3.2,0-5.5,2.6-5.5,6c0,3.5,2.3,6,5.3,6
			c1.5,0,2.8-0.7,3.9-2l-1.1-1.3c-1,1.1-1.8,1.4-2.9,1.4c-1.8,0-3.5-1.7-3.5-4.1C314.7,178,316.3,176.4,318.3,176.4z"/>
	</g>
	<rect x="261" y="199.4" class="st2" width="93.1" height="18.8"/>
	<text transform="matrix(1.0255 0 0 1 260.9316 212.9819)" class="st3 st17">$211.401</text>
</g>
<g>
	<path class="st18" d="M576.1,307.3c-0.6-0.4-1.3-0.6-2.1-0.5c-0.4,0-0.8,0.2-1.1,0.4l3.6,1.8c-1.1,1.6-2,3.3-2.9,5.1
		c-0.6,1.2-1.1,2.6-1.5,4c-0.3,1.1-0.5,2.3-0.4,3.5c1.7-0.5,3.5-2.9,4.7-5.8c0.8-1.8,1.2-3.9,1.2-6.1
		C577.4,308.7,576.8,307.8,576.1,307.3z"/>
	<path class="st18" d="M551.9,284.2v7.4l19.9,9.1l0,0c1.5,0,3-0.1,4.5-0.3c3.9-0.7,6.4-2.1,6.4-3.6v-12.2l-12.2,5.3L551.9,284.2z"/>
	<polygon class="st18" points="566,268.8 539.6,278 551.9,281.7 570.4,287.4 582.7,282 596.3,276.2 	"/>
	<path class="st18" d="M570,319c0-0.2,0-0.3,0.1-0.5s0.1-0.4,0.1-0.6v-0.1c0.5-1.7,1-3.3,1.8-4.8c0.4-1,0.9-1.9,1.5-2.8v-0.1
		l-2.4-1.2c-0.6,0.8-1,1.6-1.4,2.6c-0.5,1.2-1,2.4-1.3,3.7l-28.1-16l-0.2,1c-0.2,1.5-0.2,3,0.6,3.5l29.6,18
		C569.9,321.1,569.8,320.2,570,319z"/>
	<path class="st18" d="M568,310.3c1.7-4.1,4.6-6.5,6.9-5.7h-0.1l-30.9-14.1c-1.2-0.6-2.8,1-3.7,3.8c-0.2,0.6-0.4,1.3-0.5,1.9
		l27.8,15.8C567.6,311.4,567.8,310.8,568,310.3z"/>
	<rect x="529.1" y="328.1" class="st2" width="100" height="21"/>
	<text transform="matrix(1.0255 0 0 1 529.0225 341.646)" class="st3 st17">$420.264</text>
</g>
<rect x="501.3" y="198.6" class="st2" width="103.7" height="22.3"/>
<text transform="matrix(1.0255 0 0 1 501.3096 212.1997)" class="st3 st17">$399.701</text>
<g>
	<path class="st19" d="M688.8,283.4h-3.7c-0.6-2.3-1.4-4.2-2.8-6.2l3.2-3.1c0.2-0.2,0.4-0.6,0.4-0.8c0-0.4-0.2-0.6-0.4-0.8l-4.1-4
		c-0.4-0.4-1.2-0.4-1.8,0l-3.2,3.1c-1.8-1.2-3.7-1.9-5.7-2.5v-4c0-0.6-0.6-1.2-1.2-1.2h-5.9c-0.6,0-1.2,0.6-1.2,1.2v3.9
		c-2.2,0.4-4.1,1.3-5.9,2.3l-3.4-3.3c-0.4-0.4-1.2-0.4-1.8,0l-4.1,4c-0.2,0.2-0.4,0.6-0.4,0.8c0,0.2,0.2,0.6,0.4,0.8l3.4,3.3
		c-1.2,1.9-2.2,4-2.8,6.4H644c-0.6,0-1.2,0.6-1.2,1.2v5.8c0,0.6,0.6,1.2,1.2,1.2h3.7c0.3,2,1.3,3.7,2.1,5.4l3-3.6
		c-0.8-1.8-1.3-3.8-1.3-5.9c0-8,6.6-14.5,14.8-14.5s14.8,6.5,14.8,14.5s-6.6,14.5-14.8,14.5c-1.4,0-2.9-0.2-4.2-0.6l-2.9,3.3
		c0.9,0.3,1.9,0.6,2.9,0.8v3.3c0,0.6,0.6,1.2,1.2,1.2h5.9c0.6,0,1.2-0.6,1.2-1.2v-3.5c2.3-0.6,4.3-1.3,6.3-2.7l2.6,2.5
		c0.2,0.2,0.6,0.4,0.8,0.4s0.6-0.2,0.8-0.4l4.1-4c0.2-0.2,0.4-0.6,0.4-0.8c0-0.4-0.2-0.6-0.4-0.8l-2.6-2.5c1.2-1.7,2-3.6,2.3-5.8
		h3.7c0.6,0,1.2-0.6,1.2-1.2v-5.7C690,284,689.6,283.4,688.8,283.4z"/>
	<path class="st19" d="M678.2,286c-0.2-1.8-0.8-3.6-1.9-5.2l-7.2,8.3l-4.7-3.8l7.2-8.2c-1.7-0.7-3.4-1-5.2-0.8
		c-6,0.5-10.5,5.7-10,11.6c0.1,1.2,0.4,2.3,0.9,3.5l0.1,0.1L640,311.6c-0.7,0.8-1.1,2-1,3.1s0.6,2.1,1.5,2.8s2,1.1,3.2,1
		c1.1-0.1,2.2-0.6,2.9-1.5l17.2-19.8l0.2,0.1c1.4,0.5,2.9,0.6,4.4,0.5C674.2,297.1,678.7,291.9,678.2,286z M643.4,315.4
		c-0.9,0.1-1.5-0.6-1.6-1.3c-0.1-0.8,0.6-1.5,1.4-1.6c0.9-0.1,1.5,0.6,1.6,1.3S644.2,315.4,643.4,315.4z"/>
	<rect x="622.1" y="327.5" class="st2" width="86.8" height="19.6"/>
	<text transform="matrix(1.0255 0 0 1 622.0225 341.0327)" class="st3 st17">$498.226</text>
</g>
<g>
	<g>
		<path d="M1000.5,140.2c-0.5,0.6-1.2,1.4-2.1,2.4c-3.8-3.6-7.5-4.1-10.3-4.5c-8,13-17,20.6-28.8,28.7c-0.3,0-0.7,0.2-1.1,0.4
			c-2.1,1.4-3,3.8-3.5,6.7c-1.2,6.7,0.9,14.8,7.2,16.2c3.7,0.8,6.1,0.2,7.7-1.8c1.2-1.4,6.5-7.5,13.3-14.6
			c7.7-7.9,17-15.4,20.8-18.6c3.5-3,2.8-7.7,0.3-11.3c-0.9-1.4-2.1-2.6-3.3-3.4L1000.5,140.2z M971.4,182.9
			c0.5-3.6,0.3-10.3,0.2-12.5c0.9-0.4,2.6-1.6,5.8-4c8.9-6.7,16.1-14.6,23.4-23.3c2.6,2.4,4.9,7.3,1.8,10.1
			c-3.7,3-13.5,10.9-21,18.6C977.5,176.1,973.8,180.1,971.4,182.9z M968,186.6c-1.1,1.4-2.8,1.8-5.6,1.2c-5.8-1.4-7-9.5-5.4-15.2
			c1.6-5.5,6.5-4.7,8-0.8l-6.3,6.3c0.2,0.6,0.5,4.6,3.7,5.5c2.3,0.8,4.2-1.6,4.9-4.4c0.3-1.8,0.5-4,0-6.5c-0.3-3-2.1-5.1-4.4-6.1
			c11-7.7,18.5-14.2,26.1-26.1c3.2,0.6,5.2,1.4,7.9,3.6c-7.3,8.5-22.4,24.5-27.4,24.5c0,1.2,0.5,11.3-0.2,14.8
			C969.1,184.6,968.7,185.8,968,186.6z M965.6,174.4c0.2,2.2,0,4.9-1.2,6.3c-1.2,1.8-2.8,0-3.3-1.8L965.6,174.4z"/>
		<path d="M998.3,181.7c0,0-1.2-4.1-3.3-7.1s-6.1-4.7-6.1-4.7s2.6,3.2,3.7,7.7c1.2,4.5,1.4,6.5,1.4,6.5l-2.4-1.4l-1.9,4
			c0,0,0.9-5.3-1.2-10.1c-1.9-4.7-3.3-6.1-3.3-6.1c0.5-8.5-3.2-13-10.7-13.6l5.6-5.7c6.6-0.2,10.5,7.9,9.8,14.8
			c5.1,3.2,9.8,7.7,14,12.1l-3.8,0.8L998.3,181.7z"/>
	</g>
	<rect x="939.7" y="195.2" class="st2" width="92.4" height="17.8"/>
	<text transform="matrix(1.0255 0 0 1 939.6475 208.8003)" class="st3 st17">$742.019</text>
</g>
<g>
	<g>
		<path d="M1173.4,272.9c-0.5,0.6-1.2,1.4-2.1,2.4c-3.8-3.6-7.5-4.2-10.3-4.5c-8,13-17,20.6-28.8,28.7c-0.3,0-0.7,0.2-1.1,0.4
			c-2.1,1.4-3,3.8-3.5,6.7c-1.2,6.7,0.9,14.8,7.2,16.2c3.7,0.8,6.1,0.2,7.7-1.8c1.2-1.4,6.5-7.5,13.3-14.6
			c7.7-7.9,17-15.4,20.8-18.6c3.5-3,2.8-7.7,0.3-11.3c-0.9-1.4-2.1-2.6-3.3-3.4L1173.4,272.9z M1144.2,315.6
			c0.5-3.6,0.3-10.3,0.2-12.5c0.9-0.4,2.6-1.6,5.8-4c8.9-6.7,16.1-14.6,23.4-23.3c2.6,2.4,4.9,7.3,1.8,10.1
			c-3.7,3-13.5,10.9-21,18.6C1150.3,308.8,1146.6,312.8,1144.2,315.6z M1140.9,319.3c-1.1,1.4-2.8,1.8-5.6,1.2
			c-5.8-1.4-7-9.5-5.4-15.2c1.6-5.5,6.5-4.7,8-0.8l-6.3,6.3c0.2,0.6,0.5,4.5,3.7,5.5c2.3,0.8,4.2-1.6,4.9-4.3c0.3-1.8,0.5-4,0-6.5
			c-0.3-3-2.1-5.1-4.4-6.1c11-7.7,18.5-14.2,26.1-26.1c3.2,0.6,5.2,1.4,7.9,3.6c-7.3,8.5-22.4,24.5-27.4,24.5
			c0,1.2,0.5,11.3-0.2,14.8C1141.9,317.3,1141.6,318.5,1140.9,319.3z M1138.4,307.1c0.2,2.2,0,4.9-1.2,6.3c-1.2,1.8-2.8,0-3.3-1.8
			L1138.4,307.1z"/>
		<path d="M1171.1,314.4c0,0-1.2-4.2-3.3-7.1s-6.1-4.7-6.1-4.7s2.6,3.2,3.7,7.7c1.2,4.5,1.4,6.5,1.4,6.5l-2.4-1.4l-1.9,4
			c0,0,0.9-5.3-1.2-10.1c-1.9-4.7-3.3-6.1-3.3-6.1c0.5-8.5-3.2-13-10.7-13.6l5.6-5.7c6.6-0.2,10.5,7.9,9.8,14.8
			c5.1,3.2,9.8,7.7,14,12.1l-3.8,0.8L1171.1,314.4z"/>
	</g>
	<rect x="1106.1" y="330.9" class="st2" width="109" height="19.1"/>
	<text transform="matrix(1.0255 0 0 1 1106.0225 344.5073)" class="st3 st17">$876.618</text>
</g>
<g>
	<rect x="346.5" y="199.1" class="st2" width="99.6" height="21.9"/>
	<text transform="matrix(1.0255 0 0 1 346.46 212.6646)" class="st3 st17">$282.611</text>
	<path class="st18" d="M404,179.8c-0.6-0.4-1.3-0.6-2.1-0.5c-0.4,0-0.8,0.2-1.1,0.4l3.6,1.9c-1.1,1.6-2,3.3-2.9,5.1
		c-0.6,1.2-1.1,2.6-1.5,4c-0.3,1.1-0.5,2.3-0.4,3.5c1.7-0.5,3.5-2.9,4.7-5.8c0.8-1.8,1.2-3.9,1.2-6.1
		C405.3,181.2,404.8,180.3,404,179.8z"/>
	<path class="st18" d="M379.8,156.6v7.4l19.9,9.1l0,0c1.5,0,3-0.1,4.5-0.3c3.9-0.7,6.4-2.1,6.4-3.6V157l-12.2,5.3L379.8,156.6z"/>
	<polygon class="st18" points="393.9,141.3 367.6,150.5 379.8,154.2 398.4,159.8 410.7,154.5 424.2,148.6 	"/>
	<path class="st18" d="M397.9,191.5c0-0.2,0-0.3,0.1-0.5s0.1-0.4,0.1-0.6v-0.1c0.5-1.7,1-3.3,1.8-4.8c0.4-1,0.9-1.9,1.5-2.8v-0.1
		l-2.4-1.2c-0.6,0.8-1,1.6-1.4,2.6c-0.5,1.2-1,2.4-1.3,3.7l-28.1-16l-0.2,1c-0.2,1.5-0.2,3,0.6,3.5l29.6,18
		C397.8,193.5,397.7,192.7,397.9,191.5z"/>
	<path class="st18" d="M396,182.8c1.7-4.1,4.6-6.5,6.9-5.7h-0.1L371.9,163c-1.2-0.6-2.8,1-3.7,3.8c-0.2,0.6-0.4,1.3-0.5,1.9
		l27.8,15.8C395.5,183.8,395.7,183.3,396,182.8z"/>
</g>
</svg>
