<svg xmlns="http://www.w3.org/2000/svg" xmlns:xlink="http://www.w3.org/1999/xlink" version="1.1" x="0px" y="0px" viewBox="0 0 100 125" style="enable-background:new 0 0 100 100;" xml:space="preserve"><g><path d="M50.4799805,82.2000122l-0.1499634,0.9199829c-0.1300049,0.75-0.6799927,1.3499756-1.4200439,1.5299683   c-0.7299805,0.1700439-1.5-0.0999756-1.9499512-0.6999512l-0.7900391-1.0599976l-0.4400024,0.8899536   c-0.3599854,0.710022-0.2999878,1.5599976,0.1300049,2.210022l0.9700317,1.460022   C46.9500122,87.6199951,46.9799805,87.8099976,46.9799805,88h3.0400391c0-0.1900024,0.0299683-0.3800049,0.1499634-0.5499878   l0.5499878-0.8300171c0.6900024-1.0400391,0.7800293-2.3900146,0.2200317-3.5100098L50.4799805,82.2000122z"/><rect x="61" y="12" width="16" height="3"/><path d="M35,88h9.7999878l-0.5999756-0.9000244c-0.8300171-1.25-0.9400024-2.8599854-0.2600098-4.2099609l1.1699829-2.3400269   C45.2600098,80.2399902,45.5599976,80.039978,45.9099731,80c0.3500366-0.0300293,0.6800537,0.1199951,0.8900146,0.3999634   l1.6000366,2.1300049l0.6099854-3.6900024c0.0700073-0.4299927,0.4099731-0.7600098,0.8399658-0.8299561   c0.4300537-0.0700073,0.8500366,0.1599731,1.0400391,0.539978l1.8299561,3.6599731   c0.8900146,1.7700195,0.75,3.8800049-0.3399658,5.5200195L52.2000122,88H63V73H35V88z"/><path d="M50,12.4099731L16.4099731,46h7.460022l25.4100342-26.1700439c0.3799438-0.3799438,1.0599976-0.3799438,1.4399414,0   L76.1300049,46h7.460022L50,12.4099731z"/><polygon points="73,31.8900146 73,17 66,17 66,25.0899658  "/><path d="M25.0100098,47.7000122c-0.0100098,0-0.0100098,0-0.0100098,0V88h8V73h-3c-0.5499878,0-1-0.4500122-1-1v-7   c0-0.5499878,0.4500122-1,1-1h38c0.5499878,0,1,0.4500122,1,1v7c0,0.5499878-0.4500122,1-1,1h-3v15h8V45.6499634L50,21.9599609   L25.0100098,47.7000122z"/><rect x="31" y="66" width="36" height="5"/></g><text x="0" y="115" fill="#000000" font-size="5px" font-weight="bold" font-family="'Helvetica Neue', Helvetica, Arial-Unicode, Arial, Sans-serif">Created by Graphic Enginer</text><text x="0" y="120" fill="#000000" font-size="5px" font-weight="bold" font-family="'Helvetica Neue', Helvetica, Arial-Unicode, Arial, Sans-serif">from the Noun Project</text></svg>