<?xml version="1.0" encoding="utf-8"?>
<!-- Generator: Adobe Illustrator 22.0.1, SVG Export Plug-In . SVG Version: 6.00 Build 0)  -->
<svg version="1.1" id="Capa_1" xmlns="http://www.w3.org/2000/svg" xmlns:xlink="http://www.w3.org/1999/xlink" x="0px" y="0px"
	 viewBox="0 0 1500.3 410.2" style="enable-background:new 0 0 1500.3 410.2;" xml:space="preserve">
<style type="text/css">
	.st0{opacity:0.8;fill:#DCF4F3;stroke:#416190;stroke-width:5;stroke-miterlimit:5.83;}
	.st1{fill:none;stroke:#000000;stroke-width:3.0401;stroke-miterlimit:10;}
	.st2{fill:none;}
	.st3{font-family:'ArialMT';}
	.st4{font-size:16px;}
	.st5{letter-spacing:27.6;}
	.st6{letter-spacing:9.2;}
	.st7{fill:#FF0000;}
	.st8{font-size:21px;}
	.st9{font-family:'Verdana-Bold';}
	.st10{fill:none;stroke:#000000;stroke-width:0.25;stroke-miterlimit:10;}
	.st11{font-size:12.243px;}
	.st12{fill:#FCEE21;}
	.st13{font-size:16.6514px;}
	.st14{fill:#FF0000;stroke:#FF0000;stroke-width:1.3343;stroke-miterlimit:10;}
	.st15{font-size:18px;}
	.st16{fill:#FF0000;stroke:#FF0000;stroke-width:0.2169;stroke-miterlimit:10;}
	.st17{fill:#FF0033;stroke:#FF0000;stroke-width:0.1414;stroke-miterlimit:10;}
</style>
<path class="st0" d="M44.5,2.3h1411.2c23.3,0,42.2,18.9,42.2,42.2v320.9c0,23.3-18.9,42.1-42.2,42.1H44.5
	c-23.3,0-42.1-18.9-42.1-42.1V44.5C2.4,21.2,21.3,2.3,44.5,2.3z"/>
<rect x="99.3" y="235.8" class="st1" width="1385.4" height="21.3"/>
<rect x="113.2" y="240.2" class="st2" width="1371.8" height="36.8"/>
<text transform="matrix(0.9794 0 0 1 113.2056 252.2686)" class="st3 st4">$100.000</text>
<text transform="matrix(0.9794 0 0 1 178.5513 252.2686)" class="st3 st4 st5"> </text>
<text transform="matrix(0.9794 0 0 1 211.0571 252.2686)" class="st3 st4 st5"> </text>
<text transform="matrix(0.9794 0 0 1 243.6714 252.2686)" class="st3 st4">$200.000</text>
<text transform="matrix(0.9794 0 0 1 309.0176 252.2686)" class="st3 st4 st5"> </text>
<text transform="matrix(0.9794 0 0 1 341.5234 252.2686)" class="st3 st4 st5"> </text>
<text transform="matrix(0.9794 0 0 1 374.1377 252.2686)" class="st3 st4">$300.000</text>
<text transform="matrix(0.9794 0 0 1 439.4834 252.2686)" class="st3 st4 st5"> </text>
<text transform="matrix(0.9794 0 0 1 471.9893 252.2686)" class="st3 st4 st5"> </text>
<text transform="matrix(0.9794 0 0 1 504.6025 252.2686)" class="st3 st4">$400.000</text>
<text transform="matrix(0.9794 0 0 1 569.9492 252.2686)" class="st3 st4 st5"> </text>
<text transform="matrix(0.9794 0 0 1 602.4551 252.2686)" class="st3 st4 st5"> </text>
<text transform="matrix(0.9794 0 0 1 635.0791 252.2686)" class="st3 st4">$500.000</text>
<text transform="matrix(0.9794 0 0 1 700.4248 252.2686)" class="st3 st4 st5"> </text>
<text transform="matrix(0.9794 0 0 1 732.9209 252.2686)" class="st3 st4 st5"> </text>
<text transform="matrix(0.9794 0 0 1 765.5449 252.2686)" class="st3 st4">$600.000</text>
<text transform="matrix(0.9794 0 0 1 830.8906 252.2686)" class="st3 st4 st5"> </text>
<text transform="matrix(0.9794 0 0 1 863.3965 252.2686)" class="st3 st4 st5"> </text>
<text transform="matrix(0.9794 0 0 1 896.0107 252.2686)" class="st3 st4">$700.000</text>
<text transform="matrix(0.9794 0 0 1 961.3564 252.2686)" class="st3 st4 st5"> </text>
<text transform="matrix(0.9794 0 0 1 993.8623 252.2686)" class="st3 st4 st5"> </text>
<text transform="matrix(0.9794 0 0 1 1026.4766 252.2686)" class="st3 st4">$800.000</text>
<text transform="matrix(0.9794 0 0 1 1091.8223 252.2686)" class="st3 st4 st5"> </text>
<text transform="matrix(0.9794 0 0 1 1124.3291 252.2686)" class="st3 st4 st5"> </text>
<text transform="matrix(0.9794 0 0 1 1156.9424 252.2686)" class="st3 st4">$900.000</text>
<text transform="matrix(0.9794 0 0 1 1222.2881 252.2686)" class="st3 st4 st5"> </text>
<text transform="matrix(0.9794 0 0 1 1254.7939 252.2686)" class="st3 st4 st5"> </text>
<text transform="matrix(0.9794 0 0 1 1287.4082 252.2686)" class="st3 st4">$1.000.000 </text>
<text transform="matrix(0.9794 0 0 1 1370.1777 252.2686)" class="st3 st4 st6"> </text>
<text transform="matrix(0.9794 0 0 1 1385.2607 252.2686)" class="st3 st4 st5"> </text>
<text transform="matrix(0.9794 0 0 1 1417.874 252.2686)" class="st3 st4">   +++</text>
<path class="st7" d="M623,156.9h-3.7c-0.6-2.3-1.4-4.2-2.8-6.1l3.2-3.1c0.2-0.2,0.4-0.6,0.4-0.8c0-0.4-0.2-0.6-0.4-0.8l-4.1-4
	c-0.4-0.4-1.2-0.4-1.8,0l-3.2,3.1c-1.8-1.2-3.7-1.9-5.7-2.5v-4c0-0.6-0.6-1.2-1.2-1.2h-5.9c-0.6,0-1.2,0.6-1.2,1.2v3.9
	c-2.2,0.4-4.1,1.3-5.9,2.3l-3.4-3.3c-0.4-0.4-1.2-0.4-1.8,0l-4.1,4c-0.2,0.2-0.4,0.6-0.4,0.8s0.2,0.6,0.4,0.8l3.4,3.3
	c-1.2,1.9-2.2,4-2.8,6.4h-3.8c-0.6,0-1.2,0.6-1.2,1.2v5.8c0,0.6,0.6,1.2,1.2,1.2h3.7c0.3,2,1.3,3.7,2.1,5.4l3-3.6
	c-0.8-1.8-1.3-3.8-1.3-5.9c0-8,6.6-14.5,14.8-14.5s14.8,6.5,14.8,14.5s-6.6,14.5-14.8,14.5c-1.4,0-2.9-0.2-4.2-0.6l-2.9,3.4
	c0.9,0.3,1.9,0.6,2.9,0.8v3.3c0,0.6,0.6,1.2,1.2,1.2h5.9c0.6,0,1.2-0.6,1.2-1.2v-3.5c2.3-0.6,4.3-1.3,6.3-2.7l2.6,2.5
	c0.2,0.2,0.6,0.4,0.8,0.4s0.6-0.2,0.8-0.4l4.1-4c0.2-0.2,0.4-0.6,0.4-0.8c0-0.4-0.2-0.6-0.4-0.8l-2.6-2.5c1.2-1.7,1.9-3.6,2.3-5.8
	h3.7c0.6,0,1.2-0.6,1.2-1.2v-5.8C624.2,157.5,623.8,156.9,623,156.9z"/>
<path class="st7" d="M612.4,159.5c-0.2-1.8-0.8-3.6-2-5.2l-7.2,8.3l-4.7-3.8l7.2-8.2c-1.7-0.7-3.4-1-5.2-0.8
	c-6,0.5-10.5,5.7-10,11.6c0.1,1.2,0.4,2.4,0.9,3.5l0.1,0.1l-17.4,20.1c-0.7,0.8-1.1,2-1,3.1s0.6,2.1,1.5,2.8s2,1.1,3.2,1
	c1.1-0.1,2.2-0.6,2.9-1.5l17.2-19.8l0.2,0.1c1.4,0.5,2.9,0.6,4.4,0.5C608.4,170.6,612.9,165.4,612.4,159.5z M577.6,188.9
	c-0.9,0.1-1.5-0.6-1.6-1.3c-0.1-0.8,0.6-1.5,1.4-1.6c0.9-0.1,1.5,0.6,1.6,1.3C579,188.1,578.5,188.8,577.6,188.9z"/>
<rect x="807.3" y="380" class="st2" width="92" height="32.3"/>
<text transform="matrix(0.9794 0 0 1 807.2246 395.8345)" class="st3 st8">$644.276</text>
<rect x="590.3" y="22.7" class="st2" width="439.9" height="108.7"/>
<text transform="matrix(1 0 0 1 736.7689 28.4778)" class="st9 st8">COQUIMBO lV</text>
<text transform="matrix(1 0 0 1 577.1888 63.678)" class="st9 st8">Población:</text>
<text transform="matrix(1 0 0 1 699.0814 63.678)" class="st3 st8"> 757.586  </text>
<text transform="matrix(1 0 0 1 699.0814 63.678)" class="st10 st3 st8"> 757.586  </text>
<text transform="matrix(1 0 0 1 792.4877 63.678)" class="st9 st8">Superficie:</text>
<text transform="matrix(1 0 0 1 920.1367 63.678)" class="st3 st8"> 40.579,9 km</text>
<text transform="matrix(1 0 0 1 1042.5356 54.6849)" class="st3 st11">2</text>
<rect x="851.4" y="127.4" class="st12" width="4.5" height="244"/>
<rect x="16.7" y="179.9" class="st2" width="105.5" height="23.7"/>
<text transform="matrix(0.9794 0 0 1 16.6563 191.8398)" class="st9 st13">MUJERES</text>
<rect x="16.7" y="301.3" class="st2" width="96.2" height="26"/>
<text transform="matrix(0.9794 0 0 1 16.6563 313.2837)" class="st9 st13">HOMBRES</text>
<rect x="215.8" y="64.1" class="st2" width="80.5" height="23.3"/>
<g>
	<g>
		<path class="st14" d="M445.3,294.2h-13.8c-1.7,0-3.2,1.6-3.2,3.6v15.8c0,2,1.4,3.6,3.2,3.6h13.8c1.7,0,3.2-1.6,3.2-3.6v-15.8
			C448.5,295.8,447.1,294.2,445.3,294.2z M447.4,313.6c0,1.3-0.9,2.3-2.1,2.3h-13.8c-1.1,0-2.1-1.1-2.1-2.3v-15.8
			c0-1.3,0.9-2.3,2.1-2.3h13.8c1.1,0,2.1,1.1,2.1,2.3V313.6L447.4,313.6z"/>
		<path class="st14" d="M440.7,304.7c1-0.5,1.5-1.1,1.5-2.5c0-1.7-1-3.1-3.6-3.1h-4v11.6h4.4c2.6,0,3.7-1.5,3.7-3.2
			C442.8,306,442,305,440.7,304.7z M436.4,300.9h2.2c1.1,0,1.8,0.3,1.8,1.6c0,1-0.6,1.4-1.9,1.4h-2.2L436.4,300.9L436.4,300.9z
			 M439.1,308.9h-2.7v-3.2h2.5c1.4,0,2.2,0.5,2.2,1.5C441,308.6,440.3,308.9,439.1,308.9z"/>
		<path class="st14" d="M457,292.4c1.7,0,3.2-1.6,3.2-3.6V273c0-2-1.4-3.6-3.2-3.6h-13.8c-1.7,0-3.2,1.6-3.2,3.6v15.8
			c0,2,1.4,3.6,3.2,3.6H457L457,292.4z M441.1,288.8V273c0-1.3,0.9-2.3,2.1-2.3H457c1.1,0,2.1,1.1,2.1,2.3v15.8
			c0,1.3-0.9,2.3-2.1,2.3h-13.8C442.1,291.2,441.1,290.1,441.1,288.8z"/>
		<path class="st14" d="M447.6,283.3h5.1l1,2.6h1.8l-4.5-11.6h-1.8l-4.5,11.6h1.8L447.6,283.3z M450.1,276.7l1.8,4.8h-3.7
			L450.1,276.7z"/>
		<path class="st14" d="M468.8,294.2H455c-1.7,0-3.2,1.6-3.2,3.6v15.8c0,2,1.4,3.6,3.2,3.6h13.8c1.7,0,3.2-1.6,3.2-3.6v-15.8
			C472,295.8,470.5,294.2,468.8,294.2z M470.9,313.6c0,1.3-0.9,2.3-2.1,2.3H455c-1.1,0-2.1-1.1-2.1-2.3v-15.8c0-1.3,0.9-2.3,2.1-2.3
			h13.8c1.1,0,2.1,1.1,2.1,2.3V313.6L470.9,313.6z"/>
		<path class="st14" d="M462.7,300.8c1.2,0,2,0.4,2.9,1.4l1.1-1.4c-1-1.3-2.4-2-3.9-2c-3.2,0-5.5,2.6-5.5,6c0,3.5,2.3,6,5.3,6
			c1.5,0,2.8-0.7,3.9-2l-1.1-1.3c-1,1.1-1.8,1.4-2.9,1.4c-1.8,0-3.5-1.7-3.5-4.1C459.1,302.4,460.7,300.8,462.7,300.8z"/>
	</g>
	<rect x="410.9" y="324.4" class="st2" width="84.3" height="24.1"/>
	<text transform="matrix(0.9273 0 0 1 410.8784 337.9673)" class="st3 st15">$</text>
	<text transform="matrix(1.02 0 0 1 420.1592 337.9673)" class="st3 st15">310.621</text>
</g>
<rect x="340.7" y="202.4" class="st2" width="99.6" height="21.9"/>
<text transform="matrix(1.0255 0 0 1 340.6553 215.9609)" class="st3 st15">$274.503</text>
<g>
	<g>
		<path class="st14" d="M294.1,173.1h-13.8c-1.7,0-3.2,1.6-3.2,3.6v15.8c0,2,1.4,3.6,3.2,3.6h13.8c1.7,0,3.2-1.6,3.2-3.6v-15.8
			C297.3,174.7,295.9,173.1,294.1,173.1z M296.2,192.5c0,1.3-0.9,2.3-2.1,2.3h-13.8c-1.1,0-2.1-1.1-2.1-2.3v-15.8
			c0-1.3,0.9-2.4,2.1-2.4h13.8c1.1,0,2.1,1.1,2.1,2.4V192.5L296.2,192.5z"/>
		<path class="st14" d="M289.5,183.6c1-0.5,1.5-1.1,1.5-2.5c0-1.7-1-3.1-3.6-3.1h-3.9v11.6h4.4c2.6,0,3.7-1.5,3.7-3.2
			C291.6,184.9,290.8,183.9,289.5,183.6z M285.2,179.8h2.2c1.1,0,1.8,0.3,1.8,1.6c0,1-0.6,1.4-1.9,1.4h-2.1V179.8L285.2,179.8z
			 M287.9,187.8h-2.7v-3.2h2.5c1.4,0,2.2,0.5,2.2,1.5C289.8,187.5,289.1,187.8,287.9,187.8z"/>
		<path class="st14" d="M305.8,171.3c1.7,0,3.2-1.6,3.2-3.6v-15.8c0-2-1.4-3.6-3.2-3.6H292c-1.7,0-3.2,1.6-3.2,3.6v15.8
			c0,2,1.4,3.6,3.2,3.6H305.8L305.8,171.3z M289.9,167.7v-15.8c0-1.3,0.9-2.4,2.1-2.4h13.8c1.1,0,2.1,1.1,2.1,2.4v15.8
			c0,1.3-0.9,2.4-2.1,2.4H292C290.9,170.1,289.9,169,289.9,167.7z"/>
		<path class="st14" d="M296.4,162.1h5.1l1,2.6h1.8l-4.5-11.6H298l-4.5,11.6h1.8L296.4,162.1z M298.9,155.6l1.8,4.8H297L298.9,155.6
			z"/>
		<path class="st14" d="M317.6,173.1h-13.8c-1.7,0-3.2,1.6-3.2,3.6v15.8c0,2,1.4,3.6,3.2,3.6h13.8c1.7,0,3.2-1.6,3.2-3.6v-15.8
			C320.8,174.7,319.3,173.1,317.6,173.1z M319.7,192.5c0,1.3-0.9,2.3-2.1,2.3h-13.8c-1.1,0-2.1-1.1-2.1-2.3v-15.8
			c0-1.3,0.9-2.4,2.1-2.4h13.8c1.1,0,2.1,1.1,2.1,2.4V192.5L319.7,192.5z"/>
		<path class="st14" d="M311.5,179.7c1.2,0,2,0.4,2.9,1.4l1.1-1.4c-1-1.3-2.4-2-3.9-2c-3.2,0-5.5,2.6-5.5,6c0,3.5,2.3,6,5.3,6
			c1.5,0,2.8-0.7,3.9-2l-1.1-1.3c-1,1.1-1.8,1.4-2.9,1.4c-1.8,0-3.5-1.7-3.5-4.1C307.9,181.3,309.5,179.7,311.5,179.7z"/>
	</g>
	<rect x="254.2" y="202.7" class="st2" width="93.1" height="18.8"/>
	<text transform="matrix(1.0255 0 0 1 254.1265 216.2793)" class="st3 st15">$222.813</text>
</g>
<path class="st16" d="M612.3,310.6c-0.6-0.4-1.3-0.6-2.1-0.5c-0.4,0-0.8,0.2-1.1,0.4l3.6,1.8c-1.1,1.6-2,3.3-2.9,5.1
	c-0.6,1.2-1.1,2.6-1.5,4c-0.3,1.1-0.5,2.3-0.4,3.5c1.7-0.5,3.5-2.9,4.7-5.8c0.8-1.8,1.2-3.9,1.2-6.1
	C613.6,312,613,311.1,612.3,310.6z"/>
<path class="st16" d="M588.1,287.5v7.4L608,304l0,0c1.5,0,3-0.1,4.5-0.3c3.9-0.7,6.4-2.1,6.4-3.6v-12.3l-12.2,5.3L588.1,287.5z"/>
<polygon class="st16" points="602.2,272.1 575.8,281.3 588.1,285 606.6,290.7 618.9,285.3 632.5,279.5 "/>
<path class="st16" d="M606.1,322.3c0-0.2,0-0.3,0.1-0.5s0.1-0.4,0.1-0.6v-0.1c0.5-1.7,1-3.3,1.8-4.8c0.4-1,0.9-1.9,1.5-2.8v-0.1
	l-2.4-1.2c-0.6,0.8-1,1.6-1.4,2.6c-0.5,1.2-1,2.4-1.3,3.7l-28.1-16l-0.2,1c-0.2,1.5-0.2,3,0.6,3.5l29.6,18
	C606.1,324.4,606,323.5,606.1,322.3z"/>
<path class="st16" d="M604.2,313.6c1.7-4.1,4.6-6.5,6.9-5.7H611l-30.9-14.1c-1.2-0.6-2.8,1-3.7,3.8c-0.2,0.6-0.4,1.3-0.5,1.9
	l27.8,15.8C603.8,314.7,604,314.1,604.2,313.6z"/>
<rect x="565.2" y="331.4" class="st2" width="100" height="21"/>
<text transform="matrix(1.0255 0 0 1 565.2178 344.9434)" class="st3 st15">$456.337</text>
<rect x="548.5" y="201.9" class="st2" width="103.7" height="22.3"/>
<text transform="matrix(1.0255 0 0 1 548.5059 215.4971)" class="st3 st15">$448.532</text>
<g>
	<path class="st17" d="M748,290.7h-3.7c-0.6-2.3-1.4-4.2-2.8-6.2l3.2-3.1c0.2-0.2,0.4-0.6,0.4-0.8c0-0.4-0.2-0.6-0.4-0.8l-4.1-4
		c-0.4-0.4-1.2-0.4-1.8,0l-3.2,3.1c-1.8-1.2-3.7-1.9-5.7-2.5v-4c0-0.6-0.6-1.2-1.2-1.2h-5.9c-0.6,0-1.2,0.6-1.2,1.2v3.9
		c-2.2,0.4-4.1,1.3-5.9,2.3l-3.4-3.3c-0.4-0.4-1.2-0.4-1.8,0l-4.1,4c-0.2,0.2-0.4,0.6-0.4,0.8c0,0.2,0.2,0.6,0.4,0.8l3.4,3.3
		c-1.2,1.9-2.2,4-2.8,6.4h-3.8c-0.6,0-1.2,0.6-1.2,1.2v5.8c0,0.6,0.6,1.2,1.2,1.2h3.7c0.3,2,1.3,3.7,2.1,5.4l3-3.6
		c-0.8-1.8-1.3-3.8-1.3-5.9c0-8,6.6-14.5,14.8-14.5s14.8,6.5,14.8,14.5s-6.6,14.5-14.8,14.5c-1.4,0-2.9-0.2-4.2-0.6l-2.9,3.3
		c0.9,0.3,1.9,0.6,2.9,0.8v3.3c0,0.6,0.6,1.2,1.2,1.2h5.9c0.6,0,1.2-0.6,1.2-1.2v-3.5c2.3-0.6,4.3-1.3,6.3-2.7l2.6,2.5
		c0.2,0.2,0.6,0.4,0.8,0.4s0.6-0.2,0.8-0.4l4.1-4c0.2-0.2,0.4-0.6,0.4-0.8c0-0.4-0.2-0.6-0.4-0.8l-2.6-2.5c1.2-1.7,2-3.6,2.3-5.8
		h3.7c0.6,0,1.2-0.6,1.2-1.2v-5.8C749.2,291.3,748.8,290.7,748,290.7z"/>
	<path class="st17" d="M737.3,293.3c-0.2-1.8-0.8-3.6-2-5.2l-7.2,8.3l-4.7-3.8l7.2-8.2c-1.7-0.7-3.4-1-5.2-0.8
		c-6,0.5-10.5,5.7-10,11.6c0.1,1.2,0.4,2.3,0.9,3.5l0.1,0.1L699,318.9c-0.7,0.8-1.1,2-1,3.1s0.6,2.1,1.5,2.8s2,1.1,3.2,1
		c1.1-0.1,2.2-0.6,2.9-1.5l17.2-19.8l0.2,0.1c1.4,0.5,2.9,0.6,4.4,0.5C733.3,304.4,737.9,299.2,737.3,293.3z M702.6,322.7
		c-0.9,0.1-1.5-0.6-1.6-1.3c-0.1-0.8,0.6-1.5,1.4-1.6c0.9-0.1,1.5,0.6,1.6,1.3C704,321.9,703.4,322.7,702.6,322.7z"/>
	<rect x="677.2" y="334.8" class="st2" width="86.8" height="19.6"/>
	<text transform="matrix(1.0255 0 0 1 677.2178 348.3296)" class="st3 st15">$552.016</text>
</g>
<g>
	<g>
		<path d="M918.7,143.5c-0.5,0.6-1.2,1.4-2.1,2.4c-3.8-3.6-7.5-4.1-10.3-4.5c-8,13-17,20.6-28.8,28.7c-0.3,0-0.7,0.2-1.1,0.4
			c-2.1,1.4-3,3.8-3.5,6.7c-1.2,6.7,0.9,14.8,7.2,16.2c3.7,0.8,6.1,0.2,7.7-1.8c1.2-1.4,6.5-7.5,13.3-14.6
			c7.7-7.9,17-15.4,20.8-18.6c3.5-3,2.8-7.7,0.3-11.3c-0.9-1.4-2.1-2.6-3.3-3.4L918.7,143.5z M889.5,186.2
			c0.5-3.6,0.3-10.3,0.2-12.5c0.9-0.4,2.6-1.6,5.8-4c8.9-6.7,16.1-14.6,23.4-23.3c2.6,2.4,4.9,7.3,1.8,10.1
			c-3.7,3-13.5,10.9-21,18.6C895.7,179.4,892,183.4,889.5,186.2z M886.2,189.9c-1.1,1.4-2.8,1.8-5.6,1.2c-5.8-1.4-7-9.5-5.4-15.2
			c1.6-5.5,6.5-4.7,8-0.8l-6.3,6.3c0.2,0.6,0.5,4.6,3.7,5.5c2.3,0.8,4.2-1.6,4.9-4.4c0.3-1.8,0.5-4,0-6.5c-0.3-3-2.1-5.1-4.4-6.1
			c11-7.7,18.5-14.2,26.1-26.1c3.2,0.6,5.2,1.4,7.9,3.6c-7.3,8.5-22.4,24.5-27.4,24.5c0,1.2,0.5,11.3-0.2,14.8
			C887.3,187.9,886.9,189.1,886.2,189.9z M883.8,177.7c0.2,2.2,0,4.9-1.2,6.3c-1.2,1.8-2.8,0-3.3-1.8L883.8,177.7z"/>
		<path d="M916.5,185c0,0-1.2-4.1-3.3-7.1s-6.1-4.7-6.1-4.7s2.6,3.2,3.7,7.7c1.2,4.5,1.4,6.5,1.4,6.5l-2.4-1.4l-1.9,4
			c0,0,0.9-5.3-1.2-10.1c-1.9-4.7-3.3-6.1-3.3-6.1c0.5-8.5-3.2-13-10.7-13.6l5.6-5.7c6.6-0.2,10.5,7.9,9.8,14.8
			c5.1,3.2,9.8,7.7,14,12.1l-3.8,0.8L916.5,185z"/>
	</g>
	<rect x="857.9" y="198.5" class="st2" width="92.4" height="17.8"/>
	<text transform="matrix(1.0255 0 0 1 857.8438 212.0977)" class="st3 st15">$681.515</text>
</g>
<g>
	<g>
		<path d="M1311.6,276.2c-0.5,0.6-1.2,1.4-2.1,2.4c-3.8-3.6-7.5-4.2-10.3-4.5c-8,13-17,20.6-28.8,28.7c-0.3,0-0.7,0.2-1.1,0.4
			c-2.1,1.4-3,3.8-3.5,6.7c-1.2,6.7,0.9,14.8,7.2,16.2c3.7,0.8,6.1,0.2,7.7-1.8c1.2-1.4,6.5-7.5,13.3-14.6
			c7.7-7.9,17-15.4,20.8-18.6c3.5-3,2.8-7.7,0.3-11.3c-0.9-1.4-2.1-2.6-3.3-3.4L1311.6,276.2z M1282.4,318.9
			c0.5-3.6,0.3-10.3,0.2-12.5c0.9-0.4,2.6-1.6,5.8-4c8.9-6.7,16.1-14.6,23.4-23.3c2.6,2.4,4.9,7.3,1.8,10.1
			c-3.7,3-13.5,10.9-21,18.6C1288.5,312.1,1284.8,316.1,1282.4,318.9z M1279.1,322.6c-1.1,1.4-2.8,1.8-5.6,1.2
			c-5.8-1.4-7-9.5-5.4-15.2c1.6-5.5,6.5-4.7,8-0.8l-6.3,6.3c0.2,0.6,0.5,4.5,3.7,5.5c2.3,0.8,4.2-1.6,4.9-4.3c0.3-1.8,0.5-4,0-6.5
			c-0.3-3-2.1-5.1-4.4-6.1c11-7.7,18.5-14.2,26.1-26.1c3.2,0.6,5.2,1.4,7.9,3.6c-7.3,8.5-22.4,24.5-27.4,24.5
			c0,1.2,0.5,11.3-0.2,14.8C1280.1,320.6,1279.8,321.8,1279.1,322.6z M1276.6,310.4c0.2,2.2,0,4.9-1.2,6.3c-1.2,1.8-2.8,0-3.3-1.8
			L1276.6,310.4z"/>
		<path d="M1309.3,317.7c0,0-1.2-4.2-3.3-7.1s-6.1-4.7-6.1-4.7s2.6,3.2,3.7,7.7c1.2,4.5,1.4,6.5,1.4,6.5l-2.4-1.4l-1.9,4
			c0,0,0.9-5.3-1.2-10.1c-1.9-4.7-3.3-6.1-3.3-6.1c0.5-8.5-3.2-13-10.7-13.6l5.6-5.7c6.6-0.2,10.5,7.9,9.8,14.8
			c5.1,3.2,9.8,7.7,14,12.1l-3.8,0.8L1309.3,317.7z"/>
	</g>
	<rect x="1244.2" y="334.2" class="st2" width="109" height="19.1"/>
	<text transform="matrix(1.0255 0 0 1 1244.2178 347.8042)" class="st3 st15">$985.823</text>
</g>
<path class="st16" d="M398.2,183.1c-0.6-0.4-1.3-0.6-2.1-0.5c-0.4,0-0.8,0.2-1.1,0.4l3.6,1.9c-1.1,1.6-2,3.3-2.9,5.1
	c-0.6,1.2-1.1,2.6-1.5,4c-0.3,1.1-0.5,2.3-0.4,3.5c1.7-0.5,3.5-2.9,4.7-5.8c0.8-1.8,1.2-3.9,1.2-6.1
	C399.5,184.5,399,183.6,398.2,183.1z"/>
<path class="st16" d="M374,159.9v7.4l19.9,9.1l0,0c1.5,0,3-0.1,4.5-0.3c3.9-0.7,6.4-2.1,6.4-3.6v-12.2l-12.2,5.3L374,159.9z"/>
<polygon class="st16" points="388.1,144.6 361.8,153.8 374,157.5 392.5,163.1 404.8,157.8 418.4,151.9 "/>
<path class="st16" d="M392.1,194.8c0-0.2,0-0.3,0.1-0.5s0.1-0.4,0.1-0.6v-0.1c0.5-1.7,1-3.3,1.8-4.8c0.4-1,0.9-1.9,1.5-2.8v-0.1
	l-2.4-1.2c-0.6,0.8-1,1.6-1.4,2.6c-0.5,1.2-1,2.4-1.3,3.7l-28.1-16l-0.2,1c-0.2,1.5-0.2,3,0.6,3.5l29.6,18
	C392,196.8,391.9,196,392.1,194.8z"/>
<path class="st16" d="M390.1,186.1c1.7-4.1,4.6-6.5,6.9-5.7h-0.1L366,166.3c-1.2-0.6-2.8,1-3.7,3.8c-0.2,0.6-0.4,1.3-0.5,1.9
	l27.8,15.8C389.7,187.1,389.9,186.6,390.1,186.1z"/>
</svg>
