<?xml version="1.0" encoding="utf-8"?>
<!-- Generator: Adobe Illustrator 24.2.3, SVG Export Plug-In . SVG Version: 6.00 Build 0)  -->
<svg version="1.1" id="Capa_1" xmlns="http://www.w3.org/2000/svg" xmlns:xlink="http://www.w3.org/1999/xlink" x="0px" y="0px"
	 viewBox="0 0 1920 1080" style="enable-background:new 0 0 1920 1080;" xml:space="preserve">
<style type="text/css">
	.st0{fill:none;stroke:#000000;stroke-width:3.0401;stroke-miterlimit:10;}
	.st1{fill:none;}
	.st2{font-family:'Optima-Bold';}
	.st3{font-size:16px;}
	.st4{letter-spacing:28.59;}
	.st5{letter-spacing:10.21;}
	.st6{fill:#FF0000;}
	.st7{font-size:21px;}
	.st8{stroke:#000000;stroke-width:0.25;stroke-miterlimit:10;}
	.st9{font-family:'Optima-Regular';}
	.st10{fill:#FCEE21;}
	.st11{font-family:'Arial-Black';}
	.st12{font-size:16.6514px;}
	.st13{fill:#FF0000;stroke:#FF0000;stroke-width:1.3343;stroke-miterlimit:10;}
	.st14{font-size:18px;}
	.st15{fill:#FF0000;stroke:#FF0000;stroke-width:0.2169;stroke-miterlimit:10;}
	.st16{fill:#FF0033;stroke:#FF0000;stroke-width:0.1414;stroke-miterlimit:10;}
	.st17{fill-rule:evenodd;clip-rule:evenodd;}
</style>
<rect x="299.83" y="561.96" class="st0" width="1385.42" height="21.28"/>
<rect x="313.73" y="566.34" class="st1" width="1371.8" height="36.79"/>
<text transform="matrix(0.9794 0 0 1 313.7304 578.3708)"><tspan x="0" y="0" class="st2 st3">$100.000</tspan><tspan x="66.72" y="0" class="st2 st3 st4">	</tspan><tspan x="99.91" y="0" class="st2 st3 st4">	</tspan><tspan x="133.21" y="0" class="st2 st3">$200.000</tspan><tspan x="199.93" y="0" class="st2 st3 st4">	</tspan><tspan x="233.12" y="0" class="st2 st3 st4">	</tspan><tspan x="266.42" y="0" class="st2 st3">$300.000</tspan><tspan x="333.14" y="0" class="st2 st3 st4">	</tspan><tspan x="366.33" y="0" class="st2 st3 st4">	</tspan><tspan x="399.63" y="0" class="st2 st3">$400.000</tspan><tspan x="466.35" y="0" class="st2 st3 st4">	</tspan><tspan x="499.54" y="0" class="st2 st3 st4">	</tspan><tspan x="532.85" y="0" class="st2 st3">$500.000</tspan><tspan x="599.57" y="0" class="st2 st3 st4">	</tspan><tspan x="632.75" y="0" class="st2 st3 st4">	</tspan><tspan x="666.06" y="0" class="st2 st3">$600.000</tspan><tspan x="732.78" y="0" class="st2 st3 st4">	</tspan><tspan x="765.97" y="0" class="st2 st3 st4">	</tspan><tspan x="799.27" y="0" class="st2 st3">$700.000</tspan><tspan x="865.99" y="0" class="st2 st3 st4">	</tspan><tspan x="899.18" y="0" class="st2 st3 st4">	</tspan><tspan x="932.48" y="0" class="st2 st3">$800.000</tspan><tspan x="999.2" y="0" class="st2 st3 st4">	</tspan><tspan x="1032.39" y="0" class="st2 st3 st4">	</tspan><tspan x="1065.69" y="0" class="st2 st3">$900.000</tspan><tspan x="1132.41" y="0" class="st2 st3 st4">	</tspan><tspan x="1165.6" y="0" class="st2 st3 st4">	</tspan><tspan x="1198.9" y="0" class="st2 st3">$1.000.000 </tspan><tspan x="1283.41" y="0" class="st2 st3 st5">	</tspan><tspan x="1298.81" y="0" class="st2 st3 st4">	</tspan><tspan x="1332.11" y="0" class="st2 st3">   +++</tspan></text>
<path class="st6" d="M823.53,482.99h-3.72c-0.57-2.29-1.37-4.25-2.75-6.15l3.15-3.07c0.17-0.17,0.4-0.56,0.4-0.78
	c0-0.39-0.17-0.56-0.4-0.78l-4.12-4.02c-0.4-0.39-1.2-0.39-1.77,0l-3.15,3.07c-1.77-1.17-3.72-1.9-5.72-2.51v-4.02
	c0-0.56-0.57-1.17-1.2-1.17h-5.89c-0.57,0-1.2,0.56-1.2,1.17v3.86c-2.17,0.39-4.12,1.34-5.89,2.29l-3.38-3.3
	c-0.4-0.39-1.2-0.39-1.77,0l-4.12,4.02c-0.17,0.17-0.4,0.56-0.4,0.78c0,0.17,0.17,0.56,0.4,0.78l3.38,3.3
	c-1.2,1.9-2.17,4.02-2.75,6.37h-3.78c-0.57,0-1.2,0.56-1.2,1.17v5.76c0,0.56,0.57,1.17,1.2,1.17h3.72c0.34,1.96,1.26,3.74,2.12,5.36
	l3.03-3.58c-0.8-1.79-1.26-3.8-1.26-5.87c0-7.99,6.64-14.47,14.82-14.47c8.18,0,14.82,6.48,14.82,14.47s-6.64,14.47-14.82,14.47
	c-1.43,0-2.86-0.22-4.18-0.56l-2.86,3.35c0.92,0.34,1.89,0.61,2.86,0.84v3.3c0,0.56,0.57,1.17,1.2,1.17h5.89
	c0.57,0,1.2-0.56,1.2-1.17v-3.46c2.35-0.56,4.35-1.34,6.29-2.68l2.57,2.51c0.17,0.17,0.57,0.39,0.8,0.39s0.57-0.17,0.8-0.39
	l4.12-4.02c0.17-0.17,0.4-0.56,0.4-0.78c0-0.39-0.17-0.56-0.4-0.78l-2.57-2.51c1.2-1.73,1.94-3.63,2.35-5.76h3.72
	c0.57,0,1.2-0.56,1.2-1.17v-5.81C824.73,483.6,824.33,482.99,823.53,482.99z"/>
<path class="st6" d="M812.89,485.61c-0.17-1.84-0.8-3.63-1.95-5.2l-7.15,8.27l-4.69-3.8l7.15-8.21c-1.66-0.67-3.43-0.95-5.21-0.84
	c-6.01,0.5-10.53,5.7-10.01,11.57c0.11,1.17,0.4,2.35,0.92,3.46l0.06,0.11l-17.39,20.06c-0.74,0.84-1.09,1.96-1.03,3.07
	c0.11,1.12,0.63,2.12,1.49,2.85c0.86,0.73,2,1.06,3.15,1.01c1.14-0.11,2.17-0.61,2.92-1.45l17.16-19.84l0.17,0.06
	c1.43,0.45,2.92,0.61,4.4,0.5C808.89,496.73,813.41,491.54,812.89,485.61z M778.11,515.01c-0.86,0.06-1.54-0.56-1.6-1.34
	c-0.06-0.84,0.57-1.51,1.37-1.56c0.86-0.06,1.54,0.56,1.6,1.34C779.54,514.23,778.97,514.95,778.11,515.01z"/>
<rect x="1007.75" y="706.15" class="st1" width="91.99" height="32.32"/>
<text transform="matrix(0.9794 0 0 1 1007.749 721.9377)" class="st2 st7">$644.276</text>
<rect x="790.84" y="348.79" class="st1" width="439.9" height="108.68"/>
<text transform="matrix(1 0 0 1 937.2939 364.5807)" class="st8 st2 st7">COQUIMBO lV</text>
<text transform="matrix(1 0 0 1 802.7138 389.7809)" class="st8 st2 st7">Población:</text>
<text transform="matrix(1 0 0 1 899.6064 389.7809)" class="st8 st9 st7"> 757.586  </text>
<text transform="matrix(1 0 0 1 993.0126 389.7809)" class="st8 st2 st7">Superficie:</text>
<text transform="matrix(1 0 0 1 1090.6616 389.7809)" class="st8 st9 st7"> 40.579,9 km</text>
<text transform="matrix(0.583 0 0 0.583 1212.0605 382.7878)" class="st8 st9 st7">2</text>
<rect x="1051.94" y="453.52" class="st10" width="4.53" height="244"/>
<rect x="217.18" y="506.02" class="st1" width="105.45" height="23.66"/>
<text transform="matrix(0.9794 0 0 1 217.1811 517.9426)" class="st11 st12">MUJERES</text>
<rect x="217.18" y="627.46" class="st1" width="96.18" height="26.03"/>
<text transform="matrix(0.9794 0 0 1 217.1811 639.3864)" class="st11 st12">HOMBRES</text>
<rect x="416.25" y="390.26" class="st1" width="80.55" height="23.32"/>
<g>
	<g>
		<path class="st13" d="M645.83,620.35h-13.84c-1.74,0-3.16,1.62-3.16,3.61v15.82c0,1.99,1.42,3.61,3.16,3.61h13.84
			c1.74,0,3.16-1.62,3.16-3.61v-15.82C648.99,621.97,647.57,620.35,645.83,620.35z M647.89,639.78c0,1.3-0.92,2.35-2.06,2.35h-13.84
			c-1.13,0-2.06-1.06-2.06-2.35v-15.82c0-1.3,0.92-2.35,2.06-2.35h13.84c1.13,0,2.06,1.06,2.06,2.35L647.89,639.78L647.89,639.78z"
			/>
		<path class="st13" d="M641.23,630.82c0.96-0.49,1.49-1.1,1.49-2.5c0-1.72-1.01-3.07-3.58-3.07h-3.95v11.59h4.44
			c2.64,0,3.66-1.48,3.66-3.22C643.29,632.13,642.47,631.12,641.23,630.82z M636.91,627.05h2.19c1.09,0,1.84,0.32,1.84,1.56
			c0,0.96-0.62,1.44-1.86,1.44h-2.18L636.91,627.05L636.91,627.05z M639.59,635.03h-2.68v-3.17h2.47c1.44,0,2.16,0.51,2.16,1.54
			C641.54,634.73,640.76,635.03,639.59,635.03z"/>
		<path class="st13" d="M657.53,618.57c1.74,0,3.16-1.62,3.16-3.61v-15.82c0-1.99-1.42-3.61-3.16-3.61h-13.84
			c-1.74,0-3.16,1.62-3.16,3.61v15.82c0,1.99,1.42,3.61,3.16,3.61L657.53,618.57L657.53,618.57z M641.63,614.96v-15.82
			c0-1.3,0.92-2.35,2.06-2.35h13.84c1.13,0,2.06,1.06,2.06,2.35v15.82c0,1.3-0.92,2.35-2.06,2.35h-13.84
			C642.55,617.32,641.63,616.26,641.63,614.96z"/>
		<path class="st13" d="M648.07,609.39h5.08l1.02,2.64h1.83l-4.47-11.59h-1.83l-4.47,11.59h1.83L648.07,609.39z M650.61,602.8
			l1.84,4.78h-3.68L650.61,602.8z"/>
		<path class="st13" d="M669.29,620.35h-13.84c-1.74,0-3.16,1.62-3.16,3.61v15.82c0,1.99,1.42,3.61,3.16,3.61h13.84
			c1.74,0,3.16-1.62,3.16-3.61v-15.82C672.45,621.97,671.03,620.35,669.29,620.35z M671.35,639.78c0,1.3-0.92,2.35-2.06,2.35h-13.84
			c-1.13,0-2.06-1.06-2.06-2.35v-15.82c0-1.3,0.92-2.35,2.06-2.35h13.84c1.13,0,2.06,1.06,2.06,2.35L671.35,639.78L671.35,639.78z"
			/>
		<path class="st13" d="M663.2,626.89c1.23,0,1.98,0.43,2.89,1.43l1.09-1.36c-1.05-1.33-2.37-1.99-3.94-1.99
			c-3.19,0-5.45,2.61-5.45,6.04c0,3.53,2.31,5.97,5.33,5.97c1.53,0,2.84-0.68,3.91-2.04l-1.1-1.29c-1.05,1.12-1.82,1.43-2.86,1.43
			c-1.83,0-3.5-1.68-3.5-4.14C659.57,628.51,661.19,626.89,663.2,626.89z"/>
	</g>
	<rect x="611.4" y="650.53" class="st1" width="84.34" height="24.12"/>
	<text transform="matrix(0.9273 0 0 1 611.4033 664.07)" class="st2 st14">$</text>
	<text transform="matrix(1.02 0 0 1 620.6835 664.07)" class="st2 st14">310.621</text>
</g>
<rect x="541.18" y="528.53" class="st1" width="99.56" height="21.94"/>
<text transform="matrix(1.0255 0 0 1 541.1796 542.0641)" class="st2 st14">$274.503</text>
<g>
	<g>
		<path class="st13" d="M494.63,499.25h-13.84c-1.74,0-3.16,1.62-3.16,3.61v15.82c0,1.99,1.42,3.61,3.16,3.61h13.84
			c1.74,0,3.16-1.62,3.16-3.61v-15.82C497.79,500.86,496.37,499.25,494.63,499.25z M496.69,518.68c0,1.3-0.92,2.35-2.06,2.35h-13.84
			c-1.13,0-2.06-1.06-2.06-2.35v-15.82c0-1.3,0.92-2.35,2.06-2.35h13.84c1.13,0,2.06,1.06,2.06,2.35L496.69,518.68L496.69,518.68z"
			/>
		<path class="st13" d="M490.03,509.72c0.96-0.49,1.49-1.1,1.49-2.5c0-1.72-1.01-3.07-3.58-3.07H484v11.59h4.44
			c2.64,0,3.66-1.48,3.66-3.22C492.09,511.03,491.27,510.02,490.03,509.72z M485.71,505.95h2.19c1.09,0,1.84,0.32,1.84,1.56
			c0,0.96-0.62,1.44-1.86,1.44h-2.18L485.71,505.95L485.71,505.95z M488.39,513.93h-2.68v-3.17h2.47c1.44,0,2.16,0.51,2.16,1.54
			C490.33,513.63,489.56,513.93,488.39,513.93z"/>
		<path class="st13" d="M506.33,497.47c1.74,0,3.16-1.62,3.16-3.61v-15.82c0-1.99-1.42-3.61-3.16-3.61h-13.84
			c-1.74,0-3.16,1.62-3.16,3.61v15.82c0,1.99,1.42,3.61,3.16,3.61L506.33,497.47L506.33,497.47z M490.43,493.86v-15.82
			c0-1.3,0.92-2.35,2.06-2.35h13.84c1.13,0,2.06,1.06,2.06,2.35v15.82c0,1.3-0.92,2.35-2.06,2.35h-13.84
			C491.35,496.21,490.43,495.16,490.43,493.86z"/>
		<path class="st13" d="M496.87,488.28h5.08l1.02,2.64h1.83l-4.47-11.59h-1.83l-4.47,11.59h1.83L496.87,488.28z M499.41,481.7
			l1.84,4.78h-3.68L499.41,481.7z"/>
		<path class="st13" d="M518.09,499.25h-13.84c-1.74,0-3.16,1.62-3.16,3.61v15.82c0,1.99,1.42,3.61,3.16,3.61h13.84
			c1.74,0,3.16-1.62,3.16-3.61v-15.82C521.25,500.86,519.83,499.25,518.09,499.25z M520.15,518.68c0,1.3-0.92,2.35-2.06,2.35h-13.84
			c-1.13,0-2.06-1.06-2.06-2.35v-15.82c0-1.3,0.92-2.35,2.06-2.35h13.84c1.13,0,2.06,1.06,2.06,2.35L520.15,518.68L520.15,518.68z"
			/>
		<path class="st13" d="M512,505.79c1.23,0,1.98,0.43,2.89,1.43l1.09-1.36c-1.05-1.33-2.37-1.99-3.94-1.99
			c-3.19,0-5.45,2.61-5.45,6.04c0,3.53,2.31,5.97,5.33,5.97c1.53,0,2.84-0.68,3.91-2.04l-1.1-1.29c-1.05,1.12-1.82,1.43-2.86,1.43
			c-1.83,0-3.5-1.68-3.5-4.14C508.37,507.4,509.99,505.79,512,505.79z"/>
	</g>
	<rect x="454.65" y="528.85" class="st1" width="93.09" height="18.81"/>
	<text transform="matrix(1.0255 0 0 1 454.6518 542.382)" class="st2 st14">$222.813</text>
</g>
<path class="st15" d="M812.75,636.78c-0.64-0.41-1.35-0.59-2.06-0.54c-0.39,0.05-0.77,0.18-1.12,0.38l3.58,1.85
	c-1.06,1.61-2.03,3.32-2.89,5.11c-0.62,1.25-1.12,2.59-1.5,3.99c-0.33,1.12-0.46,2.31-0.38,3.5c1.71-0.49,3.52-2.9,4.69-5.78
	c0.83-1.84,1.23-3.94,1.15-6.06C814.08,638.15,813.53,637.24,812.75,636.78z"/>
<path class="st15" d="M788.57,613.6v7.41l19.89,9.06h0.01c1.52,0,3.04-0.11,4.55-0.33c3.88-0.72,6.39-2.11,6.39-3.57v-12.21
	l-12.21,5.29L788.57,613.6z"/>
<polygon class="st15" points="802.66,598.26 776.33,607.48 788.57,611.18 807.11,616.79 819.41,611.48 832.95,605.61 "/>
<path class="st15" d="M806.64,648.48c0.02-0.15,0.05-0.33,0.07-0.52c0.02-0.19,0.07-0.41,0.14-0.63l0.04-0.14
	c0.45-1.7,1.05-3.32,1.8-4.84c0.44-0.96,0.94-1.88,1.48-2.75c0.02-0.03,0.04-0.06,0.05-0.1l-2.42-1.24
	c-0.57,0.77-1.05,1.63-1.44,2.56c-0.53,1.16-0.97,2.38-1.31,3.65l-28.08-16l-0.17,0.96c-0.24,1.48-0.17,3.05,0.58,3.45l29.61,18.02
	C806.57,650.51,806.47,649.65,806.64,648.48z"/>
<path class="st15" d="M804.71,639.74c1.67-4.12,4.61-6.48,6.87-5.72l-0.09-0.04l-30.93-14.12c-1.15-0.63-2.8,1.04-3.7,3.77
	c-0.21,0.62-0.36,1.27-0.46,1.93l27.76,15.81C804.3,640.81,804.49,640.26,804.71,639.74z"/>
<rect x="765.74" y="657.51" class="st1" width="100" height="20.96"/>
<text transform="matrix(1.0255 0 0 1 765.7421 671.0456)" class="st2 st14">$456.337</text>
<rect x="749.03" y="528.06" class="st1" width="103.71" height="22.29"/>
<text transform="matrix(1.0255 0 0 1 749.0302 541.5993)" class="st2 st14">$448.532</text>
<g>
	<path class="st16" d="M948.48,616.82h-3.72c-0.57-2.29-1.37-4.25-2.75-6.15l3.15-3.07c0.17-0.17,0.4-0.56,0.4-0.78
		c0-0.39-0.17-0.56-0.4-0.78l-4.12-4.02c-0.4-0.39-1.2-0.39-1.77,0l-3.15,3.07c-1.77-1.17-3.72-1.9-5.72-2.51v-4.02
		c0-0.56-0.57-1.17-1.2-1.17h-5.89c-0.57,0-1.2,0.56-1.2,1.17v3.86c-2.17,0.39-4.12,1.34-5.89,2.29l-3.38-3.3
		c-0.4-0.39-1.2-0.39-1.77,0l-4.12,4.02c-0.17,0.17-0.4,0.56-0.4,0.78c0,0.17,0.17,0.56,0.4,0.78l3.38,3.3
		c-1.2,1.9-2.17,4.02-2.75,6.37h-3.78c-0.57,0-1.2,0.56-1.2,1.17v5.76c0,0.56,0.57,1.17,1.2,1.17h3.72
		c0.34,1.96,1.26,3.74,2.12,5.36l3.03-3.58c-0.8-1.79-1.26-3.8-1.26-5.87c0-7.99,6.64-14.47,14.82-14.47
		c8.18,0,14.82,6.48,14.82,14.47s-6.64,14.47-14.82,14.47c-1.43,0-2.86-0.22-4.18-0.56l-2.86,3.35c0.92,0.34,1.89,0.61,2.86,0.84
		v3.3c0,0.56,0.57,1.17,1.2,1.17h5.89c0.57,0,1.2-0.56,1.2-1.17v-3.46c2.35-0.56,4.35-1.34,6.29-2.68l2.57,2.51
		c0.17,0.17,0.57,0.39,0.8,0.39s0.57-0.17,0.8-0.39l4.12-4.02c0.17-0.17,0.4-0.56,0.4-0.78c0-0.39-0.17-0.56-0.4-0.78l-2.57-2.51
		c1.2-1.73,1.95-3.63,2.35-5.76h3.72c0.57,0,1.2-0.56,1.2-1.17v-5.81C949.68,617.43,949.28,616.82,948.48,616.82z"/>
	<path class="st16" d="M937.84,619.45c-0.17-1.84-0.8-3.63-1.95-5.2l-7.15,8.27l-4.69-3.8l7.15-8.21c-1.66-0.67-3.43-0.95-5.21-0.84
		c-6.01,0.5-10.53,5.7-10.01,11.57c0.11,1.17,0.4,2.35,0.92,3.46l0.06,0.11l-17.39,20.06c-0.74,0.84-1.09,1.96-1.03,3.07
		c0.11,1.12,0.63,2.12,1.49,2.85c0.86,0.73,2,1.06,3.15,1.01c1.14-0.11,2.17-0.61,2.92-1.45l17.16-19.84l0.17,0.06
		c1.43,0.45,2.92,0.61,4.4,0.5C933.84,630.57,938.36,625.37,937.84,619.45z M903.06,648.84c-0.86,0.06-1.54-0.56-1.6-1.34
		c-0.06-0.84,0.57-1.51,1.37-1.56c0.86-0.06,1.54,0.56,1.6,1.34C904.49,648.06,903.92,648.79,903.06,648.84z"/>
	<rect x="877.74" y="660.9" class="st1" width="86.83" height="19.57"/>
	<text transform="matrix(1.0255 0 0 1 877.7421 674.4328)" class="st2 st14">$552.016</text>
</g>
<g>
	<g>
		<path d="M1119.23,469.59c-0.52,0.59-1.22,1.38-2.1,2.37c-3.85-3.56-7.52-4.15-10.31-4.55c-8.04,13.05-16.96,20.56-28.85,28.67
			c-0.35,0-0.7,0.2-1.05,0.4c-2.1,1.38-2.97,3.76-3.5,6.72c-1.22,6.72,0.87,14.83,7.17,16.21c3.67,0.79,6.12,0.2,7.69-1.78
			c1.22-1.38,6.47-7.51,13.29-14.63c7.69-7.91,16.96-15.42,20.8-18.58c3.5-2.97,2.8-7.71,0.35-11.27c-0.87-1.38-2.1-2.57-3.32-3.36
			L1119.23,469.59z M1090.04,512.29c0.52-3.56,0.35-10.28,0.17-12.46c0.87-0.4,2.62-1.58,5.77-3.95
			c8.92-6.72,16.08-14.63,23.43-23.33c2.62,2.37,4.9,7.32,1.75,10.08c-3.67,2.97-13.46,10.87-20.98,18.58
			C1096.16,505.57,1092.49,509.52,1090.04,512.29z M1086.72,516.05c-1.05,1.38-2.8,1.78-5.59,1.19c-5.77-1.38-6.99-9.49-5.42-15.22
			c1.57-5.54,6.47-4.74,8.04-0.79l-6.29,6.33c0.17,0.59,0.52,4.55,3.67,5.54c2.27,0.79,4.2-1.58,4.9-4.35
			c0.35-1.78,0.52-3.95,0-6.52c-0.35-2.97-2.1-5.14-4.37-6.13c11.01-7.71,18.53-14.23,26.05-26.1c3.15,0.59,5.24,1.38,7.87,3.56
			c-7.34,8.5-22.38,24.52-27.45,24.52c0,1.19,0.52,11.27-0.17,14.83C1087.77,514.07,1087.42,515.26,1086.72,516.05z M1084.27,503.79
			c0.17,2.17,0,4.94-1.22,6.33c-1.22,1.78-2.8,0-3.32-1.78L1084.27,503.79z"/>
		<path class="st17" d="M1116.96,511.1c0,0-1.22-4.15-3.32-7.12c-2.1-2.97-6.12-4.74-6.12-4.74s2.62,3.16,3.67,7.71
			c1.22,4.55,1.4,6.52,1.4,6.52l-2.45-1.38l-1.92,3.95c0,0,0.87-5.34-1.22-10.08c-1.92-4.74-3.32-6.13-3.32-6.13
			c0.52-8.5-3.15-13.05-10.66-13.64l5.59-5.73c6.64-0.2,10.49,7.91,9.79,14.83c5.07,3.16,9.79,7.71,13.99,12.06l-3.85,0.79
			L1116.96,511.1z"/>
	</g>
	<rect x="1058.37" y="524.66" class="st1" width="92.37" height="17.8"/>
	<text transform="matrix(1.0255 0 0 1 1058.3682 538.1999)" class="st2 st14">$681.515</text>
</g>
<g>
	<g>
		<path d="M1512.07,602.29c-0.52,0.59-1.22,1.38-2.1,2.37c-3.85-3.56-7.52-4.15-10.31-4.55c-8.04,13.05-16.96,20.56-28.85,28.67
			c-0.35,0-0.7,0.2-1.05,0.4c-2.1,1.38-2.97,3.76-3.5,6.72c-1.22,6.72,0.87,14.83,7.17,16.21c3.67,0.79,6.12,0.2,7.69-1.78
			c1.22-1.38,6.47-7.51,13.29-14.63c7.69-7.91,16.96-15.42,20.8-18.58c3.5-2.97,2.8-7.71,0.35-11.27c-0.87-1.38-2.1-2.57-3.32-3.36
			L1512.07,602.29z M1482.87,645c0.52-3.56,0.35-10.28,0.17-12.46c0.87-0.4,2.62-1.58,5.77-3.95c8.92-6.72,16.08-14.63,23.43-23.33
			c2.62,2.37,4.9,7.32,1.75,10.08c-3.67,2.97-13.46,10.87-20.98,18.58C1488.99,638.28,1485.32,642.23,1482.87,645z M1479.55,648.75
			c-1.05,1.38-2.8,1.78-5.59,1.19c-5.77-1.38-6.99-9.49-5.42-15.22c1.57-5.54,6.47-4.74,8.04-0.79l-6.29,6.33
			c0.17,0.59,0.52,4.55,3.67,5.54c2.27,0.79,4.2-1.58,4.9-4.35c0.35-1.78,0.52-3.95,0-6.52c-0.35-2.97-2.1-5.14-4.37-6.13
			c11.01-7.71,18.53-14.23,26.05-26.1c3.15,0.59,5.24,1.38,7.87,3.56c-7.34,8.5-22.38,24.52-27.45,24.52
			c0,1.19,0.52,11.27-0.17,14.83C1480.6,646.78,1480.25,647.96,1479.55,648.75z M1477.1,636.5c0.17,2.17,0,4.94-1.22,6.33
			c-1.22,1.78-2.8,0-3.32-1.78L1477.1,636.5z"/>
		<path class="st17" d="M1509.79,643.81c0,0-1.22-4.15-3.32-7.12c-2.1-2.97-6.12-4.74-6.12-4.74s2.62,3.16,3.67,7.71
			c1.22,4.55,1.4,6.52,1.4,6.52l-2.45-1.38l-1.92,3.95c0,0,0.87-5.34-1.22-10.08c-1.92-4.74-3.32-6.13-3.32-6.13
			c0.52-8.5-3.15-13.05-10.66-13.64l5.59-5.73c6.64-0.2,10.49,7.91,9.79,14.83c5.07,3.16,9.79,7.71,13.99,12.06l-3.85,0.79
			L1509.79,643.81z"/>
	</g>
	<rect x="1444.74" y="660.37" class="st1" width="109" height="19.1"/>
	<text transform="matrix(1.0255 0 0 1 1444.7421 673.9069)" class="st2 st14">$985.823</text>
</g>
<path class="st15" d="M598.68,509.23c-0.64-0.41-1.35-0.59-2.06-0.54c-0.39,0.05-0.77,0.18-1.12,0.38l3.58,1.85
	c-1.06,1.61-2.03,3.32-2.89,5.11c-0.62,1.25-1.12,2.59-1.5,3.99c-0.33,1.12-0.46,2.31-0.38,3.5c1.71-0.49,3.52-2.9,4.69-5.78
	c0.83-1.84,1.23-3.94,1.15-6.06C600.01,510.61,599.46,509.69,598.68,509.23z"/>
<path class="st15" d="M574.49,486.06v7.41l19.89,9.06h0.01c1.52,0,3.04-0.11,4.55-0.33c3.88-0.72,6.39-2.11,6.39-3.57v-12.21
	l-12.21,5.29L574.49,486.06z"/>
<polygon class="st15" points="588.59,470.72 562.26,479.94 574.49,483.63 593.04,489.25 605.34,483.93 618.87,478.06 "/>
<path class="st15" d="M592.57,520.94c0.02-0.15,0.05-0.33,0.07-0.52c0.02-0.19,0.07-0.41,0.14-0.63l0.04-0.14
	c0.45-1.7,1.05-3.32,1.8-4.84c0.44-0.96,0.94-1.88,1.48-2.75c0.02-0.03,0.04-0.06,0.05-0.1l-2.43-1.24
	c-0.57,0.77-1.05,1.63-1.44,2.56c-0.53,1.16-0.97,2.38-1.31,3.65l-28.08-16l-0.17,0.96c-0.24,1.48-0.17,3.05,0.58,3.45l29.61,18.02
	C592.5,522.97,592.4,522.1,592.57,520.94z"/>
<path class="st15" d="M590.64,512.19c1.67-4.12,4.61-6.48,6.87-5.72l-0.09-0.04l-30.93-14.12c-1.15-0.63-2.8,1.04-3.7,3.77
	c-0.21,0.62-0.36,1.27-0.46,1.93l27.76,15.81C590.23,513.27,590.42,512.72,590.64,512.19z"/>
</svg>
