<?xml version="1.0" encoding="utf-8"?>
<!-- Generator: Adobe Illustrator 24.2.3, SVG Export Plug-In . SVG Version: 6.00 Build 0)  -->
<svg version="1.1" id="Capa_1" xmlns="http://www.w3.org/2000/svg" xmlns:xlink="http://www.w3.org/1999/xlink" x="0px" y="0px"
	 viewBox="0 0 1498.5 409.4" style="enable-background:new 0 0 1498.5 409.4;" xml:space="preserve">
<style type="text/css">
	.st0{fill:#DCF4F3;fill-opacity:0.8;stroke:#416190;stroke-width:5;stroke-miterlimit:5.83;}
	.st1{fill:none;stroke:#000000;stroke-width:3.0401;stroke-miterlimit:10;}
	.st2{fill:none;}
	.st3{font-family:'Optima-Bold';}
	.st4{font-size:16px;}
	.st5{letter-spacing:27.6;}
	.st6{letter-spacing:9.2;}
	.st7{fill:#FF0000;}
	.st8{font-size:21px;}
	.st9{font-family:'Verdana-Bold';}
	.st10{font-family:'Optima-Regular';}
	.st11{fill:none;stroke:#000000;stroke-width:0.25;stroke-miterlimit:10;}
	.st12{font-size:12.243px;}
	.st13{fill:#FCEE21;}
	.st14{font-size:16.6514px;}
	.st15{fill:#FF0000;stroke:#FF0000;stroke-width:1.3343;stroke-miterlimit:10;}
	.st16{font-size:18px;}
	.st17{fill:#FF0000;stroke:#FF0000;stroke-width:0.2169;stroke-miterlimit:10;}
	.st18{fill:#FF0033;stroke:#FF0000;stroke-width:0.1414;stroke-miterlimit:10;}
	.st19{fill-rule:evenodd;clip-rule:evenodd;}
</style>
<rect x="1.5" y="1.6" class="st0" width="1495.5" height="405.2"/>
<rect x="98.4" y="235.1" class="st1" width="1385.4" height="21.3"/>
<rect x="112.3" y="239.5" class="st2" width="1371.8" height="36.8"/>
<text transform="matrix(0.9794 0 0 1 112.3021 251.5022)" class="st3 st4">$100.000</text>
<text transform="matrix(0.9794 0 0 1 177.6478 251.5022)" class="st3 st4 st5"> </text>
<text transform="matrix(0.9794 0 0 1 210.1536 251.5022)" class="st3 st4 st5"> </text>
<text transform="matrix(0.9794 0 0 1 242.7679 251.5022)" class="st3 st4">$200.000</text>
<text transform="matrix(0.9794 0 0 1 308.1141 251.5022)" class="st3 st4 st5"> </text>
<text transform="matrix(0.9794 0 0 1 340.62 251.5022)" class="st3 st4 st5"> </text>
<text transform="matrix(0.9794 0 0 1 373.2342 251.5022)" class="st3 st4">$300.000</text>
<text transform="matrix(0.9794 0 0 1 438.5799 251.5022)" class="st3 st4 st5"> </text>
<text transform="matrix(0.9794 0 0 1 471.0858 251.5022)" class="st3 st4 st5"> </text>
<text transform="matrix(0.9794 0 0 1 503.6991 251.5022)" class="st3 st4">$400.000</text>
<text transform="matrix(0.9794 0 0 1 569.0457 251.5022)" class="st3 st4 st5"> </text>
<text transform="matrix(0.9794 0 0 1 601.5516 251.5022)" class="st3 st4 st5"> </text>
<text transform="matrix(0.9794 0 0 1 634.1756 251.5022)" class="st3 st4">$500.000</text>
<text transform="matrix(0.9794 0 0 1 699.5213 251.5022)" class="st3 st4 st5"> </text>
<text transform="matrix(0.9794 0 0 1 732.0174 251.5022)" class="st3 st4 st5"> </text>
<text transform="matrix(0.9794 0 0 1 764.6414 251.5022)" class="st3 st4">$600.000</text>
<text transform="matrix(0.9794 0 0 1 829.9871 251.5022)" class="st3 st4 st5"> </text>
<text transform="matrix(0.9794 0 0 1 862.493 251.5022)" class="st3 st4 st5"> </text>
<text transform="matrix(0.9794 0 0 1 895.1072 251.5022)" class="st3 st4">$700.000</text>
<text transform="matrix(0.9794 0 0 1 960.4529 251.5022)" class="st3 st4 st5"> </text>
<text transform="matrix(0.9794 0 0 1 992.9588 251.5022)" class="st3 st4 st5"> </text>
<text transform="matrix(0.9794 0 0 1 1025.5731 251.5022)" class="st3 st4">$800.000</text>
<text transform="matrix(0.9794 0 0 1 1090.9188 251.5022)" class="st3 st4 st5"> </text>
<text transform="matrix(0.9794 0 0 1 1123.4257 251.5022)" class="st3 st4 st5"> </text>
<text transform="matrix(0.9794 0 0 1 1156.0389 251.5022)" class="st3 st4">$900.000</text>
<text transform="matrix(0.9794 0 0 1 1221.3846 251.5022)" class="st3 st4 st5"> </text>
<text transform="matrix(0.9794 0 0 1 1253.8905 251.5022)" class="st3 st4 st5"> </text>
<text transform="matrix(0.9794 0 0 1 1286.5048 251.5022)" class="st3 st4">$1.000.000 </text>
<text transform="matrix(0.9794 0 0 1 1369.2743 251.5022)" class="st3 st4 st6"> </text>
<text transform="matrix(0.9794 0 0 1 1384.3573 251.5022)" class="st3 st4 st5"> </text>
<text transform="matrix(0.9794 0 0 1 1416.9706 251.5022)" class="st3 st4">   +++</text>
<path class="st7" d="M622.1,156.2h-3.7c-0.6-2.3-1.4-4.2-2.8-6.1l3.2-3.1c0.2-0.2,0.4-0.6,0.4-0.8c0-0.4-0.2-0.6-0.4-0.8l-4.1-4
	c-0.4-0.4-1.2-0.4-1.8,0l-3.2,3.1c-1.8-1.2-3.7-1.9-5.7-2.5v-4c0-0.6-0.6-1.2-1.2-1.2h-5.9c-0.6,0-1.2,0.6-1.2,1.2v3.9
	c-2.2,0.4-4.1,1.3-5.9,2.3l-3.4-3.3c-0.4-0.4-1.2-0.4-1.8,0l-4.1,4c-0.2,0.2-0.4,0.6-0.4,0.8s0.2,0.6,0.4,0.8l3.4,3.3
	c-1.2,1.9-2.2,4-2.8,6.4h-3.8c-0.6,0-1.2,0.6-1.2,1.2v5.8c0,0.6,0.6,1.2,1.2,1.2h3.7c0.3,2,1.3,3.7,2.1,5.4l3-3.6
	c-0.8-1.8-1.3-3.8-1.3-5.9c0-8,6.6-14.5,14.8-14.5s14.8,6.5,14.8,14.5s-6.6,14.5-14.8,14.5c-1.4,0-2.9-0.2-4.2-0.6l-2.9,3.4
	c0.9,0.3,1.9,0.6,2.9,0.8v3.3c0,0.6,0.6,1.2,1.2,1.2h5.9c0.6,0,1.2-0.6,1.2-1.2v-3.5c2.3-0.6,4.3-1.3,6.3-2.7l2.6,2.5
	c0.2,0.2,0.6,0.4,0.8,0.4s0.6-0.2,0.8-0.4l4.1-4c0.2-0.2,0.4-0.6,0.4-0.8c0-0.4-0.2-0.6-0.4-0.8l-2.6-2.5c1.2-1.7,1.9-3.6,2.3-5.8
	h3.7c0.6,0,1.2-0.6,1.2-1.2v-5.8C623.3,156.8,622.9,156.2,622.1,156.2z"/>
<path class="st7" d="M611.5,158.8c-0.2-1.8-0.8-3.6-2-5.2l-7.2,8.3l-4.7-3.8l7.2-8.2c-1.7-0.7-3.4-1-5.2-0.8
	c-6,0.5-10.5,5.7-10,11.6c0.1,1.2,0.4,2.4,0.9,3.5l0.1,0.1l-17.4,20.1c-0.7,0.8-1.1,2-1,3.1s0.6,2.1,1.5,2.8s2,1.1,3.2,1
	c1.1-0.1,2.2-0.6,2.9-1.5L597,170l0.2,0.1c1.4,0.5,2.9,0.6,4.4,0.5C607.5,169.9,612,164.7,611.5,158.8z M576.7,188.2
	c-0.9,0.1-1.5-0.6-1.6-1.3c-0.1-0.8,0.6-1.5,1.4-1.6c0.9-0.1,1.5,0.6,1.6,1.3C578.1,187.4,577.6,188.1,576.7,188.2z"/>
<rect x="806.4" y="379.3" class="st2" width="92" height="32.3"/>
<text transform="matrix(0.9794 0 0 1 806.3211 395.0686)" class="st3 st8">$644.276</text>
<rect x="589.4" y="22" class="st2" width="439.9" height="108.7"/>
<text transform="matrix(1 0 0 1 735.8657 27.7117)" class="st9 st8">COQUIMBO lV</text>
<text transform="matrix(1 0 0 1 576.2856 62.9119)" class="st9 st8">Población:</text>
<text transform="matrix(1 0 0 1 698.1782 62.9119)" class="st10 st8"> 757.586  </text>
<text transform="matrix(1 0 0 1 698.1782 62.9119)" class="st11 st10 st8"> 757.586  </text>
<text transform="matrix(1 0 0 1 791.5844 62.9119)" class="st9 st8">Superficie:</text>
<text transform="matrix(1 0 0 1 919.2334 62.9119)" class="st10 st8"> 40.579,9 km</text>
<text transform="matrix(1 0 0 1 1041.6324 53.9188)" class="st10 st12">2</text>
<rect x="850.5" y="126.7" class="st13" width="4.5" height="244"/>
<rect x="15.8" y="179.2" class="st2" width="105.5" height="23.7"/>
<text transform="matrix(0.9794 0 0 1 15.7528 191.0735)" class="st9 st14">MUJERES</text>
<rect x="15.8" y="300.6" class="st2" width="96.2" height="26"/>
<text transform="matrix(0.9794 0 0 1 15.7528 312.5178)" class="st9 st14">HOMBRES</text>
<rect x="214.9" y="63.4" class="st2" width="80.5" height="23.3"/>
<g>
	<g>
		<path class="st15" d="M444.4,293.5h-13.8c-1.7,0-3.2,1.6-3.2,3.6v15.8c0,2,1.4,3.6,3.2,3.6h13.8c1.7,0,3.2-1.6,3.2-3.6v-15.8
			C447.6,295.1,446.2,293.5,444.4,293.5z M446.5,312.9c0,1.3-0.9,2.3-2.1,2.3h-13.8c-1.1,0-2.1-1.1-2.1-2.3v-15.8
			c0-1.3,0.9-2.3,2.1-2.3h13.8c1.1,0,2.1,1.1,2.1,2.3V312.9L446.5,312.9z"/>
		<path class="st15" d="M439.8,304c1-0.5,1.5-1.1,1.5-2.5c0-1.7-1-3.1-3.6-3.1h-4V310h4.4c2.6,0,3.7-1.5,3.7-3.2
			C441.9,305.3,441.1,304.3,439.8,304z M435.5,300.2h2.2c1.1,0,1.8,0.3,1.8,1.6c0,1-0.6,1.4-1.9,1.4h-2.2L435.5,300.2L435.5,300.2z
			 M438.2,308.2h-2.7V305h2.5c1.4,0,2.2,0.5,2.2,1.5C440.1,307.9,439.4,308.2,438.2,308.2z"/>
		<path class="st15" d="M456.1,291.7c1.7,0,3.2-1.6,3.2-3.6v-15.8c0-2-1.4-3.6-3.2-3.6h-13.8c-1.7,0-3.2,1.6-3.2,3.6v15.8
			c0,2,1.4,3.6,3.2,3.6H456.1L456.1,291.7z M440.2,288.1v-15.8c0-1.3,0.9-2.3,2.1-2.3h13.8c1.1,0,2.1,1.1,2.1,2.3v15.8
			c0,1.3-0.9,2.3-2.1,2.3h-13.8C441.2,290.5,440.2,289.4,440.2,288.1z"/>
		<path class="st15" d="M446.7,282.6h5.1l1,2.6h1.8l-4.5-11.6h-1.8l-4.5,11.6h1.8L446.7,282.6z M449.2,276l1.8,4.8h-3.7L449.2,276z"
			/>
		<path class="st15" d="M467.9,293.5h-13.8c-1.7,0-3.2,1.6-3.2,3.6v15.8c0,2,1.4,3.6,3.2,3.6h13.8c1.7,0,3.2-1.6,3.2-3.6v-15.8
			C471.1,295.1,469.6,293.5,467.9,293.5z M470,312.9c0,1.3-0.9,2.3-2.1,2.3h-13.8c-1.1,0-2.1-1.1-2.1-2.3v-15.8
			c0-1.3,0.9-2.3,2.1-2.3h13.8c1.1,0,2.1,1.1,2.1,2.3V312.9L470,312.9z"/>
		<path class="st15" d="M461.8,300.1c1.2,0,2,0.4,2.9,1.4l1.1-1.4c-1-1.3-2.4-2-3.9-2c-3.2,0-5.5,2.6-5.5,6c0,3.5,2.3,6,5.3,6
			c1.5,0,2.8-0.7,3.9-2l-1.1-1.3c-1,1.1-1.8,1.4-2.9,1.4c-1.8,0-3.5-1.7-3.5-4.1C458.2,301.7,459.8,300.1,461.8,300.1z"/>
	</g>
	<rect x="410" y="323.7" class="st2" width="84.3" height="24.1"/>
	<text transform="matrix(0.9273 0 0 1 409.9754 337.2014)" class="st3 st16">$</text>
	<text transform="matrix(1.02 0 0 1 419.2557 337.2014)" class="st3 st16">310.621</text>
</g>
<rect x="339.8" y="201.7" class="st2" width="99.6" height="21.9"/>
<text transform="matrix(1.0255 0 0 1 339.7518 215.1946)" class="st3 st16">$274.503</text>
<g>
	<g>
		<path class="st15" d="M293.2,172.4h-13.8c-1.7,0-3.2,1.6-3.2,3.6v15.8c0,2,1.4,3.6,3.2,3.6h13.8c1.7,0,3.2-1.6,3.2-3.6V176
			C296.4,174,295,172.4,293.2,172.4z M295.3,191.8c0,1.3-0.9,2.3-2.1,2.3h-13.8c-1.1,0-2.1-1.1-2.1-2.3V176c0-1.3,0.9-2.4,2.1-2.4
			h13.8c1.1,0,2.1,1.1,2.1,2.4V191.8L295.3,191.8z"/>
		<path class="st15" d="M288.6,182.9c1-0.5,1.5-1.1,1.5-2.5c0-1.7-1-3.1-3.6-3.1h-3.9v11.6h4.4c2.6,0,3.7-1.5,3.7-3.2
			C290.7,184.2,289.9,183.2,288.6,182.9z M284.3,179.1h2.2c1.1,0,1.8,0.3,1.8,1.6c0,1-0.6,1.4-1.9,1.4h-2.1V179.1L284.3,179.1z
			 M287,187.1h-2.7v-3.2h2.5c1.4,0,2.2,0.5,2.2,1.5C288.9,186.8,288.2,187.1,287,187.1z"/>
		<path class="st15" d="M304.9,170.6c1.7,0,3.2-1.6,3.2-3.6v-15.8c0-2-1.4-3.6-3.2-3.6h-13.8c-1.7,0-3.2,1.6-3.2,3.6V167
			c0,2,1.4,3.6,3.2,3.6H304.9L304.9,170.6z M289,167v-15.8c0-1.3,0.9-2.4,2.1-2.4h13.8c1.1,0,2.1,1.1,2.1,2.4V167
			c0,1.3-0.9,2.4-2.1,2.4h-13.8C290,169.4,289,168.3,289,167z"/>
		<path class="st15" d="M295.5,161.4h5.1l1,2.6h1.8l-4.5-11.6h-1.8l-4.5,11.6h1.8L295.5,161.4z M298,154.9l1.8,4.8h-3.7L298,154.9z"
			/>
		<path class="st15" d="M316.7,172.4h-13.8c-1.7,0-3.2,1.6-3.2,3.6v15.8c0,2,1.4,3.6,3.2,3.6h13.8c1.7,0,3.2-1.6,3.2-3.6V176
			C319.9,174,318.4,172.4,316.7,172.4z M318.8,191.8c0,1.3-0.9,2.3-2.1,2.3h-13.8c-1.1,0-2.1-1.1-2.1-2.3V176c0-1.3,0.9-2.4,2.1-2.4
			h13.8c1.1,0,2.1,1.1,2.1,2.4V191.8L318.8,191.8z"/>
		<path class="st15" d="M310.6,179c1.2,0,2,0.4,2.9,1.4l1.1-1.4c-1-1.3-2.4-2-3.9-2c-3.2,0-5.5,2.6-5.5,6c0,3.5,2.3,6,5.3,6
			c1.5,0,2.8-0.7,3.9-2l-1.1-1.3c-1,1.1-1.8,1.4-2.9,1.4c-1.8,0-3.5-1.7-3.5-4.1C307,180.6,308.6,179,310.6,179z"/>
	</g>
	<rect x="253.3" y="202" class="st2" width="93.1" height="18.8"/>
	<text transform="matrix(1.0255 0 0 1 253.223 215.513)" class="st3 st16">$222.813</text>
</g>
<path class="st17" d="M611.4,309.9c-0.6-0.4-1.3-0.6-2.1-0.5c-0.4,0-0.8,0.2-1.1,0.4l3.6,1.8c-1.1,1.6-2,3.3-2.9,5.1
	c-0.6,1.2-1.1,2.6-1.5,4c-0.3,1.1-0.5,2.3-0.4,3.5c1.7-0.5,3.5-2.9,4.7-5.8c0.8-1.8,1.2-3.9,1.2-6.1
	C612.7,311.3,612.1,310.4,611.4,309.9z"/>
<path class="st17" d="M587.2,286.8v7.4l19.9,9.1l0,0c1.5,0,3-0.1,4.5-0.3c3.9-0.7,6.4-2.1,6.4-3.6v-12.3l-12.2,5.3L587.2,286.8z"/>
<polygon class="st17" points="601.3,271.4 574.9,280.6 587.2,284.3 605.7,290 618,284.6 631.6,278.8 "/>
<path class="st17" d="M605.2,321.6c0-0.2,0-0.3,0.1-0.5s0.1-0.4,0.1-0.6v-0.1c0.5-1.7,1-3.3,1.8-4.8c0.4-1,0.9-1.9,1.5-2.8v-0.1
	l-2.4-1.2c-0.6,0.8-1,1.6-1.4,2.6c-0.5,1.2-1,2.4-1.3,3.7l-28.1-16l-0.2,1c-0.2,1.5-0.2,3,0.6,3.5l29.6,18
	C605.2,323.7,605.1,322.8,605.2,321.6z"/>
<path class="st17" d="M603.3,312.9c1.7-4.1,4.6-6.5,6.9-5.7h-0.1l-30.9-14.1c-1.2-0.6-2.8,1-3.7,3.8c-0.2,0.6-0.4,1.3-0.5,1.9
	l27.8,15.8C602.9,314,603.1,313.4,603.3,312.9z"/>
<rect x="564.3" y="330.7" class="st2" width="100" height="21"/>
<text transform="matrix(1.0255 0 0 1 564.3143 344.177)" class="st3 st16">$456.337</text>
<rect x="547.6" y="201.2" class="st2" width="103.7" height="22.3"/>
<text transform="matrix(1.0255 0 0 1 547.6024 214.7307)" class="st3 st16">$448.532</text>
<g>
	<path class="st18" d="M747.1,290h-3.7c-0.6-2.3-1.4-4.2-2.8-6.2l3.2-3.1c0.2-0.2,0.4-0.6,0.4-0.8c0-0.4-0.2-0.6-0.4-0.8l-4.1-4
		c-0.4-0.4-1.2-0.4-1.8,0l-3.2,3.1c-1.8-1.2-3.7-1.9-5.7-2.5v-4c0-0.6-0.6-1.2-1.2-1.2h-5.9c-0.6,0-1.2,0.6-1.2,1.2v3.9
		c-2.2,0.4-4.1,1.3-5.9,2.3l-3.4-3.3c-0.4-0.4-1.2-0.4-1.8,0l-4.1,4c-0.2,0.2-0.4,0.6-0.4,0.8c0,0.2,0.2,0.6,0.4,0.8l3.4,3.3
		c-1.2,1.9-2.2,4-2.8,6.4h-3.8c-0.6,0-1.2,0.6-1.2,1.2v5.8c0,0.6,0.6,1.2,1.2,1.2h3.7c0.3,2,1.3,3.7,2.1,5.4l3-3.6
		c-0.8-1.8-1.3-3.8-1.3-5.9c0-8,6.6-14.5,14.8-14.5s14.8,6.5,14.8,14.5s-6.6,14.5-14.8,14.5c-1.4,0-2.9-0.2-4.2-0.6l-2.9,3.3
		c0.9,0.3,1.9,0.6,2.9,0.8v3.3c0,0.6,0.6,1.2,1.2,1.2h5.9c0.6,0,1.2-0.6,1.2-1.2v-3.5c2.3-0.6,4.3-1.3,6.3-2.7l2.6,2.5
		c0.2,0.2,0.6,0.4,0.8,0.4s0.6-0.2,0.8-0.4l4.1-4c0.2-0.2,0.4-0.6,0.4-0.8c0-0.4-0.2-0.6-0.4-0.8l-2.6-2.5c1.2-1.7,2-3.6,2.3-5.8
		h3.7c0.6,0,1.2-0.6,1.2-1.2v-5.8C748.3,290.6,747.9,290,747.1,290z"/>
	<path class="st18" d="M736.4,292.6c-0.2-1.8-0.8-3.6-2-5.2l-7.2,8.3l-4.7-3.8l7.2-8.2c-1.7-0.7-3.4-1-5.2-0.8
		c-6,0.5-10.5,5.7-10,11.6c0.1,1.2,0.4,2.3,0.9,3.5l0.1,0.1l-17.4,20.1c-0.7,0.8-1.1,2-1,3.1s0.6,2.1,1.5,2.8s2,1.1,3.2,1
		c1.1-0.1,2.2-0.6,2.9-1.5l17.2-19.8l0.2,0.1c1.4,0.5,2.9,0.6,4.4,0.5C732.4,303.7,737,298.5,736.4,292.6z M701.7,322
		c-0.9,0.1-1.5-0.6-1.6-1.3c-0.1-0.8,0.6-1.5,1.4-1.6c0.9-0.1,1.5,0.6,1.6,1.3C703.1,321.2,702.5,322,701.7,322z"/>
	<rect x="676.3" y="334.1" class="st2" width="86.8" height="19.6"/>
	<text transform="matrix(1.0255 0 0 1 676.3143 347.5637)" class="st3 st16">$552.016</text>
</g>
<g>
	<g>
		<path d="M917.8,142.8c-0.5,0.6-1.2,1.4-2.1,2.4c-3.8-3.6-7.5-4.1-10.3-4.5c-8,13-17,20.6-28.8,28.7c-0.3,0-0.7,0.2-1.1,0.4
			c-2.1,1.4-3,3.8-3.5,6.7c-1.2,6.7,0.9,14.8,7.2,16.2c3.7,0.8,6.1,0.2,7.7-1.8c1.2-1.4,6.5-7.5,13.3-14.6
			c7.7-7.9,17-15.4,20.8-18.6c3.5-3,2.8-7.7,0.3-11.3c-0.9-1.4-2.1-2.6-3.3-3.4L917.8,142.8z M888.6,185.5
			c0.5-3.6,0.3-10.3,0.2-12.5c0.9-0.4,2.6-1.6,5.8-4c8.9-6.7,16.1-14.6,23.4-23.3c2.6,2.4,4.9,7.3,1.8,10.1
			c-3.7,3-13.5,10.9-21,18.6C894.8,178.7,891.1,182.7,888.6,185.5z M885.3,189.2c-1.1,1.4-2.8,1.8-5.6,1.2c-5.8-1.4-7-9.5-5.4-15.2
			c1.6-5.5,6.5-4.7,8-0.8l-6.3,6.3c0.2,0.6,0.5,4.6,3.7,5.5c2.3,0.8,4.2-1.6,4.9-4.4c0.3-1.8,0.5-4,0-6.5c-0.3-3-2.1-5.1-4.4-6.1
			c11-7.7,18.5-14.2,26.1-26.1c3.2,0.6,5.2,1.4,7.9,3.6c-7.3,8.5-22.4,24.5-27.4,24.5c0,1.2,0.5,11.3-0.2,14.8
			C886.4,187.2,886,188.4,885.3,189.2z M882.9,177c0.2,2.2,0,4.9-1.2,6.3c-1.2,1.8-2.8,0-3.3-1.8L882.9,177z"/>
		<path class="st19" d="M915.6,184.3c0,0-1.2-4.1-3.3-7.1s-6.1-4.7-6.1-4.7s2.6,3.2,3.7,7.7c1.2,4.5,1.4,6.5,1.4,6.5l-2.4-1.4
			l-1.9,4c0,0,0.9-5.3-1.2-10.1c-1.9-4.7-3.3-6.1-3.3-6.1c0.5-8.5-3.2-13-10.7-13.6l5.6-5.7c6.6-0.2,10.5,7.9,9.8,14.8
			c5.1,3.2,9.8,7.7,14,12.1l-3.8,0.8L915.6,184.3z"/>
	</g>
	<rect x="857" y="197.8" class="st2" width="92.4" height="17.8"/>
	<text transform="matrix(1.0255 0 0 1 856.9402 211.3313)" class="st3 st16">$681.515</text>
</g>
<g>
	<g>
		<path d="M1310.7,275.5c-0.5,0.6-1.2,1.4-2.1,2.4c-3.8-3.6-7.5-4.2-10.3-4.5c-8,13-17,20.6-28.8,28.7c-0.3,0-0.7,0.2-1.1,0.4
			c-2.1,1.4-3,3.8-3.5,6.7c-1.2,6.7,0.9,14.8,7.2,16.2c3.7,0.8,6.1,0.2,7.7-1.8c1.2-1.4,6.5-7.5,13.3-14.6
			c7.7-7.9,17-15.4,20.8-18.6c3.5-3,2.8-7.7,0.3-11.3c-0.9-1.4-2.1-2.6-3.3-3.4L1310.7,275.5z M1281.5,318.2
			c0.5-3.6,0.3-10.3,0.2-12.5c0.9-0.4,2.6-1.6,5.8-4c8.9-6.7,16.1-14.6,23.4-23.3c2.6,2.4,4.9,7.3,1.8,10.1
			c-3.7,3-13.5,10.9-21,18.6C1287.6,311.4,1283.9,315.4,1281.5,318.2z M1278.2,321.9c-1.1,1.4-2.8,1.8-5.6,1.2
			c-5.8-1.4-7-9.5-5.4-15.2c1.6-5.5,6.5-4.7,8-0.8l-6.3,6.3c0.2,0.6,0.5,4.5,3.7,5.5c2.3,0.8,4.2-1.6,4.9-4.3c0.3-1.8,0.5-4,0-6.5
			c-0.3-3-2.1-5.1-4.4-6.1c11-7.7,18.5-14.2,26.1-26.1c3.2,0.6,5.2,1.4,7.9,3.6c-7.3,8.5-22.4,24.5-27.4,24.5
			c0,1.2,0.5,11.3-0.2,14.8C1279.2,319.9,1278.9,321.1,1278.2,321.9z M1275.7,309.7c0.2,2.2,0,4.9-1.2,6.3c-1.2,1.8-2.8,0-3.3-1.8
			L1275.7,309.7z"/>
		<path class="st19" d="M1308.4,317c0,0-1.2-4.2-3.3-7.1s-6.1-4.7-6.1-4.7s2.6,3.2,3.7,7.7c1.2,4.5,1.4,6.5,1.4,6.5l-2.4-1.4l-1.9,4
			c0,0,0.9-5.3-1.2-10.1c-1.9-4.7-3.3-6.1-3.3-6.1c0.5-8.5-3.2-13-10.7-13.6l5.6-5.7c6.6-0.2,10.5,7.9,9.8,14.8
			c5.1,3.2,9.8,7.7,14,12.1l-3.8,0.8L1308.4,317z"/>
	</g>
	<rect x="1243.3" y="333.5" class="st2" width="109" height="19.1"/>
	<text transform="matrix(1.0255 0 0 1 1243.3143 347.0383)" class="st3 st16">$985.823</text>
</g>
<path class="st17" d="M397.3,182.4c-0.6-0.4-1.3-0.6-2.1-0.5c-0.4,0-0.8,0.2-1.1,0.4l3.6,1.9c-1.1,1.6-2,3.3-2.9,5.1
	c-0.6,1.2-1.1,2.6-1.5,4c-0.3,1.1-0.5,2.3-0.4,3.5c1.7-0.5,3.5-2.9,4.7-5.8c0.8-1.8,1.2-3.9,1.2-6.1
	C398.6,183.8,398.1,182.9,397.3,182.4z"/>
<path class="st17" d="M373.1,159.2v7.4l19.9,9.1l0,0c1.5,0,3-0.1,4.5-0.3c3.9-0.7,6.4-2.1,6.4-3.6v-12.2l-12.2,5.3L373.1,159.2z"/>
<polygon class="st17" points="387.2,143.9 360.9,153.1 373.1,156.8 391.6,162.4 403.9,157.1 417.5,151.2 "/>
<path class="st17" d="M391.2,194.1c0-0.2,0-0.3,0.1-0.5s0.1-0.4,0.1-0.6v-0.1c0.5-1.7,1-3.3,1.8-4.8c0.4-1,0.9-1.9,1.5-2.8v-0.1
	l-2.4-1.2c-0.6,0.8-1,1.6-1.4,2.6c-0.5,1.2-1,2.4-1.3,3.7l-28.1-16l-0.2,1c-0.2,1.5-0.2,3,0.6,3.5l29.6,18
	C391.1,196.1,391,195.3,391.2,194.1z"/>
<path class="st17" d="M389.2,185.4c1.7-4.1,4.6-6.5,6.9-5.7H396l-30.9-14.1c-1.2-0.6-2.8,1-3.7,3.8c-0.2,0.6-0.4,1.3-0.5,1.9
	l27.8,15.8C388.8,186.4,389,185.9,389.2,185.4z"/>
</svg>
