<?xml version="1.0" encoding="utf-8"?>
<!-- Generator: Adobe Illustrator 24.2.3, SVG Export Plug-In . SVG Version: 6.00 Build 0)  -->
<svg version="1.1" id="Capa_1" xmlns="http://www.w3.org/2000/svg" xmlns:xlink="http://www.w3.org/1999/xlink" x="0px" y="0px"
	 viewBox="0 0 1920 1080" style="enable-background:new 0 0 1920 1080;" xml:space="preserve">
<style type="text/css">
	.st0{fill:none;}
	.st1{font-family:'Optima-Bold';}
	.st2{font-size:36px;}
	.st3{font-size:21px;}
	.st4{fill:#F70B1C;}
	.st5{fill:#F4F40C;}
	.st6{fill:none;stroke:#000000;stroke-width:0.8712;stroke-miterlimit:10;}
	.st7{fill-rule:evenodd;clip-rule:evenodd;fill:none;stroke:#000000;stroke-width:0.8712;stroke-miterlimit:10;}
	.st8{font-size:11px;}
</style>
<g>
	<path d="M1297.11,447.89v415.21H600.89V447.89H1297.11 M1298,447H600v417h698V447L1298,447z"/>
</g>
<rect x="613.15" y="471.77" class="st0" width="671.15" height="68.23"/>
<text transform="matrix(1 0 0 1 870.7188 498.8408)" class="st1 st2" style="text-decoration: underline;">LEYENDA</text>
<rect x="641.15" y="540" class="st0" width="615.38" height="29.85"/>
<text transform="matrix(1 0 0 1 655.9072 555.792)" class="st1 st3">Cada ícono representa el nivel máximo de educación alcanzado</text>
<g>
	<rect x="703.45" y="631.45" class="st4" width="23.11" height="23.11"/>
	<path d="M726.11,631.89v22.21h-22.21v-22.21H726.11 M727,631h-24v24h24V631L727,631z"/>
</g>
<g>
	<rect x="703.45" y="683.45" width="23.11" height="23.11"/>
	<path d="M726.11,683.89v22.21h-22.21v-22.21H726.11 M727,683h-24v24h24V683L727,683z"/>
</g>
<rect x="703.27" y="635.01" class="st0" width="491.63" height="20.2"/>
<text transform="matrix(1 0 0 1 754.7554 650.7979)" class="st1 st3">El ingreso es menor que el gasto promedio</text>
<g>
	<rect x="710.45" y="580.45" class="st5" width="8.11" height="26.11"/>
	<path d="M718.11,580.89v25.21h-7.21v-25.21H718.11 M719,580h-9v27h9V580L719,580z"/>
</g>
<rect x="712.63" y="583.56" class="st0" width="491.63" height="20.2"/>
<text transform="matrix(1 0 0 1 751.8585 599.355)" class="st1 st3">Gasto promedio de las personas de la región.</text>
<rect x="703.63" y="686.56" class="st0" width="491.63" height="20.2"/>
<text transform="matrix(1 0 0 1 755.7106 702.355)" class="st1 st3">El ingreso es mayor que el gasto promedio</text>
<g>
	<g>
		<path class="st6" d="M705.11,778.13h-16.02c-2.01,0-3.65,1.89-3.65,4.21v18.44c0,2.32,1.64,4.21,3.65,4.21h16.02
			c2.01,0,3.65-1.89,3.65-4.21v-18.44C708.76,780.02,707.12,778.13,705.11,778.13z M707.49,800.78c0,1.51-1.07,2.74-2.38,2.74
			h-16.02c-1.31,0-2.38-1.23-2.38-2.74v-18.44c0-1.51,1.07-2.74,2.38-2.74h16.02c1.31,0,2.38,1.23,2.38,2.74L707.49,800.78
			L707.49,800.78z"/>
		<path class="st6" d="M699.78,790.33c1.12-0.57,1.73-1.29,1.73-2.92c0-2-1.17-3.58-4.15-3.58h-4.57v13.51h5.14
			c3.05,0,4.23-1.73,4.23-3.75C702.17,791.87,701.21,790.69,699.78,790.33z M694.78,785.95h2.53c1.26,0,2.13,0.38,2.13,1.82
			c0,1.12-0.72,1.68-2.15,1.68h-2.52L694.78,785.95L694.78,785.95z M697.88,795.24h-3.11v-3.69h2.85c1.67,0,2.5,0.6,2.5,1.8
			C700.13,794.89,699.24,795.24,697.88,795.24z"/>
		<path class="st6" d="M718.64,776.06c2.01,0,3.65-1.89,3.65-4.21v-18.45c0-2.32-1.64-4.21-3.65-4.21h-16.02
			c-2.01,0-3.65,1.89-3.65,4.21v18.45c0,2.32,1.64,4.21,3.65,4.21L718.64,776.06L718.64,776.06z M700.24,771.85v-18.45
			c0-1.51,1.07-2.74,2.38-2.74h16.02c1.31,0,2.38,1.23,2.38,2.74v18.45c0,1.51-1.07,2.74-2.38,2.74h-16.02
			C701.31,774.59,700.24,773.36,700.24,771.85z"/>
		<path class="st6" d="M707.7,765.35h5.87l1.17,3.07h2.11l-5.17-13.51h-2.11l-5.17,13.51h2.11L707.7,765.35z M710.64,757.68
			l2.13,5.57h-4.26L710.64,757.68z"/>
		<path class="st6" d="M732.26,778.13h-16.02c-2.01,0-3.65,1.89-3.65,4.21v18.44c0,2.32,1.64,4.21,3.65,4.21h16.02
			c2.01,0,3.65-1.89,3.65-4.21v-18.44C735.91,780.02,734.27,778.13,732.26,778.13z M734.64,800.78c0,1.51-1.07,2.74-2.38,2.74
			h-16.02c-1.31,0-2.38-1.23-2.38-2.74v-18.44c0-1.51,1.07-2.74,2.38-2.74h16.02c1.31,0,2.38,1.23,2.38,2.74L734.64,800.78
			L734.64,800.78z"/>
		<path class="st6" d="M725.21,785.75c1.42,0,2.29,0.51,3.34,1.66l1.26-1.58c-1.22-1.55-2.74-2.32-4.56-2.32
			c-3.69,0-6.3,3.04-6.3,7.04c0,4.11,2.67,6.96,6.17,6.96c1.77,0,3.28-0.79,4.52-2.38l-1.28-1.51c-1.21,1.31-2.11,1.66-3.31,1.66
			c-2.11,0-4.05-1.96-4.05-4.82C721.01,787.64,722.88,785.75,725.21,785.75z"/>
	</g>
</g>
<g>
	<path class="st6" d="M869.36,796.12c-0.74-0.48-1.56-0.69-2.38-0.62c-0.45,0.06-0.89,0.2-1.3,0.44l4.15,2.16
		c-1.22,1.88-2.34,3.87-3.35,5.95c-0.72,1.45-1.3,3.01-1.73,4.65c-0.38,1.3-0.53,2.7-0.44,4.09c1.98-0.57,4.07-3.38,5.43-6.73
		c0.96-2.14,1.42-4.59,1.34-7.06C870.9,797.72,870.26,796.65,869.36,796.12z"/>
	<path class="st6" d="M841.37,769.09v8.64l23.02,10.57h0.01c1.76,0,3.52-0.13,5.27-0.39c4.49-0.84,7.39-2.46,7.39-4.16v-14.24
		l-14.13,6.17L841.37,769.09z"/>
	<polygon class="st6" points="857.68,751.21 827.21,761.96 841.37,766.27 862.83,772.82 877.06,766.62 892.73,759.78 	"/>
	<path class="st6" d="M862.29,809.76c0.03-0.18,0.06-0.39,0.08-0.6c0.03-0.22,0.09-0.48,0.16-0.73l0.04-0.17
		c0.52-1.98,1.22-3.88,2.08-5.65c0.51-1.12,1.09-2.19,1.71-3.21c0.02-0.03,0.04-0.07,0.06-0.11l-2.81-1.45
		c-0.66,0.89-1.22,1.9-1.67,2.99c-0.61,1.35-1.12,2.78-1.52,4.26l-32.49-18.65l-0.2,1.12c-0.27,1.72-0.2,3.56,0.67,4.02l34.27,21.01
		C862.21,812.13,862.09,811.12,862.29,809.76z"/>
	<path class="st6" d="M860.05,799.56c1.94-4.8,5.33-7.56,7.95-6.66l-0.1-0.05l-35.8-16.46c-1.33-0.73-3.24,1.21-4.29,4.39
		c-0.24,0.72-0.42,1.48-0.54,2.25l32.12,18.43C859.58,800.82,859.8,800.18,860.05,799.56z"/>
</g>
<g>
	<path class="st6" d="M1034.55,770.52h-4.3c-0.66-2.67-1.59-4.95-3.18-7.17l3.64-3.58c0.2-0.2,0.46-0.65,0.46-0.91
		c0-0.46-0.2-0.65-0.46-0.91l-4.77-4.69c-0.46-0.46-1.39-0.46-2.05,0l-3.64,3.58c-2.05-1.37-4.3-2.22-6.62-2.93v-4.69
		c0-0.65-0.66-1.37-1.39-1.37h-6.82c-0.66,0-1.39,0.65-1.39,1.37v4.5c-2.52,0.46-4.77,1.56-6.82,2.67l-3.91-3.84
		c-0.46-0.46-1.39-0.46-2.05,0l-4.77,4.69c-0.2,0.2-0.46,0.65-0.46,0.91c0,0.2,0.2,0.65,0.46,0.91l3.91,3.84
		c-1.39,2.22-2.52,4.69-3.18,7.43h-4.37c-0.66,0-1.39,0.65-1.39,1.37v6.71c0,0.65,0.66,1.37,1.39,1.37h4.3
		c0.4,2.28,1.46,4.36,2.45,6.25l3.51-4.17c-0.93-2.08-1.46-4.43-1.46-6.84c0-9.32,7.68-16.87,17.15-16.87
		c9.47,0,17.15,7.56,17.15,16.87c0,9.32-7.68,16.87-17.15,16.87c-1.66,0-3.31-0.26-4.83-0.65l-3.31,3.91
		c1.06,0.39,2.18,0.72,3.31,0.98v3.84c0,0.65,0.66,1.37,1.39,1.37h6.82c0.66,0,1.39-0.65,1.39-1.37v-4.04
		c2.71-0.65,5.03-1.56,7.28-3.13l2.98,2.93c0.2,0.2,0.66,0.46,0.93,0.46c0.26,0,0.66-0.2,0.93-0.46l4.77-4.69
		c0.2-0.2,0.46-0.65,0.46-0.91c0-0.46-0.2-0.65-0.46-0.91l-2.98-2.93c1.39-2.02,2.25-4.23,2.71-6.71h4.3c0.66,0,1.39-0.65,1.39-1.37
		v-6.78C1035.94,771.24,1035.48,770.52,1034.55,770.52z"/>
	<path class="st6" d="M1022.24,773.58c-0.2-2.15-0.93-4.23-2.25-6.06l-8.28,9.64l-5.43-4.43l8.28-9.58
		c-1.92-0.78-3.97-1.11-6.02-0.98c-6.95,0.59-12.18,6.65-11.59,13.49c0.13,1.37,0.46,2.74,1.06,4.04l0.07,0.13l-20.13,23.39
		c-0.86,0.98-1.26,2.28-1.19,3.58c0.13,1.3,0.73,2.48,1.72,3.32c0.99,0.85,2.32,1.24,3.64,1.17c1.32-0.13,2.52-0.72,3.38-1.69
		l19.86-23.13l0.2,0.07c1.66,0.52,3.38,0.72,5.1,0.59C1017.6,786.54,1022.83,780.49,1022.24,773.58z M981.98,807.85
		c-0.99,0.07-1.79-0.65-1.85-1.56c-0.07-0.98,0.66-1.76,1.59-1.82c0.99-0.07,1.79,0.65,1.85,1.56
		C983.64,806.94,982.98,807.78,981.98,807.85z"/>
</g>
<g>
	<g>
		<path class="st6" d="M1174.11,751.25c-0.61,0.69-1.42,1.61-2.43,2.77c-4.45-4.15-8.7-4.84-11.94-5.3
			c-9.31,15.21-19.63,23.97-33.39,33.42c-0.4,0-0.81,0.23-1.21,0.46c-2.43,1.61-3.44,4.38-4.05,7.84c-1.42,7.84,1.01,17.29,8.3,18.9
			c4.25,0.92,7.08,0.23,8.9-2.07c1.42-1.61,7.49-8.76,15.38-17.06c8.9-9.22,19.63-17.98,24.08-21.67c4.05-3.46,3.24-8.99,0.4-13.14
			c-1.01-1.61-2.43-3-3.84-3.92L1174.11,751.25z M1140.32,801.04c0.61-4.15,0.4-11.98,0.2-14.52c1.01-0.46,3.04-1.84,6.68-4.61
			c10.32-7.84,18.62-17.06,27.11-27.2c3.04,2.77,5.67,8.53,2.02,11.75c-4.25,3.46-15.58,12.68-24.28,21.67
			C1147.4,793.2,1143.16,797.81,1140.32,801.04z M1136.48,805.42c-1.21,1.61-3.24,2.07-6.47,1.38c-6.68-1.61-8.09-11.06-6.27-17.75
			c1.82-6.45,7.49-5.53,9.31-0.92l-7.28,7.38c0.2,0.69,0.61,5.3,4.25,6.45c2.63,0.92,4.86-1.84,5.67-5.07c0.4-2.07,0.61-4.61,0-7.61
			c-0.4-3.46-2.43-5.99-5.06-7.14c12.75-8.99,21.45-16.59,30.15-30.42c3.64,0.69,6.07,1.61,9.11,4.15
			c-8.5,9.91-25.9,28.58-31.77,28.58c0,1.38,0.61,13.14-0.2,17.29C1137.69,803.11,1137.29,804.49,1136.48,805.42z M1133.65,791.13
			c0.2,2.54,0,5.76-1.42,7.38c-1.42,2.07-3.24,0-3.84-2.07L1133.65,791.13z"/>
		<path class="st7" d="M1171.48,799.65c0,0-1.42-4.84-3.84-8.3c-2.43-3.46-7.08-5.53-7.08-5.53s3.04,3.69,4.25,8.99
			c1.42,5.3,1.62,7.61,1.62,7.61l-2.83-1.61l-2.23,4.61c0,0,1.01-6.22-1.42-11.75c-2.23-5.53-3.84-7.14-3.84-7.14
			c0.61-9.91-3.64-15.21-12.34-15.9l6.47-6.68c7.69-0.23,12.14,9.22,11.33,17.29c5.87,3.69,11.33,8.99,16.19,14.06l-4.45,0.92
			L1171.48,799.65z"/>
	</g>
</g>
<rect x="666.91" y="822.04" class="st0" width="81.91" height="23.96"/>
<text transform="matrix(1 0 0 1 682.7979 830.3174)"><tspan x="0" y="0" class="st1 st8">Enseñanza </tspan><tspan x="10.09" y="13.2" class="st1 st8">básica</tspan></text>
<rect x="814.51" y="823.84" class="st0" width="81.91" height="30.16"/>
<text transform="matrix(1 0 0 1 830.3966 832.1107)"><tspan x="0" y="0" class="st1 st8">Enseñanza </tspan><tspan x="10.39" y="13.2" class="st1 st8">media</tspan></text>
<rect x="959.51" y="824" class="st0" width="81.91" height="36"/>
<text transform="matrix(1 0 0 1 975.6989 832.2728)"><tspan x="0" y="0" class="st1 st8">Educación </tspan><tspan x="7.34" y="13.2" class="st1 st8">técnica </tspan></text>
<rect x="1102.86" y="821.34" class="st0" width="86.14" height="24.66"/>
<text transform="matrix(1 0 0 1 1133.0913 829.6147)"><tspan x="0" y="0" class="st1 st8">Nivel </tspan><tspan x="-17.42" y="13.2" class="st1 st8">universitario</tspan></text>
</svg>
