<?xml version="1.0" encoding="utf-8"?>
<!-- Generator: Adobe Illustrator 22.0.1, SVG Export Plug-In . SVG Version: 6.00 Build 0)  -->
<svg version="1.1" id="Capa_1" xmlns="http://www.w3.org/2000/svg" xmlns:xlink="http://www.w3.org/1999/xlink" x="0px" y="0px"
	 viewBox="0 0 1495 282.2" style="enable-background:new 0 0 1495 282.2;" xml:space="preserve">
<style type="text/css">
	.st0{opacity:0.8;fill:#DCF4F3;stroke:#416190;stroke-width:5;stroke-miterlimit:5.83;}
	.st1{fill:none;}
	.st2{font-family:'Verdana-Bold';}
	.st3{font-size:36px;}
	.st4{font-size:21px;}
	.st5{fill:#F70B1C;}
	.st6{font-family:'Verdana';}
	.st7{font-size:20px;}
	.st8{fill:#F4F40C;}
	.st9{fill:none;stroke:#000000;stroke-width:0.87;stroke-miterlimit:10;}
	.st10{fill:none;stroke:#000000;stroke-miterlimit:10;}
	.st11{font-size:18px;}
</style>
<title>leyenda</title>
<path class="st0" d="M39.5,2.5H1450c23.5,0,42.5,19,42.5,42.5v197.8c0,23.5-19,42.5-42.5,42.5H39.5C16,285.3-3,266.3-3,242.8V45
	C-3,21.5,16,2.5,39.5,2.5z"/>
<rect x="463.2" y="11.7" class="st1" width="671.2" height="68.2"/>
<text transform="matrix(1 0 0 1 720.79 58.73)" class="st2 st3">LEYENDA</text>
<rect x="491.2" y="101.9" class="st1" width="615.4" height="29.9"/>
<text transform="matrix(1 0 0 1 427.97 97.68)" class="st2 st4">Cada ícono representa el nivel máximo de educación alcanzado</text>
<rect x="513.5" y="123.3" class="st5" width="23.1" height="23.1"/>
<path d="M536.2,123.8V146H514v-22.2H536.2 M537.1,122.9h-24v24h24V122.9z"/>
<rect x="1013.5" y="123.3" width="23.1" height="23.1"/>
<path d="M1036.2,123.8V146H1014v-22.2H1036.2 M1037.1,122.9h-24v24h24V122.9z"/>
<rect x="553.3" y="156.9" class="st1" width="491.6" height="20.2"/>
<text transform="matrix(1 0 0 1 546.82 141.69)" class="st6 st7">El ingreso es menor que el gasto promedio</text>
<rect x="10.5" y="122.3" class="st8" width="8.1" height="26.1"/>
<path d="M18.2,122.8V148H11v-25.2H18.2 M19.1,121.9h-9v27h9V121.9z"/>
<rect x="562.7" y="135.4" class="st1" width="491.6" height="20.2"/>
<text transform="matrix(1 0 0 1 23.93 141.25)" class="st6 st7">Gasto promedio de las personas de la región</text>
<rect x="553.7" y="188.4" class="st1" width="491.6" height="20.2"/>
<text transform="matrix(1 0 0 1 1038.78 142.25)" class="st6 st7">El ingreso es m</text>
<text transform="matrix(1 0 0 1 1193.41 142.25)" class="st6 st7">a</text>
<text transform="matrix(1 0 0 1 1205.26 142.25)" class="st6 st7">y</text>
<text transform="matrix(1 0 0 1 1216.92 142.25)" class="st6 st7">or que el gasto promedio</text>
<path class="st9" d="M515.2,194h-16c-2.2,0.2-3.8,2.1-3.6,4.2v18.4c-0.1,2.2,1.5,4,3.6,4.2h16c2.2-0.2,3.8-2.1,3.7-4.2v-18.4
	C518.9,196.1,517.3,194.2,515.2,194z M517.5,216.7c0.1,1.4-1,2.6-2.4,2.7h-16c-1.4-0.1-2.5-1.3-2.4-2.7v-18.4
	c-0.1-1.4,1-2.6,2.4-2.7h16c1.4,0.1,2.5,1.3,2.4,2.7V216.7z"/>
<path class="st9" d="M509.8,206.2c1.2-0.5,1.9-1.7,1.7-2.9c0-2-1.2-3.6-4.2-3.6h-4.6v13.5h5.1c3,0,4.2-1.7,4.2-3.8
	C512.3,208,511.3,206.6,509.8,206.2z M504.8,201.8h2.5c1.3,0,2.1,0.4,2.1,1.8c0,1.1-0.7,1.7-2.2,1.7h-2.5L504.8,201.8L504.8,201.8z
	 M507.9,211.1h-3.1v-3.7h2.8c1.7,0,2.5,0.6,2.5,1.8C510.2,210.8,509.3,211.1,507.9,211.1L507.9,211.1z"/>
<path class="st9" d="M528.7,191.9c2.2-0.2,3.8-2.1,3.7-4.2v-18.4c0.1-2.2-1.5-4-3.7-4.2h-16c-2.2,0.2-3.8,2.1-3.7,4.2v18.4
	c-0.1,2.2,1.5,4,3.7,4.2H528.7z M510.3,187.7v-18.4c-0.1-1.4,1-2.6,2.4-2.7h16c1.4,0.1,2.5,1.3,2.4,2.7v18.4c0.1,1.4-1,2.6-2.4,2.7
	h-16C511.3,190.4,510.2,189.2,510.3,187.7L510.3,187.7z"/>
<path class="st9" d="M517.8,181.2h5.9l1.2,3.1h2.1l-5.2-13.5h-2.1l-5.2,13.5h2.1L517.8,181.2z M520.7,173.6l2.1,5.6h-4.3
	L520.7,173.6z"/>
<path class="st9" d="M542.3,194h-16c-2.2,0.2-3.8,2.1-3.7,4.2v18.4c-0.1,2.2,1.5,4,3.7,4.2h16c2.2-0.2,3.8-2.1,3.7-4.2v-18.4
	C546.1,196.1,544.5,194.2,542.3,194z M544.7,216.7c0.1,1.4-1,2.6-2.4,2.7h-16c-1.4-0.1-2.5-1.3-2.4-2.7v-18.4
	c-0.1-1.4,1-2.6,2.4-2.7h16c1.4,0.1,2.5,1.3,2.4,2.7V216.7z"/>
<path class="st9" d="M535.3,201.6c1.3,0,2.6,0.6,3.3,1.7l1.3-1.6c-1.1-1.5-2.8-2.3-4.6-2.3c-3.7,0-6.3,3-6.3,7s2.7,7,6.2,7
	c1.8,0,3.5-0.9,4.5-2.4l-1.3-1.5c-0.8,1-2,1.7-3.3,1.7c-2.1,0-4-2-4-4.8S532.9,201.6,535.3,201.6z"/>
<path class="st10" d="M679.4,206c-0.7-0.5-1.5-0.7-2.4-0.6c-0.5,0.1-0.9,0.2-1.3,0.4l4.2,2.2c-1.2,1.9-2.4,3.9-3.3,5.9
	c-0.7,1.5-1.3,3-1.7,4.6c-0.4,1.3-0.5,2.7-0.4,4.1c2-0.6,4.1-3.4,5.4-6.7c1-2.2,1.4-4.6,1.3-7.1C681,207.7,680.4,206.7,679.4,206z"
	/>
<path class="st10" d="M651.4,179v8.6l23,10.6l0,0c1.8,0,3.5-0.1,5.3-0.4c4.5-0.8,7.4-2.5,7.4-4.2v-14.2l-14.1,6.2L651.4,179z"/>
<polygon class="st10" points="667.8,161.1 637.3,171.9 651.4,176.2 672.9,182.7 687.1,176.5 702.8,169.7 "/>
<path class="st10" d="M672.4,219.6c0-0.2,0.1-0.4,0.1-0.6c0-0.2,0.1-0.5,0.2-0.7v-0.2c0.9-3.1,2.1-6.1,3.8-8.9l0.1-0.1l-2.8-1.4
	c-0.7,0.9-1.2,1.9-1.7,3c-0.6,1.4-1.1,2.8-1.5,4.3L638,196.3l-0.2,1.1c-0.3,1.7-0.2,3.6,0.7,4l34.3,21
	C672.3,222,672.2,221,672.4,219.6z"/>
<path class="st10" d="M670.1,209.5c1.9-4.8,5.3-7.6,8-6.7H678l-35.8-16.5c-1.3-0.7-3.2,1.2-4.3,4.4c-0.2,0.7-0.4,1.5-0.5,2.3
	l32.1,18.4C669.6,210.7,669.9,210.1,670.1,209.5z"/>
<path class="st9" d="M844.6,180.4h-4.3c-0.6-2.6-1.7-5-3.2-7.2l3.6-3.6c0.2-0.2,0.4-0.6,0.5-0.9c0-0.4-0.2-0.7-0.5-0.9l-4.8-4.7
	c-0.6-0.5-1.4-0.5-2,0l-3.6,3.6c-2.1-1.3-4.3-2.3-6.6-2.9v-4.7c-0.1-0.7-0.6-1.3-1.4-1.4h-6.8c-0.7,0-1.3,0.6-1.4,1.4v4.5
	c-2.4,0.5-4.7,1.4-6.8,2.7l-3.9-3.8c-0.6-0.5-1.4-0.5-2,0l-4.8,4.7c-0.2,0.2-0.4,0.6-0.5,0.9c0.1,0.3,0.2,0.7,0.5,0.9l3.9,3.8
	c-1.5,2.3-2.5,4.8-3.2,7.4h-4.4c-0.7,0-1.3,0.6-1.4,1.4v6.7c0.1,0.7,0.6,1.3,1.4,1.4h4.3c0.5,2.2,1.3,4.3,2.5,6.3l3.5-4.2
	c-3.8-8.5,0-18.5,8.5-22.3c2.3-1,4.7-1.5,7.2-1.5c9.3,0,16.9,7.6,16.9,16.9c0,9.3-7.6,16.9-16.9,16.9c-1.6,0-3.3-0.2-4.8-0.6
	l-3.3,3.9c1.1,0.4,2.2,0.7,3.3,1v3.8c0.1,0.7,0.6,1.3,1.4,1.4h6.8c0.7,0,1.3-0.6,1.4-1.4v-4c2.6-0.6,5.1-1.6,7.3-3.1l3,2.9
	c0.3,0.2,0.6,0.4,0.9,0.5c0.4,0,0.7-0.2,0.9-0.5l4.8-4.7c0.2-0.2,0.4-0.6,0.5-0.9c0-0.4-0.2-0.7-0.5-0.9l-3-2.9
	c1.4-2,2.3-4.3,2.7-6.7h4.3c0.7,0,1.3-0.6,1.4-1.4v-6.8C846,181.1,845.5,180.4,844.6,180.4z"/>
<path class="st9" d="M832.3,183.5c-0.2-2.2-1-4.3-2.3-6.1l-8.3,9.6l-5.4-4.4l8.3-9.6c-1.9-0.8-4-1.1-6-1
	c-6.9,0.5-12.1,6.6-11.6,13.5c0.1,1.4,0.5,2.7,1.1,4l0.1,0.1L788,213.1c-1.8,2-1.6,5.1,0.4,6.8c0,0,0.1,0.1,0.1,0.1
	c2.1,1.8,5.2,1.5,7-0.5l19.9-23.1l0.2,0.1c1.6,0.5,3.4,0.7,5.1,0.6C827.6,196.4,832.8,190.4,832.3,183.5z M792,217.8
	c-0.9,0.1-1.7-0.7-1.8-1.6c-0.1-0.9,0.7-1.7,1.6-1.8c0.9-0.1,1.7,0.6,1.8,1.6C793.7,216.9,793,217.7,792,217.8L792,217.8z"/>
<path class="st9" d="M984.2,160.1l-2.4,2.8c-3.3-3.1-7.5-4.9-11.9-5.3c-9.3,15.2-19.6,24-33.4,33.4c-0.4,0.1-0.9,0.2-1.2,0.5
	c-2.4,1.6-3.4,4.4-4,7.8c-1.4,7.8,1,17.3,8.3,18.9c4.3,0.9,7.1,0.2,8.9-2.1c1.4-1.6,7.5-8.8,15.4-17.1c8.9-9.2,19.6-18,24.1-21.7
	c4-3.5,3.2-9,0.4-13.1c-1-1.6-2.3-2.9-3.8-3.9L984.2,160.1z M950.4,209.9c0.5-4.8,0.5-9.7,0.2-14.5c2.4-1.3,4.6-2.9,6.7-4.6
	c10.3-7.8,18.6-17.1,27.1-27.2c3,2.8,5.7,8.5,2,11.8c-4.3,3.5-15.6,12.7-24.3,21.7C957.5,202.1,953.2,206.7,950.4,209.9L950.4,209.9
	z M946.5,214.3c-1.2,1.6-3.2,2.1-6.5,1.4c-6.7-1.6-8.1-11.1-6.3-17.8c1.8-6.4,7.5-5.5,9.3-0.9l-7.3,7.4c0.2,0.7,0.6,5.3,4.3,6.4
	c2.6,0.9,4.9-1.8,5.7-5.1c0.5-2.5,0.5-5.1,0-7.6c-0.3-3.1-2.2-5.8-5.1-7.1c12.8-9,21.5-16.6,30.2-30.4c3.4,0.5,6.5,1.9,9.1,4.1
	c-8.5,9.9-25.9,28.6-31.8,28.6c0,1.4,0.6,13.1-0.2,17.3C947.8,212,947.3,213.2,946.5,214.3z M943.7,200c0.2,2.5,0,5.8-1.4,7.4
	c-1.4,2.1-3.2,0-3.8-2.1L943.7,200z"/>
<path class="st9" d="M981.5,208.5c-0.9-2.9-2.2-5.7-3.8-8.3c-2.4-3.5-7.1-5.5-7.1-5.5c2,2.7,3.5,5.7,4.3,9c0.7,2.5,1.3,5,1.6,7.6
	l-2.8-1.6l-2.2,4.6c0.5-4,0-8-1.4-11.8c-2.2-5.5-3.8-7.1-3.8-7.1c0.6-9.9-3.6-15.2-12.3-15.9l6.5-6.7c7.7-0.2,12.1,9.2,11.3,17.3
	c5.9,3.7,11.3,9,16.2,14.1l-4.5,0.9L981.5,208.5z"/>
<rect x="517" y="363.9" class="st1" width="81.9" height="24"/>
<g>
	<text transform="matrix(1 0 0 1 476.87 249.21)" class="st2 st11">Enseñanza</text>
	<text transform="matrix(1 0 0 1 491.96 266.41)" class="st2 st11">básica</text>
</g>
<rect x="664.6" y="365.7" class="st1" width="81.9" height="30.2"/>
<g>
	<text transform="matrix(1 0 0 1 619.46 251)" class="st2 st11">Enseñanza</text>
	<text transform="matrix(1 0 0 1 633.85 267.2)" class="st2 st11">media</text>
</g>
<rect x="809.6" y="365.9" class="st1" width="81.9" height="36"/>
<g>
	<text transform="matrix(1 0 0 1 761.77 250.17)" class="st2 st11">Educación</text>
	<text transform="matrix(1 0 0 1 772.11 267.37)" class="st2 st11">técnica</text>
</g>
<rect x="952.9" y="363.2" class="st1" width="86.1" height="24.7"/>
<g>
	<text transform="matrix(1 0 0 1 934.16 248.51)" class="st2 st11">Nivel</text>
	<text transform="matrix(1 0 0 1 902.74 264.71)" class="st2 st11">universitario</text>
</g>
</svg>
