<svg id="Capa_1" data-name="Capa 1" xmlns="http://www.w3.org/2000/svg" viewBox="0 0 1500.5 401.89"><defs><style>.cls-1{fill:#dcf4f3;stroke:#416190;stroke-miterlimit:5.83;stroke-width:5px;}.cls-10,.cls-11,.cls-2{fill:none;}.cls-3{font-size:36px;}.cls-13,.cls-3,.cls-4{font-family:Verdana-Bold, Verdana;font-weight:700;}.cls-12,.cls-13,.cls-4,.cls-6{isolation:isolate;}.cls-4{font-size:21px;}.cls-5{fill:#f70b1c;}.cls-6{font-size:20px;font-family:Verdana;}.cls-7{fill:#f4f40c;}.cls-8{letter-spacing:-0.01em;}.cls-9{letter-spacing:-0.01em;}.cls-10,.cls-11{stroke:#000;stroke-miterlimit:10;}.cls-10{stroke-width:0.87px;}.cls-13{font-size:18px;}</style></defs><title>leyenda</title><rect class="cls-1" x="2.5" y="2.5" width="1495.5" height="282.82"/><rect class="cls-2" x="468.72" y="11.66" width="671.15" height="68.23"/><text class="cls-3" transform="translate(726.29 58.73)">LEYENDA</text><rect class="cls-2" x="496.72" y="101.89" width="615.38" height="29.85"/><text class="cls-4" transform="translate(433.47 97.68)">Cada ícono representa el nivel máximo de educación alcanzado</text><rect class="cls-5" x="519.02" y="123.34" width="23.11" height="23.11"/><path d="M543.65,121.28v22.21H521.44V121.28h22.21m.89-.89h-24v24h24v-24Z" transform="translate(-1.98 2.5)"/><rect x="1019.02" y="123.34" width="23.11" height="23.11"/><path d="M1043.65,121.28v22.21h-22.21V121.28h22.21m.89-.89h-24v24h24v-24Z" transform="translate(-1.98 2.5)"/><rect class="cls-2" x="558.84" y="156.9" width="491.63" height="20.2"/><text class="cls-6" transform="translate(552.32 141.69)">El ingreso es menor que el gasto promedio</text><rect class="cls-7" x="16.02" y="122.34" width="8.11" height="26.11"/><path d="M25.65,120.28v25.21H18.44V120.28h7.21m.89-.89h-9v27h9v-27Z" transform="translate(-1.98 2.5)"/><rect class="cls-2" x="568.2" y="135.45" width="491.63" height="20.2"/><text class="cls-6" transform="translate(29.43 141.25)">Gasto promedio de las personas de la región</text><rect class="cls-2" x="559.2" y="188.45" width="491.63" height="20.2"/><text class="cls-6" transform="translate(1044.28 142.25)">El ingreso es m<tspan class="cls-8" x="154.63" y="0">a</tspan><tspan class="cls-9" x="166.48" y="0">y</tspan><tspan x="178.14" y="0">or que el gasto promedio</tspan></text><path class="cls-10" d="M522.65,191.52h-16a4,4,0,0,0-3.65,4.21v18.44a4,4,0,0,0,3.65,4.21h16a4,4,0,0,0,3.65-4.21V195.73A4,4,0,0,0,522.65,191.52ZM525,214.17a2.58,2.58,0,0,1-2.38,2.74h-16a2.58,2.58,0,0,1-2.38-2.74V195.73a2.58,2.58,0,0,1,2.38-2.74h16a2.58,2.58,0,0,1,2.38,2.74v18.44Z" transform="translate(-1.98 2.5)"/><path class="cls-10" d="M517.32,203.72a2.82,2.82,0,0,0,1.73-2.92c0-2-1.17-3.58-4.15-3.58h-4.57v13.51h5.14c3,0,4.23-1.73,4.23-3.75A3.13,3.13,0,0,0,517.32,203.72Zm-5-4.38h2.53c1.26,0,2.13.38,2.13,1.82,0,1.12-.72,1.68-2.15,1.68h-2.52v-3.5Zm3.1,9.29h-3.11v-3.69h2.85c1.67,0,2.5.6,2.5,1.8C517.67,208.28,516.78,208.63,515.42,208.63Z" transform="translate(-1.98 2.5)"/><path class="cls-10" d="M536.18,189.45a4,4,0,0,0,3.65-4.21V166.79a4,4,0,0,0-3.65-4.21h-16a4,4,0,0,0-3.65,4.21v18.45a4,4,0,0,0,3.65,4.21Zm-18.4-4.21V166.79a2.58,2.58,0,0,1,2.38-2.74h16a2.58,2.58,0,0,1,2.38,2.74v18.45a2.58,2.58,0,0,1-2.38,2.74h-16A2.58,2.58,0,0,1,517.78,185.24Z" transform="translate(-1.98 2.5)"/><path class="cls-10" d="M525.24,178.74h5.87l1.17,3.07h2.11l-5.17-13.51h-2.11l-5.17,13.51h2.11Zm2.94-7.67,2.13,5.57h-4.26Z" transform="translate(-1.98 2.5)"/><path class="cls-10" d="M549.8,191.52h-16a4,4,0,0,0-3.65,4.21v18.44a4,4,0,0,0,3.65,4.21h16a4,4,0,0,0,3.65-4.21V195.73A4,4,0,0,0,549.8,191.52Zm2.38,22.65a2.58,2.58,0,0,1-2.38,2.74h-16a2.58,2.58,0,0,1-2.38-2.74V195.73a2.58,2.58,0,0,1,2.38-2.74h16a2.58,2.58,0,0,1,2.38,2.74v18.44Z" transform="translate(-1.98 2.5)"/><path class="cls-10" d="M542.75,199.14a4.1,4.1,0,0,1,3.34,1.66l1.26-1.58a5.58,5.58,0,0,0-4.56-2.32c-3.69,0-6.3,3-6.3,7s2.67,7,6.17,7a5.56,5.56,0,0,0,4.52-2.38L545.9,207a4.09,4.09,0,0,1-3.31,1.66c-2.11,0-4.05-2-4.05-4.82S540.42,199.14,542.75,199.14Z" transform="translate(-1.98 2.5)"/><path class="cls-11" d="M686.9,203.51a3.75,3.75,0,0,0-2.38-.62,3.46,3.46,0,0,0-1.3.44l4.15,2.16a55.34,55.34,0,0,0-3.35,5.95,24.33,24.33,0,0,0-1.73,4.65,11.92,11.92,0,0,0-.44,4.09c2-.57,4.07-3.38,5.43-6.73a16.09,16.09,0,0,0,1.34-7.06A3.92,3.92,0,0,0,686.9,203.51Z" transform="translate(-1.98 2.5)"/><path class="cls-11" d="M658.91,176.48v8.64l23,10.57h0a35.85,35.85,0,0,0,5.27-.39c4.49-.84,7.39-2.46,7.39-4.16V176.9l-14.13,6.17Z" transform="translate(-1.98 2.5)"/><polygon class="cls-11" points="673.25 161.1 642.78 171.85 656.94 176.16 678.4 182.71 692.63 176.51 708.3 169.67 673.25 161.1"/><path class="cls-11" d="M679.83,217.15c0-.18.06-.39.08-.6a5.7,5.7,0,0,1,.16-.73l0-.17a35.35,35.35,0,0,1,3.79-8.86l.06-.11-2.81-1.45a14,14,0,0,0-1.67,3,28.28,28.28,0,0,0-1.52,4.26l-32.49-18.65-.2,1.12c-.27,1.72-.2,3.56.67,4l34.27,21C679.75,219.52,679.63,218.51,679.83,217.15Z" transform="translate(-1.98 2.5)"/><path class="cls-11" d="M677.59,207c1.94-4.8,5.33-7.56,7.95-6.66l-.1,0-35.8-16.46c-1.33-.73-3.24,1.21-4.29,4.39a13.93,13.93,0,0,0-.54,2.25l32.12,18.43C677.12,208.21,677.34,207.57,677.59,207Z" transform="translate(-1.98 2.5)"/><path class="cls-10" d="M852.09,177.91h-4.3a20.05,20.05,0,0,0-3.18-7.17l3.64-3.58a1.72,1.72,0,0,0,.46-.91,1.13,1.13,0,0,0-.46-.91l-4.77-4.69a1.69,1.69,0,0,0-2.05,0l-3.64,3.58a24.64,24.64,0,0,0-6.62-2.93v-4.69a1.48,1.48,0,0,0-1.39-1.37H823a1.48,1.48,0,0,0-1.39,1.37v4.5a23.16,23.16,0,0,0-6.82,2.67l-3.91-3.84a1.69,1.69,0,0,0-2.05,0L804,164.63a1.72,1.72,0,0,0-.46.91,1.7,1.7,0,0,0,.46.91l3.91,3.84a25,25,0,0,0-3.18,7.43h-4.37a1.48,1.48,0,0,0-1.39,1.37v6.71a1.48,1.48,0,0,0,1.39,1.37h4.3a21.84,21.84,0,0,0,2.45,6.25l3.51-4.17a16.85,16.85,0,0,1,15.69-23.71,16.87,16.87,0,1,1,0,33.74,19.61,19.61,0,0,1-4.83-.65l-3.31,3.91a27.51,27.51,0,0,0,3.31,1v3.84a1.48,1.48,0,0,0,1.39,1.37h6.82a1.48,1.48,0,0,0,1.39-1.37v-4a20.58,20.58,0,0,0,7.28-3.13l3,2.93a1.75,1.75,0,0,0,.93.46,1.6,1.6,0,0,0,.93-.46l4.77-4.69a1.72,1.72,0,0,0,.46-.91,1.13,1.13,0,0,0-.46-.91l-3-2.93a17.07,17.07,0,0,0,2.71-6.71H852a1.48,1.48,0,0,0,1.39-1.37v-6.78C853.48,178.63,853,177.91,852.09,177.91Z" transform="translate(-1.98 2.5)"/><path class="cls-10" d="M839.78,181a12.21,12.21,0,0,0-2.25-6.06l-8.28,9.64-5.43-4.43,8.28-9.58a13.66,13.66,0,0,0-6-1,12.6,12.6,0,0,0-11.59,13.49,12.4,12.4,0,0,0,1.06,4l.07.13-20.13,23.39a4.83,4.83,0,0,0,.53,6.9,5,5,0,0,0,7-.52l19.86-23.13.2.07a13.59,13.59,0,0,0,5.1.59A12.62,12.62,0,0,0,839.78,181Zm-40.26,34.27a1.7,1.7,0,1,1,1.59-1.82A1.7,1.7,0,0,1,799.52,215.24Z" transform="translate(-1.98 2.5)"/><path class="cls-10" d="M991.65,157.64l-2.43,2.77a19.86,19.86,0,0,0-11.94-5.3c-9.31,15.21-19.63,24-33.39,33.42a2.63,2.63,0,0,0-1.21.46c-2.43,1.61-3.44,4.38-4,7.84-1.42,7.84,1,17.29,8.3,18.9,4.25.92,7.08.23,8.9-2.07,1.42-1.61,7.49-8.76,15.38-17.06,8.9-9.22,19.63-18,24.08-21.67,4.05-3.46,3.24-9,.4-13.14a13.19,13.19,0,0,0-3.84-3.92Zm-33.79,49.79a88.75,88.75,0,0,0,.2-14.52,48.43,48.43,0,0,0,6.68-4.61c10.32-7.84,18.62-17.06,27.11-27.2,3,2.77,5.67,8.53,2,11.75-4.25,3.46-15.58,12.68-24.28,21.67C964.94,199.59,960.7,204.2,957.86,207.43ZM954,211.81c-1.21,1.61-3.24,2.07-6.47,1.38-6.68-1.61-8.09-11.06-6.27-17.75,1.82-6.45,7.49-5.53,9.31-.92l-7.28,7.38c.2.69.61,5.3,4.25,6.45,2.63.92,4.86-1.84,5.67-5.07a19.14,19.14,0,0,0,0-7.61,8.66,8.66,0,0,0-5.06-7.14c12.75-9,21.45-16.59,30.15-30.42a17.65,17.65,0,0,1,9.11,4.15c-8.5,9.91-25.9,28.58-31.77,28.58,0,1.38.61,13.14-.2,17.29A7.55,7.55,0,0,1,954,211.81Zm-2.83-14.29c.2,2.54,0,5.76-1.42,7.38-1.42,2.07-3.24,0-3.84-2.07Z" transform="translate(-1.98 2.5)"/><path class="cls-10" d="M989,206a33.32,33.32,0,0,0-3.84-8.3c-2.43-3.46-7.08-5.53-7.08-5.53a23.93,23.93,0,0,1,4.25,9,51.08,51.08,0,0,1,1.62,7.61l-2.83-1.61-2.23,4.61a23.54,23.54,0,0,0-1.42-11.75c-2.23-5.53-3.84-7.14-3.84-7.14.61-9.91-3.64-15.21-12.34-15.9l6.47-6.68c7.69-.23,12.14,9.22,11.33,17.29,5.87,3.69,11.33,9,16.19,14.06l-4.45.92Z" transform="translate(-1.98 2.5)"/><rect class="cls-2" x="522.48" y="363.93" width="81.91" height="23.96"/><g class="cls-12"><text class="cls-13" transform="translate(482.37 249.21)">Enseñanza </text><text class="cls-13" transform="translate(497.46 266.41)">básica</text></g><rect class="cls-2" x="670.08" y="365.73" width="81.91" height="30.16"/><g class="cls-12"><text class="cls-13" transform="translate(624.96 251)">Enseñanza </text><text class="cls-13" transform="translate(639.35 267.2)">media</text></g><rect class="cls-2" x="815.08" y="365.89" width="81.91" height="36"/><g class="cls-12"><text class="cls-13" transform="translate(767.27 250.17)">Educación </text><text class="cls-13" transform="translate(777.61 267.37)">técnica </text></g><rect class="cls-2" x="958.43" y="363.23" width="86.14" height="24.66"/><g class="cls-12"><text class="cls-13" transform="translate(939.66 248.51)">Nivel </text><text class="cls-13" transform="translate(908.24 264.71)">universitario</text></g></svg>