<?xml version="1.0" encoding="utf-8"?>
<!-- Generator: Adobe Illustrator 22.0.1, SVG Export Plug-In . SVG Version: 6.00 Build 0)  -->
<svg version="1.1" id="Capa_1" xmlns="http://www.w3.org/2000/svg" xmlns:xlink="http://www.w3.org/1999/xlink" x="0px" y="0px"
	 viewBox="0 0 1500.5 410.2" style="enable-background:new 0 0 1500.5 410.2;" xml:space="preserve">
<style type="text/css">
	.st0{opacity:0.8;fill:#DCF4F3;stroke:#416190;stroke-width:5;stroke-miterlimit:5.83;}
	.st1{fill:none;stroke:#000000;stroke-width:3.0401;stroke-miterlimit:10;}
	.st2{fill:none;}
	.st3{font-family:'ArialMT';}
	.st4{font-size:16px;}
	.st5{letter-spacing:27.6;}
	.st6{letter-spacing:9.2;}
	.st7{fill:#FF0000;}
	.st8{font-size:21px;}
	.st9{font-family:'Verdana-Bold';}
	.st10{font-size:12.243px;}
	.st11{fill:#FCEE21;}
	.st12{font-size:16.6514px;}
	.st13{fill:#FF0000;stroke:#FF0000;stroke-width:1.3664;stroke-miterlimit:10;}
	.st14{font-size:18.9273px;}
	.st15{fill:#FF0000;stroke:#FF0000;stroke-width:1.3343;stroke-miterlimit:10;}
	.st16{font-size:18px;}
	.st17{fill:#FF0000;stroke:#FF0000;stroke-width:0.2169;stroke-miterlimit:10;}
	.st18{fill:#FF0000;stroke:#FF0000;stroke-width:0.1414;stroke-miterlimit:10;}
</style>
<path class="st0" d="M45,2.5h1410.5c23.5,0,42.5,19,42.5,42.5v320.2c0,23.5-19,42.5-42.5,42.5H45c-23.5,0-42.5-19-42.5-42.5V45
	C2.5,21.5,21.5,2.5,45,2.5z"/>
<rect x="98.6" y="235" class="st1" width="1385.4" height="21.3"/>
<rect x="112.5" y="239.4" class="st2" width="1371.8" height="36.8"/>
<text transform="matrix(0.9794 0 0 1 112.5791 251.4375)" class="st3 st4">$100.000</text>
<text transform="matrix(0.9794 0 0 1 177.9238 251.4375)" class="st3 st4 st5"> </text>
<text transform="matrix(0.9794 0 0 1 210.4307 251.4375)" class="st3 st4 st5"> </text>
<text transform="matrix(0.9794 0 0 1 243.0449 251.4375)" class="st3 st4">$200.000</text>
<text transform="matrix(0.9794 0 0 1 308.3901 251.4375)" class="st3 st4 st5"> </text>
<text transform="matrix(0.9794 0 0 1 340.8965 251.4375)" class="st3 st4 st5"> </text>
<text transform="matrix(0.9794 0 0 1 373.5107 251.4375)" class="st3 st4">$300.000</text>
<text transform="matrix(0.9794 0 0 1 438.8564 251.4375)" class="st3 st4 st5"> </text>
<text transform="matrix(0.9794 0 0 1 471.3623 251.4375)" class="st3 st4 st5"> </text>
<text transform="matrix(0.9794 0 0 1 503.9766 251.4375)" class="st3 st4">$400.000</text>
<text transform="matrix(0.9794 0 0 1 569.3223 251.4375)" class="st3 st4 st5"> </text>
<text transform="matrix(0.9794 0 0 1 601.8281 251.4375)" class="st3 st4 st5"> </text>
<text transform="matrix(0.9794 0 0 1 634.4521 251.4375)" class="st3 st4">$500.000</text>
<text transform="matrix(0.9794 0 0 1 699.7979 251.4375)" class="st3 st4 st5"> </text>
<text transform="matrix(0.9794 0 0 1 732.2939 251.4375)" class="st3 st4 st5"> </text>
<text transform="matrix(0.9794 0 0 1 764.918 251.4375)" class="st3 st4">$600.000</text>
<text transform="matrix(0.9794 0 0 1 830.2637 251.4375)" class="st3 st4 st5"> </text>
<text transform="matrix(0.9794 0 0 1 862.7695 251.4375)" class="st3 st4 st5"> </text>
<text transform="matrix(0.9794 0 0 1 895.3838 251.4375)" class="st3 st4">$700.000</text>
<text transform="matrix(0.9794 0 0 1 960.7295 251.4375)" class="st3 st4 st5"> </text>
<text transform="matrix(0.9794 0 0 1 993.2354 251.4375)" class="st3 st4 st5"> </text>
<text transform="matrix(0.9794 0 0 1 1025.8496 251.4375)" class="st3 st4">$800.000</text>
<text transform="matrix(0.9794 0 0 1 1091.1953 251.4375)" class="st3 st4 st5"> </text>
<text transform="matrix(0.9794 0 0 1 1123.7012 251.4375)" class="st3 st4 st5"> </text>
<text transform="matrix(0.9794 0 0 1 1156.3154 251.4375)" class="st3 st4">$900.000</text>
<text transform="matrix(0.9794 0 0 1 1221.6611 251.4375)" class="st3 st4 st5"> </text>
<text transform="matrix(0.9794 0 0 1 1254.167 251.4375)" class="st3 st4 st5"> </text>
<text transform="matrix(0.9794 0 0 1 1286.7813 251.4375)" class="st3 st4">$1.000.000 </text>
<text transform="matrix(0.9794 0 0 1 1369.5508 251.4375)" class="st3 st4 st6"> </text>
<text transform="matrix(0.9794 0 0 1 1384.6328 251.4375)" class="st3 st4 st5"> </text>
<text transform="matrix(0.9794 0 0 1 1417.2471 251.4375)" class="st3 st4">   +++</text>
<path class="st7" d="M626.3,156.1h-3.7c-0.6-2.3-1.4-4.2-2.8-6.1l3.2-3.1c0.2-0.2,0.4-0.6,0.4-0.8c0-0.4-0.2-0.6-0.4-0.8l-4.1-4
	c-0.4-0.4-1.2-0.4-1.8,0l-3.2,3.1c-1.8-1.2-3.7-1.9-5.7-2.5v-4c0-0.6-0.6-1.2-1.2-1.2h-5.8c-0.6,0-1.2,0.6-1.2,1.2v3.9
	c-2.2,0.4-4.1,1.3-5.9,2.3l-3.4-3.3c-0.4-0.4-1.2-0.4-1.8,0l-4.1,4c-0.2,0.2-0.4,0.6-0.4,0.8s0.2,0.6,0.4,0.8l3.4,3.3
	c-1.2,1.9-2.2,4-2.8,6.4h-3.8c-0.6,0-1.2,0.6-1.2,1.2v5.8c0,0.6,0.6,1.2,1.2,1.2h3.7c0.3,2,1.3,3.7,2.1,5.4l3-3.6
	c-0.8-1.8-1.3-3.8-1.3-5.9c0-8,6.6-14.5,14.8-14.5s14.8,6.5,14.8,14.5s-6.6,14.5-14.8,14.5c-1.4,0-2.9-0.2-4.2-0.6l-2.9,3.4
	c0.9,0.3,1.9,0.6,2.9,0.8v3.3c0,0.6,0.6,1.2,1.2,1.2h5.9c0.6,0,1.2-0.6,1.2-1.2v-3.5c2.3-0.6,4.3-1.3,6.3-2.7l2.6,2.5
	c0.2,0.2,0.6,0.4,0.8,0.4s0.6-0.2,0.8-0.4l4.1-4c0.2-0.2,0.4-0.6,0.4-0.8c0-0.4-0.2-0.6-0.4-0.8l-2.6-2.5c1.2-1.7,2-3.6,2.3-5.8h3.7
	c0.6,0,1.2-0.6,1.2-1.2V157C627.5,156.7,627.1,156.1,626.3,156.1z"/>
<path class="st7" d="M615.7,158.7c-0.2-1.8-0.8-3.6-2-5.2l-7.2,8.3l-4.7-3.8l7.2-8.2c-1.7-0.7-3.4-1-5.2-0.8
	c-6,0.5-10.5,5.7-10,11.6c0.1,1.2,0.4,2.4,0.9,3.5l0.1,0.1l-17.4,20.1c-0.7,0.8-1.1,2-1,3.1s0.6,2.1,1.5,2.8s2,1.1,3.2,1
	c1.1-0.1,2.2-0.6,2.9-1.5l17.2-19.8l0.2,0.1c1.4,0.5,2.9,0.6,4.4,0.5C611.7,169.8,616.2,164.6,615.7,158.7z M580.9,188.1
	c-0.9,0.1-1.5-0.6-1.6-1.3c-0.1-0.8,0.6-1.5,1.4-1.6c0.9-0.1,1.5,0.6,1.6,1.3C582.3,187.3,581.8,188,580.9,188.1z"/>
<rect x="776.6" y="379.2" class="st2" width="92" height="32.3"/>
<text transform="matrix(0.9794 0 0 1 776.5967 395.0039)" class="st3 st8">$612.240</text>
<rect x="589.6" y="21.9" class="st2" width="439.9" height="108.7"/>
<text transform="matrix(1 0 0 1 743.7232 37.6472)" class="st9 st8">LOS LAGOS X</text>
<text transform="matrix(1 0 0 1 574.481 88.0471)" class="st9 st8">Población: </text>
<text transform="matrix(1 0 0 1 702.2114 88.0471)" class="st3 st8">828.708 </text>
<text transform="matrix(1 0 0 1 784.9419 88.0471)" class="st9 st8">Superficie: </text>
<text transform="matrix(1 0 0 1 916.4287 88.0471)" class="st3 st8">31.842,3 km</text>
<text transform="matrix(1 0 0 1 1038.9891 79.0545)" class="st3 st10">2</text>
<rect x="814.7" y="126.6" class="st11" width="4.5" height="244"/>
<rect x="16" y="179.1" class="st2" width="105.4" height="23.7"/>
<text transform="matrix(0.9794 0 0 1 16.0293 191.0088)" class="st9 st12">MUJERES</text>
<rect x="16" y="300.5" class="st2" width="96.2" height="26"/>
<text transform="matrix(0.9794 0 0 1 16.0293 312.4531)" class="st9 st12">HOMBRES</text>
<rect x="215.1" y="63.3" class="st2" width="80.5" height="23.3"/>
<g>
	<g>
		<path class="st13" d="M445.5,296.7h-13.8c-1.7,0-3.2,1.7-3.2,3.8v16.7c0,2.1,1.4,3.8,3.2,3.8h13.8c1.7,0,3.2-1.7,3.2-3.8v-16.6
			C448.7,298.4,447.3,296.7,445.5,296.7z M447.6,317.2c0,1.4-0.9,2.5-2,2.5h-13.8c-1.1,0-2-1.1-2-2.5v-16.6c0-1.4,0.9-2.5,2-2.5
			h13.8c1.1,0,2,1.1,2,2.5V317.2L447.6,317.2z"/>
		<path class="st13" d="M441,307.7c1-0.5,1.5-1.2,1.5-2.6c0-1.8-1-3.2-3.6-3.2H435v12.2h4.4c2.6,0,3.7-1.6,3.7-3.4
			C443,309.1,442.2,308.1,441,307.7z M436.6,303.8h2.2c1.1,0,1.8,0.3,1.8,1.6c0,1-0.6,1.5-1.8,1.5h-2.2V303.8L436.6,303.8z
			 M439.3,312.2h-2.7v-3.3h2.5c1.4,0,2.2,0.5,2.2,1.6C441.3,311.8,440.5,312.2,439.3,312.2z"/>
		<path class="st13" d="M457.2,294.9c1.7,0,3.2-1.7,3.2-3.8v-16.6c0-2.1-1.4-3.8-3.2-3.8h-13.8c-1.7,0-3.2,1.7-3.2,3.8v16.6
			c0,2.1,1.4,3.8,3.2,3.8H457.2L457.2,294.9z M441.4,291.1v-16.6c0-1.4,0.9-2.5,2-2.5h13.8c1.1,0,2,1.1,2,2.5v16.6
			c0,1.4-0.9,2.5-2,2.5h-13.8C442.3,293.5,441.4,292.4,441.4,291.1z"/>
		<path class="st13" d="M447.8,285.2h5.1l1,2.8h1.8l-4.5-12.2h-1.8l-4.5,12.2h1.8L447.8,285.2z M450.3,278.3l1.8,5h-3.7L450.3,278.3
			z"/>
		<path class="st13" d="M468.9,296.7h-13.8c-1.7,0-3.2,1.7-3.2,3.8v16.7c0,2.1,1.4,3.8,3.2,3.8h13.8c1.7,0,3.2-1.7,3.2-3.8v-16.6
			C472.1,298.4,470.7,296.7,468.9,296.7z M471,317.2c0,1.4-0.9,2.5-2,2.5h-13.8c-1.1,0-2-1.1-2-2.5v-16.6c0-1.4,0.9-2.5,2-2.5H469
			c1.1,0,2,1.1,2,2.5V317.2L471,317.2z"/>
		<path class="st13" d="M462.9,303.6c1.2,0,2,0.5,2.9,1.5l1.1-1.4c-1-1.4-2.4-2.1-3.9-2.1c-3.2,0-5.4,2.7-5.4,6.3
			c0,3.7,2.3,6.3,5.3,6.3c1.5,0,2.8-0.7,3.9-2.1l-1.1-1.4c-1,1.2-1.8,1.5-2.8,1.5c-1.8,0-3.5-1.8-3.5-4.3
			C459.2,305.3,460.9,303.6,462.9,303.6z"/>
	</g>
	<rect x="411.2" y="328.5" class="st2" width="84.1" height="25.4"/>
	<text transform="matrix(0.9484 0 0 1 411.252 342.7021)" class="st3 st14">$334.599</text>
</g>
<g>
	<g>
		<path class="st15" d="M317.4,172.3h-13.8c-1.7,0-3.2,1.6-3.2,3.6v15.8c0,2,1.4,3.6,3.2,3.6h13.8c1.7,0,3.2-1.6,3.2-3.6v-15.8
			C320.6,173.9,319.2,172.3,317.4,172.3z M319.5,191.7c0,1.3-0.9,2.3-2.1,2.3h-13.8c-1.1,0-2.1-1.1-2.1-2.3v-15.8
			c0-1.3,0.9-2.4,2.1-2.4h13.8c1.1,0,2.1,1.1,2.1,2.4V191.7L319.5,191.7z"/>
		<path class="st15" d="M312.8,182.8c1-0.5,1.5-1.1,1.5-2.5c0-1.7-1-3.1-3.6-3.1h-4v11.6h4.4c2.6,0,3.7-1.5,3.7-3.2
			C314.9,184.1,314.1,183.1,312.8,182.8z M308.5,179h2.2c1.1,0,1.8,0.3,1.8,1.6c0,1-0.6,1.4-1.9,1.4h-2.2L308.5,179L308.5,179z
			 M311.2,187h-2.7v-3.2h2.5c1.4,0,2.2,0.5,2.2,1.5C313.1,186.7,312.4,187,311.2,187z"/>
		<path class="st15" d="M329.1,170.5c1.7,0,3.2-1.6,3.2-3.6v-15.8c0-2-1.4-3.6-3.2-3.6h-13.8c-1.7,0-3.2,1.6-3.2,3.6v15.8
			c0,2,1.4,3.6,3.2,3.6H329.1L329.1,170.5z M313.2,166.9v-15.8c0-1.3,0.9-2.4,2.1-2.4h13.8c1.1,0,2.1,1.1,2.1,2.4v15.8
			c0,1.3-0.9,2.4-2.1,2.4h-13.8C314.2,169.3,313.2,168.2,313.2,166.9z"/>
		<path class="st15" d="M319.7,161.3h5.1l1,2.6h1.8l-4.5-11.6h-1.8l-4.5,11.6h1.8L319.7,161.3z M322.2,154.8l1.8,4.8h-3.7
			L322.2,154.8z"/>
		<path class="st15" d="M340.9,172.3h-13.8c-1.7,0-3.2,1.6-3.2,3.6v15.8c0,2,1.4,3.6,3.2,3.6h13.8c1.7,0,3.2-1.6,3.2-3.6v-15.8
			C344.1,173.9,342.6,172.3,340.9,172.3z M343,191.7c0,1.3-0.9,2.3-2.1,2.3h-13.8c-1.1,0-2.1-1.1-2.1-2.3v-15.8
			c0-1.3,0.9-2.4,2.1-2.4h13.8c1.1,0,2.1,1.1,2.1,2.4V191.7L343,191.7z"/>
		<path class="st15" d="M334.8,178.9c1.2,0,2,0.4,2.9,1.4l1.1-1.4c-1-1.3-2.4-2-3.9-2c-3.2,0-5.5,2.6-5.5,6c0,3.5,2.3,6,5.3,6
			c1.5,0,2.8-0.7,3.9-2l-1.1-1.3c-1,1.1-1.8,1.4-2.9,1.4c-1.8,0-3.5-1.7-3.5-4.1C331.2,180.5,332.8,178.9,334.8,178.9z"/>
	</g>
	<rect x="277.5" y="201.9" class="st2" width="93.1" height="18.8"/>
	<text transform="matrix(1.0255 0 0 1 277.5 215.4482)" class="st3 st16">$235.898</text>
</g>
<g>
	<path class="st17" d="M581.6,309.8c-0.6-0.4-1.3-0.6-2.1-0.5c-0.4,0-0.8,0.2-1.1,0.4l3.6,1.8c-1.1,1.6-2,3.3-2.9,5.1
		c-0.6,1.2-1.1,2.6-1.5,4c-0.3,1.1-0.5,2.3-0.4,3.5c1.7-0.5,3.5-2.9,4.7-5.8c0.8-1.8,1.2-3.9,1.2-6.1
		C582.9,311.2,582.3,310.3,581.6,309.8z"/>
	<path class="st17" d="M557.4,286.7v7.4l19.9,9.1l0,0c1.5,0,3-0.1,4.5-0.3c3.9-0.7,6.4-2.1,6.4-3.6v-12.2l-12.2,5.3L557.4,286.7z"/>
	<polygon class="st17" points="571.5,271.3 545.1,280.5 557.4,284.2 575.9,289.9 588.2,284.5 601.8,278.7 	"/>
	<path class="st17" d="M575.4,321.5c0-0.2,0-0.3,0.1-0.5s0.1-0.4,0.1-0.6v-0.1c0.5-1.7,1-3.3,1.8-4.8c0.4-1,0.9-1.9,1.5-2.8v-0.1
		l-2.4-1.2c-0.6,0.8-1,1.6-1.4,2.6c-0.5,1.2-1,2.4-1.3,3.7l-28.1-16l-0.2,1c-0.2,1.5-0.2,3,0.6,3.5l29.6,18
		C575.4,323.6,575.3,322.7,575.4,321.5z"/>
	<path class="st17" d="M573.5,312.8c1.7-4.1,4.6-6.5,6.9-5.7h-0.1L549.4,293c-1.2-0.6-2.8,1-3.7,3.8c-0.2,0.6-0.4,1.3-0.5,1.9
		l27.8,15.8C573.1,313.9,573.3,313.3,573.5,312.8z"/>
	<rect x="534.5" y="330.6" class="st2" width="100" height="21"/>
	<text transform="matrix(1.0255 0 0 1 534.5908 344.1123)" class="st3 st16">$438.169</text>
</g>
<rect x="551.8" y="201.1" class="st2" width="103.7" height="22.3"/>
<text transform="matrix(1.0255 0 0 1 551.8779 214.666)" class="st3 st16">$462.078</text>
<g>
	<path class="st18" d="M785.3,285.9h-3.7c-0.6-2.3-1.4-4.2-2.8-6.2l3.2-3.1c0.2-0.2,0.4-0.6,0.4-0.8c0-0.4-0.2-0.6-0.4-0.8l-4.1-4
		c-0.4-0.4-1.2-0.4-1.8,0l-3.2,3.1c-1.8-1.2-3.7-1.9-5.7-2.5v-4c0-0.6-0.6-1.2-1.2-1.2h-5.9c-0.6,0-1.2,0.6-1.2,1.2v3.9
		c-2.2,0.4-4.1,1.3-5.9,2.3l-3.4-3.3c-0.4-0.4-1.2-0.4-1.8,0l-4.1,4c-0.2,0.2-0.4,0.6-0.4,0.8c0,0.2,0.2,0.6,0.4,0.8l3.4,3.3
		c-1.2,1.9-2.2,4-2.8,6.4h-3.8c-0.6,0-1.2,0.6-1.2,1.2v5.8c0,0.6,0.6,1.2,1.2,1.2h3.7c0.3,2,1.3,3.7,2.1,5.4l3-3.6
		c-0.8-1.8-1.3-3.8-1.3-5.9c0-8,6.6-14.5,14.8-14.5s14.8,6.5,14.8,14.5s-6.4,14.3-14.6,14.3c-1.4,0-2.9-0.2-4.2-0.6l-2.9,3.3
		c0.9,0.3,1.9,0.6,2.9,0.8v3.3c0,0.6,0.6,1.2,1.2,1.2h5.9c0.6,0,1.2-0.6,1.2-1.2v-3.5c2.3-0.6,4.3-1.3,6.3-2.7l2.6,2.5
		c0.2,0.2,0.6,0.4,0.8,0.4s0.6-0.2,0.8-0.4l4.1-4c0.2-0.2,0.4-0.6,0.4-0.8c0-0.4-0.2-0.6-0.4-0.8l-2.6-2.5c1.2-1.7,2-3.6,2.3-5.8
		h3.7c0.6,0,1.2-0.6,1.2-1.2v-5.8C786.5,286.5,786.1,285.9,785.3,285.9z"/>
	<path class="st18" d="M774.6,288.5c-0.2-1.8-0.8-3.6-2-5.2l-7.2,8.3l-4.7-3.8l7.2-8.2c-1.7-0.7-3.4-1-5.2-0.8
		c-6,0.5-10.5,5.7-10,11.6c0.1,1.2,0.4,2.3,0.9,3.5l0.1,0.1l-17.4,20.1c-0.7,0.8-1.1,2-1,3.1s0.6,2.1,1.5,2.8s2,1.1,3.2,1
		c1.1-0.1,2.2-0.6,2.9-1.5l17.2-19.8l0.2,0.1c1.4,0.5,2.9,0.6,4.4,0.5C770.6,299.6,775.2,294.4,774.6,288.5z M739.9,317.9
		c-0.9,0.1-1.5-0.6-1.6-1.3c-0.1-0.8,0.6-1.5,1.4-1.6c0.9-0.1,1.5,0.6,1.6,1.3C741.3,317.1,740.7,317.9,739.9,317.9z"/>
	<rect x="718.5" y="330" class="st2" width="86.8" height="19.6"/>
	<text transform="matrix(1.0255 0 0 1 718.5908 343.499)" class="st3 st16">$596.450</text>
</g>
<g>
	<g>
		<path d="M1115,142.7c-0.5,0.6-1.2,1.4-2.1,2.4c-3.8-3.6-7.5-4.1-10.3-4.5c-8,13-17,20.6-28.8,28.7c-0.3,0-0.7,0.2-1.1,0.4
			c-2.1,1.4-3,3.8-3.5,6.7c-1.2,6.7,0.9,14.8,7.2,16.2c3.7,0.8,6.1,0.2,7.7-1.8c1.2-1.4,6.5-7.5,13.3-14.6
			c7.7-7.9,17-15.4,20.8-18.6c3.5-3,2.8-7.7,0.3-11.3c-0.9-1.4-2.1-2.6-3.3-3.4L1115,142.7z M1085.8,185.4
			c0.5-3.6,0.3-10.3,0.2-12.5c0.9-0.4,2.6-1.6,5.8-4c8.9-6.7,16.1-14.6,23.4-23.3c2.6,2.4,4.9,7.3,1.8,10.1
			c-3.7,3-13.5,10.9-21,18.6C1092,178.6,1088.3,182.6,1085.8,185.4z M1082.5,189.1c-1.1,1.4-2.8,1.8-5.6,1.2
			c-5.8-1.4-7-9.5-5.4-15.2c1.6-5.5,6.5-4.7,8-0.8l-6.3,6.3c0.2,0.6,0.5,4.6,3.7,5.5c2.3,0.8,4.2-1.6,4.9-4.4c0.3-1.8,0.5-4,0-6.5
			c-0.3-3-2.1-5.1-4.4-6.1c11-7.7,18.5-14.2,26.1-26.1c3.2,0.6,5.2,1.4,7.9,3.6c-7.3,8.5-22.4,24.5-27.4,24.5
			c0,1.2,0.5,11.3-0.2,14.8C1083.6,187.1,1083.2,188.3,1082.5,189.1z M1080.1,176.9c0.2,2.2,0,4.9-1.2,6.3c-1.2,1.8-2.8,0-3.3-1.8
			L1080.1,176.9z"/>
		<path d="M1112.8,184.2c0,0-1.2-4.1-3.3-7.1s-6.1-4.7-6.1-4.7s2.6,3.2,3.7,7.7c1.2,4.5,1.4,6.5,1.4,6.5l-2.4-1.4l-1.9,4
			c0,0,0.9-5.3-1.2-10.1c-1.9-4.7-3.3-6.1-3.3-6.1c0.5-8.5-3.2-13-10.7-13.6l5.6-5.7c6.6-0.2,10.5,7.9,9.8,14.8
			c5.1,3.2,9.8,7.7,14,12.1l-3.8,0.8L1112.8,184.2z"/>
	</g>
	<rect x="1054.2" y="197.7" class="st2" width="92.4" height="17.8"/>
	<text transform="matrix(1.0255 0 0 1 1054.2158 211.2666)" class="st3 st16">$832.938</text>
</g>
<g>
	<g>
		<path d="M1449.9,275.4c-0.5,0.6-1.2,1.4-2.1,2.4c-3.8-3.6-7.5-4.2-10.3-4.5c-8,13-17,20.6-28.8,28.7c-0.3,0-0.7,0.2-1.1,0.4
			c-2.1,1.4-3,3.8-3.5,6.7c-1.2,6.7,0.9,14.8,7.2,16.2c3.7,0.8,6.1,0.2,7.7-1.8c1.2-1.4,6.5-7.5,13.3-14.6
			c7.7-7.9,17-15.4,20.8-18.6c3.5-3,2.8-7.7,0.3-11.3c-0.9-1.4-2.1-2.6-3.3-3.4L1449.9,275.4z M1420.7,318.1
			c0.5-3.6,0.3-10.3,0.2-12.5c0.9-0.4,2.6-1.6,5.8-4c8.9-6.7,16.1-14.6,23.4-23.3c2.6,2.4,4.9,7.3,1.8,10.1
			c-3.7,3-13.5,10.9-21,18.6C1426.8,311.3,1423.1,315.3,1420.7,318.1z M1417.4,321.8c-1.1,1.4-2.8,1.8-5.6,1.2
			c-5.8-1.4-7-9.5-5.4-15.2c1.6-5.5,6.5-4.7,8-0.8l-6.3,6.3c0.2,0.6,0.5,4.5,3.7,5.5c2.3,0.8,4.2-1.6,4.9-4.3c0.3-1.8,0.5-4,0-6.5
			c-0.3-3-2.1-5.1-4.4-6.1c11-7.7,18.5-14.2,26.1-26.1c3.2,0.6,5.2,1.4,7.9,3.6c-7.3,8.5-22.4,24.5-27.4,24.5
			c0,1.2,0.5,11.3-0.2,14.8C1418.4,319.8,1418.1,321,1417.4,321.8z M1414.9,309.6c0.2,2.2,0,4.9-1.2,6.3c-1.2,1.8-2.8,0-3.3-1.8
			L1414.9,309.6z"/>
		<path d="M1447.6,316.9c0,0-1.2-4.2-3.3-7.1s-6.1-4.7-6.1-4.7s2.6,3.2,3.7,7.7c1.2,4.5,1.4,6.5,1.4,6.5l-2.4-1.4l-1.9,4
			c0,0,0.9-5.3-1.2-10.1c-1.9-4.7-3.3-6.1-3.3-6.1c0.5-8.5-3.2-13-10.7-13.6l5.6-5.7c6.6-0.2,10.5,7.9,9.8,14.8
			c5.1,3.2,9.8,7.7,14,12.1l-3.8,0.8L1447.6,316.9z"/>
	</g>
	<rect x="1382.5" y="333.4" class="st2" width="109" height="19.1"/>
	<text transform="matrix(1.0255 0 0 1 1382.5908 346.9736)" class="st3 st16">$1.054.179</text>
</g>
<g>
	<rect x="402" y="201.6" class="st2" width="99.6" height="21.9"/>
	<text transform="matrix(1.0255 0 0 1 402.0283 215.1309)" class="st3 st16">$332.371</text>
	<path class="st17" d="M459.5,182.3c-0.6-0.4-1.3-0.6-2.1-0.5c-0.4,0-0.8,0.2-1.1,0.4l3.6,1.9c-1.1,1.6-2,3.3-2.9,5.1
		c-0.6,1.2-1.1,2.6-1.5,4c-0.3,1.1-0.5,2.3-0.4,3.5c1.7-0.5,3.5-2.9,4.7-5.8c0.8-1.8,1.2-3.9,1.2-6.1
		C460.8,183.7,460.3,182.8,459.5,182.3z"/>
	<path class="st17" d="M435.3,159.1v7.4l19.9,9.1l0,0c1.5,0,3-0.1,4.5-0.3c3.9-0.7,6.4-2.1,6.4-3.6v-12.2l-12.2,5.3L435.3,159.1z"/>
	<polygon class="st17" points="449.4,143.8 423.1,153 435.3,156.7 453.8,162.3 466.1,157 479.7,151.1 	"/>
	<path class="st17" d="M453.4,194c0-0.2,0-0.3,0.1-0.5s0.1-0.4,0.1-0.6v-0.1c0.5-1.7,1-3.3,1.8-4.8c0.4-1,0.9-1.9,1.5-2.8v-0.1
		l-2.4-1.2c-0.6,0.8-1,1.6-1.4,2.6c-0.5,1.2-1,2.4-1.3,3.7l-28.1-16l-0.2,1c-0.2,1.5-0.2,3,0.6,3.5l29.6,18
		C453.3,196,453.2,195.2,453.4,194z"/>
	<path class="st17" d="M451.4,185.3c1.7-4.1,4.6-6.5,6.9-5.7h-0.1l-30.9-14.1c-1.2-0.6-2.8,1-3.7,3.8c-0.2,0.6-0.4,1.3-0.5,1.9
		l27.8,15.8C451,186.3,451.2,185.8,451.4,185.3z"/>
</g>
</svg>
