<?xml version="1.0" encoding="utf-8"?>
<!-- Generator: Adobe Illustrator 24.2.3, SVG Export Plug-In . SVG Version: 6.00 Build 0)  -->
<svg version="1.1" id="Capa_1" xmlns="http://www.w3.org/2000/svg" xmlns:xlink="http://www.w3.org/1999/xlink" x="0px" y="0px"
	 viewBox="0 0 1500.4 410.1" style="enable-background:new 0 0 1500.4 410.1;" xml:space="preserve">
<style type="text/css">
	.st0{fill:#DCF4F3;stroke:#416190;stroke-width:5;stroke-miterlimit:5.83;}
	.st1{fill:none;stroke:#000000;stroke-width:3.0401;stroke-miterlimit:10;}
	.st2{fill:none;}
	.st3{font-family:'Optima-Bold';}
	.st4{font-size:16px;}
	.st5{letter-spacing:27.6;}
	.st6{letter-spacing:9.2;}
	.st7{fill:#FF0000;}
	.st8{font-size:21px;}
	.st9{font-family:'Verdana-Bold';}
	.st10{font-family:'Optima-Regular';}
	.st11{font-size:12.243px;}
	.st12{fill:#FCEE21;}
	.st13{font-size:16.6514px;}
	.st14{fill:#FF0000;stroke:#FF0000;stroke-width:1.3664;stroke-miterlimit:10;}
	.st15{font-size:18.9273px;}
	.st16{fill:#FF0000;stroke:#FF0000;stroke-width:1.3343;stroke-miterlimit:10;}
	.st17{font-size:18px;}
	.st18{fill:#FF0000;stroke:#FF0000;stroke-width:0.2169;stroke-miterlimit:10;}
	.st19{fill:#FF0000;stroke:#FF0000;stroke-width:0.1414;stroke-miterlimit:10;}
	.st20{fill-rule:evenodd;clip-rule:evenodd;}
</style>
<rect x="2.5" y="2.5" class="st0" width="1495.5" height="405.2"/>
<rect x="99.8" y="231.4" class="st1" width="1385.4" height="21.3"/>
<rect x="113.7" y="235.8" class="st2" width="1371.8" height="36.8"/>
<text transform="matrix(0.9794 0 0 1 113.6831 247.8698)" class="st3 st4">$100.000</text>
<text transform="matrix(0.9794 0 0 1 179.0278 247.8698)" class="st3 st4 st5"> </text>
<text transform="matrix(0.9794 0 0 1 211.5347 247.8698)" class="st3 st4 st5"> </text>
<text transform="matrix(0.9794 0 0 1 244.1489 247.8698)" class="st3 st4">$200.000</text>
<text transform="matrix(0.9794 0 0 1 309.4932 247.8698)" class="st3 st4 st5"> </text>
<text transform="matrix(0.9794 0 0 1 342 247.8698)" class="st3 st4 st5"> </text>
<text transform="matrix(0.9794 0 0 1 374.6143 247.8698)" class="st3 st4">$300.000</text>
<text transform="matrix(0.9794 0 0 1 439.96 247.8698)" class="st3 st4 st5"> </text>
<text transform="matrix(0.9794 0 0 1 472.4658 247.8698)" class="st3 st4 st5"> </text>
<text transform="matrix(0.9794 0 0 1 505.0801 247.8698)" class="st3 st4">$400.000</text>
<text transform="matrix(0.9794 0 0 1 570.4258 247.8698)" class="st3 st4 st5"> </text>
<text transform="matrix(0.9794 0 0 1 602.9316 247.8698)" class="st3 st4 st5"> </text>
<text transform="matrix(0.9794 0 0 1 635.5557 247.8698)" class="st3 st4">$500.000</text>
<text transform="matrix(0.9794 0 0 1 700.9014 247.8698)" class="st3 st4 st5"> </text>
<text transform="matrix(0.9794 0 0 1 733.3975 247.8698)" class="st3 st4 st5"> </text>
<text transform="matrix(0.9794 0 0 1 766.0215 247.8698)" class="st3 st4">$600.000</text>
<text transform="matrix(0.9794 0 0 1 831.3672 247.8698)" class="st3 st4 st5"> </text>
<text transform="matrix(0.9794 0 0 1 863.873 247.8698)" class="st3 st4 st5"> </text>
<text transform="matrix(0.9794 0 0 1 896.4873 247.8698)" class="st3 st4">$700.000</text>
<text transform="matrix(0.9794 0 0 1 961.833 247.8698)" class="st3 st4 st5"> </text>
<text transform="matrix(0.9794 0 0 1 994.3389 247.8698)" class="st3 st4 st5"> </text>
<text transform="matrix(0.9794 0 0 1 1026.9531 247.8698)" class="st3 st4">$800.000</text>
<text transform="matrix(0.9794 0 0 1 1092.2988 247.8698)" class="st3 st4 st5"> </text>
<text transform="matrix(0.9794 0 0 1 1124.8047 247.8698)" class="st3 st4 st5"> </text>
<text transform="matrix(0.9794 0 0 1 1157.4189 247.8698)" class="st3 st4">$900.000</text>
<text transform="matrix(0.9794 0 0 1 1222.7646 247.8698)" class="st3 st4 st5"> </text>
<text transform="matrix(0.9794 0 0 1 1255.2705 247.8698)" class="st3 st4 st5"> </text>
<text transform="matrix(0.9794 0 0 1 1287.8848 247.8698)" class="st3 st4">$1.000.000 </text>
<text transform="matrix(0.9794 0 0 1 1370.6543 247.8698)" class="st3 st4 st6"> </text>
<text transform="matrix(0.9794 0 0 1 1385.7363 247.8698)" class="st3 st4 st5"> </text>
<text transform="matrix(0.9794 0 0 1 1418.3506 247.8698)" class="st3 st4">   +++</text>
<path class="st7" d="M597.5,152.5h-3.7c-0.6-2.3-1.4-4.2-2.8-6.1l3.2-3.1c0.2-0.2,0.4-0.6,0.4-0.8c0-0.4-0.2-0.6-0.4-0.8l-4.1-4
	c-0.4-0.4-1.2-0.4-1.8,0l-3.2,3.1c-1.8-1.2-3.7-1.9-5.7-2.5v-4c0-0.6-0.6-1.2-1.2-1.2h-5.9c-0.6,0-1.2,0.6-1.2,1.2v3.9
	c-2.2,0.4-4.1,1.3-5.9,2.3l-3.4-3.3c-0.4-0.4-1.2-0.4-1.8,0l-4.1,4c-0.2,0.2-0.4,0.6-0.4,0.8s0.2,0.6,0.4,0.8l3.4,3.3
	c-1.2,1.9-2.2,4-2.8,6.4h-3.8c-0.6,0-1.2,0.6-1.2,1.2v5.8c0,0.6,0.6,1.2,1.2,1.2h3.7c0.3,2,1.3,3.7,2.1,5.4l3-3.6
	c-0.8-1.8-1.3-3.8-1.3-5.9c0-8,6.6-14.5,14.8-14.5s14.8,6.5,14.8,14.5s-6.6,14.5-14.8,14.5c-1.4,0-2.9-0.2-4.2-0.6l-2.9,3.4
	c0.9,0.3,1.9,0.6,2.9,0.8v3.3c0,0.6,0.6,1.2,1.2,1.2h5.9c0.6,0,1.2-0.6,1.2-1.2v-3.8c2.3-0.6,4.3-1.3,6.3-2.7l2.6,2.5
	c0.2,0.2,0.6,0.4,0.8,0.4s0.6-0.2,0.8-0.4l4.1-4c0.2-0.2,0.4-0.6,0.4-0.8c0-0.4-0.2-0.6-0.4-0.8l-2.6-2.5c1.2-1.7,2-3.6,2.3-5.8h3.7
	c0.6,0,1.2-0.6,1.2-1.2v-5.7C598.7,153.1,598.3,152.5,597.5,152.5z"/>
<path class="st7" d="M586.9,155.1c-0.2-1.8-0.8-3.6-2-5.2l-7.2,8.3l-4.7-3.8l7.2-8.2c-1.7-0.7-3.4-1-5.2-0.8
	c-6,0.5-10.5,5.7-10,11.6c0.1,1.2,0.4,2.4,0.9,3.5l0.1,0.1l-17.4,20.1c-0.7,0.8-1.1,2-1,3.1s0.6,2.1,1.5,2.8s2,1.1,3.2,1
	c1.1-0.1,2.2-0.6,2.9-1.5l17.2-19.8l0.2,0.1c1.4,0.5,2.9,0.6,4.4,0.5C582.9,166.2,587.4,161,586.9,155.1z M552.1,184.5
	c-0.9,0.1-1.5-0.6-1.6-1.3c-0.1-0.8,0.6-1.5,1.4-1.6c0.9-0.1,1.5,0.6,1.6,1.3C553.5,183.7,552.9,184.4,552.1,184.5z"/>
<rect x="797.7" y="375.6" class="st2" width="92" height="32.3"/>
<text transform="matrix(0.9794 0 0 1 797.7002 391.4362)" class="st3 st8">$618.019</text>
<rect x="590.8" y="18.3" class="st2" width="439.9" height="108.7"/>
<text transform="matrix(1 0 0 1 742.4965 36.0794)" class="st9 st8"> LOS RIOS XlV</text>
<text transform="matrix(1 0 0 1 593.5853 84.4793)" class="st9 st8">Población: </text>
<text transform="matrix(1 0 0 1 717.3157 84.4793)" class="st10 st8">384.837 </text>
<text transform="matrix(1 0 0 1 801.0463 84.4793)" class="st9 st8">Superficie:</text>
<text transform="matrix(1 0 0 1 927.6952 84.4793)" class="st10 st8"> 18.429,5 km</text>
<text transform="matrix(1 0 0 1 1009.0935 77.4868)" class="st10 st11">2</text>
<rect x="835.9" y="123" class="st12" width="4.5" height="244"/>
<rect x="17.2" y="175.5" class="st2" width="105.4" height="23.7"/>
<text transform="matrix(0.9794 0 0 1 17.1333 187.441)" class="st9 st13">MUJERES</text>
<rect x="17.2" y="296.9" class="st2" width="96.2" height="26"/>
<text transform="matrix(0.9794 0 0 1 17.1333 308.8854)" class="st9 st13">HOMBRES</text>
<rect x="216.2" y="59.7" class="st2" width="80.5" height="23.3"/>
<g>
	<g>
		<path class="st14" d="M416.7,293.1h-13.8c-1.7,0-3.2,1.7-3.2,3.8v16.6c0,2.1,1.4,3.8,3.2,3.8h13.8c1.7,0,3.2-1.7,3.2-3.8v-16.6
			C419.9,294.8,418.4,293.1,416.7,293.1z M418.8,313.6c0,1.4-0.9,2.5-2,2.5H403c-1.1,0-2-1.1-2-2.5V297c0-1.4,0.9-2.5,2-2.5h13.8
			c1.1,0,2,1.1,2,2.5V313.6L418.8,313.6z"/>
		<path class="st14" d="M412.1,304.1c1-0.5,1.5-1.2,1.5-2.6c0-1.8-1-3.2-3.6-3.2h-3.9v12.2h4.4c2.6,0,3.7-1.6,3.7-3.4
			C414.2,305.5,413.4,304.5,412.1,304.1z M407.8,300.2h2.2c1.1,0,1.8,0.3,1.8,1.6c0,1-0.6,1.5-1.8,1.5h-2.2V300.2L407.8,300.2z
			 M410.5,308.6h-2.7v-3.4h2.5c1.4,0,2.2,0.5,2.2,1.6C412.4,308.2,411.7,308.6,410.5,308.6z"/>
		<path class="st14" d="M428.4,291.3c1.7,0,3.2-1.7,3.2-3.8v-16.6c0-2.1-1.4-3.8-3.2-3.8h-13.8c-1.7,0-3.2,1.7-3.2,3.8v16.6
			c0,2.1,1.4,3.8,3.2,3.8H428.4L428.4,291.3z M412.5,287.5v-16.6c0-1.4,0.9-2.5,2-2.5h13.8c1.1,0,2,1.1,2,2.5v16.6
			c0,1.4-0.9,2.5-2,2.5h-13.8C413.4,289.9,412.5,288.8,412.5,287.5z"/>
		<path class="st14" d="M418.9,281.6h5.1l1,2.8h1.8l-4.5-12.2h-1.8l-4.5,12.2h1.8L418.9,281.6z M421.5,274.7l1.8,5h-3.7L421.5,274.7
			z"/>
		<path class="st14" d="M440.1,293.1h-13.8c-1.7,0-3.2,1.7-3.2,3.8v16.6c0,2.1,1.4,3.8,3.2,3.8h13.8c1.7,0,3.2-1.7,3.2-3.8v-16.6
			C443.3,294.8,441.8,293.1,440.1,293.1z M442.2,313.6c0,1.4-0.9,2.5-2,2.5h-13.8c-1.1,0-2-1.1-2-2.5V297c0-1.4,0.9-2.5,2-2.5h13.8
			c1.1,0,2,1.1,2,2.5V313.6L442.2,313.6z"/>
		<path class="st14" d="M434,300c1.2,0,2,0.5,2.9,1.5l1.1-1.4c-1-1.4-2.4-2.1-3.9-2.1c-3.2,0-5.4,2.7-5.4,6.3c0,3.7,2.3,6.3,5.3,6.3
			c1.5,0,2.8-0.7,3.9-2.1l-1.1-1.4c-1,1.2-1.8,1.5-2.8,1.5c-1.8,0-3.5-1.8-3.5-4.3C430.4,301.7,432,300,434,300z"/>
	</g>
	<rect x="382.4" y="324.9" class="st2" width="84.1" height="25.4"/>
	<text transform="matrix(0.9484 0 0 1 382.3564 339.1344)" class="st3 st15">$315.083</text>
</g>
<g>
	<g>
		<path class="st16" d="M247.6,168.7h-13.8c-1.7,0-3.2,1.6-3.2,3.6v15.8c0,2,1.4,3.6,3.2,3.6h13.8c1.7,0,3.2-1.6,3.2-3.6v-15.8
			C250.8,170.3,249.3,168.7,247.6,168.7z M249.7,188.1c0,1.3-0.9,2.3-2.1,2.3h-13.8c-1.1,0-2.1-1.1-2.1-2.3v-15.8
			c0-1.3,0.9-2.4,2.1-2.4h13.8c1.1,0,2.1,1.1,2.1,2.4V188.1L249.7,188.1z"/>
		<path class="st16" d="M243,179.2c1-0.5,1.5-1.1,1.5-2.5c0-1.7-1-3.1-3.6-3.1h-4v11.6h4.4c2.6,0,3.7-1.5,3.7-3.2
			C245.1,180.5,244.2,179.5,243,179.2z M238.7,175.4h2.2c1.1,0,1.8,0.3,1.8,1.6c0,1-0.6,1.4-1.9,1.4h-2.2L238.7,175.4L238.7,175.4z
			 M241.4,183.4h-2.7v-3.2h2.5c1.4,0,2.2,0.5,2.2,1.5C243.3,183.1,242.5,183.4,241.4,183.4z"/>
		<path class="st16" d="M259.3,166.9c1.7,0,3.2-1.6,3.2-3.6v-15.8c0-2-1.4-3.6-3.2-3.6h-13.8c-1.7,0-3.2,1.6-3.2,3.6v15.8
			c0,2,1.4,3.6,3.2,3.6H259.3L259.3,166.9z M243.4,163.3v-15.8c0-1.3,0.9-2.4,2.1-2.4h13.8c1.1,0,2.1,1.1,2.1,2.4v15.8
			c0,1.3-0.9,2.4-2.1,2.4h-13.8C244.3,165.7,243.4,164.6,243.4,163.3z"/>
		<path class="st16" d="M249.8,157.7h5.1l1,2.6h1.8l-4.5-11.6h-1.7l-4.5,11.6h1.8L249.8,157.7z M252.4,151.2l1.8,4.8h-3.7
			L252.4,151.2z"/>
		<path class="st16" d="M271.1,168.7h-13.8c-1.7,0-3.2,1.6-3.2,3.6v15.8c0,2,1.4,3.6,3.2,3.6h13.8c1.7,0,3.2-1.6,3.2-3.6v-15.8
			C274.2,170.3,272.8,168.7,271.1,168.7z M273.1,188.1c0,1.3-0.9,2.3-2.1,2.3h-13.8c-1.1,0-2.1-1.1-2.1-2.3v-15.8
			c0-1.3,0.9-2.4,2.1-2.4H271c1.1,0,2.1,1.1,2.1,2.4V188.1L273.1,188.1z"/>
		<path class="st16" d="M265,175.3c1.2,0,2,0.4,2.9,1.4l1.1-1.4c-1-1.3-2.4-2-3.9-2c-3.2,0-5.5,2.6-5.5,6c0,3.5,2.3,6,5.3,6
			c1.5,0,2.8-0.7,3.9-2l-1.1-1.3c-1,1.1-1.8,1.4-2.9,1.4c-1.8,0-3.5-1.7-3.5-4.1C261.3,176.9,263,175.3,265,175.3z"/>
	</g>
	<rect x="207.6" y="198.3" class="st2" width="93.1" height="18.8"/>
	<text transform="matrix(1.0255 0 0 1 207.604 211.8805)" class="st3 st17">$190.396</text>
</g>
<g>
	<path class="st18" d="M511.7,304.2c-0.6-0.4-1.3-0.6-2.1-0.5c-0.4,0-0.8,0.2-1.1,0.4l3.6,1.8c-1.1,1.6-2,3.3-2.9,5.1
		c-0.6,1.2-1.1,2.6-1.5,4c-0.3,1.1-0.5,2.3-0.4,3.5c1.7-0.5,3.5-2.9,4.7-5.8c0.8-1.8,1.2-3.9,1.2-6.1
		C513.1,305.6,512.5,304.7,511.7,304.2z"/>
	<path class="st18" d="M487.5,281.1v7.4l19.9,9.1l0,0c1.5,0,3-0.1,4.5-0.3c3.9-0.7,6.4-2.1,6.4-3.6v-12.2l-12.2,5.3L487.5,281.1z"/>
	<polygon class="st18" points="501.6,265.7 475.3,274.9 487.5,278.6 506.1,284.3 518.4,278.9 531.9,273.1 	"/>
	<path class="st18" d="M505.6,315.9c0-0.2,0-0.3,0.1-0.5s0.1-0.4,0.1-0.6v-0.1c0.5-1.7,1-3.3,1.8-4.8c0.4-1,0.9-1.9,1.5-2.8V307
		l-2.4-1.2c-0.6,0.8-1,1.6-1.4,2.6c-0.5,1.2-1,2.4-1.3,3.7l-28.1-16l-0.2,1c-0.2,1.5-0.2,3,0.6,3.5l29.6,18
		C505.5,318,505.4,317.1,505.6,315.9z"/>
	<path class="st18" d="M503.7,307.2c1.7-4.1,4.6-6.5,6.9-5.7h-0.1l-31-14.2c-1.2-0.6-2.8,1-3.7,3.8c-0.2,0.6-0.4,1.3-0.5,1.9
		l27.8,15.8C503.3,308.3,503.5,307.7,503.7,307.2z"/>
	<rect x="464.7" y="325" class="st2" width="100" height="21"/>
	<text transform="matrix(1.0255 0 0 1 464.6943 338.5446)" class="st3 st17">$384.355</text>
</g>
<rect x="523" y="197.5" class="st2" width="103.7" height="22.3"/>
<text transform="matrix(1.0255 0 0 1 522.9814 211.0983)" class="st3 st17">$427.656</text>
<g>
	<path class="st19" d="M688.5,281.3h-3.7c-0.6-2.3-1.4-4.2-2.8-6.2l3.2-3.1c0.2-0.2,0.4-0.6,0.4-0.8c0-0.4-0.2-0.6-0.4-0.8l-4.1-4
		c-0.4-0.4-1.2-0.4-1.8,0l-3.2,3.1c-1.8-1.2-3.7-1.9-5.7-2.5v-4c0-0.6-0.6-1.2-1.2-1.2h-5.9c-0.6,0-1.2,0.6-1.2,1.2v3.9
		c-2.2,0.4-4.1,1.3-5.9,2.3l-3.4-3.3c-0.4-0.4-1.2-0.4-1.8,0l-4.1,4c-0.2,0.2-0.4,0.6-0.4,0.8c0,0.2,0.2,0.6,0.4,0.8l3.4,3.3
		c-1.2,1.9-2.2,4-2.8,6.4h-3.8c-0.6,0-1.2,0.6-1.2,1.2v5.8c0,0.6,0.6,1.2,1.2,1.2h3.7c0.3,2,1.3,3.7,2.1,5.4l3-3.6
		c-0.8-1.8-1.3-3.8-1.3-5.9c0-8,6.6-14.5,14.8-14.5s14.8,6.5,14.8,14.5s-6.6,14.5-14.8,14.5c-1.4,0-2.9-0.2-4.2-0.6l-2.9,3.3
		c0.9,0.3,1.9,0.6,2.9,0.8v3.3c0,0.6,0.6,1.2,1.2,1.2h5.9c0.6,0,1.2-0.6,1.2-1.2v-3.5c2.3-0.6,4.3-1.3,6.3-2.7l2.6,2.5
		c0.2,0.2,0.6,0.4,0.8,0.4s0.6-0.2,0.8-0.4l4.1-4c0.2-0.2,0.4-0.6,0.4-0.8c0-0.4-0.2-0.6-0.4-0.8l-2.6-2.5c1.2-1.7,2-3.6,2.3-5.8
		h3.7c0.6,0,1.2-0.6,1.2-1.2V282C689.7,281.9,689.3,281.3,688.5,281.3z"/>
	<path class="st19" d="M677.8,283.9c-0.2-1.8-0.8-3.6-2-5.2l-7.2,8.3l-4.7-3.8l7.2-8.2c-1.7-0.7-3.4-1-5.2-0.8
		c-6,0.5-10.5,5.7-10,11.6c0.1,1.2,0.4,2.3,0.9,3.5l0.1,0.1l-17.4,19.9c-0.7,0.8-1.1,2-1,3.1s0.6,2.1,1.5,2.8s2,1.1,3.2,1
		c1.1-0.1,2.2-0.6,2.9-1.5l17.2-19.8l0.2,0.1c1.4,0.5,2.9,0.6,4.4,0.5C673.8,295,678.3,289.8,677.8,283.9z M643,313.3
		c-0.9,0.1-1.5-0.6-1.6-1.3c-0.1-0.8,0.6-1.5,1.4-1.6c0.9-0.1,1.5,0.6,1.6,1.3C644.5,312.5,643.9,313.3,643,313.3z"/>
	<rect x="621.7" y="325.4" class="st2" width="86.8" height="19.6"/>
	<text transform="matrix(1.0255 0 0 1 621.6943 338.9313)" class="st3 st17">$494.464</text>
</g>
<g>
	<g>
		<path d="M1107.2,139.1c-0.5,0.6-1.2,1.4-2.1,2.4c-3.8-3.6-7.5-4.1-10.3-4.5c-8,13-17,20.6-28.8,28.7c-0.3,0-0.7,0.2-1.1,0.4
			c-2.1,1.4-3,3.8-3.5,6.7c-1.2,6.7,0.9,14.8,7.2,16.2c3.7,0.8,6.1,0.2,7.7-1.8c1.2-1.4,6.5-7.5,13.3-14.6
			c7.7-7.9,17-15.4,20.8-18.6c3.5-3,2.8-7.7,0.3-11.3c-0.9-1.4-2.1-2.6-3.3-3.4L1107.2,139.1z M1078,181.8
			c0.5-3.6,0.3-10.3,0.2-12.5c0.9-0.4,2.6-1.6,5.8-4c8.9-6.7,16.1-14.6,23.4-23.3c2.6,2.4,4.9,7.3,1.8,10.1
			c-3.7,3-13.5,10.9-21,18.6C1084.1,175,1080.5,179,1078,181.8z M1074.7,185.5c-1.1,1.4-2.8,1.8-5.6,1.2c-5.8-1.4-7-9.5-5.4-15.2
			c1.6-5.5,6.5-4.7,8-0.8l-6.3,6.3c0.2,0.6,0.5,4.6,3.7,5.5c2.3,0.8,4.2-1.6,4.9-4.4c0.3-1.8,0.5-4,0-6.5c-0.3-3-2.1-5.1-4.4-6.1
			c11-7.7,18.5-14.2,26.1-26.1c3.2,0.6,5.2,1.4,7.9,3.6c-7.3,8.5-22.4,24.5-27.4,24.5c0,1.2,0.5,11.3-0.2,14.8
			C1075.7,183.5,1075.4,184.7,1074.7,185.5z M1072.2,173.3c0.2,2.2,0,4.9-1.2,6.3c-1.2,1.8-2.8,0-3.3-1.8L1072.2,173.3z"/>
		<path class="st20" d="M1104.9,180.6c0,0-1.2-4.1-3.3-7.1s-6.1-4.7-6.1-4.7s2.6,3.2,3.7,7.7c1.2,4.5,1.4,6.5,1.4,6.5l-2.4-1.4
			l-1.9,4c0,0,0.9-5.3-1.2-10.1c-1.9-4.7-3.3-6.1-3.3-6.1c0.5-8.5-3.2-13-10.7-13.6l5.6-5.7c6.6-0.2,10.5,7.9,9.8,14.8
			c5.1,3.2,9.8,7.7,14,12.1l-3.8,0.8L1104.9,180.6z"/>
	</g>
	<rect x="1046.3" y="194.1" class="st2" width="92.4" height="17.8"/>
	<text transform="matrix(1.0255 0 0 1 1046.3193 207.6989)" class="st3 st17">$825.282</text>
</g>
<g>
	<g>
		<path d="M1269,271.8c-0.5,0.6-1.2,1.4-2.1,2.4c-3.8-3.6-7.5-4.2-10.3-4.5c-8,13-17,20.6-28.8,28.7c-0.3,0-0.7,0.2-1.1,0.4
			c-2.1,1.4-3,3.8-3.5,6.7c-1.2,6.7,0.9,14.8,7.2,16.2c3.7,0.8,6.1,0.2,7.7-1.8c1.2-1.4,6.5-7.5,13.3-14.6
			c7.7-7.9,17-15.4,20.8-18.6c3.5-3,2.8-7.7,0.3-11.3c-0.9-1.4-2.1-2.6-3.3-3.4L1269,271.8z M1239.8,314.5
			c0.5-3.6,0.3-10.3,0.2-12.5c0.9-0.4,2.6-1.6,5.8-4c8.9-6.7,16.1-14.6,23.4-23.3c2.6,2.4,4.9,7.3,1.8,10.1
			c-3.7,3-13.5,10.9-21,18.6C1246,307.7,1242.3,311.7,1239.8,314.5z M1236.5,318.2c-1.1,1.4-2.8,1.8-5.6,1.2
			c-5.8-1.4-7-9.5-5.4-15.2c1.6-5.5,6.5-4.7,8-0.8l-6.3,6.3c0.2,0.6,0.5,4.5,3.7,5.5c2.3,0.8,4.2-1.6,4.9-4.3c0.3-1.8,0.5-4,0-6.5
			c-0.3-3-2.1-5.1-4.4-6.1c11-7.7,18.5-14.2,26.1-26.1c3.2,0.6,5.2,1.4,7.9,3.6c-7.3,8.5-22.4,24.5-27.4,24.5
			c0,1.2,0.5,11.3-0.2,14.8C1237.6,316.2,1237.2,317.4,1236.5,318.2z M1234.1,306c0.2,2.2,0,4.9-1.2,6.3c-1.2,1.8-2.8,0-3.3-1.8
			L1234.1,306z"/>
		<path class="st20" d="M1266.8,313.3c0,0-1.2-4.2-3.3-7.1s-6.1-4.7-6.1-4.7s2.6,3.2,3.7,7.7c1.2,4.5,1.4,6.5,1.4,6.5l-2.4-1.4
			l-1.9,4c0,0,0.9-5.3-1.2-10.1c-1.9-4.7-3.3-6.1-3.3-6.1c0.5-8.5-3.2-13-10.7-13.6l5.6-5.7c6.6-0.2,10.5,7.9,9.8,14.8
			c5.1,3.2,9.8,7.7,14,12.1l-3.8,0.8L1266.8,313.3z"/>
	</g>
	<rect x="1201.7" y="329.8" class="st2" width="109" height="19.1"/>
	<text transform="matrix(1.0255 0 0 1 1201.6943 343.4059)" class="st3 st17">$950.749</text>
</g>
<g>
	<rect x="320.2" y="198" class="st2" width="99.6" height="21.9"/>
	<text transform="matrix(1.0255 0 0 1 320.1318 211.5631)" class="st3 st17">$281.025</text>
	<path class="st18" d="M377.7,178.7c-0.6-0.4-1.3-0.6-2.1-0.5c-0.4,0-0.8,0.2-1.1,0.4l3.6,1.9c-1.1,1.6-2,3.3-2.9,5.1
		c-0.6,1.2-1.1,2.6-1.5,4c-0.3,1.1-0.5,2.3-0.4,3.5c1.7-0.5,3.5-2.9,4.7-5.8c0.8-1.8,1.2-3.9,1.2-6.1
		C379,180.1,378.4,179.2,377.7,178.7z"/>
	<path class="st18" d="M353.5,155.5v7.4l19.9,9.1l0,0c1.5,0,3-0.1,4.5-0.3c3.9-0.7,6.4-2.1,6.4-3.6v-12.2l-12.2,5.3L353.5,155.5z"/>
	<polygon class="st18" points="367.6,140.2 341.2,149.4 353.5,153.1 372,158.7 384.3,153.4 397.8,147.5 	"/>
	<path class="st18" d="M371.5,190.4c0-0.2,0-0.3,0.1-0.5s0.1-0.4,0.1-0.6v-0.1c0.5-1.7,1-3.3,1.8-4.8c0.4-1,0.9-1.9,1.5-2.8v-0.1
		l-2.4-1.2c-0.6,0.8-1,1.6-1.4,2.6c-0.5,1.2-1,2.4-1.3,3.7l-28.1-16l-0.2,1c-0.2,1.5-0.2,3,0.6,3.5l29.6,18
		C371.5,192.4,371.4,191.6,371.5,190.4z"/>
	<path class="st18" d="M369.6,181.7c1.7-4.1,4.6-6.5,6.9-5.7h-0.1l-30.9-14.2c-1.2-0.6-2.8,1-3.7,3.8c-0.2,0.6-0.4,1.3-0.5,1.9
		l27.8,15.8C369.2,182.7,369.4,182.2,369.6,181.7z"/>
</g>
</svg>
