<?xml version="1.0" encoding="utf-8"?>
<!-- Generator: Adobe Illustrator 24.2.3, SVG Export Plug-In . SVG Version: 6.00 Build 0)  -->
<svg version="1.1" id="Capa_1" xmlns="http://www.w3.org/2000/svg" xmlns:xlink="http://www.w3.org/1999/xlink" x="0px" y="0px"
	 viewBox="0 0 1491.2 405.7" style="enable-background:new 0 0 1491.2 405.7;" xml:space="preserve">
<style type="text/css">
	.st0{fill:#DCF4F3;fill-opacity:0.8;stroke:#416190;stroke-width:5;stroke-miterlimit:5.83;}
	.st1{fill:none;stroke:#000000;stroke-width:3.0401;stroke-miterlimit:10;}
	.st2{fill:none;}
	.st3{font-family:'Optima-Bold';}
	.st4{font-size:16px;}
	.st5{letter-spacing:27.6;}
	.st6{letter-spacing:9.2;}
	.st7{fill:#FF0000;}
	.st8{font-size:21px;}
	.st9{font-family:'Verdana-Bold';}
	.st10{font-family:'Optima-Regular';}
	.st11{font-size:12.243px;}
	.st12{fill:#FCEE21;}
	.st13{font-size:16.6514px;}
	.st14{fill:#FF0000;stroke:#FF0000;stroke-width:1.3664;stroke-miterlimit:10;}
	.st15{font-size:18.9273px;}
	.st16{fill:#FF0000;stroke:#FF0000;stroke-width:1.3343;stroke-miterlimit:10;}
	.st17{font-size:18px;}
	.st18{fill:#FF0000;stroke:#FF0000;stroke-width:0.2169;stroke-miterlimit:10;}
	.st19{fill:#FF0000;stroke:#FF0000;stroke-width:0.1414;stroke-miterlimit:10;}
	.st20{fill-rule:evenodd;clip-rule:evenodd;}
</style>
<rect x="-3" y="0.3" class="st0" width="1495.5" height="405.2"/>
<rect x="94.3" y="229.2" class="st1" width="1385.4" height="21.3"/>
<rect x="108.2" y="233.6" class="st2" width="1371.8" height="36.8"/>
<text transform="matrix(0.9794 0 0 1 108.2017 245.6353)" class="st3 st4">$100.000</text>
<text transform="matrix(0.9794 0 0 1 173.5464 245.6353)" class="st3 st4 st5"> </text>
<text transform="matrix(0.9794 0 0 1 206.0532 245.6353)" class="st3 st4 st5"> </text>
<text transform="matrix(0.9794 0 0 1 238.6675 245.6353)" class="st3 st4">$200.000</text>
<text transform="matrix(0.9794 0 0 1 304.0122 245.6353)" class="st3 st4 st5"> </text>
<text transform="matrix(0.9794 0 0 1 336.519 245.6353)" class="st3 st4 st5"> </text>
<text transform="matrix(0.9794 0 0 1 369.1333 245.6353)" class="st3 st4">$300.000</text>
<text transform="matrix(0.9794 0 0 1 434.479 245.6353)" class="st3 st4 st5"> </text>
<text transform="matrix(0.9794 0 0 1 466.9849 245.6353)" class="st3 st4 st5"> </text>
<text transform="matrix(0.9794 0 0 1 499.5991 245.6353)" class="st3 st4">$400.000</text>
<text transform="matrix(0.9794 0 0 1 564.9448 245.6353)" class="st3 st4 st5"> </text>
<text transform="matrix(0.9794 0 0 1 597.4507 245.6353)" class="st3 st4 st5"> </text>
<text transform="matrix(0.9794 0 0 1 630.0747 245.6353)" class="st3 st4">$500.000</text>
<text transform="matrix(0.9794 0 0 1 695.4204 245.6353)" class="st3 st4 st5"> </text>
<text transform="matrix(0.9794 0 0 1 727.9165 245.6353)" class="st3 st4 st5"> </text>
<text transform="matrix(0.9794 0 0 1 760.5405 245.6353)" class="st3 st4">$600.000</text>
<text transform="matrix(0.9794 0 0 1 825.8862 245.6353)" class="st3 st4 st5"> </text>
<text transform="matrix(0.9794 0 0 1 858.3921 245.6353)" class="st3 st4 st5"> </text>
<text transform="matrix(0.9794 0 0 1 891.0063 245.6353)" class="st3 st4">$700.000</text>
<text transform="matrix(0.9794 0 0 1 956.3521 245.6353)" class="st3 st4 st5"> </text>
<text transform="matrix(0.9794 0 0 1 988.8579 245.6353)" class="st3 st4 st5"> </text>
<text transform="matrix(0.9794 0 0 1 1021.4722 245.6353)" class="st3 st4">$800.000</text>
<text transform="matrix(0.9794 0 0 1 1086.8179 245.6353)" class="st3 st4 st5"> </text>
<text transform="matrix(0.9794 0 0 1 1119.3237 245.6353)" class="st3 st4 st5"> </text>
<text transform="matrix(0.9794 0 0 1 1151.938 245.6353)" class="st3 st4">$900.000</text>
<text transform="matrix(0.9794 0 0 1 1217.2837 245.6353)" class="st3 st4 st5"> </text>
<text transform="matrix(0.9794 0 0 1 1249.7896 245.6353)" class="st3 st4 st5"> </text>
<text transform="matrix(0.9794 0 0 1 1282.4038 245.6353)" class="st3 st4">$1.000.000 </text>
<text transform="matrix(0.9794 0 0 1 1365.1733 245.6353)" class="st3 st4 st6"> </text>
<text transform="matrix(0.9794 0 0 1 1380.2554 245.6353)" class="st3 st4 st5"> </text>
<text transform="matrix(0.9794 0 0 1 1412.8696 245.6353)" class="st3 st4">   +++</text>
<path class="st7" d="M592,150.3h-3.7c-0.6-2.3-1.4-4.2-2.8-6.1l3.2-3.1c0.2-0.2,0.4-0.6,0.4-0.8c0-0.4-0.2-0.6-0.4-0.8l-4.1-4
	c-0.4-0.4-1.2-0.4-1.8,0l-3.2,3.1c-1.8-1.2-3.7-1.9-5.7-2.5v-4c0-0.6-0.6-1.2-1.2-1.2h-5.9c-0.6,0-1.2,0.6-1.2,1.2v3.9
	c-2.2,0.4-4.1,1.3-5.9,2.3l-3.4-3.3c-0.4-0.4-1.2-0.4-1.8,0l-4.1,4c-0.2,0.2-0.4,0.6-0.4,0.8c0,0.2,0.2,0.6,0.4,0.8l3.4,3.3
	c-1.2,1.9-2.2,4-2.8,6.4h-3.8c-0.6,0-1.2,0.6-1.2,1.2v5.8c0,0.6,0.6,1.2,1.2,1.2h3.7c0.3,2,1.3,3.7,2.1,5.4l3-3.6
	c-0.8-1.8-1.3-3.8-1.3-5.9c0-8,6.6-14.5,14.8-14.5s14.8,6.5,14.8,14.5s-6.6,14.5-14.8,14.5c-1.4,0-2.9-0.2-4.2-0.6l-2.9,3.4
	c0.9,0.3,1.9,0.6,2.9,0.8v3.3c0,0.6,0.6,1.2,1.2,1.2h5.9c0.6,0,1.2-0.6,1.2-1.2V172c2.3-0.6,4.3-1.3,6.3-2.7l2.6,2.5
	c0.2,0.2,0.6,0.4,0.8,0.4s0.6-0.2,0.8-0.4l4.1-4c0.2-0.2,0.4-0.6,0.4-0.8c0-0.4-0.2-0.6-0.4-0.8l-2.6-2.5c1.2-1.7,2-3.6,2.3-5.8h3.7
	c0.6,0,1.2-0.6,1.2-1.2V151C593.2,150.9,592.8,150.3,592,150.3z"/>
<path class="st7" d="M581.4,152.9c-0.2-1.8-0.8-3.6-2-5.2l-7.2,8.3l-4.7-3.8l7.2-8.2c-1.7-0.7-3.4-1-5.2-0.8
	c-6,0.5-10.5,5.7-10,11.6c0.1,1.2,0.4,2.4,0.9,3.5l0.1,0.1l-17.4,20.1c-0.7,0.8-1.1,2-1,3.1c0.1,1.1,0.6,2.1,1.5,2.8s2,1.1,3.2,1
	c1.1-0.1,2.2-0.6,2.9-1.5l17.2-19.8l0.2,0.1c1.4,0.5,2.9,0.6,4.4,0.5C577.4,164,581.9,158.8,581.4,152.9z M546.6,182.3
	c-0.9,0.1-1.5-0.6-1.6-1.3c-0.1-0.8,0.6-1.5,1.4-1.6c0.9-0.1,1.5,0.6,1.6,1.3C548,181.5,547.4,182.2,546.6,182.3z"/>
<rect x="792.2" y="373.4" class="st2" width="92" height="32.3"/>
<text transform="matrix(0.9794 0 0 1 792.2192 389.2017)" class="st3 st8">$618.019</text>
<rect x="585.3" y="16.1" class="st2" width="439.9" height="108.7"/>
<text transform="matrix(1 0 0 1 737.0148 33.8451)" class="st9 st8"> LOS RIOS XlV</text>
<text transform="matrix(1 0 0 1 588.1036 82.245)" class="st9 st8">Población: </text>
<text transform="matrix(1 0 0 1 711.834 82.245)" class="st10 st8">384.837 </text>
<text transform="matrix(1 0 0 1 795.5646 82.245)" class="st9 st8">Superficie:</text>
<text transform="matrix(1 0 0 1 922.2135 82.245)" class="st10 st8"> 18.429,5 km</text>
<text transform="matrix(1 0 0 1 1003.6118 75.2525)" class="st10 st11">2</text>
<rect x="830.4" y="120.8" class="st12" width="4.5" height="244"/>
<rect x="11.7" y="173.3" class="st2" width="105.4" height="23.7"/>
<text transform="matrix(0.9794 0 0 1 11.6519 185.2066)" class="st9 st13">MUJERES</text>
<rect x="11.7" y="294.7" class="st2" width="96.2" height="26"/>
<text transform="matrix(0.9794 0 0 1 11.6519 306.6509)" class="st9 st13">HOMBRES</text>
<rect x="210.7" y="57.5" class="st2" width="80.5" height="23.3"/>
<g>
	<g>
		<path class="st14" d="M411.2,290.9h-13.8c-1.7,0-3.2,1.7-3.2,3.8v16.6c0,2.1,1.4,3.8,3.2,3.8h13.8c1.7,0,3.2-1.7,3.2-3.8v-16.6
			C414.4,292.6,412.9,290.9,411.2,290.9z M413.3,311.4c0,1.4-0.9,2.5-2,2.5h-13.8c-1.1,0-2-1.1-2-2.5v-16.6c0-1.4,0.9-2.5,2-2.5
			h13.8c1.1,0,2,1.1,2,2.5V311.4L413.3,311.4z"/>
		<path class="st14" d="M406.6,301.9c1-0.5,1.5-1.2,1.5-2.6c0-1.8-1-3.2-3.6-3.2h-3.9v12.2h4.4c2.6,0,3.7-1.6,3.7-3.4
			C408.7,303.3,407.9,302.3,406.6,301.9z M402.3,298h2.2c1.1,0,1.8,0.3,1.8,1.6c0,1-0.6,1.5-1.8,1.5h-2.2L402.3,298L402.3,298z
			 M405,306.4h-2.7V303h2.5c1.4,0,2.2,0.5,2.2,1.6C406.9,306,406.2,306.4,405,306.4z"/>
		<path class="st14" d="M422.9,289.1c1.7,0,3.2-1.7,3.2-3.8v-16.6c0-2.1-1.4-3.8-3.2-3.8h-13.8c-1.7,0-3.2,1.7-3.2,3.8v16.6
			c0,2.1,1.4,3.8,3.2,3.8H422.9L422.9,289.1z M407,285.3v-16.6c0-1.4,0.9-2.5,2-2.5h13.8c1.1,0,2,1.1,2,2.5v16.6
			c0,1.4-0.9,2.5-2,2.5h-13.8C407.9,287.7,407,286.6,407,285.3z"/>
		<path class="st14" d="M413.4,279.4h5.1l1,2.8h1.8l-4.5-12.2h-1.8l-4.5,12.2h1.8L413.4,279.4z M416,272.5l1.8,5h-3.7L416,272.5z"/>
		<path class="st14" d="M434.6,290.9h-13.8c-1.7,0-3.2,1.7-3.2,3.8v16.6c0,2.1,1.4,3.8,3.2,3.8h13.8c1.7,0,3.2-1.7,3.2-3.8v-16.6
			C437.8,292.6,436.3,290.9,434.6,290.9z M436.7,311.4c0,1.4-0.9,2.5-2,2.5h-13.8c-1.1,0-2-1.1-2-2.5v-16.6c0-1.4,0.9-2.5,2-2.5
			h13.8c1.1,0,2,1.1,2,2.5V311.4L436.7,311.4z"/>
		<path class="st14" d="M428.5,297.8c1.2,0,2,0.5,2.9,1.5l1.1-1.4c-1-1.4-2.4-2.1-3.9-2.1c-3.2,0-5.4,2.7-5.4,6.3
			c0,3.7,2.3,6.3,5.3,6.3c1.5,0,2.8-0.7,3.9-2.1l-1.1-1.4c-1,1.2-1.8,1.5-2.8,1.5c-1.8,0-3.5-1.8-3.5-4.3
			C424.9,299.5,426.5,297.8,428.5,297.8z"/>
	</g>
	<rect x="376.9" y="322.7" class="st2" width="84.1" height="25.4"/>
	<text transform="matrix(0.9484 0 0 1 376.8745 336.8999)" class="st3 st15">$315.083</text>
</g>
<g>
	<g>
		<path class="st16" d="M242.1,166.5h-13.8c-1.7,0-3.2,1.6-3.2,3.6v15.8c0,2,1.4,3.6,3.2,3.6h13.8c1.7,0,3.2-1.6,3.2-3.6v-15.8
			C245.3,168.1,243.8,166.5,242.1,166.5z M244.2,185.9c0,1.3-0.9,2.3-2.1,2.3h-13.8c-1.1,0-2.1-1.1-2.1-2.3v-15.8
			c0-1.3,0.9-2.4,2.1-2.4h13.8c1.1,0,2.1,1.1,2.1,2.4V185.9L244.2,185.9z"/>
		<path class="st16" d="M237.5,177c1-0.5,1.5-1.1,1.5-2.5c0-1.7-1-3.1-3.6-3.1h-4V183h4.4c2.6,0,3.7-1.5,3.7-3.2
			C239.6,178.3,238.7,177.3,237.5,177z M233.2,173.2h2.2c1.1,0,1.8,0.3,1.8,1.6c0,1-0.6,1.4-1.9,1.4h-2.2L233.2,173.2L233.2,173.2z
			 M235.9,181.2h-2.7V178h2.5c1.4,0,2.2,0.5,2.2,1.5C237.8,180.9,237,181.2,235.9,181.2z"/>
		<path class="st16" d="M253.8,164.7c1.7,0,3.2-1.6,3.2-3.6v-15.8c0-2-1.4-3.6-3.2-3.6H240c-1.7,0-3.2,1.6-3.2,3.6v15.8
			c0,2,1.4,3.6,3.2,3.6H253.8L253.8,164.7z M237.9,161.1v-15.8c0-1.3,0.9-2.4,2.1-2.4h13.8c1.1,0,2.1,1.1,2.1,2.4v15.8
			c0,1.3-0.9,2.4-2.1,2.4H240C238.8,163.5,237.9,162.4,237.9,161.1z"/>
		<path class="st16" d="M244.3,155.5h5.1l1,2.6h1.8l-4.5-11.6H246l-4.5,11.6h1.8L244.3,155.5z M246.9,149l1.8,4.8H245L246.9,149z"/>
		<path class="st16" d="M265.6,166.5h-13.8c-1.7,0-3.2,1.6-3.2,3.6v15.8c0,2,1.4,3.6,3.2,3.6h13.8c1.7,0,3.2-1.6,3.2-3.6v-15.8
			C268.7,168.1,267.3,166.5,265.6,166.5z M267.6,185.9c0,1.3-0.9,2.3-2.1,2.3h-13.8c-1.1,0-2.1-1.1-2.1-2.3v-15.8
			c0-1.3,0.9-2.4,2.1-2.4h13.8c1.1,0,2.1,1.1,2.1,2.4V185.9L267.6,185.9z"/>
		<path class="st16" d="M259.5,173.1c1.2,0,2,0.4,2.9,1.4l1.1-1.4c-1-1.3-2.4-2-3.9-2c-3.2,0-5.5,2.6-5.5,6c0,3.5,2.3,6,5.3,6
			c1.5,0,2.8-0.7,3.9-2l-1.1-1.3c-1,1.1-1.8,1.4-2.9,1.4c-1.8,0-3.5-1.7-3.5-4.1C255.8,174.7,257.5,173.1,259.5,173.1z"/>
	</g>
	<rect x="202.1" y="196.1" class="st2" width="93.1" height="18.8"/>
	<text transform="matrix(1.0255 0 0 1 202.1226 209.646)" class="st3 st17">$190.396</text>
</g>
<g>
	<path class="st18" d="M506.2,302c-0.6-0.4-1.3-0.6-2.1-0.5c-0.4,0-0.8,0.2-1.1,0.4l3.6,1.8c-1.1,1.6-2,3.3-2.9,5.1
		c-0.6,1.2-1.1,2.6-1.5,4c-0.3,1.1-0.5,2.3-0.4,3.5c1.7-0.5,3.5-2.9,4.7-5.8c0.8-1.8,1.2-3.9,1.2-6.1
		C507.6,303.4,507,302.5,506.2,302z"/>
	<path class="st18" d="M482,278.9v7.4l19.9,9.1h0c1.5,0,3-0.1,4.5-0.3c3.9-0.7,6.4-2.1,6.4-3.6v-12.2l-12.2,5.3L482,278.9z"/>
	<polygon class="st18" points="496.1,263.5 469.8,272.7 482,276.4 500.6,282.1 512.9,276.7 526.4,270.9 	"/>
	<path class="st18" d="M500.1,313.7c0-0.2,0-0.3,0.1-0.5s0.1-0.4,0.1-0.6l0-0.1c0.5-1.7,1-3.3,1.8-4.8c0.4-1,0.9-1.9,1.5-2.8
		c0,0,0-0.1,0-0.1l-2.4-1.2c-0.6,0.8-1,1.6-1.4,2.6c-0.5,1.2-1,2.4-1.3,3.7l-28.1-16l-0.2,1c-0.2,1.5-0.2,3,0.6,3.5l29.6,18
		C500,315.8,499.9,314.9,500.1,313.7z"/>
	<path class="st18" d="M498.2,305c1.7-4.1,4.6-6.5,6.9-5.7l-0.1,0L474,285.1c-1.2-0.6-2.8,1-3.7,3.8c-0.2,0.6-0.4,1.3-0.5,1.9
		l27.8,15.8C497.8,306.1,498,305.5,498.2,305z"/>
	<rect x="459.2" y="322.8" class="st2" width="100" height="21"/>
	<text transform="matrix(1.0255 0 0 1 459.2134 336.3101)" class="st3 st17">$384.355</text>
</g>
<rect x="517.5" y="195.3" class="st2" width="103.7" height="22.3"/>
<text transform="matrix(1.0255 0 0 1 517.5005 208.8638)" class="st3 st17">$427.656</text>
<g>
	<path class="st19" d="M683,279.1h-3.7c-0.6-2.3-1.4-4.2-2.8-6.2l3.2-3.1c0.2-0.2,0.4-0.6,0.4-0.8c0-0.4-0.2-0.6-0.4-0.8l-4.1-4
		c-0.4-0.4-1.2-0.4-1.8,0l-3.2,3.1c-1.8-1.2-3.7-1.9-5.7-2.5v-4c0-0.6-0.6-1.2-1.2-1.2h-5.9c-0.6,0-1.2,0.6-1.2,1.2v3.9
		c-2.2,0.4-4.1,1.3-5.9,2.3l-3.4-3.3c-0.4-0.4-1.2-0.4-1.8,0l-4.1,4c-0.2,0.2-0.4,0.6-0.4,0.8c0,0.2,0.2,0.6,0.4,0.8l3.4,3.3
		c-1.2,1.9-2.2,4-2.8,6.4h-3.8c-0.6,0-1.2,0.6-1.2,1.2v5.8c0,0.6,0.6,1.2,1.2,1.2h3.7c0.3,2,1.3,3.7,2.1,5.4l3-3.6
		c-0.8-1.8-1.3-3.8-1.3-5.9c0-8,6.6-14.5,14.8-14.5s14.8,6.5,14.8,14.5s-6.6,14.5-14.8,14.5c-1.4,0-2.9-0.2-4.2-0.6l-2.9,3.3
		c0.9,0.3,1.9,0.6,2.9,0.8v3.3c0,0.6,0.6,1.2,1.2,1.2h5.9c0.6,0,1.2-0.6,1.2-1.2v-3.5c2.3-0.6,4.3-1.3,6.3-2.7l2.6,2.5
		c0.2,0.2,0.6,0.4,0.8,0.4s0.6-0.2,0.8-0.4l4.1-4c0.2-0.2,0.4-0.6,0.4-0.8c0-0.4-0.2-0.6-0.4-0.8l-2.6-2.5c1.2-1.7,2-3.6,2.3-5.8
		h3.7c0.6,0,1.2-0.6,1.2-1.2v-5.8C684.2,279.7,683.8,279.1,683,279.1z"/>
	<path class="st19" d="M672.3,281.7c-0.2-1.8-0.8-3.6-2-5.2l-7.2,8.3l-4.7-3.8l7.2-8.2c-1.7-0.7-3.4-1-5.2-0.8
		c-6,0.5-10.5,5.7-10,11.6c0.1,1.2,0.4,2.3,0.9,3.5l0.1,0.1L634,307.1c-0.7,0.8-1.1,2-1,3.1c0.1,1.1,0.6,2.1,1.5,2.8s2,1.1,3.2,1
		c1.1-0.1,2.2-0.6,2.9-1.5l17.2-19.8l0.2,0.1c1.4,0.5,2.9,0.6,4.4,0.5C668.3,292.8,672.8,287.6,672.3,281.7z M637.5,311.1
		c-0.9,0.1-1.5-0.6-1.6-1.3c-0.1-0.8,0.6-1.5,1.4-1.6c0.9-0.1,1.5,0.6,1.6,1.3C639,310.3,638.4,311.1,637.5,311.1z"/>
	<rect x="616.2" y="323.2" class="st2" width="86.8" height="19.6"/>
	<text transform="matrix(1.0255 0 0 1 616.2134 336.6968)" class="st3 st17">$494.464</text>
</g>
<g>
	<g>
		<path d="M1101.7,136.9c-0.5,0.6-1.2,1.4-2.1,2.4c-3.8-3.6-7.5-4.1-10.3-4.5c-8,13-17,20.6-28.8,28.7c-0.3,0-0.7,0.2-1.1,0.4
			c-2.1,1.4-3,3.8-3.5,6.7c-1.2,6.7,0.9,14.8,7.2,16.2c3.7,0.8,6.1,0.2,7.7-1.8c1.2-1.4,6.5-7.5,13.3-14.6
			c7.7-7.9,17-15.4,20.8-18.6c3.5-3,2.8-7.7,0.3-11.3c-0.9-1.4-2.1-2.6-3.3-3.4L1101.7,136.9z M1072.5,179.6
			c0.5-3.6,0.3-10.3,0.2-12.5c0.9-0.4,2.6-1.6,5.8-4c8.9-6.7,16.1-14.6,23.4-23.3c2.6,2.4,4.9,7.3,1.8,10.1
			c-3.7,3-13.5,10.9-21,18.6C1078.6,172.8,1075,176.8,1072.5,179.6z M1069.2,183.3c-1.1,1.4-2.8,1.8-5.6,1.2
			c-5.8-1.4-7-9.5-5.4-15.2c1.6-5.5,6.5-4.7,8-0.8l-6.3,6.3c0.2,0.6,0.5,4.6,3.7,5.5c2.3,0.8,4.2-1.6,4.9-4.4c0.3-1.8,0.5-4,0-6.5
			c-0.3-3-2.1-5.1-4.4-6.1c11-7.7,18.5-14.2,26.1-26.1c3.2,0.6,5.2,1.4,7.9,3.6c-7.3,8.5-22.4,24.5-27.4,24.5
			c0,1.2,0.5,11.3-0.2,14.8C1070.2,181.3,1069.9,182.5,1069.2,183.3z M1066.7,171.1c0.2,2.2,0,4.9-1.2,6.3c-1.2,1.8-2.8,0-3.3-1.8
			L1066.7,171.1z"/>
		<path class="st20" d="M1099.4,178.4c0,0-1.2-4.1-3.3-7.1s-6.1-4.7-6.1-4.7s2.6,3.2,3.7,7.7c1.2,4.5,1.4,6.5,1.4,6.5l-2.4-1.4
			l-1.9,4c0,0,0.9-5.3-1.2-10.1c-1.9-4.7-3.3-6.1-3.3-6.1c0.5-8.5-3.2-13-10.7-13.6l5.6-5.7c6.6-0.2,10.5,7.9,9.8,14.8
			c5.1,3.2,9.8,7.7,14,12.1l-3.8,0.8L1099.4,178.4z"/>
	</g>
	<rect x="1040.8" y="191.9" class="st2" width="92.4" height="17.8"/>
	<text transform="matrix(1.0255 0 0 1 1040.8384 205.4644)" class="st3 st17">$825.282</text>
</g>
<g>
	<g>
		<path d="M1263.5,269.6c-0.5,0.6-1.2,1.4-2.1,2.4c-3.8-3.6-7.5-4.2-10.3-4.5c-8,13-17,20.6-28.8,28.7c-0.3,0-0.7,0.2-1.1,0.4
			c-2.1,1.4-3,3.8-3.5,6.7c-1.2,6.7,0.9,14.8,7.2,16.2c3.7,0.8,6.1,0.2,7.7-1.8c1.2-1.4,6.5-7.5,13.3-14.6
			c7.7-7.9,17-15.4,20.8-18.6c3.5-3,2.8-7.7,0.3-11.3c-0.9-1.4-2.1-2.6-3.3-3.4L1263.5,269.6z M1234.3,312.3
			c0.5-3.6,0.3-10.3,0.2-12.5c0.9-0.4,2.6-1.6,5.8-4c8.9-6.7,16.1-14.6,23.4-23.3c2.6,2.4,4.9,7.3,1.8,10.1
			c-3.7,3-13.5,10.9-21,18.6C1240.5,305.5,1236.8,309.5,1234.3,312.3z M1231,316c-1.1,1.4-2.8,1.8-5.6,1.2c-5.8-1.4-7-9.5-5.4-15.2
			c1.6-5.5,6.5-4.7,8-0.8l-6.3,6.3c0.2,0.6,0.5,4.5,3.7,5.5c2.3,0.8,4.2-1.6,4.9-4.3c0.3-1.8,0.5-4,0-6.5c-0.3-3-2.1-5.1-4.4-6.1
			c11-7.7,18.5-14.2,26.1-26.1c3.2,0.6,5.2,1.4,7.9,3.6c-7.3,8.5-22.4,24.5-27.4,24.5c0,1.2,0.5,11.3-0.2,14.8
			C1232.1,314,1231.7,315.2,1231,316z M1228.6,303.8c0.2,2.2,0,4.9-1.2,6.3c-1.2,1.8-2.8,0-3.3-1.8L1228.6,303.8z"/>
		<path class="st20" d="M1261.3,311.1c0,0-1.2-4.2-3.3-7.1s-6.1-4.7-6.1-4.7s2.6,3.2,3.7,7.7c1.2,4.5,1.4,6.5,1.4,6.5l-2.4-1.4
			l-1.9,4c0,0,0.9-5.3-1.2-10.1c-1.9-4.7-3.3-6.1-3.3-6.1c0.5-8.5-3.2-13-10.7-13.6l5.6-5.7c6.6-0.2,10.5,7.9,9.8,14.8
			c5.1,3.2,9.8,7.7,14,12.1l-3.8,0.8L1261.3,311.1z"/>
	</g>
	<rect x="1196.2" y="327.6" class="st2" width="109" height="19.1"/>
	<text transform="matrix(1.0255 0 0 1 1196.2134 341.1714)" class="st3 st17">$950.749</text>
</g>
<g>
	<rect x="314.7" y="195.8" class="st2" width="99.6" height="21.9"/>
	<text transform="matrix(1.0255 0 0 1 314.6509 209.3286)" class="st3 st17">$281.025</text>
	<path class="st18" d="M372.2,176.5c-0.6-0.4-1.3-0.6-2.1-0.5c-0.4,0-0.8,0.2-1.1,0.4l3.6,1.9c-1.1,1.6-2,3.3-2.9,5.1
		c-0.6,1.2-1.1,2.6-1.5,4c-0.3,1.1-0.5,2.3-0.4,3.5c1.7-0.5,3.5-2.9,4.7-5.8c0.8-1.8,1.2-3.9,1.2-6.1
		C373.5,177.9,372.9,177,372.2,176.5z"/>
	<path class="st18" d="M348,153.3v7.4l19.9,9.1h0c1.5,0,3-0.1,4.5-0.3c3.9-0.7,6.4-2.1,6.4-3.6v-12.2l-12.2,5.3L348,153.3z"/>
	<polygon class="st18" points="362.1,138 335.7,147.2 348,150.9 366.5,156.5 378.8,151.2 392.3,145.3 	"/>
	<path class="st18" d="M366,188.2c0-0.2,0-0.3,0.1-0.5s0.1-0.4,0.1-0.6l0-0.1c0.5-1.7,1-3.3,1.8-4.8c0.4-1,0.9-1.9,1.5-2.8
		c0,0,0-0.1,0-0.1l-2.4-1.2c-0.6,0.8-1,1.6-1.4,2.6c-0.5,1.2-1,2.4-1.3,3.7l-28.1-16l-0.2,1c-0.2,1.5-0.2,3,0.6,3.5l29.6,18
		C366,190.2,365.9,189.4,366,188.2z"/>
	<path class="st18" d="M364.1,179.5c1.7-4.1,4.6-6.5,6.9-5.7l-0.1,0L340,159.6c-1.2-0.6-2.8,1-3.7,3.8c-0.2,0.6-0.4,1.3-0.5,1.9
		l27.8,15.8C363.7,180.5,363.9,180,364.1,179.5z"/>
</g>
</svg>
