<?xml version="1.0" encoding="utf-8"?>
<!-- Generator: Adobe Illustrator 22.0.1, SVG Export Plug-In . SVG Version: 6.00 Build 0)  -->
<svg version="1.1" id="Capa_1" xmlns="http://www.w3.org/2000/svg" xmlns:xlink="http://www.w3.org/1999/xlink" x="0px" y="0px"
	 viewBox="0 0 1500.5 410.3" style="enable-background:new 0 0 1500.5 410.3;" xml:space="preserve">
<style type="text/css">
	.st0{opacity:0.8;fill:#DCF4F3;stroke:#416190;stroke-width:5;stroke-miterlimit:5.83;}
	.st1{fill:none;stroke:#000000;stroke-width:3.0401;stroke-miterlimit:10;}
	.st2{fill:none;}
	.st3{font-family:'ArialMT';}
	.st4{font-size:16px;}
	.st5{letter-spacing:27.6;}
	.st6{letter-spacing:8.2;}
	.st7{fill:#FF0000;}
	.st8{font-size:21px;}
	.st9{font-family:'Verdana-Bold';}
	.st10{font-size:12.243px;}
	.st11{fill:#FCEE21;}
	.st12{font-size:16.6514px;}
	.st13{fill:#FF0000;stroke:#FF0000;stroke-width:1.3664;stroke-miterlimit:10;}
	.st14{font-size:18.9273px;}
	.st15{fill:#FF0000;stroke:#FF0000;stroke-width:1.3343;stroke-miterlimit:10;}
	.st16{font-size:18px;}
	.st17{fill:#FF0000;stroke:#FF0000;stroke-width:0.2169;stroke-miterlimit:10;}
	.st18{stroke:#000000;stroke-width:0.1414;stroke-miterlimit:10;}
</style>
<path class="st0" d="M45,2.5h1410.5c23.5,0,42.5,19,42.5,42.5v320.2c0,23.5-19,42.5-42.5,42.5H45c-23.5,0-42.5-19-42.5-42.5V45
	C2.5,21.5,21.5,2.5,45,2.5z"/>
<rect x="99.8" y="227.9" class="st1" width="1385.4" height="21.3"/>
<rect x="113.7" y="232.3" class="st2" width="1371.8" height="36.8"/>
<text transform="matrix(0.9794 0 0 1 113.6567 244.3267)" class="st3 st4">$100.000</text>
<text transform="matrix(0.9794 0 0 1 179.0024 244.3267)" class="st3 st4 st5"> </text>
<text transform="matrix(0.9794 0 0 1 211.5093 244.3267)" class="st3 st4 st5"> </text>
<text transform="matrix(0.9794 0 0 1 244.123 244.3267)" class="st3 st4">$200.000</text>
<text transform="matrix(0.9794 0 0 1 309.4692 244.3267)" class="st3 st4 st5"> </text>
<text transform="matrix(0.9794 0 0 1 341.9756 244.3267)" class="st3 st4 st5"> </text>
<text transform="matrix(0.9794 0 0 1 374.5889 244.3267)" class="st3 st4">$300.000</text>
<text transform="matrix(0.9794 0 0 1 439.9346 244.3267)" class="st3 st4 st5"> </text>
<text transform="matrix(0.9794 0 0 1 472.4414 244.3267)" class="st3 st4 st5"> </text>
<text transform="matrix(0.9794 0 0 1 505.0547 244.3267)" class="st3 st4">$400.000</text>
<text transform="matrix(0.9794 0 0 1 570.4004 244.3267)" class="st3 st4 st5"> </text>
<text transform="matrix(0.9794 0 0 1 602.9072 244.3267)" class="st3 st4 st5"> </text>
<text transform="matrix(0.9794 0 0 1 635.5313 244.3267)" class="st3 st4">$500.000</text>
<text transform="matrix(0.9794 0 0 1 700.876 244.3267)" class="st3 st4 st5"> </text>
<text transform="matrix(0.9794 0 0 1 733.373 244.3267)" class="st3 st4 st5"> </text>
<text transform="matrix(0.9794 0 0 1 765.9971 244.3267)" class="st3 st4">$600.000</text>
<text transform="matrix(0.9794 0 0 1 831.3428 244.3267)" class="st3 st4 st5"> </text>
<text transform="matrix(0.9794 0 0 1 863.8486 244.3267)" class="st3 st4 st5"> </text>
<text transform="matrix(0.9794 0 0 1 896.4629 244.3267)" class="st3 st4">$700.000</text>
<text transform="matrix(0.9794 0 0 1 961.8086 244.3267)" class="st3 st4 st5"> </text>
<text transform="matrix(0.9794 0 0 1 994.3135 244.3267)" class="st3 st4 st5"> </text>
<text transform="matrix(0.9794 0 0 1 1026.9287 244.3267)" class="st3 st4">$800.000</text>
<text transform="matrix(0.9794 0 0 1 1092.2744 244.3267)" class="st3 st4 st5"> </text>
<text transform="matrix(0.9794 0 0 1 1124.7803 244.3267)" class="st3 st4 st5"> </text>
<text transform="matrix(0.9794 0 0 1 1157.3945 244.3267)" class="st3 st4">$900.000</text>
<text transform="matrix(0.9794 0 0 1 1222.7402 244.3267)" class="st3 st4 st5"> </text>
<text transform="matrix(0.9794 0 0 1 1255.2461 244.3267)" class="st3 st4 st5"> </text>
<text transform="matrix(0.9794 0 0 1 1287.8604 244.3267)" class="st3 st4">$1.000.000 </text>
<text transform="matrix(0.9794 0 0 1 1370.6299 244.3267)" class="st3 st4 st6"> </text>
<text transform="matrix(0.9794 0 0 1 1385.7119 244.3267)" class="st3 st4 st5"> </text>
<text transform="matrix(0.9794 0 0 1 1418.3262 244.3267)" class="st3 st4">   +++</text>
<path class="st7" d="M739.5,148.9h-3.7c-0.6-2.3-1.4-4.2-2.8-6.1l3.2-3.1c0.2-0.2,0.4-0.6,0.4-0.8c0-0.4-0.2-0.6-0.4-0.8l-4.1-4
	c-0.4-0.4-1.2-0.4-1.8,0l-3.2,3.1c-1.8-1.2-3.7-1.9-5.7-2.5v-4c0-0.6-0.6-1.2-1.2-1.2h-5.9c-0.6,0-1.2,0.6-1.2,1.2v3.9
	c-2.2,0.4-4.1,1.3-5.9,2.3l-3.4-3.3c-0.4-0.4-1.2-0.4-1.8,0l-4.1,4c-0.2,0.2-0.4,0.6-0.4,0.8s0.2,0.6,0.4,0.8l3.4,3.3
	c-1.2,1.9-2.2,4-2.8,6.4h-3.8c-0.6,0-1.2,0.6-1.2,1.2v5.8c0,0.6,0.6,1.2,1.2,1.2h3.7c0.3,2,1.3,3.7,2.1,5.4l3-3.6
	c-0.8-1.8-1.3-3.8-1.3-5.9c0-8,6.6-14.5,14.8-14.5s14.8,6.5,14.8,14.5s-6.6,14.5-14.8,14.5c-1.4,0-2.9-0.2-4.2-0.6l-2.9,3.4
	c0.9,0.3,1.9,0.6,2.9,0.8v3.3c0,0.6,0.6,1.2,1.2,1.2h5.9c0.6,0,1.2-0.6,1.2-1.2v-3.5c2.3-0.6,4.3-1.3,6.3-2.7l2.6,2.5
	c0.2,0.2,0.6,0.4,0.8,0.4s0.6-0.2,0.8-0.4l4.1-4c0.2-0.2,0.4-0.6,0.4-0.8c0-0.4-0.2-0.6-0.4-0.8l-2.6-2.5c1.2-1.7,2-3.6,2.3-5.8h3.7
	c0.6,0,1.2-0.6,1.2-1.2v-5.8C740.7,149.5,740.3,148.9,739.5,148.9z"/>
<path class="st7" d="M728.8,151.5c-0.2-1.8-0.8-3.6-2-5.2l-7.2,8.3l-4.7-3.8l7.2-8.2c-1.7-0.7-3.4-1-5.2-0.8
	c-6,0.5-10.5,5.7-10,11.6c0.1,1.2,0.4,2.4,0.9,3.5l0.1,0.1l-17.4,20.1c-0.7,0.8-1.1,2-1,3.1s0.6,2.1,1.5,2.8s2,1.1,3.2,1
	c1.1-0.1,2.2-0.6,2.9-1.5l17.2-19.8l0.2,0.1c1.4,0.5,2.9,0.6,4.4,0.5C724.8,162.6,729.3,157.5,728.8,151.5z M694,180.9
	c-0.9,0.1-1.5-0.6-1.6-1.3c-0.1-0.8,0.6-1.5,1.4-1.6c0.9-0.1,1.5,0.6,1.6,1.3C695.5,180.1,694.9,180.9,694,180.9z"/>
<rect x="803.7" y="372.1" class="st2" width="92" height="32.3"/>
<text transform="matrix(0.9794 0 0 1 803.6758 387.8931)" class="st3 st8">$637.011</text>
<rect x="590.8" y="14.7" class="st2" width="439.9" height="108.7"/>
<text transform="matrix(1 0 0 1 724.9468 30.5364)" class="st9 st8"> MAGALLANES Xll</text>
<text transform="matrix(1 0 0 1 579.7222 80.9363)" class="st9 st8">Población: </text>
<text transform="matrix(1 0 0 1 704.4528 80.9363)" class="st3 st8">166.533 </text>
<text transform="matrix(1 0 0 1 784.1832 80.9363)" class="st9 st8">Superficie</text>
<text transform="matrix(1 0 0 1 902.6832 80.9363)" class="st3 st8">:</text>
<text transform="matrix(1 0 0 1 904.832 80.9363)" class="st3 st8"> 132.291,0 km</text>
<text transform="matrix(1 0 0 1 1038.9061 71.9436)" class="st3 st10">2</text>
<rect x="841.9" y="119.4" class="st11" width="4.5" height="244"/>
<rect x="17.1" y="171.9" class="st2" width="105.4" height="23.7"/>
<text transform="matrix(0.9794 0 0 1 17.1079 183.8979)" class="st9 st12">MUJERES</text>
<rect x="17.1" y="293.4" class="st2" width="96.2" height="26"/>
<text transform="matrix(0.9794 0 0 1 17.1079 305.3423)" class="st9 st12">HOMBRES</text>
<rect x="216.2" y="56.2" class="st2" width="80.5" height="23.3"/>
<g>
	<g>
		<path class="st13" d="M587.7,289.6h-13.8c-1.7,0-3.2,1.7-3.2,3.8V310c0,2.1,1.4,3.8,3.2,3.8h13.8c1.7,0,3.2-1.7,3.2-3.8v-16.6
			C590.8,291.3,589.4,289.6,587.7,289.6z M589.7,310c0,1.4-0.9,2.5-2,2.5h-13.8c-1.1,0-2-1.1-2-2.5v-16.6c0-1.4,0.9-2.5,2-2.5h13.8
			c1.1,0,2,1.1,2,2.5V310L589.7,310z"/>
		<path class="st13" d="M583.1,300.6c1-0.5,1.5-1.2,1.5-2.6c0-1.8-1-3.2-3.6-3.2h-3.9V307h4.4c2.6,0,3.7-1.6,3.7-3.4
			C585.1,302,584.3,300.9,583.1,300.6z M578.8,296.6h2.2c1.1,0,1.8,0.3,1.8,1.6c0,1-0.6,1.5-1.8,1.5h-2.2V296.6L578.8,296.6z
			 M581.5,305h-2.7v-3.3h2.5c1.4,0,2.2,0.5,2.2,1.6C583.4,304.7,582.6,305,581.5,305z"/>
		<path class="st13" d="M599.3,287.7c1.7,0,3.2-1.7,3.2-3.8v-16.6c0-2.1-1.4-3.8-3.2-3.8h-13.8c-1.7,0-3.2,1.7-3.2,3.8v16.6
			c0,2.1,1.4,3.8,3.2,3.8H599.3L599.3,287.7z M583.5,283.9v-16.6c0-1.4,0.9-2.5,2-2.5h13.8c1.1,0,2,1.1,2,2.5v16.6
			c0,1.4-0.9,2.5-2,2.5h-13.8C584.4,286.4,583.5,285.3,583.5,283.9z"/>
		<path class="st13" d="M589.9,278h5.1l1,2.8h1.8l-4.5-12.2h-1.8l-4.5,12.2h1.8L589.9,278z M592.4,271.1l1.8,5h-3.7L592.4,271.1z"/>
		<path class="st13" d="M611.1,289.6h-13.8c-1.7,0-3.2,1.7-3.2,3.8V310c0,2.1,1.4,3.8,3.2,3.8h13.8c1.7,0,3.2-1.7,3.2-3.8v-16.6
			C614.2,291.3,612.8,289.6,611.1,289.6z M613.1,310c0,1.4-0.9,2.5-2,2.5h-13.8c-1.1,0-2-1.1-2-2.5v-16.6c0-1.4,0.9-2.5,2-2.5h13.8
			c1.1,0,2,1.1,2,2.5V310L613.1,310z"/>
		<path class="st13" d="M605,296.5c1.2,0,2,0.5,2.9,1.5l1.1-1.4c-1-1.4-2.4-2.1-3.9-2.1c-3.2,0-5.4,2.7-5.4,6.3
			c0,3.7,2.3,6.3,5.3,6.3c1.5,0,2.8-0.7,3.9-2.1l-1.1-1.4c-1,1.2-1.8,1.5-2.8,1.5c-1.8,0-3.5-1.8-3.5-4.3
			C601.4,298.2,603,296.5,605,296.5z"/>
	</g>
	<rect x="553.3" y="321.3" class="st2" width="84.1" height="25.4"/>
	<text transform="matrix(0.9484 0 0 1 553.3311 335.5913)" class="st3 st14">$459.211</text>
</g>
<g>
	<g>
		<path class="st15" d="M337.6,165.2h-13.8c-1.7,0-3.2,1.6-3.2,3.6v15.8c0,2,1.4,3.6,3.2,3.6h13.8c1.7,0,3.2-1.6,3.2-3.6v-15.8
			C340.7,166.8,339.3,165.2,337.6,165.2z M339.6,184.6c0,1.3-0.9,2.3-2.1,2.3h-13.8c-1.1,0-2.1-1.1-2.1-2.3v-15.8
			c0-1.3,0.9-2.4,2.1-2.4h13.8c1.1,0,2.1,1.1,2.1,2.4V184.6L339.6,184.6z"/>
		<path class="st15" d="M333,175.6c1-0.5,1.5-1.1,1.5-2.5c0-1.7-1-3.1-3.6-3.1h-4v11.6h4.4c2.6,0,3.7-1.5,3.7-3.2
			C335,176.9,334.2,175.9,333,175.6z M328.6,171.9h2.2c1.1,0,1.8,0.3,1.8,1.6c0,1-0.6,1.4-1.9,1.4h-2.2L328.6,171.9L328.6,171.9z
			 M331.3,179.8h-2.7v-3.2h2.5c1.4,0,2.2,0.5,2.2,1.5C333.3,179.5,332.5,179.8,331.3,179.8z"/>
		<path class="st15" d="M349.3,163.4c1.7,0,3.2-1.6,3.2-3.6V144c0-2-1.4-3.6-3.2-3.6h-13.8c-1.7,0-3.2,1.6-3.2,3.6v15.8
			c0,2,1.4,3.6,3.2,3.6L349.3,163.4L349.3,163.4z M333.4,159.8V144c0-1.3,0.9-2.4,2.1-2.4h13.8c1.1,0,2.1,1.1,2.1,2.4v15.8
			c0,1.3-0.9,2.4-2.1,2.4h-13.8C334.3,162.1,333.4,161.1,333.4,159.8z"/>
		<path class="st15" d="M339.8,154.2h5.1l1,2.6h1.8l-4.5-11.6h-1.8l-4.5,11.6h1.8L339.8,154.2z M342.3,147.6l1.8,4.8h-3.7
			L342.3,147.6z"/>
		<path class="st15" d="M361,165.2h-13.8c-1.7,0-3.2,1.6-3.2,3.6v15.8c0,2,1.4,3.6,3.2,3.6H361c1.7,0,3.2-1.6,3.2-3.6v-15.8
			C364.2,166.8,362.8,165.2,361,165.2z M363.1,184.6c0,1.3-0.9,2.3-2.1,2.3h-13.8c-1.1,0-2.1-1.1-2.1-2.3v-15.8
			c0-1.3,0.9-2.4,2.1-2.4H361c1.1,0,2.1,1.1,2.1,2.4V184.6L363.1,184.6z"/>
		<path class="st15" d="M354.9,171.7c1.2,0,2,0.4,2.9,1.4l1.1-1.4c-1-1.3-2.4-2-3.9-2c-3.2,0-5.5,2.6-5.5,6c0,3.5,2.3,6,5.3,6
			c1.5,0,2.8-0.7,3.9-2l-1.1-1.3c-1,1.1-1.8,1.4-2.9,1.4c-1.8,0-3.5-1.7-3.5-4.1C351.3,173.3,352.9,171.7,354.9,171.7z"/>
	</g>
	<rect x="297.6" y="194.8" class="st2" width="93.1" height="18.8"/>
	<text transform="matrix(1.0255 0 0 1 297.5786 208.3374)" class="st3 st16">$266.430</text>
</g>
<g>
	<path class="st17" d="M754.7,302.7c-0.6-0.4-1.3-0.6-2.1-0.5c-0.4,0-0.8,0.2-1.1,0.4l3.6,1.8c-1.1,1.6-2,3.3-2.9,5.1
		c-0.6,1.2-1.1,2.6-1.5,4c-0.3,1.1-0.5,2.3-0.4,3.5c1.7-0.5,3.5-2.9,4.7-5.8c0.8-1.8,1.2-3.9,1.2-6.1
		C756,304.1,755.5,303.2,754.7,302.7z"/>
	<path class="st17" d="M730.5,279.5v7.4l19.9,9.1l0,0c1.5,0,3-0.1,4.5-0.3c3.9-0.7,6.4-2.1,6.4-3.6v-12.2l-12.2,5.3L730.5,279.5z"/>
	<polygon class="st17" points="744.6,264.2 718.3,273.4 730.5,277.1 749,282.7 761.3,277.4 774.9,271.5 	"/>
	<path class="st17" d="M748.6,314.4c0-0.2,0-0.3,0.1-0.5s0.1-0.4,0.1-0.6v-0.1c0.5-1.7,1-3.3,1.8-4.8c0.4-1,0.9-1.9,1.5-2.8v-0.1
		l-2.4-1.2c-0.6,0.8-1,1.6-1.4,2.6c-0.5,1.2-1,2.4-1.3,3.7l-28.1-16l-0.2,1c-0.2,1.5-0.2,3,0.6,3.5l29.6,18
		C748.5,316.4,748.4,315.6,748.6,314.4z"/>
	<path class="st17" d="M746.6,305.7c1.7-4.1,4.6-6.5,6.9-5.7h-0.1l-30.9-14.1c-1.2-0.6-2.8,1-3.7,3.8c-0.2,0.6-0.4,1.3-0.5,1.9
		l27.8,15.8C746.2,306.7,746.4,306.2,746.6,305.7z"/>
	<rect x="707.7" y="323.4" class="st2" width="100" height="21"/>
	<text transform="matrix(1.0255 0 0 1 707.6699 337.0015)" class="st3 st16">$588.965</text>
</g>
<rect x="665" y="194" class="st2" width="103.7" height="22.3"/>
<text transform="matrix(1.0255 0 0 1 664.957 207.5552)" class="st3 st16">$540.160</text>
<g>
	<path class="st18" d="M1176.4,278.7h-3.7c-0.6-2.3-1.4-4.2-2.8-6.2l3.2-3.1c0.2-0.2,0.4-0.6,0.4-0.8c0-0.4-0.2-0.6-0.4-0.8l-4.1-4
		c-0.4-0.4-1.2-0.4-1.8,0l-3.2,3.1c-1.8-1.2-3.7-1.9-5.7-2.5v-4c0-0.6-0.6-1.2-1.2-1.2h-5.9c-0.6,0-1.2,0.6-1.2,1.2v3.9
		c-2.2,0.4-4.1,1.3-5.9,2.3l-3.4-3.3c-0.4-0.4-1.2-0.4-1.8,0l-4.1,4c-0.2,0.2-0.4,0.6-0.4,0.8c0,0.2,0.2,0.6,0.4,0.8l3.4,3.3
		c-1.2,1.9-2.2,4-2.8,6.4h-3.8c-0.6,0-1.2,0.6-1.2,1.2v5.8c0,0.6,0.6,1.2,1.2,1.2h3.7c0.3,2,1.3,3.7,2.1,5.4l3-3.6
		c-0.8-1.8-1.3-3.8-1.3-5.9c0-8,6.6-14.5,14.8-14.5s14.8,6.5,14.8,14.5s-6.6,14.5-14.8,14.5c-1.4,0-2.9-0.2-4.2-0.6l-2.9,3.3
		c0.9,0.3,1.9,0.6,2.9,0.8v3.3c0,0.6,0.6,1.2,1.2,1.2h5.9c0.6,0,1.2-0.6,1.2-1.2v-3.5c2.3-0.6,4.3-1.3,6.3-2.7l2.6,2.5
		c0.2,0.2,0.6,0.4,0.8,0.4c0.2,0,0.6-0.2,0.8-0.4l4.1-4c0.2-0.2,0.4-0.6,0.4-0.8c0-0.4-0.2-0.6-0.4-0.8l-2.6-2.5
		c1.2-1.7,1.9-3.6,2.3-5.8h3.7c0.6,0,1.2-0.6,1.2-1.2v-5.8C1177.6,279.4,1177.2,278.7,1176.4,278.7z"/>
	<path class="st18" d="M1165.8,281.4c-0.2-1.8-0.8-3.6-1.9-5.2l-7.2,8.3l-4.7-3.8l7.2-8.2c-1.7-0.7-3.4-1-5.2-0.8
		c-6,0.5-10.5,5.7-10,11.6c0.1,1.2,0.4,2.3,0.9,3.5l0.1,0.1l-17.4,20.1c-0.7,0.8-1.1,2-1,3.1s0.6,2.1,1.5,2.8s2,1.1,3.2,1
		c1.1-0.1,2.2-0.6,2.9-1.5l17.2-19.8l0.2,0.1c1.4,0.5,2.9,0.6,4.4,0.5C1161.8,292.5,1166.3,287.3,1165.8,281.4z M1131,310.8
		c-0.9,0.1-1.5-0.6-1.6-1.3c-0.1-0.8,0.6-1.5,1.4-1.6c0.9-0.1,1.5,0.6,1.6,1.3C1132.4,310,1131.9,310.7,1131,310.8z"/>
	<rect x="1109.7" y="322.8" class="st2" width="86.8" height="19.6"/>
	<text transform="matrix(1.0255 0 0 1 1109.6699 336.3882)" class="st3 st16">$889.527</text>
</g>
<g>
	<g>
		<path d="M1244.2,135.5c-0.5,0.6-1.2,1.4-2.1,2.4c-3.8-3.6-7.5-4.1-10.3-4.5c-8,13-17,20.6-28.8,28.7c-0.3,0-0.7,0.2-1.1,0.4
			c-2.1,1.4-3,3.8-3.5,6.7c-1.2,6.7,0.9,14.8,7.2,16.2c3.7,0.8,6.1,0.2,7.7-1.8c1.2-1.4,6.5-7.5,13.3-14.6
			c7.7-7.9,17-15.4,20.8-18.6c3.5-3,2.8-7.7,0.3-11.3c-0.9-1.4-2.1-2.6-3.3-3.4L1244.2,135.5z M1215,178.2
			c0.5-3.6,0.3-10.3,0.2-12.5c0.9-0.4,2.6-1.6,5.8-4c8.9-6.7,16.1-14.6,23.4-23.3c2.6,2.4,4.9,7.3,1.8,10.1
			c-3.7,3-13.5,10.9-21,18.6C1221.1,171.5,1217.4,175.4,1215,178.2z M1211.7,182c-1.1,1.4-2.8,1.8-5.6,1.2c-5.8-1.4-7-9.5-5.4-15.2
			c1.6-5.5,6.5-4.7,8-0.8l-6.3,6.3c0.2,0.6,0.5,4.6,3.7,5.5c2.3,0.8,4.2-1.6,4.9-4.4c0.3-1.8,0.5-4,0-6.5c-0.3-3-2.1-5.1-4.4-6.1
			c11-7.7,18.5-14.2,26.1-26.1c3.2,0.6,5.2,1.4,7.9,3.6c-7.3,8.5-22.4,24.5-27.4,24.5c0,1.2,0.5,11.3-0.2,14.8
			C1212.7,180,1212.4,181.2,1211.7,182z M1209.2,169.7c0.2,2.2,0,4.9-1.2,6.3c-1.2,1.8-2.8,0-3.3-1.8L1209.2,169.7z"/>
		<path d="M1241.9,177c0,0-1.2-4.1-3.3-7.1s-6.1-4.7-6.1-4.7s2.6,3.2,3.7,7.7c1.2,4.5,1.4,6.5,1.4,6.5l-2.4-1.4l-1.9,4
			c0,0,0.9-5.3-1.2-10.1c-1.9-4.7-3.3-6.1-3.3-6.1c0.5-8.5-3.2-13-10.7-13.6l5.6-5.7c6.6-0.2,10.5,7.9,9.8,14.8
			c5.1,3.2,9.8,7.7,14,12.1l-3.8,0.8L1241.9,177z"/>
	</g>
	<rect x="1183.3" y="190.6" class="st2" width="92.4" height="17.8"/>
	<text transform="matrix(1.0255 0 0 1 1183.2959 204.1558)" class="st3 st16">$938.949</text>
</g>
<g>
	<g>
		<path d="M1460,268.2c-0.5,0.6-1.2,1.4-2.1,2.4c-3.8-3.6-7.5-4.2-10.3-4.5c-8,13-17,20.6-28.8,28.7c-0.3,0-0.7,0.2-1.1,0.4
			c-2.1,1.4-3,3.8-3.5,6.7c-1.2,6.7,0.9,14.8,7.2,16.2c3.7,0.8,6.1,0.2,7.7-1.8c1.2-1.4,6.5-7.5,13.3-14.6
			c7.7-7.9,17-15.4,20.8-18.6c3.5-3,2.8-7.7,0.3-11.3c-0.9-1.4-2.1-2.6-3.3-3.4L1460,268.2z M1430.8,310.9
			c0.5-3.6,0.3-10.3,0.2-12.5c0.9-0.4,2.6-1.6,5.8-4c8.9-6.7,16.1-14.6,23.4-23.3c2.6,2.4,4.9,7.3,1.8,10.1
			c-3.7,3-13.5,10.9-21,18.6C1436.9,304.2,1433.3,308.1,1430.8,310.9z M1427.5,314.7c-1.1,1.4-2.8,1.8-5.6,1.2
			c-5.8-1.4-7-9.5-5.4-15.2c1.6-5.5,6.5-4.7,8-0.8l-6.3,6.3c0.2,0.6,0.5,4.5,3.7,5.5c2.3,0.8,4.2-1.6,4.9-4.3c0.3-1.8,0.5-4,0-6.5
			c-0.3-3-2.1-5.1-4.4-6.1c11-7.7,18.5-14.2,26.1-26.1c3.2,0.6,5.2,1.4,7.9,3.6c-7.3,8.5-22.4,24.5-27.4,24.5
			c0,1.2,0.5,11.3-0.2,14.8C1428.5,312.7,1428.2,313.9,1427.5,314.7z M1425,302.4c0.2,2.2,0,4.9-1.2,6.3c-1.2,1.8-2.8,0-3.3-1.8
			L1425,302.4z"/>
		<path d="M1457.7,309.7c0,0-1.2-4.2-3.3-7.1s-6.1-4.7-6.1-4.7s2.6,3.2,3.7,7.7c1.2,4.5,1.4,6.5,1.4,6.5l-2.4-1.4l-1.9,4
			c0,0,0.9-5.3-1.2-10.1c-1.9-4.7-3.3-6.1-3.3-6.1c0.5-8.5-3.2-13-10.7-13.6l5.6-5.7c6.6-0.2,10.5,7.9,9.8,14.8
			c5.1,3.2,9.8,7.7,14,12.1l-3.8,0.8L1457.7,309.7z"/>
	</g>
	<rect x="1392.7" y="326.3" class="st2" width="109" height="19.1"/>
	<text transform="matrix(1.0255 0 0 1 1392.6699 339.8628)" class="st3 st16">$1.307.210</text>
</g>
<g>
	<rect x="478.1" y="194.4" class="st2" width="99.6" height="21.9"/>
	<text transform="matrix(1.0255 0 0 1 478.1074 208.02)" class="st3 st16">$392.807</text>
	<path class="st17" d="M535.6,175.2c-0.6-0.4-1.3-0.6-2.1-0.5c-0.4,0-0.8,0.2-1.1,0.4l3.6,1.9c-1.1,1.6-2,3.3-2.9,5.1
		c-0.6,1.2-1.1,2.6-1.5,4c-0.3,1.1-0.5,2.3-0.4,3.5c1.7-0.5,3.5-2.9,4.7-5.8c0.8-1.8,1.2-3.9,1.2-6.1
		C536.9,176.5,536.4,175.6,535.6,175.2z"/>
	<path class="st17" d="M511.4,152v7.4l19.9,9.1l0,0c1.5,0,3-0.1,4.5-0.3c3.9-0.7,6.4-2.1,6.4-3.6v-12.2l-12.2,5.3L511.4,152z"/>
	<polygon class="st17" points="525.5,136.6 499.2,145.9 511.4,149.5 530,155.2 542.3,149.8 555.8,144 	"/>
	<path class="st17" d="M529.5,186.9c0-0.2,0-0.3,0.1-0.5s0.1-0.4,0.1-0.6v-0.1c0.5-1.7,1-3.3,1.8-4.8c0.4-1,0.9-1.9,1.5-2.8V178
		l-2.4-1.2c-0.6,0.8-1,1.6-1.4,2.6c-0.5,1.2-1,2.4-1.3,3.7l-28.1-16l-0.2,1c-0.2,1.5-0.2,3,0.6,3.5l29.6,18
		C529.4,188.9,529.3,188,529.5,186.9z"/>
	<path class="st17" d="M527.6,178.1c1.7-4.1,4.6-6.5,6.9-5.7h-0.1l-30.9-14.1c-1.2-0.6-2.8,1-3.7,3.8c-0.2,0.6-0.4,1.3-0.5,1.9
		l27.8,15.8C527.2,179.2,527.4,178.6,527.6,178.1z"/>
</g>
</svg>
