<?xml version="1.0" encoding="utf-8"?>
<!-- Generator: Adobe Illustrator 24.2.3, SVG Export Plug-In . SVG Version: 6.00 Build 0)  -->
<svg version="1.1" id="Capa_1" xmlns="http://www.w3.org/2000/svg" xmlns:xlink="http://www.w3.org/1999/xlink" x="0px" y="0px"
	 viewBox="0 0 1493.9 402.6" style="enable-background:new 0 0 1493.9 402.6;" xml:space="preserve">
<style type="text/css">
	.st0{fill:#DCF4F3;fill-opacity:0.8;stroke:#416190;stroke-width:5;stroke-miterlimit:5.83;}
	.st1{fill:none;stroke:#000000;stroke-width:3.0401;stroke-miterlimit:10;}
	.st2{fill:none;}
	.st3{font-family:'Optima-Bold';}
	.st4{font-size:16px;}
	.st5{letter-spacing:27.6;}
	.st6{letter-spacing:8.2;}
	.st7{fill:#FF0000;}
	.st8{font-size:21px;}
	.st9{font-family:'Verdana-Bold';}
	.st10{font-family:'Optima-Regular';}
	.st11{enable-background:new    ;}
	.st12{font-size:12.243px;}
	.st13{fill:#FCEE21;}
	.st14{font-size:16.6514px;}
	.st15{fill:#FF0000;stroke:#FF0000;stroke-width:1.3664;stroke-miterlimit:10;}
	.st16{font-size:18.9273px;}
	.st17{fill:#FF0000;stroke:#FF0000;stroke-width:1.3343;stroke-miterlimit:10;}
	.st18{font-size:18px;}
	.st19{fill:#FF0000;stroke:#FF0000;stroke-width:0.2169;stroke-miterlimit:10;}
	.st20{stroke:#000000;stroke-width:0.1414;stroke-miterlimit:10;}
	.st21{fill-rule:evenodd;clip-rule:evenodd;}
</style>
<rect x="-3.5" y="-2.6" class="st0" width="1495.5" height="405.2"/>
<rect x="93.8" y="222.8" class="st1" width="1385.4" height="21.3"/>
<rect x="107.7" y="227.2" class="st2" width="1371.8" height="36.8"/>
<text transform="matrix(0.9794 0 0 1 107.6599 239.1846)" class="st3 st4">$100.000</text>
<text transform="matrix(0.9794 0 0 1 173.0056 239.1846)" class="st3 st4 st5"> </text>
<text transform="matrix(0.9794 0 0 1 205.5124 239.1846)" class="st3 st4 st5"> </text>
<text transform="matrix(0.9794 0 0 1 238.1257 239.1846)" class="st3 st4">$200.000</text>
<text transform="matrix(0.9794 0 0 1 303.4714 239.1846)" class="st3 st4 st5"> </text>
<text transform="matrix(0.9794 0 0 1 335.9782 239.1846)" class="st3 st4 st5"> </text>
<text transform="matrix(0.9794 0 0 1 368.5915 239.1846)" class="st3 st4">$300.000</text>
<text transform="matrix(0.9794 0 0 1 433.9372 239.1846)" class="st3 st4 st5"> </text>
<text transform="matrix(0.9794 0 0 1 466.4441 239.1846)" class="st3 st4 st5"> </text>
<text transform="matrix(0.9794 0 0 1 499.0573 239.1846)" class="st3 st4">$400.000</text>
<text transform="matrix(0.9794 0 0 1 564.4031 239.1846)" class="st3 st4 st5"> </text>
<text transform="matrix(0.9794 0 0 1 596.9099 239.1846)" class="st3 st4 st5"> </text>
<text transform="matrix(0.9794 0 0 1 629.5339 239.1846)" class="st3 st4">$500.000</text>
<text transform="matrix(0.9794 0 0 1 694.8787 239.1846)" class="st3 st4 st5"> </text>
<text transform="matrix(0.9794 0 0 1 727.3757 239.1846)" class="st3 st4 st5"> </text>
<text transform="matrix(0.9794 0 0 1 759.9998 239.1846)" class="st3 st4">$600.000</text>
<text transform="matrix(0.9794 0 0 1 825.3455 239.1846)" class="st3 st4 st5"> </text>
<text transform="matrix(0.9794 0 0 1 857.8513 239.1846)" class="st3 st4 st5"> </text>
<text transform="matrix(0.9794 0 0 1 890.4656 239.1846)" class="st3 st4">$700.000</text>
<text transform="matrix(0.9794 0 0 1 955.8113 239.1846)" class="st3 st4 st5"> </text>
<text transform="matrix(0.9794 0 0 1 988.3171 239.1846)" class="st3 st4 st5"> </text>
<text transform="matrix(0.9794 0 0 1 1020.9314 239.1846)" class="st3 st4">$800.000</text>
<text transform="matrix(0.9794 0 0 1 1086.2771 239.1846)" class="st3 st4 st5"> </text>
<text transform="matrix(0.9794 0 0 1 1118.783 239.1846)" class="st3 st4 st5"> </text>
<text transform="matrix(0.9794 0 0 1 1151.3972 239.1846)" class="st3 st4">$900.000</text>
<text transform="matrix(0.9794 0 0 1 1216.7429 239.1846)" class="st3 st4 st5"> </text>
<text transform="matrix(0.9794 0 0 1 1249.2488 239.1846)" class="st3 st4 st5"> </text>
<text transform="matrix(0.9794 0 0 1 1281.863 239.1846)" class="st3 st4">$1.000.000 </text>
<text transform="matrix(0.9794 0 0 1 1364.6326 239.1846)" class="st3 st4 st6"> </text>
<text transform="matrix(0.9794 0 0 1 1379.7146 239.1846)" class="st3 st4 st5"> </text>
<text transform="matrix(0.9794 0 0 1 1412.3289 239.1846)" class="st3 st4">   +++</text>
<path class="st7" d="M733.5,143.8h-3.7c-0.6-2.3-1.4-4.2-2.8-6.1l3.2-3.1c0.2-0.2,0.4-0.6,0.4-0.8c0-0.4-0.2-0.6-0.4-0.8l-4.1-4
	c-0.4-0.4-1.2-0.4-1.8,0l-3.2,3.1c-1.8-1.2-3.7-1.9-5.7-2.5v-4c0-0.6-0.6-1.2-1.2-1.2h-5.9c-0.6,0-1.2,0.6-1.2,1.2v3.9
	c-2.2,0.4-4.1,1.3-5.9,2.3l-3.4-3.3c-0.4-0.4-1.2-0.4-1.8,0l-4.1,4c-0.2,0.2-0.4,0.6-0.4,0.8c0,0.2,0.2,0.6,0.4,0.8l3.4,3.3
	c-1.2,1.9-2.2,4-2.8,6.4h-3.8c-0.6,0-1.2,0.6-1.2,1.2v5.8c0,0.6,0.6,1.2,1.2,1.2h3.7c0.3,2,1.3,3.7,2.1,5.4l3-3.6
	c-0.8-1.8-1.3-3.8-1.3-5.9c0-8,6.6-14.5,14.8-14.5s14.8,6.5,14.8,14.5s-6.6,14.5-14.8,14.5c-1.4,0-2.9-0.2-4.2-0.6l-2.9,3.4
	c0.9,0.3,1.9,0.6,2.9,0.8v3.3c0,0.6,0.6,1.2,1.2,1.2h5.9c0.6,0,1.2-0.6,1.2-1.2v-3.5c2.3-0.6,4.3-1.3,6.3-2.7l2.6,2.5
	c0.2,0.2,0.6,0.4,0.8,0.4s0.6-0.2,0.8-0.4l4.1-4c0.2-0.2,0.4-0.6,0.4-0.8c0-0.4-0.2-0.6-0.4-0.8l-2.6-2.5c1.2-1.7,2-3.6,2.3-5.8h3.7
	c0.6,0,1.2-0.6,1.2-1.2v-5.8C734.7,144.4,734.3,143.8,733.5,143.8z"/>
<path class="st7" d="M722.8,146.4c-0.2-1.8-0.8-3.6-2-5.2l-7.2,8.3l-4.7-3.8l7.2-8.2c-1.7-0.7-3.4-1-5.2-0.8
	c-6,0.5-10.5,5.7-10,11.6c0.1,1.2,0.4,2.4,0.9,3.5l0.1,0.1l-17.4,20.1c-0.7,0.8-1.1,2-1,3.1c0.1,1.1,0.6,2.1,1.5,2.8s2,1.1,3.2,1
	c1.1-0.1,2.2-0.6,2.9-1.5l17.2-19.8l0.2,0.1c1.4,0.5,2.9,0.6,4.4,0.5C718.8,157.5,723.3,152.4,722.8,146.4z M688,175.8
	c-0.9,0.1-1.5-0.6-1.6-1.3c-0.1-0.8,0.6-1.5,1.4-1.6c0.9-0.1,1.5,0.6,1.6,1.3C689.5,175,688.9,175.8,688,175.8z"/>
<rect x="797.7" y="367" class="st2" width="92" height="32.3"/>
<text transform="matrix(0.9794 0 0 1 797.6785 382.751)" class="st3 st8">$637.011</text>
<rect x="584.8" y="9.6" class="st2" width="439.9" height="108.7"/>
<text transform="matrix(1 0 0 1 718.9496 25.3944)" class="st9 st8"> MAGALLANES Xll</text>
<text transform="matrix(1 0 0 1 573.725 75.7943)" class="st9 st8">Población: </text>
<text transform="matrix(1 0 0 1 698.4555 75.7943)" class="st10 st8">166.533 </text>
<text transform="matrix(1 0 0 1 778.1859 75.7943)" class="st11"><tspan x="0" y="0" class="st9 st8">Superficie</tspan><tspan x="118.5" y="0" class="st3 st8">:</tspan></text>
<text transform="matrix(1 0 0 1 898.8348 75.7943)" class="st10 st8"> 132.291,0 km</text>
<text transform="matrix(1 0 0 1 1032.9089 66.8017)" class="st10 st12">2</text>
<rect x="835.9" y="114.3" class="st13" width="4.5" height="244"/>
<rect x="11.1" y="166.8" class="st2" width="105.4" height="23.7"/>
<text transform="matrix(0.9794 0 0 1 11.1111 178.7558)" class="st9 st14">MUJERES</text>
<rect x="11.1" y="288.3" class="st2" width="96.2" height="26"/>
<text transform="matrix(0.9794 0 0 1 11.1111 300.2002)" class="st9 st14">HOMBRES</text>
<rect x="210.2" y="51.1" class="st2" width="80.5" height="23.3"/>
<g>
	<g>
		<path class="st15" d="M581.7,284.5h-13.8c-1.7,0-3.2,1.7-3.2,3.8v16.6c0,2.1,1.4,3.8,3.2,3.8h13.8c1.7,0,3.2-1.7,3.2-3.8v-16.6
			C584.8,286.2,583.4,284.5,581.7,284.5z M583.7,304.9c0,1.4-0.9,2.5-2,2.5h-13.8c-1.1,0-2-1.1-2-2.5v-16.6c0-1.4,0.9-2.5,2-2.5
			h13.8c1.1,0,2,1.1,2,2.5V304.9L583.7,304.9z"/>
		<path class="st15" d="M577.1,295.5c1-0.5,1.5-1.2,1.5-2.6c0-1.8-1-3.2-3.6-3.2h-3.9v12.2h4.4c2.6,0,3.7-1.6,3.7-3.4
			C579.1,296.9,578.3,295.8,577.1,295.5z M572.8,291.5h2.2c1.1,0,1.8,0.3,1.8,1.6c0,1-0.6,1.5-1.8,1.5h-2.2L572.8,291.5L572.8,291.5
			z M575.5,299.9h-2.7v-3.3h2.5c1.4,0,2.2,0.5,2.2,1.6C577.4,299.6,576.6,299.9,575.5,299.9z"/>
		<path class="st15" d="M593.3,282.6c1.7,0,3.2-1.7,3.2-3.8v-16.6c0-2.1-1.4-3.8-3.2-3.8h-13.8c-1.7,0-3.2,1.7-3.2,3.8v16.6
			c0,2.1,1.4,3.8,3.2,3.8H593.3L593.3,282.6z M577.5,278.8v-16.6c0-1.4,0.9-2.5,2-2.5h13.8c1.1,0,2,1.1,2,2.5v16.6
			c0,1.4-0.9,2.5-2,2.5h-13.8C578.4,281.3,577.5,280.2,577.5,278.8z"/>
		<path class="st15" d="M583.9,272.9h5.1l1,2.8h1.8l-4.5-12.2h-1.8l-4.5,12.2h1.8L583.9,272.9z M586.4,266l1.8,5h-3.7L586.4,266z"/>
		<path class="st15" d="M605.1,284.5h-13.8c-1.7,0-3.2,1.7-3.2,3.8v16.6c0,2.1,1.4,3.8,3.2,3.8h13.8c1.7,0,3.2-1.7,3.2-3.8v-16.6
			C608.2,286.2,606.8,284.5,605.1,284.5z M607.1,304.9c0,1.4-0.9,2.5-2,2.5h-13.8c-1.1,0-2-1.1-2-2.5v-16.6c0-1.4,0.9-2.5,2-2.5
			h13.8c1.1,0,2,1.1,2,2.5V304.9L607.1,304.9z"/>
		<path class="st15" d="M599,291.4c1.2,0,2,0.5,2.9,1.5l1.1-1.4c-1-1.4-2.4-2.1-3.9-2.1c-3.2,0-5.4,2.7-5.4,6.3
			c0,3.7,2.3,6.3,5.3,6.3c1.5,0,2.8-0.7,3.9-2.1l-1.1-1.4c-1,1.2-1.8,1.5-2.8,1.5c-1.8,0-3.5-1.8-3.5-4.3
			C595.4,293.1,597,291.4,599,291.4z"/>
	</g>
	<rect x="547.3" y="316.2" class="st2" width="84.1" height="25.4"/>
	<text transform="matrix(0.9484 0 0 1 547.3337 330.4492)" class="st3 st16">$459.211</text>
</g>
<g>
	<g>
		<path class="st17" d="M331.6,160.1h-13.8c-1.7,0-3.2,1.6-3.2,3.6v15.8c0,2,1.4,3.6,3.2,3.6h13.8c1.7,0,3.2-1.6,3.2-3.6v-15.8
			C334.7,161.7,333.3,160.1,331.6,160.1z M333.6,179.5c0,1.3-0.9,2.3-2.1,2.3h-13.8c-1.1,0-2.1-1.1-2.1-2.3v-15.8
			c0-1.3,0.9-2.4,2.1-2.4h13.8c1.1,0,2.1,1.1,2.1,2.4V179.5L333.6,179.5z"/>
		<path class="st17" d="M327,170.5c1-0.5,1.5-1.1,1.5-2.5c0-1.7-1-3.1-3.6-3.1h-4v11.6h4.4c2.6,0,3.7-1.5,3.7-3.2
			C329,171.8,328.2,170.8,327,170.5z M322.6,166.8h2.2c1.1,0,1.8,0.3,1.8,1.6c0,1-0.6,1.4-1.9,1.4h-2.2L322.6,166.8L322.6,166.8z
			 M325.3,174.7h-2.7v-3.2h2.5c1.4,0,2.2,0.5,2.2,1.5C327.3,174.4,326.5,174.7,325.3,174.7z"/>
		<path class="st17" d="M343.3,158.3c1.7,0,3.2-1.6,3.2-3.6v-15.8c0-2-1.4-3.6-3.2-3.6h-13.8c-1.7,0-3.2,1.6-3.2,3.6v15.8
			c0,2,1.4,3.6,3.2,3.6H343.3L343.3,158.3z M327.4,154.7v-15.8c0-1.3,0.9-2.4,2.1-2.4h13.8c1.1,0,2.1,1.1,2.1,2.4v15.8
			c0,1.3-0.9,2.4-2.1,2.4h-13.8C328.3,157,327.4,156,327.4,154.7z"/>
		<path class="st17" d="M333.8,149.1h5.1l1,2.6h1.8l-4.5-11.6h-1.8l-4.5,11.6h1.8L333.8,149.1z M336.3,142.5l1.8,4.8h-3.7
			L336.3,142.5z"/>
		<path class="st17" d="M355,160.1h-13.8c-1.7,0-3.2,1.6-3.2,3.6v15.8c0,2,1.4,3.6,3.2,3.6H355c1.7,0,3.2-1.6,3.2-3.6v-15.8
			C358.2,161.7,356.8,160.1,355,160.1z M357.1,179.5c0,1.3-0.9,2.3-2.1,2.3h-13.8c-1.1,0-2.1-1.1-2.1-2.3v-15.8
			c0-1.3,0.9-2.4,2.1-2.4H355c1.1,0,2.1,1.1,2.1,2.4V179.5L357.1,179.5z"/>
		<path class="st17" d="M348.9,166.6c1.2,0,2,0.4,2.9,1.4l1.1-1.4c-1-1.3-2.4-2-3.9-2c-3.2,0-5.5,2.6-5.5,6c0,3.5,2.3,6,5.3,6
			c1.5,0,2.8-0.7,3.9-2l-1.1-1.3c-1,1.1-1.8,1.4-2.9,1.4c-1.8,0-3.5-1.7-3.5-4.1C345.3,168.2,346.9,166.6,348.9,166.6z"/>
	</g>
	<rect x="291.6" y="189.7" class="st2" width="93.1" height="18.8"/>
	<text transform="matrix(1.0255 0 0 1 291.5818 203.1953)" class="st3 st18">$266.430</text>
</g>
<g>
	<path class="st19" d="M748.7,297.6c-0.6-0.4-1.3-0.6-2.1-0.5c-0.4,0-0.8,0.2-1.1,0.4l3.6,1.8c-1.1,1.6-2,3.3-2.9,5.1
		c-0.6,1.2-1.1,2.6-1.5,4c-0.3,1.1-0.5,2.3-0.4,3.5c1.7-0.5,3.5-2.9,4.7-5.8c0.8-1.8,1.2-3.9,1.2-6.1
		C750,299,749.5,298.1,748.7,297.6z"/>
	<path class="st19" d="M724.5,274.4v7.4l19.9,9.1h0c1.5,0,3-0.1,4.5-0.3c3.9-0.7,6.4-2.1,6.4-3.6v-12.2l-12.2,5.3L724.5,274.4z"/>
	<polygon class="st19" points="738.6,259.1 712.3,268.3 724.5,272 743,277.6 755.3,272.3 768.9,266.4 	"/>
	<path class="st19" d="M742.6,309.3c0-0.2,0-0.3,0.1-0.5s0.1-0.4,0.1-0.6l0-0.1c0.5-1.7,1-3.3,1.8-4.8c0.4-1,0.9-1.9,1.5-2.8
		c0,0,0-0.1,0-0.1l-2.4-1.2c-0.6,0.8-1,1.6-1.4,2.6c-0.5,1.2-1,2.4-1.3,3.7l-28.1-16l-0.2,1c-0.2,1.5-0.2,3,0.6,3.5l29.6,18
		C742.5,311.3,742.4,310.5,742.6,309.3z"/>
	<path class="st19" d="M740.6,300.6c1.7-4.1,4.6-6.5,6.9-5.7l-0.1,0l-30.9-14.1c-1.2-0.6-2.8,1-3.7,3.8c-0.2,0.6-0.4,1.3-0.5,1.9
		l27.8,15.8C740.2,301.6,740.4,301.1,740.6,300.6z"/>
	<rect x="701.7" y="318.3" class="st2" width="100" height="21"/>
	<text transform="matrix(1.0255 0 0 1 701.6726 331.8594)" class="st3 st18">$588.965</text>
</g>
<rect x="659" y="188.9" class="st2" width="103.7" height="22.3"/>
<text transform="matrix(1.0255 0 0 1 658.9597 202.4131)" class="st3 st18">$540.160</text>
<g>
	<path class="st20" d="M1170.4,273.6h-3.7c-0.6-2.3-1.4-4.2-2.8-6.2l3.2-3.1c0.2-0.2,0.4-0.6,0.4-0.8c0-0.4-0.2-0.6-0.4-0.8l-4.1-4
		c-0.4-0.4-1.2-0.4-1.8,0l-3.2,3.1c-1.8-1.2-3.7-1.9-5.7-2.5v-4c0-0.6-0.6-1.2-1.2-1.2h-5.9c-0.6,0-1.2,0.6-1.2,1.2v3.9
		c-2.2,0.4-4.1,1.3-5.9,2.3l-3.4-3.3c-0.4-0.4-1.2-0.4-1.8,0l-4.1,4c-0.2,0.2-0.4,0.6-0.4,0.8c0,0.2,0.2,0.6,0.4,0.8l3.4,3.3
		c-1.2,1.9-2.2,4-2.8,6.4h-3.8c-0.6,0-1.2,0.6-1.2,1.2v5.8c0,0.6,0.6,1.2,1.2,1.2h3.7c0.3,2,1.3,3.7,2.1,5.4l3-3.6
		c-0.8-1.8-1.3-3.8-1.3-5.9c0-8,6.6-14.5,14.8-14.5s14.8,6.5,14.8,14.5s-6.6,14.5-14.8,14.5c-1.4,0-2.9-0.2-4.2-0.6l-2.9,3.3
		c0.9,0.3,1.9,0.6,2.9,0.8v3.3c0,0.6,0.6,1.2,1.2,1.2h5.9c0.6,0,1.2-0.6,1.2-1.2v-3.5c2.3-0.6,4.3-1.3,6.3-2.7l2.6,2.5
		c0.2,0.2,0.6,0.4,0.8,0.4c0.2,0,0.6-0.2,0.8-0.4l4.1-4c0.2-0.2,0.4-0.6,0.4-0.8c0-0.4-0.2-0.6-0.4-0.8l-2.6-2.5
		c1.2-1.7,1.9-3.6,2.3-5.8h3.7c0.6,0,1.2-0.6,1.2-1.2v-5.8C1171.6,274.3,1171.2,273.6,1170.4,273.6z"/>
	<path class="st20" d="M1159.8,276.3c-0.2-1.8-0.8-3.6-1.9-5.2l-7.2,8.3l-4.7-3.8l7.2-8.2c-1.7-0.7-3.4-1-5.2-0.8
		c-6,0.5-10.5,5.7-10,11.6c0.1,1.2,0.4,2.3,0.9,3.5l0.1,0.1l-17.4,20.1c-0.7,0.8-1.1,2-1,3.1c0.1,1.1,0.6,2.1,1.5,2.8s2,1.1,3.2,1
		c1.1-0.1,2.2-0.6,2.9-1.5l17.2-19.8l0.2,0.1c1.4,0.5,2.9,0.6,4.4,0.5C1155.8,287.4,1160.3,282.2,1159.8,276.3z M1125,305.7
		c-0.9,0.1-1.5-0.6-1.6-1.3c-0.1-0.8,0.6-1.5,1.4-1.6c0.9-0.1,1.5,0.6,1.6,1.3C1126.4,304.9,1125.9,305.6,1125,305.7z"/>
	<rect x="1103.7" y="317.7" class="st2" width="86.8" height="19.6"/>
	<text transform="matrix(1.0255 0 0 1 1103.6726 331.2461)" class="st3 st18">$889.527</text>
</g>
<g>
	<g>
		<path d="M1238.2,130.4c-0.5,0.6-1.2,1.4-2.1,2.4c-3.8-3.6-7.5-4.1-10.3-4.5c-8,13-17,20.6-28.8,28.7c-0.3,0-0.7,0.2-1.1,0.4
			c-2.1,1.4-3,3.8-3.5,6.7c-1.2,6.7,0.9,14.8,7.2,16.2c3.7,0.8,6.1,0.2,7.7-1.8c1.2-1.4,6.5-7.5,13.3-14.6
			c7.7-7.9,17-15.4,20.8-18.6c3.5-3,2.8-7.7,0.3-11.3c-0.9-1.4-2.1-2.6-3.3-3.4L1238.2,130.4z M1209,173.1
			c0.5-3.6,0.3-10.3,0.2-12.5c0.9-0.4,2.6-1.6,5.8-4c8.9-6.7,16.1-14.6,23.4-23.3c2.6,2.4,4.9,7.3,1.8,10.1
			c-3.7,3-13.5,10.9-21,18.6C1215.1,166.4,1211.4,170.3,1209,173.1z M1205.7,176.9c-1.1,1.4-2.8,1.8-5.6,1.2
			c-5.8-1.4-7-9.5-5.4-15.2c1.6-5.5,6.5-4.7,8-0.8l-6.3,6.3c0.2,0.6,0.5,4.6,3.7,5.5c2.3,0.8,4.2-1.6,4.9-4.4c0.3-1.8,0.5-4,0-6.5
			c-0.3-3-2.1-5.1-4.4-6.1c11-7.7,18.5-14.2,26.1-26.1c3.2,0.6,5.2,1.4,7.9,3.6c-7.3,8.5-22.4,24.5-27.4,24.5
			c0,1.2,0.5,11.3-0.2,14.8C1206.7,174.9,1206.4,176.1,1205.7,176.9z M1203.2,164.6c0.2,2.2,0,4.9-1.2,6.3c-1.2,1.8-2.8,0-3.3-1.8
			L1203.2,164.6z"/>
		<path class="st21" d="M1235.9,171.9c0,0-1.2-4.1-3.3-7.1s-6.1-4.7-6.1-4.7s2.6,3.2,3.7,7.7c1.2,4.5,1.4,6.5,1.4,6.5l-2.4-1.4
			l-1.9,4c0,0,0.9-5.3-1.2-10.1c-1.9-4.7-3.3-6.1-3.3-6.1c0.5-8.5-3.2-13-10.7-13.6l5.6-5.7c6.6-0.2,10.5,7.9,9.8,14.8
			c5.1,3.2,9.8,7.7,14,12.1l-3.8,0.8L1235.9,171.9z"/>
	</g>
	<rect x="1177.3" y="185.5" class="st2" width="92.4" height="17.8"/>
	<text transform="matrix(1.0255 0 0 1 1177.2986 199.0137)" class="st3 st18">$938.949</text>
</g>
<g>
	<g>
		<path d="M1454,263.1c-0.5,0.6-1.2,1.4-2.1,2.4c-3.8-3.6-7.5-4.2-10.3-4.5c-8,13-17,20.6-28.8,28.7c-0.3,0-0.7,0.2-1.1,0.4
			c-2.1,1.4-3,3.8-3.5,6.7c-1.2,6.7,0.9,14.8,7.2,16.2c3.7,0.8,6.1,0.2,7.7-1.8c1.2-1.4,6.5-7.5,13.3-14.6
			c7.7-7.9,17-15.4,20.8-18.6c3.5-3,2.8-7.7,0.3-11.3c-0.9-1.4-2.1-2.6-3.3-3.4L1454,263.1z M1424.8,305.8
			c0.5-3.6,0.3-10.3,0.2-12.5c0.9-0.4,2.6-1.6,5.8-4c8.9-6.7,16.1-14.6,23.4-23.3c2.6,2.4,4.9,7.3,1.8,10.1
			c-3.7,3-13.5,10.9-21,18.6C1430.9,299.1,1427.3,303,1424.8,305.8z M1421.5,309.6c-1.1,1.4-2.8,1.8-5.6,1.2
			c-5.8-1.4-7-9.5-5.4-15.2c1.6-5.5,6.5-4.7,8-0.8l-6.3,6.3c0.2,0.6,0.5,4.5,3.7,5.5c2.3,0.8,4.2-1.6,4.9-4.3c0.3-1.8,0.5-4,0-6.5
			c-0.3-3-2.1-5.1-4.4-6.1c11-7.7,18.5-14.2,26.1-26.1c3.2,0.6,5.2,1.4,7.9,3.6c-7.3,8.5-22.4,24.5-27.4,24.5
			c0,1.2,0.5,11.3-0.2,14.8C1422.5,307.6,1422.2,308.8,1421.5,309.6z M1419,297.3c0.2,2.2,0,4.9-1.2,6.3c-1.2,1.8-2.8,0-3.3-1.8
			L1419,297.3z"/>
		<path class="st21" d="M1451.7,304.6c0,0-1.2-4.2-3.3-7.1s-6.1-4.7-6.1-4.7s2.6,3.2,3.7,7.7c1.2,4.5,1.4,6.5,1.4,6.5l-2.4-1.4
			l-1.9,4c0,0,0.9-5.3-1.2-10.1c-1.9-4.7-3.3-6.1-3.3-6.1c0.5-8.5-3.2-13-10.7-13.6l5.6-5.7c6.6-0.2,10.5,7.9,9.8,14.8
			c5.1,3.2,9.8,7.7,14,12.1l-3.8,0.8L1451.7,304.6z"/>
	</g>
	<rect x="1386.7" y="321.2" class="st2" width="109" height="19.1"/>
	<text transform="matrix(1.0255 0 0 1 1386.6726 334.7207)" class="st3 st18">$1.307.210</text>
</g>
<g>
	<rect x="472.1" y="189.3" class="st2" width="99.6" height="21.9"/>
	<text transform="matrix(1.0255 0 0 1 472.1101 202.8779)" class="st3 st18">$392.807</text>
	<path class="st19" d="M529.6,170.1c-0.6-0.4-1.3-0.6-2.1-0.5c-0.4,0-0.8,0.2-1.1,0.4l3.6,1.9c-1.1,1.6-2,3.3-2.9,5.1
		c-0.6,1.2-1.1,2.6-1.5,4c-0.3,1.1-0.5,2.3-0.4,3.5c1.7-0.5,3.5-2.9,4.7-5.8c0.8-1.8,1.2-3.9,1.2-6.1
		C530.9,171.4,530.4,170.5,529.6,170.1z"/>
	<path class="st19" d="M505.4,146.9v7.4l19.9,9.1h0c1.5,0,3-0.1,4.5-0.3c3.9-0.7,6.4-2.1,6.4-3.6v-12.2l-12.2,5.3L505.4,146.9z"/>
	<polygon class="st19" points="519.5,131.5 493.2,140.8 505.4,144.4 524,150.1 536.3,144.7 549.8,138.9 	"/>
	<path class="st19" d="M523.5,181.8c0-0.2,0-0.3,0.1-0.5s0.1-0.4,0.1-0.6l0-0.1c0.5-1.7,1-3.3,1.8-4.8c0.4-1,0.9-1.9,1.5-2.8
		c0,0,0-0.1,0-0.1l-2.4-1.2c-0.6,0.8-1,1.6-1.4,2.6c-0.5,1.2-1,2.4-1.3,3.7l-28.1-16l-0.2,1c-0.2,1.5-0.2,3,0.6,3.5l29.6,18
		C523.4,183.8,523.3,182.9,523.5,181.8z"/>
	<path class="st19" d="M521.6,173c1.7-4.1,4.6-6.5,6.9-5.7l-0.1,0l-30.9-14.1c-1.2-0.6-2.8,1-3.7,3.8c-0.2,0.6-0.4,1.3-0.5,1.9
		l27.8,15.8C521.2,174.1,521.4,173.5,521.6,173z"/>
</g>
</svg>
