<?xml version="1.0" encoding="utf-8"?>
<!-- Generator: Adobe Illustrator 22.0.1, SVG Export Plug-In . SVG Version: 6.00 Build 0)  -->
<svg version="1.1" id="Capa_1" xmlns="http://www.w3.org/2000/svg" xmlns:xlink="http://www.w3.org/1999/xlink" x="0px" y="0px"
	 viewBox="0 0 1495.5 405.2" style="enable-background:new 0 0 1495.5 405.2;" xml:space="preserve">
<style type="text/css">
	.st0{opacity:0.8;fill:#DCF4F3;fill-opacity:0.8;stroke:#416190;stroke-width:5;stroke-miterlimit:5.83;}
	.st1{fill:none;stroke:#000000;stroke-width:3.0401;stroke-miterlimit:10;}
	.st2{fill:none;}
	.st3{font-family:'ArialMT';}
	.st4{font-size:16px;}
	.st5{letter-spacing:27.6;}
	.st6{letter-spacing:9.2;}
	.st7{fill:#FF0000;}
	.st8{font-size:21px;}
	.st9{font-family:'Verdana-Bold';}
	.st10{font-size:12.243px;}
	.st11{fill:#FCEE21;}
	.st12{font-size:16.6514px;}
	.st13{fill:#FF0000;stroke:#FF0000;stroke-width:1.3343;stroke-miterlimit:10;}
	.st14{font-size:18px;}
	.st15{fill:#FF0000;stroke:#FF0000;stroke-width:0.2169;stroke-miterlimit:10;}
	.st16{fill:#FF0000;stroke:#FF0000;stroke-width:0.1414;stroke-miterlimit:10;}
</style>
<path class="st0" d="M42.5,0H1453c23.5,0,42.5,19,42.5,42.5v320.2c0,23.5-19,42.5-42.5,42.5H42.5C19,405.2,0,386.2,0,362.7V42.5
	C0,19,19,0,42.5,0z"/>
<rect x="97.2" y="228.7" class="st1" width="1385.4" height="21.3"/>
<rect x="111.1" y="233" class="st2" width="1371.8" height="36.8"/>
<text transform="matrix(0.9794 0 0 1 111.1484 245.0791)" class="st3 st4">$100.000</text>
<text transform="matrix(0.9794 0 0 1 176.4941 245.0791)" class="st3 st4 st5"> </text>
<text transform="matrix(0.9794 0 0 1 209.001 245.0791)" class="st3 st4 st5"> </text>
<text transform="matrix(0.9794 0 0 1 241.6143 245.0791)" class="st3 st4">$200.000</text>
<text transform="matrix(0.9794 0 0 1 306.96 245.0791)" class="st3 st4 st5"> </text>
<text transform="matrix(0.9794 0 0 1 339.4668 245.0791)" class="st3 st4 st5"> </text>
<text transform="matrix(0.9794 0 0 1 372.0811 245.0791)" class="st3 st4">$300.000</text>
<text transform="matrix(0.9794 0 0 1 437.4258 245.0791)" class="st3 st4 st5"> </text>
<text transform="matrix(0.9794 0 0 1 469.9326 245.0791)" class="st3 st4 st5"> </text>
<text transform="matrix(0.9794 0 0 1 502.5469 245.0791)" class="st3 st4">$400.000</text>
<text transform="matrix(0.9794 0 0 1 567.8916 245.0791)" class="st3 st4 st5"> </text>
<text transform="matrix(0.9794 0 0 1 600.3984 245.0791)" class="st3 st4 st5"> </text>
<text transform="matrix(0.9794 0 0 1 633.0225 245.0791)" class="st3 st4">$500.000</text>
<text transform="matrix(0.9794 0 0 1 698.3682 245.0791)" class="st3 st4 st5"> </text>
<text transform="matrix(0.9794 0 0 1 730.8643 245.0791)" class="st3 st4 st5"> </text>
<text transform="matrix(0.9794 0 0 1 763.4883 245.0791)" class="st3 st4">$600.000</text>
<text transform="matrix(0.9794 0 0 1 828.834 245.0791)" class="st3 st4 st5"> </text>
<text transform="matrix(0.9794 0 0 1 861.3398 245.0791)" class="st3 st4 st5"> </text>
<text transform="matrix(0.9794 0 0 1 893.9541 245.0791)" class="st3 st4">$700.000</text>
<text transform="matrix(0.9794 0 0 1 959.2998 245.0791)" class="st3 st4 st5"> </text>
<text transform="matrix(0.9794 0 0 1 991.8057 245.0791)" class="st3 st4 st5"> </text>
<text transform="matrix(0.9794 0 0 1 1024.4199 245.0791)" class="st3 st4">$800.000</text>
<text transform="matrix(0.9794 0 0 1 1089.7656 245.0791)" class="st3 st4 st5"> </text>
<text transform="matrix(0.9794 0 0 1 1122.2715 245.0791)" class="st3 st4 st5"> </text>
<text transform="matrix(0.9794 0 0 1 1154.8857 245.0791)" class="st3 st4">$900.000</text>
<text transform="matrix(0.9794 0 0 1 1220.2314 245.0791)" class="st3 st4 st5"> </text>
<text transform="matrix(0.9794 0 0 1 1252.7373 245.0791)" class="st3 st4 st5"> </text>
<text transform="matrix(0.9794 0 0 1 1285.3516 245.0791)" class="st3 st4">$1.000.000 </text>
<text transform="matrix(0.9794 0 0 1 1368.1201 245.0791)" class="st3 st4 st6"> </text>
<text transform="matrix(0.9794 0 0 1 1383.2031 245.0791)" class="st3 st4 st5"> </text>
<text transform="matrix(0.9794 0 0 1 1415.8174 245.0791)" class="st3 st4">   +++</text>
<path class="st7" d="M544.9,149.7h-3.7c-0.6-2.3-1.4-4.2-2.8-6.1l3.2-3.1c0.2-0.2,0.4-0.6,0.4-0.8c0-0.4-0.2-0.6-0.4-0.8l-4.1-4
	c-0.4-0.4-1.2-0.4-1.8,0l-3.2,3.1c-1.8-1.2-3.7-1.9-5.7-2.5v-4c0-0.6-0.6-1.2-1.2-1.2h-5.9c-0.6,0-1.2,0.6-1.2,1.2v3.9
	c-2.2,0.4-4.1,1.3-5.9,2.3l-3.4-3.3c-0.4-0.4-1.2-0.4-1.8,0l-4.1,4c-0.2,0.2-0.4,0.6-0.4,0.8s0.2,0.6,0.4,0.8l3.4,3.3
	c-1.2,1.9-2.2,4-2.8,6.4h-3.8c-0.6,0-1.2,0.6-1.2,1.2v5.8c0,0.6,0.6,1.2,1.2,1.2h3.7c0.3,2,1.3,3.7,2.1,5.4l3-3.6
	c-0.8-1.8-1.3-3.8-1.3-5.9c0-8,6.6-14.5,14.8-14.5s14.8,6.5,14.8,14.5s-6.6,14.5-14.8,14.5c-1.4,0-2.9-0.2-4.2-0.6l-2.9,3.4
	c0.9,0.3,1.9,0.6,2.9,0.8v3.3c0,0.6,0.6,1.2,1.2,1.2h5.9c0.6,0,1.2-0.6,1.2-1.2v-3.5c2.3-0.6,4.3-1.3,6.3-2.7l2.6,2.5
	c0.2,0.2,0.6,0.4,0.8,0.4s0.6-0.2,0.8-0.4l4.1-4c0.2-0.2,0.4-0.6,0.4-0.8c0-0.4-0.2-0.6-0.4-0.8l-2.6-2.5c1.2-1.7,2-3.6,2.3-5.8h3.7
	c0.6,0,1.2-0.6,1.2-1.2v-5.8C546.1,150.3,545.7,149.7,544.9,149.7z"/>
<path class="st7" d="M534.3,152.3c-0.2-1.8-0.8-3.6-2-5.2l-7.2,8.3l-4.7-3.8l7.2-8.2c-1.7-0.7-3.4-1-5.2-0.8
	c-6,0.5-10.5,5.7-10,11.6c0.1,1.2,0.4,2.4,0.9,3.5l0.1,0.1L496,177.7c-0.7,0.8-1.1,2-1,3.1s0.6,2.1,1.5,2.8s2,1.1,3.2,1
	c1.1-0.1,2.2-0.6,2.9-1.5l17.2-19.8l0.2,0.1c1.4,0.5,2.9,0.6,4.4,0.5C530.3,163.4,534.8,158.2,534.3,152.3z M499.5,181.7
	c-0.9,0.1-1.5-0.6-1.6-1.3c-0.1-0.8,0.6-1.5,1.4-1.6c0.9-0.1,1.5,0.6,1.6,1.3C501,180.9,500.4,181.7,499.5,181.7z"/>
<rect x="772.2" y="372.9" class="st2" width="92" height="32.3"/>
<text transform="matrix(0.9794 0 0 1 772.167 388.6455)" class="st3 st8">$608.958</text>
<rect x="588.3" y="15.5" class="st2" width="439.9" height="108.7"/>
<text transform="matrix(1 0 0 1 754.5256 31.2891)" class="st9 st8"> MAULE Vll</text>
<text transform="matrix(1 0 0 1 580.4559 81.689)" class="st9 st8">Población:</text>
<text transform="matrix(1 0 0 1 706.7 81.689)" class="st3 st8">1.044.950   </text>
<text transform="matrix(1 0 0 1 810.1063 81.689)" class="st9 st8">Superficie:</text>
<text transform="matrix(1 0 0 1 936.7551 81.689)" class="st3 st8"> 30.296,1 km</text>
<text transform="matrix(1 0 0 1 1060.1539 72.6964)" class="st3 st10">2</text>
<rect x="813.4" y="120.2" class="st11" width="4.5" height="244"/>
<rect x="14.6" y="172.7" class="st2" width="105.4" height="23.7"/>
<text transform="matrix(0.9794 0 0 1 14.5996 184.6504)" class="st9 st12">MUJERES</text>
<rect x="14.6" y="294.2" class="st2" width="96.2" height="26"/>
<text transform="matrix(0.9794 0 0 1 14.5996 306.0947)" class="st9 st12">HOMBRES</text>
<g>
	<g>
		<path class="st13" d="M410.2,289.1h-13.8c-1.7,0-3.2,1.6-3.2,3.6v15.8c0,2,1.4,3.6,3.2,3.6h13.8c1.7,0,3.2-1.6,3.2-3.6v-15.8
			C413.4,290.7,412,289.1,410.2,289.1z M412.3,308.5c0,1.3-0.9,2.3-2.1,2.3h-13.8c-1.1,0-2.1-1.1-2.1-2.3v-15.8
			c0-1.3,0.9-2.3,2.1-2.3h13.8c1.1,0,2.1,1.1,2.1,2.3V308.5L412.3,308.5z"/>
		<path class="st13" d="M405.6,299.5c1-0.5,1.5-1.1,1.5-2.5c0-1.7-1-3.1-3.6-3.1h-4v11.6h4.4c2.6,0,3.7-1.5,3.7-3.2
			C407.7,300.8,406.9,299.8,405.6,299.5z M401.3,295.8h2.2c1.1,0,1.8,0.3,1.8,1.6c0,1-0.6,1.4-1.9,1.4h-2.2L401.3,295.8L401.3,295.8
			z M404,303.7h-2.7v-3.2h2.5c1.4,0,2.2,0.5,2.2,1.5C406,303.4,405.2,303.7,404,303.7z"/>
		<path class="st13" d="M421.9,287.3c1.7,0,3.2-1.6,3.2-3.6v-15.8c0-2-1.4-3.6-3.2-3.6h-13.8c-1.7,0-3.2,1.6-3.2,3.6v15.8
			c0,2,1.4,3.6,3.2,3.6H421.9L421.9,287.3z M406,283.7v-15.8c0-1.3,0.9-2.3,2.1-2.3h13.8c1.1,0,2.1,1.1,2.1,2.3v15.8
			c0,1.3-0.9,2.3-2.1,2.3h-13.8C407,286,406,285,406,283.7z"/>
		<path class="st13" d="M412.5,278.1h5.1l1,2.6h1.8l-4.5-11.6h-1.8l-4.5,11.6h1.8L412.5,278.1z M415,271.5l1.8,4.8h-3.7L415,271.5z"
			/>
		<path class="st13" d="M433.7,289.1h-13.8c-1.7,0-3.2,1.6-3.2,3.6v15.8c0,2,1.4,3.6,3.2,3.6h13.8c1.7,0,3.2-1.6,3.2-3.6v-15.8
			C436.9,290.7,435.4,289.1,433.7,289.1z M435.8,308.5c0,1.3-0.9,2.3-2.1,2.3h-13.8c-1.1,0-2.1-1.1-2.1-2.3v-15.8
			c0-1.3,0.9-2.3,2.1-2.3h13.8c1.1,0,2.1,1.1,2.1,2.3V308.5L435.8,308.5z"/>
		<path class="st13" d="M427.6,295.6c1.2,0,2,0.4,2.9,1.4l1.1-1.4c-1-1.3-2.4-2-3.9-2c-3.2,0-5.5,2.6-5.5,6c0,3.5,2.3,6,5.3,6
			c1.5,0,2.8-0.7,3.9-2l-1.1-1.3c-1,1.1-1.8,1.4-2.9,1.4c-1.8,0-3.5-1.7-3.5-4.1C424,297.2,425.6,295.6,427.6,295.6z"/>
	</g>
	<rect x="375.8" y="319.2" class="st2" width="84.3" height="24.1"/>
	<text transform="matrix(1 0 0 1 375.8215 332.7783)" class="st3 st14">$308.125</text>
</g>
<g>
	<g>
		<path class="st13" d="M287,166h-13.8c-1.7,0-3.2,1.6-3.2,3.6v15.8c0,2,1.4,3.6,3.2,3.6H287c1.7,0,3.2-1.6,3.2-3.6v-15.8
			C290.2,167.6,288.8,166,287,166z M289.1,185.4c0,1.3-0.9,2.3-2.1,2.3h-13.8c-1.1,0-2.1-1.1-2.1-2.3v-15.8c0-1.3,0.9-2.4,2.1-2.4
			H287c1.1,0,2.1,1.1,2.1,2.4V185.4L289.1,185.4z"/>
		<path class="st13" d="M282.4,176.4c1-0.5,1.5-1.1,1.5-2.5c0-1.7-1-3.1-3.6-3.1h-4v11.6h4.4c2.6,0,3.7-1.5,3.7-3.2
			C284.5,177.7,283.7,176.7,282.4,176.4z M278.1,172.7h2.2c1.1,0,1.8,0.3,1.8,1.6c0,1-0.6,1.4-1.9,1.4H278L278.1,172.7L278.1,172.7z
			 M280.8,180.6h-2.7v-3.2h2.5c1.4,0,2.2,0.5,2.2,1.5C282.7,180.3,282,180.6,280.8,180.6z"/>
		<path class="st13" d="M298.7,164.2c1.7,0,3.2-1.6,3.2-3.6v-15.8c0-2-1.4-3.6-3.2-3.6h-13.8c-1.7,0-3.2,1.6-3.2,3.6v15.8
			c0,2,1.4,3.6,3.2,3.6H298.7L298.7,164.2z M282.8,160.6v-15.8c0-1.3,0.9-2.4,2.1-2.4h13.8c1.1,0,2.1,1.1,2.1,2.4v15.8
			c0,1.3-0.9,2.4-2.1,2.4h-13.8C283.8,162.9,282.8,161.9,282.8,160.6z"/>
		<path class="st13" d="M289.3,155h5.1l1,2.6h1.8l-4.5-11.6h-1.8l-4.5,11.6h1.8L289.3,155z M291.8,148.4l1.8,4.8H290L291.8,148.4z"
			/>
		<path class="st13" d="M310.5,166h-13.8c-1.7,0-3.2,1.6-3.2,3.6v15.8c0,2,1.4,3.6,3.2,3.6h13.8c1.7,0,3.2-1.6,3.2-3.6v-15.8
			C313.7,167.6,312.2,166,310.5,166z M312.6,185.4c0,1.3-0.9,2.3-2.1,2.3h-13.8c-1.1,0-2.1-1.1-2.1-2.3v-15.8c0-1.3,0.9-2.4,2.1-2.4
			h13.8c1.1,0,2.1,1.1,2.1,2.4V185.4L312.6,185.4z"/>
		<path class="st13" d="M304.4,172.5c1.2,0,2,0.4,2.9,1.4l1.1-1.4c-1-1.3-2.4-2-3.9-2c-3.2,0-5.5,2.6-5.5,6c0,3.5,2.3,6,5.3,6
			c1.5,0,2.8-0.7,3.9-2l-1.1-1.3c-1,1.1-1.8,1.4-2.9,1.4c-1.8,0-3.5-1.7-3.5-4.1C300.8,174.1,302.4,172.5,304.4,172.5z"/>
	</g>
	<rect x="247.1" y="195.6" class="st2" width="93.1" height="18.8"/>
	<text transform="matrix(1.0255 0 0 1 247.0698 209.0898)" class="st3 st14">$207.774</text>
</g>
<g>
	<path class="st15" d="M543.2,300.5c-0.6-0.4-1.3-0.6-2.1-0.5c-0.4,0-0.8,0.2-1.1,0.4l3.6,1.8c-1.1,1.6-2,3.3-2.9,5.1
		c-0.6,1.2-1.1,2.6-1.5,4c-0.3,1.1-0.5,2.3-0.4,3.5c1.7-0.5,3.5-2.9,4.7-5.8c0.8-1.8,1.2-3.9,1.2-6.1
		C544.5,301.9,543.9,300.9,543.2,300.5z"/>
	<path class="st15" d="M519,277.3v7.4l19.9,9.1l0,0c1.5,0,3-0.1,4.5-0.3c3.9-0.7,6.4-2.1,6.4-3.6v-12.2l-12.2,5.3L519,277.3z"/>
	<polygon class="st15" points="533.1,262 506.7,271.2 519,274.9 537.5,280.5 549.8,275.2 563.4,269.3 	"/>
	<path class="st15" d="M537.1,312.2c0-0.2,0-0.3,0.1-0.5s0.1-0.4,0.1-0.6V311c0.5-1.7,1-3.3,1.8-4.8c0.4-1,0.9-1.9,1.5-2.8v-0.1
		l-2.4-1.2c-0.6,0.8-1,1.6-1.4,2.6c-0.5,1.2-1,2.4-1.3,3.7l-28.1-16l-0.2,1c-0.2,1.5-0.2,3,0.6,3.5l29.6,18
		C537,314.2,536.9,313.4,537.1,312.2z"/>
	<path class="st15" d="M535.1,303.4c1.7-4.1,4.6-6.5,6.9-5.7h-0.1L511,283.6c-1.2-0.6-2.8,1-3.7,3.8c-0.2,0.6-0.4,1.3-0.5,1.9
		l27.8,15.8C534.7,304.5,534.9,304,535.1,303.4z"/>
	<rect x="490.2" y="321.2" class="st2" width="100" height="21"/>
	<text transform="matrix(1.0255 0 0 1 490.1611 334.7539)" class="st3 st14">$403.448</text>
</g>
<rect x="470.4" y="194.8" class="st2" width="103.7" height="22.3"/>
<text transform="matrix(1.0255 0 0 1 470.4482 208.3076)" class="st3 st14">$371.674</text>
<g>
	<path class="st16" d="M638.9,275.5h-3.7c-0.6-2.3-1.4-4.2-2.8-6.2l3.2-3.1c0.2-0.2,0.4-0.6,0.4-0.8c0-0.4-0.2-0.6-0.4-0.8l-4.1-4
		c-0.4-0.4-1.2-0.4-1.8,0l-3.2,3.1c-1.8-1.2-3.7-1.9-5.7-2.5v-4c0-0.6-0.6-1.2-1.2-1.2h-5.9c-0.6,0-1.2,0.6-1.2,1.2v3.9
		c-2.2,0.4-4.1,1.3-5.9,2.3l-3.4-3.3c-0.4-0.4-1.2-0.4-1.8,0l-4.1,4c-0.2,0.2-0.4,0.6-0.4,0.8c0,0.2,0.2,0.6,0.4,0.8l3.4,3.3
		c-1.2,1.9-2.2,4-2.8,6.4h-3.8c-0.6,0-1.2,0.6-1.2,1.2v5.8c0,0.6,0.6,1.2,1.2,1.2h3.7c0.3,2,1.3,3.7,2.1,5.4l3-3.6
		c-0.8-1.8-1.3-3.8-1.3-5.9c0-8,6.6-14.5,14.8-14.5s14.8,6.5,14.8,14.5s-6.6,14.5-14.8,14.5c-1.4,0-2.9-0.2-4.2-0.6l-2.9,3.3
		c0.9,0.3,1.9,0.6,2.9,0.8v3.3c0,0.6,0.6,1.2,1.2,1.2h5.9c0.6,0,1.2-0.6,1.2-1.2v-3.5c2.3-0.6,4.3-1.3,6.3-2.7l2.6,2.5
		c0.2,0.2,0.6,0.4,0.8,0.4s0.6-0.2,0.8-0.4l4.1-4c0.2-0.2,0.4-0.6,0.4-0.8c0-0.4-0.2-0.6-0.4-0.8l-2.6-2.5c1.2-1.7,2-3.6,2.3-5.8
		h3.7c0.6,0,1.2-0.6,1.2-1.2v-5.8C640.1,276.1,639.7,275.5,638.9,275.5z"/>
	<path class="st16" d="M628.3,278.2c-0.2-1.8-0.8-3.6-1.9-5.2l-7.2,8.3l-4.7-3.8l7.2-8.2c-1.7-0.7-3.4-1-5.2-0.8
		c-6,0.5-10.5,5.7-10,11.6c0.1,1.2,0.4,2.3,0.9,3.5l0.1,0.1L590,303.6c-0.7,0.8-1.1,2-1,3.1s0.6,2.1,1.5,2.8s2,1.1,3.2,1
		c1.1-0.1,2.2-0.6,2.9-1.5l17.2-19.8l0.2,0.1c1.4,0.5,2.9,0.6,4.4,0.5C624.3,289.3,628.8,284.1,628.3,278.2z M593.5,307.5
		c-0.9,0.1-1.5-0.6-1.6-1.3c-0.1-0.8,0.6-1.5,1.4-1.6c0.9-0.1,1.5,0.6,1.6,1.3S594.3,307.5,593.5,307.5z"/>
	<rect x="574.2" y="319.6" class="st2" width="86.8" height="19.6"/>
	<text transform="matrix(1.0255 0 0 1 574.1611 333.1406)" class="st3 st14">$461.554</text>
</g>
<g>
	<g>
		<path d="M980.6,136.3c-0.5,0.6-1.2,1.4-2.1,2.4c-3.8-3.6-7.5-4.1-10.3-4.5c-8,13-17,20.6-28.8,28.7c-0.3,0-0.7,0.2-1.1,0.4
			c-2.1,1.4-3,3.8-3.5,6.7c-1.2,6.7,0.9,14.8,7.2,16.2c3.7,0.8,6.1,0.2,7.7-1.8c1.2-1.4,6.5-7.5,13.3-14.6
			c7.7-7.9,17-15.4,20.8-18.6c3.5-3,2.8-7.7,0.3-11.3c-0.9-1.4-2.1-2.6-3.3-3.4L980.6,136.3z M951.5,179c0.5-3.6,0.3-10.3,0.2-12.5
			c0.9-0.4,2.6-1.6,5.8-4c8.9-6.7,16.1-14.6,23.4-23.3c2.6,2.4,4.9,7.3,1.8,10.1c-3.7,3-13.5,10.9-21,18.6
			C957.6,172.3,953.9,176.2,951.5,179z M948.1,182.8c-1.1,1.4-2.8,1.8-5.6,1.2c-5.8-1.4-7-9.5-5.4-15.2c1.6-5.5,6.5-4.7,8-0.8
			l-6.3,6.3c0.2,0.6,0.5,4.6,3.7,5.5c2.3,0.8,4.2-1.6,4.9-4.4c0.3-1.8,0.5-4,0-6.5c-0.3-3-2.1-5.1-4.4-6.1
			c11-7.7,18.5-14.2,26.1-26.1c3.2,0.6,5.2,1.4,7.9,3.6c-7.3,8.5-22.4,24.5-27.4,24.5c0,1.2,0.5,11.3-0.2,14.8
			C949.2,180.8,948.8,182,948.1,182.8z M945.7,170.5c0.2,2.2,0,4.9-1.2,6.3c-1.2,1.8-2.8,0-3.3-1.8L945.7,170.5z"/>
		<path d="M978.4,177.8c0,0-1.2-4.1-3.3-7.1S969,166,969,166s2.6,3.2,3.7,7.7c1.2,4.5,1.4,6.5,1.4,6.5l-2.4-1.4l-1.9,4
			c0,0,0.9-5.3-1.2-10.1c-1.9-4.7-3.3-6.1-3.3-6.1c0.5-8.5-3.2-13-10.7-13.6l5.6-5.7c6.6-0.2,10.5,7.9,9.8,14.8
			c5.1,3.2,9.8,7.7,14,12.1l-3.8,0.8L978.4,177.8z"/>
	</g>
	<rect x="919.8" y="191.4" class="st2" width="92.4" height="17.8"/>
	<text transform="matrix(1.0255 0 0 1 919.7861 204.9082)" class="st3 st14">$735.121</text>
</g>
<g>
	<g>
		<path d="M1227.5,269c-0.5,0.6-1.2,1.4-2.1,2.4c-3.8-3.6-7.5-4.2-10.3-4.5c-8,13-17,20.6-28.8,28.7c-0.3,0-0.7,0.2-1.1,0.4
			c-2.1,1.4-3,3.8-3.5,6.7c-1.2,6.7,0.9,14.8,7.2,16.2c3.7,0.8,6.1,0.2,7.7-1.8c1.2-1.4,6.5-7.5,13.3-14.6
			c7.7-7.9,17-15.4,20.8-18.6c3.5-3,2.8-7.7,0.3-11.3c-0.9-1.4-2.1-2.6-3.3-3.4L1227.5,269z M1198.3,311.7
			c0.5-3.6,0.3-10.3,0.2-12.5c0.9-0.4,2.6-1.6,5.8-4c8.9-6.7,16.1-14.6,23.4-23.3c2.6,2.4,4.9,7.3,1.8,10.1
			c-3.7,3-13.5,10.9-21,18.6C1204.4,305,1200.7,308.9,1198.3,311.7z M1195,315.5c-1.1,1.4-2.8,1.8-5.6,1.2c-5.8-1.4-7-9.5-5.4-15.2
			c1.6-5.5,6.5-4.7,8-0.8l-6.3,6.3c0.2,0.6,0.5,4.5,3.7,5.5c2.3,0.8,4.2-1.6,4.9-4.3c0.3-1.8,0.5-4,0-6.5c-0.3-3-2.1-5.1-4.4-6.1
			c11-7.7,18.5-14.2,26.1-26.1c3.2,0.6,5.2,1.4,7.9,3.6c-7.3,8.5-22.4,24.5-27.4,24.5c0,1.2,0.5,11.3-0.2,14.8
			C1196,313.5,1195.7,314.7,1195,315.5z M1192.5,303.2c0.2,2.2,0,4.9-1.2,6.3c-1.2,1.8-2.8,0-3.3-1.8L1192.5,303.2z"/>
		<path d="M1225.2,310.5c0,0-1.2-4.2-3.3-7.1s-6.1-4.7-6.1-4.7s2.6,3.2,3.7,7.7c1.2,4.5,1.4,6.5,1.4,6.5l-2.4-1.4l-1.9,4
			c0,0,0.9-5.3-1.2-10.1c-1.9-4.7-3.3-6.1-3.3-6.1c0.5-8.5-3.2-13-10.7-13.6l5.6-5.7c6.6-0.2,10.5,7.9,9.8,14.8
			c5.1,3.2,9.8,7.7,14,12.1l-3.8,0.8L1225.2,310.5z"/>
	</g>
	<rect x="1160.2" y="327.1" class="st2" width="109" height="19.1"/>
	<text transform="matrix(1.0255 0 0 1 1160.1611 340.6152)" class="st3 st14">$904.293</text>
</g>
<g>
	<rect x="357.6" y="195.2" class="st2" width="99.6" height="21.9"/>
	<text transform="matrix(1.0255 0 0 1 357.5981 208.7725)" class="st3 st14">$296.731</text>
	<path class="st15" d="M415.1,175.9c-0.6-0.4-1.3-0.6-2.1-0.5c-0.4,0-0.8,0.2-1.1,0.4l3.6,1.9c-1.1,1.6-2,3.3-2.9,5.1
		c-0.6,1.2-1.1,2.6-1.5,4c-0.3,1.1-0.5,2.3-0.4,3.5c1.7-0.5,3.5-2.9,4.7-5.8c0.8-1.8,1.2-3.9,1.2-6.1
		C416.4,177.3,415.9,176.4,415.1,175.9z"/>
	<path class="st15" d="M390.9,152.8v7.4l19.9,9.1l0,0c1.5,0,3-0.1,4.5-0.3c3.9-0.7,6.4-2.1,6.4-3.6v-12.2l-12.2,5.3L390.9,152.8z"/>
	<polygon class="st15" points="405,137.4 378.7,146.6 390.9,150.3 409.5,156 421.8,150.6 435.3,144.8 	"/>
	<path class="st15" d="M409,187.6c0-0.2,0-0.3,0.1-0.5s0.1-0.4,0.1-0.6v-0.1c0.5-1.7,1-3.3,1.8-4.8c0.4-1,0.9-1.9,1.5-2.8v-0.1
		l-2.4-1.2c-0.6,0.8-1,1.6-1.4,2.6c-0.5,1.2-1,2.4-1.3,3.7l-28.1-16l-0.2,1c-0.2,1.5-0.2,3,0.6,3.5l29.6,18
		C408.9,189.7,408.8,188.8,409,187.6z"/>
	<path class="st15" d="M407.1,178.9c1.7-4.1,4.6-6.5,6.9-5.7h-0.1l-31-14.2c-1.2-0.6-2.8,1-3.7,3.8c-0.2,0.6-0.4,1.3-0.5,1.9
		l27.8,15.8C406.6,180,406.8,179.4,407.1,178.9z"/>
</g>
</svg>
