<?xml version="1.0" encoding="utf-8"?>
<!-- Generator: Adobe Illustrator 22.0.1, SVG Export Plug-In . SVG Version: 6.00 Build 0)  -->
<svg version="1.1" id="Capa_1" xmlns="http://www.w3.org/2000/svg" xmlns:xlink="http://www.w3.org/1999/xlink" x="0px" y="0px"
	 viewBox="0 0 1500.3 410.4" style="enable-background:new 0 0 1500.3 410.4;" xml:space="preserve">
<style type="text/css">
	.st0{opacity:0.8;fill:#DCF4F3;stroke:#416190;stroke-width:5;stroke-miterlimit:5.83;}
	.st1{fill:none;stroke:#000000;stroke-width:3.0401;stroke-miterlimit:10;}
	.st2{fill:none;}
	.st3{font-family:'ArialMT';}
	.st4{font-size:16px;}
	.st5{letter-spacing:27.6;}
	.st6{letter-spacing:9.2;}
	.st7{fill:#FF0000;}
	.st8{font-size:21px;}
	.st9{font-family:'Verdana-Bold';}
	.st10{font-size:12.243px;}
	.st11{fill:#FCEE21;}
	.st12{font-size:16.6514px;}
	.st13{fill:#FF0000;stroke:#FF0000;stroke-width:1.3343;stroke-miterlimit:10;}
	.st14{font-size:18px;}
	.st15{fill:#FF0000;stroke:#FF0000;stroke-width:0.2169;stroke-miterlimit:10;}
	.st16{fill:#FF0000;stroke:#FF0000;stroke-width:0.1414;stroke-miterlimit:10;}
</style>
<path class="st0" d="M44.8,2.7h1410.6c23.4,0,42.4,19,42.4,42.5v320.3c0,23.4-19,42.5-42.4,42.5H44.8c-23.4,0-42.4-19-42.4-42.5
	V45.2C2.4,21.7,21.4,2.7,44.8,2.7z"/>
<rect x="99.6" y="231.4" class="st1" width="1385.4" height="21.3"/>
<rect x="113.5" y="235.7" class="st2" width="1371.8" height="36.8"/>
<text transform="matrix(0.9794 0 0 1 113.5605 247.751)" class="st3 st4">$100.000</text>
<text transform="matrix(0.9794 0 0 1 178.9063 247.751)" class="st3 st4 st5"> </text>
<text transform="matrix(0.9794 0 0 1 211.4126 247.751)" class="st3 st4 st5"> </text>
<text transform="matrix(0.9794 0 0 1 244.0259 247.751)" class="st3 st4">$200.000</text>
<text transform="matrix(0.9794 0 0 1 309.3711 247.751)" class="st3 st4 st5"> </text>
<text transform="matrix(0.9794 0 0 1 341.8779 247.751)" class="st3 st4 st5"> </text>
<text transform="matrix(0.9794 0 0 1 374.4922 247.751)" class="st3 st4">$300.000</text>
<text transform="matrix(0.9794 0 0 1 439.8379 247.751)" class="st3 st4 st5"> </text>
<text transform="matrix(0.9794 0 0 1 472.3447 247.751)" class="st3 st4 st5"> </text>
<text transform="matrix(0.9794 0 0 1 504.959 247.751)" class="st3 st4">$400.000</text>
<text transform="matrix(0.9794 0 0 1 570.3027 247.751)" class="st3 st4 st5"> </text>
<text transform="matrix(0.9794 0 0 1 602.8105 247.751)" class="st3 st4 st5"> </text>
<text transform="matrix(0.9794 0 0 1 635.4336 247.751)" class="st3 st4">$500.000</text>
<text transform="matrix(0.9794 0 0 1 700.7793 247.751)" class="st3 st4 st5"> </text>
<text transform="matrix(0.9794 0 0 1 733.2754 247.751)" class="st3 st4 st5"> </text>
<text transform="matrix(0.9794 0 0 1 765.9004 247.751)" class="st3 st4">$600.000</text>
<text transform="matrix(0.9794 0 0 1 831.2461 247.751)" class="st3 st4 st5"> </text>
<text transform="matrix(0.9794 0 0 1 863.752 247.751)" class="st3 st4 st5"> </text>
<text transform="matrix(0.9794 0 0 1 896.3652 247.751)" class="st3 st4">$700.000</text>
<text transform="matrix(0.9794 0 0 1 961.7109 247.751)" class="st3 st4 st5"> </text>
<text transform="matrix(0.9794 0 0 1 994.2168 247.751)" class="st3 st4 st5"> </text>
<text transform="matrix(0.9794 0 0 1 1026.832 247.751)" class="st3 st4">$800.000</text>
<text transform="matrix(0.9794 0 0 1 1092.1777 247.751)" class="st3 st4 st5"> </text>
<text transform="matrix(0.9794 0 0 1 1124.6836 247.751)" class="st3 st4 st5"> </text>
<text transform="matrix(0.9794 0 0 1 1157.2969 247.751)" class="st3 st4">$900.000</text>
<text transform="matrix(0.9794 0 0 1 1222.6426 247.751)" class="st3 st4 st5"> </text>
<text transform="matrix(0.9794 0 0 1 1255.1484 247.751)" class="st3 st4 st5"> </text>
<text transform="matrix(0.9794 0 0 1 1287.7637 247.751)" class="st3 st4">$1.000.000 </text>
<text transform="matrix(0.9794 0 0 1 1370.5313 247.751)" class="st3 st4 st6"> </text>
<text transform="matrix(0.9794 0 0 1 1385.6152 247.751)" class="st3 st4 st5"> </text>
<text transform="matrix(0.9794 0 0 1 1418.2285 247.751)" class="st3 st4">   +++</text>
<path class="st7" d="M547.3,152.4h-3.7c-0.6-2.3-1.4-4.2-2.8-6.1l3.2-3.1c0.2-0.2,0.4-0.6,0.4-0.8c0-0.4-0.2-0.6-0.4-0.8l-4.1-4
	c-0.4-0.4-1.2-0.4-1.8,0l-3.2,3.1c-1.8-1.2-3.7-1.9-5.7-2.5v-4c0-0.6-0.6-1.2-1.2-1.2h-5.9c-0.6,0-1.2,0.6-1.2,1.2v3.9
	c-2.2,0.4-4.1,1.3-5.9,2.3l-3.4-3.3c-0.4-0.4-1.2-0.4-1.8,0l-4.1,4c-0.2,0.2-0.4,0.6-0.4,0.8s0.2,0.6,0.4,0.8l3.4,3.3
	c-1.2,1.9-2.2,4-2.8,6.4h-3.8c-0.6,0-1.2,0.6-1.2,1.2v5.8c0,0.6,0.6,1.2,1.2,1.2h3.7c0.3,2,1.3,3.7,2.1,5.4l3-3.6
	c-0.8-1.8-1.3-3.8-1.3-5.9c0-8,6.6-14.5,14.8-14.5s14.8,6.5,14.8,14.5S533,171,524.8,171c-1.4,0-2.9-0.2-4.2-0.6l-2.9,3.4
	c0.9,0.3,1.9,0.6,2.9,0.8v3.3c0,0.6,0.6,1.2,1.2,1.2h5.9c0.6,0,1.2-0.6,1.2-1.2v-3.5c2.3-0.6,4.3-1.3,6.3-2.7l2.6,2.5
	c0.2,0.2,0.6,0.4,0.8,0.4s0.6-0.2,0.8-0.4l4.1-4c0.2-0.2,0.4-0.6,0.4-0.8c0-0.4-0.2-0.6-0.4-0.8l-2.6-2.5c1.2-1.7,2-3.6,2.3-5.8h3.7
	c0.6,0,1.2-0.6,1.2-1.2v-5.8C548.5,153,548.1,152.4,547.3,152.4z"/>
<path class="st7" d="M536.7,155c-0.2-1.8-0.8-3.6-2-5.2l-7.2,8.3l-4.7-3.8l7.2-8.2c-1.7-0.7-3.4-1-5.2-0.8c-6,0.5-10.5,5.7-10,11.6
	c0.1,1.2,0.4,2.4,0.9,3.5l0.1,0.1l-17.4,19.9c-0.7,0.8-1.1,2-1,3.1s0.6,2.1,1.5,2.8s2,1.1,3.2,1c1.1-0.1,2.2-0.6,2.9-1.5l17.2-19.8
	l0.2,0.1c1.4,0.5,2.9,0.6,4.4,0.5C532.7,166.1,537.2,160.9,536.7,155z M501.9,184.4c-0.9,0.1-1.5-0.6-1.6-1.3
	c-0.1-0.8,0.6-1.5,1.4-1.6c0.9-0.1,1.5,0.6,1.6,1.3C503.4,183.6,502.8,184.4,501.9,184.4z"/>
<rect x="774.6" y="375.6" class="st2" width="92" height="32.3"/>
<text transform="matrix(0.9794 0 0 1 774.5781 391.3174)" class="st3 st8">$608.958</text>
<rect x="590.7" y="18.2" class="st2" width="439.9" height="108.7"/>
<text transform="matrix(1 0 0 1 756.9377 33.9609)" class="st9 st8"> MAULE Vll</text>
<text transform="matrix(1 0 0 1 582.868 84.3608)" class="st9 st8">Población:</text>
<text transform="matrix(1 0 0 1 709.1121 84.3608)" class="st3 st8">1.044.950   </text>
<text transform="matrix(1 0 0 1 812.5184 84.3608)" class="st9 st8">Superficie:</text>
<text transform="matrix(1 0 0 1 939.1672 84.3608)" class="st3 st8"> 30.296,1 km</text>
<text transform="matrix(1 0 0 1 1062.566 75.3681)" class="st3 st10">2</text>
<rect x="815.8" y="122.9" class="st11" width="4.5" height="244"/>
<rect x="17" y="175.4" class="st2" width="105.4" height="23.7"/>
<text transform="matrix(0.9794 0 0 1 17.0112 187.3223)" class="st9 st12">MUJERES</text>
<rect x="17" y="296.9" class="st2" width="96.2" height="26"/>
<text transform="matrix(0.9794 0 0 1 17.0112 308.7666)" class="st9 st12">HOMBRES</text>
<g>
	<g>
		<path class="st13" d="M412.6,291.8h-13.8c-1.7,0-3.2,1.6-3.2,3.6v15.8c0,2,1.4,3.6,3.2,3.6h13.8c1.7,0,3.2-1.6,3.2-3.6v-15.8
			C415.8,293.4,414.4,291.8,412.6,291.8z M414.7,311.2c0,1.3-0.9,2.3-2.1,2.3h-13.8c-1.1,0-2.1-1.1-2.1-2.3v-15.8
			c0-1.3,0.9-2.3,2.1-2.3h13.8c1.1,0,2.1,1.1,2.1,2.3V311.2L414.7,311.2z"/>
		<path class="st13" d="M408,302.2c1-0.5,1.5-1.1,1.5-2.5c0-1.7-1-3.1-3.6-3.1h-4v11.6h4.4c2.6,0,3.7-1.5,3.7-3.2
			C410.1,303.5,409.3,302.5,408,302.2z M403.7,298.5h2.2c1.1,0,1.8,0.3,1.8,1.6c0,1-0.6,1.4-1.9,1.4h-2.2L403.7,298.5L403.7,298.5z
			 M406.4,306.4h-2.7v-3.2h2.5c1.4,0,2.2,0.5,2.2,1.5C408.4,306.1,407.6,306.4,406.4,306.4z"/>
		<path class="st13" d="M424.3,290c1.7,0,3.2-1.6,3.2-3.6v-15.8c0-2-1.4-3.6-3.2-3.6h-13.8c-1.7,0-3.2,1.6-3.2,3.6v15.8
			c0,2,1.4,3.6,3.2,3.6H424.3L424.3,290z M408.4,286.4v-15.8c0-1.3,0.9-2.3,2.1-2.3h13.8c1.1,0,2.1,1.1,2.1,2.3v15.8
			c0,1.3-0.9,2.3-2.1,2.3h-13.8C409.4,288.7,408.4,287.7,408.4,286.4z"/>
		<path class="st13" d="M414.9,280.8h5.1l1,2.6h1.8l-4.5-11.6h-1.8l-4.5,11.6h1.8L414.9,280.8z M417.4,274.2l1.8,4.8h-3.7
			L417.4,274.2z"/>
		<path class="st13" d="M436.1,291.8h-13.8c-1.7,0-3.2,1.6-3.2,3.6v15.8c0,2,1.4,3.6,3.2,3.6h13.8c1.7,0,3.2-1.6,3.2-3.6v-15.8
			C439.3,293.4,437.8,291.8,436.1,291.8z M438.2,311.2c0,1.3-0.9,2.3-2.1,2.3h-13.8c-1.1,0-2.1-1.1-2.1-2.3v-15.8
			c0-1.3,0.9-2.3,2.1-2.3h13.8c1.1,0,2.1,1.1,2.1,2.3V311.2L438.2,311.2z"/>
		<path class="st13" d="M430,298.3c1.2,0,2,0.4,2.9,1.4l1.1-1.4c-1-1.3-2.4-2-3.9-2c-3.2,0-5.5,2.6-5.5,6c0,3.5,2.3,6,5.3,6
			c1.5,0,2.8-0.7,3.9-2l-1.1-1.3c-1,1.1-1.8,1.4-2.9,1.4c-1.8,0-3.5-1.7-3.5-4.1C426.4,299.9,428,298.3,430,298.3z"/>
	</g>
	<rect x="378.2" y="321.9" class="st2" width="84.3" height="24.1"/>
	<text transform="matrix(1 0 0 1 378.2336 335.45)" class="st3 st14">$308.125</text>
</g>
<g>
	<g>
		<path class="st13" d="M289.4,168.7h-13.8c-1.7,0-3.2,1.6-3.2,3.6v15.8c0,2,1.4,3.6,3.2,3.6h13.8c1.7,0,3.2-1.6,3.2-3.6v-15.8
			C292.6,170.3,291.2,168.7,289.4,168.7z M291.5,188.1c0,1.3-0.9,2.3-2.1,2.3h-13.8c-1.1,0-2.1-1.1-2.1-2.3v-15.8
			c0-1.3,0.9-2.4,2.1-2.4h13.8c1.1,0,2.1,1.1,2.1,2.4V188.1L291.5,188.1z"/>
		<path class="st13" d="M284.8,179.1c1-0.5,1.5-1.1,1.5-2.5c0-1.7-1-3.1-3.6-3.1h-4v11.6h4.4c2.6,0,3.7-1.5,3.7-3.2
			C286.9,180.4,286.1,179.4,284.8,179.1z M280.5,175.4h2.2c1.1,0,1.8,0.3,1.8,1.6c0,1-0.6,1.4-1.9,1.4h-2.2L280.5,175.4L280.5,175.4
			z M283.2,183.3h-2.7v-3.2h2.5c1.4,0,2.2,0.5,2.2,1.5C285.1,183,284.4,183.3,283.2,183.3z"/>
		<path class="st13" d="M301.1,166.9c1.7,0,3.2-1.6,3.2-3.6v-15.8c0-2-1.4-3.6-3.2-3.6h-13.8c-1.7,0-3.2,1.6-3.2,3.6v15.8
			c0,2,1.4,3.6,3.2,3.6H301.1L301.1,166.9z M285.2,163.3v-15.8c0-1.3,0.9-2.4,2.1-2.4h13.8c1.1,0,2.1,1.1,2.1,2.4v15.8
			c0,1.3-0.9,2.4-2.1,2.4h-13.8C286.2,165.6,285.2,164.6,285.2,163.3z"/>
		<path class="st13" d="M291.7,157.7h5.1l1,2.6h1.8l-4.5-11.6h-1.8l-4.5,11.6h1.8L291.7,157.7z M294.2,151.1l1.8,4.8h-3.6
			L294.2,151.1z"/>
		<path class="st13" d="M312.9,168.7h-13.8c-1.7,0-3.2,1.6-3.2,3.6v15.8c0,2,1.4,3.6,3.2,3.6h13.8c1.7,0,3.2-1.6,3.2-3.6v-15.8
			C316.1,170.3,314.6,168.7,312.9,168.7z M315,188.1c0,1.3-0.9,2.3-2.1,2.3h-13.8c-1.1,0-2.1-1.1-2.1-2.3v-15.8
			c0-1.3,0.9-2.4,2.1-2.4h13.8c1.1,0,2.1,1.1,2.1,2.4V188.1L315,188.1z"/>
		<path class="st13" d="M306.8,175.2c1.2,0,2,0.4,2.9,1.4l1.1-1.4c-1-1.3-2.4-2-3.9-2c-3.2,0-5.5,2.6-5.5,6c0,3.5,2.3,6,5.3,6
			c1.5,0,2.8-0.7,3.9-2l-1.1-1.3c-1,1.1-1.8,1.4-2.9,1.4c-1.8,0-3.5-1.7-3.5-4.1C303.2,176.8,304.8,175.2,306.8,175.2z"/>
	</g>
	<rect x="249.5" y="198.3" class="st2" width="93.1" height="18.8"/>
	<text transform="matrix(1.0255 0 0 1 249.4819 211.7617)" class="st3 st14">$207.774</text>
</g>
<g>
	<path class="st15" d="M545.6,303.2c-0.6-0.4-1.3-0.6-2.1-0.5c-0.4,0-0.8,0.2-1.1,0.4l3.6,1.8c-1.1,1.6-2,3.3-2.9,5.1
		c-0.6,1.2-1.1,2.6-1.5,4c-0.3,1.1-0.5,2.3-0.4,3.5c1.7-0.5,3.5-2.9,4.7-5.8c0.8-1.8,1.2-3.9,1.2-6.1
		C546.9,304.6,546.3,303.6,545.6,303.2z"/>
	<path class="st15" d="M521.4,280v7.4l19.9,9.1l0,0c1.5,0,3-0.1,4.5-0.3c3.9-0.7,6.4-2.1,6.4-3.6v-12.2l-12.2,5.3L521.4,280z"/>
	<polygon class="st15" points="535.5,264.7 509.1,273.9 521.4,277.6 539.9,283.2 552.2,277.9 565.8,272 	"/>
	<path class="st15" d="M539.5,314.9c0-0.2,0-0.3,0.1-0.5s0.1-0.4,0.1-0.6v-0.1c0.5-1.7,1-3.3,1.8-4.8c0.4-1,0.9-1.9,1.5-2.8V306
		l-2.4-1.2c-0.6,0.8-1,1.6-1.4,2.6c-0.5,1.2-1,2.4-1.3,3.7l-28.1-16l-0.2,1c-0.2,1.5-0.2,3,0.6,3.5l29.6,18
		C539.4,316.9,539.3,316.1,539.5,314.9z"/>
	<path class="st15" d="M537.5,306.1c1.7-4.1,4.6-6.5,6.9-5.7h-0.1l-30.9-14.1c-1.2-0.6-2.8,1-3.7,3.8c-0.2,0.6-0.4,1.3-0.5,1.9
		l27.8,15.8C537.1,307.2,537.3,306.7,537.5,306.1z"/>
	<rect x="492.6" y="323.9" class="st2" width="100" height="21"/>
	<text transform="matrix(1.0255 0 0 1 492.5732 337.4258)" class="st3 st14">$403.448</text>
</g>
<rect x="472.8" y="197.5" class="st2" width="103.7" height="22.3"/>
<text transform="matrix(1.0255 0 0 1 472.8604 210.9795)" class="st3 st14">$371.674</text>
<g>
	<path class="st16" d="M641.3,278.2h-3.7c-0.6-2.3-1.4-4.2-2.8-6.2l3.2-3.1c0.2-0.2,0.4-0.6,0.4-0.8c0-0.4-0.2-0.6-0.4-0.8l-4.1-4
		c-0.4-0.4-1.2-0.4-1.8,0l-3.2,3.1c-1.8-1.2-3.7-1.9-5.7-2.5v-4c0-0.6-0.6-1.2-1.2-1.2h-5.9c-0.6,0-1.2,0.6-1.2,1.2v3.9
		c-2.2,0.4-4.1,1.3-5.9,2.3l-3.4-3.3c-0.4-0.4-1.2-0.4-1.8,0l-4.1,4c-0.2,0.2-0.4,0.6-0.4,0.8c0,0.2,0.2,0.6,0.4,0.8l3.4,3.3
		c-1.2,1.9-2.2,4-2.8,6.4h-3.8c-0.6,0-1.2,0.6-1.2,1.2v5.8c0,0.6,0.6,1.2,1.2,1.2h3.7c0.3,2,1.3,3.7,2.1,5.4l3-3.6
		c-0.8-1.8-1.3-3.8-1.3-5.9c0-8,6.6-14.5,14.8-14.5s14.8,6.5,14.8,14.5s-6.6,14.5-14.8,14.5c-1.4,0-2.9-0.2-4.2-0.6l-2.9,3.3
		c0.9,0.3,1.9,0.6,2.9,0.8v3.3c0,0.6,0.6,1.2,1.2,1.2h5.9c0.6,0,1.2-0.6,1.2-1.2V300c2.3-0.6,4.3-1.3,6.3-2.7l2.6,2.5
		c0.2,0.2,0.6,0.4,0.8,0.4s0.6-0.2,0.8-0.4l4.1-4c0.2-0.2,0.4-0.6,0.4-0.8c0-0.4-0.2-0.6-0.4-0.8l-2.6-2.5c1.2-1.7,2-3.6,2.3-5.8
		h3.7c0.6,0,1.2-0.6,1.2-1.2v-5.8C642.5,278.8,642.1,278.2,641.3,278.2z"/>
	<path class="st16" d="M630.7,280.9c-0.2-1.8-0.8-3.6-1.9-5.2l-7.2,8.3l-4.7-3.8l7.2-8.2c-1.7-0.7-3.4-1-5.2-0.8
		c-6,0.5-10.5,5.7-10,11.6c0.1,1.2,0.4,2.3,0.9,3.5l0.1,0.1l-17.5,19.9c-0.7,0.8-1.1,2-1,3.1s0.6,2.1,1.5,2.8s2,1.1,3.2,1
		c1.1-0.1,2.2-0.6,2.9-1.5l17.2-19.8l0.2,0.1c1.4,0.5,2.9,0.6,4.4,0.5C626.7,292,631.2,286.8,630.7,280.9z M595.9,310.2
		c-0.9,0.1-1.5-0.6-1.6-1.3c-0.1-0.8,0.6-1.5,1.4-1.6c0.9-0.1,1.5,0.6,1.6,1.3S596.7,310.2,595.9,310.2z"/>
	<rect x="576.6" y="322.3" class="st2" width="86.8" height="19.6"/>
	<text transform="matrix(1.0255 0 0 1 576.5732 335.8125)" class="st3 st14">$461.554</text>
</g>
<g>
	<g>
		<path d="M983,139c-0.5,0.6-1.2,1.4-2.1,2.4c-3.8-3.6-7.5-4.1-10.3-4.5c-8,13-17,20.6-28.8,28.7c-0.3,0-0.7,0.2-1.1,0.4
			c-2.1,1.4-3,3.8-3.5,6.7c-1.2,6.7,0.9,14.8,7.2,16.2c3.7,0.8,6.1,0.2,7.7-1.8c1.2-1.4,6.5-7.5,13.3-14.6
			c7.7-7.9,17-15.4,20.8-18.6c3.5-3,2.8-7.7,0.3-11.3c-0.9-1.4-2.1-2.6-3.3-3.4L983,139z M953.9,181.7c0.5-3.6,0.3-10.3,0.2-12.5
			c0.9-0.4,2.6-1.6,5.8-4c8.9-6.7,16.1-14.6,23.4-23.3c2.6,2.4,4.9,7.3,1.8,10.1c-3.7,3-13.5,10.9-21,18.6
			C960,175,956.3,178.9,953.9,181.7z M950.5,185.5c-1.1,1.4-2.8,1.8-5.6,1.2c-5.8-1.4-7-9.5-5.4-15.2c1.6-5.5,6.5-4.7,8-0.8
			l-6.3,6.3c0.2,0.6,0.5,4.6,3.7,5.5c2.3,0.8,4.2-1.6,4.9-4.4c0.3-1.8,0.5-4,0-6.5c-0.3-3-2.1-5.1-4.4-6.1
			c11-7.7,18.5-14.2,26.1-26.1c3.2,0.6,5.2,1.4,7.9,3.6c-7.3,8.5-22.4,24.5-27.4,24.5c0,1.2,0.5,11.3-0.2,14.8
			C951.6,183.5,951.2,184.7,950.5,185.5z M948.1,173.2c0.2,2.2,0,4.9-1.2,6.3c-1.2,1.8-2.8,0-3.3-1.8L948.1,173.2z"/>
		<path d="M980.8,180.5c0,0-1.2-4.1-3.3-7.1s-6.1-4.7-6.1-4.7s2.6,3.2,3.7,7.7c1.2,4.5,1.4,6.5,1.4,6.5l-2.4-1.4l-1.9,4
			c0,0,0.9-5.3-1.2-10.1c-1.9-4.7-3.3-6.1-3.3-6.1c0.5-8.5-3.2-13-10.7-13.6l5.6-5.7c6.6-0.2,10.5,7.9,9.8,14.8
			c5.1,3.2,9.8,7.7,14,12.1l-3.8,0.8L980.8,180.5z"/>
	</g>
	<rect x="922.2" y="194.1" class="st2" width="92.4" height="17.8"/>
	<text transform="matrix(1.0255 0 0 1 922.1982 207.5801)" class="st3 st14">$735.121</text>
</g>
<g>
	<g>
		<path d="M1229.9,271.7c-0.5,0.6-1.2,1.4-2.1,2.4c-3.8-3.6-7.5-4.2-10.3-4.5c-8,13-17,20.6-28.8,28.7c-0.3,0-0.7,0.2-1.1,0.4
			c-2.1,1.4-3,3.8-3.5,6.7c-1.2,6.7,0.9,14.8,7.2,16.2c3.7,0.8,6.1,0.2,7.7-1.8c1.2-1.4,6.5-7.5,13.3-14.6
			c7.7-7.9,17-15.4,20.8-18.6c3.5-3,2.8-7.7,0.3-11.3c-0.9-1.4-2.1-2.6-3.3-3.4L1229.9,271.7z M1200.7,314.4
			c0.5-3.6,0.3-10.3,0.2-12.5c0.9-0.4,2.6-1.6,5.8-4c8.9-6.7,16.1-14.6,23.4-23.3c2.6,2.4,4.9,7.3,1.8,10.1
			c-3.7,3-13.5,10.9-21,18.6C1206.8,307.7,1203.1,311.6,1200.7,314.4z M1197.4,318.2c-1.1,1.4-2.8,1.8-5.6,1.2
			c-5.8-1.4-7-9.5-5.4-15.2c1.6-5.5,6.5-4.7,8-0.8l-6.3,6.3c0.2,0.6,0.5,4.5,3.7,5.5c2.3,0.8,4.2-1.6,4.9-4.3c0.3-1.8,0.5-4,0-6.5
			c-0.3-3-2.1-5.1-4.4-6.1c11-7.7,18.5-14.2,26.1-26.1c3.2,0.6,5.2,1.4,7.9,3.6c-7.3,8.5-22.4,24.5-27.4,24.5
			c0,1.2,0.5,11.3-0.2,14.8C1198.4,316.2,1198.1,317.4,1197.4,318.2z M1194.9,305.9c0.2,2.2,0,4.9-1.2,6.3c-1.2,1.8-2.8,0-3.3-1.8
			L1194.9,305.9z"/>
		<path d="M1227.6,313.2c0,0-1.2-4.2-3.3-7.1s-6.1-4.7-6.1-4.7s2.6,3.2,3.7,7.7c1.2,4.5,1.4,6.5,1.4,6.5l-2.4-1.4l-1.9,4
			c0,0,0.9-5.3-1.2-10.1c-1.9-4.7-3.3-6.1-3.3-6.1c0.5-8.5-3.2-13-10.7-13.6l5.6-5.7c6.6-0.2,10.5,7.9,9.8,14.8
			c5.1,3.2,9.8,7.7,14,12.1l-3.8,0.8L1227.6,313.2z"/>
	</g>
	<rect x="1162.6" y="329.8" class="st2" width="109" height="19.1"/>
	<text transform="matrix(1.0255 0 0 1 1162.5723 343.2871)" class="st3 st14">$904.293</text>
</g>
<g>
	<rect x="360" y="197.9" class="st2" width="99.6" height="21.9"/>
	<text transform="matrix(1.0255 0 0 1 360.0107 211.4443)" class="st3 st14">$296.731</text>
	<path class="st15" d="M417.5,178.6c-0.6-0.4-1.3-0.6-2.1-0.5c-0.4,0-0.8,0.2-1.1,0.4l3.6,1.9c-1.1,1.6-2,3.3-2.9,5.1
		c-0.6,1.2-1.1,2.6-1.5,4c-0.3,1.1-0.5,2.3-0.4,3.5c1.7-0.5,3.5-2.9,4.7-5.8c0.8-1.8,1.2-3.9,1.2-6.1
		C418.8,180,418.3,179.1,417.5,178.6z"/>
	<path class="st15" d="M393.3,155.5v7.4l19.9,9.1l0,0c1.5,0,3-0.1,4.5-0.3c3.9-0.7,6.4-2.1,6.4-3.6v-12.2l-12.2,5.3L393.3,155.5z"/>
	<polygon class="st15" points="407.4,140.1 381.1,149.3 393.3,153 411.9,158.7 424.2,153.3 437.7,147.5 	"/>
	<path class="st15" d="M411.4,190.3c0-0.2,0-0.3,0.1-0.5s0.1-0.4,0.1-0.6v-0.1c0.5-1.7,1-3.3,1.8-4.8c0.4-1,0.9-1.9,1.5-2.8v-0.1
		l-2.4-1.2c-0.6,0.8-1,1.6-1.4,2.6c-0.5,1.2-1,2.4-1.3,3.7l-28.1-16l-0.2,1c-0.2,1.5-0.2,3,0.6,3.5l29.6,18
		C411.3,192.4,411.2,191.5,411.4,190.3z"/>
	<path class="st15" d="M409.5,181.6c1.7-4.1,4.6-6.5,6.9-5.7h-0.1l-31-14.2c-1.2-0.6-2.8,1-3.7,3.8c-0.2,0.6-0.4,1.3-0.5,1.9
		l27.8,15.8C409,182.7,409.2,182.1,409.5,181.6z"/>
</g>
</svg>
