<?xml version="1.0" encoding="utf-8"?>
<!-- Generator: Adobe Illustrator 24.2.3, SVG Export Plug-In . SVG Version: 6.00 Build 0)  -->
<svg version="1.1" id="Capa_1" xmlns="http://www.w3.org/2000/svg" xmlns:xlink="http://www.w3.org/1999/xlink" x="0px" y="0px"
	 viewBox="0 0 1495.5 407.5" style="enable-background:new 0 0 1495.5 407.5;" xml:space="preserve">
<style type="text/css">
	.st0{fill:#DCF4F3;fill-opacity:0.8;stroke:#416190;stroke-width:5;stroke-miterlimit:5.83;}
	.st1{fill:none;stroke:#000000;stroke-width:3.0401;stroke-miterlimit:10;}
	.st2{fill:none;}
	.st3{font-family:'Optima-Bold';}
	.st4{font-size:16px;}
	.st5{letter-spacing:27.6;}
	.st6{letter-spacing:9.2;}
	.st7{fill:#FF0000;}
	.st8{font-size:21px;}
	.st9{font-family:'Verdana-Bold';}
	.st10{font-family:'Optima-Regular';}
	.st11{enable-background:new    ;}
	.st12{font-size:12.243px;}
	.st13{fill:#FCEE21;}
	.st14{font-size:16.6514px;}
	.st15{fill:#FF0000;stroke:#FF0000;stroke-width:1.3664;stroke-miterlimit:10;}
	.st16{font-size:18.9273px;}
	.st17{fill:#FF0000;stroke:#FF0000;stroke-width:1.3343;stroke-miterlimit:10;}
	.st18{font-size:18px;}
	.st19{fill:#FF0000;stroke:#FF0000;stroke-width:0.2169;stroke-miterlimit:10;}
	.st20{fill:#FF0000;stroke:#FF0000;stroke-width:0.1414;stroke-miterlimit:10;}
	.st21{fill-rule:evenodd;clip-rule:evenodd;}
</style>
<rect class="st0" width="1495.5" height="405.2"/>
<rect x="90.8" y="231" class="st1" width="1385.4" height="21.3"/>
<rect x="104.7" y="235.4" class="st2" width="1371.8" height="36.8"/>
<text transform="matrix(0.9794 0 0 1 104.7329 247.4005)" class="st3 st4">$100.000</text>
<text transform="matrix(0.9794 0 0 1 170.0776 247.4005)" class="st3 st4 st5"> </text>
<text transform="matrix(0.9794 0 0 1 202.5844 247.4005)" class="st3 st4 st5"> </text>
<text transform="matrix(0.9794 0 0 1 235.1987 247.4005)" class="st3 st4">$200.000</text>
<text transform="matrix(0.9794 0 0 1 300.5434 247.4005)" class="st3 st4 st5"> </text>
<text transform="matrix(0.9794 0 0 1 333.0503 247.4005)" class="st3 st4 st5"> </text>
<text transform="matrix(0.9794 0 0 1 365.6645 247.4005)" class="st3 st4">$300.000</text>
<text transform="matrix(0.9794 0 0 1 431.0102 247.4005)" class="st3 st4 st5"> </text>
<text transform="matrix(0.9794 0 0 1 463.5161 247.4005)" class="st3 st4 st5"> </text>
<text transform="matrix(0.9794 0 0 1 496.1303 247.4005)" class="st3 st4">$400.000</text>
<text transform="matrix(0.9794 0 0 1 561.476 247.4005)" class="st3 st4 st5"> </text>
<text transform="matrix(0.9794 0 0 1 593.9819 247.4005)" class="st3 st4 st5"> </text>
<text transform="matrix(0.9794 0 0 1 626.6059 247.4005)" class="st3 st4">$500.000</text>
<text transform="matrix(0.9794 0 0 1 691.9516 247.4005)" class="st3 st4 st5"> </text>
<text transform="matrix(0.9794 0 0 1 724.4477 247.4005)" class="st3 st4 st5"> </text>
<text transform="matrix(0.9794 0 0 1 757.0717 247.4005)" class="st3 st4">$600.000</text>
<text transform="matrix(0.9794 0 0 1 822.4174 247.4005)" class="st3 st4 st5"> </text>
<text transform="matrix(0.9794 0 0 1 854.9233 247.4005)" class="st3 st4 st5"> </text>
<text transform="matrix(0.9794 0 0 1 887.5375 247.4005)" class="st3 st4">$700.000</text>
<text transform="matrix(0.9794 0 0 1 952.8832 247.4005)" class="st3 st4 st5"> </text>
<text transform="matrix(0.9794 0 0 1 985.3891 247.4005)" class="st3 st4 st5"> </text>
<text transform="matrix(0.9794 0 0 1 1018.0034 247.4005)" class="st3 st4">$800.000</text>
<text transform="matrix(0.9794 0 0 1 1083.3491 247.4005)" class="st3 st4 st5"> </text>
<text transform="matrix(0.9794 0 0 1 1115.855 247.4005)" class="st3 st4 st5"> </text>
<text transform="matrix(0.9794 0 0 1 1148.4692 247.4005)" class="st3 st4">$900.000</text>
<text transform="matrix(0.9794 0 0 1 1213.8149 247.4005)" class="st3 st4 st5"> </text>
<text transform="matrix(0.9794 0 0 1 1246.3208 247.4005)" class="st3 st4 st5"> </text>
<text transform="matrix(0.9794 0 0 1 1278.9351 247.4005)" class="st3 st4">$1.000.000 </text>
<text transform="matrix(0.9794 0 0 1 1361.7046 247.4005)" class="st3 st4 st6"> </text>
<text transform="matrix(0.9794 0 0 1 1376.7866 247.4005)" class="st3 st4 st5"> </text>
<text transform="matrix(0.9794 0 0 1 1409.4009 247.4005)" class="st3 st4">   +++</text>
<path class="st7" d="M718.5,152h-3.7c-0.6-2.3-1.4-4.2-2.8-6.1l3.2-3.1c0.2-0.2,0.4-0.6,0.4-0.8c0-0.4-0.2-0.6-0.4-0.8l-4.1-4
	c-0.4-0.4-1.2-0.4-1.8,0l-3.2,3.1c-1.8-1.2-3.7-1.9-5.7-2.5v-4c0-0.6-0.6-1.2-1.2-1.2h-5.9c-0.6,0-1.2,0.6-1.2,1.2v3.9
	c-2.2,0.4-4.1,1.3-5.9,2.3l-3.4-3.3c-0.4-0.4-1.2-0.4-1.8,0l-4.1,4c-0.2,0.2-0.4,0.6-0.4,0.8c0,0.2,0.2,0.6,0.4,0.8l3.4,3.3
	c-1.2,1.9-2.2,4-2.8,6.4h-3.8c-0.6,0-1.2,0.6-1.2,1.2v5.8c0,0.6,0.6,1.2,1.2,1.2h3.7c0.3,2,1.3,3.7,2.1,5.4l3-3.6
	c-0.8-1.8-1.3-3.8-1.3-5.9c0-8,6.6-14.5,14.8-14.5s14.8,6.5,14.8,14.5s-6.6,14.5-14.8,14.5c-1.4,0-2.9-0.2-4.2-0.6l-2.9,3.4
	c0.9,0.3,1.9,0.6,2.9,0.8v3.3c0,0.6,0.6,1.2,1.2,1.2h5.9c0.6,0,1.2-0.6,1.2-1.2v-3.5c2.3-0.6,4.3-1.3,6.3-2.7l2.6,2.5
	c0.2,0.2,0.6,0.4,0.8,0.4s0.6-0.2,0.8-0.4l4.1-4c0.2-0.2,0.4-0.6,0.4-0.8c0-0.4-0.2-0.6-0.4-0.8l-2.6-2.5c1.2-1.7,2-3.6,2.3-5.8h3.7
	c0.6,0,1.2-0.6,1.2-1.2v-5.8C719.7,152.6,719.3,152,718.5,152z"/>
<path class="st7" d="M707.9,154.6c-0.2-1.8-0.8-3.6-2-5.2l-7.2,8.3l-4.7-3.8l7.2-8.2c-1.7-0.7-3.4-1-5.2-0.8
	c-6,0.5-10.5,5.7-10,11.6c0.1,1.2,0.4,2.4,0.9,3.5l0.1,0.1l-17.4,20.1c-0.7,0.8-1.1,2-1,3.1c0.1,1.1,0.6,2.1,1.5,2.8s2,1.1,3.2,1
	c1.1-0.1,2.2-0.6,2.9-1.5l17.2-19.8l0.2,0.1c1.4,0.5,2.9,0.6,4.4,0.5C703.9,165.8,708.4,160.6,707.9,154.6z M673.1,184
	c-0.9,0.1-1.5-0.6-1.6-1.3c-0.1-0.8,0.6-1.5,1.4-1.6c0.9-0.1,1.5,0.6,1.6,1.3C674.5,183.3,674,184,673.1,184z"/>
<rect x="844.8" y="375.2" class="st2" width="92" height="32.3"/>
<text transform="matrix(0.9794 0 0 1 844.7504 390.9669)" class="st3 st8">$685.368</text>
<rect x="581.8" y="17.8" class="st2" width="439.9" height="108.7"/>
<text transform="matrix(1 0 0 1 711.9473 33.6103)" class="st9 st8"> METROPOLITANA </text>
<text transform="matrix(1 0 0 1 574.8779 84.0102)" class="st9 st8">Población: </text>
<text transform="matrix(1 0 0 1 690.6085 84.0102)" class="st10 st8">7.112.808 </text>
<text transform="matrix(1 0 0 1 794.8527 84.0102)" class="st11"><tspan x="0" y="0" class="st9 st8">Superficie</tspan><tspan x="118.5" y="0" class="st3 st8">:</tspan></text>
<text transform="matrix(1 0 0 1 917.501 84.0102)" class="st10 st8"> 15.403,2 km</text>
<text transform="matrix(1 0 0 1 1008.9008 77.0176)" class="st10 st12">2</text>
<rect x="882.9" y="122.5" class="st13" width="4.5" height="244"/>
<rect x="8.2" y="175" class="st2" width="105.4" height="23.7"/>
<text transform="matrix(0.9794 0 0 1 8.1831 186.9717)" class="st9 st14">MUJERES</text>
<rect x="8.2" y="296.5" class="st2" width="96.2" height="26"/>
<text transform="matrix(0.9794 0 0 1 8.1831 308.4161)" class="st9 st14">HOMBRES</text>
<rect x="207.3" y="59.3" class="st2" width="80.5" height="23.3"/>
<g>
	<g>
		<path class="st15" d="M448.7,292.7h-13.8c-1.7,0-3.2,1.7-3.2,3.8v16.6c0,2.1,1.4,3.8,3.2,3.8h13.8c1.7,0,3.2-1.7,3.2-3.8v-16.6
			C451.9,294.4,450.5,292.7,448.7,292.7z M450.8,313.1c0,1.4-0.9,2.5-2,2.5h-13.8c-1.1,0-2-1.1-2-2.5v-16.6c0-1.4,0.9-2.5,2-2.5
			h13.8c1.1,0,2,1.1,2,2.5V313.1L450.8,313.1z"/>
		<path class="st15" d="M444.2,303.7c1-0.5,1.5-1.2,1.5-2.6c0-1.8-1-3.2-3.6-3.2h-3.9V310h4.4c2.6,0,3.7-1.6,3.7-3.4
			C446.2,305.1,445.4,304,444.2,303.7z M439.8,299.7h2.2c1.1,0,1.8,0.3,1.8,1.6c0,1-0.6,1.5-1.8,1.5h-2.2L439.8,299.7L439.8,299.7z
			 M442.5,308.1h-2.7v-3.3h2.5c1.4,0,2.2,0.5,2.2,1.6C444.5,307.8,443.7,308.1,442.5,308.1z"/>
		<path class="st15" d="M460.4,290.8c1.7,0,3.2-1.7,3.2-3.8v-16.6c0-2.1-1.4-3.8-3.2-3.8h-13.8c-1.7,0-3.2,1.7-3.2,3.8V287
			c0,2.1,1.4,3.8,3.2,3.8H460.4L460.4,290.8z M444.6,287v-16.6c0-1.4,0.9-2.5,2-2.5h13.8c1.1,0,2,1.1,2,2.5V287c0,1.4-0.9,2.5-2,2.5
			h-13.8C445.5,289.5,444.6,288.4,444.6,287z"/>
		<path class="st15" d="M451,281.2h5.1l1,2.8h1.8l-4.5-12.2h-1.8l-4.5,12.2h1.8L451,281.2z M453.5,274.2l1.8,5h-3.7L453.5,274.2z"/>
		<path class="st15" d="M472.1,292.7h-13.8c-1.7,0-3.2,1.7-3.2,3.8v16.6c0,2.1,1.4,3.8,3.2,3.8h13.8c1.7,0,3.2-1.7,3.2-3.8v-16.6
			C475.3,294.4,473.9,292.7,472.1,292.7z M474.2,313.1c0,1.4-0.9,2.5-2,2.5h-13.8c-1.1,0-2-1.1-2-2.5v-16.6c0-1.4,0.9-2.5,2-2.5
			h13.8c1.1,0,2,1.1,2,2.5V313.1L474.2,313.1z"/>
		<path class="st15" d="M466.1,299.6c1.2,0,2,0.5,2.9,1.5l1.1-1.4c-1-1.4-2.4-2.1-3.9-2.1c-3.2,0-5.4,2.7-5.4,6.3
			c0,3.7,2.3,6.3,5.3,6.3c1.5,0,2.8-0.7,3.9-2.1l-1.1-1.4c-1,1.2-1.8,1.5-2.8,1.5c-1.8,0-3.5-1.8-3.5-4.3
			C462.4,301.3,464.1,299.6,466.1,299.6z"/>
	</g>
	<rect x="414.4" y="324.4" class="st2" width="84.1" height="25.4"/>
	<text transform="matrix(0.9484 0 0 1 414.4057 338.6651)" class="st3 st16">$358.100</text>
</g>
<g>
	<g>
		<path class="st17" d="M325.6,168.3h-13.8c-1.7,0-3.2,1.6-3.2,3.6v15.8c0,2,1.4,3.6,3.2,3.6h13.8c1.7,0,3.2-1.6,3.2-3.6v-15.8
			C328.8,169.9,327.4,168.3,325.6,168.3z M327.7,187.7c0,1.3-0.9,2.3-2.1,2.3h-13.8c-1.1,0-2.1-1.1-2.1-2.3v-15.8
			c0-1.3,0.9-2.4,2.1-2.4h13.8c1.1,0,2.1,1.1,2.1,2.4V187.7L327.7,187.7z"/>
		<path class="st17" d="M321,178.7c1-0.5,1.5-1.1,1.5-2.5c0-1.7-1-3.1-3.6-3.1h-4v11.6h4.4c2.6,0,3.7-1.5,3.7-3.2
			C323.1,180.1,322.3,179,321,178.7z M316.7,175h2.2c1.1,0,1.8,0.3,1.8,1.6c0,1-0.6,1.4-1.9,1.4h-2.2L316.7,175L316.7,175z
			 M319.4,183h-2.7v-3.2h2.5c1.4,0,2.2,0.5,2.2,1.5C321.3,182.7,320.6,183,319.4,183z"/>
		<path class="st17" d="M337.3,166.5c1.7,0,3.2-1.6,3.2-3.6v-15.8c0-2-1.4-3.6-3.2-3.6h-13.8c-1.7,0-3.2,1.6-3.2,3.6v15.8
			c0,2,1.4,3.6,3.2,3.6H337.3L337.3,166.5z M321.4,162.9v-15.8c0-1.3,0.9-2.4,2.1-2.4h13.8c1.1,0,2.1,1.1,2.1,2.4v15.8
			c0,1.3-0.9,2.4-2.1,2.4h-13.8C322.4,165.2,321.4,164.2,321.4,162.9z"/>
		<path class="st17" d="M327.9,157.3h5.1l1,2.6h1.8l-4.5-11.6h-1.8l-4.5,11.6h1.8L327.9,157.3z M330.4,150.7l1.8,4.8h-3.7
			L330.4,150.7z"/>
		<path class="st17" d="M349.1,168.3h-13.8c-1.7,0-3.2,1.6-3.2,3.6v15.8c0,2,1.4,3.6,3.2,3.6h13.8c1.7,0,3.2-1.6,3.2-3.6v-15.8
			C352.3,169.9,350.8,168.3,349.1,168.3z M351.2,187.7c0,1.3-0.9,2.3-2.1,2.3h-13.8c-1.1,0-2.1-1.1-2.1-2.3v-15.8
			c0-1.3,0.9-2.4,2.1-2.4h13.8c1.1,0,2.1,1.1,2.1,2.4V187.7L351.2,187.7z"/>
		<path class="st17" d="M343,174.8c1.2,0,2,0.4,2.9,1.4l1.1-1.4c-1-1.3-2.4-2-3.9-2c-3.2,0-5.5,2.6-5.5,6c0,3.5,2.3,6,5.3,6
			c1.5,0,2.8-0.7,3.9-2l-1.1-1.3c-1,1.1-1.8,1.4-2.9,1.4c-1.8,0-3.5-1.7-3.5-4.1C339.4,176.4,341,174.8,343,174.8z"/>
	</g>
	<rect x="285.7" y="197.9" class="st2" width="93.1" height="18.8"/>
	<text transform="matrix(1.0255 0 0 1 285.6538 211.4112)" class="st3 st18">$267.348</text>
</g>
<g>
	<path class="st19" d="M606.8,305.8c-0.6-0.4-1.3-0.6-2.1-0.5c-0.4,0-0.8,0.2-1.1,0.4l3.6,1.8c-1.1,1.6-2,3.3-2.9,5.1
		c-0.6,1.2-1.1,2.6-1.5,4c-0.3,1.1-0.5,2.3-0.4,3.5c1.7-0.5,3.5-2.9,4.7-5.8c0.8-1.8,1.2-3.9,1.2-6.1
		C608.1,307.2,607.5,306.3,606.8,305.8z"/>
	<path class="st19" d="M582.6,282.6v7.4l19.9,9.1h0c1.5,0,3-0.1,4.5-0.3c3.9-0.7,6.4-2.1,6.4-3.6V283l-12.2,5.3L582.6,282.6z"/>
	<polygon class="st19" points="596.7,267.3 570.3,276.5 582.6,280.2 601.1,285.8 613.4,280.5 627,274.6 	"/>
	<path class="st19" d="M600.6,317.5c0-0.2,0-0.3,0.1-0.5s0.1-0.4,0.1-0.6l0-0.1c0.5-1.7,1-3.3,1.8-4.8c0.4-1,0.9-1.9,1.5-2.8
		c0,0,0-0.1,0-0.1l-2.4-1.2c-0.6,0.8-1,1.6-1.4,2.6c-0.5,1.2-1,2.4-1.3,3.7l-28.1-16l-0.2,1c-0.2,1.5-0.2,3,0.6,3.5l29.6,18
		C600.6,319.5,600.5,318.7,600.6,317.5z"/>
	<path class="st19" d="M598.7,308.8c1.7-4.1,4.6-6.5,6.9-5.7l-0.1,0l-30.9-14.1c-1.2-0.6-2.8,1-3.7,3.8c-0.2,0.6-0.4,1.3-0.5,1.9
		l27.8,15.8C598.3,309.8,598.5,309.3,598.7,308.8z"/>
	<rect x="559.7" y="326.5" class="st2" width="100" height="21"/>
	<text transform="matrix(1.0255 0 0 1 559.7446 340.0753)" class="st3 st18">$456.849</text>
</g>
<rect x="644" y="197.1" class="st2" width="103.7" height="22.3"/>
<text transform="matrix(1.0255 0 0 1 644.0317 210.629)" class="st3 st18">$523.989</text>
<g>
	<path class="st20" d="M826.5,281.8h-3.7c-0.6-2.3-1.4-4.2-2.8-6.2l3.2-3.1c0.2-0.2,0.4-0.6,0.4-0.8c0-0.4-0.2-0.6-0.4-0.8l-4.1-4
		c-0.4-0.4-1.2-0.4-1.8,0l-3.2,3.1c-1.8-1.2-3.7-1.9-5.7-2.5v-4c0-0.6-0.6-1.2-1.2-1.2h-5.9c-0.6,0-1.2,0.6-1.2,1.2v3.9
		c-2.2,0.4-4.1,1.3-5.9,2.3l-3.4-3.3c-0.4-0.4-1.2-0.4-1.8,0l-4.1,4c-0.2,0.2-0.4,0.6-0.4,0.8c0,0.2,0.2,0.6,0.4,0.8l3.4,3.3
		c-1.2,1.9-2.2,4-2.8,6.4h-3.8c-0.6,0-1.2,0.6-1.2,1.2v5.8c0,0.6,0.6,1.2,1.2,1.2h3.7c0.3,2,1.3,3.7,2.1,5.4l3-3.6
		c-0.8-1.8-1.3-3.8-1.3-5.9c0-8,6.6-14.5,14.8-14.5c8.2,0,14.8,6.5,14.8,14.5s-6.6,14.5-14.8,14.5c-1.4,0-2.9-0.2-4.2-0.6l-2.9,3.3
		c0.9,0.3,1.9,0.6,2.9,0.8v3.3c0,0.6,0.6,1.2,1.2,1.2h5.9c0.6,0,1.2-0.6,1.2-1.2v-3.5c2.3-0.6,4.3-1.3,6.3-2.7l2.6,2.5
		c0.2,0.2,0.6,0.4,0.8,0.4c0.2,0,0.6-0.2,0.8-0.4l4.1-4c0.2-0.2,0.4-0.6,0.4-0.8c0-0.4-0.2-0.6-0.4-0.8l-2.6-2.5
		c1.2-1.7,1.9-3.6,2.3-5.8h3.7c0.6,0,1.2-0.6,1.2-1.2v-5.8C827.7,282.5,827.3,281.8,826.5,281.8z"/>
	<path class="st20" d="M815.8,284.5c-0.2-1.8-0.8-3.6-1.9-5.2l-7.2,8.3l-4.7-3.8l7.1-8.2c-1.7-0.7-3.4-1-5.2-0.8
		c-6,0.5-10.5,5.7-10,11.6c0.1,1.2,0.4,2.3,0.9,3.5l0.1,0.1l-17.4,20.1c-0.7,0.8-1.1,2-1,3.1c0.1,1.1,0.6,2.1,1.5,2.8s2,1.1,3.2,1
		c1.1-0.1,2.2-0.6,2.9-1.5l17.2-19.8l0.2,0.1c1.4,0.5,2.9,0.6,4.4,0.5C811.8,295.6,816.4,290.4,815.8,284.5z M781.1,313.9
		c-0.9,0.1-1.5-0.6-1.6-1.3c-0.1-0.8,0.6-1.5,1.4-1.6c0.9-0.1,1.5,0.6,1.6,1.3C782.5,313.1,781.9,313.8,781.1,313.9z"/>
	<rect x="759.7" y="325.9" class="st2" width="86.8" height="19.6"/>
	<text transform="matrix(1.0255 0 0 1 759.7446 339.462)" class="st3 st18">$607.670</text>
</g>
<g>
	<g>
		<path d="M1280.2,138.6c-0.5,0.6-1.2,1.4-2.1,2.4c-3.8-3.6-7.5-4.1-10.3-4.5c-8,13-17,20.6-28.8,28.7c-0.3,0-0.7,0.2-1.1,0.4
			c-2.1,1.4-3,3.8-3.5,6.7c-1.2,6.7,0.9,14.8,7.2,16.2c3.7,0.8,6.1,0.2,7.7-1.8c1.2-1.4,6.5-7.5,13.3-14.6
			c7.7-7.9,17-15.4,20.8-18.6c3.5-3,2.8-7.7,0.3-11.3c-0.9-1.4-2.1-2.6-3.3-3.4L1280.2,138.6z M1251,181.3
			c0.5-3.6,0.3-10.3,0.2-12.5c0.9-0.4,2.6-1.6,5.8-4c8.9-6.7,16.1-14.6,23.4-23.3c2.6,2.4,4.9,7.3,1.8,10.1
			c-3.7,3-13.5,10.9-21,18.6C1257.2,174.6,1253.5,178.5,1251,181.3z M1247.7,185.1c-1.1,1.4-2.8,1.8-5.6,1.2
			c-5.8-1.4-7-9.5-5.4-15.2c1.6-5.5,6.5-4.7,8-0.8l-6.3,6.3c0.2,0.6,0.5,4.6,3.7,5.5c2.3,0.8,4.2-1.6,4.9-4.4c0.3-1.8,0.5-4,0-6.5
			c-0.3-3-2.1-5.1-4.4-6.1c11-7.7,18.5-14.2,26.1-26.1c3.2,0.6,5.2,1.4,7.9,3.6c-7.3,8.5-22.4,24.5-27.4,24.5
			c0,1.2,0.5,11.3-0.2,14.8C1248.8,183.1,1248.4,184.3,1247.7,185.1z M1245.3,172.8c0.2,2.2,0,4.9-1.2,6.3c-1.2,1.8-2.8,0-3.3-1.8
			L1245.3,172.8z"/>
		<path class="st21" d="M1278,180.1c0,0-1.2-4.1-3.3-7.1s-6.1-4.7-6.1-4.7s2.6,3.2,3.7,7.7c1.2,4.5,1.4,6.5,1.4,6.5l-2.4-1.4l-1.9,4
			c0,0,0.9-5.3-1.2-10.1c-1.9-4.7-3.3-6.1-3.3-6.1c0.5-8.5-3.2-13-10.7-13.6l5.6-5.7c6.6-0.2,10.5,7.9,9.8,14.8
			c5.1,3.2,9.8,7.7,14,12.1l-3.8,0.8L1278,180.1z"/>
	</g>
	<rect x="1219.4" y="193.7" class="st2" width="92.4" height="17.8"/>
	<text transform="matrix(1.0255 0 0 1 1219.3696 207.2296)" class="st3 st18">$970.024</text>
</g>
<g>
	<g>
		<path d="M1445.1,271.3c-0.5,0.6-1.2,1.4-2.1,2.4c-3.8-3.6-7.5-4.2-10.3-4.5c-8,13-17,20.6-28.8,28.7c-0.3,0-0.7,0.2-1.1,0.4
			c-2.1,1.4-3,3.8-3.5,6.7c-1.2,6.7,0.9,14.8,7.2,16.2c3.7,0.8,6.1,0.2,7.7-1.8c1.2-1.4,6.5-7.5,13.3-14.6
			c7.7-7.9,17-15.4,20.8-18.6c3.5-3,2.8-7.7,0.3-11.3c-0.9-1.4-2.1-2.6-3.3-3.4L1445.1,271.3z M1415.9,314
			c0.5-3.6,0.3-10.3,0.2-12.5c0.9-0.4,2.6-1.6,5.8-4c8.9-6.7,16.1-14.6,23.4-23.3c2.6,2.4,4.9,7.3,1.8,10.1
			c-3.7,3-13.5,10.9-21,18.6C1422,307.3,1418.3,311.3,1415.9,314z M1412.6,317.8c-1.1,1.4-2.8,1.8-5.6,1.2c-5.8-1.4-7-9.5-5.4-15.2
			c1.6-5.5,6.5-4.7,8-0.8l-6.3,6.3c0.2,0.6,0.5,4.5,3.7,5.5c2.3,0.8,4.2-1.6,4.9-4.3c0.3-1.8,0.5-4,0-6.5c-0.3-3-2.1-5.1-4.4-6.1
			c11-7.7,18.5-14.2,26.1-26.1c3.2,0.6,5.2,1.4,7.9,3.6c-7.3,8.5-22.4,24.5-27.4,24.5c0,1.2,0.5,11.3-0.2,14.8
			C1413.6,315.8,1413.3,317,1412.6,317.8z M1410.1,305.5c0.2,2.2,0,4.9-1.2,6.3c-1.2,1.8-2.8,0-3.3-1.8L1410.1,305.5z"/>
		<path class="st21" d="M1442.8,312.8c0,0-1.2-4.2-3.3-7.1s-6.1-4.7-6.1-4.7s2.6,3.2,3.7,7.7c1.2,4.5,1.4,6.5,1.4,6.5l-2.4-1.4
			l-1.9,4c0,0,0.9-5.3-1.2-10.1c-1.9-4.7-3.3-6.1-3.3-6.1c0.5-8.5-3.2-13-10.7-13.6l5.6-5.7c6.6-0.2,10.5,7.9,9.8,14.8
			c5.1,3.2,9.8,7.7,14,12.1l-3.8,0.8L1442.8,312.8z"/>
	</g>
	<rect x="1377.7" y="329.4" class="st2" width="109" height="19.1"/>
	<text transform="matrix(1.0255 0 0 1 1377.7446 342.9366)" class="st3 st18">$1.405.169</text>
</g>
<g>
	<rect x="422.2" y="197.6" class="st2" width="99.6" height="21.9"/>
	<text transform="matrix(1.0255 0 0 1 422.1821 211.0938)" class="st3 st18">$364.842</text>
	<path class="st19" d="M479.7,178.3c-0.6-0.4-1.3-0.6-2.1-0.5c-0.4,0-0.8,0.2-1.1,0.4l3.6,1.9c-1.1,1.6-2,3.3-2.9,5.1
		c-0.6,1.2-1.1,2.6-1.5,4c-0.3,1.1-0.5,2.3-0.4,3.5c1.7-0.5,3.5-2.9,4.7-5.8c0.8-1.8,1.2-3.9,1.2-6.1
		C481,179.6,480.5,178.7,479.7,178.3z"/>
	<path class="st19" d="M455.5,155.1v7.4l19.9,9.1h0c1.5,0,3-0.1,4.5-0.3c3.9-0.7,6.4-2.1,6.4-3.6v-12.2l-12.2,5.3L455.5,155.1z"/>
	<polygon class="st19" points="469.6,139.7 443.3,149 455.5,152.7 474,158.3 486.3,153 499.9,147.1 	"/>
	<path class="st19" d="M473.6,190c0-0.2,0-0.3,0.1-0.5s0.1-0.4,0.1-0.6l0-0.1c0.5-1.7,1-3.3,1.8-4.8c0.4-1,0.9-1.9,1.5-2.8
		c0,0,0-0.1,0-0.1l-2.4-1.2c-0.6,0.8-1,1.6-1.4,2.6c-0.5,1.2-1,2.4-1.3,3.7l-28.1-16l-0.2,1c-0.2,1.5-0.2,3,0.6,3.5l29.6,18
		C473.5,192,473.4,191.1,473.6,190z"/>
	<path class="st19" d="M471.6,181.2c1.7-4.1,4.6-6.5,6.9-5.7l-0.1,0l-30.9-14.1c-1.2-0.6-2.8,1-3.7,3.8c-0.2,0.6-0.4,1.3-0.5,1.9
		l27.8,15.8C471.2,182.3,471.4,181.7,471.6,181.2z"/>
</g>
</svg>
