<?xml version="1.0" encoding="utf-8"?>
<!-- Generator: Adobe Illustrator 24.2.3, SVG Export Plug-In . SVG Version: 6.00 Build 0)  -->
<svg version="1.1" id="Capa_1" xmlns="http://www.w3.org/2000/svg" xmlns:xlink="http://www.w3.org/1999/xlink" x="0px" y="0px"
	 viewBox="0 0 1500.4 410" style="enable-background:new 0 0 1500.4 410;" xml:space="preserve">
<style type="text/css">
	.st0{fill:#DCF4F3;stroke:#416190;stroke-width:5;stroke-miterlimit:5.83;}
	.st1{fill:none;stroke:#000000;stroke-width:3.0401;stroke-miterlimit:10;}
	.st2{fill:none;}
	.st3{font-family:'Optima-Bold';}
	.st4{font-size:16px;}
	.st5{letter-spacing:27.6;}
	.st6{letter-spacing:9.2;}
	.st7{fill:#FF0000;}
	.st8{font-size:21px;}
	.st9{font-family:'Verdana-Bold';}
	.st10{font-family:'Optima-Regular';}
	.st11{font-size:12.243px;}
	.st12{fill:#FCEE21;}
	.st13{font-size:16.6514px;}
	.st14{fill:#FF0000;stroke:#FF0000;stroke-width:1.3664;stroke-miterlimit:10;}
	.st15{font-size:18.9273px;}
	.st16{fill:#FF0000;stroke:#FF0000;stroke-width:1.3343;stroke-miterlimit:10;}
	.st17{font-size:18px;}
	.st18{fill:#FF0000;stroke:#FF0000;stroke-width:0.2169;stroke-miterlimit:10;}
	.st19{fill:#FF0000;stroke:#FF0000;stroke-width:0.1414;stroke-miterlimit:10;}
	.st20{fill-rule:evenodd;clip-rule:evenodd;}
</style>
<rect x="2.4" y="2.5" class="st0" width="1495.5" height="405.2"/>
<rect x="93.2" y="233.5" class="st1" width="1385.4" height="21.3"/>
<rect x="107.1" y="237.9" class="st2" width="1371.8" height="36.8"/>
<text transform="matrix(0.9794 0 0 1 107.1445 249.8654)" class="st3 st4">$100.000</text>
<text transform="matrix(0.9794 0 0 1 172.4893 249.8654)" class="st3 st4 st5"> </text>
<text transform="matrix(0.9794 0 0 1 204.9961 249.8654)" class="st3 st4 st5"> </text>
<text transform="matrix(0.9794 0 0 1 237.6104 249.8654)" class="st3 st4">$200.000</text>
<text transform="matrix(0.9794 0 0 1 302.9551 249.8654)" class="st3 st4 st5"> </text>
<text transform="matrix(0.9794 0 0 1 335.4609 249.8654)" class="st3 st4 st5"> </text>
<text transform="matrix(0.9794 0 0 1 368.0762 249.8654)" class="st3 st4">$300.000</text>
<text transform="matrix(0.9794 0 0 1 433.4219 249.8654)" class="st3 st4 st5"> </text>
<text transform="matrix(0.9794 0 0 1 465.9277 249.8654)" class="st3 st4 st5"> </text>
<text transform="matrix(0.9794 0 0 1 498.541 249.8654)" class="st3 st4">$400.000</text>
<text transform="matrix(0.9794 0 0 1 563.8867 249.8654)" class="st3 st4 st5"> </text>
<text transform="matrix(0.9794 0 0 1 596.3926 249.8654)" class="st3 st4 st5"> </text>
<text transform="matrix(0.9794 0 0 1 629.0176 249.8654)" class="st3 st4">$500.000</text>
<text transform="matrix(0.9794 0 0 1 694.3633 249.8654)" class="st3 st4 st5"> </text>
<text transform="matrix(0.9794 0 0 1 726.8594 249.8654)" class="st3 st4 st5"> </text>
<text transform="matrix(0.9794 0 0 1 759.4824 249.8654)" class="st3 st4">$600.000</text>
<text transform="matrix(0.9794 0 0 1 824.8281 249.8654)" class="st3 st4 st5"> </text>
<text transform="matrix(0.9794 0 0 1 857.334 249.8654)" class="st3 st4 st5"> </text>
<text transform="matrix(0.9794 0 0 1 889.9492 249.8654)" class="st3 st4">$700.000</text>
<text transform="matrix(0.9794 0 0 1 955.2949 249.8654)" class="st3 st4 st5"> </text>
<text transform="matrix(0.9794 0 0 1 987.8008 249.8654)" class="st3 st4 st5"> </text>
<text transform="matrix(0.9794 0 0 1 1020.4141 249.8654)" class="st3 st4">$800.000</text>
<text transform="matrix(0.9794 0 0 1 1085.7598 249.8654)" class="st3 st4 st5"> </text>
<text transform="matrix(0.9794 0 0 1 1118.2656 249.8654)" class="st3 st4 st5"> </text>
<text transform="matrix(0.9794 0 0 1 1150.8809 249.8654)" class="st3 st4">$900.000</text>
<text transform="matrix(0.9794 0 0 1 1216.2266 249.8654)" class="st3 st4 st5"> </text>
<text transform="matrix(0.9794 0 0 1 1248.7324 249.8654)" class="st3 st4 st5"> </text>
<text transform="matrix(0.9794 0 0 1 1281.3457 249.8654)" class="st3 st4">$1.000.000 </text>
<text transform="matrix(0.9794 0 0 1 1364.1152 249.8654)" class="st3 st4 st6"> </text>
<text transform="matrix(0.9794 0 0 1 1379.1973 249.8654)" class="st3 st4 st5"> </text>
<text transform="matrix(0.9794 0 0 1 1411.8125 249.8654)" class="st3 st4">   +++</text>
<path class="st7" d="M720.9,154.5h-3.7c-0.6-2.3-1.4-4.2-2.8-6.1l3.2-3.1c0.2-0.2,0.4-0.6,0.4-0.8c0-0.4-0.2-0.6-0.4-0.8l-4.1-4
	c-0.4-0.4-1.2-0.4-1.8,0l-3.2,3.1c-1.8-1.2-3.7-1.9-5.7-2.5v-4c0-0.6-0.6-1.2-1.2-1.2h-5.9c-0.6,0-1.2,0.6-1.2,1.2v3.9
	c-2.2,0.4-4.1,1.3-5.9,2.3l-3.4-3.3c-0.4-0.4-1.2-0.4-1.8,0l-4.1,4c-0.2,0.2-0.4,0.6-0.4,0.8s0.2,0.6,0.4,0.8l3.4,3.3
	c-1.2,1.9-2.2,4-2.8,6.4h-3.8c-0.6,0-1.2,0.6-1.2,1.2v5.8c0,0.6,0.6,1.2,1.2,1.2h3.7c0.3,2,1.3,3.7,2.1,5.4l3-3.6
	c-0.8-1.8-1.3-3.8-1.3-5.9c0-8,6.6-14.5,14.8-14.5s14.8,6.5,14.8,14.5s-6.6,14.5-14.8,14.5c-1.4,0-2.9-0.2-4.2-0.6l-2.9,3.4
	c0.9,0.3,1.9,0.6,2.9,0.8v3.3c0,0.6,0.6,1.2,1.2,1.2h5.9c0.6,0,1.2-0.6,1.2-1.2v-3.5c2.3-0.6,4.3-1.3,6.3-2.7l2.6,2.5
	c0.2,0.2,0.6,0.4,0.8,0.4s0.6-0.2,0.8-0.4l4.1-4c0.2-0.2,0.4-0.6,0.4-0.8c0-0.4-0.2-0.6-0.4-0.8l-2.6-2.5c1.2-1.7,2-3.6,2.3-5.8h3.7
	c0.6,0,1.2-0.6,1.2-1.2v-5.8C722.1,155.1,721.7,154.5,720.9,154.5z"/>
<path class="st7" d="M710.3,157.1c-0.2-1.8-0.8-3.6-2-5.2l-7.2,8.3l-4.7-3.8l7.2-8.2c-1.7-0.7-3.4-1-5.2-0.8
	c-6,0.5-10.5,5.7-10,11.6c0.1,1.2,0.4,2.4,0.9,3.5l0.1,0.1L672,182.7c-0.7,0.8-1.1,2-1,3.1s0.6,2.1,1.5,2.8s2,1.1,3.2,1
	c1.1-0.1,2.2-0.6,2.9-1.5l17.2-19.8l0.2,0.1c1.4,0.5,2.9,0.6,4.4,0.5C706.3,168.3,710.8,163.1,710.3,157.1z M675.5,186.5
	c-0.9,0.1-1.5-0.6-1.6-1.3c-0.1-0.8,0.6-1.5,1.4-1.6c0.9-0.1,1.5,0.6,1.6,1.3C676.9,185.8,676.4,186.5,675.5,186.5z"/>
<rect x="847.2" y="377.7" class="st2" width="92" height="32.3"/>
<text transform="matrix(0.9794 0 0 1 847.1611 393.4318)" class="st3 st8">$685.368</text>
<rect x="584.2" y="20.3" class="st2" width="439.9" height="108.7"/>
<text transform="matrix(1 0 0 1 714.3591 36.0751)" class="st9 st8"> METROPOLITANA </text>
<text transform="matrix(1 0 0 1 577.2897 86.475)" class="st9 st8">Población: </text>
<text transform="matrix(1 0 0 1 693.0203 86.475)" class="st10 st8">7.112.808 </text>
<text transform="matrix(1 0 0 1 797.2645 86.475)" class="st9 st8">Superficie</text>
<text transform="matrix(1 0 0 1 915.7645 86.475)" class="st3 st8">:</text>
<text transform="matrix(1 0 0 1 919.9127 86.475)" class="st10 st8"> 15.403,2 km</text>
<text transform="matrix(1 0 0 1 1011.3126 79.4824)" class="st10 st11">2</text>
<rect x="885.3" y="125" class="st12" width="4.5" height="244"/>
<rect x="10.6" y="177.5" class="st2" width="105.4" height="23.7"/>
<text transform="matrix(0.9794 0 0 1 10.5947 189.4366)" class="st9 st13">MUJERES</text>
<rect x="10.6" y="299" class="st2" width="96.2" height="26"/>
<text transform="matrix(0.9794 0 0 1 10.5947 310.881)" class="st9 st13">HOMBRES</text>
<rect x="209.7" y="61.8" class="st2" width="80.5" height="23.3"/>
<g>
	<g>
		<path class="st14" d="M451.1,295.2h-13.8c-1.7,0-3.2,1.7-3.2,3.8v16.6c0,2.1,1.4,3.8,3.2,3.8h13.8c1.7,0,3.2-1.7,3.2-3.8V299
			C454.3,296.9,452.9,295.2,451.1,295.2z M453.2,315.6c0,1.4-0.9,2.5-2,2.5h-13.8c-1.1,0-2-1.1-2-2.5V299c0-1.4,0.9-2.5,2-2.5h13.8
			c1.1,0,2,1.1,2,2.5V315.6L453.2,315.6z"/>
		<path class="st14" d="M446.6,306.2c1-0.5,1.5-1.2,1.5-2.6c0-1.8-1-3.2-3.6-3.2h-3.9v12.1h4.4c2.6,0,3.7-1.6,3.7-3.4
			C448.6,307.6,447.8,306.5,446.6,306.2z M442.2,302.2h2.2c1.1,0,1.8,0.3,1.8,1.6c0,1-0.6,1.5-1.8,1.5h-2.2V302.2L442.2,302.2z
			 M444.9,310.6h-2.7v-3.3h2.5c1.4,0,2.2,0.5,2.2,1.6C446.9,310.3,446.1,310.6,444.9,310.6z"/>
		<path class="st14" d="M462.8,293.3c1.7,0,3.2-1.7,3.2-3.8v-16.6c0-2.1-1.4-3.8-3.2-3.8H449c-1.7,0-3.2,1.7-3.2,3.8v16.6
			c0,2.1,1.4,3.8,3.2,3.8H462.8L462.8,293.3z M447,289.5v-16.6c0-1.4,0.9-2.5,2-2.5h13.8c1.1,0,2,1.1,2,2.5v16.6
			c0,1.4-0.9,2.5-2,2.5H449C447.9,292,447,290.9,447,289.5z"/>
		<path class="st14" d="M453.4,283.7h5.1l1,2.8h1.8l-4.5-12.2H455l-4.5,12.2h1.8L453.4,283.7z M455.9,276.7l1.8,5H454L455.9,276.7z"
			/>
		<path class="st14" d="M474.5,295.2h-13.8c-1.7,0-3.2,1.7-3.2,3.8v16.6c0,2.1,1.4,3.8,3.2,3.8h13.8c1.7,0,3.2-1.7,3.2-3.8V299
			C477.7,296.9,476.3,295.2,474.5,295.2z M476.6,315.6c0,1.4-0.9,2.5-2,2.5h-13.8c-1.1,0-2-1.1-2-2.5V299c0-1.4,0.9-2.5,2-2.5h13.8
			c1.1,0,2,1.1,2,2.5V315.6L476.6,315.6z"/>
		<path class="st14" d="M468.5,302.1c1.2,0,2,0.5,2.9,1.5l1.1-1.4c-1-1.4-2.4-2.1-3.9-2.1c-3.2,0-5.4,2.7-5.4,6.3
			c0,3.7,2.3,6.3,5.3,6.3c1.5,0,2.8-0.7,3.9-2.1l-1.1-1.4c-1,1.2-1.8,1.5-2.8,1.5c-1.8,0-3.5-1.8-3.5-4.3
			C464.8,303.8,466.5,302.1,468.5,302.1z"/>
	</g>
	<rect x="416.8" y="326.9" class="st2" width="84.1" height="25.4"/>
	<text transform="matrix(0.9484 0 0 1 416.8184 341.13)" class="st3 st15">$358.100</text>
</g>
<g>
	<g>
		<path class="st16" d="M328,170.8h-13.8c-1.7,0-3.2,1.6-3.2,3.6v15.8c0,2,1.4,3.6,3.2,3.6H328c1.7,0,3.2-1.6,3.2-3.6v-15.8
			C331.2,172.4,329.8,170.8,328,170.8z M330.1,190.2c0,1.3-0.9,2.3-2.1,2.3h-13.8c-1.1,0-2.1-1.1-2.1-2.3v-15.8
			c0-1.3,0.9-2.4,2.1-2.4H328c1.1,0,2.1,1.1,2.1,2.4V190.2L330.1,190.2z"/>
		<path class="st16" d="M323.4,181.2c1-0.5,1.5-1.1,1.5-2.5c0-1.7-1-3.1-3.6-3.1h-4v11.6h4.4c2.6,0,3.7-1.5,3.7-3.2
			C325.5,182.6,324.7,181.5,323.4,181.2z M319.1,177.5h2.2c1.1,0,1.8,0.3,1.8,1.6c0,1-0.6,1.4-1.9,1.4H319L319.1,177.5L319.1,177.5z
			 M321.8,185.5h-2.7v-3.2h2.5c1.4,0,2.2,0.5,2.2,1.5C323.7,185.2,323,185.5,321.8,185.5z"/>
		<path class="st16" d="M339.7,169c1.7,0,3.2-1.6,3.2-3.6v-15.8c0-2-1.4-3.6-3.2-3.6h-13.8c-1.7,0-3.2,1.6-3.2,3.6v15.8
			c0,2,1.4,3.6,3.2,3.6H339.7L339.7,169z M323.8,165.4v-15.8c0-1.3,0.9-2.4,2.1-2.4h13.8c1.1,0,2.1,1.1,2.1,2.4v15.8
			c0,1.3-0.9,2.4-2.1,2.4h-13.8C324.8,167.7,323.8,166.7,323.8,165.4z"/>
		<path class="st16" d="M330.3,159.8h5.1l1,2.6h1.8l-4.5-11.6h-1.8l-4.5,11.6h1.8L330.3,159.8z M332.8,153.2l1.8,4.8h-3.7
			L332.8,153.2z"/>
		<path class="st16" d="M351.5,170.8h-13.8c-1.7,0-3.2,1.6-3.2,3.6v15.8c0,2,1.4,3.6,3.2,3.6h13.8c1.7,0,3.2-1.6,3.2-3.6v-15.8
			C354.7,172.4,353.2,170.8,351.5,170.8z M353.6,190.2c0,1.3-0.9,2.3-2.1,2.3h-13.8c-1.1,0-2.1-1.1-2.1-2.3v-15.8
			c0-1.3,0.9-2.4,2.1-2.4h13.8c1.1,0,2.1,1.1,2.1,2.4V190.2L353.6,190.2z"/>
		<path class="st16" d="M345.4,177.3c1.2,0,2,0.4,2.9,1.4l1.1-1.4c-1-1.3-2.4-2-3.9-2c-3.2,0-5.5,2.6-5.5,6c0,3.5,2.3,6,5.3,6
			c1.5,0,2.8-0.7,3.9-2l-1.1-1.3c-1,1.1-1.8,1.4-2.9,1.4c-1.8,0-3.5-1.7-3.5-4.1C341.8,178.9,343.4,177.3,345.4,177.3z"/>
	</g>
	<rect x="288.1" y="200.4" class="st2" width="93.1" height="18.8"/>
	<text transform="matrix(1.0255 0 0 1 288.0654 213.8761)" class="st3 st17">$267.348</text>
</g>
<g>
	<path class="st18" d="M609.2,308.3c-0.6-0.4-1.3-0.6-2.1-0.5c-0.4,0-0.8,0.2-1.1,0.4l3.6,1.8c-1.1,1.6-2,3.3-2.9,5.1
		c-0.6,1.2-1.1,2.6-1.5,4c-0.3,1.1-0.5,2.3-0.4,3.5c1.7-0.5,3.5-2.9,4.7-5.8c0.8-1.8,1.2-3.9,1.2-6.1
		C610.5,309.7,609.9,308.8,609.2,308.3z"/>
	<path class="st18" d="M585,285.1v7.4l19.9,9.1l0,0c1.5,0,3-0.1,4.5-0.3c3.9-0.7,6.4-2.1,6.4-3.6v-12.2l-12.2,5.3L585,285.1z"/>
	<polygon class="st18" points="599.1,269.8 572.7,279 585,282.7 603.5,288.3 615.8,283 629.4,277.1 	"/>
	<path class="st18" d="M603,320c0-0.2,0-0.3,0.1-0.5s0.1-0.4,0.1-0.6v-0.1c0.5-1.7,1-3.3,1.8-4.8c0.4-1,0.9-1.9,1.5-2.8v-0.1
		l-2.4-1.2c-0.6,0.8-1,1.6-1.4,2.6c-0.5,1.2-1,2.4-1.3,3.7l-28.1-16l-0.2,1c-0.2,1.5-0.2,3,0.6,3.5l29.6,18
		C603,322,602.9,321.2,603,320z"/>
	<path class="st18" d="M601.1,311.3c1.7-4.1,4.6-6.5,6.9-5.7h-0.1L577,291.5c-1.2-0.6-2.8,1-3.7,3.8c-0.2,0.6-0.4,1.3-0.5,1.9
		l27.8,15.8C600.7,312.3,600.9,311.8,601.1,311.3z"/>
	<rect x="562.1" y="329" class="st2" width="100" height="21"/>
	<text transform="matrix(1.0255 0 0 1 562.1562 342.5402)" class="st3 st17">$456.849</text>
</g>
<rect x="646.4" y="199.6" class="st2" width="103.7" height="22.3"/>
<text transform="matrix(1.0255 0 0 1 646.4434 213.0939)" class="st3 st17">$523.989</text>
<g>
	<path class="st19" d="M828.9,284.3h-3.7c-0.6-2.3-1.4-4.2-2.8-6.2l3.2-3.1c0.2-0.2,0.4-0.6,0.4-0.8c0-0.4-0.2-0.6-0.4-0.8l-4.1-4
		c-0.4-0.4-1.2-0.4-1.8,0l-3.2,3.1c-1.8-1.2-3.7-1.9-5.7-2.5v-4c0-0.6-0.6-1.2-1.2-1.2h-5.9c-0.6,0-1.2,0.6-1.2,1.2v3.9
		c-2.2,0.4-4.1,1.3-5.9,2.3l-3.4-3.3c-0.4-0.4-1.2-0.4-1.8,0l-4.1,4c-0.2,0.2-0.4,0.6-0.4,0.8c0,0.2,0.2,0.6,0.4,0.8l3.4,3.3
		c-1.2,1.9-2.2,4-2.8,6.4h-3.8c-0.6,0-1.2,0.6-1.2,1.2v5.8c0,0.6,0.6,1.2,1.2,1.2h3.7c0.3,2,1.3,3.7,2.1,5.4l3-3.6
		c-0.8-1.8-1.3-3.8-1.3-5.9c0-8,6.6-14.5,14.8-14.5s14.8,6.5,14.8,14.5s-6.6,14.5-14.8,14.5c-1.4,0-2.9-0.2-4.2-0.6l-2.9,3.3
		c0.9,0.3,1.9,0.6,2.9,0.8v3.3c0,0.6,0.6,1.2,1.2,1.2h5.9c0.6,0,1.2-0.6,1.2-1.2v-3.5c2.3-0.6,4.3-1.3,6.3-2.7l2.6,2.5
		c0.2,0.2,0.6,0.4,0.8,0.4s0.6-0.2,0.8-0.4l4.1-4c0.2-0.2,0.4-0.6,0.4-0.8c0-0.4-0.2-0.6-0.4-0.8l-2.6-2.5c1.2-1.7,1.9-3.6,2.3-5.8
		h3.7c0.6,0,1.2-0.6,1.2-1.2V285C830.1,285,829.7,284.3,828.9,284.3z"/>
	<path class="st19" d="M818.2,287c-0.2-1.8-0.8-3.6-1.9-5.2l-7.2,8.3l-4.7-3.8l7.1-8.2c-1.7-0.7-3.4-1-5.2-0.8
		c-6,0.5-10.5,5.7-10,11.6c0.1,1.2,0.4,2.3,0.9,3.5l0.1,0.1l-17.4,20.1c-0.7,0.8-1.1,2-1,3.1s0.6,2.1,1.5,2.8s2,1.1,3.2,1
		c1.1-0.1,2.2-0.6,2.9-1.5l17.2-19.8l0.2,0.1c1.4,0.5,2.9,0.6,4.4,0.5C814.2,298.1,818.8,292.9,818.2,287z M783.5,316.4
		c-0.9,0.1-1.5-0.6-1.6-1.3c-0.1-0.8,0.6-1.5,1.4-1.6c0.9-0.1,1.5,0.6,1.6,1.3C784.9,315.6,784.3,316.3,783.5,316.4z"/>
	<rect x="762.1" y="328.4" class="st2" width="86.8" height="19.6"/>
	<text transform="matrix(1.0255 0 0 1 762.1562 341.9269)" class="st3 st17">$607.670</text>
</g>
<g>
	<g>
		<path d="M1282.6,141.1c-0.5,0.6-1.2,1.4-2.1,2.4c-3.8-3.6-7.5-4.1-10.3-4.5c-8,13-17,20.6-28.8,28.7c-0.3,0-0.7,0.2-1.1,0.4
			c-2.1,1.4-3,3.8-3.5,6.7c-1.2,6.7,0.9,14.8,7.2,16.2c3.7,0.8,6.1,0.2,7.7-1.8c1.2-1.4,6.5-7.5,13.3-14.6
			c7.7-7.9,17-15.4,20.8-18.6c3.5-3,2.8-7.7,0.3-11.3c-0.9-1.4-2.1-2.6-3.3-3.4L1282.6,141.1z M1253.4,183.8
			c0.5-3.6,0.3-10.3,0.2-12.5c0.9-0.4,2.6-1.6,5.8-4c8.9-6.7,16.1-14.6,23.4-23.3c2.6,2.4,4.9,7.3,1.8,10.1
			c-3.7,3-13.5,10.9-21,18.6C1259.6,177.1,1255.9,181,1253.4,183.8z M1250.1,187.6c-1.1,1.4-2.8,1.8-5.6,1.2
			c-5.8-1.4-7-9.5-5.4-15.2c1.6-5.5,6.5-4.7,8-0.8l-6.3,6.3c0.2,0.6,0.5,4.6,3.7,5.5c2.3,0.8,4.2-1.6,4.9-4.4c0.3-1.8,0.5-4,0-6.5
			c-0.3-3-2.1-5.1-4.4-6.1c11-7.7,18.5-14.2,26.1-26.1c3.2,0.6,5.2,1.4,7.9,3.6c-7.3,8.5-22.4,24.5-27.4,24.5
			c0,1.2,0.5,11.3-0.2,14.8C1251.2,185.6,1250.8,186.8,1250.1,187.6z M1247.7,175.3c0.2,2.2,0,4.9-1.2,6.3c-1.2,1.8-2.8,0-3.3-1.8
			L1247.7,175.3z"/>
		<path class="st20" d="M1280.4,182.6c0,0-1.2-4.1-3.3-7.1s-6.1-4.7-6.1-4.7s2.6,3.2,3.7,7.7c1.2,4.5,1.4,6.5,1.4,6.5l-2.4-1.4
			l-1.9,4c0,0,0.9-5.3-1.2-10.1c-1.9-4.7-3.3-6.1-3.3-6.1c0.5-8.5-3.2-13-10.7-13.6l5.6-5.7c6.6-0.2,10.5,7.9,9.8,14.8
			c5.1,3.2,9.8,7.7,14,12.1l-3.8,0.8L1280.4,182.6z"/>
	</g>
	<rect x="1221.8" y="196.2" class="st2" width="92.4" height="17.8"/>
	<text transform="matrix(1.0255 0 0 1 1221.7812 209.6945)" class="st3 st17">$970.024</text>
</g>
<g>
	<g>
		<path d="M1447.5,273.8c-0.5,0.6-1.2,1.4-2.1,2.4c-3.8-3.6-7.5-4.2-10.3-4.5c-8,13-17,20.6-28.8,28.7c-0.3,0-0.7,0.2-1.1,0.4
			c-2.1,1.4-3,3.8-3.5,6.7c-1.2,6.7,0.9,14.8,7.2,16.2c3.7,0.8,6.1,0.2,7.7-1.8c1.2-1.4,6.5-7.5,13.3-14.6
			c7.7-7.9,17-15.4,20.8-18.6c3.5-3,2.8-7.7,0.3-11.3c-0.9-1.4-2.1-2.6-3.3-3.4L1447.5,273.8z M1418.3,316.5
			c0.5-3.6,0.3-10.3,0.2-12.5c0.9-0.4,2.6-1.6,5.8-4c8.9-6.7,16.1-14.6,23.4-23.3c2.6,2.4,4.9,7.3,1.8,10.1
			c-3.7,3-13.5,10.9-21,18.6C1424.4,309.8,1420.7,313.8,1418.3,316.5z M1415,320.3c-1.1,1.4-2.8,1.8-5.6,1.2
			c-5.8-1.4-7-9.5-5.4-15.2c1.6-5.5,6.5-4.7,8-0.8l-6.3,6.3c0.2,0.6,0.5,4.5,3.7,5.5c2.3,0.8,4.2-1.6,4.9-4.3c0.3-1.8,0.5-4,0-6.5
			c-0.3-3-2.1-5.1-4.4-6.1c11-7.7,18.5-14.2,26.1-26.1c3.2,0.6,5.2,1.4,7.9,3.6c-7.3,8.5-22.4,24.5-27.4,24.5
			c0,1.2,0.5,11.3-0.2,14.8C1416,318.3,1415.7,319.5,1415,320.3z M1412.5,308c0.2,2.2,0,4.9-1.2,6.3c-1.2,1.8-2.8,0-3.3-1.8
			L1412.5,308z"/>
		<path class="st20" d="M1445.2,315.3c0,0-1.2-4.2-3.3-7.1s-6.1-4.7-6.1-4.7s2.6,3.2,3.7,7.7c1.2,4.5,1.4,6.5,1.4,6.5l-2.4-1.4
			l-1.9,4c0,0,0.9-5.3-1.2-10.1c-1.9-4.7-3.3-6.1-3.3-6.1c0.5-8.5-3.2-13-10.7-13.6l5.6-5.7c6.6-0.2,10.5,7.9,9.8,14.8
			c5.1,3.2,9.8,7.7,14,12.1l-3.8,0.8L1445.2,315.3z"/>
	</g>
	<rect x="1380.1" y="331.9" class="st2" width="109" height="19.1"/>
	<text transform="matrix(1.0255 0 0 1 1380.1562 345.4015)" class="st3 st17">$1.405.169</text>
</g>
<g>
	<rect x="424.6" y="200.1" class="st2" width="99.6" height="21.9"/>
	<text transform="matrix(1.0255 0 0 1 424.5938 213.5587)" class="st3 st17">$364.842</text>
	<path class="st18" d="M482.1,180.8c-0.6-0.4-1.3-0.6-2.1-0.5c-0.4,0-0.8,0.2-1.1,0.4l3.6,1.9c-1.1,1.6-2,3.3-2.9,5.1
		c-0.6,1.2-1.1,2.6-1.5,4c-0.3,1.1-0.5,2.3-0.4,3.5c1.7-0.5,3.5-2.9,4.7-5.8c0.8-1.8,1.2-3.9,1.2-6.1
		C483.4,182.1,482.9,181.2,482.1,180.8z"/>
	<path class="st18" d="M457.9,157.6v7.4l19.9,9.1l0,0c1.5,0,3-0.1,4.5-0.3c3.9-0.7,6.4-2.1,6.4-3.6V158l-12.2,5.3L457.9,157.6z"/>
	<polygon class="st18" points="472,142.2 445.7,151.5 457.9,155.2 476.4,160.8 488.7,155.5 502.3,149.6 	"/>
	<path class="st18" d="M476,192.5c0-0.2,0-0.3,0.1-0.5s0.1-0.4,0.1-0.6v-0.1c0.5-1.7,1-3.3,1.8-4.8c0.4-1,0.9-1.9,1.5-2.8v-0.1
		l-2.4-1.2c-0.6,0.8-1,1.6-1.4,2.6c-0.5,1.2-1,2.4-1.3,3.7l-28.1-16l-0.2,1c-0.2,1.5-0.2,3,0.6,3.5l29.6,18
		C475.9,194.5,475.8,193.6,476,192.5z"/>
	<path class="st18" d="M474,183.7c1.7-4.1,4.6-6.5,6.9-5.7h-0.1l-30.9-14.1c-1.2-0.6-2.8,1-3.7,3.8c-0.2,0.6-0.4,1.3-0.5,1.9
		l27.8,15.8C473.6,184.8,473.8,184.2,474,183.7z"/>
</g>
</svg>
