<svg xmlns="http://www.w3.org/2000/svg" xmlns:xlink="http://www.w3.org/1999/xlink" version="1.1" x="0px" y="0px" viewBox="0 0 96 120" enable-background="new 0 0 96 96" xml:space="preserve"><path d="M92,86.084H73.236c1.195-1.048,2.076-2.42,2.484-4H82c0.936,0,1.752-0.656,1.952-1.572l8-36  c0.124-0.592-0.017-1.212-0.396-1.684c-0.381-0.476-0.949-0.752-1.561-0.752H6.004c-0.608,0-1.18,0.276-1.56,0.752  C4.064,43.3,3.92,43.92,4.052,44.512l8,36c0.204,0.916,1.016,1.572,1.952,1.572H20c0.092,0,0.176-0.04,0.268-0.061  c0.404,1.604,1.288,3,2.5,4.061H4c-1.104,0-2,0.896-2,2c0,1.1,0.896,2,2,2h88c1.1,0,2-0.9,2-2C94,86.98,93.1,86.084,92,86.084z   M33.236,86.084c1.196-1.048,2.072-2.42,2.48-4H60c0.092,0,0.176-0.04,0.264-0.061c0.408,1.604,1.288,3,2.5,4.061H33.236z"/><path d="M85.752,38.084C85.9,37.412,86,36.72,86,36c0-3.712-2.004-7.024-5.271-8.808c-0.681-1.228-1.601-2.296-2.729-3.152  c-0.023-5.584-4.58-10.124-10.168-10.124c-0.68,0-1.355,0.072-2.02,0.212c-0.916-4.676-5.041-8.212-9.98-8.212  c-3.448,0-6.648,1.796-8.5,4.636c-1.108-0.416-2.276-0.628-3.46-0.636c-1.912-2.496-4.888-4-8.04-4  c-5.604,0-10.168,4.56-10.168,10.168c0,0.684,0.072,1.36,0.212,2.024c-4.004,0.796-7.204,3.988-8.004,8.004  c-4.72,0.892-8.204,4.944-8.204,9.888c0,0.72,0.104,1.408,0.252,2.084H85.752L85.752,38.084z"/><text x="0" y="111" fill="#000000" font-size="5px" font-weight="bold" font-family="'Helvetica Neue', Helvetica, Arial-Unicode, Arial, Sans-serif">Created by iconsmind.com</text><text x="0" y="116" fill="#000000" font-size="5px" font-weight="bold" font-family="'Helvetica Neue', Helvetica, Arial-Unicode, Arial, Sans-serif">from the Noun Project</text></svg>