<?xml version="1.0" encoding="utf-8"?>
<!-- Generator: Adobe Illustrator 19.2.1, SVG Export Plug-In . SVG Version: 6.00 Build 0)  -->
<svg version="1.1" id="Capa_1" xmlns="http://www.w3.org/2000/svg" xmlns:xlink="http://www.w3.org/1999/xlink" x="0px" y="0px"
	 viewBox="0 0 694.5 639.1" style="enable-background:new 0 0 694.5 639.1;" xml:space="preserve">
<path d="M670.7,599.3H532.5c8.8-7.7,15.3-17.8,18.3-29.5H597c6.9,0,12.9-4.8,14.4-11.6l59-265.3c0.9-4.4-0.1-8.9-2.9-12.4
	c-2.8-3.5-7-5.5-11.5-5.5H37c-4.5,0-8.7,2-11.5,5.5c-2.8,3.5-3.9,8-2.9,12.4l59,265.3c1.5,6.8,7.5,11.6,14.4,11.6h44.2
	c0.7,0,1.3-0.3,2-0.4c3,11.8,9.5,22.1,18.4,29.9H22.2c-8.1,0-14.7,6.6-14.7,14.7c0,8.1,6.6,14.7,14.7,14.7h648.5
	c8.1,0,14.7-6.6,14.7-14.7C685.5,605.9,678.8,599.3,670.7,599.3z M237.7,599.3c8.8-7.7,15.3-17.8,18.3-29.5h179
	c0.7,0,1.3-0.3,1.9-0.4c3,11.8,9.5,22.1,18.4,29.9H237.7z"/>
<path d="M624.7,245.6c1.1-5,1.8-10.1,1.8-15.4c0-27.4-14.8-51.8-38.8-64.9c-5-9-11.8-16.9-20.1-23.2c-0.2-41.1-33.8-74.6-74.9-74.6
	c-5,0-10,0.5-14.9,1.6C471,34.6,440.6,8.6,404.2,8.6c-25.4,0-49,13.2-62.6,34.2c-8.2-3.1-16.8-4.6-25.5-4.7
	C302,19.6,280,8.6,256.8,8.6c-41.3,0-74.9,33.6-74.9,74.9c0,5,0.5,10,1.6,14.9c-29.5,5.9-53.1,29.4-59,59
	C89.7,164,64,193.8,64,230.3c0,5.3,0.8,10.4,1.9,15.4L624.7,245.6L624.7,245.6z"/>
</svg>
