<?xml version="1.0" encoding="utf-8"?>
<!-- Generator: Adobe Illustrator 19.2.1, SVG Export Plug-In . SVG Version: 6.00 Build 0)  -->
<svg version="1.1" id="Capa_1" xmlns="http://www.w3.org/2000/svg" xmlns:xlink="http://www.w3.org/1999/xlink" x="0px" y="0px"
	 viewBox="0 0 1068 579.7" style="enable-background:new 0 0 1068 579.7;" xml:space="preserve">
<style type="text/css">
	.st0{fill:#D7E9EA;stroke:#416190;stroke-width:5;stroke-miterlimit:10;}
	.st1{fill:none;}
	.st2{font-family:'Tahoma';}
	.st3{font-size:20px;}
	.st4{font-size:11.66px;}
	.st5{fill:none;stroke:#1D1D1B;stroke-miterlimit:10;}
	.st6{stroke:#000000;stroke-miterlimit:10;}
</style>
<g id="Capa_2">
	<path class="st0" d="M1017.7,579.7H50.4C25.9,579.7,6,560.5,6,536.8v-494C6,19.2,25.9,0,50.4,0h967.2c24.6,0,44.4,19.2,44.4,42.8
		v494C1062.1,560.5,1042.1,579.7,1017.7,579.7z"/>
	<rect x="54.9" y="526.8" class="st1" width="445.3" height="88.2"/>
	<text transform="matrix(1.0374 0 0 1 54.8774 542.0479)" class="st2 st3"> 12.354.666,146 [TONS] DE CO</text>
	<text transform="matrix(1.0374 0 0 1 345.1948 548.708)" class="st2 st4">2</text>
	<text transform="matrix(1.0374 0 0 1 351.7988 542.0479)" class="st2 st3">        </text>
</g>
<g id="Capa_1_1_">
	<path d="M664,11.2c10.9-7.9,26-5.4,33.8,5.4c5.8-1.6,12.2,0,16.5,4.2c6.8,6.6,6.9,17.5,0.3,24.2c1.1,2.6,1.7,5.4,1.5,8.3
		c-0.3,10.9-9.4,19.5-20.2,19.2c0.1,1.4-0.1,2.8-0.5,4.1c1.5-0.9,3.1-1.2,4.8-0.9c3.9,0.6,6.6,4.3,6,8.2c-0.6,3.9-4.3,6.6-8.2,6
		s-6.6-4.3-6-8.2c-1.1,0.9-2.3,1.6-3.6,2c-5.8,2-12.1-1.1-14.1-6.9c-3.8,2.5-8.5,3.1-12.9,1.9c-8.5-2.4-13.4-11.2-11-19.7
		c-4.7-2.5-8.2-6.9-9.4-12.1c-2.3-9.9,3.8-19.8,13.7-22.2C656.2,19.3,659.5,14.5,664,11.2z M689.7,57c8-4.6,10.8-14.9,6.2-23
		S681,23.2,673,27.8c-8.1,4.7-10.9,14.9-6.2,23c1.5,2.6,3.6,4.7,6.2,6.2c-1.3,4.6,1.5,9.4,6.1,10.6s9.4-1.5,10.6-6.1
		C690,60,690,58.5,689.7,57z M679,45.2c0-2.4-2-4.3-4.3-4.3c-2.4,0-4.3,1.9-4.3,4.3c0,2.4,1.9,4.3,4.3,4.3
		C677.1,49.6,679,47.6,679,45.2L679,45.2z M677.8,56.2c-0.2,0.3-0.2,0.7,0,1c0.4,0.4,0.6,0.6,0.8,0.6h2.7h2.7c0.2,0,0.4-0.1,0.6-0.3
		c0.5-0.5,0.5-0.9,0.2-1.2l-2.8-4.1c-0.3-0.4-0.8-0.4-1.1-0.2C680.6,52.1,677.8,56.2,677.8,56.2 M692.2,45.2c0-2.4-1.9-4.3-4.3-4.3
		c-2.4,0-4.3,1.9-4.3,4.3c0,2.4,1.9,4.3,4.3,4.3C690.2,49.6,692.2,47.6,692.2,45.2L692.2,45.2z"/>
	<path d="M769.9,11.2c10.9-7.9,26-5.4,33.8,5.4c5.8-1.6,12.2,0,16.5,4.2c6.8,6.6,6.9,17.5,0.3,24.2c1.1,2.6,1.7,5.4,1.5,8.3
		c-0.3,10.9-9.4,19.5-20.2,19.2c0.1,1.4-0.1,2.8-0.5,4.1c1.5-0.9,3.1-1.2,4.8-0.9c3.9,0.6,6.6,4.3,6,8.2c-0.6,3.9-4.3,6.6-8.2,6
		s-6.6-4.3-6-8.2c-1.1,0.9-2.3,1.6-3.6,2c-5.8,2-12.1-1.1-14.1-6.9c-3.8,2.5-8.5,3.1-12.9,1.9c-8.5-2.4-13.4-11.2-11-19.7
		c-4.7-2.5-8.2-6.9-9.4-12.1c-2.3-9.9,3.8-19.8,13.7-22.2C762,19.3,765.3,14.5,769.9,11.2z M795.5,57c8-4.6,10.8-14.9,6.2-23
		s-14.9-10.8-22.9-6.2c-8.1,4.7-10.9,14.9-6.2,23c1.5,2.6,3.6,4.7,6.2,6.2c-1.3,4.6,1.5,9.4,6.1,10.6s9.4-1.5,10.6-6.1
		C795.9,60,795.9,58.5,795.5,57z M784.8,45.2c0-2.4-2-4.3-4.3-4.3c-2.4,0-4.3,1.9-4.3,4.3c0,2.4,1.9,4.3,4.3,4.3
		C782.9,49.6,784.8,47.6,784.8,45.2L784.8,45.2z M783.6,56.2c-0.2,0.3-0.2,0.7,0,1c0.4,0.4,0.6,0.6,0.8,0.6h2.7h2.7
		c0.2,0,0.4-0.1,0.6-0.3c0.5-0.5,0.5-0.9,0.2-1.2l-2.8-4.1c-0.3-0.4-0.8-0.4-1.1-0.2C786.4,52.1,783.6,56.2,783.6,56.2 M798,45.2
		c0-2.4-1.9-4.3-4.3-4.3c-2.4,0-4.3,1.9-4.3,4.3c0,2.4,1.9,4.3,4.3,4.3C796,49.6,798,47.6,798,45.2L798,45.2z"/>
	<path d="M875.7,11.4c10.9-7.9,26-5.4,33.8,5.4c5.8-1.6,12.2,0,16.5,4.2c6.8,6.6,6.9,17.5,0.3,24.2c1.1,2.6,1.7,5.4,1.5,8.3
		c-0.3,10.9-9.4,19.5-20.2,19.2c0.1,1.4-0.1,2.8-0.5,4.1c1.5-0.9,3.1-1.2,4.8-0.9c3.9,0.6,6.6,4.3,6,8.2c-0.6,3.9-4.3,6.6-8.2,6
		s-6.6-4.3-6-8.2c-1.1,0.9-2.3,1.6-3.6,2c-5.8,2-12.1-1.1-14.1-6.9c-3.8,2.5-8.5,3.1-12.9,1.9c-8.5-2.4-13.4-11.2-11-19.7
		c-4.7-2.5-8.2-6.9-9.4-12.1c-2.3-9.9,3.8-19.8,13.7-22.2C867.8,19.6,871.1,14.7,875.7,11.4z M901.3,57.2c8-4.6,10.8-14.9,6.2-23
		s-14.9-10.8-22.9-6.2c-8.1,4.7-10.9,14.9-6.2,23c1.5,2.6,3.6,4.7,6.2,6.2c-1.3,4.6,1.5,9.4,6.1,10.6c4.6,1.2,9.4-1.5,10.6-6.1
		C901.7,60.2,901.7,58.7,901.3,57.2z M890.7,45.5c0-2.4-2-4.3-4.3-4.3c-2.4,0-4.3,1.9-4.3,4.3c0,2.4,1.9,4.3,4.3,4.3
		C888.7,49.8,890.7,47.9,890.7,45.5L890.7,45.5z M889.4,56.5c-0.2,0.3-0.2,0.7,0,1c0.4,0.4,0.6,0.6,0.8,0.6h2.7h2.7
		c0.2,0,0.4-0.1,0.6-0.3c0.5-0.5,0.5-0.9,0.2-1.2l-2.8-4.1c-0.3-0.4-0.8-0.4-1.1-0.2C892.2,52.4,889.4,56.5,889.4,56.5 M903.8,45.5
		c0-2.4-1.9-4.3-4.3-4.3c-2.4,0-4.3,1.9-4.3,4.3c0,2.4,1.9,4.3,4.3,4.3C901.9,49.8,903.8,47.9,903.8,45.5L903.8,45.5z"/>
	<path d="M981.5,10.9c10.9-7.9,26-5.4,33.8,5.4c5.8-1.6,12.2,0,16.5,4.2c6.8,6.6,6.9,17.5,0.3,24.2c1.1,2.6,1.7,5.4,1.5,8.3
		c-0.3,10.9-9.4,19.5-20.2,19.2c0.1,1.4-0.1,2.8-0.5,4.1c1.5-0.9,3.1-1.2,4.8-0.9c3.9,0.6,6.6,4.3,6,8.2c-0.6,3.9-4.3,6.6-8.2,6
		s-6.6-4.3-6-8.2c-1.1,0.9-2.3,1.6-3.6,2c-5.8,2-12.1-1.1-14.1-6.9c-3.8,2.5-8.5,3.1-12.9,1.9c-8.5-2.4-13.4-11.2-11-19.7
		c-4.7-2.5-8.2-6.9-9.4-12.1c-2.3-9.9,3.8-19.8,13.7-22.2C973.6,19,976.9,14.2,981.5,10.9z M1007.1,56.7c8-4.6,10.8-14.9,6.2-23
		s-14.9-10.8-22.9-6.2c-8.1,4.7-10.9,14.9-6.2,23c1.5,2.6,3.6,4.7,6.2,6.2c-1.3,4.6,1.5,9.4,6.1,10.6c4.6,1.2,9.4-1.5,10.6-6.1
		C1007.5,59.7,1007.5,58.2,1007.1,56.7z M996.5,44.9c0-2.4-2-4.3-4.3-4.3c-2.4,0-4.3,1.9-4.3,4.3c0,2.4,1.9,4.3,4.3,4.3
		C994.5,49.3,996.5,47.3,996.5,44.9L996.5,44.9z M995.2,55.9c-0.2,0.3-0.2,0.7,0,1c0.4,0.4,0.6,0.6,0.8,0.6h2.7h2.7
		c0.2,0,0.4-0.1,0.6-0.3c0.5-0.5,0.5-0.9,0.2-1.2l-2.8-4.1c-0.3-0.4-0.8-0.4-1.1-0.2C998,51.8,995.2,55.9,995.2,55.9 M1009.6,44.9
		c0-2.4-1.9-4.3-4.3-4.3c-2.4,0-4.3,1.9-4.3,4.3c0,2.4,1.9,4.3,4.3,4.3C1007.7,49.3,1009.6,47.3,1009.6,44.9L1009.6,44.9z"/>
	<path d="M664,118.1c10.9-7.9,26-5.4,33.8,5.4c5.8-1.6,12.2,0,16.5,4.2c6.8,6.6,6.9,17.5,0.3,24.2c1.1,2.6,1.7,5.4,1.5,8.3
		c-0.3,10.9-9.4,19.5-20.2,19.2c0.1,1.4-0.1,2.8-0.5,4.1c1.5-0.9,3.1-1.2,4.8-0.9c3.9,0.6,6.6,4.3,6,8.2s-4.3,6.6-8.2,6
		s-6.6-4.3-6-8.2c-1.1,0.9-2.3,1.6-3.6,2c-5.8,2-12.1-1.1-14.1-6.9c-3.8,2.5-8.5,3.1-12.9,1.9c-8.5-2.4-13.4-11.2-11-19.7
		c-4.7-2.5-8.2-6.9-9.4-12.1c-2.3-9.9,3.8-19.8,13.7-22.2C656.2,126.2,659.5,121.4,664,118.1z M689.7,163.9c8-4.6,10.8-14.9,6.2-23
		s-14.9-10.8-22.9-6.2c-8.1,4.7-10.9,14.9-6.2,23c1.5,2.6,3.6,4.7,6.2,6.2c-1.3,4.6,1.5,9.4,6.1,10.6c4.6,1.2,9.4-1.5,10.6-6.1
		C690,166.9,690,165.4,689.7,163.9z M679,152.1c0-2.4-2-4.3-4.3-4.3c-2.4,0-4.3,1.9-4.3,4.3c0,2.4,1.9,4.3,4.3,4.3
		C677.1,156.5,679,154.5,679,152.1L679,152.1z M677.8,163.1c-0.2,0.3-0.2,0.7,0,0.9c0.4,0.4,0.6,0.6,0.8,0.6h2.7h2.7
		c0.2,0,0.4-0.1,0.6-0.3c0.5-0.5,0.5-0.9,0.2-1.2L682,159c-0.3-0.4-0.8-0.4-1.1-0.2C680.6,159.1,677.8,163.1,677.8,163.1
		 M692.2,152.1c0-2.4-1.9-4.3-4.3-4.3c-2.4,0-4.3,1.9-4.3,4.3c0,2.4,1.9,4.3,4.3,4.3C690.2,156.5,692.2,154.5,692.2,152.1
		L692.2,152.1z"/>
	<path d="M769.9,118.1c10.9-7.9,26-5.4,33.8,5.4c5.8-1.6,12.2,0,16.5,4.2c6.8,6.6,6.9,17.5,0.3,24.2c1.1,2.6,1.7,5.4,1.5,8.3
		c-0.3,10.9-9.4,19.5-20.2,19.2c0.1,1.4-0.1,2.8-0.5,4.1c1.5-0.9,3.1-1.2,4.8-0.9c3.9,0.6,6.6,4.3,6,8.2s-4.3,6.6-8.2,6
		s-6.6-4.3-6-8.2c-1.1,0.9-2.3,1.6-3.6,2c-5.8,2-12.1-1.1-14.1-6.9c-3.8,2.5-8.5,3.1-12.9,1.9c-8.5-2.4-13.4-11.2-11-19.7
		c-4.7-2.5-8.2-6.9-9.4-12.1c-2.3-9.9,3.8-19.8,13.7-22.2C762,126.2,765.3,121.4,769.9,118.1z M795.5,163.9c8-4.6,10.8-14.9,6.2-23
		s-14.9-10.8-22.9-6.2c-8.1,4.7-10.9,14.9-6.2,23c1.5,2.6,3.6,4.7,6.2,6.2c-1.3,4.6,1.5,9.4,6.1,10.6c4.6,1.2,9.4-1.5,10.6-6.1
		C795.9,166.9,795.9,165.4,795.5,163.9z M784.8,152.1c0-2.4-2-4.3-4.3-4.3c-2.4,0-4.3,1.9-4.3,4.3c0,2.4,1.9,4.3,4.3,4.3
		C782.9,156.5,784.8,154.5,784.8,152.1L784.8,152.1z M783.6,163.1c-0.2,0.3-0.2,0.7,0,0.9c0.4,0.4,0.6,0.6,0.8,0.6h2.7h2.7
		c0.2,0,0.4-0.1,0.6-0.3c0.5-0.5,0.5-0.9,0.2-1.2l-2.8-4.1c-0.3-0.4-0.8-0.4-1.1-0.2C786.4,159.1,783.6,163.1,783.6,163.1
		 M798,152.1c0-2.4-1.9-4.3-4.3-4.3c-2.4,0-4.3,1.9-4.3,4.3c0,2.4,1.9,4.3,4.3,4.3C796,156.5,798,154.5,798,152.1L798,152.1z"/>
	<path d="M875.7,118.4c10.9-7.9,26-5.4,33.8,5.4c5.8-1.6,12.2,0,16.5,4.2c6.8,6.6,6.9,17.5,0.3,24.2c1.1,2.6,1.7,5.4,1.5,8.3
		c-0.3,10.9-9.4,19.5-20.2,19.2c0.1,1.4-0.1,2.8-0.5,4.1c1.5-0.9,3.1-1.2,4.8-0.9c3.9,0.6,6.6,4.3,6,8.2s-4.3,6.6-8.2,6
		s-6.6-4.3-6-8.2c-1.1,0.9-2.3,1.6-3.6,2c-5.8,2-12.1-1.1-14.1-6.9c-3.8,2.5-8.5,3.1-12.9,1.9c-8.5-2.4-13.4-11.2-11-19.7
		c-4.7-2.5-8.2-6.9-9.4-12.1c-2.3-9.9,3.8-19.8,13.7-22.2C867.8,126.5,871.1,121.6,875.7,118.4z M901.3,164.2
		c8-4.6,10.8-14.9,6.2-23s-14.9-10.8-22.9-6.2c-8.1,4.7-10.9,14.9-6.2,23c1.5,2.6,3.6,4.7,6.2,6.2c-1.3,4.6,1.5,9.4,6.1,10.6
		c4.6,1.2,9.4-1.5,10.6-6.1C901.7,167.2,901.7,165.6,901.3,164.2z M890.7,152.4c0-2.4-2-4.3-4.3-4.3c-2.4,0-4.3,1.9-4.3,4.3
		c0,2.4,1.9,4.3,4.3,4.3C888.7,156.7,890.7,154.8,890.7,152.4L890.7,152.4z M889.4,163.4c-0.2,0.3-0.2,0.7,0,0.9
		c0.4,0.4,0.6,0.6,0.8,0.6h2.7h2.7c0.2,0,0.4-0.1,0.6-0.3c0.5-0.5,0.5-0.9,0.2-1.2l-2.8-4.1c-0.3-0.4-0.8-0.4-1.1-0.2
		C892.2,159.3,889.4,163.4,889.4,163.4 M903.8,152.4c0-2.4-1.9-4.3-4.3-4.3c-2.4,0-4.3,1.9-4.3,4.3c0,2.4,1.9,4.3,4.3,4.3
		C901.9,156.7,903.8,154.8,903.8,152.4L903.8,152.4z"/>
	<path d="M981.5,116.8c10.9-7.9,26-5.4,33.8,5.4c5.8-1.6,12.2,0,16.5,4.2c6.8,6.6,6.9,17.5,0.3,24.2c1.1,2.6,1.7,5.4,1.5,8.3
		c-0.3,10.9-9.4,19.5-20.2,19.2c0.1,1.4-0.1,2.8-0.5,4.1c1.5-0.9,3.1-1.2,4.8-0.9c3.9,0.6,6.6,4.3,6,8.2s-4.3,6.6-8.2,6
		s-6.6-4.3-6-8.2c-1.1,0.9-2.3,1.6-3.6,2c-5.8,2-12.1-1.1-14.1-6.9c-3.8,2.5-8.5,3.1-12.9,1.9c-8.5-2.4-13.4-11.2-11-19.7
		c-4.7-2.5-8.2-6.9-9.4-12.1c-2.3-9.9,3.8-19.8,13.7-22.2C973.6,125,976.9,120.1,981.5,116.8z M1007.1,162.6c8-4.6,10.8-14.9,6.2-23
		s-14.9-10.8-22.9-6.2c-8.1,4.7-10.9,14.9-6.2,23c1.5,2.6,3.6,4.7,6.2,6.2c-1.3,4.6,1.5,9.4,6.1,10.6c4.6,1.2,9.4-1.5,10.6-6.1
		C1007.5,165.6,1007.5,164.1,1007.1,162.6z M996.5,150.8c0-2.4-2-4.3-4.3-4.3c-2.4,0-4.3,1.9-4.3,4.3c0,2.4,1.9,4.3,4.3,4.3
		C994.5,155.2,996.5,153.2,996.5,150.8L996.5,150.8z M995.2,161.9c-0.2,0.3-0.2,0.7,0,0.9c0.4,0.4,0.6,0.6,0.8,0.6h2.7h2.7
		c0.2,0,0.4-0.1,0.6-0.3c0.5-0.5,0.5-0.9,0.2-1.2l-2.8-4.1c-0.3-0.4-0.8-0.4-1.1-0.2C998,157.8,995.2,161.9,995.2,161.9
		 M1009.6,150.8c0-2.4-1.9-4.3-4.3-4.3c-2.4,0-4.3,1.9-4.3,4.3c0,2.4,1.9,4.3,4.3,4.3C1007.7,155.2,1009.6,153.2,1009.6,150.8
		L1009.6,150.8z"/>
	<path d="M664,229.1c10.9-7.9,26-5.4,33.8,5.4c5.8-1.6,12.2,0,16.5,4.2c6.8,6.6,6.9,17.5,0.3,24.2c1.1,2.6,1.7,5.4,1.5,8.3
		c-0.3,10.9-9.4,19.5-20.2,19.2c0.1,1.4-0.1,2.8-0.5,4.1c1.5-0.9,3.1-1.2,4.8-0.9c3.9,0.6,6.6,4.3,6,8.2c-0.6,3.9-4.3,6.6-8.2,6
		s-6.6-4.3-6-8.2c-1.1,0.9-2.3,1.6-3.6,2c-5.8,2-12.1-1.1-14.1-6.9c-3.8,2.5-8.5,3.1-12.9,1.9c-8.5-2.4-13.4-11.2-11-19.7
		c-4.7-2.5-8.2-6.9-9.4-12.1c-2.3-9.9,3.8-19.8,13.7-22.2C656.2,237.3,659.5,232.4,664,229.1z M689.7,274.9c8-4.6,10.8-14.9,6.2-23
		s-14.9-10.8-22.9-6.2c-8.1,4.7-10.9,14.9-6.2,23c1.5,2.6,3.6,4.7,6.2,6.2c-1.3,4.6,1.5,9.4,6.1,10.6s9.4-1.5,10.6-6.1
		C690,277.9,690,276.4,689.7,274.9z M679,263.2c0-2.4-2-4.3-4.3-4.3c-2.4,0-4.3,1.9-4.3,4.3s1.9,4.3,4.3,4.3S679,265.6,679,263.2
		L679,263.2z M677.8,274.2c-0.2,0.3-0.2,0.7,0,0.9c0.4,0.4,0.6,0.6,0.8,0.6h2.7h2.7c0.2,0,0.4-0.1,0.6-0.3c0.5-0.5,0.5-0.9,0.2-1.2
		l-2.8-4.1c-0.3-0.4-0.8-0.4-1.1-0.2C680.6,270.1,677.8,274.2,677.8,274.2 M692.2,263.2c0-2.4-1.9-4.3-4.3-4.3
		c-2.4,0-4.3,1.9-4.3,4.3s1.9,4.3,4.3,4.3C690.2,267.5,692.2,265.6,692.2,263.2L692.2,263.2z"/>
	<path d="M772.9,226.1c10.9-7.9,26-5.4,33.8,5.4c5.8-1.6,12.2,0,16.5,4.2c6.8,6.6,6.9,17.5,0.3,24.2c1.1,2.6,1.7,5.4,1.5,8.3
		c-0.3,10.9-9.4,19.5-20.2,19.2c0.1,1.4-0.1,2.8-0.5,4.1c1.5-0.9,3.1-1.2,4.8-0.9c3.9,0.6,6.6,4.3,6,8.2c-0.6,3.9-4.3,6.6-8.2,6
		s-6.6-4.3-6-8.2c-1.1,0.9-2.3,1.6-3.6,2c-5.8,2-12.1-1.1-14.1-6.9c-3.8,2.5-8.5,3.1-12.9,1.9c-8.5-2.4-13.4-11.2-11-19.7
		c-4.7-2.5-8.2-6.9-9.4-12.1c-2.3-9.9,0.8-16.8,10.7-19.2C762,237.3,768.3,229.4,772.9,226.1z M798.5,271.9c8-4.6,10.8-14.9,6.2-23
		s-14.9-10.8-22.9-6.2c-8.1,4.7-10.9,14.9-6.2,23c1.5,2.6,3.6,4.7,6.2,6.2c-1.3,4.6,1.5,9.4,6.1,10.6s9.4-1.5,10.6-6.1
		C798.9,274.9,798.9,273.4,798.5,271.9z M787.8,260.2c0-2.4-2-4.3-4.3-4.3c-2.4,0-4.3,1.9-4.3,4.3s1.9,4.3,4.3,4.3
		C785.9,264.5,787.8,262.6,787.8,260.2L787.8,260.2z M786.6,271.2c-0.2,0.3-0.2,0.7,0,0.9c0.4,0.4,0.6,0.6,0.8,0.6h2.7h2.7
		c0.2,0,0.4-0.1,0.6-0.3c0.5-0.5,0.5-0.9,0.2-1.2l-2.8-4.1c-0.3-0.4-0.8-0.4-1.1-0.2C789.4,267.1,786.6,271.2,786.6,271.2
		 M801,260.2c0-2.4-1.9-4.3-4.3-4.3c-2.4,0-4.3,1.9-4.3,4.3s1.9,4.3,4.3,4.3C799,264.5,801,262.6,801,260.2L801,260.2z"/>
	<path d="M875.7,230.4c10.9-7.9,26-5.4,33.8,5.4c5.8-1.6,12.2,0,16.5,4.2c6.8,6.6,6.9,17.5,0.3,24.2c1.1,2.6,1.7,5.4,1.5,8.3
		c-0.3,10.9-9.4,19.5-20.2,19.2c0.1,1.4-0.1,2.8-0.5,4.1c1.5-0.9,3.1-1.2,4.8-0.9c3.9,0.6,6.6,4.3,6,8.2c-0.6,3.9-4.3,6.6-8.2,6
		s-6.6-4.3-6-8.2c-1.1,0.9-2.3,1.6-3.6,2c-5.8,2-12.1-1.1-14.1-6.9c-3.8,2.5-8.5,3.1-12.9,1.9c-8.5-2.4-13.4-11.2-11-19.7
		c-4.7-2.5-8.2-6.9-9.4-12.1c-2.3-9.9,3.8-19.8,13.7-22.2C867.8,238.5,871.1,233.7,875.7,230.4z M901.3,276.2
		c8-4.6,10.8-14.9,6.2-23s-14.9-10.8-22.9-6.2c-8.1,4.7-10.9,14.9-6.2,23c1.5,2.6,3.6,4.7,6.2,6.2c-1.3,4.6,1.5,9.4,6.1,10.6
		s9.4-1.5,10.6-6.1C901.7,279.2,901.7,277.6,901.3,276.2z M890.7,264.4c0-2.4-2-4.3-4.3-4.3c-2.4,0-4.3,1.9-4.3,4.3s1.9,4.3,4.3,4.3
		C888.7,268.7,890.7,266.8,890.7,264.4L890.7,264.4z M889.4,275.4c-0.2,0.3-0.2,0.7,0,1c0.4,0.4,0.6,0.6,0.8,0.6h2.7h2.7
		c0.2,0,0.4-0.1,0.6-0.3c0.5-0.5,0.5-0.9,0.2-1.2l-2.8-4.1c-0.3-0.4-0.8-0.4-1.1-0.2C892.2,271.3,889.4,275.4,889.4,275.4
		 M903.8,264.4c0-2.4-1.9-4.3-4.3-4.3c-2.4,0-4.3,1.9-4.3,4.3s1.9,4.3,4.3,4.3C901.9,268.7,903.8,266.8,903.8,264.4L903.8,264.4z"/>
	<path d="M981.5,230.8c10.9-7.9,26-5.4,33.8,5.4c5.8-1.6,12.2,0,16.5,4.2c6.8,6.6,6.9,17.5,0.3,24.2c1.1,2.6,1.7,5.4,1.5,8.3
		c-0.3,10.9-9.4,19.5-20.2,19.2c0.1,1.4-0.1,2.8-0.5,4.1c1.5-0.9,3.1-1.2,4.8-0.9c3.9,0.6,6.6,4.3,6,8.2c-0.6,3.9-4.3,6.6-8.2,6
		s-6.6-4.3-6-8.2c-1.1,0.9-2.3,1.6-3.6,2c-5.8,2-12.1-1.1-14.1-6.9c-3.8,2.5-8.5,3.1-12.9,1.9c-8.5-2.4-13.4-11.2-11-19.7
		c-4.7-2.5-8.2-6.9-9.4-12.1c-2.3-9.9,3.8-19.8,13.7-22.2C973.6,239,976.9,234.1,981.5,230.8z M1007.1,276.6c8-4.6,10.8-14.9,6.2-23
		s-14.9-10.8-22.9-6.2c-8.1,4.7-10.9,14.9-6.2,23c1.5,2.6,3.6,4.7,6.2,6.2c-1.3,4.6,1.5,9.4,6.1,10.6s9.4-1.5,10.6-6.1
		C1007.5,279.6,1007.5,278.1,1007.1,276.6z M996.5,264.9c0-2.4-2-4.3-4.3-4.3c-2.4,0-4.3,1.9-4.3,4.3s1.9,4.3,4.3,4.3
		C994.5,269.2,996.5,267.3,996.5,264.9L996.5,264.9z M995.2,275.9c-0.2,0.3-0.2,0.7,0,1c0.4,0.4,0.6,0.6,0.8,0.6h2.7h2.7
		c0.2,0,0.4-0.1,0.6-0.3c0.5-0.5,0.5-0.9,0.2-1.2l-2.8-4.1c-0.3-0.4-0.8-0.4-1.1-0.2C998,271.8,995.2,275.9,995.2,275.9
		 M1009.6,264.9c0-2.4-1.9-4.3-4.3-4.3c-2.4,0-4.3,1.9-4.3,4.3s1.9,4.3,4.3,4.3C1007.7,269.2,1009.6,267.3,1009.6,264.9
		L1009.6,264.9z"/>
	<path d="M664,333.9c10.9-7.9,26-5.4,33.8,5.4c5.8-1.6,12.2,0,16.5,4.2c6.8,6.6,6.9,17.5,0.3,24.2c1.1,2.6,1.7,5.4,1.5,8.3
		c-0.3,10.9-9.4,19.5-20.2,19.2c0.1,1.4-0.1,2.8-0.5,4.1c1.5-0.9,3.1-1.2,4.8-0.9c3.9,0.6,6.6,4.3,6,8.2c-0.6,3.9-4.3,6.6-8.2,6
		s-6.6-4.3-6-8.2c-1.1,0.9-2.3,1.6-3.6,2c-5.8,2-12.1-1.1-14.1-6.9c-3.8,2.5-8.5,3.1-12.9,1.9c-8.5-2.4-13.4-11.2-11-19.7
		c-4.7-2.5-8.2-6.9-9.4-12.1c-2.3-9.9,3.8-19.8,13.7-22.2C656.2,342,659.5,337.2,664,333.9z M689.7,379.7c8-4.6,10.8-14.9,6.2-23
		s-14.9-10.8-22.9-6.2c-8.1,4.7-10.9,14.9-6.2,23c1.5,2.6,3.6,4.7,6.2,6.2c-1.3,4.6,1.5,9.4,6.1,10.6s9.4-1.5,10.6-6.1
		C690,382.7,690,381.1,689.7,379.7z M679,367.9c0-2.4-2-4.3-4.3-4.3c-2.4,0-4.3,1.9-4.3,4.3s1.9,4.3,4.3,4.3
		C677.1,372.2,679,370.3,679,367.9L679,367.9z M677.8,378.9c-0.2,0.3-0.2,0.7,0,1c0.4,0.4,0.6,0.6,0.8,0.6h2.7h2.7
		c0.2,0,0.4-0.1,0.6-0.3c0.5-0.5,0.5-0.9,0.2-1.2l-2.8-4.1c-0.3-0.4-0.8-0.4-1.1-0.2C680.6,374.8,677.8,378.9,677.8,378.9
		 M692.2,367.9c0-2.4-1.9-4.3-4.3-4.3c-2.4,0-4.3,1.9-4.3,4.3s1.9,4.3,4.3,4.3C690.2,372.2,692.2,370.3,692.2,367.9L692.2,367.9z"/>
	<path d="M769.9,333.9c10.9-7.9,26-5.4,33.8,5.4c5.8-1.6,12.2,0,16.5,4.2c6.8,6.6,6.9,17.5,0.3,24.2c1.1,2.6,1.7,5.4,1.5,8.3
		c-0.3,10.9-9.4,19.5-20.2,19.2c0.1,1.4-0.1,2.8-0.5,4.1c1.5-0.9,3.1-1.2,4.8-0.9c3.9,0.6,6.6,4.3,6,8.2c-0.6,3.9-4.3,6.6-8.2,6
		s-6.6-4.3-6-8.2c-1.1,0.9-2.3,1.6-3.6,2c-5.8,2-12.1-1.1-14.1-6.9c-3.8,2.5-8.5,3.1-12.9,1.9c-8.5-2.4-13.4-11.2-11-19.7
		c-4.7-2.5-8.2-6.9-9.4-12.1c-2.3-9.9,3.8-19.8,13.7-22.2C762,342,765.3,337.2,769.9,333.9z M795.5,379.7c8-4.6,10.8-14.9,6.2-23
		s-14.9-10.8-22.9-6.2c-8.1,4.7-10.9,14.9-6.2,23c1.5,2.6,3.6,4.7,6.2,6.2c-1.3,4.6,1.5,9.4,6.1,10.6s9.4-1.5,10.6-6.1
		C795.9,382.7,795.9,381.1,795.5,379.7z M784.8,367.9c0-2.4-2-4.3-4.3-4.3c-2.4,0-4.3,1.9-4.3,4.3s1.9,4.3,4.3,4.3
		C782.9,372.2,784.8,370.3,784.8,367.9L784.8,367.9z M783.6,378.9c-0.2,0.3-0.2,0.7,0,1c0.4,0.4,0.6,0.6,0.8,0.6h2.7h2.7
		c0.2,0,0.4-0.1,0.6-0.3c0.5-0.5,0.5-0.9,0.2-1.2l-2.8-4.1c-0.3-0.4-0.8-0.4-1.1-0.2C786.4,374.8,783.6,378.9,783.6,378.9
		 M798,367.9c0-2.4-1.9-4.3-4.3-4.3c-2.4,0-4.3,1.9-4.3,4.3s1.9,4.3,4.3,4.3C796,372.2,798,370.3,798,367.9L798,367.9z"/>
	<path d="M875.7,333.8c10.9-7.9,26-5.4,33.8,5.4c5.8-1.6,12.2,0,16.5,4.2c6.8,6.6,6.9,17.5,0.3,24.2c1.1,2.6,1.7,5.4,1.5,8.3
		c-0.3,10.9-9.4,19.5-20.2,19.2c0.1,1.4-0.1,2.8-0.5,4.1c1.5-0.9,3.1-1.2,4.8-0.9c3.9,0.6,6.6,4.3,6,8.2c-0.6,3.9-4.3,6.6-8.2,6
		s-6.6-4.3-6-8.2c-1.1,0.9-2.3,1.6-3.6,2c-5.8,2-12.1-1.1-14.1-6.9c-3.8,2.5-8.5,3.1-12.9,1.9c-8.5-2.4-13.4-11.2-11-19.7
		c-4.7-2.5-8.2-6.9-9.4-12.1c-2.3-9.9,3.8-19.8,13.7-22.2C867.8,342,871.1,337.1,875.7,333.8z M901.3,379.6c8-4.6,10.8-14.9,6.2-23
		s-14.9-10.8-22.9-6.2c-8.1,4.7-10.9,14.9-6.2,23c1.5,2.6,3.6,4.7,6.2,6.2c-1.3,4.6,1.5,9.4,6.1,10.6s9.4-1.5,10.6-6.1
		C901.7,382.6,901.7,381.1,901.3,379.6z M890.7,367.8c0-2.4-2-4.3-4.3-4.3c-2.4,0-4.3,1.9-4.3,4.3s1.9,4.3,4.3,4.3
		C888.7,372.2,890.7,370.2,890.7,367.8L890.7,367.8z M889.4,378.9c-0.2,0.3-0.2,0.7,0,0.9c0.4,0.4,0.6,0.6,0.8,0.6h2.7h2.7
		c0.2,0,0.4-0.1,0.6-0.3c0.5-0.5,0.5-0.9,0.2-1.2l-2.8-4.1c-0.3-0.4-0.8-0.4-1.1-0.2C892.2,374.8,889.4,378.9,889.4,378.9
		 M903.8,367.8c0-2.4-1.9-4.3-4.3-4.3c-2.4,0-4.3,1.9-4.3,4.3s1.9,4.3,4.3,4.3C901.9,372.2,903.8,370.2,903.8,367.8L903.8,367.8z"/>
	<path d="M981.5,333.8c10.9-7.9,26-5.4,33.8,5.4c5.8-1.6,12.2,0,16.5,4.2c6.8,6.6,6.9,17.5,0.3,24.2c1.1,2.6,1.7,5.4,1.5,8.3
		c-0.3,10.9-9.4,19.5-20.2,19.2c0.1,1.4-0.1,2.8-0.5,4.1c1.5-0.9,3.1-1.2,4.8-0.9c3.9,0.6,6.6,4.3,6,8.2c-0.6,3.9-4.3,6.6-8.2,6
		s-6.6-4.3-6-8.2c-1.1,0.9-2.3,1.6-3.6,2c-5.8,2-12.1-1.1-14.1-6.9c-3.8,2.5-8.5,3.1-12.9,1.9c-8.5-2.4-13.4-11.2-11-19.7
		c-4.7-2.5-8.2-6.9-9.4-12.1c-2.3-9.9,3.8-19.8,13.7-22.2C973.6,342,976.9,337.1,981.5,333.8z M1007.1,379.6c8-4.6,10.8-14.9,6.2-23
		s-14.9-10.8-22.9-6.2c-8.1,4.7-10.9,14.9-6.2,23c1.5,2.6,3.6,4.7,6.2,6.2c-1.3,4.6,1.5,9.4,6.1,10.6s9.4-1.5,10.6-6.1
		C1007.5,382.6,1007.5,381.1,1007.1,379.6z M996.5,367.8c0-2.4-2-4.3-4.3-4.3c-2.4,0-4.3,1.9-4.3,4.3s1.9,4.3,4.3,4.3
		C994.5,372.2,996.5,370.2,996.5,367.8L996.5,367.8z M995.2,378.9c-0.2,0.3-0.2,0.7,0,0.9c0.4,0.4,0.6,0.6,0.8,0.6h2.7h2.7
		c0.2,0,0.4-0.1,0.6-0.3c0.5-0.5,0.5-0.9,0.2-1.2l-2.8-4.1c-0.3-0.4-0.8-0.4-1.1-0.2C998,374.8,995.2,378.9,995.2,378.9
		 M1009.6,367.8c0-2.4-1.9-4.3-4.3-4.3c-2.4,0-4.3,1.9-4.3,4.3s1.9,4.3,4.3,4.3C1007.7,372.2,1009.6,370.2,1009.6,367.8
		L1009.6,367.8z"/>
	<path class="st5" d="M665.2,438c10.9-7.9,26-5.4,33.8,5.4c5.8-1.6,12.2,0,16.5,4.2c6.8,6.6,6.9,17.5,0.3,24.2
		c1.1,2.6,1.7,5.4,1.5,8.3c-0.3,10.9-9.4,19.5-20.2,19.2c0.1,1.4-0.1,2.8-0.5,4.1c1.5-0.9,3.1-1.2,4.8-0.9c3.9,0.6,6.6,4.3,6,8.2
		c-0.6,3.9-4.3,6.6-8.2,6s-6.6-4.3-6-8.2c-1.1,0.9-2.3,1.6-3.6,2c-5.8,2-12.1-1.1-14.1-6.9c-3.8,2.5-8.5,3.1-12.9,1.9
		c-8.5-2.4-13.4-11.2-11-19.7c-4.7-2.5-8.2-6.9-9.4-12.1c-2.3-9.9,3.8-19.8,13.7-22.2C657.4,446.1,660.6,441.3,665.2,438z
		 M690.8,483.8c8-4.6,10.8-14.9,6.2-23s-14.9-10.8-22.9-6.2c-8.1,4.7-10.9,14.9-6.2,23c1.5,2.6,3.6,4.7,6.2,6.2
		c-1.3,4.6,1.5,9.4,6.1,10.6s9.4-1.5,10.6-6.1C691.2,486.8,691.2,485.3,690.8,483.8z M680.2,472c0-2.4-2-4.3-4.3-4.3
		c-2.4,0-4.3,1.9-4.3,4.3s1.9,4.3,4.3,4.3C678.2,476.4,680.2,474.4,680.2,472L680.2,472z M678.9,483c-0.2,0.3-0.2,0.7,0,0.9
		c0.4,0.4,0.6,0.6,0.8,0.6h2.7h2.7c0.2,0,0.4-0.1,0.6-0.3c0.5-0.5,0.5-0.9,0.2-1.2l-2.9-4.1c-0.3-0.4-0.8-0.4-1.1-0.2
		C681.7,478.9,678.9,483,678.9,483 M693.3,472c0-2.4-1.9-4.3-4.3-4.3c-2.4,0-4.3,1.9-4.3,4.3s1.9,4.3,4.3,4.3
		C691.4,476.4,693.3,474.4,693.3,472L693.3,472z"/>
	<path class="st6" d="M671.5,472c0,1.6,0.8,2.9,2.1,3.7c0-2.5,0-4.9,0-7.4C672.4,469.1,671.5,470.5,671.5,472z"/>
	<path class="st6" d="M673.6,483.9c-2.4-1.5-4.4-3.5-5.8-5.9c-4.6-7.9-1.9-18,5.8-22.7c0-6.9,0.1-13.9,0.1-20.8c-3,0.7-6,2-8.6,4
		c-4.5,3.3-7.8,8.1-9.2,13.7c-9.9,2.3-16,12.3-13.7,22.2c1.2,5.2,4.7,9.6,9.4,12.1c-2.4,8.5,2.6,17.2,11,19.7
		c3.7,1,7.5,0.7,10.9-0.9C673.6,498,673.6,490.9,673.6,483.9z"/>
	<rect x="609.8" y="525.8" class="st1" width="429.2" height="88.2"/>
	<text transform="matrix(1 0 0 1 609.7698 541.0476)" class="st2 st3">CADA NUBE REPRESENTA 1.000.000 [TONS] DE </text>
	<text transform="matrix(1 0 0 1 609.7698 565.0476)" class="st2 st3">CO</text>
	<text transform="matrix(1 0 0 1 635.9316 571.708)" class="st2 st4">2</text>
	<text transform="matrix(1 0 0 1 642.2971 565.0476)" class="st2 st3">        </text>
</g>
</svg>
