<?xml version="1.0" encoding="utf-8"?>
<!-- Generator: Adobe Illustrator 19.2.1, SVG Export Plug-In . SVG Version: 6.00 Build 0)  -->
<svg version="1.1" id="Capa_1" xmlns="http://www.w3.org/2000/svg" xmlns:xlink="http://www.w3.org/1999/xlink" x="0px" y="0px"
	 viewBox="0 0 1066 593" style="enable-background:new 0 0 1066 593;" xml:space="preserve">
<style type="text/css">
	.st0{opacity:0.8;fill:#D7E9EA;stroke:#416190;stroke-width:5;stroke-miterlimit:10;}
	.st1{fill:none;}
	.st2{font-family:'Tahoma';}
	.st3{font-size:20px;}
	.st4{font-size:11.66px;}
	.st5{fill:none;stroke:#000000;stroke-miterlimit:10;}
	.st6{font-family:'Tahoma-Bold';}
	.st7{font-size:22px;}
</style>
<path class="st0" d="M1018.2,588.7H47.8C24.2,588.7,5,569.5,5,545.8v-494C5,28.2,24.2,9,47.8,9h970.3c23.7,0,42.8,19.2,42.8,42.8
	v494C1061,569.5,1041.8,588.7,1018.2,588.7z"/>
<rect x="74.2" y="535.8" class="st1" width="429.2" height="88.2"/>
<text transform="matrix(1 0 0 1 74.1614 547.0477)" class="st2 st3">1.257.511,836 [TONS] DE CO</text>
<text transform="matrix(1 0 0 1 336.8369 553.708)" class="st2 st4">2</text>
<text transform="matrix(1 0 0 1 364.2025 551.0476)" class="st2 st3">        </text>
<rect x="588.8" y="534.8" class="st1" width="429.2" height="88.2"/>
<text transform="matrix(1 0 0 1 588.7698 542.0476)" class="st2 st3">CADA NUBE REPRESENTA 1.000.000 [TONS] DE </text>
<text transform="matrix(1 0 0 1 588.7698 566.0476)" class="st2 st3">CO</text>
<text transform="matrix(1 0 0 1 614.9316 572.708)" class="st2 st4">2</text>
<text transform="matrix(1 0 0 1 621.2971 574.0476)" class="st2 st3">        </text>
<path class="st5" d="M723.6,264.6c10.9-7.9,26-5.4,33.8,5.4c5.8-1.6,12.2,0,16.5,4.2c6.8,6.6,6.9,17.5,0.3,24.2
	c1.1,2.6,1.7,5.4,1.5,8.3c-0.3,10.9-9.4,19.5-20.2,19.2c0.1,1.4-0.1,2.8-0.5,4.1c1.5-0.9,3.1-1.2,4.8-0.9c3.9,0.6,6.6,4.3,6,8.2
	c-0.6,3.9-4.3,6.6-8.2,6s-6.6-4.3-6-8.2c-1.1,0.9-2.3,1.6-3.6,2c-5.8,2-12.1-1.1-14.1-6.9c-3.8,2.5-8.5,3.1-12.9,1.9
	c-8.5-2.4-13.4-11.2-11-19.7c-4.7-2.5-8.2-6.9-9.4-12.1c-2.3-9.9,3.8-19.8,13.7-22.2C715.8,272.7,719.1,267.9,723.6,264.6z
	 M749.2,310.4c8-4.6,10.8-14.9,6.2-23s-14.9-10.8-22.9-6.2c-8.1,4.7-10.9,14.9-6.2,23c1.5,2.6,3.6,4.7,6.2,6.2
	c-1.3,4.6,1.5,9.4,6.1,10.6s9.4-1.5,10.6-6.1C749.6,313.4,749.6,311.9,749.2,310.4z M738.6,298.6c0-2.4-2-4.3-4.3-4.3
	c-2.4,0-4.3,1.9-4.3,4.3s1.9,4.3,4.3,4.3C736.7,303,738.6,301,738.6,298.6L738.6,298.6z M737.3,309.6c-0.2,0.3-0.2,0.7,0,0.9
	c0.4,0.4,0.6,0.6,0.8,0.6h2.7h2.7c0.2,0,0.4-0.1,0.6-0.3c0.5-0.5,0.5-0.9,0.2-1.2l-2.8-4.1c-0.3-0.4-0.8-0.4-1.1-0.2
	C740.2,305.5,737.3,309.6,737.3,309.6 M751.7,298.6c0-2.4-1.9-4.3-4.3-4.3c-2.4,0-4.3,1.9-4.3,4.3s1.9,4.3,4.3,4.3
	S751.7,301,751.7,298.6L751.7,298.6z"/>
<path d="M613.4,260.3c10.9-7.9,26-5.4,33.8,5.4c5.8-1.6,12.2,0,16.5,4.2c6.8,6.6,6.9,17.5,0.3,24.2c1.1,2.6,1.7,5.4,1.5,8.3
	c-0.3,10.9-9.4,19.5-20.2,19.2c0.1,1.4-0.1,2.8-0.5,4.1c1.5-0.9,3.1-1.2,4.8-0.9c3.9,0.6,6.6,4.3,6,8.2c-0.6,3.9-4.3,6.6-8.2,6
	s-6.6-4.3-6-8.2c-1.1,0.9-2.3,1.6-3.6,2c-5.8,2-12.1-1.1-14.1-6.9c-3.8,2.5-8.5,3.1-12.9,1.9c-8.5-2.4-13.4-11.2-11-19.7
	c-4.7-2.5-8.2-6.9-9.4-12.1c-2.3-9.9,3.8-19.8,13.7-22.2C605.5,268.4,608.8,263.6,613.4,260.3z M639,306.1c8-4.6,10.8-14.9,6.2-23
	s-14.9-10.8-22.9-6.2c-8.1,4.7-10.9,14.9-6.2,23c1.5,2.6,3.6,4.7,6.2,6.2c-1.3,4.6,1.5,9.4,6.1,10.6s9.4-1.5,10.6-6.1
	C639.4,309.1,639.4,307.5,639,306.1z M628.3,294.3c0-2.4-2-4.3-4.3-4.3c-2.4,0-4.3,1.9-4.3,4.3s1.9,4.3,4.3,4.3
	C626.4,298.6,628.3,296.7,628.3,294.3L628.3,294.3z M627.1,305.3c-0.2,0.3-0.2,0.7,0,1c0.4,0.4,0.6,0.6,0.8,0.6h2.7h2.7
	c0.2,0,0.4-0.1,0.6-0.3c0.5-0.5,0.5-0.9,0.2-1.2l-2.8-4.1c-0.3-0.4-0.8-0.4-1.1-0.2C629.9,301.2,627.1,305.3,627.1,305.3
	 M641.5,294.3c0-2.4-1.9-4.3-4.3-4.3c-2.4,0-4.3,1.9-4.3,4.3s1.9,4.3,4.3,4.3C639.5,298.6,641.5,296.7,641.5,294.3L641.5,294.3z"/>
<path d="M728.2,306.6c-0.7-0.8-1.3-1.7-1.9-2.7c-3.6-6.2-2.7-13.8,1.6-19c-0.1-7.6-0.2-15.3-0.2-22.9c-1.4,0.6-2.7,1.4-4,2.3
	c-4.5,3.3-7.8,8.1-9.2,13.7c-9.9,2.3-16,12.3-13.7,22.2c1.2,5.2,4.7,9.6,9.4,12.1c-2.4,8.5,2.6,17.2,11,19.7
	c2.3,0.6,4.7,0.7,6.9,0.4C728.2,323.8,728.2,315.2,728.2,306.6z"/>
<text transform="matrix(1 0 0 1 76.1172 97.1917)" class="st6 st7">TOTAL DE CONTAMINACIÓN DE CO  EN </text>
<text transform="matrix(1 0 0 1 76.1172 123.5916)" class="st6 st7">LA REGIÓN:  2.320.105,64 [TONTS]</text>
<text transform="matrix(1.0374 0 0 1 443.1953 99.708)" class="st6 st4">2</text>
</svg>
