<?xml version="1.0" encoding="utf-8"?>
<!-- Generator: Adobe Illustrator 19.2.1, SVG Export Plug-In . SVG Version: 6.00 Build 0)  -->
<svg version="1.1" id="Capa_1" xmlns="http://www.w3.org/2000/svg" xmlns:xlink="http://www.w3.org/1999/xlink" x="0px" y="0px"
	 viewBox="0 0 96.8 97.5" style="enable-background:new 0 0 96.8 97.5;" xml:space="preserve">
<style type="text/css">
	.st0{stroke:#000000;stroke-width:2;stroke-miterlimit:10;}
	.st1{fill:none;stroke:#000000;stroke-width:2;stroke-miterlimit:10;}
</style>
<g>
	<path class="st0" d="M21.5,8.2c0-0.6-0.2-1.1-0.6-1.5c0,0,0-0.1,0-0.1c0-1.5-1.2-2.7-2.7-2.7c-0.5-0.7-1.2-1.1-2-1.1
		c-0.9,0-1.8,0.6-2.2,1.5c-0.3-1.3-1.6-2.3-3.1-2.3C9.6,1.9,8.5,2.6,8,3.7C7.5,3.1,6.9,2.8,6.1,2.8c-1,0-1.8,0.6-2.2,1.5
		C2.6,4.6,1.7,5.7,1.7,7c0,0.1,0,0.2,0,0.3C1.6,7.6,1.5,7.9,1.5,8.2c0,1.1,0.7,2,1.7,2.1c0.2,1.3,1.4,2.4,2.8,2.4
		c0.6,0,1.1-0.2,1.5-0.4c0.5,0.4,1.1,0.6,1.8,0.6c0.3,0,0.6,0,0.8-0.1c0.5,0.7,1.4,1.2,2.4,1.2c1.3,0,2.4-0.8,2.7-2
		c0.5,0.4,1.2,0.7,1.9,0.7c1.5,0,2.7-1,2.8-2.4C20.9,10,21.5,9.2,21.5,8.2z"/>
	<g>
		<path class="st0" d="M45.8,8.2c0-0.6-0.2-1.1-0.6-1.5c0,0,0-0.1,0-0.1c0-1.5-1.2-2.7-2.7-2.7c-0.5-0.7-1.2-1.1-2-1.1
			c-0.9,0-1.8,0.6-2.2,1.5c-0.3-1.3-1.6-2.3-3.1-2.3c-1.3,0-2.4,0.7-2.9,1.8c-0.5-0.6-1.1-0.9-1.8-0.9c-1,0-1.8,0.6-2.2,1.5
			c-1.3,0.3-2.2,1.4-2.2,2.7c0,0.1,0,0.2,0,0.3c-0.1,0.3-0.2,0.6-0.2,0.9c0,1.1,0.7,2,1.7,2.1c0.2,1.3,1.4,2.4,2.8,2.4
			c0.6,0,1.1-0.2,1.5-0.4c0.5,0.4,1.1,0.6,1.8,0.6c0.3,0,0.6,0,0.8-0.1c0.5,0.7,1.4,1.2,2.4,1.2c1.3,0,2.4-0.8,2.7-2
			c0.5,0.4,1.2,0.7,1.9,0.7c1.5,0,2.7-1,2.8-2.4C45.1,10,45.8,9.2,45.8,8.2z"/>
	</g>
	<g>
		<path class="st0" d="M70.8,8.2c0-0.6-0.2-1.1-0.6-1.5c0,0,0-0.1,0-0.1c0-1.5-1.2-2.7-2.7-2.7c-0.5-0.7-1.2-1.1-2-1.1
			c-0.9,0-1.8,0.6-2.2,1.5c-0.3-1.3-1.6-2.3-3.1-2.3c-1.3,0-2.4,0.7-2.9,1.8c-0.5-0.6-1.1-0.9-1.8-0.9c-1,0-1.8,0.6-2.2,1.5
			c-1.3,0.3-2.2,1.4-2.2,2.7c0,0.1,0,0.2,0,0.3c-0.1,0.3-0.2,0.6-0.2,0.9c0,1.1,0.7,2,1.7,2.1c0.2,1.3,1.4,2.4,2.8,2.4
			c0.6,0,1.1-0.2,1.5-0.4c0.5,0.4,1.1,0.6,1.8,0.6c0.3,0,0.6,0,0.8-0.1c0.5,0.7,1.4,1.2,2.4,1.2c1.3,0,2.4-0.8,2.7-2
			c0.5,0.4,1.2,0.7,1.9,0.7c1.5,0,2.7-1,2.8-2.4C70.1,10,70.8,9.2,70.8,8.2z"/>
	</g>
	<g>
		<path class="st0" d="M95.5,8.2c0-0.6-0.2-1.1-0.6-1.5c0,0,0-0.1,0-0.1c0-1.5-1.2-2.7-2.7-2.7c-0.5-0.7-1.2-1.1-2-1.1
			c-0.9,0-1.8,0.6-2.2,1.5c-0.3-1.3-1.6-2.3-3.1-2.3c-1.3,0-2.4,0.7-2.9,1.8c-0.5-0.6-1.1-0.9-1.8-0.9c-1,0-1.8,0.6-2.2,1.5
			c-1.3,0.3-2.2,1.4-2.2,2.7c0,0.1,0,0.2,0,0.3c-0.1,0.3-0.2,0.6-0.2,0.9c0,1.1,0.7,2,1.7,2.1c0.2,1.3,1.4,2.4,2.8,2.4
			c0.6,0,1.1-0.2,1.5-0.4c0.5,0.4,1.1,0.6,1.8,0.6c0.3,0,0.6,0,0.8-0.1c0.5,0.7,1.4,1.2,2.4,1.2c1.3,0,2.4-0.8,2.7-2
			c0.5,0.4,1.2,0.7,1.9,0.7c1.5,0,2.7-1,2.8-2.4C94.9,10,95.5,9.2,95.5,8.2z"/>
	</g>
	<g>
		<path class="st0" d="M21.5,30.5c0-0.6-0.2-1.1-0.6-1.5c0,0,0-0.1,0-0.1c0-1.5-1.2-2.7-2.7-2.7c-0.5-0.7-1.2-1.1-2-1.1
			c-0.9,0-1.8,0.6-2.2,1.5c-0.3-1.3-1.6-2.3-3.1-2.3c-1.3,0-2.4,0.7-2.9,1.8C7.5,25.4,6.9,25,6.1,25c-1,0-1.8,0.6-2.2,1.5
			c-1.3,0.3-2.2,1.4-2.2,2.7c0,0.1,0,0.2,0,0.3c-0.1,0.3-0.2,0.6-0.2,0.9c0,1.1,0.7,2,1.7,2.1c0.2,1.3,1.4,2.4,2.8,2.4
			c0.6,0,1.1-0.2,1.5-0.4c0.5,0.4,1.1,0.6,1.8,0.6c0.3,0,0.6,0,0.8-0.1c0.5,0.7,1.4,1.2,2.4,1.2c1.3,0,2.4-0.8,2.7-2
			c0.5,0.4,1.2,0.7,1.9,0.7c1.5,0,2.7-1,2.8-2.4C20.9,32.3,21.5,31.4,21.5,30.5z"/>
		<g>
			<path class="st0" d="M45.8,30.5c0-0.6-0.2-1.1-0.6-1.5c0,0,0-0.1,0-0.1c0-1.5-1.2-2.7-2.7-2.7c-0.5-0.7-1.2-1.1-2-1.1
				c-0.9,0-1.8,0.6-2.2,1.5c-0.3-1.3-1.6-2.3-3.1-2.3c-1.3,0-2.4,0.7-2.9,1.8c-0.5-0.6-1.1-0.9-1.8-0.9c-1,0-1.8,0.6-2.2,1.5
				c-1.3,0.3-2.2,1.4-2.2,2.7c0,0.1,0,0.2,0,0.3c-0.1,0.3-0.2,0.6-0.2,0.9c0,1.1,0.7,2,1.7,2.1c0.2,1.3,1.4,2.4,2.8,2.4
				c0.6,0,1.1-0.2,1.5-0.4c0.5,0.4,1.1,0.6,1.8,0.6c0.3,0,0.6,0,0.8-0.1c0.5,0.7,1.4,1.2,2.4,1.2c1.3,0,2.4-0.8,2.7-2
				c0.5,0.4,1.2,0.7,1.9,0.7c1.5,0,2.7-1,2.8-2.4C45.1,32.3,45.8,31.4,45.8,30.5z"/>
		</g>
		<g>
			<path class="st0" d="M70.8,30.5c0-0.6-0.2-1.1-0.6-1.5c0,0,0-0.1,0-0.1c0-1.5-1.2-2.7-2.7-2.7c-0.5-0.7-1.2-1.1-2-1.1
				c-0.9,0-1.8,0.6-2.2,1.5c-0.3-1.3-1.6-2.3-3.1-2.3c-1.3,0-2.4,0.7-2.9,1.8c-0.5-0.6-1.1-0.9-1.8-0.9c-1,0-1.8,0.6-2.2,1.5
				c-1.3,0.3-2.2,1.4-2.2,2.7c0,0.1,0,0.2,0,0.3c-0.1,0.3-0.2,0.6-0.2,0.9c0,1.1,0.7,2,1.7,2.1c0.2,1.3,1.4,2.4,2.8,2.4
				c0.6,0,1.1-0.2,1.5-0.4c0.5,0.4,1.1,0.6,1.8,0.6c0.3,0,0.6,0,0.8-0.1c0.5,0.7,1.4,1.2,2.4,1.2c1.3,0,2.4-0.8,2.7-2
				c0.5,0.4,1.2,0.7,1.9,0.7c1.5,0,2.7-1,2.8-2.4C70.1,32.3,70.8,31.4,70.8,30.5z"/>
		</g>
		<g>
			<path class="st0" d="M95.5,30.5c0-0.6-0.2-1.1-0.6-1.5c0,0,0-0.1,0-0.1c0-1.5-1.2-2.7-2.7-2.7c-0.5-0.7-1.2-1.1-2-1.1
				c-0.9,0-1.8,0.6-2.2,1.5c-0.3-1.3-1.6-2.3-3.1-2.3c-1.3,0-2.4,0.7-2.9,1.8c-0.5-0.6-1.1-0.9-1.8-0.9c-1,0-1.8,0.6-2.2,1.5
				c-1.3,0.3-2.2,1.4-2.2,2.7c0,0.1,0,0.2,0,0.3c-0.1,0.3-0.2,0.6-0.2,0.9c0,1.1,0.7,2,1.7,2.1c0.2,1.3,1.4,2.4,2.8,2.4
				c0.6,0,1.1-0.2,1.5-0.4c0.5,0.4,1.1,0.6,1.8,0.6c0.3,0,0.6,0,0.8-0.1c0.5,0.7,1.4,1.2,2.4,1.2c1.3,0,2.4-0.8,2.7-2
				c0.5,0.4,1.2,0.7,1.9,0.7c1.5,0,2.7-1,2.8-2.4C94.9,32.3,95.5,31.4,95.5,30.5z"/>
		</g>
	</g>
	<g>
		<path class="st0" d="M21.5,52.2c0-0.6-0.2-1.1-0.6-1.5c0,0,0-0.1,0-0.1c0-1.5-1.2-2.7-2.7-2.7c-0.5-0.7-1.2-1.1-2-1.1
			c-0.9,0-1.8,0.6-2.2,1.5c-0.3-1.3-1.6-2.3-3.1-2.3c-1.3,0-2.4,0.7-2.9,1.8c-0.5-0.6-1.1-0.9-1.8-0.9c-1,0-1.8,0.6-2.2,1.5
			c-1.3,0.3-2.2,1.4-2.2,2.7c0,0.1,0,0.2,0,0.3c-0.1,0.3-0.2,0.6-0.2,0.9c0,1.1,0.7,2,1.7,2.1c0.2,1.3,1.4,2.4,2.8,2.4
			c0.6,0,1.1-0.2,1.5-0.4c0.5,0.4,1.1,0.6,1.8,0.6c0.3,0,0.6,0,0.8-0.1c0.5,0.7,1.4,1.2,2.4,1.2c1.3,0,2.4-0.8,2.7-2
			c0.5,0.4,1.2,0.7,1.9,0.7c1.5,0,2.7-1,2.8-2.4C20.9,54,21.5,53.2,21.5,52.2z"/>
		<g>
			<path class="st0" d="M45.8,52.2c0-0.6-0.2-1.1-0.6-1.5c0,0,0-0.1,0-0.1c0-1.5-1.2-2.7-2.7-2.7c-0.5-0.7-1.2-1.1-2-1.1
				c-0.9,0-1.8,0.6-2.2,1.5c-0.3-1.3-1.6-2.3-3.1-2.3c-1.3,0-2.4,0.7-2.9,1.8c-0.5-0.6-1.1-0.9-1.8-0.9c-1,0-1.8,0.6-2.2,1.5
				c-1.3,0.3-2.2,1.4-2.2,2.7c0,0.1,0,0.2,0,0.3c-0.1,0.3-0.2,0.6-0.2,0.9c0,1.1,0.7,2,1.7,2.1c0.2,1.3,1.4,2.4,2.8,2.4
				c0.6,0,1.1-0.2,1.5-0.4c0.5,0.4,1.1,0.6,1.8,0.6c0.3,0,0.6,0,0.8-0.1c0.5,0.7,1.4,1.2,2.4,1.2c1.3,0,2.4-0.8,2.7-2
				c0.5,0.4,1.2,0.7,1.9,0.7c1.5,0,2.7-1,2.8-2.4C45.1,54,45.8,53.2,45.8,52.2z"/>
		</g>
		<g>
			<path class="st0" d="M70.8,52.2c0-0.6-0.2-1.1-0.6-1.5c0,0,0-0.1,0-0.1c0-1.5-1.2-2.7-2.7-2.7c-0.5-0.7-1.2-1.1-2-1.1
				c-0.9,0-1.8,0.6-2.2,1.5c-0.3-1.3-1.6-2.3-3.1-2.3c-1.3,0-2.4,0.7-2.9,1.8c-0.5-0.6-1.1-0.9-1.8-0.9c-1,0-1.8,0.6-2.2,1.5
				c-1.3,0.3-2.2,1.4-2.2,2.7c0,0.1,0,0.2,0,0.3c-0.1,0.3-0.2,0.6-0.2,0.9c0,1.1,0.7,2,1.7,2.1c0.2,1.3,1.4,2.4,2.8,2.4
				c0.6,0,1.1-0.2,1.5-0.4c0.5,0.4,1.1,0.6,1.8,0.6c0.3,0,0.6,0,0.8-0.1c0.5,0.7,1.4,1.2,2.4,1.2c1.3,0,2.4-0.8,2.7-2
				c0.5,0.4,1.2,0.7,1.9,0.7c1.5,0,2.7-1,2.8-2.4C70.1,54,70.8,53.2,70.8,52.2z"/>
		</g>
		<g>
			<path class="st0" d="M95.5,52.2c0-0.6-0.2-1.1-0.6-1.5c0,0,0-0.1,0-0.1c0-1.5-1.2-2.7-2.7-2.7c-0.5-0.7-1.2-1.1-2-1.1
				c-0.9,0-1.8,0.6-2.2,1.5c-0.3-1.3-1.6-2.3-3.1-2.3c-1.3,0-2.4,0.7-2.9,1.8c-0.5-0.6-1.1-0.9-1.8-0.9c-1,0-1.8,0.6-2.2,1.5
				c-1.3,0.3-2.2,1.4-2.2,2.7c0,0.1,0,0.2,0,0.3c-0.1,0.3-0.2,0.6-0.2,0.9c0,1.1,0.7,2,1.7,2.1c0.2,1.3,1.4,2.4,2.8,2.4
				c0.6,0,1.1-0.2,1.5-0.4c0.5,0.4,1.1,0.6,1.8,0.6c0.3,0,0.6,0,0.8-0.1c0.5,0.7,1.4,1.2,2.4,1.2c1.3,0,2.4-0.8,2.7-2
				c0.5,0.4,1.2,0.7,1.9,0.7c1.5,0,2.7-1,2.8-2.4C94.9,54,95.5,53.2,95.5,52.2z"/>
		</g>
	</g>
	<g>
		<path class="st0" d="M21.5,72c0-0.6-0.2-1.1-0.6-1.5c0,0,0-0.1,0-0.1c0-1.5-1.2-2.7-2.7-2.7c-0.5-0.7-1.2-1.1-2-1.1
			c-0.9,0-1.8,0.6-2.2,1.5c-0.3-1.3-1.6-2.3-3.1-2.3c-1.3,0-2.4,0.7-2.9,1.8c-0.5-0.6-1.1-0.9-1.8-0.9c-1,0-1.8,0.6-2.2,1.5
			c-1.3,0.3-2.2,1.4-2.2,2.7c0,0.1,0,0.2,0,0.3c-0.1,0.3-0.2,0.6-0.2,0.9c0,1.1,0.7,2,1.7,2.1c0.2,1.3,1.4,2.4,2.8,2.4
			c0.6,0,1.1-0.2,1.5-0.4c0.5,0.4,1.1,0.6,1.8,0.6c0.3,0,0.6,0,0.8-0.1c0.5,0.7,1.4,1.2,2.4,1.2c1.3,0,2.4-0.8,2.7-2
			c0.5,0.4,1.2,0.7,1.9,0.7c1.5,0,2.7-1,2.8-2.4C20.9,73.8,21.5,72.9,21.5,72z"/>
		<g>
			<path class="st0" d="M45.8,72c0-0.6-0.2-1.1-0.6-1.5c0,0,0-0.1,0-0.1c0-1.5-1.2-2.7-2.7-2.7c-0.5-0.7-1.2-1.1-2-1.1
				c-0.9,0-1.8,0.6-2.2,1.5c-0.3-1.3-1.6-2.3-3.1-2.3c-1.3,0-2.4,0.7-2.9,1.8c-0.5-0.6-1.1-0.9-1.8-0.9c-1,0-1.8,0.6-2.2,1.5
				c-1.3,0.3-2.2,1.4-2.2,2.7c0,0.1,0,0.2,0,0.3c-0.1,0.3-0.2,0.6-0.2,0.9c0,1.1,0.7,2,1.7,2.1c0.2,1.3,1.4,2.4,2.8,2.4
				c0.6,0,1.1-0.2,1.5-0.4c0.5,0.4,1.1,0.6,1.8,0.6c0.3,0,0.6,0,0.8-0.1c0.5,0.7,1.4,1.2,2.4,1.2c1.3,0,2.4-0.8,2.7-2
				c0.5,0.4,1.2,0.7,1.9,0.7c1.5,0,2.7-1,2.8-2.4C45.1,73.8,45.8,72.9,45.8,72z"/>
		</g>
		<g>
			<path class="st0" d="M70.8,72c0-0.6-0.2-1.1-0.6-1.5c0,0,0-0.1,0-0.1c0-1.5-1.2-2.7-2.7-2.7c-0.5-0.7-1.2-1.1-2-1.1
				c-0.9,0-1.8,0.6-2.2,1.5c-0.3-1.3-1.6-2.3-3.1-2.3c-1.3,0-2.4,0.7-2.9,1.8c-0.5-0.6-1.1-0.9-1.8-0.9c-1,0-1.8,0.6-2.2,1.5
				c-1.3,0.3-2.2,1.4-2.2,2.7c0,0.1,0,0.2,0,0.3c-0.1,0.3-0.2,0.6-0.2,0.9c0,1.1,0.7,2,1.7,2.1c0.2,1.3,1.4,2.4,2.8,2.4
				c0.6,0,1.1-0.2,1.5-0.4c0.5,0.4,1.1,0.6,1.8,0.6c0.3,0,0.6,0,0.8-0.1c0.5,0.7,1.4,1.2,2.4,1.2c1.3,0,2.4-0.8,2.7-2
				c0.5,0.4,1.2,0.7,1.9,0.7c1.5,0,2.7-1,2.8-2.4C70.1,73.8,70.8,72.9,70.8,72z"/>
		</g>
		<g>
			<path class="st0" d="M95.5,72c0-0.6-0.2-1.1-0.6-1.5c0,0,0-0.1,0-0.1c0-1.5-1.2-2.7-2.7-2.7c-0.5-0.7-1.2-1.1-2-1.1
				c-0.9,0-1.8,0.6-2.2,1.5c-0.3-1.3-1.6-2.3-3.1-2.3c-1.3,0-2.4,0.7-2.9,1.8c-0.5-0.6-1.1-0.9-1.8-0.9c-1,0-1.8,0.6-2.2,1.5
				c-1.3,0.3-2.2,1.4-2.2,2.7c0,0.1,0,0.2,0,0.3c-0.1,0.3-0.2,0.6-0.2,0.9c0,1.1,0.7,2,1.7,2.1c0.2,1.3,1.4,2.4,2.8,2.4
				c0.6,0,1.1-0.2,1.5-0.4c0.5,0.4,1.1,0.6,1.8,0.6c0.3,0,0.6,0,0.8-0.1c0.5,0.7,1.4,1.2,2.4,1.2c1.3,0,2.4-0.8,2.7-2
				c0.5,0.4,1.2,0.7,1.9,0.7c1.5,0,2.7-1,2.8-2.4C94.9,73.8,95.5,72.9,95.5,72z"/>
		</g>
	</g>
	<path class="st1" d="M21.5,90c0-0.6-0.2-1.1-0.6-1.5c0,0,0-0.1,0-0.1c0-1.3-0.9-2.3-2.1-2.7c-0.4-0.1-0.7-0.3-1-0.5
		c-0.4-0.4-1-0.6-1.6-0.6c-0.4,0-0.7,0.1-1,0.2c-0.7,0.4-1.6,0.1-2.2-0.4c-0.6-0.4-1.3-0.7-2.1-0.7c-0.8,0-1.5,0.2-2,0.7
		c-0.6,0.4-1.3,0.5-2.1,0.3c-0.2-0.1-0.5-0.1-0.7-0.1c-0.8,0-1.5,0.4-1.9,1c-0.2,0.3-0.5,0.5-0.9,0.7c-1,0.4-1.7,1.4-1.7,2.5
		c0,0.1,0,0.2,0,0.3c-0.1,0.3-0.2,0.6-0.2,0.9c0,1.1,0.7,2,1.7,2.1c0.2,1.3,1.4,2.4,2.8,2.4c0.3,0,0.6,0,0.8-0.1
		c0.5-0.1,0.9-0.1,1.4,0.1c0.4,0.2,0.8,0.2,1.2,0.2c0.3,0,0.6,0,0.8-0.1c0.5,0.7,1.4,1.2,2.4,1.2c0.8,0,1.5-0.3,2-0.8
		c0.5-0.5,1.2-0.8,1.9-0.6c0.2,0.1,0.5,0.1,0.7,0.1c1.5,0,2.7-1,2.8-2.4C20.9,91.8,21.5,91,21.5,90z"/>
	<path class="st0" d="M9.8,88.5c0.1-1.5,0.5-3,0.7-4.4c-1,0.2-1.8,0.8-2.2,1.7c-0.5-0.6-1.1-0.9-1.8-0.9c-1,0-1.8,0.6-2.2,1.5
		C3,86.6,2,87.7,2,89c0,0.1,0,0.2,0,0.3c-0.1,0.3-0.2,0.6-0.2,0.9c0,1.1,0.7,2,1.7,2.1c0.2,1.3,1.4,2.4,2.8,2.4
		c0.6,0,1.1-0.2,1.5-0.4c0.5,0.4,1.1,0.6,1.8,0.6c0.1,0,0.2,0,0.3,0C9.8,92.7,9.7,90.6,9.8,88.5z"/>
</g>
</svg>
