<?xml version="1.0" encoding="utf-8"?>
<!-- Generator: Adobe Illustrator 19.2.1, SVG Export Plug-In . SVG Version: 6.00 Build 0)  -->
<svg version="1.1" xmlns="http://www.w3.org/2000/svg" xmlns:xlink="http://www.w3.org/1999/xlink" x="0px" y="0px"
	 viewBox="0 0 1066 588.7" style="enable-background:new 0 0 1066 588.7;" xml:space="preserve">
<style type="text/css">
	.st0{fill:#D7E9EA;stroke:#416190;stroke-width:5;stroke-miterlimit:10;}
	.st1{fill:none;}
	.st2{font-family:'Tahoma';}
	.st3{font-size:20px;}
	.st4{font-size:11.66px;}
	.st5{fill:none;stroke:#000000;stroke-miterlimit:10;}
</style>
<g id="Capa_2_1_">
	<path class="st0" d="M1018.2,584.8H50.9c-24.5,0-44.4-19.2-44.4-42.9v-494c0-23.6,19.9-42.8,44.4-42.8h967.2
		c24.6,0,44.4,19.2,44.4,42.8v494C1062.6,565.6,1042.6,584.8,1018.2,584.8z"/>
	<rect x="71" y="531.9" class="st1" width="445.3" height="88.2"/>
	<text transform="matrix(1.0374 0 0 1 74.939 547.1605)" class="st2 st3"> 8.999.407,526 [TONS] DE CO</text>
	<text transform="matrix(1.0374 0 0 1 349.9307 553.8206)" class="st2 st4">2</text>
	<text transform="matrix(1.0374 0 0 1 356.5342 547.1605)" class="st2 st3">        </text>
</g>
<g id="Capa_1">
	<path d="M631.3,136.8c10.9-7.9,26-5.4,33.8,5.4c5.8-1.6,12.2,0,16.5,4.2c6.8,6.6,6.9,17.5,0.3,24.2c1.1,2.6,1.7,5.4,1.5,8.3
		c-0.3,10.9-9.4,19.5-20.2,19.2c0.1,1.4-0.1,2.8-0.5,4.1c1.5-0.9,3.1-1.2,4.8-0.9c3.9,0.6,6.6,4.3,6,8.2c-0.6,3.9-4.3,6.6-8.2,6
		s-6.6-4.3-6-8.2c-1.1,0.9-2.3,1.6-3.6,2c-5.8,2-12.1-1.1-14.1-6.9c-3.8,2.5-8.5,3.1-12.9,1.9c-8.5-2.4-13.4-11.2-11-19.7
		c-4.7-2.5-8.2-6.9-9.4-12.1c-2.3-9.9,3.8-19.8,13.7-22.2C623.5,145,626.7,140.1,631.3,136.8z M656.9,182.6c8-4.6,10.8-14.9,6.2-23
		s-14.9-10.8-22.9-6.2c-8.1,4.7-10.9,14.9-6.2,23c1.5,2.6,3.6,4.7,6.2,6.2c-1.3,4.6,1.5,9.4,6.1,10.6c4.6,1.2,9.4-1.5,10.6-6.1
		C657.3,185.6,657.3,184.1,656.9,182.6z M646.3,170.9c0-2.4-2-4.3-4.3-4.3c-2.4,0-4.3,1.9-4.3,4.3c0,2.4,1.9,4.3,4.3,4.3
		C644.3,175.2,646.3,173.3,646.3,170.9L646.3,170.9z M645,181.9c-0.2,0.3-0.2,0.7,0,0.9c0.4,0.4,0.6,0.6,0.8,0.6h2.7h2.7
		c0.2,0,0.4-0.1,0.6-0.3c0.5-0.5,0.5-0.9,0.2-1.2l-2.9-4.1c-0.3-0.4-0.8-0.4-1.1-0.2C647.8,177.8,645,181.9,645,181.9 M659.4,170.9
		c0-2.4-1.9-4.3-4.3-4.3c-2.4,0-4.3,1.9-4.3,4.3c0,2.4,1.9,4.3,4.3,4.3C657.5,175.2,659.4,173.3,659.4,170.9L659.4,170.9z"/>
	<path d="M737.1,136.8c10.9-7.9,26-5.4,33.8,5.4c5.9-1.6,12.2,0,16.5,4.2c6.8,6.6,6.9,17.5,0.3,24.2c1.1,2.6,1.7,5.4,1.5,8.3
		c-0.3,10.9-9.4,19.5-20.2,19.2c0.1,1.4-0.1,2.8-0.5,4.1c1.5-0.9,3.1-1.2,4.8-0.9c3.9,0.6,6.6,4.3,6,8.2c-0.6,3.9-4.3,6.6-8.2,6
		s-6.6-4.3-6-8.2c-1.1,0.9-2.3,1.6-3.6,2c-5.8,2-12.1-1.1-14.1-6.9c-3.8,2.5-8.5,3.1-12.9,1.9c-8.5-2.4-13.4-11.2-11-19.7
		c-4.7-2.5-8.2-6.9-9.4-12.1c-2.3-9.9,3.8-19.8,13.7-22.2C729.3,145,732.6,140.1,737.1,136.8z M762.7,182.6c8-4.6,10.8-14.9,6.2-23
		s-14.9-10.8-22.9-6.2c-8.1,4.7-10.9,14.9-6.2,23c1.5,2.6,3.6,4.7,6.2,6.2c-1.3,4.6,1.5,9.4,6.1,10.6c4.6,1.2,9.4-1.5,10.6-6.1
		C763.1,185.6,763.1,184.1,762.7,182.6z M752.1,170.9c0-2.4-2-4.3-4.3-4.3c-2.4,0-4.3,1.9-4.3,4.3c0,2.4,1.9,4.3,4.3,4.3
		C750.1,175.2,752.1,173.3,752.1,170.9L752.1,170.9z M750.8,181.9c-0.2,0.3-0.2,0.7,0,0.9c0.4,0.4,0.6,0.6,0.8,0.6h2.7h2.7
		c0.2,0,0.4-0.1,0.6-0.3c0.5-0.5,0.5-0.9,0.2-1.2l-2.9-4.1c-0.3-0.4-0.8-0.4-1.1-0.2C753.6,177.8,750.8,181.9,750.8,181.9
		 M765.2,170.9c0-2.4-1.9-4.3-4.3-4.3c-2.4,0-4.3,1.9-4.3,4.3c0,2.4,1.9,4.3,4.3,4.3C763.3,175.2,765.2,173.3,765.2,170.9
		L765.2,170.9z"/>
	<path d="M842.9,136.8c10.9-7.9,26-5.4,33.8,5.4c5.9-1.6,12.2,0,16.5,4.2c6.8,6.6,6.9,17.5,0.3,24.2c1.1,2.6,1.7,5.4,1.5,8.3
		c-0.3,10.9-9.4,19.5-20.2,19.2c0.1,1.4-0.1,2.8-0.5,4.1c1.5-0.9,3.1-1.2,4.8-0.9c3.9,0.6,6.6,4.3,6,8.2c-0.6,3.9-4.3,6.6-8.2,6
		s-6.6-4.3-6-8.2c-1.1,0.9-2.3,1.6-3.6,2c-5.8,2-12.1-1.1-14.1-6.9c-3.8,2.5-8.5,3.1-12.9,1.9c-8.5-2.4-13.4-11.2-11-19.7
		c-4.7-2.5-8.2-6.9-9.4-12.1c-2.3-9.9,3.8-19.8,13.7-22.2C835.1,144.9,838.4,140.1,842.9,136.8z M868.5,182.6
		c8-4.6,10.8-14.9,6.2-23s-14.9-10.8-22.9-6.2c-8.1,4.7-10.9,14.9-6.2,23c1.5,2.6,3.6,4.7,6.2,6.2c-1.3,4.6,1.5,9.4,6.1,10.6
		c4.6,1.2,9.4-1.5,10.6-6.1C868.9,185.6,868.9,184,868.5,182.6z M857.9,170.8c0-2.4-2-4.3-4.3-4.3c-2.4,0-4.3,1.9-4.3,4.3
		c0,2.4,1.9,4.3,4.3,4.3C856,175.1,857.9,173.2,857.9,170.8L857.9,170.8z M856.6,181.8c-0.2,0.3-0.2,0.7,0,0.9
		c0.4,0.4,0.6,0.6,0.8,0.6h2.7h2.7c0.2,0,0.4-0.1,0.6-0.3c0.5-0.5,0.5-0.9,0.2-1.2l-2.9-4.1c-0.3-0.4-0.8-0.4-1.1-0.2
		C859.5,177.7,856.6,181.8,856.6,181.8 M871,170.8c0-2.4-1.9-4.3-4.3-4.3c-2.4,0-4.3,1.9-4.3,4.3c0,2.4,1.9,4.3,4.3,4.3
		S871,173.2,871,170.8L871,170.8z"/>
	<path d="M948.7,136.8c10.9-7.9,26-5.4,33.8,5.4c5.9-1.6,12.2,0,16.5,4.2c6.8,6.6,6.9,17.5,0.3,24.2c1.1,2.6,1.7,5.4,1.5,8.3
		c-0.3,10.9-9.4,19.5-20.2,19.2c0.1,1.4-0.1,2.8-0.5,4.1c1.5-0.9,3.1-1.2,4.8-0.9c3.9,0.6,6.6,4.3,6,8.2c-0.6,3.9-4.3,6.6-8.2,6
		s-6.6-4.3-6-8.2c-1.1,0.9-2.3,1.6-3.6,2c-5.8,2-12.1-1.1-14.1-6.9c-3.8,2.5-8.5,3.1-12.9,1.9c-8.5-2.4-13.4-11.2-11-19.7
		c-4.7-2.5-8.2-6.9-9.4-12.1c-2.3-9.9,3.8-19.8,13.7-22.2C940.9,144.9,944.2,140.1,948.7,136.8z M974.4,182.6
		c8-4.6,10.8-14.9,6.2-23s-14.9-10.8-22.9-6.2c-8.1,4.7-10.9,14.9-6.2,23c1.5,2.6,3.6,4.7,6.2,6.2c-1.3,4.6,1.5,9.4,6.1,10.6
		c4.6,1.2,9.4-1.5,10.6-6.1C974.7,185.6,974.7,184,974.4,182.6z M963.7,170.8c0-2.4-2-4.3-4.3-4.3c-2.4,0-4.3,1.9-4.3,4.3
		c0,2.4,1.9,4.3,4.3,4.3C961.8,175.1,963.7,173.2,963.7,170.8L963.7,170.8z M962.4,181.8c-0.2,0.3-0.2,0.7,0,0.9
		c0.4,0.4,0.6,0.6,0.8,0.6h2.7h2.7c0.2,0,0.4-0.1,0.6-0.3c0.5-0.5,0.5-0.9,0.2-1.2l-2.9-4.1c-0.3-0.4-0.8-0.4-1.1-0.2
		C965.3,177.7,962.4,181.8,962.4,181.8 M976.8,170.8c0-2.4-1.9-4.3-4.3-4.3c-2.4,0-4.3,1.9-4.3,4.3c0,2.4,1.9,4.3,4.3,4.3
		S976.8,173.2,976.8,170.8L976.8,170.8z"/>
	<rect x="609.8" y="534.8" class="st1" width="429.2" height="88.2"/>
	<text transform="matrix(1 0 0 1 609.7698 550.0476)" class="st2 st3">CADA NUBE REPRESENTA 1.000.000 [TONS] DE </text>
	<text transform="matrix(1 0 0 1 609.7698 574.0476)" class="st2 st3">CO</text>
	<text transform="matrix(1 0 0 1 635.9316 580.708)" class="st2 st4">2</text>
	<text transform="matrix(1 0 0 1 642.2971 574.0476)" class="st2 st3">        </text>
	<path class="st5" d="M634.7,347.8c10.9-7.9,26-5.4,33.8,5.4c5.8-1.6,12.2,0,16.5,4.2c6.8,6.6,6.9,17.5,0.3,24.2
		c1.1,2.6,1.7,5.4,1.5,8.3c-0.3,10.9-9.4,19.5-20.2,19.2c0.1,1.4-0.1,2.8-0.5,4.1c1.5-0.9,3.1-1.2,4.8-0.9c3.9,0.6,6.6,4.3,6,8.2
		c-0.6,3.9-4.3,6.6-8.2,6s-6.6-4.3-6-8.2c-1.1,0.9-2.3,1.6-3.6,2c-5.8,2-12.1-1.1-14.1-6.9c-3.8,2.5-8.5,3.1-12.9,1.9
		c-8.5-2.4-13.4-11.2-11-19.7c-4.7-2.5-8.2-6.9-9.4-12.1c-2.3-9.9,3.8-19.8,13.7-22.2C626.9,355.9,630.1,351.1,634.7,347.8z
		 M660.3,393.6c8-4.6,10.8-14.9,6.2-23s-14.9-10.8-22.9-6.2c-8.1,4.7-10.9,14.9-6.2,23c1.5,2.6,3.6,4.7,6.2,6.2
		c-1.3,4.6,1.5,9.4,6.1,10.6s9.4-1.5,10.6-6.1C660.7,396.6,660.7,395.1,660.3,393.6z M649.7,381.8c0-2.4-2-4.3-4.3-4.3
		c-2.4,0-4.3,1.9-4.3,4.3s1.9,4.3,4.3,4.3C647.7,386.2,649.7,384.2,649.7,381.8L649.7,381.8z M648.4,392.8c-0.2,0.3-0.2,0.7,0,1
		c0.4,0.4,0.6,0.6,0.8,0.6h2.7h2.7c0.2,0,0.4-0.1,0.6-0.3c0.5-0.5,0.5-0.9,0.2-1.2l-2.8-4.1c-0.3-0.4-0.8-0.4-1.1-0.2
		C651.2,388.7,648.4,392.8,648.4,392.8 M662.8,381.8c0-2.4-1.9-4.3-4.3-4.3c-2.4,0-4.3,1.9-4.3,4.3s1.9,4.3,4.3,4.3
		C660.9,386.2,662.8,384.2,662.8,381.8L662.8,381.8z"/>
	<path d="M736,237.9c10.9-7.9,26-5.4,33.8,5.4c5.8-1.6,12.2,0,16.5,4.2c6.8,6.6,6.9,17.5,0.3,24.2c1.1,2.6,1.7,5.4,1.5,8.3
		c-0.3,10.9-9.4,19.5-20.2,19.2c0.1,1.4-0.1,2.8-0.5,4.1c1.5-0.9,3.1-1.2,4.8-0.9c3.9,0.6,6.6,4.3,6,8.2c-0.6,3.9-4.3,6.6-8.2,6
		s-6.6-4.3-6-8.2c-1.1,0.9-2.3,1.6-3.6,2c-5.8,2-12.1-1.1-14.1-6.9c-3.8,2.5-8.5,3.1-12.9,1.9c-8.5-2.4-13.4-11.2-11-19.7
		c-4.7-2.5-8.2-6.9-9.4-12.1c-2.3-9.9,3.8-19.8,13.7-22.2C728.2,246,731.5,241.2,736,237.9z M761.6,283.7c8-4.6,10.8-14.9,6.2-23
		c-4.6-8.1-14.9-10.8-22.9-6.2c-8.1,4.7-10.9,14.9-6.2,23c1.5,2.6,3.6,4.7,6.2,6.2c-1.3,4.6,1.5,9.4,6.1,10.6s9.4-1.5,10.6-6.1
		C762,286.7,762,285.1,761.6,283.7z M751,271.9c0-2.4-2-4.3-4.3-4.3c-2.4,0-4.3,1.9-4.3,4.3s1.9,4.3,4.3,4.3S751,274.3,751,271.9
		L751,271.9z M749.7,282.9c-0.2,0.3-0.2,0.7,0,1c0.4,0.4,0.6,0.6,0.8,0.6h2.7h2.7c0.2,0,0.4-0.1,0.6-0.3c0.5-0.5,0.5-0.9,0.2-1.2
		l-2.8-4.1c-0.3-0.4-0.8-0.4-1.1-0.2C752.6,278.8,749.7,282.9,749.7,282.9 M764.1,271.9c0-2.4-1.9-4.3-4.3-4.3
		c-2.4,0-4.3,1.9-4.3,4.3s1.9,4.3,4.3,4.3S764.1,274.3,764.1,271.9L764.1,271.9z"/>
	<path d="M632.4,240.6c10.9-7.9,26-5.4,33.8,5.4c5.8-1.6,12.2,0,16.5,4.2c6.8,6.6,6.9,17.5,0.3,24.2c1.1,2.6,1.7,5.4,1.5,8.3
		c-0.3,10.9-9.4,19.5-20.2,19.2c0.1,1.4-0.1,2.8-0.5,4.1c1.5-0.9,3.1-1.2,4.8-0.9c3.9,0.6,6.6,4.3,6,8.2c-0.6,3.9-4.3,6.6-8.2,6
		s-6.6-4.3-6-8.2c-1.1,0.9-2.3,1.6-3.6,2c-5.8,2-12.1-1.1-14.1-6.9c-3.8,2.5-8.5,3.1-12.9,1.9c-8.5-2.4-13.4-11.2-11-19.7
		c-4.7-2.5-8.2-6.9-9.4-12.1c-2.3-9.9,3.8-19.8,13.7-22.2C624.6,248.8,627.9,243.9,632.4,240.6z M658.1,286.4
		c8-4.6,10.8-14.9,6.2-23c-4.6-8.1-14.9-10.8-22.9-6.2c-8.1,4.7-10.9,14.9-6.2,23c1.5,2.6,3.6,4.7,6.2,6.2
		c-1.3,4.6,1.5,9.4,6.1,10.6s9.4-1.5,10.6-6.1C658.4,289.4,658.4,287.9,658.1,286.4z M647.4,274.6c0-2.4-2-4.3-4.3-4.3
		c-2.4,0-4.3,1.9-4.3,4.3s1.9,4.3,4.3,4.3C645.5,279,647.4,277,647.4,274.6L647.4,274.6z M646.2,285.7c-0.2,0.3-0.2,0.7,0,1
		c0.4,0.4,0.6,0.6,0.8,0.6h2.7h2.7c0.2,0,0.4-0.1,0.6-0.3c0.5-0.5,0.5-0.9,0.2-1.2l-2.8-4.1c-0.3-0.4-0.8-0.4-1.1-0.2
		C649,281.6,646.2,285.7,646.2,285.7 M660.6,274.6c0-2.4-1.9-4.3-4.3-4.3c-2.4,0-4.3,1.9-4.3,4.3s1.9,4.3,4.3,4.3
		C658.6,279,660.6,277,660.6,274.6L660.6,274.6z"/>
	<path d="M846,243.3c10.9-7.9,26-5.4,33.8,5.4c5.8-1.6,12.2,0,16.5,4.2c6.8,6.6,6.9,17.5,0.3,24.2c1.1,2.6,1.7,5.4,1.5,8.3
		c-0.3,10.9-9.4,19.5-20.2,19.2c0.1,1.4-0.1,2.8-0.5,4.1c1.5-0.9,3.1-1.2,4.8-0.9c3.9,0.6,6.6,4.3,6,8.2c-0.6,3.9-4.3,6.6-8.2,6
		s-6.6-4.3-6-8.2c-1.1,0.9-2.3,1.6-3.6,2c-5.8,2-12.1-1.1-14.1-6.9c-3.8,2.5-8.5,3.1-12.9,1.9c-8.5-2.4-13.4-11.2-11-19.7
		c-4.7-2.5-8.2-6.9-9.4-12.1c-2.3-9.9,3.8-19.8,13.7-22.2C838.2,251.4,841.5,246.6,846,243.3z M871.6,289.1c8-4.6,10.8-14.9,6.2-23
		s-14.9-10.8-22.9-6.2c-8.1,4.7-10.9,14.9-6.2,23c1.5,2.6,3.6,4.7,6.2,6.2c-1.3,4.6,1.5,9.4,6.1,10.6s9.4-1.5,10.6-6.1
		C872,292.1,872,290.5,871.6,289.1z M861,277.3c0-2.4-2-4.3-4.3-4.3c-2.4,0-4.3,1.9-4.3,4.3s1.9,4.3,4.3,4.3S861,279.7,861,277.3
		L861,277.3z M859.7,288.3c-0.2,0.3-0.2,0.7,0,1c0.4,0.4,0.6,0.6,0.8,0.6h2.7h2.7c0.2,0,0.4-0.1,0.6-0.3c0.5-0.5,0.5-0.9,0.2-1.2
		l-2.8-4.1c-0.3-0.4-0.8-0.4-1.1-0.2C862.6,284.2,859.7,288.3,859.7,288.3 M874.1,277.3c0-2.4-1.9-4.3-4.3-4.3
		c-2.4,0-4.3,1.9-4.3,4.3s1.9,4.3,4.3,4.3S874.1,279.7,874.1,277.3L874.1,277.3z"/>
	<path d="M953.6,243.3c10.9-7.9,26-5.4,33.8,5.4c5.8-1.6,12.2,0,16.5,4.2c6.8,6.6,6.9,17.5,0.3,24.2c1.1,2.6,1.7,5.4,1.5,8.3
		c-0.3,10.9-9.4,19.5-20.2,19.2c0.1,1.4-0.1,2.8-0.5,4.1c1.5-0.9,3.1-1.2,4.8-0.9c3.9,0.6,6.6,4.3,6,8.2c-0.6,3.9-4.3,6.6-8.2,6
		s-6.6-4.3-6-8.2c-1.1,0.9-2.3,1.6-3.6,2c-5.8,2-12.1-1.1-14.1-6.9c-3.8,2.5-8.5,3.1-12.9,1.9c-8.5-2.4-13.4-11.2-11-19.7
		c-4.7-2.5-8.2-6.9-9.4-12.1c-2.3-9.9,3.8-19.8,13.7-22.2C945.8,251.4,949.1,246.6,953.6,243.3z M979.2,289.1
		c8-4.6,10.8-14.9,6.2-23s-14.9-10.8-22.9-6.2c-8.1,4.7-10.9,14.9-6.2,23c1.5,2.6,3.6,4.7,6.2,6.2c-1.3,4.6,1.5,9.4,6.1,10.6
		s9.4-1.5,10.6-6.1C979.6,292.1,979.6,290.5,979.2,289.1z M968.6,277.3c0-2.4-2-4.3-4.3-4.3c-2.4,0-4.3,1.9-4.3,4.3s1.9,4.3,4.3,4.3
		S968.6,279.7,968.6,277.3L968.6,277.3z M967.3,288.3c-0.2,0.3-0.2,0.7,0,1c0.4,0.4,0.6,0.6,0.8,0.6h2.7h2.7c0.2,0,0.4-0.1,0.6-0.3
		c0.5-0.5,0.5-0.9,0.2-1.2l-2.8-4.1c-0.3-0.4-0.8-0.4-1.1-0.2C970.2,284.2,967.3,288.3,967.3,288.3 M981.7,277.3
		c0-2.4-1.9-4.3-4.3-4.3c-2.4,0-4.3,1.9-4.3,4.3s1.9,4.3,4.3,4.3S981.7,279.7,981.7,277.3L981.7,277.3z"/>
	<path d="M649.8,381.4c0-2.4-2-4.3-4.3-4.3c-2.4,0-4.3,1.9-4.3,4.3c0,2.4,1.9,4.3,4.3,4.3S649.8,383.8,649.8,381.4z"/>
	<path d="M658.6,377.1c-2.4,0-4.3,1.9-4.3,4.3c0,2.4,1.9,4.3,4.3,4.3s4.3-1.9,4.3-4.3C662.9,379,661,377.1,658.6,377.1z"/>
	<path d="M652.7,388.4c-0.3-0.4-0.8-0.4-1.1-0.2c-0.2,0.1-3.1,4.2-3.1,4.2c-0.2,0.3-0.2,0.7,0,1c0.4,0.4,0.6,0.6,0.8,0.6h2.7h2.7
		c0.2,0,0.4-0.1,0.6-0.3c0.5-0.5,0.5-0.9,0.2-1.2L652.7,388.4z"/>
	<path d="M686.5,358.6c-0.4-0.5-0.9-1.1-1.4-1.6c-4.3-4.2-10.7-5.8-16.5-4.2c-7.8-10.8-22.9-13.3-33.8-5.4
		c-4.5,3.3-7.8,8.1-9.3,13.5c-9.9,2.4-16,12.3-13.7,22.2c1.2,5.2,4.7,9.6,9.4,12.1c-2.4,8.5,2.5,17.3,11,19.7
		c4.4,1.2,9.1,0.6,12.9-1.9c2,5.8,8.3,8.9,14.1,6.9c1.3-0.4,2.5-1.1,3.6-2c-0.6,3.9,2.1,7.6,6,8.2c3.9,0.6,7.6-2.1,8.2-6
		c0.6-3.9-2.1-7.6-6-8.2c-1.7-0.3-3.3,0-4.8,0.9c0.4-1.3,0.6-2.7,0.5-4.1c10.8,0.3,19.9-8.3,20.2-19.2c0.2-2.9-0.4-5.7-1.5-8.3
		c0.8-0.8,1.5-1.7,2.1-2.7C687.9,371.9,686.9,365.2,686.5,358.6z M660.4,393.2c0.4,1.4,0.4,3,0,4.5c-1.2,4.6-6,7.3-10.6,6.1
		s-7.4-6-6.1-10.6c-2.6-1.5-4.7-3.6-6.2-6.2c-4.7-8.1-1.9-18.3,6.2-23c8-4.6,18.3-1.9,22.9,6.2C671.2,378.3,668.4,388.6,660.4,393.2
		z"/>
	<path class="st1" d="M689.4,442.1c4-6.1,3.6-14.2-1-20"/>
</g>
</svg>
