<svg xmlns="http://www.w3.org/2000/svg" xmlns:xlink="http://www.w3.org/1999/xlink" version="1.1" x="0px" y="0px" viewBox="0 0 100 125" enable-background="new 0 0 100 100" xml:space="preserve"><g><path d="M81.966,49.263c0-2.013-0.775-3.82-2.003-5.08c0.004-0.11,0.009-0.219,0.009-0.33c0-4.881-3.826-8.869-8.643-9.128   c-1.456-2.219-3.745-3.651-6.32-3.651c-3.036,0-5.674,1.986-7.016,4.91c-1.011-4.403-5.076-7.699-9.944-7.699   c-4.183,0-7.772,2.434-9.342,5.909c-1.462-1.914-3.562-3.12-5.904-3.12c-3.084,0-5.759,2.083-7.094,5.136   c-4.081,0.917-7.13,4.56-7.13,8.917c0,0.364,0.023,0.722,0.065,1.074c-0.386,0.915-0.609,1.938-0.609,3.022   c0,3.563,2.334,6.497,5.336,6.883c0.624,4.442,4.438,7.861,9.051,7.861c1.795,0,3.469-0.52,4.882-1.413   c1.588,1.331,3.634,2.134,5.869,2.134c0.932,0,1.831-0.141,2.678-0.4c1.648,2.396,4.408,3.968,7.536,3.968   c4.138,0,7.632-2.75,8.759-6.52c1.604,1.389,3.694,2.232,5.982,2.232c4.659,0,8.501-3.486,9.068-7.992   C79.926,55.281,81.966,52.542,81.966,49.263z"/></g><text x="0" y="115" fill="#000000" font-size="5px" font-weight="bold" font-family="'Helvetica Neue', Helvetica, Arial-Unicode, Arial, Sans-serif">Created by nopixel</text><text x="0" y="120" fill="#000000" font-size="5px" font-weight="bold" font-family="'Helvetica Neue', Helvetica, Arial-Unicode, Arial, Sans-serif">from the Noun Project</text></svg>