<?xml version="1.0" encoding="utf-8"?>
<!-- Generator: Adobe Illustrator 19.2.1, SVG Export Plug-In . SVG Version: 6.00 Build 0)  -->
<svg version="1.1" id="Capa_1" xmlns="http://www.w3.org/2000/svg" xmlns:xlink="http://www.w3.org/1999/xlink" x="0px" y="0px"
	 viewBox="0 0 1066 579.7" style="enable-background:new 0 0 1066 579.7;" xml:space="preserve">
<style type="text/css">
	.st0{opacity:0.8;fill:#D7E9EA;stroke:#416190;stroke-width:5;stroke-miterlimit:10;enable-background:new    ;}
	.st1{fill:none;}
	.st2{font-family:'Tahoma';}
	.st3{font-size:20px;}
	.st4{font-size:11.66px;}
	.st5{fill:none;stroke:#1D1D1B;stroke-miterlimit:10;}
	.st6{fill:none;stroke:#000000;stroke-miterlimit:10;}
	.st7{font-family:'Tahoma-Bold';}
	.st8{font-size:22px;}
	.st9{font-family:'ArialMT';}
	.st10{font-size:25px;}
</style>
<path class="st0" d="M1017.7,579.7H50.4C25.9,579.7,6,560.5,6,536.8v-494C6,19.2,25.9,0,50.4,0h967.2c24.6,0,44.4,19.2,44.4,42.8
	v494C1062.1,560.5,1042.1,579.7,1017.7,579.7z"/>
<rect x="70.5" y="526.8" class="st1" width="445.3" height="88.2"/>
<text transform="matrix(1.0374 0 0 1 70.439 538.0479)" class="st2 st3"> 6.638.473,717 [TONS] DE CO</text>
<text transform="matrix(1.0374 0 0 1 349.4307 544.708)" class="st2 st4">2</text>
<text transform="matrix(1.0374 0 0 1 412.0342 556.0479)" class="st2 st3">        </text>
<path d="M633.2,191.4c10.9-7.9,26-5.4,33.8,5.4c5.8-1.6,12.2,0,16.5,4.2c6.8,6.6,6.9,17.5,0.3,24.2c1.1,2.6,1.7,5.4,1.5,8.3
	c-0.3,10.9-9.4,19.5-20.2,19.2c0.1,1.4-0.1,2.8-0.5,4.1c1.5-0.9,3.1-1.2,4.8-0.9c3.9,0.6,6.6,4.3,6,8.2c-0.6,3.9-4.3,6.6-8.2,6
	s-6.6-4.3-6-8.2c-1.1,0.9-2.3,1.6-3.6,2c-5.8,2-12.1-1.1-14.1-6.9c-3.8,2.5-8.5,3.1-12.9,1.9c-8.5-2.4-13.4-11.2-11-19.7
	c-4.7-2.5-8.2-6.9-9.4-12.1c-2.3-9.9,3.8-19.8,13.7-22.2C625.4,199.6,628.6,194.7,633.2,191.4z M658.8,237.2c8-4.6,10.8-14.9,6.2-23
	s-14.9-10.8-22.9-6.2c-8.1,4.7-10.9,14.9-6.2,23c1.5,2.6,3.6,4.7,6.2,6.2c-1.3,4.6,1.5,9.4,6.1,10.6c4.6,1.2,9.4-1.5,10.6-6.1
	C659.2,240.2,659.2,238.7,658.8,237.2z M648.2,225.5c0-2.4-2-4.3-4.3-4.3c-2.4,0-4.3,1.9-4.3,4.3c0,2.4,1.9,4.3,4.3,4.3
	C646.2,229.8,648.2,227.9,648.2,225.5L648.2,225.5z M646.9,236.5c-0.2,0.3-0.2,0.7,0,0.9c0.4,0.4,0.6,0.6,0.8,0.6h2.7h2.7
	c0.2,0,0.4-0.1,0.6-0.3c0.5-0.5,0.5-0.9,0.2-1.2l-2.9-4.1c-0.3-0.4-0.8-0.4-1.1-0.2C649.7,232.4,646.9,236.5,646.9,236.5
	 M661.3,225.5c0-2.4-1.9-4.3-4.3-4.3c-2.4,0-4.3,1.9-4.3,4.3c0,2.4,1.9,4.3,4.3,4.3C659.4,229.8,661.3,227.9,661.3,225.5
	L661.3,225.5z"/>
<path d="M739,191.4c10.9-7.9,26-5.4,33.8,5.4c5.9-1.6,12.2,0,16.5,4.2c6.8,6.6,6.9,17.5,0.3,24.2c1.1,2.6,1.7,5.4,1.5,8.3
	c-0.3,10.9-9.4,19.5-20.2,19.2c0.1,1.4-0.1,2.8-0.5,4.1c1.5-0.9,3.1-1.2,4.8-0.9c3.9,0.6,6.6,4.3,6,8.2c-0.6,3.9-4.3,6.6-8.2,6
	s-6.6-4.3-6-8.2c-1.1,0.9-2.3,1.6-3.6,2c-5.8,2-12.1-1.1-14.1-6.9c-3.8,2.5-8.5,3.1-12.9,1.9c-8.5-2.4-13.4-11.2-11-19.7
	c-4.7-2.5-8.2-6.9-9.4-12.1c-2.3-9.9,3.8-19.8,13.7-22.2C731.2,199.6,734.5,194.7,739,191.4z M764.6,237.2c8-4.6,10.8-14.9,6.2-23
	s-14.9-10.8-22.9-6.2c-8.1,4.7-10.9,14.9-6.2,23c1.5,2.6,3.6,4.7,6.2,6.2c-1.3,4.6,1.5,9.4,6.1,10.6c4.6,1.2,9.4-1.5,10.6-6.1
	C765,240.2,765,238.7,764.6,237.2z M754,225.5c0-2.4-2-4.3-4.3-4.3c-2.4,0-4.3,1.9-4.3,4.3c0,2.4,1.9,4.3,4.3,4.3
	C752,229.8,754,227.9,754,225.5L754,225.5z M752.7,236.5c-0.2,0.3-0.2,0.7,0,0.9c0.4,0.4,0.6,0.6,0.8,0.6h2.7h2.7
	c0.2,0,0.4-0.1,0.6-0.3c0.5-0.5,0.5-0.9,0.2-1.2l-2.9-4.1c-0.3-0.4-0.8-0.4-1.1-0.2C755.5,232.4,752.7,236.5,752.7,236.5
	 M767.1,225.5c0-2.4-1.9-4.3-4.3-4.3c-2.4,0-4.3,1.9-4.3,4.3c0,2.4,1.9,4.3,4.3,4.3C765.2,229.8,767.1,227.9,767.1,225.5
	L767.1,225.5z"/>
<path d="M844.8,191.4c10.9-7.9,26-5.4,33.8,5.4c5.9-1.6,12.2,0,16.5,4.2c6.8,6.6,6.9,17.5,0.3,24.2c1.1,2.6,1.7,5.4,1.5,8.3
	c-0.3,10.9-9.4,19.5-20.2,19.2c0.1,1.4-0.1,2.8-0.5,4.1c1.5-0.9,3.1-1.2,4.8-0.9c3.9,0.6,6.6,4.3,6,8.2c-0.6,3.9-4.3,6.6-8.2,6
	s-6.6-4.3-6-8.2c-1.1,0.9-2.3,1.6-3.6,2c-5.8,2-12.1-1.1-14.1-6.9c-3.8,2.5-8.5,3.1-12.9,1.9c-8.5-2.4-13.4-11.2-11-19.7
	c-4.7-2.5-8.2-6.9-9.4-12.1c-2.3-9.9,3.8-19.8,13.7-22.2C837,199.5,840.3,194.7,844.8,191.4z M870.4,237.2c8-4.6,10.8-14.9,6.2-23
	s-14.9-10.8-22.9-6.2c-8.1,4.7-10.9,14.9-6.2,23c1.5,2.6,3.6,4.7,6.2,6.2c-1.3,4.6,1.5,9.4,6.1,10.6c4.6,1.2,9.4-1.5,10.6-6.1
	C870.8,240.2,870.8,238.6,870.4,237.2z M859.8,225.4c0-2.4-2-4.3-4.3-4.3c-2.4,0-4.3,1.9-4.3,4.3c0,2.4,1.9,4.3,4.3,4.3
	C857.9,229.7,859.8,227.8,859.8,225.4L859.8,225.4z M858.5,236.4c-0.2,0.3-0.2,0.7,0,0.9c0.4,0.4,0.6,0.6,0.8,0.6h2.7h2.7
	c0.2,0,0.4-0.1,0.6-0.3c0.5-0.5,0.5-0.9,0.2-1.2l-2.9-4.1c-0.3-0.4-0.8-0.4-1.1-0.2C861.4,232.3,858.5,236.4,858.5,236.4
	 M872.9,225.4c0-2.4-1.9-4.3-4.3-4.3c-2.4,0-4.3,1.9-4.3,4.3c0,2.4,1.9,4.3,4.3,4.3S872.9,227.8,872.9,225.4L872.9,225.4z"/>
<path d="M950.6,191.4c10.9-7.9,26-5.4,33.8,5.4c5.9-1.6,12.2,0,16.5,4.2c6.8,6.6,6.9,17.5,0.3,24.2c1.1,2.6,1.7,5.4,1.5,8.3
	c-0.3,10.9-9.4,19.5-20.2,19.2c0.1,1.4-0.1,2.8-0.5,4.1c1.5-0.9,3.1-1.2,4.8-0.9c3.9,0.6,6.6,4.3,6,8.2c-0.6,3.9-4.3,6.6-8.2,6
	s-6.6-4.3-6-8.2c-1.1,0.9-2.3,1.6-3.6,2c-5.8,2-12.1-1.1-14.1-6.9c-3.8,2.5-8.5,3.1-12.9,1.9c-8.5-2.4-13.4-11.2-11-19.7
	c-4.7-2.5-8.2-6.9-9.4-12.1c-2.3-9.9,3.8-19.8,13.7-22.2C942.8,199.5,946.1,194.7,950.6,191.4z M976.3,237.2c8-4.6,10.8-14.9,6.2-23
	s-14.9-10.8-22.9-6.2c-8.1,4.7-10.9,14.9-6.2,23c1.5,2.6,3.6,4.7,6.2,6.2c-1.3,4.6,1.5,9.4,6.1,10.6c4.6,1.2,9.4-1.5,10.6-6.1
	C976.6,240.2,976.6,238.6,976.3,237.2z M965.6,225.4c0-2.4-2-4.3-4.3-4.3c-2.4,0-4.3,1.9-4.3,4.3c0,2.4,1.9,4.3,4.3,4.3
	C963.7,229.7,965.6,227.8,965.6,225.4L965.6,225.4z M964.3,236.4c-0.2,0.3-0.2,0.7,0,0.9c0.4,0.4,0.6,0.6,0.8,0.6h2.7h2.7
	c0.2,0,0.4-0.1,0.6-0.3c0.5-0.5,0.5-0.9,0.2-1.2l-2.9-4.1c-0.3-0.4-0.8-0.4-1.1-0.2C967.2,232.3,964.3,236.4,964.3,236.4
	 M978.7,225.4c0-2.4-1.9-4.3-4.3-4.3c-2.4,0-4.3,1.9-4.3,4.3c0,2.4,1.9,4.3,4.3,4.3S978.7,227.8,978.7,225.4L978.7,225.4z"/>
<path class="st5" d="M634.3,295.6c10.9-7.9,26-5.4,33.8,5.4c5.8-1.6,12.2,0,16.5,4.2c6.8,6.6,6.9,17.5,0.3,24.2
	c1.1,2.6,1.7,5.4,1.5,8.3c-0.3,10.9-9.4,19.5-20.2,19.2c0.1,1.4-0.1,2.8-0.5,4.1c1.5-0.9,3.1-1.2,4.8-0.9c3.9,0.6,6.6,4.3,6,8.2
	c-0.6,3.9-4.3,6.6-8.2,6s-6.6-4.3-6-8.2c-1.1,0.9-2.3,1.6-3.6,2c-5.8,2-12.1-1.1-14.1-6.9c-3.8,2.5-8.5,3.1-12.9,1.9
	c-8.5-2.4-13.4-11.2-11-19.7c-4.7-2.5-8.2-6.9-9.4-12.1c-2.3-9.9,3.8-19.8,13.7-22.2C626.5,303.7,629.8,298.9,634.3,295.6z
	 M660,341.4c8-4.6,10.8-14.9,6.2-23s-14.9-10.8-22.9-6.2c-8.1,4.7-10.9,14.9-6.2,23c1.5,2.6,3.6,4.7,6.2,6.2
	c-1.3,4.6,1.5,9.4,6.1,10.6s9.4-1.5,10.6-6.1C660.3,344.4,660.3,342.8,660,341.4z M649.3,329.6c0-2.4-2-4.3-4.3-4.3
	c-2.4,0-4.3,1.9-4.3,4.3s1.9,4.3,4.3,4.3C647.4,333.9,649.3,332,649.3,329.6L649.3,329.6z M648.1,340.6c-0.2,0.3-0.2,0.7,0,1
	c0.4,0.4,0.6,0.6,0.8,0.6h2.7h2.7c0.2,0,0.4-0.1,0.6-0.3c0.5-0.5,0.5-0.9,0.2-1.2l-2.8-4.1c-0.3-0.4-0.8-0.4-1.1-0.2
	C650.9,336.5,648.1,340.6,648.1,340.6 M662.5,329.6c0-2.4-1.9-4.3-4.3-4.3c-2.4,0-4.3,1.9-4.3,4.3s1.9,4.3,4.3,4.3
	C660.5,333.9,662.5,332,662.5,329.6L662.5,329.6z"/>
<rect x="609.8" y="525.8" class="st1" width="429.2" height="88.2"/>
<text transform="matrix(1 0 0 1 689.7764 556.0476)" class="st2 st3">        </text>
<path class="st6" d="M848.2,296.8c10.9-7.9,26-5.4,33.8,5.4c5.8-1.6,12.2,0,16.5,4.2c6.8,6.6,6.9,17.5,0.3,24.2
	c1.1,2.6,1.7,5.4,1.5,8.3c-0.3,10.9-9.4,19.5-20.2,19.2c0.1,1.4-0.1,2.8-0.5,4.1c1.5-0.9,3.1-1.2,4.8-0.9c3.9,0.6,6.6,4.3,6,8.2
	c-0.6,3.9-4.3,6.6-8.2,6s-6.6-4.3-6-8.2c-1.1,0.9-2.3,1.6-3.6,2c-5.8,2-12.1-1.1-14.1-6.9c-3.8,2.5-8.5,3.1-12.9,1.9
	c-8.5-2.4-13.4-11.2-11-19.7c-4.7-2.5-8.2-6.9-9.4-12.1c-2.3-9.9,3.8-19.8,13.7-22.2C840.4,304.9,843.6,300.1,848.2,296.8z
	 M873.8,342.6c8-4.6,10.8-14.9,6.2-23s-14.9-10.8-22.9-6.2c-8.1,4.7-10.9,14.9-6.2,23c1.5,2.6,3.6,4.7,6.2,6.2
	c-1.3,4.6,1.5,9.4,6.1,10.6s9.4-1.5,10.6-6.1C874.2,345.6,874.2,344.1,873.8,342.6z M863.2,330.8c0-2.4-2-4.3-4.3-4.3
	c-2.4,0-4.3,1.9-4.3,4.3s1.9,4.3,4.3,4.3C861.2,335.2,863.2,333.2,863.2,330.8L863.2,330.8z M861.9,341.8c-0.2,0.3-0.2,0.7,0,1
	c0.4,0.4,0.6,0.6,0.8,0.6h2.7h2.7c0.2,0,0.4-0.1,0.6-0.3c0.5-0.5,0.5-0.9,0.2-1.2l-2.8-4.1c-0.3-0.4-0.8-0.4-1.1-0.2
	C864.7,337.7,861.9,341.8,861.9,341.8 M876.3,330.8c0-2.4-1.9-4.3-4.3-4.3c-2.4,0-4.3,1.9-4.3,4.3s1.9,4.3,4.3,4.3
	C874.4,335.2,876.3,333.2,876.3,330.8L876.3,330.8z"/>
<path d="M737.9,292.5c10.9-7.9,26-5.4,33.8,5.4c5.8-1.6,12.2,0,16.5,4.2c6.8,6.6,6.9,17.5,0.3,24.2c1.1,2.6,1.7,5.4,1.5,8.3
	c-0.3,10.9-9.4,19.5-20.2,19.2c0.1,1.4-0.1,2.8-0.5,4.1c1.5-0.9,3.1-1.2,4.8-0.9c3.9,0.6,6.6,4.3,6,8.2c-0.6,3.9-4.3,6.6-8.2,6
	s-6.6-4.3-6-8.2c-1.1,0.9-2.3,1.6-3.6,2c-5.8,2-12.1-1.1-14.1-6.9c-3.8,2.5-8.5,3.1-12.9,1.9c-8.5-2.4-13.4-11.2-11-19.7
	c-4.7-2.5-8.2-6.9-9.4-12.1c-2.3-9.9,3.8-19.8,13.7-22.2C730.1,300.6,733.4,295.8,737.9,292.5z M763.5,338.3c8-4.6,10.8-14.9,6.2-23
	s-14.9-10.8-22.9-6.2c-8.1,4.7-10.9,14.9-6.2,23c1.5,2.6,3.6,4.7,6.2,6.2c-1.3,4.6,1.5,9.4,6.1,10.6s9.4-1.5,10.6-6.1
	C763.9,341.3,763.9,339.7,763.5,338.3z M752.9,326.5c0-2.4-2-4.3-4.3-4.3c-2.4,0-4.3,1.9-4.3,4.3s1.9,4.3,4.3,4.3
	S752.9,328.9,752.9,326.5L752.9,326.5z M751.6,337.5c-0.2,0.3-0.2,0.7,0,1c0.4,0.4,0.6,0.6,0.8,0.6h2.7h2.7c0.2,0,0.4-0.1,0.6-0.3
	c0.5-0.5,0.5-0.9,0.2-1.2l-2.8-4.1c-0.3-0.4-0.8-0.4-1.1-0.2C754.5,333.4,751.6,337.5,751.6,337.5 M766,326.5c0-2.4-1.9-4.3-4.3-4.3
	c-2.4,0-4.3,1.9-4.3,4.3s1.9,4.3,4.3,4.3S766,328.9,766,326.5L766,326.5z"/>
<path d="M634.3,295.2c10.9-7.9,26-5.4,33.8,5.4c5.8-1.6,12.2,0,16.5,4.2c6.8,6.6,6.9,17.5,0.3,24.2c1.1,2.6,1.7,5.4,1.5,8.3
	c-0.3,10.9-9.4,19.5-20.2,19.2c0.1,1.4-0.1,2.8-0.5,4.1c1.5-0.9,3.1-1.2,4.8-0.9c3.9,0.6,6.6,4.3,6,8.2c-0.6,3.9-4.3,6.6-8.2,6
	s-6.6-4.3-6-8.2c-1.1,0.9-2.3,1.6-3.6,2c-5.8,2-12.1-1.1-14.1-6.9c-3.8,2.5-8.5,3.1-12.9,1.9c-8.5-2.4-13.4-11.2-11-19.7
	c-4.7-2.5-8.2-6.9-9.4-12.1c-2.3-9.9,3.8-19.8,13.7-22.2C626.5,303.4,629.8,298.5,634.3,295.2z M660,341c8-4.6,10.8-14.9,6.2-23
	s-14.9-10.8-22.9-6.2c-8.1,4.7-10.9,14.9-6.2,23c1.5,2.6,3.6,4.7,6.2,6.2c-1.3,4.6,1.5,9.4,6.1,10.6s9.4-1.5,10.6-6.1
	C660.3,344,660.3,342.5,660,341z M649.3,329.2c0-2.4-2-4.3-4.3-4.3c-2.4,0-4.3,1.9-4.3,4.3s1.9,4.3,4.3,4.3
	C647.4,333.6,649.3,331.6,649.3,329.2L649.3,329.2z M648.1,340.3c-0.2,0.3-0.2,0.7,0,1c0.4,0.4,0.6,0.6,0.8,0.6h2.7h2.7
	c0.2,0,0.4-0.1,0.6-0.3c0.5-0.5,0.5-0.9,0.2-1.2l-2.8-4.1c-0.3-0.4-0.8-0.4-1.1-0.2C650.9,336.2,648.1,340.3,648.1,340.3
	 M662.5,329.2c0-2.4-1.9-4.3-4.3-4.3c-2.4,0-4.3,1.9-4.3,4.3s1.9,4.3,4.3,4.3C660.5,333.6,662.5,331.6,662.5,329.2L662.5,329.2z"/>
<path d="M866.1,337.5c-0.3-0.4-0.8-0.4-1.1-0.2c-0.2,0.2-3.1,4.3-3.1,4.3c-0.2,0.3-0.2,0.7,0,1c0.4,0.4,0.6,0.6,0.8,0.6h2.7h2.3
	c0-1.1-0.1-2.2-0.1-3.3L866.1,337.5z"/>
<path d="M858.8,326.3c-2.4,0-4.3,1.9-4.3,4.3s1.9,4.3,4.3,4.3c2.4,0,4.3-1.9,4.3-4.3C863.2,328.2,861.2,326.3,858.8,326.3z"/>
<path d="M863.2,353c-4.6-1.2-7.4-6-6.1-10.6c-2.6-1.5-4.8-3.6-6.2-6.2c-4.6-8.1-1.8-18.3,6.2-23c3.1-1.8,6.6-2.5,9.9-2.1
	c0-6.2,0-12.4,0.3-18.6c-6.4-1.3-13.3,0-19.1,4.1c-4.5,3.3-7.8,8.1-9.2,13.7c-9.9,2.3-16,12.3-13.7,22.2c1.2,5.2,4.7,9.6,9.4,12.1
	c-2.4,8.5,2.6,17.2,11,19.7c4.4,1.2,9.1,0.5,12.9-1.9c1.5,4.3,5.4,7.1,9.7,7.5c0-5.6-0.1-11.2-0.3-16.8
	C866.5,353.4,864.8,353.4,863.2,353z"/>
<text transform="matrix(1 0 0 1 66.1172 88.1917)" class="st7 st8">TOTAL DE CONTAMINACIÓN DE CO  EN </text>
<text transform="matrix(1 0 0 1 66.1172 114.5916)" class="st7 st8">LA REGIÓN:  7.439.737.23 [TONS]</text>
<text transform="matrix(1.0374 0 0 1 434.5176 91.2661)" class="st7 st4">2</text>
<text transform="matrix(1.0645 0 0 1 537.0002 536.1616)" class="st2 st3">CADA NUBE REPRESENTA 1.000.000 [TONS] DE </text>
<text transform="matrix(1.0645 0 0 1 997.6926 537.1616)" class="st2 st3">CO</text>
<text transform="matrix(1.0645 0 0 1 1026.927 539.9341)" class="st2 st4">2</text>
<text transform="matrix(1 0 0 1 78.9565 472)" class="st9 st10">La Generación de energía (Termoeléctrica) </text>
<text transform="matrix(1 0 0 1 78.9565 502)" class="st9 st10">es la más contaminante, produce:</text>
</svg>
