<?xml version="1.0" encoding="utf-8"?>
<!-- Generator: Adobe Illustrator 19.2.1, SVG Export Plug-In . SVG Version: 6.00 Build 0)  -->
<svg version="1.1" id="Capa_1" xmlns="http://www.w3.org/2000/svg" xmlns:xlink="http://www.w3.org/1999/xlink" x="0px" y="0px"
	 viewBox="0 0 403.3 539.2" style="enable-background:new 0 0 403.3 539.2;" xml:space="preserve">
<style type="text/css">
	.st0{fill:#FFFFFF;stroke:#1D1D1B;stroke-miterlimit:10;}
	.st1{stroke:#000000;stroke-miterlimit:10;}
	.st2{fill:none;}
	.st3{font-family:'Tahoma';}
	.st4{font-size:12px;}
</style>
<path d="M27.4,8.2c10.9-7.9,26-5.4,33.8,5.4c5.8-1.6,12.2,0,16.5,4.2c6.8,6.6,6.9,17.5,0.3,24.2c1.1,2.6,1.7,5.4,1.5,8.3
	c-0.3,10.9-9.4,19.5-20.2,19.2c0.1,1.4-0.1,2.8-0.5,4.1c1.5-0.9,3.1-1.2,4.8-0.9c3.9,0.6,6.6,4.3,6,8.2c-0.6,3.9-4.3,6.6-8.2,6
	c-3.9-0.6-6.6-4.3-6-8.2c-1.1,0.9-2.3,1.6-3.6,2c-5.8,2-12.1-1.1-14.1-6.9c-3.8,2.5-8.5,3.1-12.9,1.9c-8.5-2.4-13.4-11.2-11-19.7
	C9.1,53.6,5.7,49.2,4.5,44c-2.3-9.9,3.8-19.8,13.7-22.2C19.5,16.3,22.8,11.5,27.4,8.2z M53,54c8-4.6,10.8-14.9,6.2-23
	c-4.6-8.1-14.9-10.8-22.9-6.2c-8.1,4.7-10.9,14.9-6.2,23c1.5,2.6,3.6,4.7,6.2,6.2c-1.3,4.6,1.5,9.4,6.1,10.6
	c4.6,1.2,9.4-1.5,10.6-6.1C53.4,57,53.4,55.5,53,54z M42.4,42.2c0-2.4-2-4.3-4.3-4.3c-2.4,0-4.3,1.9-4.3,4.3c0,2.4,1.9,4.3,4.3,4.3
	C40.4,46.6,42.4,44.6,42.4,42.2L42.4,42.2z M41.1,53.2c-0.2,0.3-0.2,0.7,0,1c0.4,0.4,0.6,0.6,0.8,0.6h2.7h2.7c0.2,0,0.4-0.1,0.6-0.3
	c0.5-0.5,0.5-0.9,0.2-1.2l-2.8-4.1c-0.3-0.4-0.8-0.4-1.1-0.2C43.9,49.1,41.1,53.2,41.1,53.2 M55.5,42.2c0-2.4-1.9-4.3-4.3-4.3
	s-4.3,1.9-4.3,4.3c0,2.4,1.9,4.3,4.3,4.3S55.5,44.6,55.5,42.2L55.5,42.2z"/>
<path d="M133.2,8.2c10.9-7.9,26-5.4,33.8,5.4c5.9-1.6,12.2,0,16.5,4.2c6.8,6.6,6.9,17.5,0.3,24.2c1.1,2.6,1.7,5.4,1.5,8.3
	c-0.3,10.9-9.4,19.5-20.2,19.2c0.1,1.4-0.1,2.8-0.5,4.1c1.5-0.9,3.1-1.2,4.8-0.9c3.9,0.6,6.6,4.3,6,8.2c-0.6,3.9-4.3,6.6-8.2,6
	c-3.9-0.6-6.6-4.3-6-8.2c-1.1,0.9-2.3,1.6-3.6,2c-5.8,2-12.1-1.1-14.1-6.9c-3.8,2.5-8.5,3.1-12.9,1.9c-8.5-2.4-13.4-11.2-11-19.7
	c-4.7-2.5-8.2-6.9-9.4-12.1c-2.3-9.9,3.8-19.8,13.7-22.2C125.4,16.3,128.6,11.5,133.2,8.2z M158.8,54c8-4.6,10.8-14.9,6.2-23
	c-4.6-8.1-14.9-10.8-22.9-6.2c-8.1,4.7-10.9,14.9-6.2,23c1.5,2.6,3.6,4.7,6.2,6.2c-1.3,4.6,1.5,9.4,6.1,10.6
	c4.6,1.2,9.4-1.5,10.6-6.1C159.2,57,159.2,55.5,158.8,54z M148.2,42.2c0-2.4-2-4.3-4.3-4.3c-2.4,0-4.3,1.9-4.3,4.3
	c0,2.4,1.9,4.3,4.3,4.3C146.2,46.6,148.2,44.6,148.2,42.2L148.2,42.2z M146.9,53.2c-0.2,0.3-0.2,0.7,0,1c0.4,0.4,0.6,0.6,0.8,0.6
	h2.7h2.7c0.2,0,0.4-0.1,0.6-0.3c0.5-0.5,0.5-0.9,0.2-1.2l-2.8-4.1c-0.3-0.4-0.8-0.4-1.1-0.2C149.7,49.1,146.9,53.2,146.9,53.2
	 M161.3,42.2c0-2.4-1.9-4.3-4.3-4.3s-4.3,1.9-4.3,4.3c0,2.4,1.9,4.3,4.3,4.3S161.3,44.6,161.3,42.2L161.3,42.2z"/>
<path d="M239,8.4c10.9-7.9,26-5.4,33.8,5.4c5.9-1.6,12.2,0,16.5,4.2c6.8,6.6,6.9,17.5,0.3,24.2c1.1,2.6,1.7,5.4,1.5,8.3
	c-0.3,10.9-9.4,19.5-20.2,19.2c0.1,1.4-0.1,2.8-0.5,4.1c1.5-0.9,3.1-1.2,4.8-0.9c3.9,0.6,6.6,4.3,6,8.2c-0.6,3.9-4.3,6.6-8.2,6
	c-3.9-0.6-6.6-4.3-6-8.2c-1.1,0.9-2.3,1.6-3.6,2c-5.8,2-12.1-1.1-14.1-6.9c-3.8,2.5-8.5,3.1-12.9,1.9c-8.5-2.4-13.4-11.2-11-19.7
	c-4.7-2.5-8.2-6.9-9.4-12.1c-2.3-9.9,3.8-19.8,13.7-22.2C231.2,16.6,234.5,11.7,239,8.4z M264.6,54.2c8-4.6,10.8-14.9,6.2-23
	c-4.6-8.1-14.9-10.8-22.9-6.2c-8.1,4.7-10.9,14.9-6.2,23c1.5,2.6,3.6,4.7,6.2,6.2c-1.3,4.6,1.5,9.4,6.1,10.6
	c4.6,1.2,9.4-1.5,10.6-6.1C265,57.2,265,55.7,264.6,54.2z M254,42.5c0-2.4-2-4.3-4.3-4.3c-2.4,0-4.3,1.9-4.3,4.3
	c0,2.4,1.9,4.3,4.3,4.3C252,46.8,254,44.9,254,42.5L254,42.5z M252.7,53.5c-0.2,0.3-0.2,0.7,0,1c0.4,0.4,0.6,0.6,0.8,0.6h2.7h2.7
	c0.2,0,0.4-0.1,0.6-0.3c0.5-0.5,0.5-0.9,0.2-1.2l-2.8-4.1c-0.3-0.4-0.8-0.4-1.1-0.2C255.5,49.4,252.7,53.5,252.7,53.5 M267.1,42.5
	c0-2.4-1.9-4.3-4.3-4.3s-4.3,1.9-4.3,4.3c0,2.4,1.9,4.3,4.3,4.3S267.1,44.9,267.1,42.5L267.1,42.5z"/>
<path d="M344.8,7.9c10.9-7.9,26-5.4,33.8,5.4c5.8-1.6,12.2,0,16.5,4.2c6.8,6.6,6.9,17.5,0.3,24.2c1.1,2.6,1.7,5.4,1.5,8.3
	c-0.3,10.9-9.4,19.5-20.2,19.2c0.1,1.4-0.1,2.8-0.5,4.1c1.5-0.9,3.1-1.2,4.8-0.9c3.9,0.6,6.6,4.3,6,8.2c-0.6,3.9-4.3,6.6-8.2,6
	c-3.9-0.6-6.6-4.3-6-8.2c-1.1,0.9-2.3,1.6-3.6,2c-5.8,2-12.1-1.1-14.1-6.9c-3.8,2.5-8.5,3.1-12.9,1.9c-8.5-2.4-13.4-11.2-11-19.7
	c-4.7-2.5-8.2-6.9-9.4-12.1c-2.3-9.9,3.8-19.8,13.7-22.2C337,16,340.3,11.2,344.8,7.9z M370.4,53.7c8-4.6,10.8-14.9,6.2-23
	c-4.6-8.1-14.9-10.8-22.9-6.2c-8.1,4.7-10.9,14.9-6.2,23c1.5,2.6,3.6,4.7,6.2,6.2c-1.3,4.6,1.5,9.4,6.1,10.6
	c4.6,1.2,9.4-1.5,10.6-6.1C370.8,56.7,370.8,55.2,370.4,53.7z M359.8,41.9c0-2.4-2-4.3-4.3-4.3c-2.4,0-4.3,1.9-4.3,4.3
	c0,2.4,1.9,4.3,4.3,4.3C357.9,46.3,359.8,44.3,359.8,41.9L359.8,41.9z M358.5,52.9c-0.2,0.3-0.2,0.7,0,1c0.4,0.4,0.6,0.6,0.8,0.6
	h2.7h2.7c0.2,0,0.4-0.1,0.6-0.3c0.5-0.5,0.5-0.9,0.2-1.2l-2.9-4.1c-0.3-0.4-0.8-0.4-1.1-0.2C361.4,48.8,358.5,52.9,358.5,52.9
	 M372.9,41.9c0-2.4-1.9-4.3-4.3-4.3s-4.3,1.9-4.3,4.3c0,2.4,1.9,4.3,4.3,4.3S372.9,44.3,372.9,41.9L372.9,41.9z"/>
<path d="M27.4,115.1c10.9-7.9,26-5.4,33.8,5.4c5.8-1.6,12.2,0,16.5,4.2c6.8,6.6,6.9,17.5,0.3,24.2c1.1,2.6,1.7,5.4,1.5,8.3
	c-0.3,10.9-9.4,19.5-20.2,19.2c0.1,1.4-0.1,2.8-0.5,4.1c1.5-0.9,3.1-1.2,4.8-0.9c3.9,0.6,6.6,4.3,6,8.2c-0.6,3.9-4.3,6.6-8.2,6
	c-3.9-0.6-6.6-4.3-6-8.2c-1.1,0.9-2.3,1.6-3.6,2c-5.8,2-12.1-1.1-14.1-6.9c-3.8,2.5-8.5,3.1-12.9,1.9c-8.5-2.4-13.4-11.2-11-19.7
	c-4.7-2.5-8.2-6.9-9.4-12.1c-2.3-9.9,3.8-19.8,13.7-22.2C19.5,123.2,22.8,118.4,27.4,115.1z M53,160.9c8-4.6,10.8-14.9,6.2-23
	c-4.6-8.1-14.9-10.8-22.9-6.2c-8.1,4.7-10.9,14.9-6.2,23c1.5,2.6,3.6,4.7,6.2,6.2c-1.3,4.6,1.5,9.4,6.1,10.6
	c4.6,1.2,9.4-1.5,10.6-6.1C53.4,163.9,53.4,162.4,53,160.9z M42.4,149.1c0-2.4-2-4.3-4.3-4.3c-2.4,0-4.3,1.9-4.3,4.3
	c0,2.4,1.9,4.3,4.3,4.3C40.4,153.5,42.4,151.5,42.4,149.1L42.4,149.1z M41.1,160.1c-0.2,0.3-0.2,0.7,0,0.9c0.4,0.4,0.6,0.6,0.8,0.6
	h2.7h2.7c0.2,0,0.4-0.1,0.6-0.3c0.5-0.5,0.5-0.9,0.2-1.2l-2.8-4.1c-0.3-0.4-0.8-0.4-1.1-0.2C43.9,156.1,41.1,160.1,41.1,160.1
	 M55.5,149.1c0-2.4-1.9-4.3-4.3-4.3s-4.3,1.9-4.3,4.3c0,2.4,1.9,4.3,4.3,4.3S55.5,151.5,55.5,149.1L55.5,149.1z"/>
<path d="M133.2,115.1c10.9-7.9,26-5.4,33.8,5.4c5.9-1.6,12.2,0,16.5,4.2c6.8,6.6,6.9,17.5,0.3,24.2c1.1,2.6,1.7,5.4,1.5,8.3
	c-0.3,10.9-9.4,19.5-20.2,19.2c0.1,1.4-0.1,2.8-0.5,4.1c1.5-0.9,3.1-1.2,4.8-0.9c3.9,0.6,6.6,4.3,6,8.2c-0.6,3.9-4.3,6.6-8.2,6
	c-3.9-0.6-6.6-4.3-6-8.2c-1.1,0.9-2.3,1.6-3.6,2c-5.8,2-12.1-1.1-14.1-6.9c-3.8,2.5-8.5,3.1-12.9,1.9c-8.5-2.4-13.4-11.2-11-19.7
	c-4.7-2.5-8.2-6.9-9.4-12.1c-2.3-9.9,3.8-19.8,13.7-22.2C125.4,123.2,128.6,118.4,133.2,115.1z M158.8,160.9c8-4.6,10.8-14.9,6.2-23
	c-4.6-8.1-14.9-10.8-22.9-6.2c-8.1,4.7-10.9,14.9-6.2,23c1.5,2.6,3.6,4.7,6.2,6.2c-1.3,4.6,1.5,9.4,6.1,10.6
	c4.6,1.2,9.4-1.5,10.6-6.1C159.2,163.9,159.2,162.4,158.8,160.9z M148.2,149.1c0-2.4-2-4.3-4.3-4.3c-2.4,0-4.3,1.9-4.3,4.3
	c0,2.4,1.9,4.3,4.3,4.3C146.2,153.5,148.2,151.5,148.2,149.1L148.2,149.1z M146.9,160.1c-0.2,0.3-0.2,0.7,0,0.9
	c0.4,0.4,0.6,0.6,0.8,0.6h2.7h2.7c0.2,0,0.4-0.1,0.6-0.3c0.5-0.5,0.5-0.9,0.2-1.2l-2.8-4.1c-0.3-0.4-0.8-0.4-1.1-0.2
	C149.7,156.1,146.9,160.1,146.9,160.1 M161.3,149.1c0-2.4-1.9-4.3-4.3-4.3s-4.3,1.9-4.3,4.3c0,2.4,1.9,4.3,4.3,4.3
	S161.3,151.5,161.3,149.1L161.3,149.1z"/>
<path d="M239,115.4c10.9-7.9,26-5.4,33.8,5.4c5.9-1.6,12.2,0,16.5,4.2c6.8,6.6,6.9,17.5,0.3,24.2c1.1,2.6,1.7,5.4,1.5,8.3
	c-0.3,10.9-9.4,19.5-20.2,19.2c0.1,1.4-0.1,2.8-0.5,4.1c1.5-0.9,3.1-1.2,4.8-0.9c3.9,0.6,6.6,4.3,6,8.2c-0.6,3.9-4.3,6.6-8.2,6
	c-3.9-0.6-6.6-4.3-6-8.2c-1.1,0.9-2.3,1.6-3.6,2c-5.8,2-12.1-1.1-14.1-6.9c-3.8,2.5-8.5,3.1-12.9,1.9c-8.5-2.4-13.4-11.2-11-19.7
	c-4.7-2.5-8.2-6.9-9.4-12.1c-2.3-9.9,3.8-19.8,13.7-22.2C231.2,123.5,234.5,118.6,239,115.4z M264.6,161.2c8-4.6,10.8-14.9,6.2-23
	c-4.6-8.1-14.9-10.8-22.9-6.2c-8.1,4.7-10.9,14.9-6.2,23c1.5,2.6,3.6,4.7,6.2,6.2c-1.3,4.6,1.5,9.4,6.1,10.6
	c4.6,1.2,9.4-1.5,10.6-6.1C265,164.2,265,162.6,264.6,161.2z M254,149.4c0-2.4-2-4.3-4.3-4.3c-2.4,0-4.3,1.9-4.3,4.3
	c0,2.4,1.9,4.3,4.3,4.3C252,153.7,254,151.8,254,149.4L254,149.4z M252.7,160.4c-0.2,0.3-0.2,0.7,0,0.9c0.4,0.4,0.6,0.6,0.8,0.6h2.7
	h2.7c0.2,0,0.4-0.1,0.6-0.3c0.5-0.5,0.5-0.9,0.2-1.2l-2.8-4.1c-0.3-0.4-0.8-0.4-1.1-0.2C255.5,156.3,252.7,160.4,252.7,160.4
	 M267.1,149.4c0-2.4-1.9-4.3-4.3-4.3s-4.3,1.9-4.3,4.3c0,2.4,1.9,4.3,4.3,4.3S267.1,151.8,267.1,149.4L267.1,149.4z"/>
<path d="M344.8,113.8c10.9-7.9,26-5.4,33.8,5.4c5.8-1.6,12.2,0,16.5,4.2c6.8,6.6,6.9,17.5,0.3,24.2c1.1,2.6,1.7,5.4,1.5,8.3
	c-0.3,10.9-9.4,19.5-20.2,19.2c0.1,1.4-0.1,2.8-0.5,4.1c1.5-0.9,3.1-1.2,4.8-0.9c3.9,0.6,6.6,4.3,6,8.2c-0.6,3.9-4.3,6.6-8.2,6
	c-3.9-0.6-6.6-4.3-6-8.2c-1.1,0.9-2.3,1.6-3.6,2c-5.8,2-12.1-1.1-14.1-6.9c-3.8,2.5-8.5,3.1-12.9,1.9c-8.5-2.4-13.4-11.2-11-19.7
	c-4.7-2.5-8.2-6.9-9.4-12.1c-2.3-9.9,3.8-19.8,13.7-22.2C337,122,340.3,117.1,344.8,113.8z M370.4,159.6c8-4.6,10.8-14.9,6.2-23
	c-4.6-8.1-14.9-10.8-22.9-6.2c-8.1,4.7-10.9,14.9-6.2,23c1.5,2.6,3.6,4.7,6.2,6.2c-1.3,4.6,1.5,9.4,6.1,10.6
	c4.6,1.2,9.4-1.5,10.6-6.1C370.8,162.6,370.8,161.1,370.4,159.6z M359.8,147.8c0-2.4-2-4.3-4.3-4.3c-2.4,0-4.3,1.9-4.3,4.3
	c0,2.4,1.9,4.3,4.3,4.3C357.9,152.2,359.8,150.2,359.8,147.8L359.8,147.8z M358.5,158.9c-0.2,0.3-0.2,0.7,0,0.9
	c0.4,0.4,0.6,0.6,0.8,0.6h2.7h2.7c0.2,0,0.4-0.1,0.6-0.3c0.5-0.5,0.5-0.9,0.2-1.2l-2.9-4.1c-0.3-0.4-0.8-0.4-1.1-0.2
	C361.4,154.8,358.5,158.9,358.5,158.9 M372.9,147.8c0-2.4-1.9-4.3-4.3-4.3s-4.3,1.9-4.3,4.3c0,2.4,1.9,4.3,4.3,4.3
	S372.9,150.2,372.9,147.8L372.9,147.8z"/>
<path d="M27.4,226.1c10.9-7.9,26-5.4,33.8,5.4c5.8-1.6,12.2,0,16.5,4.2c6.8,6.6,6.9,17.5,0.3,24.2c1.1,2.6,1.7,5.4,1.5,8.3
	c-0.3,10.9-9.4,19.5-20.2,19.2c0.1,1.4-0.1,2.8-0.5,4.1c1.5-0.9,3.1-1.2,4.8-0.9c3.9,0.6,6.6,4.3,6,8.2c-0.6,3.9-4.3,6.6-8.2,6
	c-3.9-0.6-6.6-4.3-6-8.2c-1.1,0.9-2.3,1.6-3.6,2c-5.8,2-12.1-1.1-14.1-6.9c-3.8,2.5-8.5,3.1-12.9,1.9c-8.5-2.4-13.4-11.2-11-19.7
	c-4.7-2.5-8.2-6.9-9.4-12.1c-2.3-9.9,3.8-19.8,13.7-22.2C19.5,234.3,22.8,229.4,27.4,226.1z M53,271.9c8-4.6,10.8-14.9,6.2-23
	c-4.6-8.1-14.9-10.8-22.9-6.2c-8.1,4.7-10.9,14.9-6.2,23c1.5,2.6,3.6,4.7,6.2,6.2c-1.3,4.6,1.5,9.4,6.1,10.6
	c4.6,1.2,9.4-1.5,10.6-6.1C53.4,274.9,53.4,273.4,53,271.9z M42.4,260.2c0-2.4-2-4.3-4.3-4.3c-2.4,0-4.3,1.9-4.3,4.3
	c0,2.4,1.9,4.3,4.3,4.3C40.4,264.5,42.4,262.6,42.4,260.2L42.4,260.2z M41.1,271.2c-0.2,0.3-0.2,0.7,0,0.9c0.4,0.4,0.6,0.6,0.8,0.6
	h2.7h2.7c0.2,0,0.4-0.1,0.6-0.3c0.5-0.5,0.5-0.9,0.2-1.2l-2.8-4.1c-0.3-0.4-0.8-0.4-1.1-0.2C43.9,267.1,41.1,271.2,41.1,271.2
	 M55.5,260.2c0-2.4-1.9-4.3-4.3-4.3s-4.3,1.9-4.3,4.3c0,2.4,1.9,4.3,4.3,4.3S55.5,262.6,55.5,260.2L55.5,260.2z"/>
<path d="M133.2,226.1c10.9-7.9,26-5.4,33.8,5.4c5.9-1.6,12.2,0,16.5,4.2c6.8,6.6,6.9,17.5,0.3,24.2c1.1,2.6,1.7,5.4,1.5,8.3
	c-0.3,10.9-9.4,19.5-20.2,19.2c0.1,1.4-0.1,2.8-0.5,4.1c1.5-0.9,3.1-1.2,4.8-0.9c3.9,0.6,6.6,4.3,6,8.2c-0.6,3.9-4.3,6.6-8.2,6
	c-3.9-0.6-6.6-4.3-6-8.2c-1.1,0.9-2.3,1.6-3.6,2c-5.8,2-12.1-1.1-14.1-6.9c-3.8,2.5-8.5,3.1-12.9,1.9c-8.5-2.4-13.4-11.2-11-19.7
	c-4.7-2.5-8.2-6.9-9.4-12.1c-2.3-9.9,3.8-19.8,13.7-22.2C125.4,234.3,128.6,229.4,133.2,226.1z M158.8,271.9c8-4.6,10.8-14.9,6.2-23
	c-4.6-8.1-14.9-10.8-22.9-6.2c-8.1,4.7-10.9,14.9-6.2,23c1.5,2.6,3.6,4.7,6.2,6.2c-1.3,4.6,1.5,9.4,6.1,10.6
	c4.6,1.2,9.4-1.5,10.6-6.1C159.2,274.9,159.2,273.4,158.8,271.9z M148.2,260.2c0-2.4-2-4.3-4.3-4.3c-2.4,0-4.3,1.9-4.3,4.3
	c0,2.4,1.9,4.3,4.3,4.3C146.2,264.5,148.2,262.6,148.2,260.2L148.2,260.2z M146.9,271.2c-0.2,0.3-0.2,0.7,0,0.9
	c0.4,0.4,0.6,0.6,0.8,0.6h2.7h2.7c0.2,0,0.4-0.1,0.6-0.3c0.5-0.5,0.5-0.9,0.2-1.2l-2.8-4.1c-0.3-0.4-0.8-0.4-1.1-0.2
	C149.7,267.1,146.9,271.2,146.9,271.2 M161.3,260.2c0-2.4-1.9-4.3-4.3-4.3s-4.3,1.9-4.3,4.3c0,2.4,1.9,4.3,4.3,4.3
	S161.3,262.6,161.3,260.2L161.3,260.2z"/>
<path d="M239,227.4c10.9-7.9,26-5.4,33.8,5.4c5.9-1.6,12.2,0,16.5,4.2c6.8,6.6,6.9,17.5,0.3,24.2c1.1,2.6,1.7,5.4,1.5,8.3
	c-0.3,10.9-9.4,19.5-20.2,19.2c0.1,1.4-0.1,2.8-0.5,4.1c1.5-0.9,3.1-1.2,4.8-0.9c3.9,0.6,6.6,4.3,6,8.2c-0.6,3.9-4.3,6.6-8.2,6
	c-3.9-0.6-6.6-4.3-6-8.2c-1.1,0.9-2.3,1.6-3.6,2c-5.8,2-12.1-1.1-14.1-6.9c-3.8,2.5-8.5,3.1-12.9,1.9c-8.5-2.4-13.4-11.2-11-19.7
	c-4.7-2.5-8.2-6.9-9.4-12.1c-2.3-9.9,3.8-19.8,13.7-22.2C231.2,235.5,234.5,230.7,239,227.4z M264.6,273.2c8-4.6,10.8-14.9,6.2-23
	c-4.6-8.1-14.9-10.8-22.9-6.2c-8.1,4.7-10.9,14.9-6.2,23c1.5,2.6,3.6,4.7,6.2,6.2c-1.3,4.6,1.5,9.4,6.1,10.6
	c4.6,1.2,9.4-1.5,10.6-6.1C265,276.2,265,274.6,264.6,273.2z M254,261.4c0-2.4-2-4.3-4.3-4.3c-2.4,0-4.3,1.9-4.3,4.3
	c0,2.4,1.9,4.3,4.3,4.3C252,265.7,254,263.8,254,261.4L254,261.4z M252.7,272.4c-0.2,0.3-0.2,0.7,0,1c0.4,0.4,0.6,0.6,0.8,0.6h2.7
	h2.7c0.2,0,0.4-0.1,0.6-0.3c0.5-0.5,0.5-0.9,0.2-1.2l-2.8-4.1c-0.3-0.4-0.8-0.4-1.1-0.2C255.5,268.3,252.7,272.4,252.7,272.4
	 M267.1,261.4c0-2.4-1.9-4.3-4.3-4.3s-4.3,1.9-4.3,4.3c0,2.4,1.9,4.3,4.3,4.3S267.1,263.8,267.1,261.4L267.1,261.4z"/>
<path d="M344.8,227.8c10.9-7.9,26-5.4,33.8,5.4c5.8-1.6,12.2,0,16.5,4.2c6.8,6.6,6.9,17.5,0.3,24.2c1.1,2.6,1.7,5.4,1.5,8.3
	c-0.3,10.9-9.4,19.5-20.2,19.2c0.1,1.4-0.1,2.8-0.5,4.1c1.5-0.9,3.1-1.2,4.8-0.9c3.9,0.6,6.6,4.3,6,8.2c-0.6,3.9-4.3,6.6-8.2,6
	c-3.9-0.6-6.6-4.3-6-8.2c-1.1,0.9-2.3,1.6-3.6,2c-5.8,2-12.1-1.1-14.1-6.9c-3.8,2.5-8.5,3.1-12.9,1.9c-8.5-2.4-13.4-11.2-11-19.7
	c-4.7-2.5-8.2-6.9-9.4-12.1c-2.3-9.9,3.8-19.8,13.7-22.2C337,236,340.3,231.1,344.8,227.8z M370.4,273.6c8-4.6,10.8-14.9,6.2-23
	c-4.6-8.1-14.9-10.8-22.9-6.2c-8.1,4.7-10.9,14.9-6.2,23c1.5,2.6,3.6,4.7,6.2,6.2c-1.3,4.6,1.5,9.4,6.1,10.6
	c4.6,1.2,9.4-1.5,10.6-6.1C370.8,276.6,370.8,275.1,370.4,273.6z M359.8,261.9c0-2.4-2-4.3-4.3-4.3c-2.4,0-4.3,1.9-4.3,4.3
	c0,2.4,1.9,4.3,4.3,4.3C357.9,266.2,359.8,264.3,359.8,261.9L359.8,261.9z M358.5,272.9c-0.2,0.3-0.2,0.7,0,1
	c0.4,0.4,0.6,0.6,0.8,0.6h2.7h2.7c0.2,0,0.4-0.1,0.6-0.3c0.5-0.5,0.5-0.9,0.2-1.2l-2.9-4.1c-0.3-0.4-0.8-0.4-1.1-0.2
	C361.4,268.8,358.5,272.9,358.5,272.9 M372.9,261.9c0-2.4-1.9-4.3-4.3-4.3s-4.3,1.9-4.3,4.3c0,2.4,1.9,4.3,4.3,4.3
	S372.9,264.3,372.9,261.9L372.9,261.9z"/>
<path d="M27.4,330.9c10.9-7.9,26-5.4,33.8,5.4c5.8-1.6,12.2,0,16.5,4.2c6.8,6.6,6.9,17.5,0.3,24.2c1.1,2.6,1.7,5.4,1.5,8.3
	c-0.3,10.9-9.4,19.5-20.2,19.2c0.1,1.4-0.1,2.8-0.5,4.1c1.5-0.9,3.1-1.2,4.8-0.9c3.9,0.6,6.6,4.3,6,8.2c-0.6,3.9-4.3,6.6-8.2,6
	c-3.9-0.6-6.6-4.3-6-8.2c-1.1,0.9-2.3,1.6-3.6,2c-5.8,2-12.1-1.1-14.1-6.9c-3.8,2.5-8.5,3.1-12.9,1.9c-8.5-2.4-13.4-11.2-11-19.7
	c-4.7-2.5-8.2-6.9-9.4-12.1c-2.3-9.9,3.8-19.8,13.7-22.2C19.5,339,22.8,334.2,27.4,330.9z M53,376.7c8-4.6,10.8-14.9,6.2-23
	c-4.6-8.1-14.9-10.8-22.9-6.2c-8.1,4.7-10.9,14.9-6.2,23c1.5,2.6,3.6,4.7,6.2,6.2c-1.3,4.6,1.5,9.4,6.1,10.6
	c4.6,1.2,9.4-1.5,10.6-6.1C53.4,379.7,53.4,378.1,53,376.7z M42.4,364.9c0-2.4-2-4.3-4.3-4.3c-2.4,0-4.3,1.9-4.3,4.3
	c0,2.4,1.9,4.3,4.3,4.3C40.4,369.2,42.4,367.3,42.4,364.9L42.4,364.9z M41.1,375.9c-0.2,0.3-0.2,0.7,0,1c0.4,0.4,0.6,0.6,0.8,0.6
	h2.7h2.7c0.2,0,0.4-0.1,0.6-0.3c0.5-0.5,0.5-0.9,0.2-1.2l-2.8-4.1c-0.3-0.4-0.8-0.4-1.1-0.2C43.9,371.8,41.1,375.9,41.1,375.9
	 M55.5,364.9c0-2.4-1.9-4.3-4.3-4.3s-4.3,1.9-4.3,4.3c0,2.4,1.9,4.3,4.3,4.3S55.5,367.3,55.5,364.9L55.5,364.9z"/>
<path d="M133.2,330.9c10.9-7.9,26-5.4,33.8,5.4c5.9-1.6,12.2,0,16.5,4.2c6.8,6.6,6.9,17.5,0.3,24.2c1.1,2.6,1.7,5.4,1.5,8.3
	c-0.3,10.9-9.4,19.5-20.2,19.2c0.1,1.4-0.1,2.8-0.5,4.1c1.5-0.9,3.1-1.2,4.8-0.9c3.9,0.6,6.6,4.3,6,8.2c-0.6,3.9-4.3,6.6-8.2,6
	c-3.9-0.6-6.6-4.3-6-8.2c-1.1,0.9-2.3,1.6-3.6,2c-5.8,2-12.1-1.1-14.1-6.9c-3.8,2.5-8.5,3.1-12.9,1.9c-8.5-2.4-13.4-11.2-11-19.7
	c-4.7-2.5-8.2-6.9-9.4-12.1c-2.3-9.9,3.8-19.8,13.7-22.2C125.4,339,128.6,334.2,133.2,330.9z M158.8,376.7c8-4.6,10.8-14.9,6.2-23
	c-4.6-8.1-14.9-10.8-22.9-6.2c-8.1,4.7-10.9,14.9-6.2,23c1.5,2.6,3.6,4.7,6.2,6.2c-1.3,4.6,1.5,9.4,6.1,10.6
	c4.6,1.2,9.4-1.5,10.6-6.1C159.2,379.7,159.2,378.1,158.8,376.7z M148.2,364.9c0-2.4-2-4.3-4.3-4.3c-2.4,0-4.3,1.9-4.3,4.3
	c0,2.4,1.9,4.3,4.3,4.3C146.2,369.2,148.2,367.3,148.2,364.9L148.2,364.9z M146.9,375.9c-0.2,0.3-0.2,0.7,0,1
	c0.4,0.4,0.6,0.6,0.8,0.6h2.7h2.7c0.2,0,0.4-0.1,0.6-0.3c0.5-0.5,0.5-0.9,0.2-1.2l-2.8-4.1c-0.3-0.4-0.8-0.4-1.1-0.2
	C149.7,371.8,146.9,375.9,146.9,375.9 M161.3,364.9c0-2.4-1.9-4.3-4.3-4.3s-4.3,1.9-4.3,4.3c0,2.4,1.9,4.3,4.3,4.3
	S161.3,367.3,161.3,364.9L161.3,364.9z"/>
<path d="M239,330.8c10.9-7.9,26-5.4,33.8,5.4c5.9-1.6,12.2,0,16.5,4.2c6.8,6.6,6.9,17.5,0.3,24.2c1.1,2.6,1.7,5.4,1.5,8.3
	c-0.3,10.9-9.4,19.5-20.2,19.2c0.1,1.4-0.1,2.8-0.5,4.1c1.5-0.9,3.1-1.2,4.8-0.9c3.9,0.6,6.6,4.3,6,8.2c-0.6,3.9-4.3,6.6-8.2,6
	c-3.9-0.6-6.6-4.3-6-8.2c-1.1,0.9-2.3,1.6-3.6,2c-5.8,2-12.1-1.1-14.1-6.9c-3.8,2.5-8.5,3.1-12.9,1.9c-8.5-2.4-13.4-11.2-11-19.7
	c-4.7-2.5-8.2-6.9-9.4-12.1c-2.3-9.9,3.8-19.8,13.7-22.2C231.2,339,234.5,334.1,239,330.8z M264.6,376.6c8-4.6,10.8-14.9,6.2-23
	c-4.6-8.1-14.9-10.8-22.9-6.2c-8.1,4.7-10.9,14.9-6.2,23c1.5,2.6,3.6,4.7,6.2,6.2c-1.3,4.6,1.5,9.4,6.1,10.6
	c4.6,1.2,9.4-1.5,10.6-6.1C265,379.6,265,378.1,264.6,376.6z M254,364.8c0-2.4-2-4.3-4.3-4.3c-2.4,0-4.3,1.9-4.3,4.3
	c0,2.4,1.9,4.3,4.3,4.3C252,369.2,254,367.2,254,364.8L254,364.8z M252.7,375.9c-0.2,0.3-0.2,0.7,0,0.9c0.4,0.4,0.6,0.6,0.8,0.6h2.7
	h2.7c0.2,0,0.4-0.1,0.6-0.3c0.5-0.5,0.5-0.9,0.2-1.2l-2.8-4.1c-0.3-0.4-0.8-0.4-1.1-0.2C255.5,371.8,252.7,375.9,252.7,375.9
	 M267.1,364.8c0-2.4-1.9-4.3-4.3-4.3s-4.3,1.9-4.3,4.3c0,2.4,1.9,4.3,4.3,4.3S267.1,367.2,267.1,364.8L267.1,364.8z"/>
<path d="M344.8,330.8c10.9-7.9,26-5.4,33.8,5.4c5.8-1.6,12.2,0,16.5,4.2c6.8,6.6,6.9,17.5,0.3,24.2c1.1,2.6,1.7,5.4,1.5,8.3
	c-0.3,10.9-9.4,19.5-20.2,19.2c0.1,1.4-0.1,2.8-0.5,4.1c1.5-0.9,3.1-1.2,4.8-0.9c3.9,0.6,6.6,4.3,6,8.2c-0.6,3.9-4.3,6.6-8.2,6
	c-3.9-0.6-6.6-4.3-6-8.2c-1.1,0.9-2.3,1.6-3.6,2c-5.8,2-12.1-1.1-14.1-6.9c-3.8,2.5-8.5,3.1-12.9,1.9c-8.5-2.4-13.4-11.2-11-19.7
	c-4.7-2.5-8.2-6.9-9.4-12.1c-2.3-9.9,3.8-19.8,13.7-22.2C337,339,340.3,334.1,344.8,330.8z M370.4,376.6c8-4.6,10.8-14.9,6.2-23
	c-4.6-8.1-14.9-10.8-22.9-6.2c-8.1,4.7-10.9,14.9-6.2,23c1.5,2.6,3.6,4.7,6.2,6.2c-1.3,4.6,1.5,9.4,6.1,10.6
	c4.6,1.2,9.4-1.5,10.6-6.1C370.8,379.6,370.8,378.1,370.4,376.6z M359.8,364.8c0-2.4-2-4.3-4.3-4.3c-2.4,0-4.3,1.9-4.3,4.3
	c0,2.4,1.9,4.3,4.3,4.3C357.9,369.2,359.8,367.2,359.8,364.8L359.8,364.8z M358.5,375.9c-0.2,0.3-0.2,0.7,0,0.9
	c0.4,0.4,0.6,0.6,0.8,0.6h2.7h2.7c0.2,0,0.4-0.1,0.6-0.3c0.5-0.5,0.5-0.9,0.2-1.2l-2.9-4.1c-0.3-0.4-0.8-0.4-1.1-0.2
	C361.4,371.8,358.5,375.9,358.5,375.9 M372.9,364.8c0-2.4-1.9-4.3-4.3-4.3s-4.3,1.9-4.3,4.3c0,2.4,1.9,4.3,4.3,4.3
	S372.9,367.2,372.9,364.8L372.9,364.8z"/>
<path class="st0" d="M28.5,435c10.9-7.9,26-5.4,33.8,5.4c5.9-1.6,12.2,0,16.5,4.2c6.8,6.6,6.9,17.5,0.3,24.2
	c1.1,2.6,1.7,5.4,1.5,8.3c-0.3,10.9-9.4,19.5-20.2,19.2c0.1,1.4-0.1,2.8-0.5,4.1c1.5-0.9,3.1-1.2,4.8-0.9c3.9,0.6,6.6,4.3,6,8.2
	c-0.6,3.9-4.3,6.6-8.2,6c-3.9-0.6-6.6-4.3-6-8.2c-1.1,0.9-2.3,1.6-3.6,2c-5.8,2-12.1-1.1-14.1-6.9c-3.8,2.5-8.5,3.1-12.9,1.9
	c-8.5-2.4-13.4-11.2-11-19.7c-4.7-2.5-8.2-6.9-9.4-12.1c-2.3-9.9,3.8-19.8,13.7-22.2C20.7,443.1,24,438.3,28.5,435z M54.1,480.8
	c8-4.6,10.8-14.9,6.2-23c-4.6-8.1-14.9-10.8-22.9-6.2c-8.1,4.7-10.9,14.9-6.2,23c1.5,2.6,3.6,4.7,6.2,6.2c-1.3,4.6,1.5,9.4,6.1,10.6
	c4.6,1.2,9.4-1.5,10.6-6.1C54.5,483.8,54.5,482.3,54.1,480.8z M43.5,469c0-2.4-2-4.3-4.3-4.3c-2.4,0-4.3,1.9-4.3,4.3
	c0,2.4,1.9,4.3,4.3,4.3C41.6,473.4,43.5,471.4,43.5,469L43.5,469z M42.2,480c-0.2,0.3-0.2,0.7,0,0.9c0.4,0.4,0.6,0.6,0.8,0.6h2.7
	h2.7c0.2,0,0.4-0.1,0.6-0.3c0.5-0.5,0.5-0.9,0.2-1.2l-2.8-4.1c-0.3-0.4-0.8-0.4-1.1-0.2C45.1,475.9,42.2,480,42.2,480 M56.6,469
	c0-2.4-1.9-4.3-4.3-4.3S48,466.6,48,469c0,2.4,1.9,4.3,4.3,4.3S56.6,471.4,56.6,469L56.6,469z"/>
<path class="st1" d="M34.9,469c0,1.6,0.8,2.9,2.1,3.7c0-2.5,0-4.9,0-7.4C35.7,466.1,34.9,467.5,34.9,469z"/>
<path class="st1" d="M36.9,480.9c-2.4-1.5-4.4-3.5-5.8-5.9c-4.6-7.9-1.9-18,5.8-22.7c0-6.9,0.1-13.9,0.1-20.8c-3,0.7-6,2-8.6,4
	c-4.5,3.3-7.8,8.1-9.2,13.7c-9.9,2.3-16,12.3-13.7,22.2c1.2,5.2,4.7,9.6,9.4,12.1c-2.4,8.5,2.6,17.2,11,19.7c3.7,1,7.5,0.7,10.9-0.9
	C36.9,495,36.9,487.9,36.9,480.9z"/>
<rect x="5.1" y="521.7" class="st2" width="347" height="73"/>
<text transform="matrix(1 0 0 1 5.1031 530.7868)" class="st3 st4">CADA NUBE REPRESENTA 1.000.000 [TONS]         </text>
</svg>
