<?xml version="1.0" encoding="utf-8"?>
<!-- Generator: Adobe Illustrator 19.2.1, SVG Export Plug-In . SVG Version: 6.00 Build 0)  -->
<svg version="1.1" id="Capa_1" xmlns="http://www.w3.org/2000/svg" xmlns:xlink="http://www.w3.org/1999/xlink" x="0px" y="0px"
	 viewBox="0 0 1066 588.7" style="enable-background:new 0 0 1066 588.7;" xml:space="preserve">
<style type="text/css">
	.st0{opacity:0.8;fill:#D7E9EA;stroke:#416190;stroke-width:5;stroke-miterlimit:10;}
	.st1{fill:none;}
	.st2{font-family:'Tahoma';}
	.st3{font-size:20px;}
	.st4{font-size:11.66px;}
	.st5{fill:none;stroke:#000000;stroke-miterlimit:10;}
	.st6{font-family:'Tahoma-Bold';}
	.st7{font-size:22px;}
	.st8{font-family:'MyriadPro-Regular';}
	.st9{font-size:25px;}
</style>
<path class="st0" d="M1018.2,584.8H50.9c-24.5,0-44.4-19.2-44.4-42.9v-494c0-23.6,19.9-42.8,44.4-42.8h967.2
	c24.6,0,44.4,19.2,44.4,42.8v494C1062.6,565.6,1042.6,584.8,1018.2,584.8z"/>
<rect x="86.5" y="523.8" class="st1" width="419.3" height="88.2"/>
<text transform="matrix(1.0374 0 0 1 56.9563 549.4463)" class="st2 st3"> 1.500.481,014 [TONS] DE CO</text>
<text transform="matrix(1.0374 0 0 1 335.9307 553.8203)" class="st2 st4">2</text>
<text transform="matrix(1.0374 0 0 1 356.5342 547.1602)" class="st2 st3">        </text>
<rect x="581.9" y="534.8" class="st1" width="456.9" height="88.2"/>
<text transform="matrix(1.0645 0 0 1 548.9092 550.0479)" class="st2 st3">CADA NUBE REPRESENTA 1.000.000 [TONS] DE </text>
<text transform="matrix(1.0645 0 0 1 1009.6016 551.0479)" class="st2 st3">CO</text>
<text transform="matrix(1.0645 0 0 1 1038.8359 553.8203)" class="st2 st4">2</text>
<text transform="matrix(1.0645 0 0 1 684.5352 668.0479)" class="st2 st3">        </text>
<path class="st5" d="M750.6,238.8c11.6-7.9,27.7-5.4,36,5.4c6.2-1.6,13,0,17.6,4.2c7.2,6.6,7.3,17.5,0.3,24.2
	c1.2,2.6,1.8,5.4,1.6,8.3c-0.3,10.9-10,19.5-21.5,19.2c0.1,1.4-0.1,2.8-0.5,4.1c1.6-0.9,3.3-1.2,5.1-0.9c4.2,0.6,7,4.3,6.4,8.2
	c-0.6,3.9-4.6,6.6-8.7,6s-7-4.3-6.4-8.2c-1.2,0.9-2.4,1.6-3.8,2c-6.2,2-12.9-1.1-15-6.9c-4,2.5-9,3.1-13.7,1.9
	c-9-2.4-14.3-11.2-11.7-19.7c-5-2.5-8.7-6.9-10-12.1c-2.4-9.9,4-19.8,14.6-22.2C742.3,246.9,745.7,242.1,750.6,238.8z M777.8,284.6
	c8.5-4.6,11.5-14.9,6.6-23s-15.9-10.8-24.4-6.2c-8.6,4.7-11.6,14.9-6.6,23c1.6,2.6,3.8,4.7,6.6,6.2c-1.4,4.6,1.6,9.4,6.5,10.6
	s10-1.5,11.3-6.1C778.2,287.6,778.2,286.1,777.8,284.6z M766.5,272.8c0-2.4-2.1-4.3-4.6-4.3c-2.6,0-4.6,1.9-4.6,4.3s2,4.3,4.6,4.3
	C764.4,277.2,766.5,275.2,766.5,272.8L766.5,272.8z M765.1,283.8c-0.2,0.3-0.2,0.7,0,1c0.4,0.4,0.6,0.6,0.9,0.6h2.9h2.9
	c0.2,0,0.4-0.1,0.6-0.3c0.5-0.5,0.5-0.9,0.2-1.2l-3-4.1c-0.3-0.4-0.9-0.4-1.2-0.2C768.1,279.7,765.1,283.8,765.1,283.8 M780.5,272.8
	c0-2.4-2-4.3-4.6-4.3s-4.6,1.9-4.6,4.3s2,4.3,4.6,4.3C778.5,277.2,780.5,275.2,780.5,272.8L780.5,272.8z"/>
<path d="M606,240.6c11.6-7.9,27.7-5.4,36,5.4c6.2-1.6,13,0,17.6,4.2c7.2,6.6,7.3,17.5,0.3,24.2c1.2,2.6,1.8,5.4,1.6,8.3
	c-0.3,10.9-10,19.5-21.5,19.2c0.1,1.4-0.1,2.8-0.5,4.1c1.6-0.9,3.3-1.2,5.1-0.9c4.2,0.6,7,4.3,6.4,8.2c-0.6,3.9-4.6,6.6-8.7,6
	s-7-4.3-6.4-8.2c-1.2,0.9-2.4,1.6-3.8,2c-6.2,2-12.9-1.1-15-6.9c-4,2.5-9,3.1-13.7,1.9c-9-2.4-14.3-11.2-11.7-19.7
	c-5-2.5-8.7-6.9-10-12.1c-2.4-9.9,4-19.8,14.6-22.2C597.7,248.8,601.2,243.9,606,240.6z M633.4,286.4c8.5-4.6,11.5-14.9,6.6-23
	s-15.9-10.8-24.4-6.2c-8.6,4.7-11.6,14.9-6.6,23c1.6,2.6,3.8,4.7,6.6,6.2c-1.4,4.6,1.6,9.4,6.5,10.6s10-1.5,11.3-6.1
	C633.7,289.4,633.7,287.9,633.4,286.4z M622,274.6c0-2.4-2.1-4.3-4.6-4.3c-2.6,0-4.6,1.9-4.6,4.3s2,4.3,4.6,4.3
	C619.9,279,622,277,622,274.6L622,274.6z M620.7,285.7c-0.2,0.3-0.2,0.7,0,1c0.4,0.4,0.6,0.6,0.9,0.6h2.9h2.9c0.2,0,0.4-0.1,0.6-0.3
	c0.5-0.5,0.5-0.9,0.2-1.2l-3-4.1c-0.3-0.4-0.9-0.4-1.2-0.2C623.7,281.6,620.7,285.7,620.7,285.7 M636,274.6c0-2.4-2-4.3-4.6-4.3
	s-4.6,1.9-4.6,4.3s2,4.3,4.6,4.3C633.9,279,636,277,636,274.6L636,274.6z"/>
<path class="st1" d="M666.7,442.1c4.3-6.1,3.8-14.2-1.1-20"/>
<path d="M768.8,279.5c-0.3,0.1-3.3,4.2-3.3,4.2c-0.2,0.3-0.2,0.7,0,1c0.4,0.4,0.6,0.6,0.9,0.6h2.9h0.5c0-1.9,0-3.8,0.1-5.7
	C769.5,279.3,769.1,279.3,768.8,279.5z"/>
<path d="M766.8,295c-4.9-1.2-7.9-6-6.5-10.6c-2.8-1.5-5-3.6-6.6-6.2c-5-8.1-2-18.3,6.6-23c3-1.6,6.4-2.3,9.6-2.2
	c0-6.3-0.2-12.5-0.4-18.8c-6.4-0.9-13.1,0.5-18.7,4.4c-4.8,3.3-8.3,8.2-9.9,13.5c-10.5,2.4-17,12.3-14.6,22.2c1.3,5.2,5,9.6,10,12.1
	c-2.6,8.5,2.7,17.3,11.7,19.7c4.7,1.2,9.7,0.6,13.7-1.9c1.3,3.5,4.3,6,7.8,7c0-5.3,0-10.6,0.1-16C768.7,295.3,767.8,295.2,766.8,295
	z"/>
<path d="M762.2,268.3c-2.6,0-4.6,1.9-4.6,4.3s2,4.3,4.6,4.3c2.6,0.1,4.6-1.9,4.6-4.3C766.7,270.2,764.6,268.3,762.2,268.3z"/>
<rect x="60.5" y="65" class="st1" width="449" height="60"/>
<text transform="matrix(1 0 0 1 60.5 81.7197)" class="st6 st7">TOTAL DE CONTAMINACIÓN DE CO  EN </text>
<text transform="matrix(1 0 0 1 60.5 108.1197)" class="st6 st7">LA REGIÓN:  1.773.177,63 [TONS]</text>
<text transform="matrix(1.0374 0 0 1 427.1953 81.708)" class="st6 st4">2</text>
<rect x="61" y="464.3" class="st1" width="448.1" height="51.5"/>
<text transform="matrix(1 0 0 1 60.9565 482)"><tspan x="0" y="0" class="st8 st9">La Industria del papel y celulosa es la más </tspan><tspan x="0" y="30" class="st8 st9">contaminante, produce:</tspan></text>
</svg>
