<?xml version="1.0" encoding="utf-8"?>
<!-- Generator: Adobe Illustrator 19.2.1, SVG Export Plug-In . SVG Version: 6.00 Build 0)  -->
<svg version="1.1" id="Capa_1" xmlns="http://www.w3.org/2000/svg" xmlns:xlink="http://www.w3.org/1999/xlink" x="0px" y="0px"
	 viewBox="0 0 1066 588.7" style="enable-background:new 0 0 1066 588.7;" xml:space="preserve">
<style type="text/css">
	.st0{opacity:0.8;fill:#D7E9EA;stroke:#416190;stroke-width:5;stroke-miterlimit:10;}
	.st1{fill:none;}
	.st2{font-family:'Tahoma';}
	.st3{font-size:20px;}
	.st4{font-size:11.66px;}
	.st5{fill:none;stroke:#000000;stroke-miterlimit:10;}
	.st6{font-family:'Tahoma-Bold';}
	.st7{font-size:22px;}
</style>
<path class="st0" d="M1018.2,584.8H50.9c-24.5,0-44.4-19.2-44.4-42.9v-494c0-23.6,19.9-42.8,44.4-42.8h967.2
	c24.6,0,44.4,19.2,44.4,42.8v494C1062.6,565.6,1042.6,584.8,1018.2,584.8z"/>
<rect x="71" y="531.9" class="st1" width="445.3" height="88.2"/>
<text transform="matrix(1.0374 0 0 1 74.939 543.1602)" class="st2 st3"> 183.279,450 [TONS] DE CO</text>
<text transform="matrix(1.0374 0 0 1 334.9307 545.8203)" class="st2 st4">2</text>
<text transform="matrix(1.0374 0 0 1 356.5342 547.1602)" class="st2 st3">        </text>
<rect x="609.8" y="534.8" class="st1" width="429.2" height="88.2"/>
<text transform="matrix(1 0 0 1 609.7698 542.0476)" class="st2 st3">CADA NUBE REPRESENTA 10.000 [TONS] DE </text>
<text transform="matrix(1 0 0 1 609.7698 566.0476)" class="st2 st3">CO</text>
<text transform="matrix(1 0 0 1 635.9316 571.708)" class="st2 st4">2</text>
<text transform="matrix(1 0 0 1 642.2971 574.0476)" class="st2 st3">        </text>
<path class="st1" d="M689.4,442.1c4-6.1,3.6-14.2-1-20"/>
<g>
	<path d="M688.8,279.7c0-1.9-0.9-3.5-2.3-4.7c0-0.1,0-0.2,0-0.3c0-4.5-4.4-8.2-9.9-8.4c-1.7-2-4.3-3.4-7.2-3.4c-3.5,0-6.5,1.8-8,4.5
		c-1.2-4.1-5.8-7.1-11.3-7.1c-4.8,0-8.9,2.2-10.7,5.4c-1.7-1.8-4.1-2.9-6.7-2.9c-3.5,0-6.6,1.9-8.1,4.7c-4.7,0.8-8.1,4.2-8.1,8.2
		c0,0.3,0,0.7,0.1,1c-0.4,0.8-0.7,1.8-0.7,2.8c0,3.3,2.7,6,6.1,6.3c0.7,4.1,5.1,7.2,10.3,7.2c2,0,4-0.5,5.6-1.3c1.8,1.2,4.1,2,6.7,2
		c1.1,0,2.1-0.1,3.1-0.4c1.9,2.2,5,3.7,8.6,3.7c4.7,0,8.7-2.5,10-6c1.8,1.3,4.2,2.1,6.8,2.1c5.3,0,9.7-3.2,10.3-7.4
		C686.5,285.2,688.8,282.7,688.8,279.7z"/>
</g>
<g>
	<path d="M786.4,279.7c0-1.9-0.9-3.5-2.3-4.7c0-0.1,0-0.2,0-0.3c0-4.5-4.4-8.2-9.9-8.4c-1.7-2-4.3-3.4-7.2-3.4c-3.5,0-6.5,1.8-8,4.5
		c-1.2-4.1-5.8-7.1-11.3-7.1c-4.8,0-8.9,2.2-10.7,5.4c-1.7-1.8-4.1-2.9-6.7-2.9c-3.5,0-6.6,1.9-8.1,4.7c-4.7,0.8-8.1,4.2-8.1,8.2
		c0,0.3,0,0.7,0.1,1c-0.4,0.8-0.7,1.8-0.7,2.8c0,3.3,2.7,6,6.1,6.3c0.7,4.1,5.1,7.2,10.3,7.2c2,0,4-0.5,5.6-1.3c1.8,1.2,4.1,2,6.7,2
		c1.1,0,2.1-0.1,3.1-0.4c1.9,2.2,5,3.7,8.6,3.7c4.7,0,8.7-2.5,10-6c1.8,1.3,4.2,2.1,6.8,2.1c5.3,0,9.7-3.2,10.3-7.4
		C784.1,285.2,786.4,282.7,786.4,279.7z"/>
</g>
<g>
	<path class="st5" d="M880.8,389c0-1.9-0.9-3.5-2.3-4.7c0-0.1,0-0.2,0-0.3c0-4.5-4.4-8.2-9.9-8.4c-1.7-2-4.3-3.4-7.2-3.4
		c-3.5,0-6.5,1.8-8,4.5c-1.2-4.1-5.8-7.1-11.3-7.1c-4.8,0-8.9,2.2-10.7,5.4c-1.7-1.8-4.1-2.9-6.7-2.9c-3.5,0-6.6,1.9-8.1,4.7
		c-4.7,0.8-8.1,4.2-8.1,8.2c0,0.3,0,0.7,0.1,1c-0.4,0.8-0.7,1.8-0.7,2.8c0,3.3,2.7,6,6.1,6.3c0.7,4.1,5.1,7.2,10.3,7.2
		c2,0,4-0.5,5.6-1.3c1.8,1.2,4.1,2,6.7,2c1.1,0,2.1-0.1,3.1-0.4c1.9,2.2,5,3.7,8.6,3.7c4.7,0,8.7-2.5,10-6c1.8,1.3,4.2,2.1,6.8,2.1
		c5.3,0,9.7-3.2,10.3-7.4C878.4,394.6,880.8,392,880.8,389z"/>
</g>
<g>
	<path d="M880.8,279.7c0-1.9-0.9-3.5-2.3-4.7c0-0.1,0-0.2,0-0.3c0-4.5-4.4-8.2-9.9-8.4c-1.7-2-4.3-3.4-7.2-3.4c-3.5,0-6.5,1.8-8,4.5
		c-1.2-4.1-5.8-7.1-11.3-7.1c-4.8,0-8.9,2.2-10.7,5.4c-1.7-1.8-4.1-2.9-6.7-2.9c-3.5,0-6.6,1.9-8.1,4.7c-4.7,0.8-8.1,4.2-8.1,8.2
		c0,0.3,0,0.7,0.1,1c-0.4,0.8-0.7,1.8-0.7,2.8c0,3.3,2.7,6,6.1,6.3c0.7,4.1,5.1,7.2,10.3,7.2c2,0,4-0.5,5.6-1.3c1.8,1.2,4.1,2,6.7,2
		c1.1,0,2.1-0.1,3.1-0.4c1.9,2.2,5,3.7,8.6,3.7c4.7,0,8.7-2.5,10-6c1.8,1.3,4.2,2.1,6.8,2.1c5.3,0,9.7-3.2,10.3-7.4
		C878.4,285.2,880.8,282.7,880.8,279.7z"/>
</g>
<g>
	<path d="M831.5,375.3c-1.7-1.8-4.1-2.9-6.7-2.9c-3.5,0-6.6,1.9-8.1,4.7c-4.7,0.8-8.1,4.2-8.1,8.2c0,0.3,0,0.7,0.1,1
		c-0.4,0.8-0.7,1.8-0.7,2.8c0,3.3,2.7,6,6.1,6.3c0.7,4.1,5.1,7.2,10.3,7.2c2,0,4-0.5,5.6-1.3c1.4,1,3.2,1.6,5.2,1.9
		c0.1-10.9,0.7-21.3,0.9-32.1C834,372.2,832.4,373.6,831.5,375.3z"/>
</g>
<g>
	<path d="M688.8,224.2c0-1.9-0.9-3.5-2.3-4.7c0-0.1,0-0.2,0-0.3c0-4.5-4.4-8.2-9.9-8.4c-1.7-2-4.3-3.4-7.2-3.4c-3.5,0-6.5,1.8-8,4.5
		c-1.2-4.1-5.8-7.1-11.3-7.1c-4.8,0-8.9,2.2-10.7,5.4c-1.7-1.8-4.1-2.9-6.7-2.9c-3.5,0-6.6,1.9-8.1,4.7c-4.7,0.8-8.1,4.2-8.1,8.2
		c0,0.3,0,0.7,0.1,1c-0.4,0.8-0.7,1.8-0.7,2.8c0,3.3,2.7,6,6.1,6.3c0.7,4.1,5.1,7.2,10.3,7.2c2,0,4-0.5,5.6-1.3c1.8,1.2,4.1,2,6.7,2
		c1.1,0,2.1-0.1,3.1-0.4c1.9,2.2,5,3.7,8.6,3.7c4.7,0,8.7-2.5,10-6c1.8,1.3,4.2,2.1,6.8,2.1c5.3,0,9.7-3.2,10.3-7.4
		C686.5,229.8,688.8,227.3,688.8,224.2z"/>
</g>
<g>
	<path d="M786.4,224.2c0-1.9-0.9-3.5-2.3-4.7c0-0.1,0-0.2,0-0.3c0-4.5-4.4-8.2-9.9-8.4c-1.7-2-4.3-3.4-7.2-3.4c-3.5,0-6.5,1.8-8,4.5
		c-1.2-4.1-5.8-7.1-11.3-7.1c-4.8,0-8.9,2.2-10.7,5.4c-1.7-1.8-4.1-2.9-6.7-2.9c-3.5,0-6.6,1.9-8.1,4.7c-4.7,0.8-8.1,4.2-8.1,8.2
		c0,0.3,0,0.7,0.1,1c-0.4,0.8-0.7,1.8-0.7,2.8c0,3.3,2.7,6,6.1,6.3c0.7,4.1,5.1,7.2,10.3,7.2c2,0,4-0.5,5.6-1.3c1.8,1.2,4.1,2,6.7,2
		c1.1,0,2.1-0.1,3.1-0.4c1.9,2.2,5,3.7,8.6,3.7c4.7,0,8.7-2.5,10-6c1.8,1.3,4.2,2.1,6.8,2.1c5.3,0,9.7-3.2,10.3-7.4
		C784.1,229.8,786.4,227.3,786.4,224.2z"/>
</g>
<g>
	<path d="M880.8,224.2c0-1.9-0.9-3.5-2.3-4.7c0-0.1,0-0.2,0-0.3c0-4.5-4.4-8.2-9.9-8.4c-1.7-2-4.3-3.4-7.2-3.4c-3.5,0-6.5,1.8-8,4.5
		c-1.2-4.1-5.8-7.1-11.3-7.1c-4.8,0-8.9,2.2-10.7,5.4c-1.7-1.8-4.1-2.9-6.7-2.9c-3.5,0-6.6,1.9-8.1,4.7c-4.7,0.8-8.1,4.2-8.1,8.2
		c0,0.3,0,0.7,0.1,1c-0.4,0.8-0.7,1.8-0.7,2.8c0,3.3,2.7,6,6.1,6.3c0.7,4.1,5.1,7.2,10.3,7.2c2,0,4-0.5,5.6-1.3c1.8,1.2,4.1,2,6.7,2
		c1.1,0,2.1-0.1,3.1-0.4c1.9,2.2,5,3.7,8.6,3.7c4.7,0,8.7-2.5,10-6c1.8,1.3,4.2,2.1,6.8,2.1c5.3,0,9.7-3.2,10.3-7.4
		C878.4,229.8,880.8,227.3,880.8,224.2z"/>
</g>
<g>
	<path d="M975.1,224.2c0-1.9-0.9-3.5-2.3-4.7c0-0.1,0-0.2,0-0.3c0-4.5-4.4-8.2-9.9-8.4c-1.7-2-4.3-3.4-7.2-3.4c-3.5,0-6.5,1.8-8,4.5
		c-1.2-4.1-5.8-7.1-11.3-7.1c-4.8,0-8.9,2.2-10.7,5.4c-1.7-1.8-4.1-2.9-6.7-2.9c-3.5,0-6.6,1.9-8.1,4.7c-4.7,0.8-8.1,4.2-8.1,8.2
		c0,0.3,0,0.7,0.1,1c-0.4,0.8-0.7,1.8-0.7,2.8c0,3.3,2.7,6,6.1,6.3c0.7,4.1,5.1,7.2,10.3,7.2c2,0,4-0.5,5.6-1.3c1.8,1.2,4.1,2,6.7,2
		c1.1,0,2.1-0.1,3.1-0.4c1.9,2.2,5,3.7,8.6,3.7c4.7,0,8.7-2.5,10-6c1.8,1.3,4.2,2.1,6.8,2.1c5.3,0,9.7-3.2,10.3-7.4
		C972.8,229.8,975.1,227.3,975.1,224.2z"/>
</g>
<g>
	<path d="M688.8,170.7c0-1.9-0.9-3.5-2.3-4.7c0-0.1,0-0.2,0-0.3c0-4.5-4.4-8.2-9.9-8.4c-1.7-2-4.3-3.4-7.2-3.4c-3.5,0-6.5,1.8-8,4.5
		c-1.2-4.1-5.8-7.1-11.3-7.1c-4.8,0-8.9,2.2-10.7,5.4c-1.7-1.8-4.1-2.9-6.7-2.9c-3.5,0-6.6,1.9-8.1,4.7c-4.7,0.8-8.1,4.2-8.1,8.2
		c0,0.3,0,0.7,0.1,1c-0.4,0.8-0.7,1.8-0.7,2.8c0,3.3,2.7,6,6.1,6.3c0.7,4.1,5.1,7.2,10.3,7.2c2,0,4-0.5,5.6-1.3c1.8,1.2,4.1,2,6.7,2
		c1.1,0,2.1-0.1,3.1-0.4c1.9,2.2,5,3.7,8.6,3.7c4.7,0,8.7-2.5,10-6c1.8,1.3,4.2,2.1,6.8,2.1c5.3,0,9.7-3.2,10.3-7.4
		C686.5,176.2,688.8,173.7,688.8,170.7z"/>
</g>
<g>
	<path d="M786.4,170.7c0-1.9-0.9-3.5-2.3-4.7c0-0.1,0-0.2,0-0.3c0-4.5-4.4-8.2-9.9-8.4c-1.7-2-4.3-3.4-7.2-3.4c-3.5,0-6.5,1.8-8,4.5
		c-1.2-4.1-5.8-7.1-11.3-7.1c-4.8,0-8.9,2.2-10.7,5.4c-1.7-1.8-4.1-2.9-6.7-2.9c-3.5,0-6.6,1.9-8.1,4.7c-4.7,0.8-8.1,4.2-8.1,8.2
		c0,0.3,0,0.7,0.1,1c-0.4,0.8-0.7,1.8-0.7,2.8c0,3.3,2.7,6,6.1,6.3c0.7,4.1,5.1,7.2,10.3,7.2c2,0,4-0.5,5.6-1.3c1.8,1.2,4.1,2,6.7,2
		c1.1,0,2.1-0.1,3.1-0.4c1.9,2.2,5,3.7,8.6,3.7c4.7,0,8.7-2.5,10-6c1.8,1.3,4.2,2.1,6.8,2.1c5.3,0,9.7-3.2,10.3-7.4
		C784.1,176.2,786.4,173.7,786.4,170.7z"/>
</g>
<g>
	<path d="M880.8,170.7c0-1.9-0.9-3.5-2.3-4.7c0-0.1,0-0.2,0-0.3c0-4.5-4.4-8.2-9.9-8.4c-1.7-2-4.3-3.4-7.2-3.4c-3.5,0-6.5,1.8-8,4.5
		c-1.2-4.1-5.8-7.1-11.3-7.1c-4.8,0-8.9,2.2-10.7,5.4c-1.7-1.8-4.1-2.9-6.7-2.9c-3.5,0-6.6,1.9-8.1,4.7c-4.7,0.8-8.1,4.2-8.1,8.2
		c0,0.3,0,0.7,0.1,1c-0.4,0.8-0.7,1.8-0.7,2.8c0,3.3,2.7,6,6.1,6.3c0.7,4.1,5.1,7.2,10.3,7.2c2,0,4-0.5,5.6-1.3c1.8,1.2,4.1,2,6.7,2
		c1.1,0,2.1-0.1,3.1-0.4c1.9,2.2,5,3.7,8.6,3.7c4.7,0,8.7-2.5,10-6c1.8,1.3,4.2,2.1,6.8,2.1c5.3,0,9.7-3.2,10.3-7.4
		C878.4,176.2,880.8,173.7,880.8,170.7z"/>
</g>
<g>
	<path d="M975.1,170.7c0-1.9-0.9-3.5-2.3-4.7c0-0.1,0-0.2,0-0.3c0-4.5-4.4-8.2-9.9-8.4c-1.7-2-4.3-3.4-7.2-3.4c-3.5,0-6.5,1.8-8,4.5
		c-1.2-4.1-5.8-7.1-11.3-7.1c-4.8,0-8.9,2.2-10.7,5.4c-1.7-1.8-4.1-2.9-6.7-2.9c-3.5,0-6.6,1.9-8.1,4.7c-4.7,0.8-8.1,4.2-8.1,8.2
		c0,0.3,0,0.7,0.1,1c-0.4,0.8-0.7,1.8-0.7,2.8c0,3.3,2.7,6,6.1,6.3c0.7,4.1,5.1,7.2,10.3,7.2c2,0,4-0.5,5.6-1.3c1.8,1.2,4.1,2,6.7,2
		c1.1,0,2.1-0.1,3.1-0.4c1.9,2.2,5,3.7,8.6,3.7c4.7,0,8.7-2.5,10-6c1.8,1.3,4.2,2.1,6.8,2.1c5.3,0,9.7-3.2,10.3-7.4
		C972.8,176.2,975.1,173.7,975.1,170.7z"/>
</g>
<g>
	<path d="M688.8,335.1c0-1.9-0.9-3.5-2.3-4.7c0-0.1,0-0.2,0-0.3c0-4.5-4.4-8.2-9.9-8.4c-1.7-2-4.3-3.4-7.2-3.4c-3.5,0-6.5,1.8-8,4.5
		c-1.2-4.1-5.8-7.1-11.3-7.1c-4.8,0-8.9,2.2-10.7,5.4c-1.7-1.8-4.1-2.9-6.7-2.9c-3.5,0-6.6,1.9-8.1,4.7c-4.7,0.8-8.1,4.2-8.1,8.2
		c0,0.3,0,0.7,0.1,1c-0.4,0.8-0.7,1.8-0.7,2.8c0,3.3,2.7,6,6.1,6.3c0.7,4.1,5.1,7.2,10.3,7.2c2,0,4-0.5,5.6-1.3c1.8,1.2,4.1,2,6.7,2
		c1.1,0,2.1-0.1,3.1-0.4c1.9,2.2,5,3.7,8.6,3.7c4.7,0,8.7-2.5,10-6c1.8,1.3,4.2,2.1,6.8,2.1c5.3,0,9.7-3.2,10.3-7.4
		C686.5,340.7,688.8,338.1,688.8,335.1z"/>
</g>
<g>
	<path d="M786.4,335.1c0-1.9-0.9-3.5-2.3-4.7c0-0.1,0-0.2,0-0.3c0-4.5-4.4-8.2-9.9-8.4c-1.7-2-4.3-3.4-7.2-3.4c-3.5,0-6.5,1.8-8,4.5
		c-1.2-4.1-5.8-7.1-11.3-7.1c-4.8,0-8.9,2.2-10.7,5.4c-1.7-1.8-4.1-2.9-6.7-2.9c-3.5,0-6.6,1.9-8.1,4.7c-4.7,0.8-8.1,4.2-8.1,8.2
		c0,0.3,0,0.7,0.1,1c-0.4,0.8-0.7,1.8-0.7,2.8c0,3.3,2.7,6,6.1,6.3c0.7,4.1,5.1,7.2,10.3,7.2c2,0,4-0.5,5.6-1.3c1.8,1.2,4.1,2,6.7,2
		c1.1,0,2.1-0.1,3.1-0.4c1.9,2.2,5,3.7,8.6,3.7c4.7,0,8.7-2.5,10-6c1.8,1.3,4.2,2.1,6.8,2.1c5.3,0,9.7-3.2,10.3-7.4
		C784.1,340.7,786.4,338.1,786.4,335.1z"/>
</g>
<g>
	<path d="M975.1,279.7c0-1.9-0.9-3.5-2.3-4.7c0-0.1,0-0.2,0-0.3c0-4.5-4.4-8.2-9.9-8.4c-1.7-2-4.3-3.4-7.2-3.4c-3.5,0-6.5,1.8-8,4.5
		c-1.2-4.1-5.8-7.1-11.3-7.1c-4.8,0-8.9,2.2-10.7,5.4c-1.7-1.8-4.1-2.9-6.7-2.9c-3.5,0-6.6,1.9-8.1,4.7c-4.7,0.8-8.1,4.2-8.1,8.2
		c0,0.3,0,0.7,0.1,1c-0.4,0.8-0.7,1.8-0.7,2.8c0,3.3,2.7,6,6.1,6.3c0.7,4.1,5.1,7.2,10.3,7.2c2,0,4-0.5,5.6-1.3c1.8,1.2,4.1,2,6.7,2
		c1.1,0,2.1-0.1,3.1-0.4c1.9,2.2,5,3.7,8.6,3.7c4.7,0,8.7-2.5,10-6c1.8,1.3,4.2,2.1,6.8,2.1c5.3,0,9.7-3.2,10.3-7.4
		C972.8,285.2,975.1,282.7,975.1,279.7z"/>
</g>
<g>
	<path d="M975.1,335.5c0-1.9-0.9-3.5-2.3-4.7c0-0.1,0-0.2,0-0.3c0-4.5-4.4-8.2-9.9-8.4c-1.7-2-4.3-3.4-7.2-3.4c-3.5,0-6.5,1.8-8,4.5
		c-1.2-4.1-5.8-7.1-11.3-7.1c-4.8,0-8.9,2.2-10.7,5.4c-1.7-1.8-4.1-2.9-6.7-2.9c-3.5,0-6.6,1.9-8.1,4.7c-4.7,0.8-8.1,4.2-8.1,8.2
		c0,0.3,0,0.7,0.1,1c-0.4,0.8-0.7,1.8-0.7,2.8c0,3.3,2.7,6,6.1,6.3c0.7,4.1,5.1,7.2,10.3,7.2c2,0,4-0.5,5.6-1.3c1.8,1.2,4.1,2,6.7,2
		c1.1,0,2.1-0.1,3.1-0.4c1.9,2.2,5,3.7,8.6,3.7c4.7,0,8.7-2.5,10-6c1.8,1.3,4.2,2.1,6.8,2.1c5.3,0,9.7-3.2,10.3-7.4
		C972.8,341,975.1,338.5,975.1,335.5z"/>
</g>
<g>
	<path d="M688.8,390.6c0-1.9-0.9-3.5-2.3-4.7c0-0.1,0-0.2,0-0.3c0-4.5-4.4-8.2-9.9-8.4c-1.7-2-4.3-3.4-7.2-3.4c-3.5,0-6.5,1.8-8,4.5
		c-1.2-4.1-5.8-7.1-11.3-7.1c-4.8,0-8.9,2.2-10.7,5.4c-1.7-1.8-4.1-2.9-6.7-2.9c-3.5,0-6.6,1.9-8.1,4.7c-4.7,0.8-8.1,4.2-8.1,8.2
		c0,0.3,0,0.7,0.1,1c-0.4,0.8-0.7,1.8-0.7,2.8c0,3.3,2.7,6,6.1,6.3c0.7,4.1,5.1,7.2,10.3,7.2c2,0,4-0.5,5.6-1.3c1.8,1.2,4.1,2,6.7,2
		c1.1,0,2.1-0.1,3.1-0.4c1.9,2.2,5,3.7,8.6,3.7c4.7,0,8.7-2.5,10-6c1.8,1.3,4.2,2.1,6.8,2.1c5.3,0,9.7-3.2,10.3-7.4
		C686.5,396.1,688.8,393.6,688.8,390.6z"/>
</g>
<g>
	<path d="M786.4,390.6c0-1.9-0.9-3.5-2.3-4.7c0-0.1,0-0.2,0-0.3c0-4.5-4.4-8.2-9.9-8.4c-1.7-2-4.3-3.4-7.2-3.4c-3.5,0-6.5,1.8-8,4.5
		c-1.2-4.1-5.8-7.1-11.3-7.1c-4.8,0-8.9,2.2-10.7,5.4c-1.7-1.8-4.1-2.9-6.7-2.9c-3.5,0-6.6,1.9-8.1,4.7c-4.7,0.8-8.1,4.2-8.1,8.2
		c0,0.3,0,0.7,0.1,1c-0.4,0.8-0.7,1.8-0.7,2.8c0,3.3,2.7,6,6.1,6.3c0.7,4.1,5.1,7.2,10.3,7.2c2,0,4-0.5,5.6-1.3c1.8,1.2,4.1,2,6.7,2
		c1.1,0,2.1-0.1,3.1-0.4c1.9,2.2,5,3.7,8.6,3.7c4.7,0,8.7-2.5,10-6c1.8,1.3,4.2,2.1,6.8,2.1c5.3,0,9.7-3.2,10.3-7.4
		C784.1,396.1,786.4,393.6,786.4,390.6z"/>
</g>
<g>
	<path d="M880.8,335.1c0-1.9-0.9-3.5-2.3-4.7c0-0.1,0-0.2,0-0.3c0-4.5-4.4-8.2-9.9-8.4c-1.7-2-4.3-3.4-7.2-3.4c-3.5,0-6.5,1.8-8,4.5
		c-1.2-4.1-5.8-7.1-11.3-7.1c-4.8,0-8.9,2.2-10.7,5.4c-1.7-1.8-4.1-2.9-6.7-2.9c-3.5,0-6.6,1.9-8.1,4.7c-4.7,0.8-8.1,4.2-8.1,8.2
		c0,0.3,0,0.7,0.1,1c-0.4,0.8-0.7,1.8-0.7,2.8c0,3.3,2.7,6,6.1,6.3c0.7,4.1,5.1,7.2,10.3,7.2c2,0,4-0.5,5.6-1.3c1.8,1.2,4.1,2,6.7,2
		c1.1,0,2.1-0.1,3.1-0.4c1.9,2.2,5,3.7,8.6,3.7c4.7,0,8.7-2.5,10-6c1.8,1.3,4.2,2.1,6.8,2.1c5.3,0,9.7-3.2,10.3-7.4
		C878.4,340.7,880.8,338.1,880.8,335.1z"/>
</g>
<text transform="matrix(1 0 0 1 66.1172 88.1917)" class="st6 st7">TOTAL DE CONTAMINACIÓN DE CO  EN </text>
<text transform="matrix(1 0 0 1 66.1172 114.5916)" class="st6 st7">LA REGIÓN:  407.503,473 [TONTS]</text>
<text transform="matrix(1.0374 0 0 1 434.6953 94.708)" class="st6 st4">2</text>
</svg>
