<?xml version="1.0" encoding="utf-8"?>
<!-- Generator: Adobe Illustrator 19.2.1, SVG Export Plug-In . SVG Version: 6.00 Build 0)  -->
<svg version="1.1" id="Capa_1" xmlns="http://www.w3.org/2000/svg" xmlns:xlink="http://www.w3.org/1999/xlink" x="0px" y="0px"
	 viewBox="0 0 1066 588.7" style="enable-background:new 0 0 1066 588.7;" xml:space="preserve">
<style type="text/css">
	.st0{opacity:0.8;}
	.st1{fill:#D7E9EA;stroke:#416190;stroke-width:5;stroke-miterlimit:10;}
	.st2{fill:none;}
	.st3{font-family:'Tahoma';}
	.st4{font-size:20px;}
	.st5{font-size:11.66px;}
	.st6{fill:none;stroke:#000000;stroke-miterlimit:10;}
	.st7{font-family:'Tahoma-Bold';}
	.st8{font-size:22px;}
	.st9{font-family:'MyriadPro-Regular';}
	.st10{font-size:25px;}
</style>
<g id="Capa_2" class="st0">
	<path class="st1" d="M1016.2,584.7H48.9c-24.5,0-44.4-19.2-44.4-42.9v-494C4.5,24.2,24.4,5,48.9,5h967.2
		c24.6,0,44.4,19.2,44.4,42.8v494C1060.6,565.5,1040.6,584.7,1016.2,584.7z"/>
</g>
<rect x="71" y="531.9" class="st2" width="445.3" height="88.2"/>
<text transform="matrix(1.0374 0 0 1 74.939 544.1602)" class="st3 st4"> 140.621,606 [TONS] DE CO</text>
<text transform="matrix(1.0374 0 0 1 333.9307 548.8203)" class="st3 st5">2</text>
<text transform="matrix(1.0374 0 0 1 356.5342 547.1602)" class="st3 st4">        </text>
<rect x="609.8" y="534.8" class="st2" width="429.2" height="88.2"/>
<path class="st2" d="M689.4,442.1c4-6.1,3.6-14.2-1-20"/>
<g>
	<path d="M688.8,279.7c0-1.9-0.9-3.5-2.3-4.7c0-0.1,0-0.2,0-0.3c0-4.5-4.4-8.2-9.9-8.4c-1.7-2-4.3-3.4-7.2-3.4c-3.5,0-6.5,1.8-8,4.5
		c-1.2-4.1-5.8-7.1-11.3-7.1c-4.8,0-8.9,2.2-10.7,5.4c-1.7-1.8-4.1-2.9-6.7-2.9c-3.5,0-6.6,1.9-8.1,4.7c-4.7,0.8-8.1,4.2-8.1,8.2
		c0,0.3,0,0.7,0.1,1c-0.4,0.8-0.7,1.8-0.7,2.8c0,3.3,2.7,6,6.1,6.3c0.7,4.1,5.1,7.2,10.3,7.2c2,0,4-0.5,5.6-1.3c1.8,1.2,4.1,2,6.7,2
		c1.1,0,2.1-0.1,3.1-0.4c1.9,2.2,5,3.7,8.6,3.7c4.7,0,8.7-2.5,10-6c1.8,1.3,4.2,2.1,6.8,2.1c5.3,0,9.7-3.2,10.3-7.4
		C686.5,285.2,688.8,282.7,688.8,279.7z"/>
</g>
<g>
	<path d="M786.4,279.7c0-1.9-0.9-3.5-2.3-4.7c0-0.1,0-0.2,0-0.3c0-4.5-4.4-8.2-9.9-8.4c-1.7-2-4.3-3.4-7.2-3.4c-3.5,0-6.5,1.8-8,4.5
		c-1.2-4.1-5.8-7.1-11.3-7.1c-4.8,0-8.9,2.2-10.7,5.4c-1.7-1.8-4.1-2.9-6.7-2.9c-3.5,0-6.6,1.9-8.1,4.7c-4.7,0.8-8.1,4.2-8.1,8.2
		c0,0.3,0,0.7,0.1,1c-0.4,0.8-0.7,1.8-0.7,2.8c0,3.3,2.7,6,6.1,6.3c0.7,4.1,5.1,7.2,10.3,7.2c2,0,4-0.5,5.6-1.3c1.8,1.2,4.1,2,6.7,2
		c1.1,0,2.1-0.1,3.1-0.4c1.9,2.2,5,3.7,8.6,3.7c4.7,0,8.7-2.5,10-6c1.8,1.3,4.2,2.1,6.8,2.1c5.3,0,9.7-3.2,10.3-7.4
		C784.1,285.2,786.4,282.7,786.4,279.7z"/>
</g>
<g>
	<path class="st6" d="M880.8,335.2c0-1.9-0.9-3.5-2.3-4.7c0-0.1,0-0.2,0-0.3c0-4.5-4.4-8.2-9.9-8.4c-1.7-2-4.3-3.4-7.2-3.4
		c-3.5,0-6.5,1.8-8,4.5c-1.2-4.1-5.8-7.1-11.3-7.1c-4.8,0-8.9,2.2-10.7,5.4c-1.7-1.8-4.1-2.9-6.7-2.9c-3.5,0-6.6,1.9-8.1,4.7
		c-4.7,0.8-8.1,4.2-8.1,8.2c0,0.3,0,0.7,0.1,1c-0.4,0.8-0.7,1.8-0.7,2.8c0,3.3,2.7,6,6.1,6.3c0.7,4.1,5.1,7.2,10.3,7.2
		c2,0,4-0.5,5.6-1.3c1.8,1.2,4.1,2,6.7,2c1.1,0,2.1-0.1,3.1-0.4c1.9,2.2,5,3.7,8.6,3.7c4.7,0,8.7-2.5,10-6c1.8,1.3,4.2,2.1,6.8,2.1
		c5.3,0,9.7-3.2,10.3-7.4C878.4,340.8,880.8,338.2,880.8,335.2z"/>
</g>
<g>
	<path d="M880.8,279.7c0-1.9-0.9-3.5-2.3-4.7c0-0.1,0-0.2,0-0.3c0-4.5-4.4-8.2-9.9-8.4c-1.7-2-4.3-3.4-7.2-3.4c-3.5,0-6.5,1.8-8,4.5
		c-1.2-4.1-5.8-7.1-11.3-7.1c-4.8,0-8.9,2.2-10.7,5.4c-1.7-1.8-4.1-2.9-6.7-2.9c-3.5,0-6.6,1.9-8.1,4.7c-4.7,0.8-8.1,4.2-8.1,8.2
		c0,0.3,0,0.7,0.1,1c-0.4,0.8-0.7,1.8-0.7,2.8c0,3.3,2.7,6,6.1,6.3c0.7,4.1,5.1,7.2,10.3,7.2c2,0,4-0.5,5.6-1.3c1.8,1.2,4.1,2,6.7,2
		c1.1,0,2.1-0.1,3.1-0.4c1.9,2.2,5,3.7,8.6,3.7c4.7,0,8.7-2.5,10-6c1.8,1.3,4.2,2.1,6.8,2.1c5.3,0,9.7-3.2,10.3-7.4
		C878.4,285.2,880.8,282.7,880.8,279.7z"/>
</g>
<g>
	<path d="M688.8,224.2c0-1.9-0.9-3.5-2.3-4.7c0-0.1,0-0.2,0-0.3c0-4.5-4.4-8.2-9.9-8.4c-1.7-2-4.3-3.4-7.2-3.4c-3.5,0-6.5,1.8-8,4.5
		c-1.2-4.1-5.8-7.1-11.3-7.1c-4.8,0-8.9,2.2-10.7,5.4c-1.7-1.8-4.1-2.9-6.7-2.9c-3.5,0-6.6,1.9-8.1,4.7c-4.7,0.8-8.1,4.2-8.1,8.2
		c0,0.3,0,0.7,0.1,1c-0.4,0.8-0.7,1.8-0.7,2.8c0,3.3,2.7,6,6.1,6.3c0.7,4.1,5.1,7.2,10.3,7.2c2,0,4-0.5,5.6-1.3c1.8,1.2,4.1,2,6.7,2
		c1.1,0,2.1-0.1,3.1-0.4c1.9,2.2,5,3.7,8.6,3.7c4.7,0,8.7-2.5,10-6c1.8,1.3,4.2,2.1,6.8,2.1c5.3,0,9.7-3.2,10.3-7.4
		C686.5,229.8,688.8,227.3,688.8,224.2z"/>
</g>
<g>
	<path d="M786.4,224.2c0-1.9-0.9-3.5-2.3-4.7c0-0.1,0-0.2,0-0.3c0-4.5-4.4-8.2-9.9-8.4c-1.7-2-4.3-3.4-7.2-3.4c-3.5,0-6.5,1.8-8,4.5
		c-1.2-4.1-5.8-7.1-11.3-7.1c-4.8,0-8.9,2.2-10.7,5.4c-1.7-1.8-4.1-2.9-6.7-2.9c-3.5,0-6.6,1.9-8.1,4.7c-4.7,0.8-8.1,4.2-8.1,8.2
		c0,0.3,0,0.7,0.1,1c-0.4,0.8-0.7,1.8-0.7,2.8c0,3.3,2.7,6,6.1,6.3c0.7,4.1,5.1,7.2,10.3,7.2c2,0,4-0.5,5.6-1.3c1.8,1.2,4.1,2,6.7,2
		c1.1,0,2.1-0.1,3.1-0.4c1.9,2.2,5,3.7,8.6,3.7c4.7,0,8.7-2.5,10-6c1.8,1.3,4.2,2.1,6.8,2.1c5.3,0,9.7-3.2,10.3-7.4
		C784.1,229.8,786.4,227.3,786.4,224.2z"/>
</g>
<g>
	<path d="M880.8,224.2c0-1.9-0.9-3.5-2.3-4.7c0-0.1,0-0.2,0-0.3c0-4.5-4.4-8.2-9.9-8.4c-1.7-2-4.3-3.4-7.2-3.4c-3.5,0-6.5,1.8-8,4.5
		c-1.2-4.1-5.8-7.1-11.3-7.1c-4.8,0-8.9,2.2-10.7,5.4c-1.7-1.8-4.1-2.9-6.7-2.9c-3.5,0-6.6,1.9-8.1,4.7c-4.7,0.8-8.1,4.2-8.1,8.2
		c0,0.3,0,0.7,0.1,1c-0.4,0.8-0.7,1.8-0.7,2.8c0,3.3,2.7,6,6.1,6.3c0.7,4.1,5.1,7.2,10.3,7.2c2,0,4-0.5,5.6-1.3c1.8,1.2,4.1,2,6.7,2
		c1.1,0,2.1-0.1,3.1-0.4c1.9,2.2,5,3.7,8.6,3.7c4.7,0,8.7-2.5,10-6c1.8,1.3,4.2,2.1,6.8,2.1c5.3,0,9.7-3.2,10.3-7.4
		C878.4,229.8,880.8,227.3,880.8,224.2z"/>
</g>
<g>
	<path d="M975.1,224.2c0-1.9-0.9-3.5-2.3-4.7c0-0.1,0-0.2,0-0.3c0-4.5-4.4-8.2-9.9-8.4c-1.7-2-4.3-3.4-7.2-3.4c-3.5,0-6.5,1.8-8,4.5
		c-1.2-4.1-5.8-7.1-11.3-7.1c-4.8,0-8.9,2.2-10.7,5.4c-1.7-1.8-4.1-2.9-6.7-2.9c-3.5,0-6.6,1.9-8.1,4.7c-4.7,0.8-8.1,4.2-8.1,8.2
		c0,0.3,0,0.7,0.1,1c-0.4,0.8-0.7,1.8-0.7,2.8c0,3.3,2.7,6,6.1,6.3c0.7,4.1,5.1,7.2,10.3,7.2c2,0,4-0.5,5.6-1.3c1.8,1.2,4.1,2,6.7,2
		c1.1,0,2.1-0.1,3.1-0.4c1.9,2.2,5,3.7,8.6,3.7c4.7,0,8.7-2.5,10-6c1.8,1.3,4.2,2.1,6.8,2.1c5.3,0,9.7-3.2,10.3-7.4
		C972.8,229.8,975.1,227.3,975.1,224.2z"/>
</g>
<g>
	<path d="M688.8,170.7c0-1.9-0.9-3.5-2.3-4.7c0-0.1,0-0.2,0-0.3c0-4.5-4.4-8.2-9.9-8.4c-1.7-2-4.3-3.4-7.2-3.4c-3.5,0-6.5,1.8-8,4.5
		c-1.2-4.1-5.8-7.1-11.3-7.1c-4.8,0-8.9,2.2-10.7,5.4c-1.7-1.8-4.1-2.9-6.7-2.9c-3.5,0-6.6,1.9-8.1,4.7c-4.7,0.8-8.1,4.2-8.1,8.2
		c0,0.3,0,0.7,0.1,1c-0.4,0.8-0.7,1.8-0.7,2.8c0,3.3,2.7,6,6.1,6.3c0.7,4.1,5.1,7.2,10.3,7.2c2,0,4-0.5,5.6-1.3c1.8,1.2,4.1,2,6.7,2
		c1.1,0,2.1-0.1,3.1-0.4c1.9,2.2,5,3.7,8.6,3.7c4.7,0,8.7-2.5,10-6c1.8,1.3,4.2,2.1,6.8,2.1c5.3,0,9.7-3.2,10.3-7.4
		C686.5,176.2,688.8,173.7,688.8,170.7z"/>
</g>
<g>
	<path d="M786.4,170.7c0-1.9-0.9-3.5-2.3-4.7c0-0.1,0-0.2,0-0.3c0-4.5-4.4-8.2-9.9-8.4c-1.7-2-4.3-3.4-7.2-3.4c-3.5,0-6.5,1.8-8,4.5
		c-1.2-4.1-5.8-7.1-11.3-7.1c-4.8,0-8.9,2.2-10.7,5.4c-1.7-1.8-4.1-2.9-6.7-2.9c-3.5,0-6.6,1.9-8.1,4.7c-4.7,0.8-8.1,4.2-8.1,8.2
		c0,0.3,0,0.7,0.1,1c-0.4,0.8-0.7,1.8-0.7,2.8c0,3.3,2.7,6,6.1,6.3c0.7,4.1,5.1,7.2,10.3,7.2c2,0,4-0.5,5.6-1.3c1.8,1.2,4.1,2,6.7,2
		c1.1,0,2.1-0.1,3.1-0.4c1.9,2.2,5,3.7,8.6,3.7c4.7,0,8.7-2.5,10-6c1.8,1.3,4.2,2.1,6.8,2.1c5.3,0,9.7-3.2,10.3-7.4
		C784.1,176.2,786.4,173.7,786.4,170.7z"/>
</g>
<g>
	<path d="M880.8,170.7c0-1.9-0.9-3.5-2.3-4.7c0-0.1,0-0.2,0-0.3c0-4.5-4.4-8.2-9.9-8.4c-1.7-2-4.3-3.4-7.2-3.4c-3.5,0-6.5,1.8-8,4.5
		c-1.2-4.1-5.8-7.1-11.3-7.1c-4.8,0-8.9,2.2-10.7,5.4c-1.7-1.8-4.1-2.9-6.7-2.9c-3.5,0-6.6,1.9-8.1,4.7c-4.7,0.8-8.1,4.2-8.1,8.2
		c0,0.3,0,0.7,0.1,1c-0.4,0.8-0.7,1.8-0.7,2.8c0,3.3,2.7,6,6.1,6.3c0.7,4.1,5.1,7.2,10.3,7.2c2,0,4-0.5,5.6-1.3c1.8,1.2,4.1,2,6.7,2
		c1.1,0,2.1-0.1,3.1-0.4c1.9,2.2,5,3.7,8.6,3.7c4.7,0,8.7-2.5,10-6c1.8,1.3,4.2,2.1,6.8,2.1c5.3,0,9.7-3.2,10.3-7.4
		C878.4,176.2,880.8,173.7,880.8,170.7z"/>
</g>
<g>
	<path d="M975.1,170.7c0-1.9-0.9-3.5-2.3-4.7c0-0.1,0-0.2,0-0.3c0-4.5-4.4-8.2-9.9-8.4c-1.7-2-4.3-3.4-7.2-3.4c-3.5,0-6.5,1.8-8,4.5
		c-1.2-4.1-5.8-7.1-11.3-7.1c-4.8,0-8.9,2.2-10.7,5.4c-1.7-1.8-4.1-2.9-6.7-2.9c-3.5,0-6.6,1.9-8.1,4.7c-4.7,0.8-8.1,4.2-8.1,8.2
		c0,0.3,0,0.7,0.1,1c-0.4,0.8-0.7,1.8-0.7,2.8c0,3.3,2.7,6,6.1,6.3c0.7,4.1,5.1,7.2,10.3,7.2c2,0,4-0.5,5.6-1.3c1.8,1.2,4.1,2,6.7,2
		c1.1,0,2.1-0.1,3.1-0.4c1.9,2.2,5,3.7,8.6,3.7c4.7,0,8.7-2.5,10-6c1.8,1.3,4.2,2.1,6.8,2.1c5.3,0,9.7-3.2,10.3-7.4
		C972.8,176.2,975.1,173.7,975.1,170.7z"/>
</g>
<g>
	<path d="M688.8,335.1c0-1.9-0.9-3.5-2.3-4.7c0-0.1,0-0.2,0-0.3c0-4.5-4.4-8.2-9.9-8.4c-1.7-2-4.3-3.4-7.2-3.4c-3.5,0-6.5,1.8-8,4.5
		c-1.2-4.1-5.8-7.1-11.3-7.1c-4.8,0-8.9,2.2-10.7,5.4c-1.7-1.8-4.1-2.9-6.7-2.9c-3.5,0-6.6,1.9-8.1,4.7c-4.7,0.8-8.1,4.2-8.1,8.2
		c0,0.3,0,0.7,0.1,1c-0.4,0.8-0.7,1.8-0.7,2.8c0,3.3,2.7,6,6.1,6.3c0.7,4.1,5.1,7.2,10.3,7.2c2,0,4-0.5,5.6-1.3c1.8,1.2,4.1,2,6.7,2
		c1.1,0,2.1-0.1,3.1-0.4c1.9,2.2,5,3.7,8.6,3.7c4.7,0,8.7-2.5,10-6c1.8,1.3,4.2,2.1,6.8,2.1c5.3,0,9.7-3.2,10.3-7.4
		C686.5,340.7,688.8,338.1,688.8,335.1z"/>
</g>
<g>
	<path d="M786.4,335.1c0-1.9-0.9-3.5-2.3-4.7c0-0.1,0-0.2,0-0.3c0-4.5-4.4-8.2-9.9-8.4c-1.7-2-4.3-3.4-7.2-3.4c-3.5,0-6.5,1.8-8,4.5
		c-1.2-4.1-5.8-7.1-11.3-7.1c-4.8,0-8.9,2.2-10.7,5.4c-1.7-1.8-4.1-2.9-6.7-2.9c-3.5,0-6.6,1.9-8.1,4.7c-4.7,0.8-8.1,4.2-8.1,8.2
		c0,0.3,0,0.7,0.1,1c-0.4,0.8-0.7,1.8-0.7,2.8c0,3.3,2.7,6,6.1,6.3c0.7,4.1,5.1,7.2,10.3,7.2c2,0,4-0.5,5.6-1.3c1.8,1.2,4.1,2,6.7,2
		c1.1,0,2.1-0.1,3.1-0.4c1.9,2.2,5,3.7,8.6,3.7c4.7,0,8.7-2.5,10-6c1.8,1.3,4.2,2.1,6.8,2.1c5.3,0,9.7-3.2,10.3-7.4
		C784.1,340.7,786.4,338.1,786.4,335.1z"/>
</g>
<g>
	<path d="M975.1,279.7c0-1.9-0.9-3.5-2.3-4.7c0-0.1,0-0.2,0-0.3c0-4.5-4.4-8.2-9.9-8.4c-1.7-2-4.3-3.4-7.2-3.4c-3.5,0-6.5,1.8-8,4.5
		c-1.2-4.1-5.8-7.1-11.3-7.1c-4.8,0-8.9,2.2-10.7,5.4c-1.7-1.8-4.1-2.9-6.7-2.9c-3.5,0-6.6,1.9-8.1,4.7c-4.7,0.8-8.1,4.2-8.1,8.2
		c0,0.3,0,0.7,0.1,1c-0.4,0.8-0.7,1.8-0.7,2.8c0,3.3,2.7,6,6.1,6.3c0.7,4.1,5.1,7.2,10.3,7.2c2,0,4-0.5,5.6-1.3c1.8,1.2,4.1,2,6.7,2
		c1.1,0,2.1-0.1,3.1-0.4c1.9,2.2,5,3.7,8.6,3.7c4.7,0,8.7-2.5,10-6c1.8,1.3,4.2,2.1,6.8,2.1c5.3,0,9.7-3.2,10.3-7.4
		C972.8,285.2,975.1,282.7,975.1,279.7z"/>
</g>
<g>
	<path d="M853.4,322.8c-1.2-4.1-5.8-7.1-11.3-7.1c-4.8,0-8.9,2.2-10.7,5.4c-1.7-1.8-4.1-2.9-6.7-2.9c-3.5,0-6.6,1.9-8.1,4.7
		c-4.7,0.8-8.1,4.2-8.1,8.2c0,0.3,0,0.7,0.1,1c-0.4,0.8-0.7,1.8-0.7,2.8c0,3.3,2.7,6,6.1,6.3c0.7,4.1,5.1,7.2,10.3,7.2
		c2,0,4-0.5,5.6-1.3c1.8,1.2,4.1,2,6.7,2c1.1,0,2.1-0.1,3.1-0.4c1.9,2.2,5,3.7,8.6,3.7c3,0,5.8-1.1,7.7-2.7c0-10.1,0-19.6,0-29.7
		C854.9,320.7,854,321.7,853.4,322.8z"/>
</g>
<text transform="matrix(1 0 0 1 66.1172 88.1917)" class="st7 st8">TOTAL DE CONTAMINACIÓN DE CO  EN </text>
<text transform="matrix(1 0 0 1 66.1172 114.5916)" class="st7 st8">LA REGIÓN:  330.047,277 [TONS]</text>
<text transform="matrix(1.0374 0 0 1 434.1953 90.708)" class="st7 st5">2</text>
<text transform="matrix(1.0645 0 0 1 557.4368 543.2739)" class="st3 st4">CADA NUBE REPRESENTA 10.000 [TONS] DE </text>
<text transform="matrix(1.0645 0 0 1 988.1292 544.2739)" class="st3 st4">CO</text>
<text transform="matrix(1.0645 0 0 1 1017.3636 547.0464)" class="st3 st5">2</text>
<rect x="84.9" y="459" class="st2" width="448.1" height="51.5"/>
<text transform="matrix(1 0 0 1 84.9131 476.75)"><tspan x="0" y="0" class="st9 st10">La Pesca es la más contaminante, </tspan><tspan x="0" y="30" class="st9 st10">produce:</tspan></text>
</svg>
