<?xml version="1.0" encoding="utf-8"?>
<!-- Generator: Adobe Illustrator 19.2.1, SVG Export Plug-In . SVG Version: 6.00 Build 0)  -->
<svg version="1.1" id="Capa_1" xmlns="http://www.w3.org/2000/svg" xmlns:xlink="http://www.w3.org/1999/xlink" x="0px" y="0px"
	 viewBox="0 0 1068 591" style="enable-background:new 0 0 1068 591;" xml:space="preserve">
<style type="text/css">
	.st0{opacity:0.8;fill:#D7E9EA;stroke:#416190;stroke-width:5;stroke-miterlimit:10;enable-background:new    ;}
	.st1{fill:none;}
	.st2{font-family:'Tahoma';}
	.st3{font-size:20px;}
	.st4{font-family:'Tahoma-Bold';}
	.st5{font-size:11.66px;}
	.st6{fill:none;stroke:#1D1D1B;stroke-miterlimit:10;}
	.st7{stroke:#000000;stroke-miterlimit:10;}
	.st8{font-size:22px;}
	.st9{font-family:'MyriadPro-Regular';}
	.st10{font-size:25px;}
</style>
<path class="st0" d="M1017.7,586.7H50.4C25.9,586.7,6,567.5,6,543.8v-494C6,26.2,25.9,7,50.4,7h967.2c24.6,0,44.4,19.2,44.4,42.8
	v494C1062.1,567.5,1042.1,586.7,1017.7,586.7z"/>
<rect x="54.9" y="533.8" class="st1" width="445.3" height="88.2"/>
<text transform="matrix(1.0374 0 0 1 54.7537 549.4458)" class="st2 st3"> </text>
<text transform="matrix(1.0374 0 0 1 61.2893 549.4458)" class="st4 st3">12.354.666,146 [TONS] DE CO</text>
<text transform="matrix(1.0374 0 0 1 342.1953 552.708)" class="st4 st5">2</text>
<text transform="matrix(1.0374 0 0 1 396.7988 549.0479)" class="st2 st3">        </text>
<path d="M664,18.2c10.9-7.9,26-5.4,33.8,5.4c5.8-1.6,12.2,0,16.5,4.2c6.8,6.6,6.9,17.5,0.3,24.2c1.1,2.6,1.7,5.4,1.5,8.3
	c-0.3,10.9-9.4,19.5-20.2,19.2c0.1,1.4-0.1,2.8-0.5,4.1c1.5-0.9,3.1-1.2,4.8-0.9c3.9,0.6,6.6,4.3,6,8.2c-0.6,3.9-4.3,6.6-8.2,6
	s-6.6-4.3-6-8.2c-1.1,0.9-2.3,1.6-3.6,2c-5.8,2-12.1-1.1-14.1-6.9c-3.8,2.5-8.5,3.1-12.9,1.9c-8.5-2.4-13.4-11.2-11-19.7
	c-4.7-2.5-8.2-6.9-9.4-12.1c-2.3-9.9,3.8-19.8,13.7-22.2C656.2,26.3,659.5,21.5,664,18.2z M689.7,64c8-4.6,10.8-14.9,6.2-23
	S681,30.2,673,34.8c-8.1,4.7-10.9,14.9-6.2,23c1.5,2.6,3.6,4.7,6.2,6.2c-1.3,4.6,1.5,9.4,6.1,10.6s9.4-1.5,10.6-6.1
	C690,67,690,65.5,689.7,64z M679,52.2c0-2.4-2-4.3-4.3-4.3c-2.4,0-4.3,1.9-4.3,4.3c0,2.4,1.9,4.3,4.3,4.3
	C677.1,56.6,679,54.6,679,52.2L679,52.2z M677.8,63.2c-0.2,0.3-0.2,0.7,0,1c0.4,0.4,0.6,0.6,0.8,0.6h2.7h2.7c0.2,0,0.4-0.1,0.6-0.3
	c0.5-0.5,0.5-0.9,0.2-1.2l-2.8-4.1c-0.3-0.4-0.8-0.4-1.1-0.2C680.6,59.1,677.8,63.2,677.8,63.2 M692.2,52.2c0-2.4-1.9-4.3-4.3-4.3
	c-2.4,0-4.3,1.9-4.3,4.3c0,2.4,1.9,4.3,4.3,4.3C690.2,56.6,692.2,54.6,692.2,52.2L692.2,52.2z"/>
<path d="M769.9,18.2c10.9-7.9,26-5.4,33.8,5.4c5.8-1.6,12.2,0,16.5,4.2c6.8,6.6,6.9,17.5,0.3,24.2c1.1,2.6,1.7,5.4,1.5,8.3
	c-0.3,10.9-9.4,19.5-20.2,19.2c0.1,1.4-0.1,2.8-0.5,4.1c1.5-0.9,3.1-1.2,4.8-0.9c3.9,0.6,6.6,4.3,6,8.2c-0.6,3.9-4.3,6.6-8.2,6
	s-6.6-4.3-6-8.2c-1.1,0.9-2.3,1.6-3.6,2c-5.8,2-12.1-1.1-14.1-6.9c-3.8,2.5-8.5,3.1-12.9,1.9c-8.5-2.4-13.4-11.2-11-19.7
	c-4.7-2.5-8.2-6.9-9.4-12.1c-2.3-9.9,3.8-19.8,13.7-22.2C762,26.3,765.3,21.5,769.9,18.2z M795.5,64c8-4.6,10.8-14.9,6.2-23
	s-14.9-10.8-22.9-6.2c-8.1,4.7-10.9,14.9-6.2,23c1.5,2.6,3.6,4.7,6.2,6.2c-1.3,4.6,1.5,9.4,6.1,10.6s9.4-1.5,10.6-6.1
	C795.9,67,795.9,65.5,795.5,64z M784.8,52.2c0-2.4-2-4.3-4.3-4.3c-2.4,0-4.3,1.9-4.3,4.3c0,2.4,1.9,4.3,4.3,4.3
	C782.9,56.6,784.8,54.6,784.8,52.2L784.8,52.2z M783.6,63.2c-0.2,0.3-0.2,0.7,0,1c0.4,0.4,0.6,0.6,0.8,0.6h2.7h2.7
	c0.2,0,0.4-0.1,0.6-0.3c0.5-0.5,0.5-0.9,0.2-1.2l-2.8-4.1c-0.3-0.4-0.8-0.4-1.1-0.2C786.4,59.1,783.6,63.2,783.6,63.2 M798,52.2
	c0-2.4-1.9-4.3-4.3-4.3c-2.4,0-4.3,1.9-4.3,4.3c0,2.4,1.9,4.3,4.3,4.3C796,56.6,798,54.6,798,52.2L798,52.2z"/>
<path d="M875.7,18.4c10.9-7.9,26-5.4,33.8,5.4c5.8-1.6,12.2,0,16.5,4.2c6.8,6.6,6.9,17.5,0.3,24.2c1.1,2.6,1.7,5.4,1.5,8.3
	c-0.3,10.9-9.4,19.5-20.2,19.2c0.1,1.4-0.1,2.8-0.5,4.1c1.5-0.9,3.1-1.2,4.8-0.9c3.9,0.6,6.6,4.3,6,8.2c-0.6,3.9-4.3,6.6-8.2,6
	s-6.6-4.3-6-8.2c-1.1,0.9-2.3,1.6-3.6,2c-5.8,2-12.1-1.1-14.1-6.9c-3.8,2.5-8.5,3.1-12.9,1.9c-8.5-2.4-13.4-11.2-11-19.7
	c-4.7-2.5-8.2-6.9-9.4-12.1c-2.3-9.9,3.8-19.8,13.7-22.2C867.8,26.6,871.1,21.7,875.7,18.4z M901.3,64.2c8-4.6,10.8-14.9,6.2-23
	s-14.9-10.8-22.9-6.2c-8.1,4.7-10.9,14.9-6.2,23c1.5,2.6,3.6,4.7,6.2,6.2c-1.3,4.6,1.5,9.4,6.1,10.6s9.4-1.5,10.6-6.1
	C901.7,67.2,901.7,65.7,901.3,64.2z M890.7,52.5c0-2.4-2-4.3-4.3-4.3c-2.4,0-4.3,1.9-4.3,4.3c0,2.4,1.9,4.3,4.3,4.3
	C888.7,56.8,890.7,54.9,890.7,52.5L890.7,52.5z M889.4,63.5c-0.2,0.3-0.2,0.7,0,1c0.4,0.4,0.6,0.6,0.8,0.6h2.7h2.7
	c0.2,0,0.4-0.1,0.6-0.3c0.5-0.5,0.5-0.9,0.2-1.2l-2.8-4.1c-0.3-0.4-0.8-0.4-1.1-0.2C892.2,59.4,889.4,63.5,889.4,63.5 M903.8,52.5
	c0-2.4-1.9-4.3-4.3-4.3c-2.4,0-4.3,1.9-4.3,4.3c0,2.4,1.9,4.3,4.3,4.3C901.9,56.8,903.8,54.9,903.8,52.5L903.8,52.5z"/>
<path d="M981.5,17.9c10.9-7.9,26-5.4,33.8,5.4c5.8-1.6,12.2,0,16.5,4.2c6.8,6.6,6.9,17.5,0.3,24.2c1.1,2.6,1.7,5.4,1.5,8.3
	c-0.3,10.9-9.4,19.5-20.2,19.2c0.1,1.4-0.1,2.8-0.5,4.1c1.5-0.9,3.1-1.2,4.8-0.9c3.9,0.6,6.6,4.3,6,8.2c-0.6,3.9-4.3,6.6-8.2,6
	s-6.6-4.3-6-8.2c-1.1,0.9-2.3,1.6-3.6,2c-5.8,2-12.1-1.1-14.1-6.9c-3.8,2.5-8.5,3.1-12.9,1.9c-8.5-2.4-13.4-11.2-11-19.7
	c-4.7-2.5-8.2-6.9-9.4-12.1c-2.3-9.9,3.8-19.8,13.7-22.2C973.6,26,976.9,21.2,981.5,17.9z M1007.1,63.7c8-4.6,10.8-14.9,6.2-23
	s-14.9-10.8-22.9-6.2c-8.1,4.7-10.9,14.9-6.2,23c1.5,2.6,3.6,4.7,6.2,6.2c-1.3,4.6,1.5,9.4,6.1,10.6c4.6,1.2,9.4-1.5,10.6-6.1
	C1007.5,66.7,1007.5,65.2,1007.1,63.7z M996.5,51.9c0-2.4-2-4.3-4.3-4.3c-2.4,0-4.3,1.9-4.3,4.3c0,2.4,1.9,4.3,4.3,4.3
	C994.5,56.3,996.5,54.3,996.5,51.9L996.5,51.9z M995.2,62.9c-0.2,0.3-0.2,0.7,0,1c0.4,0.4,0.6,0.6,0.8,0.6h2.7h2.7
	c0.2,0,0.4-0.1,0.6-0.3c0.5-0.5,0.5-0.9,0.2-1.2l-2.8-4.1c-0.3-0.4-0.8-0.4-1.1-0.2C998,58.8,995.2,62.9,995.2,62.9 M1009.6,51.9
	c0-2.4-1.9-4.3-4.3-4.3c-2.4,0-4.3,1.9-4.3,4.3c0,2.4,1.9,4.3,4.3,4.3C1007.7,56.3,1009.6,54.3,1009.6,51.9L1009.6,51.9z"/>
<path d="M664,125.1c10.9-7.9,26-5.4,33.8,5.4c5.8-1.6,12.2,0,16.5,4.2c6.8,6.6,6.9,17.5,0.3,24.2c1.1,2.6,1.7,5.4,1.5,8.3
	c-0.3,10.9-9.4,19.5-20.2,19.2c0.1,1.4-0.1,2.8-0.5,4.1c1.5-0.9,3.1-1.2,4.8-0.9c3.9,0.6,6.6,4.3,6,8.2s-4.3,6.6-8.2,6
	s-6.6-4.3-6-8.2c-1.1,0.9-2.3,1.6-3.6,2c-5.8,2-12.1-1.1-14.1-6.9c-3.8,2.5-8.5,3.1-12.9,1.9c-8.5-2.4-13.4-11.2-11-19.7
	c-4.7-2.5-8.2-6.9-9.4-12.1c-2.3-9.9,3.8-19.8,13.7-22.2C656.2,133.2,659.5,128.4,664,125.1z M689.7,170.9c8-4.6,10.8-14.9,6.2-23
	s-14.9-10.8-22.9-6.2c-8.1,4.7-10.9,14.9-6.2,23c1.5,2.6,3.6,4.7,6.2,6.2c-1.3,4.6,1.5,9.4,6.1,10.6c4.6,1.2,9.4-1.5,10.6-6.1
	C690,173.9,690,172.4,689.7,170.9z M679,159.1c0-2.4-2-4.3-4.3-4.3c-2.4,0-4.3,1.9-4.3,4.3c0,2.4,1.9,4.3,4.3,4.3
	C677.1,163.5,679,161.5,679,159.1L679,159.1z M677.8,170.1c-0.2,0.3-0.2,0.7,0,0.9c0.4,0.4,0.6,0.6,0.8,0.6h2.7h2.7
	c0.2,0,0.4-0.1,0.6-0.3c0.5-0.5,0.5-0.9,0.2-1.2L682,166c-0.3-0.4-0.8-0.4-1.1-0.2C680.6,166.1,677.8,170.1,677.8,170.1
	 M692.2,159.1c0-2.4-1.9-4.3-4.3-4.3c-2.4,0-4.3,1.9-4.3,4.3c0,2.4,1.9,4.3,4.3,4.3C690.2,163.5,692.2,161.5,692.2,159.1
	L692.2,159.1z"/>
<path d="M769.9,125.1c10.9-7.9,26-5.4,33.8,5.4c5.8-1.6,12.2,0,16.5,4.2c6.8,6.6,6.9,17.5,0.3,24.2c1.1,2.6,1.7,5.4,1.5,8.3
	c-0.3,10.9-9.4,19.5-20.2,19.2c0.1,1.4-0.1,2.8-0.5,4.1c1.5-0.9,3.1-1.2,4.8-0.9c3.9,0.6,6.6,4.3,6,8.2s-4.3,6.6-8.2,6
	s-6.6-4.3-6-8.2c-1.1,0.9-2.3,1.6-3.6,2c-5.8,2-12.1-1.1-14.1-6.9c-3.8,2.5-8.5,3.1-12.9,1.9c-8.5-2.4-13.4-11.2-11-19.7
	c-4.7-2.5-8.2-6.9-9.4-12.1c-2.3-9.9,3.8-19.8,13.7-22.2C762,133.2,765.3,128.4,769.9,125.1z M795.5,170.9c8-4.6,10.8-14.9,6.2-23
	s-14.9-10.8-22.9-6.2c-8.1,4.7-10.9,14.9-6.2,23c1.5,2.6,3.6,4.7,6.2,6.2c-1.3,4.6,1.5,9.4,6.1,10.6c4.6,1.2,9.4-1.5,10.6-6.1
	C795.9,173.9,795.9,172.4,795.5,170.9z M784.8,159.1c0-2.4-2-4.3-4.3-4.3c-2.4,0-4.3,1.9-4.3,4.3c0,2.4,1.9,4.3,4.3,4.3
	C782.9,163.5,784.8,161.5,784.8,159.1L784.8,159.1z M783.6,170.1c-0.2,0.3-0.2,0.7,0,0.9c0.4,0.4,0.6,0.6,0.8,0.6h2.7h2.7
	c0.2,0,0.4-0.1,0.6-0.3c0.5-0.5,0.5-0.9,0.2-1.2l-2.8-4.1c-0.3-0.4-0.8-0.4-1.1-0.2C786.4,166.1,783.6,170.1,783.6,170.1 M798,159.1
	c0-2.4-1.9-4.3-4.3-4.3c-2.4,0-4.3,1.9-4.3,4.3c0,2.4,1.9,4.3,4.3,4.3C796,163.5,798,161.5,798,159.1L798,159.1z"/>
<path d="M875.7,125.4c10.9-7.9,26-5.4,33.8,5.4c5.8-1.6,12.2,0,16.5,4.2c6.8,6.6,6.9,17.5,0.3,24.2c1.1,2.6,1.7,5.4,1.5,8.3
	c-0.3,10.9-9.4,19.5-20.2,19.2c0.1,1.4-0.1,2.8-0.5,4.1c1.5-0.9,3.1-1.2,4.8-0.9c3.9,0.6,6.6,4.3,6,8.2s-4.3,6.6-8.2,6
	s-6.6-4.3-6-8.2c-1.1,0.9-2.3,1.6-3.6,2c-5.8,2-12.1-1.1-14.1-6.9c-3.8,2.5-8.5,3.1-12.9,1.9c-8.5-2.4-13.4-11.2-11-19.7
	c-4.7-2.5-8.2-6.9-9.4-12.1c-2.3-9.9,3.8-19.8,13.7-22.2C867.8,133.5,871.1,128.6,875.7,125.4z M901.3,171.2c8-4.6,10.8-14.9,6.2-23
	s-14.9-10.8-22.9-6.2c-8.1,4.7-10.9,14.9-6.2,23c1.5,2.6,3.6,4.7,6.2,6.2c-1.3,4.6,1.5,9.4,6.1,10.6c4.6,1.2,9.4-1.5,10.6-6.1
	C901.7,174.2,901.7,172.6,901.3,171.2z M890.7,159.4c0-2.4-2-4.3-4.3-4.3c-2.4,0-4.3,1.9-4.3,4.3c0,2.4,1.9,4.3,4.3,4.3
	C888.7,163.7,890.7,161.8,890.7,159.4L890.7,159.4z M889.4,170.4c-0.2,0.3-0.2,0.7,0,0.9c0.4,0.4,0.6,0.6,0.8,0.6h2.7h2.7
	c0.2,0,0.4-0.1,0.6-0.3c0.5-0.5,0.5-0.9,0.2-1.2l-2.8-4.1c-0.3-0.4-0.8-0.4-1.1-0.2C892.2,166.3,889.4,170.4,889.4,170.4
	 M903.8,159.4c0-2.4-1.9-4.3-4.3-4.3c-2.4,0-4.3,1.9-4.3,4.3c0,2.4,1.9,4.3,4.3,4.3C901.9,163.7,903.8,161.8,903.8,159.4
	L903.8,159.4z"/>
<path d="M981.5,123.8c10.9-7.9,26-5.4,33.8,5.4c5.8-1.6,12.2,0,16.5,4.2c6.8,6.6,6.9,17.5,0.3,24.2c1.1,2.6,1.7,5.4,1.5,8.3
	c-0.3,10.9-9.4,19.5-20.2,19.2c0.1,1.4-0.1,2.8-0.5,4.1c1.5-0.9,3.1-1.2,4.8-0.9c3.9,0.6,6.6,4.3,6,8.2s-4.3,6.6-8.2,6
	s-6.6-4.3-6-8.2c-1.1,0.9-2.3,1.6-3.6,2c-5.8,2-12.1-1.1-14.1-6.9c-3.8,2.5-8.5,3.1-12.9,1.9c-8.5-2.4-13.4-11.2-11-19.7
	c-4.7-2.5-8.2-6.9-9.4-12.1c-2.3-9.9,3.8-19.8,13.7-22.2C973.6,132,976.9,127.1,981.5,123.8z M1007.1,169.6c8-4.6,10.8-14.9,6.2-23
	s-14.9-10.8-22.9-6.2c-8.1,4.7-10.9,14.9-6.2,23c1.5,2.6,3.6,4.7,6.2,6.2c-1.3,4.6,1.5,9.4,6.1,10.6c4.6,1.2,9.4-1.5,10.6-6.1
	C1007.5,172.6,1007.5,171.1,1007.1,169.6z M996.5,157.8c0-2.4-2-4.3-4.3-4.3c-2.4,0-4.3,1.9-4.3,4.3c0,2.4,1.9,4.3,4.3,4.3
	C994.5,162.2,996.5,160.2,996.5,157.8L996.5,157.8z M995.2,168.9c-0.2,0.3-0.2,0.7,0,0.9c0.4,0.4,0.6,0.6,0.8,0.6h2.7h2.7
	c0.2,0,0.4-0.1,0.6-0.3c0.5-0.5,0.5-0.9,0.2-1.2l-2.8-4.1c-0.3-0.4-0.8-0.4-1.1-0.2C998,164.8,995.2,168.9,995.2,168.9
	 M1009.6,157.8c0-2.4-1.9-4.3-4.3-4.3c-2.4,0-4.3,1.9-4.3,4.3c0,2.4,1.9,4.3,4.3,4.3C1007.7,162.2,1009.6,160.2,1009.6,157.8
	L1009.6,157.8z"/>
<path d="M664,236.1c10.9-7.9,26-5.4,33.8,5.4c5.8-1.6,12.2,0,16.5,4.2c6.8,6.6,6.9,17.5,0.3,24.2c1.1,2.6,1.7,5.4,1.5,8.3
	c-0.3,10.9-9.4,19.5-20.2,19.2c0.1,1.4-0.1,2.8-0.5,4.1c1.5-0.9,3.1-1.2,4.8-0.9c3.9,0.6,6.6,4.3,6,8.2c-0.6,3.9-4.3,6.6-8.2,6
	s-6.6-4.3-6-8.2c-1.1,0.9-2.3,1.6-3.6,2c-5.8,2-12.1-1.1-14.1-6.9c-3.8,2.5-8.5,3.1-12.9,1.9c-8.5-2.4-13.4-11.2-11-19.7
	c-4.7-2.5-8.2-6.9-9.4-12.1c-2.3-9.9,3.8-19.8,13.7-22.2C656.2,244.3,659.5,239.4,664,236.1z M689.7,281.9c8-4.6,10.8-14.9,6.2-23
	s-14.9-10.8-22.9-6.2c-8.1,4.7-10.9,14.9-6.2,23c1.5,2.6,3.6,4.7,6.2,6.2c-1.3,4.6,1.5,9.4,6.1,10.6s9.4-1.5,10.6-6.1
	C690,284.9,690,283.4,689.7,281.9z M679,270.2c0-2.4-2-4.3-4.3-4.3c-2.4,0-4.3,1.9-4.3,4.3s1.9,4.3,4.3,4.3S679,272.6,679,270.2
	L679,270.2z M677.8,281.2c-0.2,0.3-0.2,0.7,0,0.9c0.4,0.4,0.6,0.6,0.8,0.6h2.7h2.7c0.2,0,0.4-0.1,0.6-0.3c0.5-0.5,0.5-0.9,0.2-1.2
	l-2.8-4.1c-0.3-0.4-0.8-0.4-1.1-0.2C680.6,277.1,677.8,281.2,677.8,281.2 M692.2,270.2c0-2.4-1.9-4.3-4.3-4.3
	c-2.4,0-4.3,1.9-4.3,4.3s1.9,4.3,4.3,4.3C690.2,274.5,692.2,272.6,692.2,270.2L692.2,270.2z"/>
<path d="M772.9,233.1c10.9-7.9,26-5.4,33.8,5.4c5.8-1.6,12.2,0,16.5,4.2c6.8,6.6,6.9,17.5,0.3,24.2c1.1,2.6,1.7,5.4,1.5,8.3
	c-0.3,10.9-9.4,19.5-20.2,19.2c0.1,1.4-0.1,2.8-0.5,4.1c1.5-0.9,3.1-1.2,4.8-0.9c3.9,0.6,6.6,4.3,6,8.2c-0.6,3.9-4.3,6.6-8.2,6
	s-6.6-4.3-6-8.2c-1.1,0.9-2.3,1.6-3.6,2c-5.8,2-12.1-1.1-14.1-6.9c-3.8,2.5-8.5,3.1-12.9,1.9c-8.5-2.4-13.4-11.2-11-19.7
	c-4.7-2.5-8.2-6.9-9.4-12.1c-2.3-9.9,0.8-16.8,10.7-19.2C762,244.3,768.3,236.4,772.9,233.1z M798.5,278.9c8-4.6,10.8-14.9,6.2-23
	s-14.9-10.8-22.9-6.2c-8.1,4.7-10.9,14.9-6.2,23c1.5,2.6,3.6,4.7,6.2,6.2c-1.3,4.6,1.5,9.4,6.1,10.6s9.4-1.5,10.6-6.1
	C798.9,281.9,798.9,280.4,798.5,278.9z M787.8,267.2c0-2.4-2-4.3-4.3-4.3c-2.4,0-4.3,1.9-4.3,4.3s1.9,4.3,4.3,4.3
	C785.9,271.5,787.8,269.6,787.8,267.2L787.8,267.2z M786.6,278.2c-0.2,0.3-0.2,0.7,0,0.9c0.4,0.4,0.6,0.6,0.8,0.6h2.7h2.7
	c0.2,0,0.4-0.1,0.6-0.3c0.5-0.5,0.5-0.9,0.2-1.2l-2.8-4.1c-0.3-0.4-0.8-0.4-1.1-0.2C789.4,274.1,786.6,278.2,786.6,278.2 M801,267.2
	c0-2.4-1.9-4.3-4.3-4.3c-2.4,0-4.3,1.9-4.3,4.3s1.9,4.3,4.3,4.3C799,271.5,801,269.6,801,267.2L801,267.2z"/>
<path d="M875.7,237.4c10.9-7.9,26-5.4,33.8,5.4c5.8-1.6,12.2,0,16.5,4.2c6.8,6.6,6.9,17.5,0.3,24.2c1.1,2.6,1.7,5.4,1.5,8.3
	c-0.3,10.9-9.4,19.5-20.2,19.2c0.1,1.4-0.1,2.8-0.5,4.1c1.5-0.9,3.1-1.2,4.8-0.9c3.9,0.6,6.6,4.3,6,8.2c-0.6,3.9-4.3,6.6-8.2,6
	s-6.6-4.3-6-8.2c-1.1,0.9-2.3,1.6-3.6,2c-5.8,2-12.1-1.1-14.1-6.9c-3.8,2.5-8.5,3.1-12.9,1.9c-8.5-2.4-13.4-11.2-11-19.7
	c-4.7-2.5-8.2-6.9-9.4-12.1c-2.3-9.9,3.8-19.8,13.7-22.2C867.8,245.5,871.1,240.7,875.7,237.4z M901.3,283.2c8-4.6,10.8-14.9,6.2-23
	s-14.9-10.8-22.9-6.2c-8.1,4.7-10.9,14.9-6.2,23c1.5,2.6,3.6,4.7,6.2,6.2c-1.3,4.6,1.5,9.4,6.1,10.6s9.4-1.5,10.6-6.1
	C901.7,286.2,901.7,284.6,901.3,283.2z M890.7,271.4c0-2.4-2-4.3-4.3-4.3c-2.4,0-4.3,1.9-4.3,4.3s1.9,4.3,4.3,4.3
	C888.7,275.7,890.7,273.8,890.7,271.4L890.7,271.4z M889.4,282.4c-0.2,0.3-0.2,0.7,0,1c0.4,0.4,0.6,0.6,0.8,0.6h2.7h2.7
	c0.2,0,0.4-0.1,0.6-0.3c0.5-0.5,0.5-0.9,0.2-1.2l-2.8-4.1c-0.3-0.4-0.8-0.4-1.1-0.2C892.2,278.3,889.4,282.4,889.4,282.4
	 M903.8,271.4c0-2.4-1.9-4.3-4.3-4.3c-2.4,0-4.3,1.9-4.3,4.3s1.9,4.3,4.3,4.3C901.9,275.7,903.8,273.8,903.8,271.4L903.8,271.4z"/>
<path d="M981.5,237.8c10.9-7.9,26-5.4,33.8,5.4c5.8-1.6,12.2,0,16.5,4.2c6.8,6.6,6.9,17.5,0.3,24.2c1.1,2.6,1.7,5.4,1.5,8.3
	c-0.3,10.9-9.4,19.5-20.2,19.2c0.1,1.4-0.1,2.8-0.5,4.1c1.5-0.9,3.1-1.2,4.8-0.9c3.9,0.6,6.6,4.3,6,8.2c-0.6,3.9-4.3,6.6-8.2,6
	s-6.6-4.3-6-8.2c-1.1,0.9-2.3,1.6-3.6,2c-5.8,2-12.1-1.1-14.1-6.9c-3.8,2.5-8.5,3.1-12.9,1.9c-8.5-2.4-13.4-11.2-11-19.7
	c-4.7-2.5-8.2-6.9-9.4-12.1c-2.3-9.9,3.8-19.8,13.7-22.2C973.6,246,976.9,241.1,981.5,237.8z M1007.1,283.6c8-4.6,10.8-14.9,6.2-23
	s-14.9-10.8-22.9-6.2c-8.1,4.7-10.9,14.9-6.2,23c1.5,2.6,3.6,4.7,6.2,6.2c-1.3,4.6,1.5,9.4,6.1,10.6s9.4-1.5,10.6-6.1
	C1007.5,286.6,1007.5,285.1,1007.1,283.6z M996.5,271.9c0-2.4-2-4.3-4.3-4.3c-2.4,0-4.3,1.9-4.3,4.3s1.9,4.3,4.3,4.3
	C994.5,276.2,996.5,274.3,996.5,271.9L996.5,271.9z M995.2,282.9c-0.2,0.3-0.2,0.7,0,1c0.4,0.4,0.6,0.6,0.8,0.6h2.7h2.7
	c0.2,0,0.4-0.1,0.6-0.3c0.5-0.5,0.5-0.9,0.2-1.2l-2.8-4.1c-0.3-0.4-0.8-0.4-1.1-0.2C998,278.8,995.2,282.9,995.2,282.9
	 M1009.6,271.9c0-2.4-1.9-4.3-4.3-4.3c-2.4,0-4.3,1.9-4.3,4.3s1.9,4.3,4.3,4.3C1007.7,276.2,1009.6,274.3,1009.6,271.9L1009.6,271.9
	z"/>
<path d="M664,340.9c10.9-7.9,26-5.4,33.8,5.4c5.8-1.6,12.2,0,16.5,4.2c6.8,6.6,6.9,17.5,0.3,24.2c1.1,2.6,1.7,5.4,1.5,8.3
	c-0.3,10.9-9.4,19.5-20.2,19.2c0.1,1.4-0.1,2.8-0.5,4.1c1.5-0.9,3.1-1.2,4.8-0.9c3.9,0.6,6.6,4.3,6,8.2c-0.6,3.9-4.3,6.6-8.2,6
	s-6.6-4.3-6-8.2c-1.1,0.9-2.3,1.6-3.6,2c-5.8,2-12.1-1.1-14.1-6.9c-3.8,2.5-8.5,3.1-12.9,1.9c-8.5-2.4-13.4-11.2-11-19.7
	c-4.7-2.5-8.2-6.9-9.4-12.1c-2.3-9.9,3.8-19.8,13.7-22.2C656.2,349,659.5,344.2,664,340.9z M689.7,386.7c8-4.6,10.8-14.9,6.2-23
	s-14.9-10.8-22.9-6.2c-8.1,4.7-10.9,14.9-6.2,23c1.5,2.6,3.6,4.7,6.2,6.2c-1.3,4.6,1.5,9.4,6.1,10.6s9.4-1.5,10.6-6.1
	C690,389.7,690,388.1,689.7,386.7z M679,374.9c0-2.4-2-4.3-4.3-4.3c-2.4,0-4.3,1.9-4.3,4.3s1.9,4.3,4.3,4.3
	C677.1,379.2,679,377.3,679,374.9L679,374.9z M677.8,385.9c-0.2,0.3-0.2,0.7,0,1c0.4,0.4,0.6,0.6,0.8,0.6h2.7h2.7
	c0.2,0,0.4-0.1,0.6-0.3c0.5-0.5,0.5-0.9,0.2-1.2l-2.8-4.1c-0.3-0.4-0.8-0.4-1.1-0.2C680.6,381.8,677.8,385.9,677.8,385.9
	 M692.2,374.9c0-2.4-1.9-4.3-4.3-4.3c-2.4,0-4.3,1.9-4.3,4.3s1.9,4.3,4.3,4.3C690.2,379.2,692.2,377.3,692.2,374.9L692.2,374.9z"/>
<path d="M769.9,340.9c10.9-7.9,26-5.4,33.8,5.4c5.8-1.6,12.2,0,16.5,4.2c6.8,6.6,6.9,17.5,0.3,24.2c1.1,2.6,1.7,5.4,1.5,8.3
	c-0.3,10.9-9.4,19.5-20.2,19.2c0.1,1.4-0.1,2.8-0.5,4.1c1.5-0.9,3.1-1.2,4.8-0.9c3.9,0.6,6.6,4.3,6,8.2c-0.6,3.9-4.3,6.6-8.2,6
	s-6.6-4.3-6-8.2c-1.1,0.9-2.3,1.6-3.6,2c-5.8,2-12.1-1.1-14.1-6.9c-3.8,2.5-8.5,3.1-12.9,1.9c-8.5-2.4-13.4-11.2-11-19.7
	c-4.7-2.5-8.2-6.9-9.4-12.1c-2.3-9.9,3.8-19.8,13.7-22.2C762,349,765.3,344.2,769.9,340.9z M795.5,386.7c8-4.6,10.8-14.9,6.2-23
	s-14.9-10.8-22.9-6.2c-8.1,4.7-10.9,14.9-6.2,23c1.5,2.6,3.6,4.7,6.2,6.2c-1.3,4.6,1.5,9.4,6.1,10.6s9.4-1.5,10.6-6.1
	C795.9,389.7,795.9,388.1,795.5,386.7z M784.8,374.9c0-2.4-2-4.3-4.3-4.3c-2.4,0-4.3,1.9-4.3,4.3s1.9,4.3,4.3,4.3
	C782.9,379.2,784.8,377.3,784.8,374.9L784.8,374.9z M783.6,385.9c-0.2,0.3-0.2,0.7,0,1c0.4,0.4,0.6,0.6,0.8,0.6h2.7h2.7
	c0.2,0,0.4-0.1,0.6-0.3c0.5-0.5,0.5-0.9,0.2-1.2l-2.8-4.1c-0.3-0.4-0.8-0.4-1.1-0.2C786.4,381.8,783.6,385.9,783.6,385.9 M798,374.9
	c0-2.4-1.9-4.3-4.3-4.3c-2.4,0-4.3,1.9-4.3,4.3s1.9,4.3,4.3,4.3C796,379.2,798,377.3,798,374.9L798,374.9z"/>
<path d="M875.7,340.8c10.9-7.9,26-5.4,33.8,5.4c5.8-1.6,12.2,0,16.5,4.2c6.8,6.6,6.9,17.5,0.3,24.2c1.1,2.6,1.7,5.4,1.5,8.3
	c-0.3,10.9-9.4,19.5-20.2,19.2c0.1,1.4-0.1,2.8-0.5,4.1c1.5-0.9,3.1-1.2,4.8-0.9c3.9,0.6,6.6,4.3,6,8.2c-0.6,3.9-4.3,6.6-8.2,6
	s-6.6-4.3-6-8.2c-1.1,0.9-2.3,1.6-3.6,2c-5.8,2-12.1-1.1-14.1-6.9c-3.8,2.5-8.5,3.1-12.9,1.9c-8.5-2.4-13.4-11.2-11-19.7
	c-4.7-2.5-8.2-6.9-9.4-12.1c-2.3-9.9,3.8-19.8,13.7-22.2C867.8,349,871.1,344.1,875.7,340.8z M901.3,386.6c8-4.6,10.8-14.9,6.2-23
	s-14.9-10.8-22.9-6.2c-8.1,4.7-10.9,14.9-6.2,23c1.5,2.6,3.6,4.7,6.2,6.2c-1.3,4.6,1.5,9.4,6.1,10.6s9.4-1.5,10.6-6.1
	C901.7,389.6,901.7,388.1,901.3,386.6z M890.7,374.8c0-2.4-2-4.3-4.3-4.3c-2.4,0-4.3,1.9-4.3,4.3s1.9,4.3,4.3,4.3
	C888.7,379.2,890.7,377.2,890.7,374.8L890.7,374.8z M889.4,385.9c-0.2,0.3-0.2,0.7,0,0.9c0.4,0.4,0.6,0.6,0.8,0.6h2.7h2.7
	c0.2,0,0.4-0.1,0.6-0.3c0.5-0.5,0.5-0.9,0.2-1.2l-2.8-4.1c-0.3-0.4-0.8-0.4-1.1-0.2C892.2,381.8,889.4,385.9,889.4,385.9
	 M903.8,374.8c0-2.4-1.9-4.3-4.3-4.3c-2.4,0-4.3,1.9-4.3,4.3s1.9,4.3,4.3,4.3C901.9,379.2,903.8,377.2,903.8,374.8L903.8,374.8z"/>
<path d="M981.5,340.8c10.9-7.9,26-5.4,33.8,5.4c5.8-1.6,12.2,0,16.5,4.2c6.8,6.6,6.9,17.5,0.3,24.2c1.1,2.6,1.7,5.4,1.5,8.3
	c-0.3,10.9-9.4,19.5-20.2,19.2c0.1,1.4-0.1,2.8-0.5,4.1c1.5-0.9,3.1-1.2,4.8-0.9c3.9,0.6,6.6,4.3,6,8.2c-0.6,3.9-4.3,6.6-8.2,6
	s-6.6-4.3-6-8.2c-1.1,0.9-2.3,1.6-3.6,2c-5.8,2-12.1-1.1-14.1-6.9c-3.8,2.5-8.5,3.1-12.9,1.9c-8.5-2.4-13.4-11.2-11-19.7
	c-4.7-2.5-8.2-6.9-9.4-12.1c-2.3-9.9,3.8-19.8,13.7-22.2C973.6,349,976.9,344.1,981.5,340.8z M1007.1,386.6c8-4.6,10.8-14.9,6.2-23
	s-14.9-10.8-22.9-6.2c-8.1,4.7-10.9,14.9-6.2,23c1.5,2.6,3.6,4.7,6.2,6.2c-1.3,4.6,1.5,9.4,6.1,10.6s9.4-1.5,10.6-6.1
	C1007.5,389.6,1007.5,388.1,1007.1,386.6z M996.5,374.8c0-2.4-2-4.3-4.3-4.3c-2.4,0-4.3,1.9-4.3,4.3s1.9,4.3,4.3,4.3
	C994.5,379.2,996.5,377.2,996.5,374.8L996.5,374.8z M995.2,385.9c-0.2,0.3-0.2,0.7,0,0.9c0.4,0.4,0.6,0.6,0.8,0.6h2.7h2.7
	c0.2,0,0.4-0.1,0.6-0.3c0.5-0.5,0.5-0.9,0.2-1.2l-2.8-4.1c-0.3-0.4-0.8-0.4-1.1-0.2C998,381.8,995.2,385.9,995.2,385.9
	 M1009.6,374.8c0-2.4-1.9-4.3-4.3-4.3c-2.4,0-4.3,1.9-4.3,4.3s1.9,4.3,4.3,4.3C1007.7,379.2,1009.6,377.2,1009.6,374.8L1009.6,374.8
	z"/>
<path class="st6" d="M665.2,437c10.9-7.9,26-5.4,33.8,5.4c5.8-1.6,12.2,0,16.5,4.2c6.8,6.6,6.9,17.5,0.3,24.2
	c1.1,2.6,1.7,5.4,1.5,8.3c-0.3,10.9-9.4,19.5-20.2,19.2c0.1,1.4-0.1,2.8-0.5,4.1c1.5-0.9,3.1-1.2,4.8-0.9c3.9,0.6,6.6,4.3,6,8.2
	c-0.6,3.9-4.3,6.6-8.2,6s-6.6-4.3-6-8.2c-1.1,0.9-2.3,1.6-3.6,2c-5.8,2-12.1-1.1-14.1-6.9c-3.8,2.5-8.5,3.1-12.9,1.9
	c-8.5-2.4-13.4-11.2-11-19.7c-4.7-2.5-8.2-6.9-9.4-12.1c-2.3-9.9,3.8-19.8,13.7-22.2C657.4,445.1,660.6,440.3,665.2,437z
	 M690.8,482.8c8-4.6,10.8-14.9,6.2-23s-14.9-10.8-22.9-6.2c-8.1,4.7-10.9,14.9-6.2,23c1.5,2.6,3.6,4.7,6.2,6.2
	c-1.3,4.6,1.5,9.4,6.1,10.6s9.4-1.5,10.6-6.1C691.2,485.8,691.2,484.3,690.8,482.8z M680.2,471c0-2.4-2-4.3-4.3-4.3
	c-2.4,0-4.3,1.9-4.3,4.3s1.9,4.3,4.3,4.3C678.2,475.4,680.2,473.4,680.2,471L680.2,471z M678.9,482c-0.2,0.3-0.2,0.7,0,0.9
	c0.4,0.4,0.6,0.6,0.8,0.6h2.7h2.7c0.2,0,0.4-0.1,0.6-0.3c0.5-0.5,0.5-0.9,0.2-1.2l-2.9-4.1c-0.3-0.4-0.8-0.4-1.1-0.2
	C681.7,477.9,678.9,482,678.9,482 M693.3,471c0-2.4-1.9-4.3-4.3-4.3c-2.4,0-4.3,1.9-4.3,4.3s1.9,4.3,4.3,4.3
	C691.4,475.4,693.3,473.4,693.3,471L693.3,471z"/>
<path class="st7" d="M671.5,471c0,1.6,0.8,2.9,2.1,3.7c0-2.5,0-4.9,0-7.4C672.4,468.1,671.5,469.5,671.5,471z"/>
<path class="st7" d="M673.6,482.9c-2.4-1.5-4.4-3.5-5.8-5.9c-4.6-7.9-1.9-18,5.8-22.7c0-6.9,0.1-13.9,0.1-20.8c-3,0.7-6,2-8.6,4
	c-4.5,3.3-7.8,8.1-9.2,13.7c-9.9,2.3-16,12.3-13.7,22.2c1.2,5.2,4.7,9.6,9.4,12.1c-2.4,8.5,2.6,17.2,11,19.7c3.7,1,7.5,0.7,10.9-0.9
	C673.6,497,673.6,489.9,673.6,482.9z"/>
<rect x="609.8" y="532.8" class="st1" width="429.2" height="88.2"/>
<text transform="matrix(1 0 0 1 642.2971 572.0476)" class="st2 st3">        </text>
<rect x="60.5" y="65" class="st1" width="449" height="60"/>
<text transform="matrix(1 0 0 1 66.1172 88.1917)" class="st4 st8">TOTAL DE CONTAMINACIÓN DE CO  EN </text>
<text transform="matrix(1 0 0 1 66.1172 114.5916)" class="st4 st8">LA REGIÓN:  13.266.405,6 [TONS]</text>
<text transform="matrix(1.0374 0 0 1 432.1953 87.708)" class="st4 st5">2</text>
<text transform="matrix(1.0645 0 0 1 548.8408 551.8218)" class="st2 st3">CADA NUBE REPRESENTA 1.000.000 [TONS] DE </text>
<text transform="matrix(1.0645 0 0 1 1009.5332 552.8218)" class="st2 st3">CO</text>
<text transform="matrix(1.0645 0 0 1 1038.7676 555.5942)" class="st2 st5">2</text>
<rect x="61" y="464.3" class="st1" width="448.1" height="51.5"/>
<text transform="matrix(1 0 0 1 60.9565 482)"><tspan x="0" y="0" class="st9 st10">La Generación de energía (Termoeléctrica) </tspan><tspan x="0" y="30" class="st9 st10">es la más contaminante, produce:</tspan></text>
</svg>
