<?xml version="1.0" encoding="utf-8"?>
<!-- Generator: Adobe Illustrator 19.2.1, SVG Export Plug-In . SVG Version: 6.00 Build 0)  -->
<svg version="1.1" id="Capa_1" xmlns="http://www.w3.org/2000/svg" xmlns:xlink="http://www.w3.org/1999/xlink" x="0px" y="0px"
	 viewBox="0 0 1067 586.7" style="enable-background:new 0 0 1067 586.7;" xml:space="preserve">
<style type="text/css">
	.st0{opacity:0.8;}
	.st1{fill:#D7E9EA;stroke:#416190;stroke-width:5;stroke-miterlimit:10;}
	.st2{fill:none;}
	.st3{font-family:'Tahoma';}
	.st4{font-size:20px;}
	.st5{font-size:11.66px;}
	.st6{fill:none;stroke:#1D1D1B;stroke-miterlimit:10;}
	.st7{font-family:'Tahoma-Bold';}
	.st8{font-size:22px;}
</style>
<g id="Capa_2" class="st0">
	<path class="st1" d="M1018.7,586.7H51.4C26.9,586.7,7,567.5,7,543.8v-494C7,26.2,26.9,7,51.4,7h967.2c24.6,0,44.4,19.2,44.4,42.8
		v494C1063.1,567.5,1043.1,586.7,1018.7,586.7z"/>
	<rect x="71.5" y="533.8" class="st2" width="445.3" height="88.2"/>
	<text transform="matrix(1.0374 0 0 1 71.439 549.0479)" class="st3 st4"> 4.494.867,116 [TONS] DE CO</text>
	<text transform="matrix(1.0374 0 0 1 350.4307 555.708)" class="st3 st5">2</text>
	<text transform="matrix(1.0374 0 0 1 357.0342 549.0479)" class="st3 st4">        </text>
</g>
<g id="Capa_1_1_">
	<path d="M634.2,198.4c10.9-7.9,26-5.4,33.8,5.4c5.8-1.6,12.2,0,16.5,4.2c6.8,6.6,6.9,17.5,0.3,24.2c1.1,2.6,1.7,5.4,1.5,8.3
		c-0.3,10.9-9.4,19.5-20.2,19.2c0.1,1.4-0.1,2.8-0.5,4.1c1.5-0.9,3.1-1.2,4.8-0.9c3.9,0.6,6.6,4.3,6,8.2c-0.6,3.9-4.3,6.6-8.2,6
		s-6.6-4.3-6-8.2c-1.1,0.9-2.3,1.6-3.6,2c-5.8,2-12.1-1.1-14.1-6.9c-3.8,2.5-8.5,3.1-12.9,1.9c-8.5-2.4-13.4-11.2-11-19.7
		c-4.7-2.5-8.2-6.9-9.4-12.1c-2.3-9.9,3.8-19.8,13.7-22.2C626.4,206.6,629.6,201.7,634.2,198.4z M659.8,244.2
		c8-4.6,10.8-14.9,6.2-23s-14.9-10.8-22.9-6.2c-8.1,4.7-10.9,14.9-6.2,23c1.5,2.6,3.6,4.7,6.2,6.2c-1.3,4.6,1.5,9.4,6.1,10.6
		c4.6,1.2,9.4-1.5,10.6-6.1C660.2,247.2,660.2,245.7,659.8,244.2z M649.2,232.5c0-2.4-2-4.3-4.3-4.3c-2.4,0-4.3,1.9-4.3,4.3
		c0,2.4,1.9,4.3,4.3,4.3C647.2,236.8,649.2,234.9,649.2,232.5L649.2,232.5z M647.9,243.5c-0.2,0.3-0.2,0.7,0,0.9
		c0.4,0.4,0.6,0.6,0.8,0.6h2.7h2.7c0.2,0,0.4-0.1,0.6-0.3c0.5-0.5,0.5-0.9,0.2-1.2l-2.9-4.1c-0.3-0.4-0.8-0.4-1.1-0.2
		C650.7,239.4,647.9,243.5,647.9,243.5 M662.3,232.5c0-2.4-1.9-4.3-4.3-4.3c-2.4,0-4.3,1.9-4.3,4.3c0,2.4,1.9,4.3,4.3,4.3
		C660.4,236.8,662.3,234.9,662.3,232.5L662.3,232.5z"/>
	<path d="M740,198.4c10.9-7.9,26-5.4,33.8,5.4c5.9-1.6,12.2,0,16.5,4.2c6.8,6.6,6.9,17.5,0.3,24.2c1.1,2.6,1.7,5.4,1.5,8.3
		c-0.3,10.9-9.4,19.5-20.2,19.2c0.1,1.4-0.1,2.8-0.5,4.1c1.5-0.9,3.1-1.2,4.8-0.9c3.9,0.6,6.6,4.3,6,8.2c-0.6,3.9-4.3,6.6-8.2,6
		s-6.6-4.3-6-8.2c-1.1,0.9-2.3,1.6-3.6,2c-5.8,2-12.1-1.1-14.1-6.9c-3.8,2.5-8.5,3.1-12.9,1.9c-8.5-2.4-13.4-11.2-11-19.7
		c-4.7-2.5-8.2-6.9-9.4-12.1c-2.3-9.9,3.8-19.8,13.7-22.2C732.2,206.6,735.5,201.7,740,198.4z M765.6,244.2c8-4.6,10.8-14.9,6.2-23
		s-14.9-10.8-22.9-6.2c-8.1,4.7-10.9,14.9-6.2,23c1.5,2.6,3.6,4.7,6.2,6.2c-1.3,4.6,1.5,9.4,6.1,10.6c4.6,1.2,9.4-1.5,10.6-6.1
		C766,247.2,766,245.7,765.6,244.2z M755,232.5c0-2.4-2-4.3-4.3-4.3c-2.4,0-4.3,1.9-4.3,4.3c0,2.4,1.9,4.3,4.3,4.3
		C753,236.8,755,234.9,755,232.5L755,232.5z M753.7,243.5c-0.2,0.3-0.2,0.7,0,0.9c0.4,0.4,0.6,0.6,0.8,0.6h2.7h2.7
		c0.2,0,0.4-0.1,0.6-0.3c0.5-0.5,0.5-0.9,0.2-1.2l-2.9-4.1c-0.3-0.4-0.8-0.4-1.1-0.2C756.5,239.4,753.7,243.5,753.7,243.5
		 M768.1,232.5c0-2.4-1.9-4.3-4.3-4.3c-2.4,0-4.3,1.9-4.3,4.3c0,2.4,1.9,4.3,4.3,4.3C766.2,236.8,768.1,234.9,768.1,232.5
		L768.1,232.5z"/>
	<path d="M845.8,198.4c10.9-7.9,26-5.4,33.8,5.4c5.9-1.6,12.2,0,16.5,4.2c6.8,6.6,6.9,17.5,0.3,24.2c1.1,2.6,1.7,5.4,1.5,8.3
		c-0.3,10.9-9.4,19.5-20.2,19.2c0.1,1.4-0.1,2.8-0.5,4.1c1.5-0.9,3.1-1.2,4.8-0.9c3.9,0.6,6.6,4.3,6,8.2c-0.6,3.9-4.3,6.6-8.2,6
		s-6.6-4.3-6-8.2c-1.1,0.9-2.3,1.6-3.6,2c-5.8,2-12.1-1.1-14.1-6.9c-3.8,2.5-8.5,3.1-12.9,1.9c-8.5-2.4-13.4-11.2-11-19.7
		c-4.7-2.5-8.2-6.9-9.4-12.1c-2.3-9.9,3.8-19.8,13.7-22.2C838,206.5,841.3,201.7,845.8,198.4z M871.4,244.2c8-4.6,10.8-14.9,6.2-23
		s-14.9-10.8-22.9-6.2c-8.1,4.7-10.9,14.9-6.2,23c1.5,2.6,3.6,4.7,6.2,6.2c-1.3,4.6,1.5,9.4,6.1,10.6c4.6,1.2,9.4-1.5,10.6-6.1
		C871.8,247.2,871.8,245.6,871.4,244.2z M860.8,232.4c0-2.4-2-4.3-4.3-4.3c-2.4,0-4.3,1.9-4.3,4.3c0,2.4,1.9,4.3,4.3,4.3
		C858.9,236.7,860.8,234.8,860.8,232.4L860.8,232.4z M859.5,243.4c-0.2,0.3-0.2,0.7,0,0.9c0.4,0.4,0.6,0.6,0.8,0.6h2.7h2.7
		c0.2,0,0.4-0.1,0.6-0.3c0.5-0.5,0.5-0.9,0.2-1.2l-2.9-4.1c-0.3-0.4-0.8-0.4-1.1-0.2C862.4,239.3,859.5,243.4,859.5,243.4
		 M873.9,232.4c0-2.4-1.9-4.3-4.3-4.3c-2.4,0-4.3,1.9-4.3,4.3c0,2.4,1.9,4.3,4.3,4.3S873.9,234.8,873.9,232.4L873.9,232.4z"/>
	<path d="M951.6,198.4c10.9-7.9,26-5.4,33.8,5.4c5.9-1.6,12.2,0,16.5,4.2c6.8,6.6,6.9,17.5,0.3,24.2c1.1,2.6,1.7,5.4,1.5,8.3
		c-0.3,10.9-9.4,19.5-20.2,19.2c0.1,1.4-0.1,2.8-0.5,4.1c1.5-0.9,3.1-1.2,4.8-0.9c3.9,0.6,6.6,4.3,6,8.2c-0.6,3.9-4.3,6.6-8.2,6
		s-6.6-4.3-6-8.2c-1.1,0.9-2.3,1.6-3.6,2c-5.8,2-12.1-1.1-14.1-6.9c-3.8,2.5-8.5,3.1-12.9,1.9c-8.5-2.4-13.4-11.2-11-19.7
		c-4.7-2.5-8.2-6.9-9.4-12.1c-2.3-9.9,3.8-19.8,13.7-22.2C943.8,206.5,947.1,201.7,951.6,198.4z M977.3,244.2
		c8-4.6,10.8-14.9,6.2-23s-14.9-10.8-22.9-6.2c-8.1,4.7-10.9,14.9-6.2,23c1.5,2.6,3.6,4.7,6.2,6.2c-1.3,4.6,1.5,9.4,6.1,10.6
		c4.6,1.2,9.4-1.5,10.6-6.1C977.6,247.2,977.6,245.6,977.3,244.2z M966.6,232.4c0-2.4-2-4.3-4.3-4.3c-2.4,0-4.3,1.9-4.3,4.3
		c0,2.4,1.9,4.3,4.3,4.3C964.7,236.7,966.6,234.8,966.6,232.4L966.6,232.4z M965.3,243.4c-0.2,0.3-0.2,0.7,0,0.9
		c0.4,0.4,0.6,0.6,0.8,0.6h2.7h2.7c0.2,0,0.4-0.1,0.6-0.3c0.5-0.5,0.5-0.9,0.2-1.2l-2.9-4.1c-0.3-0.4-0.8-0.4-1.1-0.2
		C968.2,239.3,965.3,243.4,965.3,243.4 M979.7,232.4c0-2.4-1.9-4.3-4.3-4.3c-2.4,0-4.3,1.9-4.3,4.3c0,2.4,1.9,4.3,4.3,4.3
		S979.7,234.8,979.7,232.4L979.7,232.4z"/>
	<path class="st6" d="M635.3,302.6c10.9-7.9,26-5.4,33.8,5.4c5.8-1.6,12.2,0,16.5,4.2c6.8,6.6,6.9,17.5,0.3,24.2
		c1.1,2.6,1.7,5.4,1.5,8.3c-0.3,10.9-9.4,19.5-20.2,19.2c0.1,1.4-0.1,2.8-0.5,4.1c1.5-0.9,3.1-1.2,4.8-0.9c3.9,0.6,6.6,4.3,6,8.2
		c-0.6,3.9-4.3,6.6-8.2,6s-6.6-4.3-6-8.2c-1.1,0.9-2.3,1.6-3.6,2c-5.8,2-12.1-1.1-14.1-6.9c-3.8,2.5-8.5,3.1-12.9,1.9
		c-8.5-2.4-13.4-11.2-11-19.7c-4.7-2.5-8.2-6.9-9.4-12.1c-2.3-9.9,3.8-19.8,13.7-22.2C627.5,310.7,630.8,305.9,635.3,302.6z
		 M661,348.4c8-4.6,10.8-14.9,6.2-23s-14.9-10.8-22.9-6.2c-8.1,4.7-10.9,14.9-6.2,23c1.5,2.6,3.6,4.7,6.2,6.2
		c-1.3,4.6,1.5,9.4,6.1,10.6s9.4-1.5,10.6-6.1C661.3,351.4,661.3,349.8,661,348.4z M650.3,336.6c0-2.4-2-4.3-4.3-4.3
		c-2.4,0-4.3,1.9-4.3,4.3s1.9,4.3,4.3,4.3C648.4,340.9,650.3,339,650.3,336.6L650.3,336.6z M649.1,347.6c-0.2,0.3-0.2,0.7,0,1
		c0.4,0.4,0.6,0.6,0.8,0.6h2.7h2.7c0.2,0,0.4-0.1,0.6-0.3c0.5-0.5,0.5-0.9,0.2-1.2l-2.8-4.1c-0.3-0.4-0.8-0.4-1.1-0.2
		C651.9,343.5,649.1,347.6,649.1,347.6 M663.5,336.6c0-2.4-1.9-4.3-4.3-4.3c-2.4,0-4.3,1.9-4.3,4.3s1.9,4.3,4.3,4.3
		C661.5,340.9,663.5,339,663.5,336.6L663.5,336.6z"/>
	<rect x="610.8" y="532.8" class="st2" width="429.2" height="88.2"/>
	<text transform="matrix(1 0 0 1 610.7698 548.0476)" class="st3 st4">CADA NUBE REPRESENTA 1.000.000 [TONS] DE </text>
	<text transform="matrix(1 0 0 1 610.7698 572.0476)" class="st3 st4">CO</text>
	<text transform="matrix(1 0 0 1 636.9316 578.708)" class="st3 st5">2</text>
	<text transform="matrix(1 0 0 1 643.2971 572.0476)" class="st3 st4">        </text>
	<path d="M653.4,343.8l-0.2-0.3c-0.2-0.3-0.5-0.4-0.8-0.3c0,2,0,4,0,5.9c0-2,0-4,0-5.9c-0.1,0-0.2,0.1-0.3,0.1
		c-0.2,0.2-3.1,4.3-3.1,4.3c-0.2,0.3-0.2,0.7,0,1c0.4,0.4,0.6,0.6,0.8,0.6h2.7h0.9"/>
	<path d="M653.4,298.2c-0.7-0.1-1.3-0.2-2-0.2c-5.5-0.4-11.2,1-16.1,4.5c-4.5,3.3-7.8,8.1-9.2,13.7c-9.9,2.3-16,12.3-13.7,22.2
		c1.2,5.2,4.7,9.6,9.4,12.1c-2.4,8.5,2.6,17.2,11,19.7c4.4,1.2,9.1,0.5,12.9-1.9c1.2,3.6,4.2,6.2,7.7,7.1c0-5.4,0-10.8,0-16.1
		c-1,0.1-2,0-3.1-0.2c-4.6-1.2-7.4-6-6.1-10.6c-2.6-1.5-4.8-3.6-6.2-6.2c-4.6-8.1-1.8-18.3,6.2-23c2.9-1.7,6.1-2.3,9.2-2.2
		C653.4,310.7,653.4,304.5,653.4,298.2z"/>
	<path d="M646,332.3c-2.4,0-4.3,1.9-4.3,4.3s1.9,4.3,4.3,4.3c2.4,0,4.3-1.9,4.3-4.3C650.3,334.2,648.4,332.3,646,332.3z"/>
</g>
<text transform="matrix(1 0 0 1 66.1172 88.1917)" class="st7 st8">TOTAL DE CONTAMINACIÓN DE CO  EN </text>
<text transform="matrix(1 0 0 1 66.1172 114.5916)" class="st7 st8">LA REGIÓN:  5.038.306,44 [TONTS]</text>
<text transform="matrix(1.0374 0 0 1 432.1953 88.708)" class="st7 st5">2</text>
</svg>
