<?xml version="1.0" encoding="utf-8"?>
<!-- Generator: Adobe Illustrator 19.2.1, SVG Export Plug-In . SVG Version: 6.00 Build 0)  -->
<svg version="1.1" xmlns="http://www.w3.org/2000/svg" xmlns:xlink="http://www.w3.org/1999/xlink" x="0px" y="0px"
	 viewBox="0 0 1066 579.7" style="enable-background:new 0 0 1066 579.7;" xml:space="preserve">
<style type="text/css">
	.st0{fill:#D7E9EA;stroke:#416190;stroke-width:5;stroke-miterlimit:10;}
	.st1{fill:none;}
	.st2{font-family:'Tahoma';}
	.st3{font-size:20px;}
	.st4{fill:none;stroke:#000000;stroke-miterlimit:10;}
</style>
<g id="Capa_2">
	<path class="st0" d="M1018.2,579.7H47.8C24.2,579.7,5,560.5,5,536.8v-494C5,19.2,24.2,0,47.8,0h970.3c23.7,0,42.8,19.2,42.8,42.8
		v494C1061,560.5,1041.8,579.7,1018.2,579.7z"/>
	<rect x="74.2" y="526.8" class="st1" width="429.2" height="88.2"/>
	<text transform="matrix(1 0 0 1 74.1614 542.0477)" class="st2 st3">1.257.511,836 [TONS] DE CO</text>
	<text transform="matrix(0.583 0 0 0.583 336.8372 548.7078)" class="st2 st3">2</text>
	<text transform="matrix(1 0 0 1 343.2025 542.0477)" class="st2 st3">        </text>
</g>
<g id="Capa_1">
	<rect x="588.8" y="525.8" class="st1" width="429.2" height="88.2"/>
	<text transform="matrix(1 0 0 1 588.7698 541.0476)" class="st2 st3">CADA NUBE REPRESENTA 1.000.000 [TONS] DE </text>
	<text transform="matrix(1 0 0 1 588.7698 565.0476)" class="st2 st3">CO</text>
	<text transform="matrix(0.583 0 0 0.583 614.9319 571.7078)" class="st2 st3">2</text>
	<text transform="matrix(1 0 0 1 621.2971 565.0476)" class="st2 st3">        </text>
	<path class="st4" d="M723.6,255.6c10.9-7.9,26-5.4,33.8,5.4c5.8-1.6,12.2,0,16.5,4.2c6.8,6.6,6.9,17.5,0.3,24.2
		c1.1,2.6,1.7,5.4,1.5,8.3c-0.3,10.9-9.4,19.5-20.2,19.2c0.1,1.4-0.1,2.8-0.5,4.1c1.5-0.9,3.1-1.2,4.8-0.9c3.9,0.6,6.6,4.3,6,8.2
		c-0.6,3.9-4.3,6.6-8.2,6c-3.9-0.6-6.6-4.3-6-8.2c-1.1,0.9-2.3,1.6-3.6,2c-5.8,2-12.1-1.1-14.1-6.9c-3.8,2.5-8.5,3.1-12.9,1.9
		c-8.5-2.4-13.4-11.2-11-19.7c-4.7-2.5-8.2-6.9-9.4-12.1c-2.3-9.9,3.8-19.8,13.7-22.2C715.8,263.7,719.1,258.9,723.6,255.6z
		 M749.2,301.4c8-4.6,10.8-14.9,6.2-23c-4.6-8.1-14.9-10.8-22.9-6.2c-8.1,4.7-10.9,14.9-6.2,23c1.5,2.6,3.6,4.7,6.2,6.2
		c-1.3,4.6,1.5,9.4,6.1,10.6c4.6,1.2,9.4-1.5,10.6-6.1C749.6,304.4,749.6,302.9,749.2,301.4z M738.6,289.6c0-2.4-2-4.3-4.3-4.3
		c-2.4,0-4.3,1.9-4.3,4.3c0,2.4,1.9,4.3,4.3,4.3C736.7,294,738.6,292,738.6,289.6L738.6,289.6z M737.3,300.6c-0.2,0.3-0.2,0.7,0,0.9
		c0.4,0.4,0.6,0.6,0.8,0.6h2.7h2.7c0.2,0,0.4-0.1,0.6-0.3c0.5-0.5,0.5-0.9,0.2-1.2l-2.8-4.1c-0.3-0.4-0.8-0.4-1.1-0.2
		C740.2,296.5,737.3,300.6,737.3,300.6 M751.7,289.6c0-2.4-1.9-4.3-4.3-4.3c-2.4,0-4.3,1.9-4.3,4.3c0,2.4,1.9,4.3,4.3,4.3
		C749.8,293.9,751.7,292,751.7,289.6L751.7,289.6z"/>
	<path d="M613.4,251.3c10.9-7.9,26-5.4,33.8,5.4c5.8-1.6,12.2,0,16.5,4.2c6.8,6.6,6.9,17.5,0.3,24.2c1.1,2.6,1.7,5.4,1.5,8.3
		c-0.3,10.9-9.4,19.5-20.2,19.2c0.1,1.4-0.1,2.8-0.5,4.1c1.5-0.9,3.1-1.2,4.8-0.9c3.9,0.6,6.6,4.3,6,8.2c-0.6,3.9-4.3,6.6-8.2,6
		c-3.9-0.6-6.6-4.3-6-8.2c-1.1,0.9-2.3,1.6-3.6,2c-5.8,2-12.1-1.1-14.1-6.9c-3.8,2.5-8.5,3.1-12.9,1.9c-8.5-2.4-13.4-11.2-11-19.7
		c-4.7-2.5-8.2-6.9-9.4-12.1c-2.3-9.9,3.8-19.8,13.7-22.2C605.5,259.4,608.8,254.6,613.4,251.3z M639,297.1c8-4.6,10.8-14.9,6.2-23
		c-4.6-8.1-14.9-10.8-22.9-6.2c-8.1,4.7-10.9,14.9-6.2,23c1.5,2.6,3.6,4.7,6.2,6.2c-1.3,4.6,1.5,9.4,6.1,10.6
		c4.6,1.2,9.4-1.5,10.6-6.1C639.4,300.1,639.4,298.5,639,297.1z M628.3,285.3c0-2.4-2-4.3-4.3-4.3c-2.4,0-4.3,1.9-4.3,4.3
		c0,2.4,1.9,4.3,4.3,4.3C626.4,289.6,628.3,287.7,628.3,285.3L628.3,285.3z M627.1,296.3c-0.2,0.3-0.2,0.7,0,1
		c0.4,0.4,0.6,0.6,0.8,0.6h2.7h2.7c0.2,0,0.4-0.1,0.6-0.3c0.5-0.5,0.5-0.9,0.2-1.2l-2.8-4.1c-0.3-0.4-0.8-0.4-1.1-0.2
		C629.9,292.2,627.1,296.3,627.1,296.3 M641.5,285.3c0-2.4-1.9-4.3-4.3-4.3c-2.4,0-4.3,1.9-4.3,4.3c0,2.4,1.9,4.3,4.3,4.3
		C639.5,289.6,641.5,287.7,641.5,285.3L641.5,285.3z"/>
	<path d="M728.2,297.6c-0.7-0.8-1.3-1.7-1.9-2.7c-3.6-6.2-2.7-13.8,1.6-19c-0.1-7.6-0.2-15.3-0.2-22.9c-1.4,0.6-2.7,1.4-4,2.3
		c-4.5,3.3-7.8,8.1-9.2,13.7c-9.9,2.3-16,12.3-13.7,22.2c1.2,5.2,4.7,9.6,9.4,12.1c-2.4,8.5,2.6,17.2,11,19.7
		c2.3,0.6,4.7,0.7,6.9,0.4C728.2,314.8,728.2,306.2,728.2,297.6z"/>
</g>
</svg>
