<?xml version="1.0" encoding="utf-8"?>
<!-- Generator: Adobe Illustrator 19.2.1, SVG Export Plug-In . SVG Version: 6.00 Build 0)  -->
<svg version="1.1" id="Capa_1" xmlns="http://www.w3.org/2000/svg" xmlns:xlink="http://www.w3.org/1999/xlink" x="0px" y="0px"
	 viewBox="0 0 1067 579.7" style="enable-background:new 0 0 1067 579.7;" xml:space="preserve">
<style type="text/css">
	.st0{fill:#D7E9EA;stroke:#416190;stroke-width:5;stroke-miterlimit:10;}
	.st1{fill:none;}
	.st2{font-family:'Tahoma';}
	.st3{font-size:20px;}
	.st4{font-size:11.66px;}
	.st5{fill:none;stroke:#1D1D1B;stroke-miterlimit:10;}
</style>
<g id="Capa_2">
	<path class="st0" d="M1018.7,579.7H51.4C26.9,579.7,7,560.5,7,536.8v-494C7,19.2,26.9,0,51.4,0h967.2c24.6,0,44.4,19.2,44.4,42.8
		v494C1063.1,560.5,1043.1,579.7,1018.7,579.7z"/>
	<rect x="71.5" y="526.8" class="st1" width="445.3" height="88.2"/>
	<text transform="matrix(1.0374 0 0 1 71.439 542.0479)" class="st2 st3"> 4.494.867,116 [TONS] DE CO</text>
	<text transform="matrix(1.0374 0 0 1 350.4302 548.708)" class="st2 st4">2</text>
	<text transform="matrix(1.0374 0 0 1 357.0337 542.0479)" class="st2 st3">        </text>
</g>
<g id="Capa_1_1_">
	<path d="M634.2,191.4c10.9-7.9,26-5.4,33.8,5.4c5.8-1.6,12.2,0,16.5,4.2c6.8,6.6,6.9,17.5,0.3,24.2c1.1,2.6,1.7,5.4,1.5,8.3
		c-0.3,10.9-9.4,19.5-20.2,19.2c0.1,1.4-0.1,2.8-0.5,4.1c1.5-0.9,3.1-1.2,4.8-0.9c3.9,0.6,6.6,4.3,6,8.2c-0.6,3.9-4.3,6.6-8.2,6
		s-6.6-4.3-6-8.2c-1.1,0.9-2.3,1.6-3.6,2c-5.8,2-12.1-1.1-14.1-6.9c-3.8,2.5-8.5,3.1-12.9,1.9c-8.5-2.4-13.4-11.2-11-19.7
		c-4.7-2.5-8.2-6.9-9.4-12.1c-2.3-9.9,3.8-19.8,13.7-22.2C626.4,199.6,629.6,194.7,634.2,191.4z M659.8,237.2
		c8-4.6,10.8-14.9,6.2-23s-14.9-10.8-22.9-6.2c-8.1,4.7-10.9,14.9-6.2,23c1.5,2.6,3.6,4.7,6.2,6.2c-1.3,4.6,1.5,9.4,6.1,10.6
		c4.6,1.2,9.4-1.5,10.6-6.1C660.2,240.2,660.2,238.7,659.8,237.2z M649.2,225.5c0-2.4-2-4.3-4.3-4.3c-2.4,0-4.3,1.9-4.3,4.3
		c0,2.4,1.9,4.3,4.3,4.3C647.2,229.8,649.2,227.9,649.2,225.5L649.2,225.5z M647.9,236.5c-0.2,0.3-0.2,0.7,0,0.9
		c0.4,0.4,0.6,0.6,0.8,0.6h2.7h2.7c0.2,0,0.4-0.1,0.6-0.3c0.5-0.5,0.5-0.9,0.2-1.2l-2.9-4.1c-0.3-0.4-0.8-0.4-1.1-0.2
		C650.7,232.4,647.9,236.5,647.9,236.5 M662.3,225.5c0-2.4-1.9-4.3-4.3-4.3c-2.4,0-4.3,1.9-4.3,4.3c0,2.4,1.9,4.3,4.3,4.3
		C660.4,229.8,662.3,227.9,662.3,225.5L662.3,225.5z"/>
	<path d="M740,191.4c10.9-7.9,26-5.4,33.8,5.4c5.9-1.6,12.2,0,16.5,4.2c6.8,6.6,6.9,17.5,0.3,24.2c1.1,2.6,1.7,5.4,1.5,8.3
		c-0.3,10.9-9.4,19.5-20.2,19.2c0.1,1.4-0.1,2.8-0.5,4.1c1.5-0.9,3.1-1.2,4.8-0.9c3.9,0.6,6.6,4.3,6,8.2c-0.6,3.9-4.3,6.6-8.2,6
		s-6.6-4.3-6-8.2c-1.1,0.9-2.3,1.6-3.6,2c-5.8,2-12.1-1.1-14.1-6.9c-3.8,2.5-8.5,3.1-12.9,1.9c-8.5-2.4-13.4-11.2-11-19.7
		c-4.7-2.5-8.2-6.9-9.4-12.1c-2.3-9.9,3.8-19.8,13.7-22.2C732.2,199.6,735.5,194.7,740,191.4z M765.6,237.2c8-4.6,10.8-14.9,6.2-23
		s-14.9-10.8-22.9-6.2c-8.1,4.7-10.9,14.9-6.2,23c1.5,2.6,3.6,4.7,6.2,6.2c-1.3,4.6,1.5,9.4,6.1,10.6c4.6,1.2,9.4-1.5,10.6-6.1
		C766,240.2,766,238.7,765.6,237.2z M755,225.5c0-2.4-2-4.3-4.3-4.3c-2.4,0-4.3,1.9-4.3,4.3c0,2.4,1.9,4.3,4.3,4.3
		C753,229.8,755,227.9,755,225.5L755,225.5z M753.7,236.5c-0.2,0.3-0.2,0.7,0,0.9c0.4,0.4,0.6,0.6,0.8,0.6h2.7h2.7
		c0.2,0,0.4-0.1,0.6-0.3c0.5-0.5,0.5-0.9,0.2-1.2l-2.9-4.1c-0.3-0.4-0.8-0.4-1.1-0.2C756.5,232.4,753.7,236.5,753.7,236.5
		 M768.1,225.5c0-2.4-1.9-4.3-4.3-4.3c-2.4,0-4.3,1.9-4.3,4.3c0,2.4,1.9,4.3,4.3,4.3C766.2,229.8,768.1,227.9,768.1,225.5
		L768.1,225.5z"/>
	<path d="M845.8,191.4c10.9-7.9,26-5.4,33.8,5.4c5.9-1.6,12.2,0,16.5,4.2c6.8,6.6,6.9,17.5,0.3,24.2c1.1,2.6,1.7,5.4,1.5,8.3
		c-0.3,10.9-9.4,19.5-20.2,19.2c0.1,1.4-0.1,2.8-0.5,4.1c1.5-0.9,3.1-1.2,4.8-0.9c3.9,0.6,6.6,4.3,6,8.2c-0.6,3.9-4.3,6.6-8.2,6
		s-6.6-4.3-6-8.2c-1.1,0.9-2.3,1.6-3.6,2c-5.8,2-12.1-1.1-14.1-6.9c-3.8,2.5-8.5,3.1-12.9,1.9c-8.5-2.4-13.4-11.2-11-19.7
		c-4.7-2.5-8.2-6.9-9.4-12.1c-2.3-9.9,3.8-19.8,13.7-22.2C838,199.5,841.3,194.7,845.8,191.4z M871.4,237.2c8-4.6,10.8-14.9,6.2-23
		s-14.9-10.8-22.9-6.2c-8.1,4.7-10.9,14.9-6.2,23c1.5,2.6,3.6,4.7,6.2,6.2c-1.3,4.6,1.5,9.4,6.1,10.6c4.6,1.2,9.4-1.5,10.6-6.1
		C871.8,240.2,871.8,238.6,871.4,237.2z M860.8,225.4c0-2.4-2-4.3-4.3-4.3c-2.4,0-4.3,1.9-4.3,4.3c0,2.4,1.9,4.3,4.3,4.3
		C858.9,229.7,860.8,227.8,860.8,225.4L860.8,225.4z M859.5,236.4c-0.2,0.3-0.2,0.7,0,0.9c0.4,0.4,0.6,0.6,0.8,0.6h2.7h2.7
		c0.2,0,0.4-0.1,0.6-0.3c0.5-0.5,0.5-0.9,0.2-1.2l-2.9-4.1c-0.3-0.4-0.8-0.4-1.1-0.2C862.4,232.3,859.5,236.4,859.5,236.4
		 M873.9,225.4c0-2.4-1.9-4.3-4.3-4.3c-2.4,0-4.3,1.9-4.3,4.3c0,2.4,1.9,4.3,4.3,4.3S873.9,227.8,873.9,225.4L873.9,225.4z"/>
	<path d="M951.6,191.4c10.9-7.9,26-5.4,33.8,5.4c5.9-1.6,12.2,0,16.5,4.2c6.8,6.6,6.9,17.5,0.3,24.2c1.1,2.6,1.7,5.4,1.5,8.3
		c-0.3,10.9-9.4,19.5-20.2,19.2c0.1,1.4-0.1,2.8-0.5,4.1c1.5-0.9,3.1-1.2,4.8-0.9c3.9,0.6,6.6,4.3,6,8.2c-0.6,3.9-4.3,6.6-8.2,6
		s-6.6-4.3-6-8.2c-1.1,0.9-2.3,1.6-3.6,2c-5.8,2-12.1-1.1-14.1-6.9c-3.8,2.5-8.5,3.1-12.9,1.9c-8.5-2.4-13.4-11.2-11-19.7
		c-4.7-2.5-8.2-6.9-9.4-12.1c-2.3-9.9,3.8-19.8,13.7-22.2C943.8,199.5,947.1,194.7,951.6,191.4z M977.3,237.2
		c8-4.6,10.8-14.9,6.2-23s-14.9-10.8-22.9-6.2c-8.1,4.7-10.9,14.9-6.2,23c1.5,2.6,3.6,4.7,6.2,6.2c-1.3,4.6,1.5,9.4,6.1,10.6
		c4.6,1.2,9.4-1.5,10.6-6.1C977.6,240.2,977.6,238.6,977.3,237.2z M966.6,225.4c0-2.4-2-4.3-4.3-4.3c-2.4,0-4.3,1.9-4.3,4.3
		c0,2.4,1.9,4.3,4.3,4.3C964.7,229.7,966.6,227.8,966.6,225.4L966.6,225.4z M965.3,236.4c-0.2,0.3-0.2,0.7,0,0.9
		c0.4,0.4,0.6,0.6,0.8,0.6h2.7h2.7c0.2,0,0.4-0.1,0.6-0.3c0.5-0.5,0.5-0.9,0.2-1.2l-2.9-4.1c-0.3-0.4-0.8-0.4-1.1-0.2
		C968.2,232.3,965.3,236.4,965.3,236.4 M979.7,225.4c0-2.4-1.9-4.3-4.3-4.3c-2.4,0-4.3,1.9-4.3,4.3c0,2.4,1.9,4.3,4.3,4.3
		S979.7,227.8,979.7,225.4L979.7,225.4z"/>
	<path class="st5" d="M635.3,295.6c10.9-7.9,26-5.4,33.8,5.4c5.8-1.6,12.2,0,16.5,4.2c6.8,6.6,6.9,17.5,0.3,24.2
		c1.1,2.6,1.7,5.4,1.5,8.3c-0.3,10.9-9.4,19.5-20.2,19.2c0.1,1.4-0.1,2.8-0.5,4.1c1.5-0.9,3.1-1.2,4.8-0.9c3.9,0.6,6.6,4.3,6,8.2
		c-0.6,3.9-4.3,6.6-8.2,6s-6.6-4.3-6-8.2c-1.1,0.9-2.3,1.6-3.6,2c-5.8,2-12.1-1.1-14.1-6.9c-3.8,2.5-8.5,3.1-12.9,1.9
		c-8.5-2.4-13.4-11.2-11-19.7c-4.7-2.5-8.2-6.9-9.4-12.1c-2.3-9.9,3.8-19.8,13.7-22.2C627.5,303.7,630.8,298.9,635.3,295.6z
		 M661,341.4c8-4.6,10.8-14.9,6.2-23s-14.9-10.8-22.9-6.2c-8.1,4.7-10.9,14.9-6.2,23c1.5,2.6,3.6,4.7,6.2,6.2
		c-1.3,4.6,1.5,9.4,6.1,10.6s9.4-1.5,10.6-6.1C661.3,344.4,661.3,342.8,661,341.4z M650.3,329.6c0-2.4-2-4.3-4.3-4.3
		c-2.4,0-4.3,1.9-4.3,4.3s1.9,4.3,4.3,4.3C648.4,333.9,650.3,332,650.3,329.6L650.3,329.6z M649.1,340.6c-0.2,0.3-0.2,0.7,0,1
		c0.4,0.4,0.6,0.6,0.8,0.6h2.7h2.7c0.2,0,0.4-0.1,0.6-0.3c0.5-0.5,0.5-0.9,0.2-1.2l-2.8-4.1c-0.3-0.4-0.8-0.4-1.1-0.2
		C651.9,336.5,649.1,340.6,649.1,340.6 M663.5,329.6c0-2.4-1.9-4.3-4.3-4.3c-2.4,0-4.3,1.9-4.3,4.3s1.9,4.3,4.3,4.3
		C661.5,333.9,663.5,332,663.5,329.6L663.5,329.6z"/>
	<rect x="610.8" y="525.8" class="st1" width="429.2" height="88.2"/>
	<text transform="matrix(1 0 0 1 610.7698 541.0476)" class="st2 st3">CADA NUBE REPRESENTA 1.000.000 [TONS] DE </text>
	<text transform="matrix(1 0 0 1 610.7698 565.0476)" class="st2 st3">CO</text>
	<text transform="matrix(1 0 0 1 636.9316 571.708)" class="st2 st4">2</text>
	<text transform="matrix(1 0 0 1 643.2971 565.0476)" class="st2 st3">        </text>
	<path d="M653.4,336.8l-0.2-0.3c-0.2-0.3-0.5-0.4-0.8-0.3c0,2,0,4,0,5.9c0-2,0-4,0-5.9c-0.1,0-0.2,0.1-0.3,0.1
		c-0.2,0.2-3.1,4.3-3.1,4.3c-0.2,0.3-0.2,0.7,0,1c0.4,0.4,0.6,0.6,0.8,0.6h2.7h0.9"/>
	<path d="M653.4,291.2c-0.7-0.1-1.3-0.2-2-0.2c-5.5-0.4-11.2,1-16.1,4.5c-4.5,3.3-7.8,8.1-9.2,13.7c-9.9,2.3-16,12.3-13.7,22.2
		c1.2,5.2,4.7,9.6,9.4,12.1c-2.4,8.5,2.6,17.2,11,19.7c4.4,1.2,9.1,0.5,12.9-1.9c1.2,3.6,4.2,6.2,7.7,7.1c0-5.4,0-10.8,0-16.1
		c-1,0.1-2,0-3.1-0.2c-4.6-1.2-7.4-6-6.1-10.6c-2.6-1.5-4.8-3.6-6.2-6.2c-4.6-8.1-1.8-18.3,6.2-23c2.9-1.7,6.1-2.3,9.2-2.2
		C653.4,303.7,653.4,297.5,653.4,291.2z"/>
	<path d="M646,325.3c-2.4,0-4.3,1.9-4.3,4.3s1.9,4.3,4.3,4.3c2.4,0,4.3-1.9,4.3-4.3C650.3,327.2,648.4,325.3,646,325.3z"/>
</g>
</svg>
