<?xml version="1.0" encoding="utf-8"?>
<!-- Generator: Adobe Illustrator 19.2.1, SVG Export Plug-In . SVG Version: 6.00 Build 0)  -->
<svg version="1.1" xmlns="http://www.w3.org/2000/svg" xmlns:xlink="http://www.w3.org/1999/xlink" x="0px" y="0px"
	 viewBox="0 0 1066 588.7" style="enable-background:new 0 0 1066 588.7;" xml:space="preserve">
<style type="text/css">
	.st0{fill:#D7E9EA;stroke:#416190;stroke-width:5;stroke-miterlimit:10;}
	.st1{fill:none;}
	.st2{font-family:'Tahoma';}
	.st3{font-size:20px;}
	.st4{font-size:11.66px;}
	.st5{fill:none;stroke:#000000;stroke-miterlimit:10;}
</style>
<g id="Capa_2_1_">
	<path class="st0" d="M1018.2,584.7H50.9c-24.5,0-44.4-19.2-44.4-42.9v-494C6.5,24.2,26.4,5,50.9,5h967.2
		c24.6,0,44.4,19.2,44.4,42.8v494C1062.6,565.5,1042.6,584.7,1018.2,584.7z"/>
	<rect x="71" y="531.9" class="st1" width="445.3" height="88.2"/>
	<text transform="matrix(1.0374 0 0 1 74.939 547.1605)" class="st2 st3"> 211.511,814 [TONS] DE CO</text>
	<text transform="matrix(1.0374 0 0 1 333.9307 549.8206)" class="st2 st4">2</text>
	<text transform="matrix(1.0374 0 0 1 356.5342 547.1605)" class="st2 st3">        </text>
</g>
<g id="Capa_1">
	<rect x="609.8" y="534.8" class="st1" width="429.2" height="88.2"/>
	<text transform="matrix(1 0 0 1 609.7698 550.0476)" class="st2 st3">CADA NUBE REPRESENTA 10.000 [TONS] DE </text>
	<text transform="matrix(1 0 0 1 609.7698 574.0476)" class="st2 st3">CO</text>
	<text transform="matrix(1 0 0 1 635.9316 580.708)" class="st2 st4">2</text>
	<text transform="matrix(1 0 0 1 642.2971 574.0476)" class="st2 st3">        </text>
	<path class="st1" d="M689.4,442.1c4-6.1,3.6-14.2-1-20"/>
	<g>
		<path d="M688.8,260.6c0-1.9-0.9-3.5-2.3-4.7c0-0.1,0-0.2,0-0.3c0-4.5-4.4-8.2-9.9-8.4c-1.7-2-4.3-3.4-7.2-3.4
			c-3.5,0-6.5,1.8-8,4.5c-1.2-4.1-5.8-7.1-11.3-7.1c-4.8,0-8.9,2.2-10.7,5.4c-1.7-1.8-4.1-2.9-6.7-2.9c-3.5,0-6.6,1.9-8.1,4.7
			c-4.7,0.8-8.1,4.2-8.1,8.2c0,0.3,0,0.7,0.1,1c-0.4,0.8-0.7,1.8-0.7,2.8c0,3.3,2.7,6,6.1,6.3c0.7,4.1,5.1,7.2,10.3,7.2
			c2,0,4-0.5,5.6-1.3c1.8,1.2,4.1,2,6.7,2c1.1,0,2.1-0.1,3.1-0.4c1.9,2.2,5,3.7,8.6,3.7c4.7,0,8.7-2.5,10-6c1.8,1.3,4.2,2.1,6.8,2.1
			c5.3,0,9.7-3.2,10.3-7.4C686.5,266.1,688.8,263.6,688.8,260.6z"/>
	</g>
	<g>
		<path d="M786.4,260.6c0-1.9-0.9-3.5-2.3-4.7c0-0.1,0-0.2,0-0.3c0-4.5-4.4-8.2-9.9-8.4c-1.7-2-4.3-3.4-7.2-3.4
			c-3.5,0-6.5,1.8-8,4.5c-1.2-4.1-5.8-7.1-11.3-7.1c-4.8,0-8.9,2.2-10.7,5.4c-1.7-1.8-4.1-2.9-6.7-2.9c-3.5,0-6.6,1.9-8.1,4.7
			c-4.7,0.8-8.1,4.2-8.1,8.2c0,0.3,0,0.7,0.1,1c-0.4,0.8-0.7,1.8-0.7,2.8c0,3.3,2.7,6,6.1,6.3c0.7,4.1,5.1,7.2,10.3,7.2
			c2,0,4-0.5,5.6-1.3c1.8,1.2,4.1,2,6.7,2c1.1,0,2.1-0.1,3.1-0.4c1.9,2.2,5,3.7,8.6,3.7c4.7,0,8.7-2.5,10-6c1.8,1.3,4.2,2.1,6.8,2.1
			c5.3,0,9.7-3.2,10.3-7.4C784.1,266.1,786.4,263.6,786.4,260.6z"/>
	</g>
	<g>
		<path class="st5" d="M786.4,426.9c0-1.9-0.9-3.5-2.3-4.7c0-0.1,0-0.2,0-0.3c0-4.5-4.4-8.2-9.9-8.4c-1.7-2-4.3-3.4-7.2-3.4
			c-3.5,0-6.5,1.8-8,4.5c-1.2-4.1-5.8-7.1-11.3-7.1c-4.8,0-8.9,2.2-10.7,5.4c-1.7-1.8-4.1-2.9-6.7-2.9c-3.5,0-6.6,1.9-8.1,4.7
			c-4.7,0.8-8.1,4.2-8.1,8.2c0,0.3,0,0.7,0.1,1c-0.4,0.8-0.7,1.8-0.7,2.8c0,3.3,2.7,6,6.1,6.3c0.7,4.1,5.1,7.2,10.3,7.2
			c2,0,4-0.5,5.6-1.3c1.8,1.2,4.1,2,6.7,2c1.1,0,2.1-0.1,3.1-0.4c1.9,2.2,5,3.7,8.6,3.7c4.7,0,8.7-2.5,10-6c1.8,1.3,4.2,2.1,6.8,2.1
			c5.3,0,9.7-3.2,10.3-7.4C784.1,432.4,786.4,429.9,786.4,426.9z"/>
	</g>
	<g>
		<path d="M880.8,260.6c0-1.9-0.9-3.5-2.3-4.7c0-0.1,0-0.2,0-0.3c0-4.5-4.4-8.2-9.9-8.4c-1.7-2-4.3-3.4-7.2-3.4
			c-3.5,0-6.5,1.8-8,4.5c-1.2-4.1-5.8-7.1-11.3-7.1c-4.8,0-8.9,2.2-10.7,5.4c-1.7-1.8-4.1-2.9-6.7-2.9c-3.5,0-6.6,1.9-8.1,4.7
			c-4.7,0.8-8.1,4.2-8.1,8.2c0,0.3,0,0.7,0.1,1c-0.4,0.8-0.7,1.8-0.7,2.8c0,3.3,2.7,6,6.1,6.3c0.7,4.1,5.1,7.2,10.3,7.2
			c2,0,4-0.5,5.6-1.3c1.8,1.2,4.1,2,6.7,2c1.1,0,2.1-0.1,3.1-0.4c1.9,2.2,5,3.7,8.6,3.7c4.7,0,8.7-2.5,10-6c1.8,1.3,4.2,2.1,6.8,2.1
			c5.3,0,9.7-3.2,10.3-7.4C878.4,266.1,880.8,263.6,880.8,260.6z"/>
	</g>
	<g>
		<path d="M722.3,414.5c-4.7,0.8-8.1,4.2-8.1,8.2c0,0.3,0,0.7,0.1,1c-0.4,0.8-0.7,1.8-0.7,2.8c0,3.3,2.7,6,6.1,6.3
			c0.7,3.8,4.5,6.9,9.4,7.2c0-9.9,0-20.4,0-30.2C726.1,410.3,723.6,412.1,722.3,414.5z"/>
	</g>
	<g>
		<path d="M688.8,205.1c0-1.9-0.9-3.5-2.3-4.7c0-0.1,0-0.2,0-0.3c0-4.5-4.4-8.2-9.9-8.4c-1.7-2-4.3-3.4-7.2-3.4
			c-3.5,0-6.5,1.8-8,4.5c-1.2-4.1-5.8-7.1-11.3-7.1c-4.8,0-8.9,2.2-10.7,5.4c-1.7-1.8-4.1-2.9-6.7-2.9c-3.5,0-6.6,1.9-8.1,4.7
			c-4.7,0.8-8.1,4.2-8.1,8.2c0,0.3,0,0.7,0.1,1c-0.4,0.8-0.7,1.8-0.7,2.8c0,3.3,2.7,6,6.1,6.3c0.7,4.1,5.1,7.2,10.3,7.2
			c2,0,4-0.5,5.6-1.3c1.8,1.2,4.1,2,6.7,2c1.1,0,2.1-0.1,3.1-0.4c1.9,2.2,5,3.7,8.6,3.7c4.7,0,8.7-2.5,10-6c1.8,1.3,4.2,2.1,6.8,2.1
			c5.3,0,9.7-3.2,10.3-7.4C686.5,210.7,688.8,208.2,688.8,205.1z"/>
	</g>
	<g>
		<path d="M786.4,205.1c0-1.9-0.9-3.5-2.3-4.7c0-0.1,0-0.2,0-0.3c0-4.5-4.4-8.2-9.9-8.4c-1.7-2-4.3-3.4-7.2-3.4
			c-3.5,0-6.5,1.8-8,4.5c-1.2-4.1-5.8-7.1-11.3-7.1c-4.8,0-8.9,2.2-10.7,5.4c-1.7-1.8-4.1-2.9-6.7-2.9c-3.5,0-6.6,1.9-8.1,4.7
			c-4.7,0.8-8.1,4.2-8.1,8.2c0,0.3,0,0.7,0.1,1c-0.4,0.8-0.7,1.8-0.7,2.8c0,3.3,2.7,6,6.1,6.3c0.7,4.1,5.1,7.2,10.3,7.2
			c2,0,4-0.5,5.6-1.3c1.8,1.2,4.1,2,6.7,2c1.1,0,2.1-0.1,3.1-0.4c1.9,2.2,5,3.7,8.6,3.7c4.7,0,8.7-2.5,10-6c1.8,1.3,4.2,2.1,6.8,2.1
			c5.3,0,9.7-3.2,10.3-7.4C784.1,210.7,786.4,208.2,786.4,205.1z"/>
	</g>
	<g>
		<path d="M880.8,205.1c0-1.9-0.9-3.5-2.3-4.7c0-0.1,0-0.2,0-0.3c0-4.5-4.4-8.2-9.9-8.4c-1.7-2-4.3-3.4-7.2-3.4
			c-3.5,0-6.5,1.8-8,4.5c-1.2-4.1-5.8-7.1-11.3-7.1c-4.8,0-8.9,2.2-10.7,5.4c-1.7-1.8-4.1-2.9-6.7-2.9c-3.5,0-6.6,1.9-8.1,4.7
			c-4.7,0.8-8.1,4.2-8.1,8.2c0,0.3,0,0.7,0.1,1c-0.4,0.8-0.7,1.8-0.7,2.8c0,3.3,2.7,6,6.1,6.3c0.7,4.1,5.1,7.2,10.3,7.2
			c2,0,4-0.5,5.6-1.3c1.8,1.2,4.1,2,6.7,2c1.1,0,2.1-0.1,3.1-0.4c1.9,2.2,5,3.7,8.6,3.7c4.7,0,8.7-2.5,10-6c1.8,1.3,4.2,2.1,6.8,2.1
			c5.3,0,9.7-3.2,10.3-7.4C878.4,210.7,880.8,208.2,880.8,205.1z"/>
	</g>
	<g>
		<path d="M975.1,205.1c0-1.9-0.9-3.5-2.3-4.7c0-0.1,0-0.2,0-0.3c0-4.5-4.4-8.2-9.9-8.4c-1.7-2-4.3-3.4-7.2-3.4
			c-3.5,0-6.5,1.8-8,4.5c-1.2-4.1-5.8-7.1-11.3-7.1c-4.8,0-8.9,2.2-10.7,5.4c-1.7-1.8-4.1-2.9-6.7-2.9c-3.5,0-6.6,1.9-8.1,4.7
			c-4.7,0.8-8.1,4.2-8.1,8.2c0,0.3,0,0.7,0.1,1c-0.4,0.8-0.7,1.8-0.7,2.8c0,3.3,2.7,6,6.1,6.3c0.7,4.1,5.1,7.2,10.3,7.2
			c2,0,4-0.5,5.6-1.3c1.8,1.2,4.1,2,6.7,2c1.1,0,2.1-0.1,3.1-0.4c1.9,2.2,5,3.7,8.6,3.7c4.7,0,8.7-2.5,10-6c1.8,1.3,4.2,2.1,6.8,2.1
			c5.3,0,9.7-3.2,10.3-7.4C972.8,210.7,975.1,208.2,975.1,205.1z"/>
	</g>
	<g>
		<path d="M688.8,151.6c0-1.9-0.9-3.5-2.3-4.7c0-0.1,0-0.2,0-0.3c0-4.5-4.4-8.2-9.9-8.4c-1.7-2-4.3-3.4-7.2-3.4
			c-3.5,0-6.5,1.8-8,4.5c-1.2-4.1-5.8-7.1-11.3-7.1c-4.8,0-8.9,2.2-10.7,5.4c-1.7-1.8-4.1-2.9-6.7-2.9c-3.5,0-6.6,1.9-8.1,4.7
			c-4.7,0.8-8.1,4.2-8.1,8.2c0,0.3,0,0.7,0.1,1c-0.4,0.8-0.7,1.8-0.7,2.8c0,3.3,2.7,6,6.1,6.3c0.7,4.1,5.1,7.2,10.3,7.2
			c2,0,4-0.5,5.6-1.3c1.8,1.2,4.1,2,6.7,2c1.1,0,2.1-0.1,3.1-0.4c1.9,2.2,5,3.7,8.6,3.7c4.7,0,8.7-2.5,10-6c1.8,1.3,4.2,2.1,6.8,2.1
			c5.3,0,9.7-3.2,10.3-7.4C686.5,157.1,688.8,154.6,688.8,151.6z"/>
	</g>
	<g>
		<path d="M786.4,151.6c0-1.9-0.9-3.5-2.3-4.7c0-0.1,0-0.2,0-0.3c0-4.5-4.4-8.2-9.9-8.4c-1.7-2-4.3-3.4-7.2-3.4
			c-3.5,0-6.5,1.8-8,4.5c-1.2-4.1-5.8-7.1-11.3-7.1c-4.8,0-8.9,2.2-10.7,5.4c-1.7-1.8-4.1-2.9-6.7-2.9c-3.5,0-6.6,1.9-8.1,4.7
			c-4.7,0.8-8.1,4.2-8.1,8.2c0,0.3,0,0.7,0.1,1c-0.4,0.8-0.7,1.8-0.7,2.8c0,3.3,2.7,6,6.1,6.3c0.7,4.1,5.1,7.2,10.3,7.2
			c2,0,4-0.5,5.6-1.3c1.8,1.2,4.1,2,6.7,2c1.1,0,2.1-0.1,3.1-0.4c1.9,2.2,5,3.7,8.6,3.7c4.7,0,8.7-2.5,10-6c1.8,1.3,4.2,2.1,6.8,2.1
			c5.3,0,9.7-3.2,10.3-7.4C784.1,157.1,786.4,154.6,786.4,151.6z"/>
	</g>
	<g>
		<path d="M880.8,151.6c0-1.9-0.9-3.5-2.3-4.7c0-0.1,0-0.2,0-0.3c0-4.5-4.4-8.2-9.9-8.4c-1.7-2-4.3-3.4-7.2-3.4
			c-3.5,0-6.5,1.8-8,4.5c-1.2-4.1-5.8-7.1-11.3-7.1c-4.8,0-8.9,2.2-10.7,5.4c-1.7-1.8-4.1-2.9-6.7-2.9c-3.5,0-6.6,1.9-8.1,4.7
			c-4.7,0.8-8.1,4.2-8.1,8.2c0,0.3,0,0.7,0.1,1c-0.4,0.8-0.7,1.8-0.7,2.8c0,3.3,2.7,6,6.1,6.3c0.7,4.1,5.1,7.2,10.3,7.2
			c2,0,4-0.5,5.6-1.3c1.8,1.2,4.1,2,6.7,2c1.1,0,2.1-0.1,3.1-0.4c1.9,2.2,5,3.7,8.6,3.7c4.7,0,8.7-2.5,10-6c1.8,1.3,4.2,2.1,6.8,2.1
			c5.3,0,9.7-3.2,10.3-7.4C878.4,157.1,880.8,154.6,880.8,151.6z"/>
	</g>
	<g>
		<path d="M975.1,151.6c0-1.9-0.9-3.5-2.3-4.7c0-0.1,0-0.2,0-0.3c0-4.5-4.4-8.2-9.9-8.4c-1.7-2-4.3-3.4-7.2-3.4
			c-3.5,0-6.5,1.8-8,4.5c-1.2-4.1-5.8-7.1-11.3-7.1c-4.8,0-8.9,2.2-10.7,5.4c-1.7-1.8-4.1-2.9-6.7-2.9c-3.5,0-6.6,1.9-8.1,4.7
			c-4.7,0.8-8.1,4.2-8.1,8.2c0,0.3,0,0.7,0.1,1c-0.4,0.8-0.7,1.8-0.7,2.8c0,3.3,2.7,6,6.1,6.3c0.7,4.1,5.1,7.2,10.3,7.2
			c2,0,4-0.5,5.6-1.3c1.8,1.2,4.1,2,6.7,2c1.1,0,2.1-0.1,3.1-0.4c1.9,2.2,5,3.7,8.6,3.7c4.7,0,8.7-2.5,10-6c1.8,1.3,4.2,2.1,6.8,2.1
			c5.3,0,9.7-3.2,10.3-7.4C972.8,157.1,975.1,154.6,975.1,151.6z"/>
	</g>
	<g>
		<path d="M688.8,316c0-1.9-0.9-3.5-2.3-4.7c0-0.1,0-0.2,0-0.3c0-4.5-4.4-8.2-9.9-8.4c-1.7-2-4.3-3.4-7.2-3.4c-3.5,0-6.5,1.8-8,4.5
			c-1.2-4.1-5.8-7.1-11.3-7.1c-4.8,0-8.9,2.2-10.7,5.4c-1.7-1.8-4.1-2.9-6.7-2.9c-3.5,0-6.6,1.9-8.1,4.7c-4.7,0.8-8.1,4.2-8.1,8.2
			c0,0.3,0,0.7,0.1,1c-0.4,0.8-0.7,1.8-0.7,2.8c0,3.3,2.7,6,6.1,6.3c0.7,4.1,5.1,7.2,10.3,7.2c2,0,4-0.5,5.6-1.3
			c1.8,1.2,4.1,2,6.7,2c1.1,0,2.1-0.1,3.1-0.4c1.9,2.2,5,3.7,8.6,3.7c4.7,0,8.7-2.5,10-6c1.8,1.3,4.2,2.1,6.8,2.1
			c5.3,0,9.7-3.2,10.3-7.4C686.5,321.6,688.8,319,688.8,316z"/>
	</g>
	<g>
		<path d="M786.4,316c0-1.9-0.9-3.5-2.3-4.7c0-0.1,0-0.2,0-0.3c0-4.5-4.4-8.2-9.9-8.4c-1.7-2-4.3-3.4-7.2-3.4c-3.5,0-6.5,1.8-8,4.5
			c-1.2-4.1-5.8-7.1-11.3-7.1c-4.8,0-8.9,2.2-10.7,5.4c-1.7-1.8-4.1-2.9-6.7-2.9c-3.5,0-6.6,1.9-8.1,4.7c-4.7,0.8-8.1,4.2-8.1,8.2
			c0,0.3,0,0.7,0.1,1c-0.4,0.8-0.7,1.8-0.7,2.8c0,3.3,2.7,6,6.1,6.3c0.7,4.1,5.1,7.2,10.3,7.2c2,0,4-0.5,5.6-1.3
			c1.8,1.2,4.1,2,6.7,2c1.1,0,2.1-0.1,3.1-0.4c1.9,2.2,5,3.7,8.6,3.7c4.7,0,8.7-2.5,10-6c1.8,1.3,4.2,2.1,6.8,2.1
			c5.3,0,9.7-3.2,10.3-7.4C784.1,321.6,786.4,319,786.4,316z"/>
	</g>
	<g>
		<path d="M975.1,260.6c0-1.9-0.9-3.5-2.3-4.7c0-0.1,0-0.2,0-0.3c0-4.5-4.4-8.2-9.9-8.4c-1.7-2-4.3-3.4-7.2-3.4
			c-3.5,0-6.5,1.8-8,4.5c-1.2-4.1-5.8-7.1-11.3-7.1c-4.8,0-8.9,2.2-10.7,5.4c-1.7-1.8-4.1-2.9-6.7-2.9c-3.5,0-6.6,1.9-8.1,4.7
			c-4.7,0.8-8.1,4.2-8.1,8.2c0,0.3,0,0.7,0.1,1c-0.4,0.8-0.7,1.8-0.7,2.8c0,3.3,2.7,6,6.1,6.3c0.7,4.1,5.1,7.2,10.3,7.2
			c2,0,4-0.5,5.6-1.3c1.8,1.2,4.1,2,6.7,2c1.1,0,2.1-0.1,3.1-0.4c1.9,2.2,5,3.7,8.6,3.7c4.7,0,8.7-2.5,10-6c1.8,1.3,4.2,2.1,6.8,2.1
			c5.3,0,9.7-3.2,10.3-7.4C972.8,266.1,975.1,263.6,975.1,260.6z"/>
	</g>
	<g>
		<path d="M975.1,316.3c0-1.9-0.9-3.5-2.3-4.7c0-0.1,0-0.2,0-0.3c0-4.5-4.4-8.2-9.9-8.4c-1.7-2-4.3-3.4-7.2-3.4
			c-3.5,0-6.5,1.8-8,4.5c-1.2-4.1-5.8-7.1-11.3-7.1c-4.8,0-8.9,2.2-10.7,5.4c-1.7-1.8-4.1-2.9-6.7-2.9c-3.5,0-6.6,1.9-8.1,4.7
			c-4.7,0.8-8.1,4.2-8.1,8.2c0,0.3,0,0.7,0.1,1c-0.4,0.8-0.7,1.8-0.7,2.8c0,3.3,2.7,6,6.1,6.3c0.7,4.1,5.1,7.2,10.3,7.2
			c2,0,4-0.5,5.6-1.3c1.8,1.2,4.1,2,6.7,2c1.1,0,2.1-0.1,3.1-0.4c1.9,2.2,5,3.7,8.6,3.7c4.7,0,8.7-2.5,10-6c1.8,1.3,4.2,2.1,6.8,2.1
			c5.3,0,9.7-3.2,10.3-7.4C972.8,321.9,975.1,319.4,975.1,316.3z"/>
	</g>
	<g>
		<path d="M688.8,371.4c0-1.9-0.9-3.5-2.3-4.7c0-0.1,0-0.2,0-0.3c0-4.5-4.4-8.2-9.9-8.4c-1.7-2-4.3-3.4-7.2-3.4
			c-3.5,0-6.5,1.8-8,4.5c-1.2-4.1-5.8-7.1-11.3-7.1c-4.8,0-8.9,2.2-10.7,5.4c-1.7-1.8-4.1-2.9-6.7-2.9c-3.5,0-6.6,1.9-8.1,4.7
			c-4.7,0.8-8.1,4.2-8.1,8.2c0,0.3,0,0.7,0.1,1c-0.4,0.8-0.7,1.8-0.7,2.8c0,3.3,2.7,6,6.1,6.3c0.7,4.1,5.1,7.2,10.3,7.2
			c2,0,4-0.5,5.6-1.3c1.8,1.2,4.1,2,6.7,2c1.1,0,2.1-0.1,3.1-0.4c1.9,2.2,5,3.7,8.6,3.7c4.7,0,8.7-2.5,10-6c1.8,1.3,4.2,2.1,6.8,2.1
			c5.3,0,9.7-3.2,10.3-7.4C686.5,377,688.8,374.5,688.8,371.4z"/>
	</g>
	<g>
		<path d="M786.4,371.4c0-1.9-0.9-3.5-2.3-4.7c0-0.1,0-0.2,0-0.3c0-4.5-4.4-8.2-9.9-8.4c-1.7-2-4.3-3.4-7.2-3.4
			c-3.5,0-6.5,1.8-8,4.5c-1.2-4.1-5.8-7.1-11.3-7.1c-4.8,0-8.9,2.2-10.7,5.4c-1.7-1.8-4.1-2.9-6.7-2.9c-3.5,0-6.6,1.9-8.1,4.7
			c-4.7,0.8-8.1,4.2-8.1,8.2c0,0.3,0,0.7,0.1,1c-0.4,0.8-0.7,1.8-0.7,2.8c0,3.3,2.7,6,6.1,6.3c0.7,4.1,5.1,7.2,10.3,7.2
			c2,0,4-0.5,5.6-1.3c1.8,1.2,4.1,2,6.7,2c1.1,0,2.1-0.1,3.1-0.4c1.9,2.2,5,3.7,8.6,3.7c4.7,0,8.7-2.5,10-6c1.8,1.3,4.2,2.1,6.8,2.1
			c5.3,0,9.7-3.2,10.3-7.4C784.1,377,786.4,374.5,786.4,371.4z"/>
	</g>
	<g>
		<path d="M880.8,316c0-1.9-0.9-3.5-2.3-4.7c0-0.1,0-0.2,0-0.3c0-4.5-4.4-8.2-9.9-8.4c-1.7-2-4.3-3.4-7.2-3.4c-3.5,0-6.5,1.8-8,4.5
			c-1.2-4.1-5.8-7.1-11.3-7.1c-4.8,0-8.9,2.2-10.7,5.4c-1.7-1.8-4.1-2.9-6.7-2.9c-3.5,0-6.6,1.9-8.1,4.7c-4.7,0.8-8.1,4.2-8.1,8.2
			c0,0.3,0,0.7,0.1,1c-0.4,0.8-0.7,1.8-0.7,2.8c0,3.3,2.7,6,6.1,6.3c0.7,4.1,5.1,7.2,10.3,7.2c2,0,4-0.5,5.6-1.3
			c1.8,1.2,4.1,2,6.7,2c1.1,0,2.1-0.1,3.1-0.4c1.9,2.2,5,3.7,8.6,3.7c4.7,0,8.7-2.5,10-6c1.8,1.3,4.2,2.1,6.8,2.1
			c5.3,0,9.7-3.2,10.3-7.4C878.4,321.6,880.8,319,880.8,316z"/>
	</g>
	<g>
		<path d="M688.8,426.9c0-1.9-0.9-3.5-2.3-4.7c0-0.1,0-0.2,0-0.3c0-4.5-4.4-8.2-9.9-8.4c-1.7-2-4.3-3.4-7.2-3.4
			c-3.5,0-6.5,1.8-8,4.5c-1.2-4.1-5.8-7.1-11.3-7.1c-4.8,0-8.9,2.2-10.7,5.4c-1.7-1.8-4.1-2.9-6.7-2.9c-3.5,0-6.6,1.9-8.1,4.7
			c-4.7,0.8-8.1,4.2-8.1,8.2c0,0.3,0,0.7,0.1,1c-0.4,0.8-0.7,1.8-0.7,2.8c0,3.3,2.7,6,6.1,6.3c0.7,4.1,5.1,7.2,10.3,7.2
			c2,0,4-0.5,5.6-1.3c1.8,1.2,4.1,2,6.7,2c1.1,0,2.1-0.1,3.1-0.4c1.9,2.2,5,3.7,8.6,3.7c4.7,0,8.7-2.5,10-6c1.8,1.3,4.2,2.1,6.8,2.1
			c5.3,0,9.7-3.2,10.3-7.4C686.5,432.4,688.8,429.9,688.8,426.9z"/>
	</g>
	<g>
		<path d="M975.1,370c0-1.9-0.9-3.5-2.3-4.7c0-0.1,0-0.2,0-0.3c0-4.5-4.4-8.2-9.9-8.4c-1.7-2-4.3-3.4-7.2-3.4c-3.5,0-6.5,1.8-8,4.5
			c-1.2-4.1-5.8-7.1-11.3-7.1c-4.8,0-8.9,2.2-10.7,5.4c-1.7-1.8-4.1-2.9-6.7-2.9c-3.5,0-6.6,1.9-8.1,4.7c-4.7,0.8-8.1,4.2-8.1,8.2
			c0,0.3,0,0.7,0.1,1c-0.4,0.8-0.7,1.8-0.7,2.8c0,3.3,2.7,6,6.1,6.3c0.7,4.1,5.1,7.2,10.3,7.2c2,0,4-0.5,5.6-1.3
			c1.8,1.2,4.1,2,6.7,2c1.1,0,2.1-0.1,3.1-0.4c1.9,2.2,5,3.7,8.6,3.7c4.7,0,8.7-2.5,10-6c1.8,1.3,4.2,2.1,6.8,2.1
			c5.3,0,9.7-3.2,10.3-7.4C972.8,375.6,975.1,373.1,975.1,370z"/>
	</g>
	<g>
		<path d="M880.8,371.4c0-1.9-0.9-3.5-2.3-4.7c0-0.1,0-0.2,0-0.3c0-4.5-4.4-8.2-9.9-8.4c-1.7-2-4.3-3.4-7.2-3.4
			c-3.5,0-6.5,1.8-8,4.5c-1.2-4.1-5.8-7.1-11.3-7.1c-4.8,0-8.9,2.2-10.7,5.4c-1.7-1.8-4.1-2.9-6.7-2.9c-3.5,0-6.6,1.9-8.1,4.7
			c-4.7,0.8-8.1,4.2-8.1,8.2c0,0.3,0,0.7,0.1,1c-0.4,0.8-0.7,1.8-0.7,2.8c0,3.3,2.7,6,6.1,6.3c0.7,4.1,5.1,7.2,10.3,7.2
			c2,0,4-0.5,5.6-1.3c1.8,1.2,4.1,2,6.7,2c1.1,0,2.1-0.1,3.1-0.4c1.9,2.2,5,3.7,8.6,3.7c4.7,0,8.7-2.5,10-6c1.8,1.3,4.2,2.1,6.8,2.1
			c5.3,0,9.7-3.2,10.3-7.4C878.4,377,880.8,374.5,880.8,371.4z"/>
	</g>
</g>
</svg>
