<?xml version="1.0" encoding="utf-8"?>
<!-- Generator: Adobe Illustrator 19.2.1, SVG Export Plug-In . SVG Version: 6.00 Build 0)  -->
<svg version="1.1" xmlns="http://www.w3.org/2000/svg" xmlns:xlink="http://www.w3.org/1999/xlink" x="0px" y="0px"
	 viewBox="0 0 1066 588.7" style="enable-background:new 0 0 1066 588.7;" xml:space="preserve">
<style type="text/css">
	.st0{fill:#D7E9EA;stroke:#416190;stroke-width:5;stroke-miterlimit:10;}
	.st1{fill:none;}
	.st2{font-family:'Tahoma';}
	.st3{font-size:20px;}
	.st4{font-size:11.66px;}
	.st5{fill:none;stroke:#000000;stroke-miterlimit:10;}
</style>
<g id="Capa_2_1_">
	<path class="st0" d="M1018.2,584.8H50.9c-24.5,0-44.4-19.2-44.4-42.9v-494c0-23.6,19.9-42.8,44.4-42.8h967.2
		c24.6,0,44.4,19.2,44.4,42.8v494C1062.6,565.6,1042.6,584.8,1018.2,584.8z"/>
	<rect x="71" y="531.9" class="st1" width="445.3" height="88.2"/>
	<text transform="matrix(1.0374 0 0 1 74.939 547.1605)" class="st2 st3"> 1.500.481,014 [TONS] DE CO</text>
	<text transform="matrix(1.0374 0 0 1 349.9307 553.8206)" class="st2 st4">2</text>
	<text transform="matrix(1.0374 0 0 1 356.5342 547.1605)" class="st2 st3">        </text>
</g>
<g id="Capa_1">
	<rect x="609.8" y="534.8" class="st1" width="429.2" height="88.2"/>
	<text transform="matrix(1 0 0 1 609.7698 550.0476)" class="st2 st3">CADA NUBE REPRESENTA 1.000.000 [TONS] DE </text>
	<text transform="matrix(1 0 0 1 609.7698 574.0476)" class="st2 st3">CO</text>
	<text transform="matrix(1 0 0 1 635.9316 580.708)" class="st2 st4">2</text>
	<text transform="matrix(1 0 0 1 642.2971 574.0476)" class="st2 st3">        </text>
	<path class="st5" d="M768.2,238.8c10.9-7.9,26-5.4,33.8,5.4c5.8-1.6,12.2,0,16.5,4.2c6.8,6.6,6.9,17.5,0.3,24.2
		c1.1,2.6,1.7,5.4,1.5,8.3c-0.3,10.9-9.4,19.5-20.2,19.2c0.1,1.4-0.1,2.8-0.5,4.1c1.5-0.9,3.1-1.2,4.8-0.9c3.9,0.6,6.6,4.3,6,8.2
		c-0.6,3.9-4.3,6.6-8.2,6s-6.6-4.3-6-8.2c-1.1,0.9-2.3,1.6-3.6,2c-5.8,2-12.1-1.1-14.1-6.9c-3.8,2.5-8.5,3.1-12.9,1.9
		c-8.5-2.4-13.4-11.2-11-19.7c-4.7-2.5-8.2-6.9-9.4-12.1c-2.3-9.9,3.8-19.8,13.7-22.2C760.4,246.9,763.6,242.1,768.2,238.8z
		 M793.8,284.6c8-4.6,10.8-14.9,6.2-23s-14.9-10.8-22.9-6.2c-8.1,4.7-10.9,14.9-6.2,23c1.5,2.6,3.6,4.7,6.2,6.2
		c-1.3,4.6,1.5,9.4,6.1,10.6s9.4-1.5,10.6-6.1C794.2,287.6,794.2,286.1,793.8,284.6z M783.2,272.8c0-2.4-2-4.3-4.3-4.3
		c-2.4,0-4.3,1.9-4.3,4.3s1.9,4.3,4.3,4.3C781.2,277.2,783.2,275.2,783.2,272.8L783.2,272.8z M781.9,283.8c-0.2,0.3-0.2,0.7,0,1
		c0.4,0.4,0.6,0.6,0.8,0.6h2.7h2.7c0.2,0,0.4-0.1,0.6-0.3c0.5-0.5,0.5-0.9,0.2-1.2l-2.8-4.1c-0.3-0.4-0.8-0.4-1.1-0.2
		C784.7,279.7,781.9,283.8,781.9,283.8 M796.3,272.8c0-2.4-1.9-4.3-4.3-4.3c-2.4,0-4.3,1.9-4.3,4.3s1.9,4.3,4.3,4.3
		C794.4,277.2,796.3,275.2,796.3,272.8L796.3,272.8z"/>
	<path d="M632.4,240.6c10.9-7.9,26-5.4,33.8,5.4c5.8-1.6,12.2,0,16.5,4.2c6.8,6.6,6.9,17.5,0.3,24.2c1.1,2.6,1.7,5.4,1.5,8.3
		c-0.3,10.9-9.4,19.5-20.2,19.2c0.1,1.4-0.1,2.8-0.5,4.1c1.5-0.9,3.1-1.2,4.8-0.9c3.9,0.6,6.6,4.3,6,8.2c-0.6,3.9-4.3,6.6-8.2,6
		s-6.6-4.3-6-8.2c-1.1,0.9-2.3,1.6-3.6,2c-5.8,2-12.1-1.1-14.1-6.9c-3.8,2.5-8.5,3.1-12.9,1.9c-8.5-2.4-13.4-11.2-11-19.7
		c-4.7-2.5-8.2-6.9-9.4-12.1c-2.3-9.9,3.8-19.8,13.7-22.2C624.6,248.8,627.9,243.9,632.4,240.6z M658.1,286.4
		c8-4.6,10.8-14.9,6.2-23c-4.6-8.1-14.9-10.8-22.9-6.2c-8.1,4.7-10.9,14.9-6.2,23c1.5,2.6,3.6,4.7,6.2,6.2
		c-1.3,4.6,1.5,9.4,6.1,10.6s9.4-1.5,10.6-6.1C658.4,289.4,658.4,287.9,658.1,286.4z M647.4,274.6c0-2.4-2-4.3-4.3-4.3
		c-2.4,0-4.3,1.9-4.3,4.3s1.9,4.3,4.3,4.3C645.5,279,647.4,277,647.4,274.6L647.4,274.6z M646.2,285.7c-0.2,0.3-0.2,0.7,0,1
		c0.4,0.4,0.6,0.6,0.8,0.6h2.7h2.7c0.2,0,0.4-0.1,0.6-0.3c0.5-0.5,0.5-0.9,0.2-1.2l-2.8-4.1c-0.3-0.4-0.8-0.4-1.1-0.2
		C649,281.6,646.2,285.7,646.2,285.7 M660.6,274.6c0-2.4-1.9-4.3-4.3-4.3c-2.4,0-4.3,1.9-4.3,4.3s1.9,4.3,4.3,4.3
		C658.6,279,660.6,277,660.6,274.6L660.6,274.6z"/>
	<path class="st1" d="M689.4,442.1c4-6.1,3.6-14.2-1-20"/>
	<path d="M785.3,279.5c-0.3,0.1-3.1,4.2-3.1,4.2c-0.2,0.3-0.2,0.7,0,1c0.4,0.4,0.6,0.6,0.8,0.6h2.7h0.5c0-1.9,0-3.8,0.1-5.7
		C786,279.3,785.6,279.3,785.3,279.5z"/>
	<path d="M783.5,295c-4.6-1.2-7.4-6-6.1-10.6c-2.6-1.5-4.7-3.6-6.2-6.2c-4.7-8.1-1.9-18.3,6.2-23c2.8-1.6,6-2.3,9-2.2
		c0-6.3-0.2-12.5-0.4-18.8c-6-0.9-12.3,0.5-17.6,4.4c-4.5,3.3-7.8,8.2-9.3,13.5c-9.9,2.4-16,12.3-13.7,22.2
		c1.2,5.2,4.7,9.6,9.4,12.1c-2.4,8.5,2.5,17.3,11,19.7c4.4,1.2,9.1,0.6,12.9-1.9c1.2,3.5,4,6,7.3,7c0-5.3,0-10.6,0.1-16
		C785.2,295.3,784.4,295.2,783.5,295z"/>
	<path d="M779.1,268.3c-2.4,0-4.3,1.9-4.3,4.3c0,2.4,1.9,4.3,4.3,4.3c2.4,0.1,4.3-1.9,4.3-4.3C783.4,270.2,781.4,268.3,779.1,268.3z
		"/>
</g>
</svg>
