<?xml version="1.0" encoding="utf-8"?>
<!-- Generator: Adobe Illustrator 19.2.1, SVG Export Plug-In . SVG Version: 6.00 Build 0)  -->
<svg version="1.1" id="Capa_1" xmlns="http://www.w3.org/2000/svg" xmlns:xlink="http://www.w3.org/1999/xlink" x="0px" y="0px"
	 viewBox="0 0 1066 588.7" style="enable-background:new 0 0 1066 588.7;" xml:space="preserve">
<style type="text/css">
	.st0{opacity:0.8;fill:#D7E9EA;stroke:#416190;stroke-width:5;stroke-miterlimit:10;enable-background:new    ;}
	.st1{fill:none;}
	.st2{font-family:'Tahoma';}
	.st3{font-size:20px;}
	.st4{font-size:11.66px;}
	.st5{fill:none;stroke:#000000;stroke-miterlimit:10;}
	.st6{font-family:'Tahoma-Bold';}
	.st7{font-size:22px;}
	.st8{font-family:'MyriadPro-Regular';}
	.st9{font-size:25px;}
</style>
<path class="st0" d="M1018.2,584.8H50.9c-24.5,0-44.4-19.2-44.4-42.9v-494c0-23.6,19.9-42.8,44.4-42.8h967.2
	c24.6,0,44.4,19.2,44.4,42.8v494C1062.6,565.6,1042.6,584.8,1018.2,584.8z"/>
<rect x="71" y="531.9" class="st1" width="445.3" height="88.2"/>
<text transform="matrix(1.0374 0 0 1 74.939 544.1602)" class="st2 st3"> 24.057,636 [TONS] DE CO</text>
<text transform="matrix(1.0374 0 0 1 321.9307 546.8203)" class="st2 st4">2</text>
<text transform="matrix(1.0374 0 0 1 356.5342 547.1602)" class="st2 st3">        </text>
<rect x="609.8" y="534.8" class="st1" width="429.2" height="88.2"/>
<text transform="matrix(1 0 0 1 786.4003 580.7078)" class="st2 st3">        </text>
<path class="st1" d="M689.4,442.1c4-6.1,3.6-14.2-1-20"/>
<g>
	<path d="M688.8,279.7c0-1.9-0.9-3.5-2.3-4.7c0-0.1,0-0.2,0-0.3c0-4.5-4.4-8.2-9.9-8.4c-1.7-2-4.3-3.4-7.2-3.4c-3.5,0-6.5,1.8-8,4.5
		c-1.2-4.1-5.8-7.1-11.3-7.1c-4.8,0-8.9,2.2-10.7,5.4c-1.7-1.8-4.1-2.9-6.7-2.9c-3.5,0-6.6,1.9-8.1,4.7c-4.7,0.8-8.1,4.2-8.1,8.2
		c0,0.3,0,0.7,0.1,1c-0.4,0.8-0.7,1.8-0.7,2.8c0,3.3,2.7,6,6.1,6.3c0.7,4.1,5.1,7.2,10.3,7.2c2,0,4-0.5,5.6-1.3c1.8,1.2,4.1,2,6.7,2
		c1.1,0,2.1-0.1,3.1-0.4c1.9,2.2,5,3.7,8.6,3.7c4.7,0,8.7-2.5,10-6c1.8,1.3,4.2,2.1,6.8,2.1c5.3,0,9.7-3.2,10.3-7.4
		C686.5,285.2,688.8,282.7,688.8,279.7z"/>
</g>
<g>
	<path d="M786.4,279.7c0-1.9-0.9-3.5-2.3-4.7c0-0.1,0-0.2,0-0.3c0-4.5-4.4-8.2-9.9-8.4c-1.7-2-4.3-3.4-7.2-3.4c-3.5,0-6.5,1.8-8,4.5
		c-1.2-4.1-5.8-7.1-11.3-7.1c-4.8,0-8.9,2.2-10.7,5.4c-1.7-1.8-4.1-2.9-6.7-2.9c-3.5,0-6.6,1.9-8.1,4.7c-4.7,0.8-8.1,4.2-8.1,8.2
		c0,0.3,0,0.7,0.1,1c-0.4,0.8-0.7,1.8-0.7,2.8c0,3.3,2.7,6,6.1,6.3c0.7,4.1,5.1,7.2,10.3,7.2c2,0,4-0.5,5.6-1.3c1.8,1.2,4.1,2,6.7,2
		c1.1,0,2.1-0.1,3.1-0.4c1.9,2.2,5,3.7,8.6,3.7c4.7,0,8.7-2.5,10-6c1.8,1.3,4.2,2.1,6.8,2.1c5.3,0,9.7-3.2,10.3-7.4
		C784.1,285.2,786.4,282.7,786.4,279.7z"/>
</g>
<g>
	<path class="st5" d="M888.7,279.7c0-1.9-0.9-3.5-2.3-4.7c0-0.1,0-0.2,0-0.3c0-4.5-4.4-8.2-9.9-8.4c-1.7-2-4.3-3.4-7.2-3.4
		c-3.5,0-6.5,1.8-8,4.5c-1.2-4.1-5.8-7.1-11.3-7.1c-4.8,0-8.9,2.2-10.7,5.4c-1.7-1.8-4.1-2.9-6.7-2.9c-3.5,0-6.6,1.9-8.1,4.7
		c-4.7,0.8-8.1,4.2-8.1,8.2c0,0.3,0,0.7,0.1,1c-0.4,0.8-0.7,1.8-0.7,2.8c0,3.3,2.7,6,6.1,6.3c0.7,4.1,5.1,7.2,10.3,7.2
		c2,0,4-0.5,5.6-1.3c1.8,1.2,4.1,2,6.7,2c1.1,0,2.1-0.1,3.1-0.4c1.9,2.2,5,3.7,8.6,3.7c4.7,0,8.7-2.5,10-6c1.8,1.3,4.2,2.1,6.8,2.1
		c5.3,0,9.7-3.2,10.3-7.4C886.4,285.2,888.7,282.7,888.7,279.7z"/>
</g>
<g>
	<path d="M848.1,260c-3.9,0.5-7.2,2.5-8.8,5.3c-1.7-1.8-4.1-2.9-6.7-2.9c-3.5,0-6.6,1.9-8.1,4.7c-4.7,0.8-8.1,4.2-8.1,8.2
		c0,0.3,0,0.7,0.1,1c-0.4,0.8-0.7,1.8-0.7,2.8c0,3.3,2.7,6,6.1,6.3c0.7,4.1,5.1,7.2,10.3,7.2c2,0,4-0.5,5.6-1.3c1.8,1.2,4.1,2,6.7,2
		c0.9,0,1.8-0.1,2.6-0.3C847.3,282.1,848.7,271,848.1,260z"/>
</g>
<text transform="matrix(1 0 0 1 66.1172 88.1917)" class="st6 st7">TOTAL DE CONTAMINACIÓN DE CO  EN </text>
<text transform="matrix(1 0 0 1 66.1172 114.5916)" class="st6 st7">LA REGIÓN:  60.041,197 [TONS]</text>
<text transform="matrix(1.0374 0 0 1 433.1953 91.708)" class="st6 st4">2</text>
<text transform="matrix(1.0645 0 0 1 564.5002 542.2739)" class="st2 st3">CADA NUBE REPRESENTA 10.000 [TONS] DE </text>
<text transform="matrix(1.0645 0 0 1 995.1926 543.2739)" class="st2 st3">CO</text>
<text transform="matrix(1.0645 0 0 1 1024.427 546.0464)" class="st2 st4">2</text>
<rect x="82.9" y="454" class="st1" width="460.1" height="51.5"/>
<text transform="matrix(1 0 0 1 82.9131 471.75)"><tspan x="0" y="0" class="st8 st9">La Industria Minera es la más contaminante,</tspan><tspan x="0" y="30" class="st8 st9">produce:</tspan></text>
</svg>
