<?xml version="1.0" encoding="utf-8"?>
<!-- Generator: Adobe Illustrator 19.2.1, SVG Export Plug-In . SVG Version: 6.00 Build 0)  -->
<svg version="1.1" id="Capa_1" xmlns="http://www.w3.org/2000/svg" xmlns:xlink="http://www.w3.org/1999/xlink" x="0px" y="0px"
	 viewBox="0 0 1066 579.7" style="enable-background:new 0 0 1066 579.7;" xml:space="preserve">
<style type="text/css">
	.st0{opacity:0.8;}
	.st1{opacity:0.8;fill:#D7E9EA;stroke:#416190;stroke-width:5;stroke-miterlimit:10;enable-background:new    ;}
	.st2{font-family:'Tahoma-Bold';}
	.st3{font-size:20px;}
	.st4{font-size:11.66px;}
	.st5{font-family:'Tahoma';}
	.st6{fill:none;}
	.st7{fill:none;stroke:#000000;stroke-miterlimit:10;}
	.st8{font-size:22px;}
	.st9{font-family:'MyriadPro-Regular';}
	.st10{font-size:25px;}
</style>
<g id="Capa_2" class="st0">
	<path class="st1" d="M1018.2,579.7H47.8C24.2,579.7,5,560.5,5,536.8v-494C5,19.2,24.2,0,47.8,0h970.3c23.7,0,42.8,19.2,42.8,42.8
		v494C1061,560.5,1041.8,579.7,1018.2,579.7z"/>
</g>
<text transform="matrix(1 0 0 1 74.1612 532.0476)" class="st2 st3">823.357,199 [TONS] DE CO</text>
<text transform="matrix(1 0 0 1 332.8369 535.708)" class="st2 st4">2</text>
<text transform="matrix(1 0 0 1 427.8368 532.0475)" class="st5 st3">        </text>
<rect x="588.8" y="525.8" class="st6" width="429.2" height="88.2"/>
<text transform="matrix(1 0 0 1 621.2971 565.0476)" class="st5 st3">        </text>
<path class="st7" d="M723.6,255.6c10.9-7.9,26-5.4,33.8,5.4c5.8-1.6,12.2,0,16.5,4.2c6.8,6.6,6.9,17.5,0.3,24.2
	c1.1,2.6,1.7,5.4,1.5,8.3c-0.3,10.9-9.4,19.5-20.2,19.2c0.1,1.4-0.1,2.8-0.5,4.1c1.5-0.9,3.1-1.2,4.8-0.9c3.9,0.6,6.6,4.3,6,8.2
	c-0.6,3.9-4.3,6.6-8.2,6s-6.6-4.3-6-8.2c-1.1,0.9-2.3,1.6-3.6,2c-5.8,2-12.1-1.1-14.1-6.9c-3.8,2.5-8.5,3.1-12.9,1.9
	c-8.5-2.4-13.4-11.2-11-19.7c-4.7-2.5-8.2-6.9-9.4-12.1c-2.3-9.9,3.8-19.8,13.7-22.2C715.8,263.7,719.1,258.9,723.6,255.6z
	 M749.2,301.4c8-4.6,10.8-14.9,6.2-23s-14.9-10.8-22.9-6.2c-8.1,4.7-10.9,14.9-6.2,23c1.5,2.6,3.6,4.7,6.2,6.2
	c-1.3,4.6,1.5,9.4,6.1,10.6s9.4-1.5,10.6-6.1C749.6,304.4,749.6,302.9,749.2,301.4z M738.6,289.6c0-2.4-2-4.3-4.3-4.3
	c-2.4,0-4.3,1.9-4.3,4.3s1.9,4.3,4.3,4.3C736.7,294,738.6,292,738.6,289.6L738.6,289.6z M737.3,300.6c-0.2,0.3-0.2,0.7,0,0.9
	c0.4,0.4,0.6,0.6,0.8,0.6h2.7h2.7c0.2,0,0.4-0.1,0.6-0.3c0.5-0.5,0.5-0.9,0.2-1.2l-2.8-4.1c-0.3-0.4-0.8-0.4-1.1-0.2
	C740.2,296.5,737.3,300.6,737.3,300.6 M751.7,289.6c0-2.4-1.9-4.3-4.3-4.3c-2.4,0-4.3,1.9-4.3,4.3s1.9,4.3,4.3,4.3
	S751.7,292,751.7,289.6L751.7,289.6z"/>
<path d="M741.5,296.6c-0.3-0.4-0.8-0.4-1.1-0.2c-0.3,0.1-3.1,4.2-3.1,4.2c-0.2,0.3-0.2,0.7,0,1c0.4,0.4,0.6,0.6,0.8,0.6h2.7h2.7
	c0.2,0,0.4-0.1,0.6-0.3c0.5-0.5,0.5-0.9,0.2-1.2L741.5,296.6z"/>
<path d="M738.5,289.6c0-2.4-2-4.3-4.3-4.3c-2.4,0-4.3,1.9-4.3,4.3s1.9,4.3,4.3,4.3S738.5,292,738.5,289.6z"/>
<path d="M747.4,285.3c-2.4,0-4.3,1.9-4.3,4.3s1.9,4.3,4.3,4.3c2.3,0,4.3-1.9,4.3-4.3S749.8,285.3,747.4,285.3z"/>
<path d="M757.4,261c-7.8-10.8-22.9-13.3-33.8-5.4c-4.6,3.3-7.9,8.1-9.3,13.5c-9.9,2.4-16,12.3-13.7,22.2c1.2,5.2,4.7,9.6,9.4,12.1
	c-2.4,8.5,2.5,17.3,11,19.7c4.4,1.2,9.1,0.6,12.9-1.9c2,5.8,8.3,8.9,14.1,6.9c1.3-0.4,2.5-1.1,3.6-2c-0.6,3.9,2.1,7.6,6,8.2
	s7.6-2.1,8.2-6c0.6-3.9-2.1-7.6-6-8.2c-1.7-0.3-3.3,0-4.8,0.9c0.4-1.3,0.6-2.7,0.5-4.1c3.5,0.1,6.8-0.7,9.7-2.3
	c0-18.3,0-35.6,0-53.9C762.6,260.2,760,260.3,757.4,261z M749.2,301.4c0.4,1.4,0.4,3,0,4.5c-1.2,4.6-6,7.3-10.6,6.1s-7.4-6-6.1-10.6
	c-2.6-1.5-4.7-3.6-6.2-6.2c-4.7-8.1-1.9-18.3,6.2-23c8-4.6,18.3-1.9,22.9,6.2C760,286.5,757.2,296.8,749.2,301.4z"/>
<rect x="60.5" y="58" class="st6" width="449" height="60"/>
<text transform="matrix(1 0 0 1 60.5 74.7197)" class="st2 st8">TOTAL DE CONTAMINACIÓN DE CO  EN </text>
<text transform="matrix(1 0 0 1 60.5 101.1197)" class="st2 st8">LA REGIÓN:  2.645.144,31 [TONS]</text>
<text transform="matrix(1 0 0 1 427.8369 75.3747)" class="st2 st4">2</text>
<text transform="matrix(1.0645 0 0 1 533.1127 533.708)" class="st5 st3">CADA NUBE REPRESENTA 1.000.000 [TONS] DE </text>
<text transform="matrix(1.0645 0 0 1 993.8051 534.708)" class="st5 st3">CO</text>
<text transform="matrix(1.0645 0 0 1 1023.0394 537.4805)" class="st5 st4">2</text>
<rect x="74.2" y="440" class="st6" width="460.1" height="51.5"/>
<text transform="matrix(1 0 0 1 74.1612 457.75)"><tspan x="0" y="0" class="st9 st10">La Industria Minera es la más contaminante,</tspan><tspan x="0" y="30" class="st9 st10">produce:</tspan></text>
</svg>
