<?xml version="1.0" encoding="utf-8"?>
<!-- Generator: Adobe Illustrator 22.0.1, SVG Export Plug-In . SVG Version: 6.00 Build 0)  -->
<svg version="1.1" id="Capa_1" xmlns="http://www.w3.org/2000/svg" xmlns:xlink="http://www.w3.org/1999/xlink" x="0px" y="0px"
	 viewBox="0 0 1498.5 409.5" style="enable-background:new 0 0 1498.5 409.5;" xml:space="preserve">
<style type="text/css">
	.st0{opacity:0.8;fill:#DCF4F3;stroke:#416190;stroke-width:5;stroke-miterlimit:5.83;}
	.st1{fill:none;stroke:#000000;stroke-width:3.0401;stroke-miterlimit:10;}
	.st2{fill:none;}
	.st3{font-family:'ArialMT';}
	.st4{font-size:16px;}
	.st5{letter-spacing:27.6;}
	.st6{letter-spacing:9.2;}
	.st7{fill:#FF0000;}
	.st8{font-size:21px;}
	.st9{enable-background:new    ;}
	.st10{font-family:'Verdana-Bold';}
	.st11{font-family:'Arial-BoldMT';}
	.st12{fill:none;stroke:#000000;stroke-width:0.25;stroke-miterlimit:10;}
	.st13{font-size:12.243px;}
	.st14{fill:#FCEE21;}
	.st15{font-family:'Arial-Black';}
	.st16{font-size:16.6514px;}
	.st17{fill:#FF0000;stroke:#FF0000;stroke-width:1.3664;stroke-miterlimit:10;}
	.st18{font-size:18.9273px;}
	.st19{fill:#FF0000;stroke:#FF0000;stroke-width:1.3343;stroke-miterlimit:10;}
	.st20{font-size:18px;}
	.st21{fill:#FF0000;stroke:#FF0000;stroke-width:0.2169;stroke-miterlimit:10;}
	.st22{fill:#FF0000;stroke:#FF0000;stroke-width:0.1414;stroke-miterlimit:10;}
</style>
<path class="st0" d="M44.5,1H1455c23.5,0,42.5,19,42.5,42.5v320.2c0,23.5-19,42.5-42.5,42.5H44.5C21,406.2,2,387.2,2,363.7V43.5
	C2,20,21,1,44.5,1z"/>
<rect x="94.2" y="232" class="st1" width="1385.4" height="21.3"/>
<rect x="108.1" y="236.4" class="st2" width="1371.8" height="36.8"/>
<text transform="matrix(0.9794 0 0 1 108.1166 248.4116)" class="st3 st4">$100.000</text>
<text transform="matrix(0.9794 0 0 1 173.4623 248.4116)" class="st3 st4 st5"> </text>
<text transform="matrix(0.9794 0 0 1 205.9682 248.4116)" class="st3 st4 st5"> </text>
<text transform="matrix(0.9794 0 0 1 238.5824 248.4116)" class="st3 st4">$200.000</text>
<text transform="matrix(0.9794 0 0 1 303.9281 248.4116)" class="st3 st4 st5"> </text>
<text transform="matrix(0.9794 0 0 1 336.434 248.4116)" class="st3 st4 st5"> </text>
<text transform="matrix(0.9794 0 0 1 369.0482 248.4116)" class="st3 st4">$300.000</text>
<text transform="matrix(0.9794 0 0 1 434.3939 248.4116)" class="st3 st4 st5"> </text>
<text transform="matrix(0.9794 0 0 1 466.8998 248.4116)" class="st3 st4 st5"> </text>
<text transform="matrix(0.9794 0 0 1 499.514 248.4116)" class="st3 st4">$400.000</text>
<text transform="matrix(0.9794 0 0 1 564.8597 248.4116)" class="st3 st4 st5"> </text>
<text transform="matrix(0.9794 0 0 1 597.3656 248.4116)" class="st3 st4 st5"> </text>
<text transform="matrix(0.9794 0 0 1 629.9896 248.4116)" class="st3 st4">$500.000</text>
<text transform="matrix(0.9794 0 0 1 695.3353 248.4116)" class="st3 st4 st5"> </text>
<text transform="matrix(0.9794 0 0 1 727.8314 248.4116)" class="st3 st4 st5"> </text>
<text transform="matrix(0.9794 0 0 1 760.4554 248.4116)" class="st3 st4">$600.000</text>
<text transform="matrix(0.9794 0 0 1 825.8011 248.4116)" class="st3 st4 st5"> </text>
<text transform="matrix(0.9794 0 0 1 858.308 248.4116)" class="st3 st4 st5"> </text>
<text transform="matrix(0.9794 0 0 1 890.9213 248.4116)" class="st3 st4">$700.000</text>
<text transform="matrix(0.9794 0 0 1 956.267 248.4116)" class="st3 st4 st5"> </text>
<text transform="matrix(0.9794 0 0 1 988.7728 248.4116)" class="st3 st4 st5"> </text>
<text transform="matrix(0.9794 0 0 1 1021.3871 248.4116)" class="st3 st4">$800.000</text>
<text transform="matrix(0.9794 0 0 1 1086.7328 248.4116)" class="st3 st4 st5"> </text>
<text transform="matrix(0.9794 0 0 1 1119.2396 248.4116)" class="st3 st4 st5"> </text>
<text transform="matrix(0.9794 0 0 1 1151.8529 248.4116)" class="st3 st4">$900.000</text>
<text transform="matrix(0.9794 0 0 1 1217.1986 248.4116)" class="st3 st4 st5"> </text>
<text transform="matrix(0.9794 0 0 1 1249.7054 248.4116)" class="st3 st4 st5"> </text>
<text transform="matrix(0.9794 0 0 1 1282.3187 248.4116)" class="st3 st4">$1.000.000 </text>
<text transform="matrix(0.9794 0 0 1 1365.0883 248.4116)" class="st3 st4 st6"> </text>
<text transform="matrix(0.9794 0 0 1 1380.1713 248.4116)" class="st3 st4 st5"> </text>
<text transform="matrix(0.9794 0 0 1 1412.7845 248.4116)" class="st3 st4">   +++</text>
<path class="st7" d="M498.9,153h-3.7c-0.6-2.3-1.4-4.3-2.8-6.1l3.2-3.1c0.2-0.2,0.4-0.6,0.4-0.8c0-0.4-0.2-0.6-0.4-0.8l-4.1-4
	c-0.4-0.4-1.2-0.4-1.8,0l-3.2,3.1c-1.8-1.2-3.7-1.9-5.7-2.5v-4c0-0.6-0.6-1.2-1.2-1.2h-5.9c-0.6,0-1.2,0.6-1.2,1.2v3.9
	c-2.2,0.4-4.1,1.3-5.9,2.3l-3.4-3.3c-0.4-0.4-1.2-0.4-1.8,0l-4.1,4c-0.2,0.2-0.4,0.6-0.4,0.8c0,0.2,0.2,0.6,0.4,0.8l3.4,3.3
	c-1.2,1.9-2.2,4-2.8,6.4h-3.8c-0.6,0-1.2,0.6-1.2,1.2v5.8c0,0.6,0.6,1.2,1.2,1.2h3.7c0.3,2,1.3,3.7,2.1,5.4l3-3.6
	c-0.8-1.8-1.3-3.8-1.3-5.9c0-8,6.6-14.5,14.8-14.5s14.8,6.5,14.8,14.5s-6.6,14.5-14.8,14.5c-1.4,0-2.9-0.2-4.2-0.6l-2.9,3.4
	c0.9,0.3,1.9,0.6,2.9,0.8v3.3c0,0.6,0.6,1.2,1.2,1.2h5.9c0.6,0,1.2-0.6,1.2-1.2v-3.5c2.3-0.6,4.3-1.3,6.3-2.7l2.6,2.5
	c0.2,0.2,0.6,0.4,0.8,0.4s0.6-0.2,0.8-0.4l4.1-4c0.2-0.2,0.4-0.6,0.4-0.8c0-0.4-0.2-0.6-0.4-0.8l-2.6-2.5c1.2-1.7,2-3.6,2.3-5.8h3.7
	c0.6,0,1.2-0.6,1.2-1.2v-5.8C500.1,153.6,499.7,153,498.9,153z"/>
<path class="st7" d="M488.3,155.6c-0.2-1.8-0.8-3.6-2-5.2l-7.2,8.3l-4.7-3.8l7.2-8.2c-1.7-0.7-3.4-1-5.2-0.8
	c-6,0.5-10.5,5.7-10,11.6c0.1,1.2,0.4,2.4,0.9,3.5l0.1,0.1L450,181.1c-0.7,0.8-1.1,2-1,3.1c0.1,1.1,0.6,2.1,1.5,2.8s2,1.1,3.2,1
	c1.1-0.1,2.2-0.6,2.9-1.5l17.2-19.8l0.2,0.1c1.4,0.5,2.9,0.6,4.4,0.5C484.3,166.8,488.8,161.6,488.3,155.6z M453.5,185
	c-0.9,0.1-1.5-0.6-1.6-1.3c-0.1-0.8,0.6-1.5,1.4-1.6c0.9-0.1,1.5,0.6,1.6,1.3C454.9,184.3,454.4,185,453.5,185z"/>
<rect x="794.1" y="376.2" class="st2" width="92" height="32.3"/>
<text transform="matrix(0.9794 0 0 1 794.1351 391.978)" class="st3 st8">$621.564</text>
<rect x="585.2" y="18.8" class="st2" width="439.9" height="108.7"/>
<text transform="matrix(1 0 0 1 749.75 34.6215)" class="st9"><tspan x="0" y="0" class="st3 st8"> </tspan><tspan x="5.8" y="0" class="st10 st8">ÑUBLE XVl</tspan></text>
<text transform="matrix(1 0 0 1 572.0186 85.0214)" class="st9"><tspan x="0" y="0" class="st10 st8">Población</tspan><tspan x="114.6" y="0" class="st11 st8">:</tspan><tspan x="121.6" y="0" class="st3 st8"> </tspan></text>
<text transform="matrix(1 0 0 1 695.749 85.0214)" class="st3 st8">480.609 </text>
<text transform="matrix(1 0 0 1 695.749 85.0214)" class="st12 st3 st8">480.609 </text>
<text transform="matrix(1 0 0 1 784.4795 85.0214)" class="st10 st8">Superficie:</text>
<text transform="matrix(1 0 0 1 908.1284 85.0214)" class="st3 st8"> 13.178,5 km</text>
<text transform="matrix(1 0 0 1 908.1284 85.0214)" class="st12 st3 st8"> 13.178,5 km</text>
<text transform="matrix(1 0 0 1 1031.5267 75.0287)" class="st3 st13">2</text>
<rect x="832.3" y="123.6" class="st14" width="4.5" height="244"/>
<rect x="11.6" y="176.1" class="st2" width="105.4" height="23.7"/>
<text transform="matrix(0.9794 0 0 1 11.5673 187.9828)" class="st15 st16">MUJERES</text>
<rect x="11.6" y="297.5" class="st2" width="96.2" height="26"/>
<text transform="matrix(0.9794 0 0 1 11.5673 309.4272)" class="st15 st16">HOMBRES</text>
<rect x="210.6" y="60.3" class="st2" width="80.5" height="23.3"/>
<g>
	<g>
		<path class="st17" d="M388.1,293.7h-13.8c-1.7,0-3.2,1.7-3.2,3.8v16.6c0,2.1,1.4,3.8,3.2,3.8h13.8c1.7,0,3.2-1.7,3.2-3.8v-16.6
			C391.3,295.4,389.9,293.7,388.1,293.7z M390.2,314.1c0,1.4-0.9,2.5-2,2.5h-13.8c-1.1,0-2-1.1-2-2.5v-16.6c0-1.4,0.9-2.5,2-2.5
			h13.8c1.1,0,2,1.1,2,2.5V314.1L390.2,314.1z"/>
		<path class="st17" d="M383.5,304.7c1-0.5,1.5-1.2,1.5-2.6c0-1.8-1-3.2-3.6-3.2h-3.9V311h4.4c2.6,0,3.7-1.6,3.7-3.4
			C385.6,306.1,384.8,305,383.5,304.7z M379.2,300.8h2.2c1.1,0,1.8,0.3,1.8,1.6c0,1-0.6,1.5-1.8,1.5h-2.2L379.2,300.8L379.2,300.8z
			 M381.9,309.1h-2.7v-3.3h2.5c1.4,0,2.2,0.5,2.2,1.6C383.8,308.8,383.1,309.1,381.9,309.1z"/>
		<path class="st17" d="M399.8,291.8c1.7,0,3.2-1.7,3.2-3.8v-16.6c0-2.1-1.4-3.8-3.2-3.8H386c-1.7,0-3.2,1.7-3.2,3.8V288
			c0,2.1,1.4,3.8,3.2,3.8H399.8L399.8,291.8z M383.9,288v-16.6c0-1.4,0.9-2.5,2-2.5h13.8c1.1,0,2,1.1,2,2.5V288c0,1.4-0.9,2.5-2,2.5
			H386C384.9,290.5,383.9,289.4,383.9,288z"/>
		<path class="st17" d="M390.4,282.2h5.1l1,2.8h1.8l-4.5-12.2H392l-4.5,12.2h1.8L390.4,282.2z M392.9,275.3l1.8,5h-3.7L392.9,275.3z
			"/>
		<path class="st17" d="M411.5,293.7h-13.8c-1.7,0-3.2,1.7-3.2,3.8v16.6c0,2.1,1.4,3.8,3.2,3.8h13.8c1.7,0,3.2-1.7,3.2-3.8v-16.6
			C414.7,295.4,413.3,293.7,411.5,293.7z M413.6,314.1c0,1.4-0.9,2.5-2,2.5h-13.8c-1.1,0-2-1.1-2-2.5v-16.6c0-1.4,0.9-2.5,2-2.5
			h13.8c1.1,0,2,1.1,2,2.5V314.1L413.6,314.1z"/>
		<path class="st17" d="M405.4,300.6c1.2,0,2,0.5,2.9,1.5l1.1-1.4c-1-1.4-2.4-2.1-3.9-2.1c-3.2,0-5.4,2.7-5.4,6.3
			c0,3.7,2.3,6.3,5.3,6.3c1.5,0,2.8-0.7,3.9-2.1l-1.1-1.4c-1,1.2-1.8,1.5-2.8,1.5c-1.8,0-3.5-1.8-3.5-4.3
			C401.8,302.3,403.4,300.6,405.4,300.6z"/>
	</g>
	<rect x="353.8" y="325.4" class="st2" width="84.1" height="25.4"/>
	<text transform="matrix(0.9484 0 0 1 353.7894 339.6762)" class="st3 st18">$300.343</text>
</g>
<g>
	<g>
		<path class="st19" d="M212,169.3h-13.8c-1.7,0-3.2,1.6-3.2,3.6v15.8c0,2,1.4,3.6,3.2,3.6H212c1.7,0,3.2-1.6,3.2-3.6v-15.8
			C215.2,170.9,213.8,169.3,212,169.3z M214.1,188.7c0,1.3-0.9,2.3-2.1,2.3h-13.8c-1.1,0-2.1-1.1-2.1-2.3v-15.8
			c0-1.3,0.9-2.4,2.1-2.4H212c1.1,0,2.1,1.1,2.1,2.4V188.7L214.1,188.7z"/>
		<path class="st19" d="M207.4,179.8c1-0.5,1.5-1.1,1.5-2.5c0-1.7-1-3.1-3.6-3.1h-4v11.6h4.4c2.6,0,3.7-1.5,3.7-3.2
			C209.5,181.1,208.7,180.1,207.4,179.8z M203.1,176h2.2c1.1,0,1.8,0.3,1.8,1.6c0,1-0.6,1.4-1.9,1.4h-2.2L203.1,176L203.1,176z
			 M205.8,184h-2.7v-3.2h2.5c1.4,0,2.2,0.5,2.2,1.5C207.7,183.7,206.9,184,205.8,184z"/>
		<path class="st19" d="M223.7,167.5c1.7,0,3.2-1.6,3.2-3.6v-15.8c0-2-1.4-3.6-3.2-3.6h-13.8c-1.7,0-3.2,1.6-3.2,3.6v15.8
			c0,2,1.4,3.6,3.2,3.6H223.7L223.7,167.5z M207.8,163.9v-15.8c0-1.3,0.9-2.4,2.1-2.4h13.8c1.1,0,2.1,1.1,2.1,2.4v15.8
			c0,1.3-0.9,2.4-2.1,2.4h-13.8C208.7,166.3,207.8,165.2,207.8,163.9z"/>
		<path class="st19" d="M214.3,158.3h5.1l1,2.6h1.8l-4.5-11.6h-1.8l-4.5,11.6h1.8L214.3,158.3z M216.8,151.7l1.8,4.8H215
			L216.8,151.7z"/>
		<path class="st19" d="M235.5,169.3h-13.8c-1.7,0-3.2,1.6-3.2,3.6v15.8c0,2,1.4,3.6,3.2,3.6h13.8c1.7,0,3.2-1.6,3.2-3.6v-15.8
			C238.6,170.9,237.2,169.3,235.5,169.3z M237.5,188.7c0,1.3-0.9,2.3-2.1,2.3h-13.8c-1.1,0-2.1-1.1-2.1-2.3v-15.8
			c0-1.3,0.9-2.4,2.1-2.4h13.8c1.1,0,2.1,1.1,2.1,2.4V188.7L237.5,188.7z"/>
		<path class="st19" d="M229.4,175.8c1.2,0,2,0.4,2.9,1.4l1.1-1.4c-1-1.3-2.4-2-3.9-2c-3.2,0-5.5,2.6-5.5,6c0,3.5,2.3,6,5.3,6
			c1.5,0,2.8-0.7,3.9-2l-1.1-1.3c-1,1.1-1.8,1.4-2.9,1.4c-1.8,0-3.5-1.7-3.5-4.1C225.8,177.4,227.4,175.8,229.4,175.8z"/>
	</g>
	<rect x="172" y="198.9" class="st2" width="93.1" height="18.8"/>
	<text transform="matrix(1.0255 0 0 1 172.038 212.4223)" class="st3 st20">$172.607</text>
</g>
<g>
	<path class="st21" d="M494.1,304.8c-0.6-0.4-1.3-0.6-2.1-0.5c-0.4,0-0.8,0.2-1.1,0.4l3.6,1.8c-1.1,1.6-2,3.3-2.9,5.1
		c-0.6,1.3-1.1,2.6-1.5,4c-0.3,1.1-0.5,2.3-0.4,3.5c1.7-0.5,3.5-2.9,4.7-5.8c0.8-1.8,1.2-3.9,1.2-6.1
		C495.5,306.2,494.9,305.3,494.1,304.8z"/>
	<path class="st21" d="M470,281.6v7.4l19.9,9.1h0c1.5,0,3-0.1,4.5-0.3c3.9-0.7,6.4-2.1,6.4-3.6V282l-12.2,5.3L470,281.6z"/>
	<polygon class="st21" points="484,266.3 457.7,275.5 470,279.2 488.5,284.8 500.8,279.5 514.3,273.7 	"/>
	<path class="st21" d="M488,316.5c0-0.2,0-0.3,0.1-0.5s0.1-0.4,0.1-0.6l0-0.1c0.5-1.7,1-3.3,1.8-4.8c0.4-1,0.9-1.9,1.5-2.8
		c0,0,0-0.1,0-0.1l-2.4-1.2c-0.6,0.8-1,1.6-1.4,2.6c-0.5,1.2-1,2.4-1.3,3.7l-28.1-16l-0.2,1c-0.2,1.5-0.2,3,0.6,3.5l29.6,18
		C488,318.5,487.9,317.7,488,316.5z"/>
	<path class="st21" d="M486.1,307.8c1.7-4.1,4.6-6.5,6.9-5.7l-0.1,0l-30.9-14.1c-1.2-0.6-2.8,1-3.7,3.8c-0.2,0.6-0.4,1.3-0.5,1.9
		l27.8,15.8C485.7,308.8,485.9,308.3,486.1,307.8z"/>
	<rect x="447.1" y="325.5" class="st2" width="100" height="21"/>
	<text transform="matrix(1.0255 0 0 1 447.1283 339.0864)" class="st3 st20">$381.391</text>
</g>
<rect x="424.4" y="198.1" class="st2" width="103.7" height="22.3"/>
<text transform="matrix(1.0255 0 0 1 424.4164 211.6401)" class="st3 st20">$362.963</text>
<g>
	<path class="st22" d="M629.9,282.9h-3.7c-0.6-2.3-1.4-4.3-2.8-6.2l3.2-3.1c0.2-0.2,0.4-0.6,0.4-0.8c0-0.4-0.2-0.6-0.4-0.8l-4.1-4
		c-0.4-0.4-1.2-0.4-1.8,0l-3.2,3.1c-1.8-1.2-3.7-1.9-5.7-2.5v-4c0-0.6-0.6-1.2-1.2-1.2h-5.9c-0.6,0-1.2,0.6-1.2,1.2v3.9
		c-2.2,0.4-4.1,1.3-5.9,2.3l-3.4-3.3c-0.4-0.4-1.2-0.4-1.8,0l-4.1,4c-0.2,0.2-0.4,0.6-0.4,0.8c0,0.2,0.2,0.6,0.4,0.8l3.4,3.3
		c-1.2,1.9-2.2,4-2.8,6.4h-3.8c-0.6,0-1.2,0.6-1.2,1.2v5.8c0,0.6,0.6,1.2,1.2,1.2h3.7c0.3,2,1.3,3.7,2.1,5.4l3-3.6
		c-0.8-1.8-1.3-3.8-1.3-5.9c0-8,6.6-14.5,14.8-14.5s14.8,6.5,14.8,14.5s-6.6,14.5-14.8,14.5c-1.4,0-2.9-0.2-4.2-0.6l-2.9,3.3
		c0.9,0.3,1.9,0.6,2.9,0.8v3.3c0,0.6,0.6,1.2,1.2,1.2h5.9c0.6,0,1.2-0.6,1.2-1.2v-3.5c2.3-0.6,4.3-1.3,6.3-2.7l2.6,2.5
		c0.2,0.2,0.6,0.4,0.8,0.4s0.6-0.2,0.8-0.4l4.1-4c0.2-0.2,0.4-0.6,0.4-0.8c0-0.4-0.2-0.6-0.4-0.8l-2.6-2.5c1.2-1.7,2-3.6,2.3-5.8
		h3.7c0.6,0,1.2-0.6,1.2-1.2v-5.8C631.1,283.5,630.7,282.9,629.9,282.9z"/>
	<path class="st22" d="M619.2,285.5c-0.2-1.8-0.8-3.6-2-5.2l-7.2,8.3l-4.7-3.8l7.2-8.2c-1.7-0.7-3.4-1-5.2-0.8
		c-6,0.5-10.5,5.7-10,11.6c0.1,1.2,0.4,2.3,0.9,3.5l0.1,0.1L581,310.9c-0.7,0.8-1.1,2-1,3.1c0.1,1.1,0.6,2.1,1.5,2.8s2,1.1,3.2,1
		c1.1-0.1,2.2-0.6,2.9-1.5l17.2-19.8l0.2,0.1c1.4,0.5,2.9,0.6,4.4,0.5C615.2,296.6,619.7,291.4,619.2,285.5z M584.4,314.9
		c-0.9,0.1-1.5-0.6-1.6-1.3c-0.1-0.8,0.6-1.5,1.4-1.6c0.9-0.1,1.5,0.6,1.6,1.3C585.9,314.1,585.3,314.8,584.4,314.9z"/>
	<rect x="563.1" y="326.9" class="st2" width="86.8" height="19.6"/>
	<text transform="matrix(1.0255 0 0 1 563.1283 340.4731)" class="st3 st20">$465.172</text>
</g>
<g>
	<g>
		<path d="M1007.6,139.6c-0.5,0.6-1.2,1.4-2.1,2.4c-3.8-3.6-7.5-4.1-10.3-4.5c-8,13-17,20.6-28.8,28.7c-0.3,0-0.7,0.2-1.1,0.4
			c-2.1,1.4-3,3.8-3.5,6.7c-1.2,6.7,0.9,14.8,7.2,16.2c3.7,0.8,6.1,0.2,7.7-1.8c1.2-1.4,6.5-7.5,13.3-14.6
			c7.7-7.9,17-15.4,20.8-18.6c3.5-3,2.8-7.7,0.3-11.3c-0.9-1.4-2.1-2.6-3.3-3.4L1007.6,139.6z M978.4,182.3
			c0.5-3.6,0.3-10.3,0.2-12.5c0.9-0.4,2.6-1.6,5.8-4c8.9-6.7,16.1-14.6,23.4-23.3c2.6,2.4,4.9,7.3,1.8,10.1
			c-3.7,3-13.5,10.9-21,18.6C984.5,175.6,980.9,179.6,978.4,182.3z M975.1,186.1c-1.1,1.4-2.8,1.8-5.6,1.2c-5.8-1.4-7-9.5-5.4-15.2
			c1.6-5.5,6.5-4.7,8-0.8l-6.3,6.3c0.2,0.6,0.5,4.6,3.7,5.5c2.3,0.8,4.2-1.6,4.9-4.4c0.3-1.8,0.5-4,0-6.5c-0.3-3-2.1-5.1-4.4-6.1
			c11-7.7,18.5-14.2,26.1-26.1c3.2,0.6,5.2,1.4,7.9,3.6c-7.3,8.5-22.4,24.5-27.4,24.5c0,1.2,0.5,11.3-0.2,14.8
			C976.2,184.1,975.8,185.3,975.1,186.1z M972.7,173.8c0.2,2.2,0,4.9-1.2,6.3c-1.2,1.8-2.8,0-3.3-1.8L972.7,173.8z"/>
		<path d="M1005.3,181.1c0,0-1.2-4.1-3.3-7.1s-6.1-4.7-6.1-4.7s2.6,3.2,3.7,7.7c1.2,4.5,1.4,6.5,1.4,6.5l-2.4-1.4l-1.9,4
			c0,0,0.9-5.3-1.2-10.1c-1.9-4.7-3.3-6.1-3.3-6.1c0.5-8.5-3.2-13-10.7-13.6l5.6-5.7c6.6-0.2,10.5,7.9,9.8,14.8
			c5.1,3.2,9.8,7.7,14,12.1l-3.8,0.8L1005.3,181.1z"/>
	</g>
	<rect x="946.8" y="194.7" class="st2" width="92.4" height="17.8"/>
	<text transform="matrix(1.0255 0 0 1 946.7543 208.2407)" class="st3 st20">$767.062</text>
</g>
<g>
	<g>
		<path d="M1251.5,272.3c-0.5,0.6-1.2,1.4-2.1,2.4c-3.8-3.6-7.5-4.2-10.3-4.5c-8,13-17,20.6-28.8,28.7c-0.3,0-0.7,0.2-1.1,0.4
			c-2.1,1.4-3,3.8-3.5,6.7c-1.2,6.7,0.9,14.8,7.2,16.2c3.7,0.8,6.1,0.2,7.7-1.8c1.2-1.4,6.5-7.5,13.3-14.6
			c7.7-7.9,17-15.4,20.8-18.6c3.5-3,2.8-7.7,0.3-11.3c-0.9-1.4-2.1-2.6-3.3-3.4L1251.5,272.3z M1222.3,315
			c0.5-3.6,0.3-10.3,0.2-12.5c0.9-0.4,2.6-1.6,5.8-4c8.9-6.7,16.1-14.6,23.4-23.3c2.6,2.4,4.9,7.3,1.8,10.1
			c-3.7,3-13.5,10.9-21,18.6C1228.4,308.3,1224.7,312.3,1222.3,315z M1218.9,318.8c-1.1,1.4-2.8,1.8-5.6,1.2
			c-5.8-1.4-7-9.5-5.4-15.2c1.6-5.5,6.5-4.7,8-0.8l-6.3,6.3c0.2,0.6,0.5,4.5,3.7,5.5c2.3,0.8,4.2-1.6,4.9-4.3c0.3-1.8,0.5-4,0-6.5
			c-0.3-3-2.1-5.1-4.4-6.1c11-7.7,18.5-14.2,26.1-26.1c3.2,0.6,5.2,1.4,7.9,3.6c-7.3,8.5-22.4,24.5-27.4,24.5
			c0,1.2,0.5,11.3-0.2,14.8C1220,316.8,1219.6,318,1218.9,318.8z M1216.5,306.5c0.2,2.2,0,4.9-1.2,6.3c-1.2,1.8-2.8,0-3.3-1.8
			L1216.5,306.5z"/>
		<path d="M1249.2,313.8c0,0-1.2-4.2-3.3-7.1s-6.1-4.7-6.1-4.7s2.6,3.2,3.7,7.7c1.2,4.5,1.4,6.5,1.4,6.5l-2.4-1.4l-1.9,4
			c0,0,0.9-5.3-1.2-10.1c-1.9-4.7-3.3-6.1-3.3-6.1c0.5-8.5-3.2-13-10.7-13.6l5.6-5.7c6.6-0.2,10.5,7.9,9.8,14.8
			c5.1,3.2,9.8,7.7,14,12.1l-3.8,0.8L1249.2,313.8z"/>
	</g>
	<rect x="1184.1" y="330.4" class="st2" width="109" height="19.1"/>
	<text transform="matrix(1.0255 0 0 1 1184.1283 343.9477)" class="st3 st20">$934.793</text>
</g>
<g>
	<rect x="285.6" y="198.6" class="st2" width="99.6" height="21.9"/>
	<text transform="matrix(1.0255 0 0 1 285.5658 212.1049)" class="st3 st20">$251.854</text>
	<path class="st21" d="M343.1,179.3c-0.6-0.4-1.3-0.6-2.1-0.5c-0.4,0-0.8,0.2-1.1,0.4l3.6,1.9c-1.1,1.6-2,3.3-2.9,5.1
		c-0.6,1.3-1.1,2.6-1.5,4c-0.3,1.1-0.5,2.3-0.4,3.5c1.7-0.5,3.5-2.9,4.7-5.8c0.8-1.8,1.2-3.9,1.2-6.1
		C344.4,180.6,343.8,179.7,343.1,179.3z"/>
	<path class="st21" d="M318.9,156.1v7.4l19.9,9.1h0c1.5,0,3-0.1,4.5-0.3c3.9-0.7,6.4-2.1,6.4-3.6v-12.2l-12.2,5.3L318.9,156.1z"/>
	<polygon class="st21" points="333,140.8 306.6,150 318.9,153.7 337.4,159.3 349.7,154 363.3,148.1 	"/>
	<path class="st21" d="M337,191c0-0.2,0-0.3,0.1-0.5s0.1-0.4,0.1-0.6l0-0.1c0.5-1.7,1-3.3,1.8-4.8c0.4-1,0.9-1.9,1.5-2.8
		c0,0,0-0.1,0-0.1l-2.4-1.2c-0.6,0.8-1,1.6-1.4,2.6c-0.5,1.2-1,2.4-1.3,3.7l-28.1-16l-0.2,1c-0.2,1.5-0.2,3,0.6,3.5l29.6,18
		C336.9,193,336.8,192.2,337,191z"/>
	<path class="st21" d="M335,182.2c1.7-4.1,4.6-6.5,6.9-5.7l-0.1,0l-30.9-14.1c-1.2-0.6-2.8,1-3.7,3.8c-0.2,0.6-0.4,1.3-0.5,1.9
		l27.8,15.8C334.6,183.3,334.8,182.8,335,182.2z"/>
</g>
</svg>
