<?xml version="1.0" encoding="utf-8"?>
<!-- Generator: Adobe Illustrator 22.0.1, SVG Export Plug-In . SVG Version: 6.00 Build 0)  -->
<svg version="1.1" id="Capa_1" xmlns="http://www.w3.org/2000/svg" xmlns:xlink="http://www.w3.org/1999/xlink" x="0px" y="0px"
	 viewBox="0 0 1500.3 410.1" style="enable-background:new 0 0 1500.3 410.1;" xml:space="preserve">
<style type="text/css">
	.st0{opacity:0.8;fill:#DCF4F3;stroke:#416190;stroke-width:5;stroke-miterlimit:5.83;}
	.st1{fill:none;stroke:#000000;stroke-width:3.0401;stroke-miterlimit:10;}
	.st2{fill:none;}
	.st3{font-family:'ArialMT';}
	.st4{font-size:16px;}
	.st5{letter-spacing:27.6;}
	.st6{letter-spacing:9.2;}
	.st7{fill:#FF0000;}
	.st8{font-size:21px;}
	.st9{font-family:'Verdana-Bold';}
	.st10{font-size:12.243px;}
	.st11{fill:none;stroke:#000000;stroke-width:0.1458;stroke-miterlimit:5.83;}
	.st12{fill:#FCEE21;}
	.st13{font-size:16.6514px;}
	.st14{fill:#FF0000;stroke:#FF0000;stroke-width:1.3343;stroke-miterlimit:10;}
	.st15{font-size:18px;}
	.st16{fill:#FF0000;stroke:#FF0000;stroke-width:0.2169;stroke-miterlimit:10;}
	.st17{fill:#FF0000;stroke:#FF0000;stroke-width:0.1414;stroke-miterlimit:10;}
</style>
<path class="st0" d="M45,2.5h1410.5c23.5,0,42.5,19,42.5,42.5v320.2c0,23.5-19,42.5-42.5,42.5H45c-23.5,0-42.5-19-42.5-42.5V45
	C2.5,21.5,21.5,2.5,45,2.5z"/>
<rect x="96.1" y="232.5" class="st1" width="1385.4" height="21.3"/>
<rect x="110" y="236.9" class="st2" width="1371.8" height="36.8"/>
<text transform="matrix(0.9794 0 0 1 110.0317 248.8955)" class="st3 st4">$100.000</text>
<text transform="matrix(0.9794 0 0 1 175.3779 248.8955)" class="st3 st4 st5"> </text>
<text transform="matrix(0.9794 0 0 1 207.8848 248.8955)" class="st3 st4 st5"> </text>
<text transform="matrix(0.9794 0 0 1 240.498 248.8955)" class="st3 st4">$200.000</text>
<text transform="matrix(0.9794 0 0 1 305.8442 248.8955)" class="st3 st4 st5"> </text>
<text transform="matrix(0.9794 0 0 1 338.3496 248.8955)" class="st3 st4 st5"> </text>
<text transform="matrix(0.9794 0 0 1 370.9639 248.8955)" class="st3 st4">$300.000</text>
<text transform="matrix(0.9794 0 0 1 436.3086 248.8955)" class="st3 st4 st5"> </text>
<text transform="matrix(0.9794 0 0 1 468.8154 248.8955)" class="st3 st4 st5"> </text>
<text transform="matrix(0.9794 0 0 1 501.4297 248.8955)" class="st3 st4">$400.000</text>
<text transform="matrix(0.9794 0 0 1 566.7744 248.8955)" class="st3 st4 st5"> </text>
<text transform="matrix(0.9794 0 0 1 599.2813 248.8955)" class="st3 st4 st5"> </text>
<text transform="matrix(0.9794 0 0 1 631.9063 248.8955)" class="st3 st4">$500.000</text>
<text transform="matrix(0.9794 0 0 1 697.252 248.8955)" class="st3 st4 st5"> </text>
<text transform="matrix(0.9794 0 0 1 729.7471 248.8955)" class="st3 st4 st5"> </text>
<text transform="matrix(0.9794 0 0 1 762.3711 248.8955)" class="st3 st4">$600.000</text>
<text transform="matrix(0.9794 0 0 1 827.7168 248.8955)" class="st3 st4 st5"> </text>
<text transform="matrix(0.9794 0 0 1 860.2227 248.8955)" class="st3 st4 st5"> </text>
<text transform="matrix(0.9794 0 0 1 892.8369 248.8955)" class="st3 st4">$700.000</text>
<text transform="matrix(0.9794 0 0 1 958.1826 248.8955)" class="st3 st4 st5"> </text>
<text transform="matrix(0.9794 0 0 1 990.6895 248.8955)" class="st3 st4 st5"> </text>
<text transform="matrix(0.9794 0 0 1 1023.3027 248.8955)" class="st3 st4">$800.000</text>
<text transform="matrix(0.9794 0 0 1 1088.6484 248.8955)" class="st3 st4 st5"> </text>
<text transform="matrix(0.9794 0 0 1 1121.1543 248.8955)" class="st3 st4 st5"> </text>
<text transform="matrix(0.9794 0 0 1 1153.7695 248.8955)" class="st3 st4">$900.000</text>
<text transform="matrix(0.9794 0 0 1 1219.1152 248.8955)" class="st3 st4 st5"> </text>
<text transform="matrix(0.9794 0 0 1 1251.6211 248.8955)" class="st3 st4 st5"> </text>
<text transform="matrix(0.9794 0 0 1 1284.2344 248.8955)" class="st3 st4">$1.000.000 </text>
<text transform="matrix(0.9794 0 0 1 1367.0039 248.8955)" class="st3 st4 st6"> </text>
<text transform="matrix(0.9794 0 0 1 1382.0859 248.8955)" class="st3 st4 st5"> </text>
<text transform="matrix(0.9794 0 0 1 1414.7012 248.8955)" class="st3 st4">   +++</text>
<path class="st7" d="M618.8,153.5h-3.7c-0.6-2.3-1.4-4.2-2.8-6.1l3.2-3.1c0.2-0.2,0.4-0.6,0.4-0.8c0-0.4-0.2-0.6-0.4-0.8l-4.1-4
	c-0.4-0.4-1.2-0.4-1.8,0l-3.2,3.1c-1.8-1.2-3.7-1.9-5.7-2.5v-4c0-0.6-0.6-1.2-1.2-1.2h-5.8c-0.6,0-1.2,0.6-1.2,1.2v3.9
	c-2.2,0.4-4.1,1.3-5.9,2.3l-3.4-3.3c-0.4-0.4-1.2-0.4-1.8,0l-4.1,4c-0.2,0.2-0.4,0.6-0.4,0.8s0.2,0.6,0.4,0.8l3.4,3.3
	c-1.2,1.9-2.2,4-2.8,6.4h-3.8c-0.6,0-1.2,0.6-1.2,1.2v5.8c0,0.6,0.6,1.2,1.2,1.2h3.7c0.3,2,1.3,3.7,2.1,5.4l3-3.6
	c-0.8-1.8-1.3-3.8-1.3-5.9c0-8,6.6-14.5,14.8-14.5s14.8,6.5,14.8,14.5s-6.6,14.5-14.8,14.5c-1.4,0-2.9-0.2-4.2-0.6l-2.9,3.4
	c0.9,0.3,1.9,0.6,2.9,0.8v3.3c0,0.6,0.6,1.2,1.2,1.2h5.9c0.6,0,1.2-0.6,1.2-1.2v-3.5c2.3-0.6,4.3-1.3,6.3-2.7l2.6,2.5
	c0.2,0.2,0.6,0.4,0.8,0.4s0.6-0.2,0.8-0.4l4.1-4c0.2-0.2,0.4-0.6,0.4-0.8c0-0.4-0.2-0.6-0.4-0.8l-2.6-2.5c1.2-1.7,2-3.6,2.3-5.8h3.7
	c0.6,0,1.2-0.6,1.2-1.2v-5.8C620,154.1,619.6,153.5,618.8,153.5z"/>
<path class="st7" d="M608.2,156.1c-0.2-1.8-0.8-3.6-2-5.2l-7.2,8.3l-4.7-3.8l7.2-8.2c-1.7-0.7-3.4-1-5.2-0.8
	c-6,0.5-10.5,5.7-10,11.6c0.1,1.2,0.4,2.4,0.9,3.5l0.1,0.1l-17.4,20.1c-0.7,0.8-1.1,2-1,3.1s0.6,2.1,1.5,2.8s2,1.1,3.2,1
	c1.1-0.1,2.2-0.6,2.9-1.5l17.2-19.8l0.2,0.1c1.4,0.5,2.9,0.6,4.4,0.5C604.2,167.3,608.7,162.1,608.2,156.1z M573.4,185.5
	c-0.9,0.1-1.5-0.6-1.6-1.3c-0.1-0.8,0.6-1.5,1.4-1.6c0.9-0.1,1.5,0.6,1.6,1.3C574.8,184.8,574.3,185.5,573.4,185.5z"/>
<rect x="710.1" y="376.7" class="st2" width="92" height="32.3"/>
<text transform="matrix(0.9794 0 0 1 710.0498 392.4619)" class="st3 st8">$590.553</text>
<rect x="587.1" y="19.3" class="st2" width="439.9" height="108.7"/>
<text transform="matrix(1 0 0 1 731.832 35.1055)" class="st9 st8"> O’ HIGGINS Vl</text>
<text transform="matrix(1 0 0 1 578.0972 85.5054)" class="st9 st8">Población</text>
<text transform="matrix(1 0 0 1 692.6971 85.5054)" class="st3 st8">: </text>
<text transform="matrix(1 0 0 1 703.8276 85.5054)" class="st3 st8">914.555   </text>
<text transform="matrix(1 0 0 1 786.2338 85.5054)" class="st9 st8">Superficie:</text>
<text transform="matrix(1 0 0 1 909.8828 85.5054)" class="st3 st8"> 16.387,0 km</text>
<text transform="matrix(1 0 0 1 1011.2812 78.5127)" class="st3 st10">2</text>
<text transform="matrix(1 0 0 1 1011.2812 78.5127)" class="st11 st3 st10">2</text>
<rect x="752.2" y="124" class="st12" width="4.5" height="244"/>
<rect x="13.5" y="176.5" class="st2" width="105.4" height="23.7"/>
<text transform="matrix(0.9794 0 0 1 13.4834 188.4668)" class="st9 st13">MUJERES</text>
<rect x="13.5" y="298" class="st2" width="96.2" height="26"/>
<text transform="matrix(0.9794 0 0 1 13.4834 309.9111)" class="st9 st13">HOMBRES</text>
<rect x="212.6" y="60.8" class="st2" width="80.5" height="23.3"/>
<g>
	<g>
		<path class="st14" d="M441.1,290.9h-13.8c-1.7,0-3.2,1.6-3.2,3.6v15.8c0,2,1.4,3.6,3.2,3.6h13.8c1.7,0,3.2-1.6,3.2-3.6v-15.8
			C444.3,292.5,442.9,290.9,441.1,290.9z M443.2,310.3c0,1.3-0.9,2.3-2.1,2.3h-13.8c-1.1,0-2.1-1.1-2.1-2.3v-15.8
			c0-1.3,0.9-2.3,2.1-2.3h13.8c1.1,0,2.1,1.1,2.1,2.3V310.3L443.2,310.3z"/>
		<path class="st14" d="M436.5,301.3c1-0.5,1.5-1.1,1.5-2.5c0-1.7-1-3.1-3.6-3.1h-4v11.6h4.4c2.6,0,3.7-1.5,3.7-3.2
			C438.6,302.7,437.8,301.6,436.5,301.3z M432.2,297.6h2.2c1.1,0,1.8,0.3,1.8,1.6c0,1-0.6,1.4-1.9,1.4h-2.2L432.2,297.6L432.2,297.6
			z M434.9,305.6h-2.7v-3.2h2.5c1.4,0,2.2,0.5,2.2,1.5C436.8,305.3,436.1,305.6,434.9,305.6z"/>
		<path class="st14" d="M452.8,289.1c1.7,0,3.2-1.6,3.2-3.6v-15.8c0-2-1.4-3.6-3.2-3.6H439c-1.7,0-3.2,1.6-3.2,3.6v15.8
			c0,2,1.4,3.6,3.2,3.6H452.8L452.8,289.1z M436.9,285.5v-15.8c0-1.3,0.9-2.3,2.1-2.3h13.8c1.1,0,2.1,1.1,2.1,2.3v15.8
			c0,1.3-0.9,2.3-2.1,2.3H439C437.9,287.8,436.9,286.8,436.9,285.5z"/>
		<path class="st14" d="M443.4,279.9h5.1l1,2.6h1.8l-4.5-11.6H445l-4.5,11.6h1.8L443.4,279.9z M445.9,273.3l1.8,4.8H444L445.9,273.3
			z"/>
		<path class="st14" d="M464.6,290.9h-13.8c-1.7,0-3.2,1.6-3.2,3.6v15.8c0,2,1.4,3.6,3.2,3.6h13.8c1.7,0,3.2-1.6,3.2-3.6v-15.8
			C467.8,292.5,466.3,290.9,464.6,290.9z M466.7,310.3c0,1.3-0.9,2.3-2.1,2.3h-13.8c-1.1,0-2.1-1.1-2.1-2.3v-15.8
			c0-1.3,0.9-2.3,2.1-2.3h13.8c1.1,0,2.1,1.1,2.1,2.3V310.3L466.7,310.3z"/>
		<path class="st14" d="M458.5,297.4c1.2,0,2,0.4,2.9,1.4l1.1-1.4c-1-1.3-2.4-2-3.9-2c-3.2,0-5.5,2.6-5.5,6c0,3.5,2.3,6,5.3,6
			c1.5,0,2.8-0.7,3.9-2l-1.1-1.3c-1,1.1-1.8,1.4-2.9,1.4c-1.8,0-3.5-1.7-3.5-4.1C454.9,299,456.5,297.4,458.5,297.4z"/>
	</g>
	<rect x="406.7" y="321.1" class="st2" width="84.3" height="24.1"/>
	<text transform="matrix(1 0 0 1 406.7056 334.5946)" class="st3 st15">$332.447</text>
</g>
<g>
	<g>
		<path class="st14" d="M290.9,169.8h-13.8c-1.7,0-3.2,1.6-3.2,3.6v15.8c0,2,1.4,3.6,3.2,3.6h13.8c1.7,0,3.2-1.6,3.2-3.6v-15.8
			C294.1,171.4,292.7,169.8,290.9,169.8z M293,189.2c0,1.3-0.9,2.3-2.1,2.3h-13.8c-1.1,0-2.1-1.1-2.1-2.3v-15.8
			c0-1.3,0.9-2.4,2.1-2.4h13.8c1.1,0,2.1,1.1,2.1,2.4V189.2L293,189.2z"/>
		<path class="st14" d="M286.3,180.2c1-0.5,1.5-1.1,1.5-2.5c0-1.7-1-3.1-3.6-3.1h-4v11.6h4.4c2.6,0,3.7-1.5,3.7-3.2
			C288.4,181.6,287.6,180.5,286.3,180.2z M282,176.5h2.2c1.1,0,1.8,0.3,1.8,1.6c0,1-0.6,1.4-1.9,1.4h-2.2L282,176.5L282,176.5z
			 M284.7,184.5H282v-3.2h2.5c1.4,0,2.2,0.5,2.2,1.5C286.6,184.2,285.9,184.5,284.7,184.5z"/>
		<path class="st14" d="M302.6,168c1.7,0,3.2-1.6,3.2-3.6v-15.8c0-2-1.4-3.6-3.2-3.6h-13.8c-1.7,0-3.2,1.6-3.2,3.6v15.8
			c0,2,1.4,3.6,3.2,3.6H302.6L302.6,168z M286.7,164.4v-15.8c0-1.3,0.9-2.4,2.1-2.4h13.8c1.1,0,2.1,1.1,2.1,2.4v15.8
			c0,1.3-0.9,2.4-2.1,2.4h-13.8C287.7,166.7,286.7,165.7,286.7,164.4z"/>
		<path class="st14" d="M293.2,158.8h5.1l1,2.6h1.8l-4.5-11.6h-1.8l-4.5,11.6h1.8L293.2,158.8z M295.7,152.2l1.8,4.8h-3.7
			L295.7,152.2z"/>
		<path class="st14" d="M314.4,169.8h-13.8c-1.7,0-3.2,1.6-3.2,3.6v15.8c0,2,1.4,3.6,3.2,3.6h13.8c1.7,0,3.2-1.6,3.2-3.6v-15.8
			C317.6,171.4,316.1,169.8,314.4,169.8z M316.5,189.2c0,1.3-0.9,2.3-2.1,2.3h-13.8c-1.1,0-2.1-1.1-2.1-2.3v-15.8
			c0-1.3,0.9-2.4,2.1-2.4h13.8c1.1,0,2.1,1.1,2.1,2.4V189.2L316.5,189.2z"/>
		<path class="st14" d="M308.3,176.3c1.2,0,2,0.4,2.9,1.4l1.1-1.4c-1-1.3-2.4-2-3.9-2c-3.2,0-5.5,2.6-5.5,6c0,3.5,2.3,6,5.3,6
			c1.5,0,2.8-0.7,3.9-2L311,183c-1,1.1-1.8,1.4-2.9,1.4c-1.8,0-3.5-1.7-3.5-4.1C304.7,177.9,306.3,176.3,308.3,176.3z"/>
	</g>
	<rect x="251" y="199.4" class="st2" width="93.1" height="18.8"/>
	<text transform="matrix(1.0255 0 0 1 250.9541 212.9063)" class="st3 st15">$216.599</text>
</g>
<g>
	<path class="st16" d="M586.1,307.3c-0.6-0.4-1.3-0.6-2.1-0.5c-0.4,0-0.8,0.2-1.1,0.4l3.6,1.8c-1.1,1.6-2,3.3-2.9,5.1
		c-0.6,1.2-1.1,2.6-1.5,4c-0.3,1.1-0.5,2.3-0.4,3.5c1.7-0.5,3.5-2.9,4.7-5.8c0.8-1.8,1.2-3.9,1.2-6.1
		C587.4,308.7,586.8,307.8,586.1,307.3z"/>
	<path class="st16" d="M561.9,284.1v7.4l19.9,9.1l0,0c1.5,0,3-0.1,4.5-0.3c3.9-0.7,6.4-2.1,6.4-3.6v-12.2l-12.2,5.3L561.9,284.1z"/>
	<polygon class="st16" points="576,268.8 549.6,278 561.9,281.7 580.4,287.3 592.7,282 606.3,276.1 	"/>
	<path class="st16" d="M579.9,319c0-0.2,0-0.3,0.1-0.5s0.1-0.4,0.1-0.6v-0.1c0.5-1.7,1-3.3,1.8-4.8c0.4-1,0.9-1.9,1.5-2.8v-0.1
		l-2.4-1.2c-0.6,0.8-1,1.6-1.4,2.6c-0.5,1.2-1,2.4-1.3,3.7l-28.1-16l-0.2,1c-0.2,1.5-0.2,3,0.6,3.5l29.6,18
		C579.9,321,579.8,320.2,579.9,319z"/>
	<path class="st16" d="M578,310.3c1.7-4.1,4.6-6.5,6.9-5.7h-0.1l-30.9-14.1c-1.2-0.6-2.8,1-3.7,3.8c-0.2,0.6-0.4,1.3-0.5,1.9
		l27.8,15.8C577.6,311.3,577.8,310.8,578,310.3z"/>
	<rect x="539" y="328" class="st2" width="100" height="21"/>
	<text transform="matrix(1.0255 0 0 1 539.043 341.5703)" class="st3 st15">$433.227</text>
</g>
<rect x="544.3" y="198.6" class="st2" width="103.7" height="22.3"/>
<text transform="matrix(1.0255 0 0 1 544.3311 212.124)" class="st3 st15">$440.510</text>
<g>
	<path class="st17" d="M728.8,287.3h-3.7c-0.6-2.3-1.4-4.2-2.8-6.2l3.2-3.1c0.2-0.2,0.4-0.6,0.4-0.8c0-0.4-0.2-0.6-0.4-0.8l-4.1-4
		c-0.4-0.4-1.2-0.4-1.8,0l-3.2,3.1c-1.8-1.2-3.7-1.9-5.7-2.5v-4c0-0.6-0.6-1.2-1.2-1.2h-5.9c-0.6,0-1.2,0.6-1.2,1.2v3.9
		c-2.2,0.4-4.1,1.3-5.9,2.3l-3.4-3.3c-0.4-0.4-1.2-0.4-1.8,0l-4.1,4c-0.2,0.2-0.4,0.6-0.4,0.8c0,0.2,0.2,0.6,0.4,0.8l3.4,3.3
		c-1.2,1.9-2.2,4-2.8,6.4H684c-0.6,0-1.2,0.6-1.2,1.2v5.8c0,0.6,0.6,1.2,1.2,1.2h3.7c0.3,2,1.3,3.7,2.1,5.4l3-3.6
		c-0.8-1.8-1.3-3.8-1.3-5.9c0-8,6.6-14.5,14.8-14.5s14.8,6.5,14.8,14.5s-6.6,14.5-14.8,14.5c-1.4,0-2.9-0.2-4.2-0.6l-2.9,3.3
		c0.9,0.3,1.9,0.6,2.9,0.8v3.3c0,0.6,0.6,1.2,1.2,1.2h5.9c0.6,0,1.2-0.6,1.2-1.2v-3.5c2.3-0.6,4.3-1.3,6.3-2.7l2.6,2.5
		c0.2,0.2,0.6,0.4,0.8,0.4s0.6-0.2,0.8-0.4l4.1-4c0.2-0.2,0.4-0.6,0.4-0.8c0-0.4-0.2-0.6-0.4-0.8l-2.6-2.5c1.2-1.7,2-3.6,2.3-5.8
		h3.7c0.6,0,1.2-0.6,1.2-1.2V288C730,288,729.6,287.3,728.8,287.3z"/>
	<path class="st17" d="M718.1,290c-0.2-1.8-0.8-3.6-1.9-5.2l-7.2,8.3l-4.7-3.8l7.2-8.2c-1.7-0.7-3.4-1-5.2-0.8
		c-6,0.5-10.5,5.7-10,11.6c0.1,1.2,0.4,2.3,0.9,3.5l0.1,0.1l-17.4,20.1c-0.7,0.8-1.1,2-1,3.1s0.6,2.1,1.5,2.8s2,1.1,3.2,1
		c1.1-0.1,2.2-0.6,2.9-1.5l17.2-19.8l0.2,0.1c1.4,0.5,2.9,0.6,4.4,0.5C714.1,301.1,718.7,295.9,718.1,290z M683.4,319.4
		c-0.9,0.1-1.5-0.6-1.6-1.3c-0.1-0.8,0.6-1.5,1.4-1.6c0.9-0.1,1.5,0.6,1.6,1.3C684.8,318.6,684.2,319.3,683.4,319.4z"/>
	<rect x="658" y="331.4" class="st2" width="86.8" height="19.6"/>
	<text transform="matrix(1.0255 0 0 1 658.043 344.957)" class="st3 st15">$525.007</text>
</g>
<g>
	<g>
		<path d="M989.5,140.1c-0.5,0.6-1.2,1.4-2.1,2.4c-3.8-3.6-7.5-4.1-10.3-4.5c-8,13-17,20.6-28.8,28.7c-0.3,0-0.7,0.2-1.1,0.4
			c-2.1,1.4-3,3.8-3.5,6.7c-1.2,6.7,0.9,14.8,7.2,16.2c3.7,0.8,6.1,0.2,7.7-1.8c1.2-1.4,6.5-7.5,13.3-14.6
			c7.7-7.9,17-15.4,20.8-18.6c3.5-3,2.8-7.7,0.3-11.3c-0.9-1.4-2.1-2.6-3.3-3.4L989.5,140.1z M960.3,182.8
			c0.5-3.6,0.3-10.3,0.2-12.5c0.9-0.4,2.6-1.6,5.8-4c8.9-6.7,16.1-14.6,23.4-23.3c2.6,2.4,4.9,7.3,1.8,10.1
			c-3.7,3-13.5,10.9-21,18.6C966.5,176.1,962.8,180,960.3,182.8z M957,186.6c-1.1,1.4-2.8,1.8-5.6,1.2c-5.8-1.4-7-9.5-5.4-15.2
			c1.6-5.5,6.5-4.7,8-0.8l-6.3,6.3c0.2,0.6,0.5,4.6,3.7,5.5c2.3,0.8,4.2-1.6,4.9-4.4c0.3-1.8,0.5-4,0-6.5c-0.3-3-2.1-5.1-4.4-6.1
			c11-7.7,18.5-14.2,26.1-26.1c3.2,0.6,5.2,1.4,7.9,3.6c-7.3,8.5-22.4,24.5-27.4,24.5c0,1.2,0.5,11.3-0.2,14.8
			C958.1,184.6,957.7,185.8,957,186.6z M954.6,174.3c0.2,2.2,0,4.9-1.2,6.3c-1.2,1.8-2.8,0-3.3-1.8L954.6,174.3z"/>
		<path d="M987.3,181.6c0,0-1.2-4.1-3.3-7.1s-6.1-4.7-6.1-4.7s2.6,3.2,3.7,7.7c1.2,4.5,1.4,6.5,1.4,6.5l-2.4-1.4l-1.9,4
			c0,0,0.9-5.3-1.2-10.1c-1.9-4.7-3.3-6.1-3.3-6.1c0.5-8.5-3.2-13-10.7-13.6l5.6-5.7c6.6-0.2,10.5,7.9,9.8,14.8
			c5.1,3.2,9.8,7.7,14,12.1l-3.8,0.8L987.3,181.6z"/>
	</g>
	<rect x="928.7" y="195.2" class="st2" width="92.4" height="17.8"/>
	<text transform="matrix(1.0255 0 0 1 928.6689 208.7246)" class="st3 st15">$741.249</text>
</g>
<g>
	<g>
		<path d="M1253.4,272.8c-0.5,0.6-1.2,1.4-2.1,2.4c-3.8-3.6-7.5-4.2-10.3-4.5c-8,13-17,20.6-28.8,28.7c-0.3,0-0.7,0.2-1.1,0.4
			c-2.1,1.4-3,3.8-3.5,6.7c-1.2,6.7,0.9,14.8,7.2,16.2c3.7,0.8,6.1,0.2,7.7-1.8c1.2-1.4,6.5-7.5,13.3-14.6
			c7.7-7.9,17-15.4,20.8-18.6c3.5-3,2.8-7.7,0.3-11.3c-0.9-1.4-2.1-2.6-3.3-3.4L1253.4,272.8z M1224.2,315.5
			c0.5-3.6,0.3-10.3,0.2-12.5c0.9-0.4,2.6-1.6,5.8-4c8.9-6.7,16.1-14.6,23.4-23.3c2.6,2.4,4.9,7.3,1.8,10.1
			c-3.7,3-13.5,10.9-21,18.6C1230.3,308.8,1226.6,312.8,1224.2,315.5z M1220.9,319.3c-1.1,1.4-2.8,1.8-5.6,1.2
			c-5.8-1.4-7-9.5-5.4-15.2c1.6-5.5,6.5-4.7,8-0.8l-6.3,6.3c0.2,0.6,0.5,4.5,3.7,5.5c2.3,0.8,4.2-1.6,4.9-4.3c0.3-1.8,0.5-4,0-6.5
			c-0.3-3-2.1-5.1-4.4-6.1c11-7.7,18.5-14.2,26.1-26.1c3.2,0.6,5.2,1.4,7.9,3.6c-7.3,8.5-22.4,24.5-27.4,24.5
			c0,1.2,0.5,11.3-0.2,14.8C1221.9,317.3,1221.6,318.5,1220.9,319.3z M1218.4,307c0.2,2.2,0,4.9-1.2,6.3c-1.2,1.8-2.8,0-3.3-1.8
			L1218.4,307z"/>
		<path d="M1251.1,314.3c0,0-1.2-4.2-3.3-7.1s-6.1-4.7-6.1-4.7s2.6,3.2,3.7,7.7c1.2,4.5,1.4,6.5,1.4,6.5l-2.4-1.4l-1.9,4
			c0,0,0.9-5.3-1.2-10.1c-1.9-4.7-3.3-6.1-3.3-6.1c0.5-8.5-3.2-13-10.7-13.6l5.6-5.7c6.6-0.2,10.5,7.9,9.8,14.8
			c5.1,3.2,9.8,7.7,14,12.1l-3.8,0.8L1251.1,314.3z"/>
	</g>
	<rect x="1186" y="330.9" class="st2" width="109" height="19.1"/>
	<text transform="matrix(1.0255 0 0 1 1186.043 344.4316)" class="st3 st15">$931.845</text>
</g>
<g>
	<rect x="369.5" y="199.1" class="st2" width="99.6" height="21.9"/>
	<text transform="matrix(1.0255 0 0 1 369.4805 212.5889)" class="st3 st15">$299.562</text>
	<path class="st16" d="M427,179.8c-0.6-0.4-1.3-0.6-2.1-0.5c-0.4,0-0.8,0.2-1.1,0.4l3.6,1.9c-1.1,1.6-2,3.3-2.9,5.1
		c-0.6,1.2-1.1,2.6-1.5,4c-0.3,1.1-0.5,2.3-0.4,3.5c1.7-0.5,3.5-2.9,4.7-5.8c0.8-1.8,1.2-3.9,1.2-6.1
		C428.3,181.1,427.8,180.2,427,179.8z"/>
	<path class="st16" d="M402.8,156.6v7.4l19.9,9.1l0,0c1.5,0,3-0.1,4.5-0.3c3.9-0.7,6.4-2.1,6.4-3.6V157l-12.2,5.3L402.8,156.6z"/>
	<polygon class="st16" points="416.9,141.2 390.6,150.5 402.8,154.2 421.3,159.8 433.6,154.5 447.2,148.6 	"/>
	<path class="st16" d="M420.9,191.5c0-0.2,0-0.3,0.1-0.5s0.1-0.4,0.1-0.6v-0.1c0.5-1.7,1-3.3,1.8-4.8c0.4-1,0.9-1.9,1.5-2.8v-0.1
		l-2.4-1.2c-0.6,0.8-1,1.6-1.4,2.6c-0.5,1.2-1,2.4-1.3,3.7l-28.1-16l-0.2,1c-0.2,1.5-0.2,3,0.6,3.5l29.6,18
		C420.8,193.5,420.7,192.6,420.9,191.5z"/>
	<path class="st16" d="M418.9,182.7c1.7-4.1,4.6-6.5,6.9-5.7h-0.1l-30.9-14.1c-1.2-0.6-2.8,1-3.7,3.8c-0.2,0.6-0.4,1.3-0.5,1.9
		l27.8,15.8C418.5,183.8,418.7,183.2,418.9,182.7z"/>
</g>
</svg>
