<?xml version="1.0" encoding="utf-8"?>
<!-- Generator: Adobe Illustrator 24.2.3, SVG Export Plug-In . SVG Version: 6.00 Build 0)  -->
<svg version="1.1" id="Capa_1" xmlns="http://www.w3.org/2000/svg" xmlns:xlink="http://www.w3.org/1999/xlink" x="0px" y="0px"
	 viewBox="0 0 1498.3 406.5" style="enable-background:new 0 0 1498.3 406.5;" xml:space="preserve">
<style type="text/css">
	.st0{fill:#DCF4F3;fill-opacity:0.8;stroke:#416190;stroke-width:5;stroke-miterlimit:5.83;}
	.st1{fill:none;stroke:#000000;stroke-width:3.0401;stroke-miterlimit:10;}
	.st2{fill:none;}
	.st3{font-family:'Optima-Bold';}
	.st4{font-size:16px;}
	.st5{letter-spacing:27.6;}
	.st6{letter-spacing:9.2;}
	.st7{fill:#FF0000;}
	.st8{font-size:21px;}
	.st9{font-family:'Verdana-Bold';}
	.st10{enable-background:new    ;}
	.st11{font-family:'Optima-Regular';}
	.st12{font-size:12.243px;}
	.st13{fill:none;stroke:#000000;stroke-width:0.1458;stroke-miterlimit:5.83;}
	.st14{fill:#FCEE21;}
	.st15{font-size:16.6514px;}
	.st16{fill:#FF0000;stroke:#FF0000;stroke-width:1.3343;stroke-miterlimit:10;}
	.st17{font-size:18px;}
	.st18{fill:#FF0000;stroke:#FF0000;stroke-width:0.2169;stroke-miterlimit:10;}
	.st19{fill:#FF0000;stroke:#FF0000;stroke-width:0.1414;stroke-miterlimit:10;}
	.st20{fill-rule:evenodd;clip-rule:evenodd;}
</style>
<rect x="2.8" class="st0" width="1495.5" height="405.2"/>
<rect x="96.4" y="230" class="st1" width="1385.4" height="21.3"/>
<rect x="110.3" y="234.4" class="st2" width="1371.8" height="36.8"/>
<text transform="matrix(0.9794 0 0 1 110.3306 246.4005)" class="st3 st4">$100.000</text>
<text transform="matrix(0.9794 0 0 1 175.6763 246.4005)" class="st3 st4 st5"> </text>
<text transform="matrix(0.9794 0 0 1 208.1832 246.4005)" class="st3 st4 st5"> </text>
<text transform="matrix(0.9794 0 0 1 240.7964 246.4005)" class="st3 st4">$200.000</text>
<text transform="matrix(0.9794 0 0 1 306.1422 246.4005)" class="st3 st4 st5"> </text>
<text transform="matrix(0.9794 0 0 1 338.649 246.4005)" class="st3 st4 st5"> </text>
<text transform="matrix(0.9794 0 0 1 371.2632 246.4005)" class="st3 st4">$300.000</text>
<text transform="matrix(0.9794 0 0 1 436.608 246.4005)" class="st3 st4 st5"> </text>
<text transform="matrix(0.9794 0 0 1 469.1148 246.4005)" class="st3 st4 st5"> </text>
<text transform="matrix(0.9794 0 0 1 501.7291 246.4005)" class="st3 st4">$400.000</text>
<text transform="matrix(0.9794 0 0 1 567.0738 246.4005)" class="st3 st4 st5"> </text>
<text transform="matrix(0.9794 0 0 1 599.5806 246.4005)" class="st3 st4 st5"> </text>
<text transform="matrix(0.9794 0 0 1 632.2047 246.4005)" class="st3 st4">$500.000</text>
<text transform="matrix(0.9794 0 0 1 697.5504 246.4005)" class="st3 st4 st5"> </text>
<text transform="matrix(0.9794 0 0 1 730.0464 246.4005)" class="st3 st4 st5"> </text>
<text transform="matrix(0.9794 0 0 1 762.6705 246.4005)" class="st3 st4">$600.000</text>
<text transform="matrix(0.9794 0 0 1 828.0162 246.4005)" class="st3 st4 st5"> </text>
<text transform="matrix(0.9794 0 0 1 860.522 246.4005)" class="st3 st4 st5"> </text>
<text transform="matrix(0.9794 0 0 1 893.1363 246.4005)" class="st3 st4">$700.000</text>
<text transform="matrix(0.9794 0 0 1 958.482 246.4005)" class="st3 st4 st5"> </text>
<text transform="matrix(0.9794 0 0 1 990.9879 246.4005)" class="st3 st4 st5"> </text>
<text transform="matrix(0.9794 0 0 1 1023.6021 246.4005)" class="st3 st4">$800.000</text>
<text transform="matrix(0.9794 0 0 1 1088.9479 246.4005)" class="st3 st4 st5"> </text>
<text transform="matrix(0.9794 0 0 1 1121.4537 246.4005)" class="st3 st4 st5"> </text>
<text transform="matrix(0.9794 0 0 1 1154.068 246.4005)" class="st3 st4">$900.000</text>
<text transform="matrix(0.9794 0 0 1 1219.4137 246.4005)" class="st3 st4 st5"> </text>
<text transform="matrix(0.9794 0 0 1 1251.9196 246.4005)" class="st3 st4 st5"> </text>
<text transform="matrix(0.9794 0 0 1 1284.5338 246.4005)" class="st3 st4">$1.000.000 </text>
<text transform="matrix(0.9794 0 0 1 1367.3024 246.4005)" class="st3 st4 st6"> </text>
<text transform="matrix(0.9794 0 0 1 1382.3854 246.4005)" class="st3 st4 st5"> </text>
<text transform="matrix(0.9794 0 0 1 1414.9996 246.4005)" class="st3 st4">   +++</text>
<path class="st7" d="M619.1,151h-3.7c-0.6-2.3-1.4-4.2-2.8-6.1l3.2-3.1c0.2-0.2,0.4-0.6,0.4-0.8c0-0.4-0.2-0.6-0.4-0.8l-4.1-4
	c-0.4-0.4-1.2-0.4-1.8,0l-3.2,3.1c-1.8-1.2-3.7-1.9-5.7-2.5v-4c0-0.6-0.6-1.2-1.2-1.2H594c-0.6,0-1.2,0.6-1.2,1.2v3.9
	c-2.2,0.4-4.1,1.3-5.9,2.3l-3.4-3.3c-0.4-0.4-1.2-0.4-1.8,0l-4.1,4c-0.2,0.2-0.4,0.6-0.4,0.8c0,0.2,0.2,0.6,0.4,0.8l3.4,3.3
	c-1.2,1.9-2.2,4-2.8,6.4h-3.8c-0.6,0-1.2,0.6-1.2,1.2v5.8c0,0.6,0.6,1.2,1.2,1.2h3.7c0.3,2,1.3,3.7,2.1,5.4l3-3.6
	c-0.8-1.8-1.3-3.8-1.3-5.9c0-8,6.6-14.5,14.8-14.5s14.8,6.5,14.8,14.5s-6.6,14.5-14.8,14.5c-1.4,0-2.9-0.2-4.2-0.6l-2.9,3.4
	c0.9,0.3,1.9,0.6,2.9,0.8v3.3c0,0.6,0.6,1.2,1.2,1.2h5.9c0.6,0,1.2-0.6,1.2-1.2v-3.5c2.3-0.6,4.3-1.3,6.3-2.7l2.6,2.5
	c0.2,0.2,0.6,0.4,0.8,0.4s0.6-0.2,0.8-0.4l4.1-4c0.2-0.2,0.4-0.6,0.4-0.8c0-0.4-0.2-0.6-0.4-0.8l-2.6-2.5c1.2-1.7,2-3.6,2.3-5.8h3.7
	c0.6,0,1.2-0.6,1.2-1.2v-5.8C620.3,151.6,619.9,151,619.1,151z"/>
<path class="st7" d="M608.5,153.6c-0.2-1.8-0.8-3.6-2-5.2l-7.2,8.3l-4.7-3.8l7.2-8.2c-1.7-0.7-3.4-1-5.2-0.8
	c-6,0.5-10.5,5.7-10,11.6c0.1,1.2,0.4,2.4,0.9,3.5l0.1,0.1l-17.4,20.1c-0.7,0.8-1.1,2-1,3.1c0.1,1.1,0.6,2.1,1.5,2.8s2,1.1,3.2,1
	c1.1-0.1,2.2-0.6,2.9-1.5l17.2-19.8l0.2,0.1c1.4,0.5,2.9,0.6,4.4,0.5C604.5,164.8,609,159.6,608.5,153.6z M573.7,183
	c-0.9,0.1-1.5-0.6-1.6-1.3c-0.1-0.8,0.6-1.5,1.4-1.6c0.9-0.1,1.5,0.6,1.6,1.3C575.1,182.3,574.6,183,573.7,183z"/>
<rect x="710.4" y="374.2" class="st2" width="92" height="32.3"/>
<text transform="matrix(0.9794 0 0 1 710.3492 389.9669)" class="st3 st8">$590.553</text>
<rect x="587.4" y="16.8" class="st2" width="439.9" height="108.7"/>
<text transform="matrix(1 0 0 1 732.1305 32.6103)" class="st9 st8"> O’ HIGGINS Vl</text>
<text transform="matrix(1 0 0 1 578.3956 83.0102)" class="st10"><tspan x="0" y="0" class="st9 st8">Población</tspan><tspan x="114.6" y="0" class="st3 st8">: </tspan></text>
<text transform="matrix(1 0 0 1 704.1261 83.0102)" class="st11 st8">914.555   </text>
<text transform="matrix(1 0 0 1 786.5323 83.0102)" class="st9 st8">Superficie:</text>
<text transform="matrix(1 0 0 1 910.1812 83.0102)" class="st11 st8"> 16.387,0 km</text>
<text transform="matrix(1 0 0 1 1011.5797 76.0176)" class="st11 st12">2</text>
<text transform="matrix(1 0 0 1 1011.5797 76.0176)" class="st13 st11 st12">2</text>
<rect x="752.5" y="121.5" class="st14" width="4.5" height="244"/>
<rect x="13.8" y="174" class="st2" width="105.4" height="23.7"/>
<text transform="matrix(0.9794 0 0 1 13.7818 185.9717)" class="st9 st15">MUJERES</text>
<rect x="13.8" y="295.5" class="st2" width="96.2" height="26"/>
<text transform="matrix(0.9794 0 0 1 13.7818 307.4161)" class="st9 st15">HOMBRES</text>
<rect x="212.9" y="58.3" class="st2" width="80.5" height="23.3"/>
<g>
	<g>
		<path class="st16" d="M441.4,288.4h-13.8c-1.7,0-3.2,1.6-3.2,3.6v15.8c0,2,1.4,3.6,3.2,3.6h13.8c1.7,0,3.2-1.6,3.2-3.6V292
			C444.6,290,443.2,288.4,441.4,288.4z M443.5,307.8c0,1.3-0.9,2.3-2.1,2.3h-13.8c-1.1,0-2.1-1.1-2.1-2.3V292c0-1.3,0.9-2.3,2.1-2.3
			h13.8c1.1,0,2.1,1.1,2.1,2.3V307.8L443.5,307.8z"/>
		<path class="st16" d="M436.8,298.8c1-0.5,1.5-1.1,1.5-2.5c0-1.7-1-3.1-3.6-3.1h-4v11.6h4.4c2.6,0,3.7-1.5,3.7-3.2
			C438.9,300.2,438.1,299.1,436.8,298.8z M432.5,295.1h2.2c1.1,0,1.8,0.3,1.8,1.6c0,1-0.6,1.4-1.9,1.4h-2.2L432.5,295.1L432.5,295.1
			z M435.2,303.1h-2.7v-3.2h2.5c1.4,0,2.2,0.5,2.2,1.5C437.1,302.8,436.4,303.1,435.2,303.1z"/>
		<path class="st16" d="M453.1,286.6c1.7,0,3.2-1.6,3.2-3.6v-15.8c0-2-1.4-3.6-3.2-3.6h-13.8c-1.7,0-3.2,1.6-3.2,3.6V283
			c0,2,1.4,3.6,3.2,3.6H453.1L453.1,286.6z M437.2,283v-15.8c0-1.3,0.9-2.3,2.1-2.3h13.8c1.1,0,2.1,1.1,2.1,2.3V283
			c0,1.3-0.9,2.3-2.1,2.3h-13.8C438.2,285.3,437.2,284.3,437.2,283z"/>
		<path class="st16" d="M443.7,277.4h5.1l1,2.6h1.8l-4.5-11.6h-1.8l-4.5,11.6h1.8L443.7,277.4z M446.2,270.8l1.8,4.8h-3.7
			L446.2,270.8z"/>
		<path class="st16" d="M464.9,288.4h-13.8c-1.7,0-3.2,1.6-3.2,3.6v15.8c0,2,1.4,3.6,3.2,3.6h13.8c1.7,0,3.2-1.6,3.2-3.6V292
			C468.1,290,466.6,288.4,464.9,288.4z M467,307.8c0,1.3-0.9,2.3-2.1,2.3h-13.8c-1.1,0-2.1-1.1-2.1-2.3V292c0-1.3,0.9-2.3,2.1-2.3
			h13.8c1.1,0,2.1,1.1,2.1,2.3V307.8L467,307.8z"/>
		<path class="st16" d="M458.8,294.9c1.2,0,2,0.4,2.9,1.4l1.1-1.4c-1-1.3-2.4-2-3.9-2c-3.2,0-5.5,2.6-5.5,6c0,3.5,2.3,6,5.3,6
			c1.5,0,2.8-0.7,3.9-2l-1.1-1.3c-1,1.1-1.8,1.4-2.9,1.4c-1.8,0-3.5-1.7-3.5-4.1C455.2,296.5,456.8,294.9,458.8,294.9z"/>
	</g>
	<rect x="407" y="318.6" class="st2" width="84.3" height="24.1"/>
	<text transform="matrix(1 0 0 1 407.004 332.0995)" class="st3 st17">$332.447</text>
</g>
<g>
	<g>
		<path class="st16" d="M291.2,167.3h-13.8c-1.7,0-3.2,1.6-3.2,3.6v15.8c0,2,1.4,3.6,3.2,3.6h13.8c1.7,0,3.2-1.6,3.2-3.6v-15.8
			C294.4,168.9,293,167.3,291.2,167.3z M293.3,186.7c0,1.3-0.9,2.3-2.1,2.3h-13.8c-1.1,0-2.1-1.1-2.1-2.3v-15.8
			c0-1.3,0.9-2.4,2.1-2.4h13.8c1.1,0,2.1,1.1,2.1,2.4V186.7L293.3,186.7z"/>
		<path class="st16" d="M286.6,177.7c1-0.5,1.5-1.1,1.5-2.5c0-1.7-1-3.1-3.6-3.1h-4v11.6h4.4c2.6,0,3.7-1.5,3.7-3.2
			C288.7,179.1,287.9,178,286.6,177.7z M282.3,174h2.2c1.1,0,1.8,0.3,1.8,1.6c0,1-0.6,1.4-1.9,1.4h-2.2L282.3,174L282.3,174z
			 M285,182h-2.7v-3.2h2.5c1.4,0,2.2,0.5,2.2,1.5C286.9,181.7,286.2,182,285,182z"/>
		<path class="st16" d="M302.9,165.5c1.7,0,3.2-1.6,3.2-3.6v-15.8c0-2-1.4-3.6-3.2-3.6h-13.8c-1.7,0-3.2,1.6-3.2,3.6v15.8
			c0,2,1.4,3.6,3.2,3.6H302.9L302.9,165.5z M287,161.9v-15.8c0-1.3,0.9-2.4,2.1-2.4h13.8c1.1,0,2.1,1.1,2.1,2.4v15.8
			c0,1.3-0.9,2.4-2.1,2.4h-13.8C288,164.2,287,163.2,287,161.9z"/>
		<path class="st16" d="M293.5,156.3h5.1l1,2.6h1.8l-4.5-11.6h-1.8l-4.5,11.6h1.8L293.5,156.3z M296,149.7l1.8,4.8h-3.7L296,149.7z"
			/>
		<path class="st16" d="M314.7,167.3h-13.8c-1.7,0-3.2,1.6-3.2,3.6v15.8c0,2,1.4,3.6,3.2,3.6h13.8c1.7,0,3.2-1.6,3.2-3.6v-15.8
			C317.9,168.9,316.4,167.3,314.7,167.3z M316.8,186.7c0,1.3-0.9,2.3-2.1,2.3h-13.8c-1.1,0-2.1-1.1-2.1-2.3v-15.8
			c0-1.3,0.9-2.4,2.1-2.4h13.8c1.1,0,2.1,1.1,2.1,2.4V186.7L316.8,186.7z"/>
		<path class="st16" d="M308.6,173.8c1.2,0,2,0.4,2.9,1.4l1.1-1.4c-1-1.3-2.4-2-3.9-2c-3.2,0-5.5,2.6-5.5,6c0,3.5,2.3,6,5.3,6
			c1.5,0,2.8-0.7,3.9-2l-1.1-1.3c-1,1.1-1.8,1.4-2.9,1.4c-1.8,0-3.5-1.7-3.5-4.1C305,175.4,306.6,173.8,308.6,173.8z"/>
	</g>
	<rect x="251.3" y="196.9" class="st2" width="93.1" height="18.8"/>
	<text transform="matrix(1.0255 0 0 1 251.2525 210.4112)" class="st3 st17">$216.599</text>
</g>
<g>
	<path class="st18" d="M586.4,304.8c-0.6-0.4-1.3-0.6-2.1-0.5c-0.4,0-0.8,0.2-1.1,0.4l3.6,1.8c-1.1,1.6-2,3.3-2.9,5.1
		c-0.6,1.2-1.1,2.6-1.5,4c-0.3,1.1-0.5,2.3-0.4,3.5c1.7-0.5,3.5-2.9,4.7-5.8c0.8-1.8,1.2-3.9,1.2-6.1
		C587.7,306.2,587.1,305.3,586.4,304.8z"/>
	<path class="st18" d="M562.2,281.6v7.4l19.9,9.1h0c1.5,0,3-0.1,4.5-0.3c3.9-0.7,6.4-2.1,6.4-3.6V282l-12.2,5.3L562.2,281.6z"/>
	<polygon class="st18" points="576.3,266.3 549.9,275.5 562.2,279.2 580.7,284.8 593,279.5 606.6,273.6 	"/>
	<path class="st18" d="M580.2,316.5c0-0.2,0-0.3,0.1-0.5s0.1-0.4,0.1-0.6l0-0.1c0.5-1.7,1-3.3,1.8-4.8c0.4-1,0.9-1.9,1.5-2.8
		c0,0,0-0.1,0-0.1l-2.4-1.2c-0.6,0.8-1,1.6-1.4,2.6c-0.5,1.2-1,2.4-1.3,3.7l-28.1-16l-0.2,1c-0.2,1.5-0.2,3,0.6,3.5l29.6,18
		C580.2,318.5,580.1,317.7,580.2,316.5z"/>
	<path class="st18" d="M578.3,307.8c1.7-4.1,4.6-6.5,6.9-5.7l-0.1,0l-30.9-14.1c-1.2-0.6-2.8,1-3.7,3.8c-0.2,0.6-0.4,1.3-0.5,1.9
		l27.8,15.8C577.9,308.8,578.1,308.3,578.3,307.8z"/>
	<rect x="539.3" y="325.5" class="st2" width="100" height="21"/>
	<text transform="matrix(1.0255 0 0 1 539.3423 339.0753)" class="st3 st17">$433.227</text>
</g>
<rect x="544.6" y="196.1" class="st2" width="103.7" height="22.3"/>
<text transform="matrix(1.0255 0 0 1 544.6304 209.629)" class="st3 st17">$440.510</text>
<g>
	<path class="st19" d="M729.1,284.8h-3.7c-0.6-2.3-1.4-4.2-2.8-6.2l3.2-3.1c0.2-0.2,0.4-0.6,0.4-0.8c0-0.4-0.2-0.6-0.4-0.8l-4.1-4
		c-0.4-0.4-1.2-0.4-1.8,0l-3.2,3.1c-1.8-1.2-3.7-1.9-5.7-2.5v-4c0-0.6-0.6-1.2-1.2-1.2h-5.9c-0.6,0-1.2,0.6-1.2,1.2v3.9
		c-2.2,0.4-4.1,1.3-5.9,2.3l-3.4-3.3c-0.4-0.4-1.2-0.4-1.8,0l-4.1,4c-0.2,0.2-0.4,0.6-0.4,0.8c0,0.2,0.2,0.6,0.4,0.8l3.4,3.3
		c-1.2,1.9-2.2,4-2.8,6.4h-3.8c-0.6,0-1.2,0.6-1.2,1.2v5.8c0,0.6,0.6,1.2,1.2,1.2h3.7c0.3,2,1.3,3.7,2.1,5.4l3-3.6
		c-0.8-1.8-1.3-3.8-1.3-5.9c0-8,6.6-14.5,14.8-14.5s14.8,6.5,14.8,14.5s-6.6,14.5-14.8,14.5c-1.4,0-2.9-0.2-4.2-0.6l-2.9,3.3
		c0.9,0.3,1.9,0.6,2.9,0.8v3.3c0,0.6,0.6,1.2,1.2,1.2h5.9c0.6,0,1.2-0.6,1.2-1.2v-3.5c2.3-0.6,4.3-1.3,6.3-2.7l2.6,2.5
		c0.2,0.2,0.6,0.4,0.8,0.4s0.6-0.2,0.8-0.4l4.1-4c0.2-0.2,0.4-0.6,0.4-0.8c0-0.4-0.2-0.6-0.4-0.8l-2.6-2.5c1.2-1.7,2-3.6,2.3-5.8
		h3.7c0.6,0,1.2-0.6,1.2-1.2v-5.8C730.3,285.5,729.9,284.8,729.1,284.8z"/>
	<path class="st19" d="M718.4,287.5c-0.2-1.8-0.8-3.6-1.9-5.2l-7.2,8.3l-4.7-3.8l7.2-8.2c-1.7-0.7-3.4-1-5.2-0.8
		c-6,0.5-10.5,5.7-10,11.6c0.1,1.2,0.4,2.3,0.9,3.5l0.1,0.1l-17.4,20.1c-0.7,0.8-1.1,2-1,3.1c0.1,1.1,0.6,2.1,1.5,2.8s2,1.1,3.2,1
		c1.1-0.1,2.2-0.6,2.9-1.5l17.2-19.8l0.2,0.1c1.4,0.5,2.9,0.6,4.4,0.5C714.4,298.6,719,293.4,718.4,287.5z M683.7,316.9
		c-0.9,0.1-1.5-0.6-1.6-1.3c-0.1-0.8,0.6-1.5,1.4-1.6c0.9-0.1,1.5,0.6,1.6,1.3C685.1,316.1,684.5,316.8,683.7,316.9z"/>
	<rect x="658.3" y="328.9" class="st2" width="86.8" height="19.6"/>
	<text transform="matrix(1.0255 0 0 1 658.3423 342.462)" class="st3 st17">$525.007</text>
</g>
<g>
	<g>
		<path d="M989.8,137.6c-0.5,0.6-1.2,1.4-2.1,2.4c-3.8-3.6-7.5-4.1-10.3-4.5c-8,13-17,20.6-28.8,28.7c-0.3,0-0.7,0.2-1.1,0.4
			c-2.1,1.4-3,3.8-3.5,6.7c-1.2,6.7,0.9,14.8,7.2,16.2c3.7,0.8,6.1,0.2,7.7-1.8c1.2-1.4,6.5-7.5,13.3-14.6
			c7.7-7.9,17-15.4,20.8-18.6c3.5-3,2.8-7.7,0.3-11.3c-0.9-1.4-2.1-2.6-3.3-3.4L989.8,137.6z M960.6,180.3
			c0.5-3.6,0.3-10.3,0.2-12.5c0.9-0.4,2.6-1.6,5.8-4c8.9-6.7,16.1-14.6,23.4-23.3c2.6,2.4,4.9,7.3,1.8,10.1
			c-3.7,3-13.5,10.9-21,18.6C966.8,173.6,963.1,177.5,960.6,180.3z M957.3,184.1c-1.1,1.4-2.8,1.8-5.6,1.2c-5.8-1.4-7-9.5-5.4-15.2
			c1.6-5.5,6.5-4.7,8-0.8l-6.3,6.3c0.2,0.6,0.5,4.6,3.7,5.5c2.3,0.8,4.2-1.6,4.9-4.4c0.3-1.8,0.5-4,0-6.5c-0.3-3-2.1-5.1-4.4-6.1
			c11-7.7,18.5-14.2,26.1-26.1c3.2,0.6,5.2,1.4,7.9,3.6c-7.3,8.5-22.4,24.5-27.4,24.5c0,1.2,0.5,11.3-0.2,14.8
			C958.4,182.1,958,183.3,957.3,184.1z M954.9,171.8c0.2,2.2,0,4.9-1.2,6.3c-1.2,1.8-2.8,0-3.3-1.8L954.9,171.8z"/>
		<path class="st20" d="M987.6,179.1c0,0-1.2-4.1-3.3-7.1s-6.1-4.7-6.1-4.7s2.6,3.2,3.7,7.7c1.2,4.5,1.4,6.5,1.4,6.5l-2.4-1.4
			l-1.9,4c0,0,0.9-5.3-1.2-10.1c-1.9-4.7-3.3-6.1-3.3-6.1c0.5-8.5-3.2-13-10.7-13.6l5.6-5.7c6.6-0.2,10.5,7.9,9.8,14.8
			c5.1,3.2,9.8,7.7,14,12.1l-3.8,0.8L987.6,179.1z"/>
	</g>
	<rect x="929" y="192.7" class="st2" width="92.4" height="17.8"/>
	<text transform="matrix(1.0255 0 0 1 928.9683 206.2296)" class="st3 st17">$741.249</text>
</g>
<g>
	<g>
		<path d="M1253.7,270.3c-0.5,0.6-1.2,1.4-2.1,2.4c-3.8-3.6-7.5-4.2-10.3-4.5c-8,13-17,20.6-28.8,28.7c-0.3,0-0.7,0.2-1.1,0.4
			c-2.1,1.4-3,3.8-3.5,6.7c-1.2,6.7,0.9,14.8,7.2,16.2c3.7,0.8,6.1,0.2,7.7-1.8c1.2-1.4,6.5-7.5,13.3-14.6
			c7.7-7.9,17-15.4,20.8-18.6c3.5-3,2.8-7.7,0.3-11.3c-0.9-1.4-2.1-2.6-3.3-3.4L1253.7,270.3z M1224.5,313
			c0.5-3.6,0.3-10.3,0.2-12.5c0.9-0.4,2.6-1.6,5.8-4c8.9-6.7,16.1-14.6,23.4-23.3c2.6,2.4,4.9,7.3,1.8,10.1
			c-3.7,3-13.5,10.9-21,18.6C1230.6,306.3,1226.9,310.3,1224.5,313z M1221.2,316.8c-1.1,1.4-2.8,1.8-5.6,1.2
			c-5.8-1.4-7-9.5-5.4-15.2c1.6-5.5,6.5-4.7,8-0.8l-6.3,6.3c0.2,0.6,0.5,4.5,3.7,5.5c2.3,0.8,4.2-1.6,4.9-4.3c0.3-1.8,0.5-4,0-6.5
			c-0.3-3-2.1-5.1-4.4-6.1c11-7.7,18.5-14.2,26.1-26.1c3.2,0.6,5.2,1.4,7.9,3.6c-7.3,8.5-22.4,24.5-27.4,24.5
			c0,1.2,0.5,11.3-0.2,14.8C1222.2,314.8,1221.9,316,1221.2,316.8z M1218.7,304.5c0.2,2.2,0,4.9-1.2,6.3c-1.2,1.8-2.8,0-3.3-1.8
			L1218.7,304.5z"/>
		<path class="st20" d="M1251.4,311.8c0,0-1.2-4.2-3.3-7.1s-6.1-4.7-6.1-4.7s2.6,3.2,3.7,7.7c1.2,4.5,1.4,6.5,1.4,6.5l-2.4-1.4
			l-1.9,4c0,0,0.9-5.3-1.2-10.1c-1.9-4.7-3.3-6.1-3.3-6.1c0.5-8.5-3.2-13-10.7-13.6l5.6-5.7c6.6-0.2,10.5,7.9,9.8,14.8
			c5.1,3.2,9.8,7.7,14,12.1l-3.8,0.8L1251.4,311.8z"/>
	</g>
	<rect x="1186.3" y="328.4" class="st2" width="109" height="19.1"/>
	<text transform="matrix(1.0255 0 0 1 1186.3424 341.9366)" class="st3 st17">$931.845</text>
</g>
<g>
	<rect x="369.8" y="196.6" class="st2" width="99.6" height="21.9"/>
	<text transform="matrix(1.0255 0 0 1 369.7798 210.0938)" class="st3 st17">$299.562</text>
	<path class="st18" d="M427.3,177.3c-0.6-0.4-1.3-0.6-2.1-0.5c-0.4,0-0.8,0.2-1.1,0.4l3.6,1.9c-1.1,1.6-2,3.3-2.9,5.1
		c-0.6,1.2-1.1,2.6-1.5,4c-0.3,1.1-0.5,2.3-0.4,3.5c1.7-0.5,3.5-2.9,4.7-5.8c0.8-1.8,1.2-3.9,1.2-6.1
		C428.6,178.6,428.1,177.7,427.3,177.3z"/>
	<path class="st18" d="M403.1,154.1v7.4l19.9,9.1h0c1.5,0,3-0.1,4.5-0.3c3.9-0.7,6.4-2.1,6.4-3.6v-12.2l-12.2,5.3L403.1,154.1z"/>
	<polygon class="st18" points="417.2,138.7 390.9,148 403.1,151.7 421.6,157.3 433.9,152 447.5,146.1 	"/>
	<path class="st18" d="M421.2,189c0-0.2,0-0.3,0.1-0.5s0.1-0.4,0.1-0.6l0-0.1c0.5-1.7,1-3.3,1.8-4.8c0.4-1,0.9-1.9,1.5-2.8
		c0,0,0-0.1,0-0.1l-2.4-1.2c-0.6,0.8-1,1.6-1.4,2.6c-0.5,1.2-1,2.4-1.3,3.7l-28.1-16l-0.2,1c-0.2,1.5-0.2,3,0.6,3.5l29.6,18
		C421.1,191,421,190.1,421.2,189z"/>
	<path class="st18" d="M419.2,180.2c1.7-4.1,4.6-6.5,6.9-5.7l-0.1,0l-30.9-14.1c-1.2-0.6-2.8,1-3.7,3.8c-0.2,0.6-0.4,1.3-0.5,1.9
		l27.8,15.8C418.8,181.3,419,180.7,419.2,180.2z"/>
</g>
</svg>
