<?xml version="1.0" encoding="utf-8"?>
<!-- Generator: Adobe Illustrator 19.2.1, SVG Export Plug-In . SVG Version: 6.00 Build 0)  -->
<svg version="1.1" xmlns="http://www.w3.org/2000/svg" xmlns:xlink="http://www.w3.org/1999/xlink" x="0px" y="0px"
	 viewBox="0 0 320 413" style="enable-background:new 0 0 320 413;" xml:space="preserve">
<style type="text/css">
	.st0{fill:#FFFFFF;}
</style>
<g id="Capa_1">
	<path d="M308.4,52.7c-27.5-3.8-53.7-5.4-80-5V4.7l-3.2,0.2C154.9,9.9,92.7,27.3,23.5,61l-1.8,0.9v314.7l4.1-1.9
		c9.1-4.2,18.1-8,27-11.6l-2,12.8l4.3-1c42.4-9.7,81.5-14.4,119.6-14.4c27.7,0,55.3,2.4,84.6,7.4l2.9,0.5l49.5-315.2L308.4,52.7z
		 M27.7,66.6c66.8-32.4,127.1-49.2,194.7-54.5v35.7v270.6c-3.9,0.2-7.8,0.4-11.7,0.7c-1.6,0.1-3.1,0.2-4.7,0.4
		c-2.2,0.2-4.5,0.3-6.7,0.5c-2,0.2-4,0.4-5.9,0.6c-1.7,0.2-3.5,0.4-5.2,0.5c-2.3,0.3-4.5,0.5-6.8,0.8c-1.3,0.2-2.7,0.3-4,0.5
		c-2.5,0.3-5.1,0.7-7.6,1.1c-0.8,0.1-1.7,0.3-2.5,0.4c-16.6,2.5-32.9,5.9-49.2,10.2c-0.4,0.1-0.8,0.2-1.2,0.3
		c-3,0.8-6.1,1.6-9.1,2.5c-0.5,0.2-1,0.3-1.6,0.4c-3,0.9-6,1.8-9.1,2.7c-0.4,0.1-0.8,0.3-1.2,0.4c-13.3,4.1-26.7,8.8-40.2,14.2
		c-0.1,0-0.1,0-0.2,0.1l-0.1,0c-9.2,3.6-18.5,7.5-27.9,11.8C27.7,366.4,27.7,66.6,27.7,66.6z M257.2,360.5
		c-28.5-4.7-55.5-6.9-82.6-6.9c-37.2,0-75.3,4.4-116.4,13.6l1-6.6c0.3-0.1,0.6-0.2,0.8-0.3c2.7-1,5.3-2.1,8-3
		c1.1-0.4,2.2-0.8,3.3-1.2c2.6-1,5.2-1.9,7.8-2.8c0.9-0.3,1.8-0.6,2.7-0.9c12.6-4.3,25.2-8.1,37.7-11.4c0.6-0.2,1.2-0.3,1.8-0.5
		c2.9-0.7,5.8-1.5,8.7-2.1c0.7-0.2,1.4-0.3,2-0.5c2.9-0.7,5.9-1.3,8.8-2c0.4-0.1,0.9-0.2,1.3-0.3c9.5-2,19-3.7,28.6-5.1
		c0.6-0.1,1.1-0.2,1.7-0.3c2.4-0.4,4.9-0.7,7.3-1c1.5-0.2,3-0.4,4.5-0.6c2.1-0.3,4.3-0.5,6.4-0.7c1.9-0.2,3.8-0.4,5.7-0.6
		c1.9-0.2,3.8-0.4,5.6-0.5c2.4-0.2,4.8-0.4,7.2-0.5c1.5-0.1,3-0.2,4.5-0.3c3.9-0.3,7.9-0.5,11.9-0.6l2.9-0.1V54.7
		c25-0.4,50,1,76.1,4.5L257.2,360.5z"/>
</g>
<g id="Capa_2">
	<g>
		<path class="st0" d="M191.1,323.6H88.4c-17.5,0-31.7-14.2-31.7-31.7v-7c0-17.5,14.2-31.7,31.7-31.7h102.6
			c17.5,0,31.7,14.2,31.7,31.7v7C222.8,309.4,208.6,323.6,191.1,323.6z"/>
		<path class="st0" d="M231,402.2H53.9c-17.5,0-31.7-14.2-31.7-31.7v-7c0-17.5,14.2-31.7,31.7-31.7H231c17.5,0,31.7,14.2,31.7,31.7
			v7C262.8,387.9,248.5,402.2,231,402.2z"/>
		<g>
			<g>
				<path d="M91.2,315.6c2.2,0,4-1.8,4-4s-1.8-4-4-4c-9.9,0-17.9-8.2-17.9-18.2c0-10,8-18.2,17.9-18.2c2.2,0,4-1.8,4-4s-1.8-4-4-4
					c-14.3,0-25.9,11.8-25.9,26.3C65.3,303.8,76.9,315.6,91.2,315.6z"/>
				<path d="M79.5,289.3c0,6.7,5.4,12.1,12,12.1c6.6,0,12-5.4,12-12.1c0-6.7-5.4-12.1-12-12.1C84.9,277.2,79.5,282.6,79.5,289.3z
					 M95.5,289.3c0,2.2-1.8,4-4,4c-2.2,0-4-1.8-4-4c0-2.2,1.8-4,4-4C93.7,285.3,95.5,287.1,95.5,289.3z"/>
				<path d="M61.6,388.3c0-2.2-1.8-4-4-4c-9.9,0-17.9-8.2-17.9-18.2s8-18.2,17.9-18.2c2.2,0,4-1.8,4-4c0-2.2-1.8-4-4-4
					c-14.3,0-25.9,11.8-25.9,26.3s11.6,26.3,25.9,26.3C59.8,392.3,61.6,390.5,61.6,388.3z"/>
				<path d="M45.7,366c0,6.7,5.4,12.1,12,12.1s12-5.4,12-12.1s-5.4-12.1-12-12.1S45.7,359.4,45.7,366z M61.6,366c0,2.2-1.8,4-4,4
					c-2.2,0-4-1.8-4-4s1.8-4,4-4C59.8,362,61.6,363.8,61.6,366z"/>
				<path d="M133.4,392.3c2.2,0,4-1.8,4-4c0-2.2-1.8-4-4-4c-9.9,0-17.9-8.2-17.9-18.2s8-18.2,17.9-18.2c2.2,0,4-1.8,4-4
					c0-2.2-1.8-4-4-4c-14.3,0-25.9,11.8-25.9,26.3S119.1,392.3,133.4,392.3z"/>
				<path d="M121.4,366c0,6.7,5.4,12.1,12,12.1c6.6,0,12-5.4,12-12.1s-5.4-12.1-12-12.1C126.8,353.9,121.4,359.4,121.4,366z
					 M137.3,366c0,2.2-1.8,4-4,4s-4-1.8-4-4s1.8-4,4-4S137.3,363.8,137.3,366z"/>
				<path d="M270.9,365.2c0-0.1-0.1-0.2-0.1-0.3c-0.6-22.8-19.1-41.2-41.8-41.2c-0.5,0-0.9,0-1.3,0.1c-0.2,0-0.4-0.1-0.6-0.1h-13.4
					c10.5-7.7,17.4-20.2,17.4-34.3c0-23.4-18.8-42.4-41.9-42.4c-0.5,0-0.9,0-1.3,0.1c-0.2,0-0.4-0.1-0.6-0.1H91.5
					c-23.1,0-41.9,19-41.9,42.4c0,14.2,6.9,26.7,17.5,34.4c-0.7,0.1-1.2,0.3-1.8,0.7c-2.5-0.5-5.1-0.8-7.8-0.8
					c-23.1,0-41.9,19-41.9,42.4c0,23.4,18.8,42.4,41.9,42.4c0.5,0,1.1-0.1,1.6-0.1c0.1,0,0.3,0.1,0.4,0.1h71.8h4H227
					c0.2,0,0.4,0,0.6-0.1c0.4,0,0.9,0.1,1.4,0.1c23.1,0,41.9-19,41.9-42.4c0-0.2,0-0.5,0-0.7C270.9,365.3,270.9,365.2,270.9,365.2z
					 M186.3,255c0.4,0.1,0.7,0.1,1.1,0.1l0.7,0c0.4,0,0.7,0,1.1,0c8.3,0,15.9,3,21.8,8.1h-43.7c-2.2,0-4,1.8-4,4s1.8,4,4,4h50.6
					c2.6,4.2,4.3,9,4.9,14.1h-37.6c-2.2,0-4,1.8-4,4c0,2.2,1.8,4,4,4h37.6c-2,17-16.3,30.3-33.6,30.3c-0.4,0-0.7,0-1.1-0.1l-0.7,0
					c-0.4,0-0.7,0-1,0.1h-55h-8H116c3.1-2.3,5.9-5,8.3-8.1h74.8c2.2,0,4-1.8,4-4s-1.8-4-4-4h-69.9c2.1-4.4,3.4-9.1,3.9-14.1h38.1
					c2.2,0,4-1.8,4-4s-1.8-4-4-4h-38.1c-1.2-12.5-7.7-23.3-17.2-30.3L186.3,255L186.3,255z M167.2,366c0,18.9-15.2,34.3-33.9,34.3
					S99.5,385,99.5,366s15.2-34.3,33.9-34.3S167.2,347.1,167.2,366z M91.5,331.7h17.4c-5.7,4.2-10.4,9.8-13.4,16.4
					c-3-6.6-7.7-12.2-13.4-16.4H91.5z M57.6,289.3c0-18.9,15.2-34.3,33.9-34.3s33.9,15.4,33.9,34.3c0,18.9-15.2,34.3-33.9,34.3
					S57.6,308.2,57.6,289.3z M23.7,366c0-18.9,15.2-34.3,33.9-34.3s33.9,15.4,33.9,34.3s-15.2,34.3-33.9,34.3S23.7,385,23.7,366z
					 M95.5,384c3,6.6,7.7,12.2,13.4,16.4H82.1C87.8,396.2,92.5,390.5,95.5,384z M229,400.4c-0.4,0-0.7,0-1.1-0.1l-0.7,0
					c-0.4,0-0.7,0-1,0.1h-68.4c3.6-2.7,6.8-5.9,9.4-9.6c0.6,0.4,1.2,0.6,2,0.6H239c2.2,0,4-1.8,4-4s-1.8-4-4-4h-67.5
					c1.9-4.4,3.2-9.2,3.5-14.2c0.1,0,0.1,0,0.2,0h35.9c2.2,0,4-1.8,4-4c0-2.2-1.8-4-4-4h-35.9c-0.1,0-0.2,0.1-0.3,0.1
					c-1.4-12.1-7.8-22.7-17.1-29.5h29.3h39c0.4,0.1,0.7,0.1,1.1,0.1l0.7,0c0.4,0,0.7-0.1,1.1-0.1c7.8,0,15,2.7,20.7,7.2h-42.6
					c-2.2,0-4,1.8-4,4s1.8,4,4,4h50.1c2.8,4.2,4.6,9,5.3,14.1H225c-2.2,0-4,1.8-4,4c0,2.2,1.8,4,4,4h37.7
					C261.2,386.7,246.7,400.4,229,400.4z"/>
			</g>
		</g>
	</g>
</g>
</svg>
