<?xml version="1.0" encoding="utf-8"?>
<!-- Generator: Adobe Illustrator 19.2.1, SVG Export Plug-In . SVG Version: 6.00 Build 0)  -->
<svg version="1.1" id="Capa_1" xmlns="http://www.w3.org/2000/svg" xmlns:xlink="http://www.w3.org/1999/xlink" x="0px" y="0px"
	 viewBox="0 0 683 476" style="enable-background:new 0 0 683 476;" xml:space="preserve">
<g>
	<path d="M172.9,295.9c-58.4,52.9-42.6,110.2-32.8,134.3c73.9-27.9,93.8-87.8,95.8-96.2c2-8.4,8.3-14.2,17.2-13.5
		c42.2,0.1,80.9-2.7,114.5-7.7c76.3-11.6,132.9-36.8,173.8-66.4c-27.1-26.8-48.4-58-62.4-92.3s-20.5-71.6-19.4-108.7
		c-49.9,7.4-108.1,28.9-171.1,72.9c-27.5,19.9-57.3,44.9-87,75.4c-5.4,5.4-13.5,6.6-20.4,2.9c0,0-59.5-37.3-137.1-2.5
		c9.8,24.1,38.5,76.1,116.9,72.3C176.9,266.1,184.9,285.6,172.9,295.9z M16.7,169.4C93.9,128.3,159.9,150,186,161
		c28.6-27.8,56-50.8,83.5-70.7C370.1,19.1,460.6,2.8,529.2,9.4c70.8,6.8,120.6,36.2,138.5,53.8c8.8,8.3,10.3,12,9.8,24.1
		c-0.6,25.1-15.3,81.8-61.6,135.2c-44.4,52.6-120.3,105.1-242.3,123.5c-33.2,6-68.8,8.6-109.1,7.7c-10.6,27-42.7,88.7-128,112.6
		c-7.4,3-14.3-0.7-19.2-7.3c0,0-52.1-80.3,7.9-160.9C26.3,283.2,7.5,189.3,7.1,188.4C6,180.2,9.6,173.4,16.7,169.4z M510.5,141.2
		c12.8,31.5,32.1,60.3,57.7,83.4c8.7-7.9,16.1-16.3,22.5-24.3c39.5-46.3,52.9-92.8,53.2-113.4c-14.6-14.6-56.7-38.5-117.3-44
		c-9.8-0.3-21-1.2-32.7-0.7C491.7,76.5,498,110.6,510.5,141.2z M407.6,183c7.2,17.6,19,33.3,33.7,45.7c7.6,5.5,8.6,15.9,3.1,23.6
		c-5.9,6.7-16.8,9-23.9,2.2c-19.4-15.9-34.9-35.4-44.4-58.6c-9-22.2-12-48-9.2-72.9c0.7-8.9,9.7-15.8,19-14.2
		c8.9,0.7,15.8,9.7,14.2,19C397.9,145.9,400.5,165.4,407.6,183z M329.8,214.7c7.2,17.6,18,33.7,33.7,45.7c6.7,5.9,7.7,16.3,2.2,23.9
		c-5.9,6.7-15.9,8.6-23.9,2.2c-19.4-15.9-34-35.8-43.4-59c-9-22.2-12.9-47.6-10.1-72.5c1.6-9.3,9.7-15.8,19-14.2
		c8.9,0.7,15.8,9.7,15.2,18.7C319.2,178,322.7,197.1,329.8,214.7z M575.1,77.1L575.1,77.1c5.2,2.2,9,6.1,11.2,11.6
		c2.3,5.6,2.3,10.9,0.1,16.2s-6.1,9-11.6,11.2s-10.9,2.3-16.2,0.1s-9.9-5.7-12.1-11.3c-2.3-5.6-1.4-11.3,0.8-16.5
		c2.2-5.2,6.1-9,11.6-11.2S569.8,74.9,575.1,77.1z"/>
</g>
</svg>
