<?xml version="1.0" encoding="utf-8"?>
<!-- Generator: Adobe Illustrator 22.0.1, SVG Export Plug-In . SVG Version: 6.00 Build 0)  -->
<svg version="1.1" id="Capa_1" xmlns="http://www.w3.org/2000/svg" xmlns:xlink="http://www.w3.org/1999/xlink" x="0px" y="0px"
	 viewBox="0 0 1500.5 410.2" style="enable-background:new 0 0 1500.5 410.2;" xml:space="preserve">
<style type="text/css">
	.st0{opacity:0.8;fill:#DCF4F3;stroke:#416190;stroke-width:5;stroke-miterlimit:5.83;}
	.st1{fill:none;stroke:#000000;stroke-width:3.04;stroke-miterlimit:10;}
	.st2{fill:none;}
	.st3{font-family:'ArialMT';}
	.st4{font-size:16px;}
	.st5{fill:#FF0000;}
	.st6{font-size:21px;}
	.st7{letter-spacing:-1;}
	.st8{fill:none;stroke:#000000;stroke-width:0.25;stroke-miterlimit:10;}
	.st9{font-size:12.24px;}
	.st10{fill:#FCEE21;}
	.st11{font-family:'Arial-BoldMT';}
	.st12{font-size:16.65px;}
	.st13{fill:#FF0000;stroke:#FF0000;stroke-width:1.33;stroke-miterlimit:10;}
	.st14{fill:#FF0000;stroke:#FF0000;stroke-width:0.22;stroke-miterlimit:10;}
	.st15{font-size:20px;}
	.st16{stroke:#000000;stroke-width:0.14;stroke-miterlimit:10;}
</style>
<title>tarapaca2</title>
<path class="st0" d="M45,2.5h1410.5c23.5,0,42.5,19,42.5,42.5v320.2c0,23.5-19,42.5-42.5,42.5H45c-23.5,0-42.5-19-42.5-42.5V45
	C2.5,21.5,21.5,2.5,45,2.5z"/>
<rect x="98" y="232.8" class="st1" width="1385.4" height="21.3"/>
<rect x="111.9" y="237.1" class="st2" width="1371.8" height="36.8"/>
<text transform="matrix(0.98 0 0 1 111.8799 249.1299)" class="st3 st4">$100.000</text>
<text transform="matrix(0.98 0 0 1 242.3496 249.1299)" class="st3 st4">$200.000</text>
<text transform="matrix(0.98 0 0 1 372.8198 249.1299)" class="st3 st4">$300.000</text>
<text transform="matrix(0.98 0 0 1 503.2798 249.1299)" class="st3 st4">$400.000</text>
<text transform="matrix(0.98 0 0 1 633.7598 249.1299)" class="st3 st4">$500.000</text>
<text transform="matrix(0.98 0 0 1 764.2197 249.1299)" class="st3 st4">$600.000</text>
<text transform="matrix(0.98 0 0 1 894.6895 249.1299)" class="st3 st4">$700.000</text>
<text transform="matrix(0.98 0 0 1 1025.1494 249.1299)" class="st3 st4">$800.000</text>
<text transform="matrix(0.98 0 0 1 1155.6201 249.1299)" class="st3 st4">$900.000</text>
<text transform="matrix(0.98 0 0 1 1286.0898 249.1299)" class="st3 st4">$1.000.000</text>
<text transform="matrix(0.98 0 0 1 1416.5498 249.1299)" class="st3 st4">   +++</text>
<path class="st5" d="M721.7,153.8H718c-0.5-2.2-1.5-4.3-2.8-6.1l3.2-3.1c0.2-0.2,0.3-0.5,0.4-0.8c0-0.3-0.1-0.6-0.4-0.8l-4.1-4
	c-0.5-0.4-1.3-0.4-1.8,0l-3.2,3.1c-1.8-1.1-3.7-2-5.7-2.5v-4c0-0.6-0.6-1.2-1.2-1.2h-5.9c-0.6,0-1.2,0.6-1.2,1.2v3.9
	c-2.1,0.4-4.1,1.2-5.9,2.3l-3.4-3.3c-0.5-0.4-1.3-0.4-1.8,0l-4.1,4c-0.4,0.3-0.5,1-0.2,1.4c0.1,0.1,0.1,0.1,0.2,0.2l3.4,3.3
	c-1.3,2-2.2,4.1-2.8,6.4h-3.8c-0.6,0-1.2,0.6-1.2,1.2v5.8c0,0.6,0.6,1.2,1.2,1.2h3.7c0.4,1.9,1.1,3.7,2.1,5.4l3-3.6
	c-3.4-7.4-0.2-16.3,7.2-19.7c7.4-3.4,16.3-0.2,19.7,7.2s0.2,16.3-7.2,19.7c-1.9,0.9-4.1,1.4-6.2,1.4c-1.4,0-2.8-0.2-4.2-0.6
	l-2.9,3.3c0.9,0.3,1.9,0.6,2.9,0.8v3.3c0,0.6,0.6,1.2,1.2,1.2h5.9c0.6,0,1.2-0.6,1.2-1.2v-3.5c2.2-0.5,4.4-1.4,6.3-2.7l2.6,2.5
	c0.3,0.4,1,0.5,1.4,0.2c0.1-0.1,0.1-0.1,0.2-0.2l4.1-4c0.2-0.2,0.3-0.5,0.4-0.8c0-0.3-0.1-0.6-0.4-0.8l-2.6-2.5
	c1.2-1.7,2-3.7,2.3-5.8h3.7c0.6,0,1.2-0.6,1.2-1.2v-5.8C722.9,154.4,722.5,153.8,721.7,153.8z"/>
<path class="st5" d="M711.1,156.4c-0.2-1.9-0.9-3.7-2-5.2l-7.2,8.3l-4.7-3.8l7.2-8.2c-1.6-0.7-3.4-1-5.2-0.8
	c-6,0.4-10.4,5.6-10,11.6c0.1,1.2,0.4,2.4,0.9,3.5l0.1,0.1l-17.4,19.9c-0.7,0.9-1.1,2-1,3.1c0.1,1.1,0.6,2.1,1.5,2.8
	c0.9,0.7,2,1.1,3.2,1c1.1-0.1,2.2-0.6,2.9-1.5l17.2-19.8l0.2,0.1c5.7,1.9,11.9-1.2,13.8-7C711,159.2,711.2,157.8,711.1,156.4
	L711.1,156.4z M676.3,185.8c-0.8,0.1-1.5-0.5-1.6-1.3c0-0.8,0.6-1.5,1.4-1.6c0.8-0.1,1.5,0.5,1.6,1.3
	C677.7,185,677.1,185.7,676.3,185.8z"/>
<rect x="793.9" y="376.9" class="st2" width="92" height="32.3"/>
<text transform="matrix(0.98 0 0 1 793.8994 392.7002)" class="st3 st6">$625.448</text>
<rect x="589" y="19.6" class="st2" width="439.9" height="108.7"/>
<text transform="matrix(1 0 0 1 750 35.34)" class="st3 st6 st7">T</text>
<text transform="matrix(1 0 0 1 761.27 35.34)" class="st3 st6">ARA</text>
<text transform="matrix(1 0 0 1 804.45 35.34)" class="st3 st6 st7">P</text>
<text transform="matrix(1 0 0 1 816.9 35.34)" class="st3 st6">ACÁ l</text>
<text transform="matrix(1 0 0 1 750 35.34)" class="st8 st3 st6 st7">T</text>
<text transform="matrix(1 0 0 1 761.27 35.34)" class="st8 st3 st6">ARA</text>
<text transform="matrix(1 0 0 1 804.45 35.34)" class="st8 st3 st6 st7">P</text>
<text transform="matrix(1 0 0 1 816.9 35.34)" class="st8 st3 st6">ACÁ l</text>
<text transform="matrix(1 0 0 1 597.95 85.74)" class="st3 st6">Población:</text>
<text transform="matrix(1 0 0 1 597.95 85.74)" class="st8 st3 st6">Población:</text>
<text transform="matrix(1 0 0 1 694.84 85.74)" class="st3 st6"> 330.558   </text>
<text transform="matrix(1 0 0 1 694.84 85.74)" class="st8 st3 st6"> 330.558   </text>
<text transform="matrix(1 0 0 1 794.09 85.74)" class="st3 st6">Superficie:</text>
<text transform="matrix(1 0 0 1 794.09 85.74)" class="st8 st3 st6">Superficie:</text>
<text transform="matrix(1 0 0 1 891.73 85.74)" class="st3 st6"> 42.225,8 km</text>
<text transform="matrix(1 0 0 1 891.73 85.74)" class="st8 st3 st6"> 42.225,8 km</text>
<text transform="matrix(1 0 0 1 1013.13 78.75)" class="st3 st9">2</text>
<text transform="matrix(1 0 0 1 1013.13 78.75)" class="st8 st3 st9">2</text>
<rect x="838.1" y="124.3" class="st10" width="4.5" height="244"/>
<rect x="15.3" y="176.8" class="st2" width="105.4" height="23.7"/>
<text transform="matrix(0.98 0 0 1 15.3296 188.7002)" class="st11 st12">MUJERES</text>
<rect x="15.3" y="298.3" class="st2" width="96.2" height="26"/>
<text transform="matrix(0.98 0 0 1 15.3296 310.1499)" class="st11 st12">HOMBRES</text>
<rect x="214.4" y="61.1" class="st2" width="80.6" height="23.3"/>
<path class="st13" d="M462,291.1h-13.8c-1.9,0.1-3.3,1.7-3.2,3.6v15.8c-0.1,1.9,1.3,3.5,3.2,3.6c0,0,0,0,0,0H462
	c1.9-0.1,3.3-1.7,3.2-3.6v-15.7C465.1,292.8,463.7,291.1,462,291.1z M464,310.6c0.1,1.2-0.8,2.2-2,2.3c0,0-0.1,0-0.1,0h-13.8
	c-1.2-0.1-2.1-1.1-2.1-2.3v-15.8c-0.1-1.2,0.8-2.2,2-2.3c0,0,0.1,0,0.1,0h13.8c1.2,0.1,2.1,1.1,2.1,2.3V310.6L464,310.6z"/>
<path class="st13" d="M457.4,301.6c1-0.4,1.6-1.4,1.5-2.5c0-1.7-1-3.1-3.6-3.1h-4v11.6h4.4c2.6,0,3.7-1.5,3.7-3.2
	C459.5,303.1,458.7,301.8,457.4,301.6z M453.1,297.9h2.2c1.1,0,1.8,0.3,1.8,1.6c0,1-0.6,1.4-1.9,1.4H453L453.1,297.9z M455.8,305.8
	h-2.7v-3.2h2.5c1.4,0,2.2,0.5,2.2,1.5C457.7,305.5,456.9,305.8,455.8,305.8L455.8,305.8z"/>
<path class="st13" d="M473.7,289.4c1.9-0.1,3.3-1.7,3.2-3.6V270c0.1-1.9-1.3-3.5-3.2-3.6c0,0,0,0,0,0h-13.8
	c-1.9,0.1-3.3,1.7-3.2,3.6v15.8c-0.1,1.9,1.3,3.5,3.2,3.6c0,0,0,0,0,0L473.7,289.4z M457.8,285.8V270c-0.1-1.2,0.8-2.2,2-2.3
	c0,0,0.1,0,0.1,0h13.8c1.2,0.1,2.1,1.1,2.1,2.3v15.8c0.1,1.2-0.8,2.2-2,2.3c0,0-0.1,0-0.1,0h-13.8C458.7,288,457.8,287,457.8,285.8
	C457.8,285.8,457.8,285.8,457.8,285.8z"/>
<path class="st13" d="M464.2,280.2h5.1l1,2.6h1.8l-4.5-11.6h-1.8l-4.5,11.6h1.8L464.2,280.2z M466.8,273.6l1.8,4.8h-3.7L466.8,273.6
	z"/>
<path class="st13" d="M485.5,291.1h-13.8c-1.9,0.1-3.3,1.7-3.2,3.6v15.8c-0.1,1.9,1.3,3.5,3.2,3.6c0,0,0,0,0,0h13.8
	c1.9-0.1,3.3-1.7,3.2-3.6v-15.7C488.6,292.8,487.2,291.1,485.5,291.1z M487.5,310.6c0.1,1.2-0.8,2.2-2,2.3c0,0-0.1,0-0.1,0h-13.8
	c-1.2-0.1-2.1-1.1-2.1-2.3v-15.8c-0.1-1.2,0.8-2.2,2-2.3c0,0,0.1,0,0.1,0h13.8c1.2,0.1,2.1,1.1,2.1,2.3V310.6L487.5,310.6z"/>
<path class="st13" d="M479.4,297.7c1.1,0,2.2,0.5,2.9,1.4l1.1-1.4c-0.9-1.2-2.4-2-3.9-2c-3.2,0-5.5,2.6-5.5,6s2.3,6,5.3,6
	c1.5,0,3-0.8,3.9-2l-1.1-1.3c-0.7,0.9-1.8,1.4-2.9,1.4c-2.1-0.2-3.6-2-3.5-4.1c-0.1-2.1,1.4-3.9,3.5-4
	C479.3,297.7,479.3,297.7,479.4,297.7z"/>
<rect x="427.6" y="321.3" class="st2" width="84.3" height="24.1"/>
<text transform="matrix(0.93 0 0 1 427.5601 337.0898)" class="st3 st6">$352.465</text>
<path class="st14" d="M501.9,181.6c-0.6-0.4-1.4-0.6-2.1-0.5c-0.4,0-0.8,0.2-1.1,0.4l3.6,1.8c-1.1,1.6-2.1,3.3-2.9,5.1
	c-0.6,1.3-1.1,2.6-1.5,4c-0.3,1.1-0.5,2.3-0.4,3.5c1.7-0.5,3.5-2.9,4.7-5.8c0.8-1.9,1.2-4,1.2-6.1
	C503.3,183,502.7,182.1,501.9,181.6z"/>
<path class="st14" d="M466.8,158.4v7.4l19.9,9.1l0,0c1.5,0,3-0.1,4.5-0.3c3.9-0.7,6.4-2.1,6.4-3.6v-12.2l-12.2,5.3L466.8,158.4z"/>
<polygon class="st14" points="480.8,143.1 454.5,152.3 466.8,156 485.3,161.6 497.6,156.3 511.1,150.4 "/>
<path class="st14" d="M484.8,193.3c0-0.2,0-0.3,0.1-0.5c0.1-0.2,0.1-0.4,0.1-0.6v-0.1c0.4-1.7,1-3.3,1.8-4.8c0.4-1,0.9-1.9,1.5-2.8
	v-0.1l-2.4-1.2c-0.6,0.8-1.1,1.7-1.4,2.6c-0.5,1.2-1,2.4-1.3,3.7l-28.1-16l-0.2,1c-0.2,1.5-0.2,3,0.6,3.5l29.6,18
	C484.8,195.1,484.7,194.2,484.8,193.3z"/>
<path class="st14" d="M482.9,184.6c1.7-4.1,4.6-6.5,6.9-5.7h-0.1l-30.9-14.1c-1.2-0.6-2.8,1-3.7,3.8c-0.2,0.6-0.4,1.3-0.5,1.9
	l27.8,15.8C482.5,185.7,482.7,185.1,482.9,184.6z"/>
<rect x="435.3" y="199.3" class="st2" width="99.6" height="21.9"/>
<text transform="matrix(1.03 0 0 1 435.3301 215.0801)" class="st3 st6">$359.316</text>
<path class="st13" d="M300.8,170H287c-1.9,0.1-3.3,1.7-3.2,3.6v15.8c-0.1,1.9,1.3,3.5,3.2,3.6c0,0,0,0,0,0h13.8
	c1.9-0.1,3.3-1.7,3.2-3.6v-15.8C303.9,171.7,302.5,170,300.8,170z M302.8,189.5c0.1,1.2-0.8,2.2-2,2.3c0,0-0.1,0-0.1,0h-13.8
	c-1.2-0.1-2.1-1.1-2.1-2.3v-15.8c-0.1-1.2,0.8-2.2,2-2.3c0,0,0.1,0,0.1,0h13.8c1.2,0.1,2.1,1.1,2.1,2.3V189.5z"/>
<path class="st13" d="M296.2,180.5c1-0.4,1.6-1.4,1.5-2.5c0-1.7-1-3.1-3.6-3.1h-4v11.6h4.4c2.6,0,3.7-1.5,3.7-3.2
	C298.3,182,297.5,180.8,296.2,180.5z M291.9,176.7h2.2c1.1,0,1.8,0.3,1.8,1.6c0,1-0.6,1.4-1.9,1.4h-2.2L291.9,176.7z M294.6,184.7
	h-2.7v-3.2h2.5c1.4,0,2.2,0.5,2.2,1.5C296.5,184.4,295.7,184.7,294.6,184.7L294.6,184.7z"/>
<path class="st13" d="M312.5,168.3c1.9-0.1,3.3-1.7,3.2-3.6v-15.9c0.1-1.9-1.3-3.5-3.2-3.6c0,0,0,0,0,0h-13.8
	c-1.9,0.1-3.3,1.7-3.2,3.6v15.8c-0.1,1.9,1.3,3.5,3.2,3.6c0,0,0,0,0,0L312.5,168.3L312.5,168.3z M296.6,164.7v-15.9
	c-0.1-1.2,0.9-2.3,2.1-2.4c0,0,0,0,0,0h13.8c1.2,0.1,2.1,1.2,2.1,2.4v15.8c0.1,1.2-0.8,2.2-2,2.3c0,0-0.1,0-0.1,0h-13.8
	c-1.1,0.1-2-0.8-2.1-1.9C296.6,164.9,296.6,164.8,296.6,164.7z"/>
<path class="st13" d="M303,159.1h5.1l1,2.6h1.8l-4.5-11.6h-1.8l-4.5,11.6h1.8L303,159.1z M305.6,152.5l1.8,4.8h-3.7L305.6,152.5z"/>
<path class="st13" d="M324.3,170h-13.8c-1.9,0.1-3.3,1.7-3.2,3.6v15.8c-0.1,1.9,1.3,3.5,3.2,3.6c0,0,0,0,0,0h13.8
	c1.9-0.1,3.3-1.7,3.2-3.6v-15.8C327.4,171.7,326,170,324.3,170z M326.3,189.5c0.1,1.2-0.8,2.2-2,2.3c0,0-0.1,0-0.1,0h-13.8
	c-1.2-0.1-2.1-1.1-2.1-2.3v-15.8c-0.1-1.2,0.8-2.2,2-2.3c0,0,0.1,0,0.1,0h13.8c1.2,0.1,2.1,1.1,2.1,2.3V189.5L326.3,189.5z"/>
<path class="st13" d="M318.2,176.6c1.1,0,2.2,0.5,2.9,1.4l1.1-1.4c-0.9-1.2-2.4-2-3.9-2c-3.2,0-5.5,2.6-5.5,6s2.3,6,5.3,6
	c1.5,0,3-0.8,3.9-2l-1.1-1.3c-0.7,0.9-1.8,1.4-2.9,1.4c-2.1-0.2-3.6-2-3.5-4.1c-0.1-2.1,1.5-3.9,3.5-4
	C318.1,176.6,318.1,176.6,318.2,176.6z"/>
<rect x="260.8" y="199.6" class="st2" width="93.1" height="18.8"/>
<text transform="matrix(1.03 0 0 1 260.8101 215.3999)" class="st3 st6">$216.845</text>
<path class="st14" d="M730.9,307.6c-0.6-0.4-1.4-0.6-2.1-0.5c-0.4,0-0.8,0.2-1.1,0.4l3.6,1.8c-1.1,1.6-2.1,3.3-2.9,5.1
	c-0.6,1.3-1.1,2.6-1.5,4c-0.3,1.1-0.5,2.3-0.4,3.5c1.7-0.5,3.5-2.9,4.7-5.8c0.8-1.9,1.2-4,1.2-6.1
	C732.3,309,731.7,308.1,730.9,307.6z"/>
<path class="st14" d="M706.7,284.4v7.4l19.9,9.1l0,0c1.5,0,3-0.1,4.5-0.3c3.9-0.7,6.4-2.1,6.4-3.6v-12.2l-12.2,5.3L706.7,284.4z"/>
<polygon class="st14" points="720.8,269.1 694.5,278.3 706.7,282 725.3,287.6 737.6,282.3 751.1,276.4 "/>
<path class="st14" d="M724.8,319.3c0-0.2,0-0.3,0.1-0.5c0.1-0.2,0.1-0.4,0.1-0.6v-0.1c0.4-1.7,1-3.3,1.8-4.8c0.4-1,0.9-1.9,1.5-2.8
	v-0.1l-2.4-1.2c-0.6,0.8-1.1,1.7-1.4,2.6c-0.5,1.2-1,2.4-1.3,3.7l-28.1-16l-0.2,1c-0.2,1.5-0.2,3,0.6,3.5l29.6,18
	C724.7,321.1,724.6,320.2,724.8,319.3z"/>
<path class="st14" d="M722.9,310.5c1.7-4.1,4.6-6.5,6.9-5.7h-0.1l-30.9-14.1c-1.2-0.6-2.8,1-3.7,3.8c-0.2,0.6-0.4,1.3-0.5,1.9
	l27.8,15.8C722.5,311.6,722.7,311,722.9,310.5z"/>
<rect x="683.9" y="328.3" class="st2" width="100" height="21"/>
<text transform="matrix(1.03 0 0 1 683.9004 343.3101)" class="st3 st15">$546.924</text>
<rect x="647.2" y="195.9" class="st2" width="103.7" height="22.3"/>
<text transform="matrix(1.03 0 0 1 647.1797 211.6201)" class="st3 st6">$520.812</text>
<path class="st16" d="M1102.6,287.6h-3.7c-0.5-2.2-1.5-4.3-2.8-6.2l3.2-3.1c0.2-0.2,0.3-0.5,0.4-0.8c0-0.3-0.1-0.6-0.4-0.8l-4.1-4
	c-0.5-0.4-1.3-0.4-1.8,0l-3.2,3.1c-1.8-1.1-3.7-2-5.7-2.5v-4c0-0.6-0.6-1.2-1.2-1.2h-5.9c-0.6,0-1.2,0.6-1.2,1.2v3.9
	c-2.1,0.4-4.1,1.2-5.9,2.3l-3.4-3.3c-0.5-0.4-1.3-0.4-1.8,0l-4.1,4c-0.4,0.3-0.5,1-0.2,1.4c0.1,0.1,0.1,0.1,0.2,0.2l3.4,3.3
	c-1.3,2-2.2,4.1-2.8,6.4h-3.8c-0.6,0-1.2,0.6-1.2,1.2v5.8c0,0.6,0.6,1.2,1.2,1.2h3.7c0.4,1.9,1.1,3.7,2.1,5.4l3-3.6
	c-3.4-7.4-0.2-16.3,7.2-19.7s16.3-0.2,19.7,7.2c3.4,7.4,0.2,16.3-7.2,19.7c-1.9,0.9-4.1,1.4-6.2,1.4c-1.4,0-2.8-0.2-4.2-0.6
	l-2.9,3.3c0.9,0.3,1.9,0.6,2.9,0.8v3.3c0,0.6,0.6,1.2,1.2,1.2h5.9c0.6,0,1.2-0.6,1.2-1.2v-3.5c2.2-0.5,4.4-1.4,6.3-2.7l2.6,2.5
	c0.3,0.4,1,0.5,1.4,0.2c0.1-0.1,0.1-0.1,0.2-0.2l4.1-4c0.2-0.2,0.3-0.5,0.4-0.8c0-0.3-0.1-0.6-0.4-0.8l-2.6-2.5
	c1.2-1.7,2-3.7,2.3-5.8h3.7c0.6,0,1.2-0.6,1.2-1.2v-5.8C1103.8,288.2,1103.4,287.6,1102.6,287.6z"/>
<path class="st16" d="M1092,290.2c-0.2-1.9-0.8-3.7-1.9-5.2l-7.2,8.3l-4.7-3.8l7.2-8.2c-1.6-0.7-3.4-1-5.2-0.8
	c-6,0.4-10.4,5.6-10,11.6c0.1,1.2,0.4,2.4,0.9,3.5l0.1,0.1l-17.4,20.1c-0.7,0.9-1.1,2-1,3.1c0.1,1.1,0.6,2.1,1.5,2.8
	c0.9,0.7,2,1.1,3.2,1c1.1-0.1,2.2-0.6,2.9-1.5l17.2-19.8l0.2,0.1c1.4,0.5,2.9,0.6,4.4,0.5C1088.1,301.3,1092.5,296.1,1092,290.2z
	 M1057.2,319.6c-0.8,0.1-1.5-0.5-1.6-1.3c0-0.8,0.6-1.5,1.4-1.6c0.8-0.1,1.5,0.5,1.6,1.3c0.1,0.7-0.4,1.5-1.1,1.6
	C1057.4,319.6,1057.3,319.6,1057.2,319.6z"/>
<rect x="1031.9" y="331.7" class="st2" width="86.8" height="19.6"/>
<text transform="matrix(1.03 0 0 1 1031.9004 346.7002)" class="st3 st15">$803.793</text>
<path d="M1023.4,140.4c-0.5,0.6-1.2,1.4-2.1,2.4c-3.8-3.6-7.5-4.1-10.3-4.5c-8,13-17,20.6-28.8,28.7c-0.4,0.1-0.8,0.2-1.1,0.4
	c-2.1,1.4-3,3.8-3.5,6.7c-1.2,6.7,0.9,14.8,7.2,16.2c3.7,0.8,6.1,0.2,7.7-1.8c1.2-1.4,6.5-7.5,13.3-14.6c7.7-7.9,17-15.4,20.8-18.6
	c3.5-3,2.8-7.7,0.3-11.3c-0.9-1.3-2-2.5-3.3-3.4L1023.4,140.4z M994.2,183.1c0.4-4.2,0.4-8.3,0.2-12.5c2-1.2,4-2.5,5.8-4
	c8.9-6.7,16.1-14.6,23.4-23.3c2.6,2.4,4.9,7.3,1.8,10.1c-7.3,5.8-14.3,12-21,18.6C1000.3,176.4,996.6,180.3,994.2,183.1z
	 M990.9,186.8c-1.1,1.4-2.8,1.8-5.6,1.2c-5.8-1.4-7-9.5-5.4-15.2c1.6-5.5,6.5-4.7,8-0.8l-6.3,6.3c0.2,0.6,0.5,4.5,3.7,5.5
	c2.3,0.8,4.2-1.6,4.9-4.3c0.4-2.1,0.4-4.4,0-6.5c-0.2-2.7-1.9-5-4.4-6.1c11-7.7,18.5-14.2,26.1-26.1c2.9,0.4,5.7,1.7,7.9,3.6
	c-7.3,8.5-22.4,24.5-27.4,24.5c0,1.2,0.5,11.3-0.2,14.8C992,184.8,991.6,185.9,990.9,186.8L990.9,186.8z M988.4,174.6
	c0.2,2.2,0,4.9-1.2,6.3c-1.2,1.8-2.8,0-3.3-1.8L988.4,174.6z"/>
<path d="M1021.1,181.9c-0.7-2.5-1.9-4.9-3.3-7.1c-1.7-2-3.7-3.6-6.1-4.7c1.7,2.3,3,4.9,3.7,7.7c0.6,2.1,1.1,4.3,1.4,6.5l-2.4-1.4
	l-1.9,4c0.5-3.4,0.1-6.9-1.2-10.1c-1.9-4.7-3.3-6.1-3.3-6.1c0.5-8.5-3.2-13-10.7-13.6l5.6-5.7c6.6-0.2,10.5,7.9,9.8,14.8
	c5.1,3.2,9.8,7.7,14,12.1l-3.8,0.8L1021.1,181.9z"/>
<rect x="962.5" y="195.5" class="st2" width="92.4" height="17.8"/>
<text transform="matrix(1.03 0 0 1 962.5205 211.2197)" class="st3 st6">$774.327</text>
<path d="M1445.2,273.1c-0.5,0.6-1.2,1.4-2.1,2.4c-2.8-2.7-6.4-4.3-10.3-4.5c-8,13-17,20.6-28.8,28.7c-0.4,0.1-0.8,0.2-1.1,0.4
	c-2.1,1.4-3,3.8-3.5,6.7c-1.2,6.7,0.9,14.8,7.2,16.2c3.7,0.8,6.1,0.2,7.7-1.8c1.2-1.4,6.5-7.5,13.3-14.6c7.7-7.9,17-15.4,20.8-18.6
	c3.5-3,2.8-7.7,0.3-11.3c-0.9-1.3-2-2.5-3.3-3.4L1445.2,273.1z M1416,315.8c0.4-4.2,0.4-8.3,0.2-12.5c2-1.2,4-2.5,5.8-4
	c8.9-6.7,16.1-14.6,23.4-23.3c2.6,2.4,4.9,7.3,1.8,10.1c-7.3,5.8-14.3,12-21,18.6C1422.2,309.1,1418.5,313,1416,315.8z
	 M1412.7,319.6c-1.1,1.4-2.8,1.8-5.6,1.2c-5.8-1.4-7-9.5-5.4-15.2c1.6-5.5,6.5-4.7,8-0.8l-6.3,6.3c0.2,0.6,0.5,4.5,3.7,5.5
	c2.3,0.8,4.2-1.6,4.9-4.3c0.4-2.1,0.4-4.4,0-6.5c-0.2-2.7-1.9-5-4.4-6.1c11-7.7,18.5-14.2,26.1-26.1c2.9,0.4,5.7,1.7,7.9,3.6
	c-7.3,8.5-22.4,24.5-27.4,24.5c0,1.2,0.5,11.3-0.2,14.8C1413.8,317.6,1413.4,318.7,1412.7,319.6L1412.7,319.6z M1410.3,307.3
	c0.2,2.2,0,4.9-1.2,6.3c-1.2,1.8-2.8,0-3.3-1.8L1410.3,307.3z"/>
<path d="M1443,314.6c-0.7-2.5-1.9-4.9-3.3-7.1c-1.7-2-3.7-3.6-6.1-4.7c1.7,2.3,3,4.9,3.7,7.7c0.6,2.1,1.1,4.3,1.4,6.5l-2.4-1.4
	l-1.9,4c0.5-3.4,0.1-6.9-1.2-10.1c-1.9-4.7-3.3-6.1-3.3-6.1c0.5-8.5-3.2-13-10.7-13.6l5.6-5.7c6.6-0.2,10.5,7.9,9.8,14.8
	c5.1,3.2,9.8,7.7,14,12.1l-3.8,0.8L1443,314.6z"/>
<rect x="1377.9" y="331.2" class="st2" width="109" height="19.1"/>
<text transform="matrix(1.03 0 0 1 1377.9004 346.9199)" class="st3 st6">$1.346.752</text>
<rect x="99.7" y="231.2" class="st1" width="1385.4" height="21.3"/>
</svg>
