<?xml version="1.0" encoding="utf-8"?>
<!-- Generator: Adobe Illustrator 22.0.1, SVG Export Plug-In . SVG Version: 6.00 Build 0)  -->
<svg version="1.1" id="Capa_1" xmlns="http://www.w3.org/2000/svg" xmlns:xlink="http://www.w3.org/1999/xlink" x="0px" y="0px"
	 viewBox="0 0 1509.8 412.4" style="enable-background:new 0 0 1509.8 412.4;" xml:space="preserve">
<style type="text/css">
	.st0{fill:none;stroke:#000000;stroke-width:3.0401;stroke-miterlimit:10;}
	.st1{fill:none;}
	.st2{font-family:'ArialMT';}
	.st3{font-size:16px;}
	.st4{letter-spacing:27.6;}
	.st5{letter-spacing:9.2;}
	.st6{fill:#FF0000;}
	.st7{font-size:21px;}
	.st8{fill:none;stroke:#000000;stroke-width:0.25;stroke-miterlimit:10;}
	.st9{font-size:12.243px;}
	.st10{fill:#FCEE21;}
	.st11{font-family:'Arial-Black';}
	.st12{font-size:16.6514px;}
	.st13{fill:#FF0000;stroke:#FF0000;stroke-width:1.3343;stroke-miterlimit:10;}
	.st14{fill:#FF0000;stroke:#FF0000;stroke-width:0.2169;stroke-miterlimit:10;}
	.st15{font-size:20px;}
	.st16{stroke:#000000;stroke-width:0.1414;stroke-miterlimit:10;}
</style>
<rect x="86.8" y="238" class="st0" width="1385.4" height="21.3"/>
<rect x="100.7" y="242.3" class="st1" width="1371.8" height="36.8"/>
<text transform="matrix(0.9794 0 0 1 100.686 254.37)" class="st2 st3">$100.000</text>
<text transform="matrix(0.9794 0 0 1 166.0317 254.37)" class="st2 st3 st4"> </text>
<text transform="matrix(0.9794 0 0 1 198.538 254.37)" class="st2 st3 st4"> </text>
<text transform="matrix(0.9794 0 0 1 231.1518 254.37)" class="st2 st3">$200.000</text>
<text transform="matrix(0.9794 0 0 1 296.4975 254.37)" class="st2 st3 st4"> </text>
<text transform="matrix(0.9794 0 0 1 329.0038 254.37)" class="st2 st3 st4"> </text>
<text transform="matrix(0.9794 0 0 1 361.6176 254.37)" class="st2 st3">$300.000</text>
<text transform="matrix(0.9794 0 0 1 426.9633 254.37)" class="st2 st3 st4"> </text>
<text transform="matrix(0.9794 0 0 1 459.4692 254.37)" class="st2 st3 st4"> </text>
<text transform="matrix(0.9794 0 0 1 492.0834 254.37)" class="st2 st3">$400.000</text>
<text transform="matrix(0.9794 0 0 1 557.4291 254.37)" class="st2 st3 st4"> </text>
<text transform="matrix(0.9794 0 0 1 589.935 254.37)" class="st2 st3 st4"> </text>
<text transform="matrix(0.9794 0 0 1 622.559 254.37)" class="st2 st3">$500.000</text>
<text transform="matrix(0.9794 0 0 1 687.9047 254.37)" class="st2 st3 st4"> </text>
<text transform="matrix(0.9794 0 0 1 720.4018 254.37)" class="st2 st3 st4"> </text>
<text transform="matrix(0.9794 0 0 1 753.0248 254.37)" class="st2 st3">$600.000</text>
<text transform="matrix(0.9794 0 0 1 818.3705 254.37)" class="st2 st3 st4"> </text>
<text transform="matrix(0.9794 0 0 1 850.8774 254.37)" class="st2 st3 st4"> </text>
<text transform="matrix(0.9794 0 0 1 883.4907 254.37)" class="st2 st3">$700.000</text>
<text transform="matrix(0.9794 0 0 1 948.8364 254.37)" class="st2 st3 st4"> </text>
<text transform="matrix(0.9794 0 0 1 981.3432 254.37)" class="st2 st3 st4"> </text>
<text transform="matrix(0.9794 0 0 1 1013.9565 254.37)" class="st2 st3">$800.000</text>
<text transform="matrix(0.9794 0 0 1 1079.3021 254.37)" class="st2 st3 st4"> </text>
<text transform="matrix(0.9794 0 0 1 1111.809 254.37)" class="st2 st3 st4"> </text>
<text transform="matrix(0.9794 0 0 1 1144.4232 254.37)" class="st2 st3">$900.000</text>
<text transform="matrix(0.9794 0 0 1 1209.7679 254.37)" class="st2 st3 st4"> </text>
<text transform="matrix(0.9794 0 0 1 1242.2748 254.37)" class="st2 st3 st4"> </text>
<text transform="matrix(0.9794 0 0 1 1274.889 254.37)" class="st2 st3">$1.000.000 </text>
<text transform="matrix(0.9794 0 0 1 1357.6576 254.37)" class="st2 st3 st5"> </text>
<text transform="matrix(0.9794 0 0 1 1372.7406 254.37)" class="st2 st3 st4"> </text>
<text transform="matrix(0.9794 0 0 1 1405.3549 254.37)" class="st2 st3">   +++</text>
<path class="st6" d="M710.5,159h-3.7c-0.6-2.3-1.4-4.3-2.8-6.1l3.2-3.1c0.2-0.2,0.4-0.6,0.4-0.8c0-0.4-0.2-0.6-0.4-0.8l-4.1-4
	c-0.4-0.4-1.2-0.4-1.8,0l-3.2,3.1c-1.8-1.2-3.7-1.9-5.7-2.5v-4c0-0.6-0.6-1.2-1.2-1.2h-5.9c-0.6,0-1.2,0.6-1.2,1.2v3.9
	c-2.2,0.4-4.1,1.3-5.9,2.3l-3.4-3.3c-0.4-0.4-1.2-0.4-1.8,0l-4.1,4c-0.2,0.2-0.4,0.6-0.4,0.8c0,0.2,0.2,0.6,0.4,0.8l3.4,3.3
	c-1.2,1.9-2.2,4-2.8,6.4h-3.8c-0.6,0-1.2,0.6-1.2,1.2v5.8c0,0.6,0.6,1.2,1.2,1.2h3.7c0.3,2,1.3,3.7,2.1,5.4l3-3.6
	c-0.8-1.8-1.3-3.8-1.3-5.9c0-8,6.6-14.5,14.8-14.5s14.8,6.5,14.8,14.5s-6.6,14.5-14.8,14.5c-1.4,0-2.9-0.2-4.2-0.6l-2.9,3.3
	c0.9,0.3,1.9,0.6,2.9,0.8v3.3c0,0.6,0.6,1.2,1.2,1.2h5.9c0.6,0,1.2-0.6,1.2-1.2v-3.5c2.3-0.6,4.3-1.3,6.3-2.7l2.6,2.5
	c0.2,0.2,0.6,0.4,0.8,0.4s0.6-0.2,0.8-0.4l4.1-4c0.2-0.2,0.4-0.6,0.4-0.8c0-0.4-0.2-0.6-0.4-0.8l-2.6-2.5c1.2-1.7,2-3.6,2.3-5.8h3.7
	c0.6,0,1.2-0.6,1.2-1.2v-5.8C711.7,159.6,711.3,159,710.5,159z"/>
<path class="st6" d="M699.9,161.6c-0.2-1.8-0.8-3.6-2-5.2l-7.2,8.3l-4.7-3.8l7.2-8.2c-1.7-0.7-3.4-1-5.2-0.8
	c-6,0.5-10.5,5.7-10,11.6c0.1,1.2,0.4,2.3,0.9,3.5l0.1,0.1L661.6,187c-0.7,0.8-1.1,2-1,3.1c0.1,1.1,0.6,2.1,1.5,2.8s2,1.1,3.2,1
	c1.1-0.1,2.2-0.6,2.9-1.5l17.2-19.8l0.2,0.1c1.4,0.5,2.9,0.6,4.4,0.5C695.8,172.7,700.4,167.5,699.9,161.6z M665.1,191
	c-0.9,0.1-1.5-0.6-1.6-1.3c-0.1-0.8,0.6-1.5,1.4-1.6c0.9-0.1,1.5,0.6,1.6,1.3S665.9,190.9,665.1,191z"/>
<rect x="782.7" y="382.1" class="st1" width="92" height="32.3"/>
<text transform="matrix(0.9794 0 0 1 782.7045 397.9374)" class="st2 st7">$625.448</text>
<rect x="577.8" y="24.8" class="st1" width="439.9" height="108.7"/>
<text transform="matrix(1 0 0 1 738.8026 40.5802)" class="st2 st7">TARAPACÁ l</text>
<text transform="matrix(1 0 0 1 738.8026 40.5802)" class="st8 st2 st7">TARAPACÁ l</text>
<text transform="matrix(1 0 0 1 586.7503 90.9801)" class="st2 st7">Población:</text>
<text transform="matrix(1 0 0 1 586.7503 90.9801)" class="st8 st2 st7">Población:</text>
<text transform="matrix(1 0 0 1 683.6429 90.9801)" class="st2 st7"> 330.558   </text>
<text transform="matrix(1 0 0 1 683.6429 90.9801)" class="st8 st2 st7"> 330.558   </text>
<text transform="matrix(1 0 0 1 782.887 90.9801)" class="st2 st7">Superficie:</text>
<text transform="matrix(1 0 0 1 782.887 90.9801)" class="st8 st2 st7">Superficie:</text>
<text transform="matrix(1 0 0 1 880.5359 90.9801)" class="st2 st7"> 42.225,8 km</text>
<text transform="matrix(1 0 0 1 880.5359 90.9801)" class="st8 st2 st7"> 42.225,8 km</text>
<text transform="matrix(1 0 0 1 1001.935 83.9872)" class="st2 st9">2</text>
<text transform="matrix(1 0 0 1 1001.935 83.9872)" class="st8 st2 st9">2</text>
<rect x="826.9" y="129.5" class="st10" width="4.5" height="244"/>
<rect x="4.1" y="182" class="st1" width="105.4" height="23.7"/>
<text transform="matrix(0.9794 0 0 1 4.1366 193.9423)" class="st11 st12">MUJERES</text>
<rect x="4.1" y="303.5" class="st1" width="96.2" height="26"/>
<text transform="matrix(0.9794 0 0 1 4.1366 315.3857)" class="st11 st12">HOMBRES</text>
<rect x="203.2" y="66.3" class="st1" width="80.6" height="23.3"/>
<g>
	<g>
		<path class="st13" d="M450.8,296.3H437c-1.7,0-3.2,1.6-3.2,3.6v15.8c0,2,1.4,3.6,3.2,3.6h13.8c1.7,0,3.2-1.6,3.2-3.6V300
			C453.9,298,452.5,296.3,450.8,296.3z M452.8,315.8c0,1.3-0.9,2.3-2.1,2.3h-13.8c-1.1,0-2.1-1.1-2.1-2.3V300c0-1.3,0.9-2.3,2.1-2.3
			h13.8c1.1,0,2.1,1.1,2.1,2.3V315.8L452.8,315.8z"/>
		<path class="st13" d="M446.2,306.8c1-0.5,1.5-1.1,1.5-2.5c0-1.7-1-3.1-3.6-3.1h-4v11.6h4.4c2.6,0,3.7-1.5,3.7-3.2
			C448.3,308.1,447.4,307.1,446.2,306.8z M441.9,303.1h2.2c1.1,0,1.8,0.3,1.8,1.6c0,1-0.6,1.4-1.9,1.4h-2.2L441.9,303.1L441.9,303.1
			z M444.6,311h-2.7v-3.2h2.5c1.4,0,2.2,0.5,2.2,1.5C446.5,310.7,445.7,311,444.6,311z"/>
		<path class="st13" d="M462.5,294.6c1.7,0,3.2-1.6,3.2-3.6v-15.8c0-2-1.4-3.6-3.2-3.6h-13.8c-1.7,0-3.2,1.6-3.2,3.6V291
			c0,2,1.4,3.6,3.2,3.6H462.5L462.5,294.6z M446.6,291v-15.8c0-1.3,0.9-2.3,2.1-2.3h13.8c1.1,0,2.1,1.1,2.1,2.3V291
			c0,1.3-0.9,2.3-2.1,2.3h-13.8C447.5,293.3,446.6,292.3,446.6,291z"/>
		<path class="st13" d="M453,285.4h5.1l1,2.6h1.8l-4.5-11.6h-1.8l-4.5,11.6h1.8L453,285.4z M455.6,278.8l1.8,4.8h-3.7L455.6,278.8z"
			/>
		<path class="st13" d="M474.3,296.3h-13.8c-1.7,0-3.2,1.6-3.2,3.6v15.8c0,2,1.4,3.6,3.2,3.6h13.8c1.7,0,3.2-1.6,3.2-3.6V300
			C477.4,298,476,296.3,474.3,296.3z M476.3,315.8c0,1.3-0.9,2.3-2.1,2.3h-13.8c-1.1,0-2.1-1.1-2.1-2.3V300c0-1.3,0.9-2.3,2.1-2.3
			h13.8c1.1,0,2.1,1.1,2.1,2.3V315.8L476.3,315.8z"/>
		<path class="st13" d="M468.2,302.9c1.2,0,2,0.4,2.9,1.4l1.1-1.4c-1-1.3-2.4-2-3.9-2c-3.2,0-5.5,2.6-5.5,6c0,3.5,2.3,6,5.3,6
			c1.5,0,2.8-0.7,3.9-2l-1.1-1.3c-1,1.1-1.8,1.4-2.9,1.4c-1.8,0-3.5-1.7-3.5-4.1C464.5,304.5,466.2,302.9,468.2,302.9z"/>
	</g>
	<rect x="416.4" y="326.5" class="st1" width="84.3" height="24.1"/>
	<text transform="matrix(0.9273 0 0 1 416.3588 342.3251)" class="st2 st7">$352.465</text>
</g>
<path class="st14" d="M490.7,186.8c-0.6-0.4-1.3-0.6-2.1-0.5c-0.4,0-0.8,0.2-1.1,0.4l3.6,1.8c-1.1,1.6-2,3.3-2.9,5.1
	c-0.6,1.3-1.1,2.6-1.5,4c-0.3,1.1-0.5,2.3-0.4,3.5c1.7-0.5,3.5-2.9,4.7-5.8c0.8-1.8,1.2-3.9,1.2-6.1
	C492.1,188.2,491.5,187.3,490.7,186.8z"/>
<path class="st14" d="M455.6,163.6v7.4l19.9,9.1h0c1.5,0,3-0.1,4.5-0.3c3.9-0.7,6.4-2.1,6.4-3.6V164l-12.2,5.3L455.6,163.6z"/>
<polygon class="st14" points="469.6,148.3 443.3,157.5 455.6,161.2 474.1,166.8 486.4,161.5 499.9,155.6 "/>
<path class="st14" d="M473.6,198.5c0-0.2,0-0.3,0.1-0.5s0.1-0.4,0.1-0.6l0-0.1c0.5-1.7,1-3.3,1.8-4.8c0.4-1,0.9-1.9,1.5-2.8
	c0,0,0-0.1,0-0.1l-2.4-1.2c-0.6,0.8-1,1.6-1.4,2.6c-0.5,1.2-1,2.4-1.3,3.7l-28.1-16l-0.2,1c-0.2,1.5-0.2,3,0.6,3.5l29.6,18
	C473.6,200.5,473.5,199.7,473.6,198.5z"/>
<path class="st14" d="M471.7,189.8c1.7-4.1,4.6-6.5,6.9-5.7l-0.1,0l-30.9-14.1c-1.2-0.6-2.8,1-3.7,3.8c-0.2,0.6-0.4,1.3-0.5,1.9
	l27.8,15.8C471.3,190.8,471.5,190.3,471.7,189.8z"/>
<rect x="424.1" y="204.5" class="st1" width="99.6" height="21.9"/>
<text transform="matrix(1.0255 0 0 1 424.1352 220.3192)" class="st2 st7">$359.316</text>
<g>
	<g>
		<path class="st13" d="M289.6,175.2h-13.8c-1.7,0-3.2,1.6-3.2,3.6v15.8c0,2,1.4,3.6,3.2,3.6h13.8c1.7,0,3.2-1.6,3.2-3.6v-15.8
			C292.7,176.9,291.3,175.2,289.6,175.2z M291.6,194.7c0,1.3-0.9,2.3-2.1,2.3h-13.8c-1.1,0-2.1-1.1-2.1-2.3v-15.8
			c0-1.3,0.9-2.3,2.1-2.3h13.8c1.1,0,2.1,1.1,2.1,2.3V194.7L291.6,194.7z"/>
		<path class="st13" d="M285,185.7c1-0.5,1.5-1.1,1.5-2.5c0-1.7-1-3.1-3.6-3.1h-4v11.6h4.4c2.6,0,3.7-1.5,3.7-3.2
			C287,187,286.2,186,285,185.7z M280.7,181.9h2.2c1.1,0,1.8,0.3,1.8,1.6c0,1-0.6,1.4-1.9,1.4h-2.2L280.7,181.9L280.7,181.9z
			 M283.4,189.9h-2.7v-3.2h2.5c1.4,0,2.2,0.5,2.2,1.5C285.3,189.6,284.5,189.9,283.4,189.9z"/>
		<path class="st13" d="M301.3,173.5c1.7,0,3.2-1.6,3.2-3.6V154c0-2-1.4-3.6-3.2-3.6h-13.8c-1.7,0-3.2,1.6-3.2,3.6v15.8
			c0,2,1.4,3.6,3.2,3.6H301.3L301.3,173.5z M285.4,169.9V154c0-1.3,0.9-2.4,2.1-2.4h13.8c1.1,0,2.1,1.1,2.1,2.4v15.8
			c0,1.3-0.9,2.3-2.1,2.3h-13.8C286.3,172.2,285.4,171.2,285.4,169.9z"/>
		<path class="st13" d="M291.8,164.3h5.1l1,2.6h1.8l-4.5-11.6h-1.8l-4.5,11.6h1.8L291.8,164.3z M294.4,157.7l1.8,4.8h-3.7
			L294.4,157.7z"/>
		<path class="st13" d="M313.1,175.2h-13.8c-1.7,0-3.2,1.6-3.2,3.6v15.8c0,2,1.4,3.6,3.2,3.6h13.8c1.7,0,3.2-1.6,3.2-3.6v-15.8
			C316.2,176.9,314.8,175.2,313.1,175.2z M315.1,194.7c0,1.3-0.9,2.3-2.1,2.3h-13.8c-1.1,0-2.1-1.1-2.1-2.3v-15.8
			c0-1.3,0.9-2.3,2.1-2.3H313c1.1,0,2.1,1.1,2.1,2.3V194.7L315.1,194.7z"/>
		<path class="st13" d="M307,181.8c1.2,0,2,0.4,2.9,1.4l1.1-1.4c-1-1.3-2.4-2-3.9-2c-3.2,0-5.5,2.6-5.5,6c0,3.5,2.3,6,5.3,6
			c1.5,0,2.8-0.7,3.9-2l-1.1-1.3c-1,1.1-1.8,1.4-2.9,1.4c-1.8,0-3.5-1.7-3.5-4.1C303.3,183.4,305,181.8,307,181.8z"/>
	</g>
	<rect x="249.6" y="204.8" class="st1" width="93.1" height="18.8"/>
	<text transform="matrix(1.0255 0 0 1 249.6073 220.6376)" class="st2 st7">$216.845</text>
</g>
<g>
	<path class="st14" d="M719.7,312.8c-0.6-0.4-1.3-0.6-2.1-0.5c-0.4,0-0.8,0.2-1.1,0.4l3.6,1.8c-1.1,1.6-2,3.3-2.9,5.1
		c-0.6,1.3-1.1,2.6-1.5,4c-0.3,1.1-0.5,2.3-0.4,3.5c1.7-0.5,3.5-2.9,4.7-5.8c0.8-1.8,1.2-3.9,1.2-6.1
		C721,314.1,720.5,313.2,719.7,312.8z"/>
	<path class="st14" d="M695.5,289.6v7.4l19.9,9.1h0c1.5,0,3-0.1,4.5-0.3c3.9-0.7,6.4-2.1,6.4-3.6V290l-12.2,5.3L695.5,289.6z"/>
	<polygon class="st14" points="709.6,274.3 683.3,283.5 695.5,287.2 714.1,292.8 726.4,287.5 739.9,281.6 	"/>
	<path class="st14" d="M713.6,324.5c0-0.2,0-0.3,0.1-0.5s0.1-0.4,0.1-0.6l0-0.1c0.5-1.7,1-3.3,1.8-4.8c0.4-1,0.9-1.9,1.5-2.8
		c0,0,0-0.1,0-0.1l-2.4-1.2c-0.6,0.8-1,1.6-1.4,2.6c-0.5,1.2-1,2.4-1.3,3.7l-28.1-16l-0.2,1c-0.2,1.5-0.2,3,0.6,3.5l29.6,18
		C713.5,326.5,713.4,325.6,713.6,324.5z"/>
	<path class="st14" d="M711.7,315.7c1.7-4.1,4.6-6.5,6.9-5.7l-0.1,0l-30.9-14.1c-1.2-0.6-2.8,1-3.7,3.8c-0.2,0.6-0.4,1.3-0.5,1.9
		l27.8,15.8C711.3,316.8,711.5,316.3,711.7,315.7z"/>
	<rect x="672.7" y="333.5" class="st1" width="100" height="21"/>
	<text transform="matrix(1.0255 0 0 1 672.6977 348.5487)" class="st2 st15">$546.924</text>
</g>
<rect x="636" y="201.1" class="st1" width="103.7" height="22.3"/>
<text transform="matrix(1.0255 0 0 1 635.9858 216.8544)" class="st2 st7">$520.812</text>
<g>
	<path class="st16" d="M1091.4,292.8h-3.7c-0.6-2.3-1.4-4.3-2.8-6.2l3.2-3.1c0.2-0.2,0.4-0.6,0.4-0.8c0-0.4-0.2-0.6-0.4-0.8l-4.1-4
		c-0.4-0.4-1.2-0.4-1.8,0l-3.2,3.1c-1.8-1.2-3.7-1.9-5.7-2.5v-4c0-0.6-0.6-1.2-1.2-1.2h-5.9c-0.6,0-1.2,0.6-1.2,1.2v3.9
		c-2.2,0.4-4.1,1.3-5.9,2.3l-3.4-3.3c-0.4-0.4-1.2-0.4-1.8,0l-4.1,4c-0.2,0.2-0.4,0.6-0.4,0.8c0,0.2,0.2,0.6,0.4,0.8l3.4,3.3
		c-1.2,1.9-2.2,4-2.8,6.4h-3.8c-0.6,0-1.2,0.6-1.2,1.2v5.8c0,0.6,0.6,1.2,1.2,1.2h3.7c0.3,2,1.3,3.7,2.1,5.4l3-3.6
		c-0.8-1.8-1.3-3.8-1.3-5.9c0-8,6.6-14.5,14.8-14.5c8.2,0,14.8,6.5,14.8,14.5s-6.6,14.5-14.8,14.5c-1.4,0-2.9-0.2-4.2-0.6l-2.9,3.3
		c0.9,0.3,1.9,0.6,2.9,0.8v3.3c0,0.6,0.6,1.2,1.2,1.2h5.9c0.6,0,1.2-0.6,1.2-1.2v-3.5c2.3-0.6,4.3-1.3,6.3-2.7l2.6,2.5
		c0.2,0.2,0.6,0.4,0.8,0.4c0.2,0,0.6-0.2,0.8-0.4l4.1-4c0.2-0.2,0.4-0.6,0.4-0.8c0-0.4-0.2-0.6-0.4-0.8l-2.6-2.5
		c1.2-1.7,1.9-3.6,2.3-5.8h3.7c0.6,0,1.2-0.6,1.2-1.2v-5.8C1092.6,293.4,1092.2,292.8,1091.4,292.8z"/>
	<path class="st16" d="M1080.8,295.4c-0.2-1.8-0.8-3.6-1.9-5.2l-7.2,8.3l-4.7-3.8l7.2-8.2c-1.7-0.7-3.4-1-5.2-0.8
		c-6,0.5-10.5,5.7-10,11.6c0.1,1.2,0.4,2.3,0.9,3.5l0.1,0.1l-17.4,20.1c-0.7,0.8-1.1,2-1,3.1c0.1,1.1,0.6,2.1,1.5,2.8s2,1.1,3.2,1
		c1.1-0.1,2.2-0.6,2.9-1.5l17.2-19.8l0.2,0.1c1.4,0.5,2.9,0.6,4.4,0.5C1076.8,306.6,1081.3,301.4,1080.8,295.4z M1046,324.8
		c-0.9,0.1-1.5-0.6-1.6-1.3c-0.1-0.8,0.6-1.5,1.4-1.6c0.9-0.1,1.5,0.6,1.6,1.3C1047.5,324.1,1046.9,324.8,1046,324.8z"/>
	<rect x="1020.7" y="336.9" class="st1" width="86.8" height="19.6"/>
	<text transform="matrix(1.0255 0 0 1 1020.6977 351.9364)" class="st2 st15">$803.793</text>
</g>
<g>
	<g>
		<path d="M1012.2,145.6c-0.5,0.6-1.2,1.4-2.1,2.4c-3.8-3.6-7.5-4.1-10.3-4.5c-8,13-17,20.6-28.8,28.7c-0.3,0-0.7,0.2-1.1,0.4
			c-2.1,1.4-3,3.8-3.5,6.7c-1.2,6.7,0.9,14.8,7.2,16.2c3.7,0.8,6.1,0.2,7.7-1.8c1.2-1.4,6.5-7.5,13.3-14.6
			c7.7-7.9,17-15.4,20.8-18.6c3.5-3,2.8-7.7,0.3-11.3c-0.9-1.4-2.1-2.6-3.3-3.4L1012.2,145.6z M983,188.3c0.5-3.6,0.3-10.3,0.2-12.5
			c0.9-0.4,2.6-1.6,5.8-4c8.9-6.7,16.1-14.6,23.4-23.3c2.6,2.4,4.9,7.3,1.8,10.1c-3.7,3-13.5,10.9-21,18.6
			C989.1,181.6,985.4,185.5,983,188.3z M979.7,192c-1.1,1.4-2.8,1.8-5.6,1.2c-5.8-1.4-7-9.5-5.4-15.2c1.6-5.5,6.5-4.7,8-0.8
			l-6.3,6.3c0.2,0.6,0.5,4.5,3.7,5.5c2.3,0.8,4.2-1.6,4.9-4.3c0.3-1.8,0.5-4,0-6.5c-0.3-3-2.1-5.1-4.4-6.1
			c11-7.7,18.5-14.2,26.1-26.1c3.2,0.6,5.2,1.4,7.9,3.6c-7.3,8.5-22.4,24.5-27.4,24.5c0,1.2,0.5,11.3-0.2,14.8
			C980.7,190.1,980.4,191.3,979.7,192z M977.2,179.8c0.2,2.2,0,4.9-1.2,6.3c-1.2,1.8-2.8,0-3.3-1.8L977.2,179.8z"/>
		<path d="M1009.9,187.1c0,0-1.2-4.2-3.3-7.1s-6.1-4.7-6.1-4.7s2.6,3.2,3.7,7.7c1.2,4.5,1.4,6.5,1.4,6.5l-2.4-1.4l-1.9,4
			c0,0,0.9-5.3-1.2-10.1c-1.9-4.7-3.3-6.1-3.3-6.1c0.5-8.5-3.2-13-10.7-13.6l5.6-5.7c6.6-0.2,10.5,7.9,9.8,14.8
			c5.1,3.2,9.8,7.7,14,12.1l-3.8,0.8L1009.9,187.1z"/>
	</g>
	<rect x="951.3" y="200.7" class="st1" width="92.4" height="17.8"/>
	<text transform="matrix(1.0255 0 0 1 951.3237 216.455)" class="st2 st7">$774.327</text>
</g>
<g>
	<g>
		<path d="M1454,278.3c-0.5,0.6-1.2,1.4-2.1,2.4c-3.8-3.6-7.5-4.2-10.3-4.5c-8,13-17,20.6-28.8,28.7c-0.3,0-0.7,0.2-1.1,0.4
			c-2.1,1.4-3,3.8-3.5,6.7c-1.2,6.7,0.9,14.8,7.2,16.2c3.7,0.8,6.1,0.2,7.7-1.8c1.2-1.4,6.5-7.5,13.3-14.6
			c7.7-7.9,17-15.4,20.8-18.6c3.5-3,2.8-7.7,0.3-11.3c-0.9-1.4-2.1-2.6-3.3-3.4L1454,278.3z M1424.8,321c0.5-3.6,0.3-10.3,0.2-12.5
			c0.9-0.4,2.6-1.6,5.8-4c8.9-6.7,16.1-14.6,23.4-23.3c2.6,2.4,4.9,7.3,1.8,10.1c-3.7,3-13.5,10.9-21,18.6
			C1431,314.3,1427.3,318.2,1424.8,321z M1421.5,324.8c-1.1,1.4-2.8,1.8-5.6,1.2c-5.8-1.4-7-9.5-5.4-15.2c1.6-5.5,6.5-4.7,8-0.8
			l-6.3,6.3c0.2,0.6,0.5,4.5,3.7,5.5c2.3,0.8,4.2-1.6,4.9-4.3c0.3-1.8,0.5-4,0-6.5c-0.3-3-2.1-5.1-4.4-6.1
			c11-7.7,18.5-14.2,26.1-26.1c3.2,0.6,5.2,1.4,7.9,3.6c-7.3,8.5-22.4,24.5-27.4,24.5c0,1.2,0.5,11.3-0.2,14.8
			C1422.6,322.8,1422.2,324,1421.5,324.8z M1419.1,312.5c0.2,2.2,0,4.9-1.2,6.3c-1.2,1.8-2.8,0-3.3-1.8L1419.1,312.5z"/>
		<path d="M1451.8,319.8c0,0-1.2-4.2-3.3-7.1s-6.1-4.7-6.1-4.7s2.6,3.2,3.7,7.7c1.2,4.5,1.4,6.5,1.4,6.5l-2.4-1.4l-1.9,4
			c0,0,0.9-5.3-1.2-10.1c-1.9-4.7-3.3-6.1-3.3-6.1c0.5-8.5-3.2-13-10.7-13.6l5.6-5.7c6.6-0.2,10.5,7.9,9.8,14.8
			c5.1,3.2,9.8,7.7,14,12.1l-3.8,0.8L1451.8,319.8z"/>
	</g>
	<rect x="1386.7" y="336.4" class="st1" width="109" height="19.1"/>
	<text transform="matrix(1.0255 0 0 1 1386.6976 352.162)" class="st2 st7">$1.346.752</text>
</g>
</svg>
