<svg id="Capa_1" data-name="Capa 1" xmlns="http://www.w3.org/2000/svg" viewBox="0 0 1500.5 410.2"><defs><style>.cls-1{fill:#dcf4f3;stroke:#416190;stroke-miterlimit:5.83;stroke-width:5px;}.cls-11,.cls-13,.cls-2,.cls-3{fill:none;}.cls-11,.cls-13,.cls-19,.cls-2{stroke:#000;}.cls-11,.cls-13,.cls-16,.cls-17,.cls-19,.cls-2{stroke-miterlimit:10;}.cls-2{stroke-width:3.04px;}.cls-11,.cls-12,.cls-13,.cls-15,.cls-18,.cls-4,.cls-5,.cls-6,.cls-7,.cls-9{isolation:isolate;}.cls-4,.cls-5,.cls-6,.cls-7{font-size:16px;}.cls-11,.cls-12,.cls-13,.cls-18,.cls-4,.cls-5,.cls-6,.cls-7,.cls-9{font-family:ArialMT, Arial;}.cls-5{letter-spacing:1.73em;}.cls-6{letter-spacing:1.72em;}.cls-7{letter-spacing:0.58em;}.cls-16,.cls-17,.cls-8{fill:red;}.cls-11,.cls-9{font-size:21px;}.cls-10{letter-spacing:-0.07em;}.cls-11,.cls-13{stroke-width:0.25px;}.cls-12,.cls-13{font-size:12.24px;}.cls-14{fill:#fcee21;}.cls-15{font-size:16.65px;font-family:Arial-Black, Arial Black;font-weight:800;}.cls-16,.cls-17{stroke:red;}.cls-16{stroke-width:1.33px;}.cls-17{stroke-width:0.22px;}.cls-18{font-size:20px;}.cls-19{stroke-width:0.14px;}</style></defs><title>tarapaca2</title><rect class="cls-1" x="2.5" y="2.5" width="1495.5" height="405.2"/><rect class="cls-2" x="98" y="232.76" width="1385.4" height="21.3"/><rect class="cls-3" x="111.9" y="237.06" width="1371.8" height="36.8"/><text class="cls-4" transform="translate(111.88 249.13) scale(0.98 1)">$100.000</text><text class="cls-5" transform="translate(177.23 249.13) scale(0.98 1)"> </text><text class="cls-5" transform="translate(209.74 249.13) scale(0.98 1)"> </text><text class="cls-4" transform="translate(242.35 249.13) scale(0.98 1)">$200.000</text><text class="cls-5" transform="translate(307.7 249.13) scale(0.98 1)"> </text><text class="cls-5" transform="translate(340.2 249.13) scale(0.98 1)"> </text><text class="cls-4" transform="translate(372.82 249.13) scale(0.98 1)">$300.000</text><text class="cls-5" transform="translate(438.16 249.13) scale(0.98 1)"> </text><text class="cls-5" transform="translate(470.67 249.13) scale(0.98 1)"> </text><text class="cls-4" transform="translate(503.28 249.13) scale(0.98 1)">$400.000</text><text class="cls-5" transform="translate(568.63 249.13) scale(0.98 1)"> </text><text class="cls-5" transform="translate(601.13 249.13) scale(0.98 1)"> </text><text class="cls-4" transform="translate(633.76 249.13) scale(0.98 1)">$500.000</text><text class="cls-5" transform="translate(699.1 249.13) scale(0.98 1)"> </text><text class="cls-5" transform="translate(731.6 249.13) scale(0.98 1)"> </text><text class="cls-4" transform="translate(764.22 249.13) scale(0.98 1)">$600.000</text><text class="cls-5" transform="translate(829.57 249.13) scale(0.98 1)"> </text><text class="cls-5" transform="translate(862.08 249.13) scale(0.98 1)"> </text><text class="cls-4" transform="translate(894.69 249.13) scale(0.98 1)">$700.000</text><text class="cls-5" transform="translate(960.03 249.13) scale(0.98 1)"> </text><text class="cls-6" transform="translate(992.54 249.13) scale(0.98 1)"> </text><text class="cls-4" transform="translate(1025.15 249.13) scale(0.98 1)">$800.000</text><text class="cls-6" transform="translate(1090.5 249.13) scale(0.98 1)"> </text><text class="cls-6" transform="translate(1123.01 249.13) scale(0.98 1)"> </text><text class="cls-4" transform="translate(1155.62 249.13) scale(0.98 1)">$900.000</text><text class="cls-6" transform="translate(1220.97 249.13) scale(0.98 1)"> </text><text class="cls-6" transform="translate(1253.47 249.13) scale(0.98 1)"> </text><text class="cls-4" transform="translate(1286.09 249.13) scale(0.98 1)">$1.000.000 </text><text class="cls-7" transform="translate(1368.86 249.13) scale(0.98 1)"> </text><text class="cls-6" transform="translate(1383.94 249.13) scale(0.98 1)"> </text><text class="cls-4" transform="translate(1416.55 249.13) scale(0.98 1)"><tspan xml:space="preserve">   +++</tspan></text><path class="cls-8" d="M722.5,155h-3.7a16.22,16.22,0,0,0-2.8-6.1l3.2-3.1a1.52,1.52,0,0,0,.4-.8,1,1,0,0,0-.4-.8l-4.1-4a1.49,1.49,0,0,0-1.8,0l-3.2,3.1a20.62,20.62,0,0,0-5.7-2.5v-4a1.29,1.29,0,0,0-1.2-1.2h-5.9a1.29,1.29,0,0,0-1.2,1.2v3.9a19.1,19.1,0,0,0-5.9,2.3l-3.4-3.3a1.49,1.49,0,0,0-1.8,0l-4.1,4a1,1,0,0,0,0,1.6l3.4,3.3a21.81,21.81,0,0,0-2.8,6.4h-3.8a1.29,1.29,0,0,0-1.2,1.2V162a1.29,1.29,0,0,0,1.2,1.2h3.7a19.57,19.57,0,0,0,2.1,5.4l3-3.6a14.84,14.84,0,1,1,13.5,8.6,14.71,14.71,0,0,1-4.2-.6l-2.9,3.3a24.54,24.54,0,0,0,2.9.8v3.3a1.29,1.29,0,0,0,1.2,1.2h5.9a1.29,1.29,0,0,0,1.2-1.2v-3.5a18.51,18.51,0,0,0,6.3-2.7l2.6,2.5a1,1,0,0,0,1.6,0l4.1-4a1.52,1.52,0,0,0,.4-.8,1,1,0,0,0-.4-.8l-2.6-2.5a12.9,12.9,0,0,0,2.3-5.8h3.7a1.29,1.29,0,0,0,1.2-1.2v-5.8C723.7,155.59,723.3,155,722.5,155Z" transform="translate(-0.8 -1.23)"/><path class="cls-8" d="M711.9,157.59a10.48,10.48,0,0,0-2-5.2l-7.2,8.3-4.7-3.8,7.2-8.2a10.37,10.37,0,0,0-5.2-.8,10.84,10.84,0,0,0-10,11.6,11.31,11.31,0,0,0,.9,3.5l.1.1L673.6,183a4.3,4.3,0,0,0-1,3.1,3.93,3.93,0,0,0,1.5,2.8,4.55,4.55,0,0,0,3.2,1,4.14,4.14,0,0,0,2.9-1.5l17.2-19.8.2.1a10.92,10.92,0,0,0,14.3-11.1ZM677.1,187a1.47,1.47,0,0,1-1.6-1.3,1.54,1.54,0,0,1,1.4-1.6,1.47,1.47,0,0,1,1.6,1.3A1.6,1.6,0,0,1,677.1,187Z" transform="translate(-0.8 -1.23)"/><rect class="cls-3" x="793.9" y="376.86" width="92" height="32.3"/><text class="cls-9" transform="translate(793.9 392.7) scale(0.98 1)">$625.448</text><rect class="cls-3" x="589" y="19.56" width="439.9" height="108.7"/><text class="cls-9" transform="translate(750 35.34)"><tspan class="cls-10">T</tspan><tspan x="11.27" y="0">ARA</tspan><tspan class="cls-10" x="54.45" y="0">P</tspan><tspan x="66.9" y="0">ACÁ l</tspan></text><text class="cls-11" transform="translate(750 35.34)"><tspan class="cls-10">T</tspan><tspan x="11.27" y="0">ARA</tspan><tspan class="cls-10" x="54.45" y="0">P</tspan><tspan x="66.9" y="0">ACÁ l</tspan></text><text class="cls-9" transform="translate(597.95 85.74)">Población:</text><text class="cls-11" transform="translate(597.95 85.74)">Población:</text><text class="cls-9" transform="translate(694.84 85.74)"><tspan xml:space="preserve"> 330.558   </tspan></text><text class="cls-11" transform="translate(694.84 85.74)"><tspan xml:space="preserve"> 330.558   </tspan></text><text class="cls-9" transform="translate(794.09 85.74)">Superficie:</text><text class="cls-11" transform="translate(794.09 85.74)">Superficie:</text><text class="cls-9" transform="translate(891.73 85.74)"><tspan xml:space="preserve"> 42.225,8 km</tspan></text><text class="cls-11" transform="translate(891.73 85.74)"><tspan xml:space="preserve"> 42.225,8 km</tspan></text><text class="cls-12" transform="translate(1013.13 78.75)">2</text><text class="cls-13" transform="translate(1013.13 78.75)">2</text><rect class="cls-14" x="838.1" y="124.26" width="4.5" height="244"/><rect class="cls-3" x="15.3" y="176.76" width="105.4" height="23.7"/><text class="cls-15" transform="translate(15.33 188.7) scale(0.98 1)">MUJERES</text><rect class="cls-3" x="15.3" y="298.26" width="96.2" height="26"/><text class="cls-15" transform="translate(15.33 310.15) scale(0.98 1)">HOMBRES</text><rect class="cls-3" x="214.4" y="61.06" width="80.6" height="23.3"/><path class="cls-16" d="M462.8,292.29H449a3.46,3.46,0,0,0-3.2,3.6v15.8a3.39,3.39,0,0,0,3.2,3.6h13.8a3.46,3.46,0,0,0,3.2-3.6V296C465.9,294,464.5,292.29,462.8,292.29Zm2,19.5a2.16,2.16,0,0,1-2.1,2.3H448.9a2.3,2.3,0,0,1-2.1-2.3V296a2.16,2.16,0,0,1,2.1-2.3h13.8a2.3,2.3,0,0,1,2.1,2.3v15.8Z" transform="translate(-0.8 -1.23)"/><path class="cls-16" d="M458.2,302.79a2.39,2.39,0,0,0,1.5-2.5c0-1.7-1-3.1-3.6-3.1h-4v11.6h4.4c2.6,0,3.7-1.5,3.7-3.2A2.57,2.57,0,0,0,458.2,302.79Zm-4.3-3.7h2.2c1.1,0,1.8.3,1.8,1.6,0,1-.6,1.4-1.9,1.4h-2.2l.1-3Zm2.7,7.9h-2.7v-3.2h2.5c1.4,0,2.2.5,2.2,1.5C458.5,306.69,457.7,307,456.6,307Z" transform="translate(-0.8 -1.23)"/><path class="cls-16" d="M474.5,290.59a3.46,3.46,0,0,0,3.2-3.6v-15.8a3.39,3.39,0,0,0-3.2-3.6H460.7a3.46,3.46,0,0,0-3.2,3.6V287a3.39,3.39,0,0,0,3.2,3.6ZM458.6,287v-15.8a2.16,2.16,0,0,1,2.1-2.3h13.8a2.3,2.3,0,0,1,2.1,2.3V287a2.16,2.16,0,0,1-2.1,2.3H460.7A2.16,2.16,0,0,1,458.6,287Z" transform="translate(-0.8 -1.23)"/><path class="cls-16" d="M465,281.39h5.1l1,2.6h1.8l-4.5-11.6h-1.8L462.1,284h1.8Zm2.6-6.6,1.8,4.8h-3.7Z" transform="translate(-0.8 -1.23)"/><path class="cls-16" d="M486.3,292.29H472.5a3.46,3.46,0,0,0-3.2,3.6v15.8a3.39,3.39,0,0,0,3.2,3.6h13.8a3.46,3.46,0,0,0,3.2-3.6V296C489.4,294,488,292.29,486.3,292.29Zm2,19.5a2.16,2.16,0,0,1-2.1,2.3H472.4a2.3,2.3,0,0,1-2.1-2.3V296a2.16,2.16,0,0,1,2.1-2.3h13.8a2.3,2.3,0,0,1,2.1,2.3v15.8Z" transform="translate(-0.8 -1.23)"/><path class="cls-16" d="M480.2,298.89a3.54,3.54,0,0,1,2.9,1.4l1.1-1.4a4.88,4.88,0,0,0-3.9-2c-3.2,0-5.5,2.6-5.5,6s2.3,6,5.3,6a5,5,0,0,0,3.9-2l-1.1-1.3A3.51,3.51,0,0,1,480,307a3.84,3.84,0,0,1-3.5-4.1A3.77,3.77,0,0,1,480.2,298.89Z" transform="translate(-0.8 -1.23)"/><rect class="cls-3" x="427.6" y="321.26" width="84.3" height="24.1"/><text class="cls-9" transform="translate(427.56 337.09) scale(0.93 1)">$352.465</text><path class="cls-17" d="M502.7,182.79a3,3,0,0,0-2.1-.5,2.1,2.1,0,0,0-1.1.4l3.6,1.8a42.12,42.12,0,0,0-2.9,5.1,27.4,27.4,0,0,0-1.5,4,10.2,10.2,0,0,0-.4,3.5c1.7-.5,3.5-2.9,4.7-5.8a15.09,15.09,0,0,0,1.2-6.1A3.27,3.27,0,0,0,502.7,182.79Z" transform="translate(-0.8 -1.23)"/><path class="cls-17" d="M467.6,159.59V167l19.9,9.1h0a34,34,0,0,0,4.5-.3c3.9-.7,6.4-2.1,6.4-3.6V160l-12.2,5.3Z" transform="translate(-0.8 -1.23)"/><polygon class="cls-17" points="480.8 143.06 454.5 152.26 466.8 155.96 485.3 161.56 497.6 156.26 511.1 150.36 480.8 143.06"/><path class="cls-17" d="M485.6,194.49a.9.9,0,0,1,.1-.5,1.27,1.27,0,0,0,.1-.6v-.1a25,25,0,0,1,1.8-4.8,15.09,15.09,0,0,1,1.5-2.8v-.1l-2.4-1.2a10.78,10.78,0,0,0-1.4,2.6,23.15,23.15,0,0,0-1.3,3.7l-28.1-16-.2,1c-.2,1.5-.2,3,.6,3.5l29.6,18A5.44,5.44,0,0,1,485.6,194.49Z" transform="translate(-0.8 -1.23)"/><path class="cls-17" d="M483.7,185.79c1.7-4.1,4.6-6.5,6.9-5.7h-.1L459.6,166c-1.2-.6-2.8,1-3.7,3.8a13.32,13.32,0,0,0-.5,1.9l27.8,15.8A6.87,6.87,0,0,1,483.7,185.79Z" transform="translate(-0.8 -1.23)"/><rect class="cls-3" x="435.3" y="199.26" width="99.6" height="21.9"/><text class="cls-9" transform="translate(435.33 215.08) scale(1.03 1)">$359.316</text><path class="cls-16" d="M301.6,171.19H287.8a3.46,3.46,0,0,0-3.2,3.6v15.8a3.39,3.39,0,0,0,3.2,3.6h13.8a3.46,3.46,0,0,0,3.2-3.6v-15.8C304.7,172.89,303.3,171.19,301.6,171.19Zm2,19.5a2.16,2.16,0,0,1-2.1,2.3H287.7a2.3,2.3,0,0,1-2.1-2.3v-15.8a2.16,2.16,0,0,1,2.1-2.3h13.8a2.3,2.3,0,0,1,2.1,2.3v15.8Z" transform="translate(-0.8 -1.23)"/><path class="cls-16" d="M297,181.69a2.39,2.39,0,0,0,1.5-2.5c0-1.7-1-3.1-3.6-3.1h-4v11.6h4.4c2.6,0,3.7-1.5,3.7-3.2A2.66,2.66,0,0,0,297,181.69Zm-4.3-3.8h2.2c1.1,0,1.8.3,1.8,1.6,0,1-.6,1.4-1.9,1.4h-2.2l.1-3Zm2.7,8h-2.7v-3.2h2.5c1.4,0,2.2.5,2.2,1.5C297.3,185.59,296.5,185.89,295.4,185.89Z" transform="translate(-0.8 -1.23)"/><path class="cls-16" d="M313.3,169.49a3.46,3.46,0,0,0,3.2-3.6V150a3.39,3.39,0,0,0-3.2-3.6H299.5a3.46,3.46,0,0,0-3.2,3.6v15.8a3.39,3.39,0,0,0,3.2,3.6h13.8Zm-15.9-3.6V150a2.25,2.25,0,0,1,2.1-2.4h13.8a2.32,2.32,0,0,1,2.1,2.4v15.8a2.16,2.16,0,0,1-2.1,2.3H299.5A2,2,0,0,1,297.4,165.89Z" transform="translate(-0.8 -1.23)"/><path class="cls-16" d="M303.8,160.29h5.1l1,2.6h1.8l-4.5-11.6h-1.8l-4.5,11.6h1.8Zm2.6-6.6,1.8,4.8h-3.7Z" transform="translate(-0.8 -1.23)"/><path class="cls-16" d="M325.1,171.19H311.3a3.46,3.46,0,0,0-3.2,3.6v15.8a3.39,3.39,0,0,0,3.2,3.6h13.8a3.46,3.46,0,0,0,3.2-3.6v-15.8C328.2,172.89,326.8,171.19,325.1,171.19Zm2,19.5A2.16,2.16,0,0,1,325,193H311.2a2.3,2.3,0,0,1-2.1-2.3v-15.8a2.16,2.16,0,0,1,2.1-2.3H325a2.3,2.3,0,0,1,2.1,2.3v15.8Z" transform="translate(-0.8 -1.23)"/><path class="cls-16" d="M319,177.79a3.54,3.54,0,0,1,2.9,1.4l1.1-1.4a4.88,4.88,0,0,0-3.9-2c-3.2,0-5.5,2.6-5.5,6s2.3,6,5.3,6a5,5,0,0,0,3.9-2l-1.1-1.3a3.51,3.51,0,0,1-2.9,1.4,3.84,3.84,0,0,1-3.5-4.1A3.77,3.77,0,0,1,319,177.79Z" transform="translate(-0.8 -1.23)"/><rect class="cls-3" x="260.8" y="199.56" width="93.1" height="18.8"/><text class="cls-9" transform="translate(260.81 215.4) scale(1.03 1)">$216.845</text><path class="cls-17" d="M731.7,308.79a3,3,0,0,0-2.1-.5,2.1,2.1,0,0,0-1.1.4l3.6,1.8a42.12,42.12,0,0,0-2.9,5.1,27.4,27.4,0,0,0-1.5,4,10.2,10.2,0,0,0-.4,3.5c1.7-.5,3.5-2.9,4.7-5.8a15.09,15.09,0,0,0,1.2-6.1A3.19,3.19,0,0,0,731.7,308.79Z" transform="translate(-0.8 -1.23)"/><path class="cls-17" d="M707.5,285.59V293l19.9,9.1h0a34,34,0,0,0,4.5-.3c3.9-.7,6.4-2.1,6.4-3.6V286l-12.2,5.3Z" transform="translate(-0.8 -1.23)"/><polygon class="cls-17" points="720.8 269.06 694.5 278.26 706.7 281.96 725.3 287.56 737.6 282.26 751.1 276.36 720.8 269.06"/><path class="cls-17" d="M725.6,320.49a.9.9,0,0,1,.1-.5,1.27,1.27,0,0,0,.1-.6v-.1a25,25,0,0,1,1.8-4.8,15.09,15.09,0,0,1,1.5-2.8v-.1l-2.4-1.2a10.78,10.78,0,0,0-1.4,2.6,23.15,23.15,0,0,0-1.3,3.7l-28.1-16-.2,1c-.2,1.5-.2,3,.6,3.5l29.6,18A3.93,3.93,0,0,1,725.6,320.49Z" transform="translate(-0.8 -1.23)"/><path class="cls-17" d="M723.7,311.69c1.7-4.1,4.6-6.5,6.9-5.7h-.1l-30.9-14.1c-1.2-.6-2.8,1-3.7,3.8a13.32,13.32,0,0,0-.5,1.9l27.8,15.8A10.93,10.93,0,0,1,723.7,311.69Z" transform="translate(-0.8 -1.23)"/><rect class="cls-3" x="683.9" y="328.26" width="100" height="21"/><text class="cls-18" transform="translate(683.9 343.31) scale(1.03 1)">$546.924</text><rect class="cls-3" x="647.2" y="195.86" width="103.7" height="22.3"/><text class="cls-9" transform="translate(647.18 211.62) scale(1.03 1)">$520.812</text><path class="cls-19" d="M1103.4,288.79h-3.7a17.43,17.43,0,0,0-2.8-6.2l3.2-3.1a1.52,1.52,0,0,0,.4-.8,1,1,0,0,0-.4-.8l-4.1-4a1.49,1.49,0,0,0-1.8,0L1091,277a20.62,20.62,0,0,0-5.7-2.5v-4a1.29,1.29,0,0,0-1.2-1.2h-5.9a1.29,1.29,0,0,0-1.2,1.2v3.9a19.1,19.1,0,0,0-5.9,2.3l-3.4-3.3a1.49,1.49,0,0,0-1.8,0l-4.1,4a1,1,0,0,0,0,1.6l3.4,3.3a21.81,21.81,0,0,0-2.8,6.4h-3.8a1.29,1.29,0,0,0-1.2,1.2v5.8a1.29,1.29,0,0,0,1.2,1.2h3.7a19.57,19.57,0,0,0,2.1,5.4l3-3.6a14.84,14.84,0,1,1,13.5,8.6,14.71,14.71,0,0,1-4.2-.6l-2.9,3.3a24.54,24.54,0,0,0,2.9.8v3.3a1.29,1.29,0,0,0,1.2,1.2h5.9a1.29,1.29,0,0,0,1.2-1.2v-3.5a18.51,18.51,0,0,0,6.3-2.7l2.6,2.5a1,1,0,0,0,1.6,0l4.1-4a1.52,1.52,0,0,0,.4-.8,1,1,0,0,0-.4-.8l-2.6-2.5a14.15,14.15,0,0,0,2.3-5.8h3.7a1.29,1.29,0,0,0,1.2-1.2v-5.8C1104.6,289.39,1104.2,288.79,1103.4,288.79Z" transform="translate(-0.8 -1.23)"/><path class="cls-19" d="M1092.8,291.39a11.35,11.35,0,0,0-1.9-5.2l-7.2,8.3-4.7-3.8,7.2-8.2a10.37,10.37,0,0,0-5.2-.8,10.84,10.84,0,0,0-10,11.6,11.31,11.31,0,0,0,.9,3.5l.1.1L1054.6,317a4.3,4.3,0,0,0-1,3.1,3.93,3.93,0,0,0,1.5,2.8,4.55,4.55,0,0,0,3.2,1,4.14,4.14,0,0,0,2.9-1.5l17.2-19.8.2.1a10.87,10.87,0,0,0,4.4.5A11,11,0,0,0,1092.8,291.39Zm-34.8,29.4a1.47,1.47,0,0,1-1.6-1.3,1.54,1.54,0,0,1,1.4-1.6,1.47,1.47,0,0,1,1.6,1.3A1.37,1.37,0,0,1,1058,320.79Z" transform="translate(-0.8 -1.23)"/><rect class="cls-3" x="1031.9" y="331.66" width="86.8" height="19.6"/><text class="cls-18" transform="translate(1031.9 346.7) scale(1.03 1)">$803.793</text><path d="M1024.2,141.59q-.75.9-2.1,2.4c-3.8-3.6-7.5-4.1-10.3-4.5-8,13-17,20.6-28.8,28.7a3,3,0,0,0-1.1.4c-2.1,1.4-3,3.8-3.5,6.7-1.2,6.7.9,14.8,7.2,16.2,3.7.8,6.1.2,7.7-1.8,1.2-1.4,6.5-7.5,13.3-14.6,7.7-7.9,17-15.4,20.8-18.6,3.5-3,2.8-7.7.3-11.3a11.92,11.92,0,0,0-3.3-3.4ZM995,184.29a89.67,89.67,0,0,0,.2-12.5,43.6,43.6,0,0,0,5.8-4c8.9-6.7,16.1-14.6,23.4-23.3,2.6,2.4,4.9,7.3,1.8,10.1a256.15,256.15,0,0,0-21,18.6C1001.1,177.59,997.4,181.49,995,184.29Zm-3.3,3.7c-1.1,1.4-2.8,1.8-5.6,1.2-5.8-1.4-7-9.5-5.4-15.2,1.6-5.5,6.5-4.7,8-.8l-6.3,6.3c.2.6.5,4.5,3.7,5.5,2.3.8,4.2-1.6,4.9-4.3a17.64,17.64,0,0,0,0-6.5,7.27,7.27,0,0,0-4.4-6.1c11-7.7,18.5-14.2,26.1-26.1a15.41,15.41,0,0,1,7.9,3.6c-7.3,8.5-22.4,24.5-27.4,24.5,0,1.2.5,11.3-.2,14.8A6.77,6.77,0,0,1,991.7,188Zm-2.5-12.2c.2,2.2,0,4.9-1.2,6.3-1.2,1.8-2.8,0-3.3-1.8Z" transform="translate(-0.8 -1.23)"/><path d="M1021.9,183.09a26.72,26.72,0,0,0-3.3-7.1,17.53,17.53,0,0,0-6.1-4.7,21.63,21.63,0,0,1,3.7,7.7,47.41,47.41,0,0,1,1.4,6.5l-2.4-1.4-1.9,4a20,20,0,0,0-1.2-10.1c-1.9-4.7-3.3-6.1-3.3-6.1.5-8.5-3.2-13-10.7-13.6l5.6-5.7c6.6-.2,10.5,7.9,9.8,14.8,5.1,3.2,9.8,7.7,14,12.1l-3.8.8Z" transform="translate(-0.8 -1.23)"/><rect class="cls-3" x="962.5" y="195.46" width="92.4" height="17.8"/><text class="cls-9" transform="translate(962.52 211.22) scale(1.03 1)">$774.327</text><path d="M1446,274.29q-.75.9-2.1,2.4a16.21,16.21,0,0,0-10.3-4.5c-8,13-17,20.6-28.8,28.7a3,3,0,0,0-1.1.4c-2.1,1.4-3,3.8-3.5,6.7-1.2,6.7.9,14.8,7.2,16.2,3.7.8,6.1.2,7.7-1.8,1.2-1.4,6.5-7.5,13.3-14.6,7.7-7.9,17-15.4,20.8-18.6,3.5-3,2.8-7.7.3-11.3a11.92,11.92,0,0,0-3.3-3.4ZM1416.8,317a89.67,89.67,0,0,0,.2-12.5,43.6,43.6,0,0,0,5.8-4c8.9-6.7,16.1-14.6,23.4-23.3,2.6,2.4,4.9,7.3,1.8,10.1a256.15,256.15,0,0,0-21,18.6C1423,310.29,1419.3,314.19,1416.8,317Zm-3.3,3.8c-1.1,1.4-2.8,1.8-5.6,1.2-5.8-1.4-7-9.5-5.4-15.2,1.6-5.5,6.5-4.7,8-.8l-6.3,6.3c.2.6.5,4.5,3.7,5.5,2.3.8,4.2-1.6,4.9-4.3a17.64,17.64,0,0,0,0-6.5,7.27,7.27,0,0,0-4.4-6.1c11-7.7,18.5-14.2,26.1-26.1a15.41,15.41,0,0,1,7.9,3.6c-7.3,8.5-22.4,24.5-27.4,24.5,0,1.2.5,11.3-.2,14.8A6.63,6.63,0,0,1,1413.5,320.79Zm-2.4-12.3c.2,2.2,0,4.9-1.2,6.3-1.2,1.8-2.8,0-3.3-1.8Z" transform="translate(-0.8 -1.23)"/><path d="M1443.8,315.79a26.72,26.72,0,0,0-3.3-7.1,17.53,17.53,0,0,0-6.1-4.7,21.63,21.63,0,0,1,3.7,7.7,47.41,47.41,0,0,1,1.4,6.5l-2.4-1.4-1.9,4a20,20,0,0,0-1.2-10.1c-1.9-4.7-3.3-6.1-3.3-6.1.5-8.5-3.2-13-10.7-13.6l5.6-5.7c6.6-.2,10.5,7.9,9.8,14.8,5.1,3.2,9.8,7.7,14,12.1l-3.8.8Z" transform="translate(-0.8 -1.23)"/><rect class="cls-3" x="1377.9" y="331.16" width="109" height="19.1"/><text class="cls-9" transform="translate(1377.9 346.92) scale(1.03 1)">$1.346.752</text><rect class="cls-2" x="99.7" y="231.2" width="1385.4" height="21.3"/></svg>