<?xml version="1.0" encoding="utf-8"?>
<!-- Generator: Adobe Illustrator 19.2.1, SVG Export Plug-In . SVG Version: 6.00 Build 0)  -->
<svg version="1.1" xmlns="http://www.w3.org/2000/svg" xmlns:xlink="http://www.w3.org/1999/xlink" x="0px" y="0px"
	 viewBox="0 0 235 262" style="enable-background:new 0 0 235 262;" xml:space="preserve">
<style type="text/css">
	.st0{display:none;}
	.st1{display:inline;}
	.st2{fill:#FFFFFF;}
</style>
<g id="Capa_1" class="st0">
	<g class="st1">
		<path d="M28.5,158.5h47.2v15.9H28.5C28.5,174.4,28.5,158.5,28.5,158.5z M157.4,181.7h34.5v15.9h-34.5V181.7z M98,170.1h40.9V186
			H98V170.1z M128.3,82c7.4,0,13.5,6,13.5,13.5c0,7.5-6,13.5-13.5,13.5c-7.4,0-13.5-6-13.5-13.5C114.8,88,120.8,82,128.3,82z
			 M91.8,82c12.7,0,23,10.3,23,23s-10.3,23-23,23c-0.5,13.3-15.5,20.5-26.2,13.2c-1.1,1-2.3,1.7-3.7,2.2c1.9,5.5-2.2,11.4-8.1,11.4
			c-8.4,0-11.7-10.8-4.9-15.6c-5.3-7.8,1-18.4,10.4-17.4c1.7-4.9,5.6-8.7,10.5-10.3C65.5,96.8,76.3,82,91.8,82L91.8,82z
			 M207.8,160.7c3.5,0,6.3,2.8,6.3,6.3s-2.8,6.3-6.3,6.3s-6.3-2.8-6.3-6.3S204.3,160.7,207.8,160.7z M150.3,107.6
			c10.3,0,18.7,8.4,18.7,18.7s-8.4,18.7-18.7,18.7c-0.4,10.8-12.6,16.6-21.3,10.7c-0.9,0.8-1.9,1.4-3,1.8c1.6,4.5-1.8,9.3-6.6,9.3
			c-6.8,0-9.5-8.8-4-12.7c-4.3-6.3,0.8-14.9,8.4-14.1c1.4-3.9,4.5-7.1,8.5-8.4C129,119.6,137.8,107.6,150.3,107.6L150.3,107.6z
			 M199.8,129.5c8.4,0,15.2,6.8,15.2,15.2c0,8.4-6.8,15.2-15.2,15.2c-0.3,8.8-10.2,13.6-17.3,8.7c-0.7,0.6-1.5,1.1-2.4,1.5
			c1.3,3.6-1.4,7.5-5.4,7.5c-5.6,0-7.8-7.2-3.3-10.3c-3.5-5.2,0.6-12.2,6.9-11.5c1.1-3.2,3.7-5.8,6.9-6.9
			C182.4,139.3,189.6,129.5,199.8,129.5L199.8,129.5z M6,299l22.7-18.6h199.3v53.8H6V299L6,299z M203.8,290h14v15.5h-14V290z
			 M166.2,290h14v15.5h-14V290z M128.6,290h14v15.5h-14V290z M91.1,290h14v15.5h-14V290z M53.5,290h14v15.5h-14V290z M138.8,192.4
			v29.7H98v-29.7H138.8z M138.8,228.6v46.9H98v-46.9H138.8z M191.9,204v29.7h-34.5V204C157.4,204,191.9,204,191.9,204z M191.9,240.2
			v35.3h-34.5v-35.3H191.9z M75.7,180.9v29.7H28.5v-29.7H75.7z M75.7,217v58.5H28.5V217H75.7z"/>
	</g>
	<text transform="matrix(1 0 0 1 6 349.17)" class="st1" style="font-family:'Arial-BoldMT'; font-size:5px;">Created by kareemov1000</text>
	<text transform="matrix(1 0 0 1 6 354.17)" class="st1" style="font-family:'Arial-BoldMT'; font-size:5px;">from the Noun Project</text>
</g>
<g id="Capa_1_copia">
	<path d="M28.5,80.9h47.2v15.9H28.5L28.5,80.9z M157.4,104.1h34.5v15.9h-34.5V104.1z M98,92.5h40.9v15.9H98V92.5z M128.3,4.5
		c8,0,14.3,6.9,13.4,15c-0.7,6.2-5.7,11.2-11.9,11.9c-8.1,0.9-15-5.5-15-13.4C114.8,10.5,120.8,4.5,128.3,4.5z M91.8,4.5
		c12.7,0,23,10.3,23,23s-10.3,23-23,23c-0.5,13.3-15.5,20.5-26.2,13.2c-1.1,1-2.3,1.7-3.7,2.2c1.9,5.5-2.2,11.4-8.1,11.4
		c-8.4,0-11.7-10.8-4.9-15.6c-5.3-7.8,1-18.4,10.4-17.4c1.7-4.9,5.6-8.7,10.5-10.4C65.5,19.3,76.4,4.5,91.8,4.5L91.8,4.5z
		 M206.4,83.3c4.6-1,8.6,3,7.6,7.6c-0.5,2.3-2.4,4.2-4.7,4.7c-4.6,1-8.6-3-7.6-7.6C202.2,85.7,204,83.8,206.4,83.3z M150.4,30
		c10.3,0,18.7,8.4,18.7,18.7s-8.4,18.7-18.7,18.7c-0.4,10.8-12.6,16.6-21.3,10.7c-0.9,0.8-1.9,1.4-3,1.8c1.6,4.5-1.8,9.3-6.6,9.3
		c-6.8,0-9.5-8.8-4-12.7c-4.3-6.3,0.8-14.9,8.4-14.1c1.4-3.9,4.5-7.1,8.5-8.4C129,42.1,137.8,30,150.4,30L150.4,30z M199.8,51.9
		c8.4,0,15.2,6.8,15.2,15.2c0,8.4-6.8,15.2-15.2,15.2c-0.3,8.8-10.2,13.6-17.3,8.7c-0.7,0.7-1.5,1.2-2.4,1.5
		c1.3,3.7-1.4,7.6-5.4,7.6c-5.6,0-7.8-7.2-3.3-10.3c-3.5-5.2,0.6-12.2,6.9-11.5c1.1-3.2,3.7-5.8,6.9-6.8
		C182.4,61.8,189.6,51.9,199.8,51.9L199.8,51.9z M6,221.5l22.7-18.6h199.3v53.8H6V221.5L6,221.5z M203.8,212.5h14v15.5h-14V212.5z
		 M166.2,212.5h14v15.5h-14V212.5z M128.7,212.5h14v15.5h-14V212.5z M91.1,212.5h14v15.5h-14V212.5z M53.5,212.5h14v15.5h-14V212.5z
		 M138.8,114.9v29.7H98v-29.7H138.8z M138.8,151v46.9H98V151H138.8z M191.9,126.5v29.7h-34.5v-29.7L191.9,126.5z M191.9,162.6v35.3
		h-34.5v-35.3H191.9z M75.7,103.3V133H28.5v-29.7H75.7z M75.7,139.4v58.5H28.5v-58.5H75.7z"/>
	<rect x="53.5" y="212.5" class="st2" width="14" height="15.5"/>
	<rect x="92.1" y="212.5" class="st2" width="14" height="15.5"/>
	<rect x="128.5" y="213" class="st2" width="14" height="15.5"/>
	<rect x="166.2" y="212.5" class="st2" width="14" height="15.5"/>
	<rect x="200.8" y="213" class="st2" width="14" height="15.5"/>
</g>
<g id="Capa_1_copia_2" class="st0">
	<g class="st1">
		<path class="st2" d="M28.5,158.5h47.2v15.9H28.5C28.5,174.4,28.5,158.5,28.5,158.5z M157.4,181.7h34.5v15.9h-34.5V181.7z
			 M98,170.1h40.9V186H98V170.1z M128.3,82c7.4,0,13.5,6,13.5,13.5c0,7.5-6,13.5-13.5,13.5c-7.4,0-13.5-6-13.5-13.5
			C114.8,88,120.8,82,128.3,82z M91.8,82c12.7,0,23,10.3,23,23s-10.3,23-23,23c-0.5,13.3-15.5,20.5-26.2,13.2
			c-1.1,1-2.3,1.7-3.7,2.2c1.9,5.5-2.2,11.4-8.1,11.4c-8.4,0-11.7-10.8-4.9-15.6c-5.3-7.8,1-18.4,10.4-17.4
			c1.7-4.9,5.6-8.7,10.5-10.3C65.5,96.8,76.3,82,91.8,82L91.8,82z M207.8,160.7c3.5,0,6.3,2.8,6.3,6.3s-2.8,6.3-6.3,6.3
			s-6.3-2.8-6.3-6.3S204.3,160.7,207.8,160.7z M150.3,107.6c10.3,0,18.7,8.4,18.7,18.7s-8.4,18.7-18.7,18.7
			c-0.4,10.8-12.6,16.6-21.3,10.7c-0.9,0.8-1.9,1.4-3,1.8c1.6,4.5-1.8,9.3-6.6,9.3c-6.8,0-9.5-8.8-4-12.7
			c-4.3-6.3,0.8-14.9,8.4-14.1c1.4-3.9,4.5-7.1,8.5-8.4C129,119.6,137.8,107.6,150.3,107.6L150.3,107.6z M199.8,129.5
			c8.4,0,15.2,6.8,15.2,15.2c0,8.4-6.8,15.2-15.2,15.2c-0.3,8.8-10.2,13.6-17.3,8.7c-0.7,0.6-1.5,1.1-2.4,1.5
			c1.3,3.6-1.4,7.5-5.4,7.5c-5.6,0-7.8-7.2-3.3-10.3c-3.5-5.2,0.6-12.2,6.9-11.5c1.1-3.2,3.7-5.8,6.9-6.9
			C182.4,139.3,189.6,129.5,199.8,129.5L199.8,129.5z M6,299l22.7-18.6h199.3v53.8H6V299L6,299z M203.8,290h14v15.5h-14V290z
			 M166.2,290h14v15.5h-14V290z M128.6,290h14v15.5h-14V290z M91.1,290h14v15.5h-14V290z M53.5,290h14v15.5h-14V290z M138.8,192.4
			v29.7H98v-29.7H138.8z M138.8,228.6v46.9H98v-46.9H138.8z M191.9,204v29.7h-34.5V204C157.4,204,191.9,204,191.9,204z M191.9,240.2
			v35.3h-34.5v-35.3H191.9z M75.7,180.9v29.7H28.5v-29.7H75.7z M75.7,217v58.5H28.5V217H75.7z"/>
	</g>
	<text transform="matrix(1 0 0 1 6 349.17)" class="st1" style="font-family:'Arial-BoldMT'; font-size:5px;">Created by kareemov1000</text>
	<text transform="matrix(1 0 0 1 6 354.17)" class="st1" style="font-family:'Arial-BoldMT'; font-size:5px;">from the Noun Project</text>
</g>
</svg>
