<svg id="Capa_1" data-name="Capa 1" xmlns="http://www.w3.org/2000/svg" viewBox="0 0 1500.5 410.2"><defs><style>.cls-1{fill:#dcf4f3;stroke:#416190;stroke-miterlimit:5.83;stroke-width:5px;}.cls-12,.cls-2,.cls-21{fill:none;}.cls-10,.cls-12,.cls-13,.cls-15,.cls-17,.cls-3,.cls-4,.cls-5,.cls-6,.cls-8,.cls-9{isolation:isolate;}.cls-4,.cls-5,.cls-6{font-size:16px;}.cls-17,.cls-4,.cls-5,.cls-6,.cls-8{font-family:Optima-Bold, Optima;}.cls-17,.cls-4,.cls-5,.cls-6,.cls-8,.cls-9{font-weight:700;}.cls-5{letter-spacing:1.79em;}.cls-6{letter-spacing:0.64em;}.cls-16,.cls-18,.cls-19,.cls-7{fill:red;}.cls-10,.cls-12,.cls-8,.cls-9{font-size:21px;}.cls-9{font-family:Verdana-Bold, Verdana;}.cls-10,.cls-12{font-family:Optima-Regular, Optima;}.cls-11,.cls-13{font-family:Verdana;}.cls-12,.cls-21{stroke:#000;}.cls-12,.cls-16,.cls-18,.cls-19,.cls-21{stroke-miterlimit:10;}.cls-12{stroke-width:0.25px;}.cls-13{font-size:12.24px;}.cls-14{fill:#fcee21;}.cls-15{font-size:16.65px;font-family:Arial-Black, Arial Black;font-weight:800;}.cls-16,.cls-18,.cls-19{stroke:red;}.cls-16{stroke-width:1.33px;}.cls-17{font-size:18px;}.cls-18{stroke-width:0.22px;}.cls-19{stroke-width:0.14px;}.cls-20{fill-rule:evenodd;}.cls-21{stroke-width:3.04px;}</style></defs><title>valparaiso </title><rect class="cls-1" x="2.5" y="2.5" width="1495.5" height="405.2"/><rect class="cls-2" x="113.8" y="233.99" width="1371.8" height="36.79"/><g class="cls-3"><text class="cls-4" transform="translate(113.8 246.02) scale(0.98 1)">$100.000</text><text class="cls-5" transform="translate(179.15 246.02) scale(0.98 1)"> </text><text class="cls-5" transform="translate(211.65 246.02) scale(0.98 1)"> </text><text class="cls-4" transform="translate(244.27 246.02) scale(0.98 1)">$200.000</text><text class="cls-5" transform="translate(309.61 246.02) scale(0.98 1)"> </text><text class="cls-5" transform="translate(342.12 246.02) scale(0.98 1)"> </text><text class="cls-4" transform="translate(374.73 246.02) scale(0.98 1)">$300.000</text><text class="cls-5" transform="translate(440.08 246.02) scale(0.98 1)"> </text><text class="cls-5" transform="translate(472.58 246.02) scale(0.98 1)"> </text><text class="cls-4" transform="translate(505.2 246.02) scale(0.98 1)">$400.000</text><text class="cls-5" transform="translate(570.54 246.02) scale(0.98 1)"> </text><text class="cls-5" transform="translate(603.05 246.02) scale(0.98 1)"> </text><text class="cls-4" transform="translate(635.67 246.02) scale(0.98 1)">$500.000</text><text class="cls-5" transform="translate(701.02 246.02) scale(0.98 1)"> </text><text class="cls-5" transform="translate(733.51 246.02) scale(0.98 1)"> </text><text class="cls-4" transform="translate(766.14 246.02) scale(0.98 1)">$600.000</text><text class="cls-5" transform="translate(831.48 246.02) scale(0.98 1)"> </text><text class="cls-5" transform="translate(863.99 246.02) scale(0.98 1)"> </text><text class="cls-4" transform="translate(896.6 246.02) scale(0.98 1)">$700.000</text><text class="cls-5" transform="translate(961.95 246.02) scale(0.98 1)"> </text><text class="cls-5" transform="translate(994.46 246.02) scale(0.98 1)"> </text><text class="cls-4" transform="translate(1027.07 246.02) scale(0.98 1)">$800.000</text><text class="cls-5" transform="translate(1092.42 246.02) scale(0.98 1)"> </text><text class="cls-5" transform="translate(1124.92 246.02) scale(0.98 1)"> </text><text class="cls-4" transform="translate(1157.54 246.02) scale(0.98 1)">$900.000</text><text class="cls-5" transform="translate(1222.88 246.02) scale(0.98 1)"> </text><text class="cls-5" transform="translate(1255.39 246.02) scale(0.98 1)"> </text><text class="cls-4" transform="translate(1288 246.02) scale(0.98 1)">$1.000.000 </text><text class="cls-6" transform="translate(1370.77 246.02) scale(0.98 1)"> </text><text class="cls-5" transform="translate(1385.85 246.02) scale(0.98 1)"> </text><text class="cls-4" transform="translate(1418.47 246.02) scale(0.98 1)"><tspan xml:space="preserve">   +++</tspan></text></g><path class="cls-7" d="M596.47,151.73h-3.72a17,17,0,0,0-2.75-6.15l3.15-3.07a1.5,1.5,0,0,0,.4-.78,1,1,0,0,0-.4-.78l-4.12-4a1.48,1.48,0,0,0-1.77,0L584.11,140a21.6,21.6,0,0,0-5.72-2.51v-4a1.27,1.27,0,0,0-1.2-1.17H571.3a1.28,1.28,0,0,0-1.2,1.17v3.86a20.08,20.08,0,0,0-5.89,2.29l-3.38-3.3a1.48,1.48,0,0,0-1.77,0l-4.12,4a1.5,1.5,0,0,0-.4.78,1.42,1.42,0,0,0,.4.78l3.38,3.3a21.6,21.6,0,0,0-2.75,6.37h-3.78a1.28,1.28,0,0,0-1.2,1.17v5.76a1.27,1.27,0,0,0,1.2,1.17h3.72a18.31,18.31,0,0,0,2.12,5.36l3-3.58a14.44,14.44,0,0,1-1.26-5.87,14.82,14.82,0,1,1,14.82,14.47,16.93,16.93,0,0,1-4.18-.56l-2.86,3.35a24.78,24.78,0,0,0,2.86.84V177a1.27,1.27,0,0,0,1.2,1.17h5.89a1.28,1.28,0,0,0,1.2-1.17v-3.46a17.91,17.91,0,0,0,6.29-2.68l2.57,2.51a1.51,1.51,0,0,0,.8.39,1.36,1.36,0,0,0,.8-.39l4.12-4a1.5,1.5,0,0,0,.4-.78,1,1,0,0,0-.4-.78l-2.57-2.51a14.78,14.78,0,0,0,2.35-5.76h3.72a1.28,1.28,0,0,0,1.2-1.17v-5.82C597.67,152.34,597.27,151.73,596.47,151.73Z" transform="translate(-0.87 -1.1)"/><path class="cls-7" d="M585.83,154.35a10.34,10.34,0,0,0-2-5.2l-7.15,8.27-4.69-3.8,7.15-8.21a11.91,11.91,0,0,0-5.21-.84,10.82,10.82,0,0,0-10,11.57,10.46,10.46,0,0,0,.92,3.46l.06.11-17.39,20.06a4.3,4.3,0,0,0-1,3.07,4.24,4.24,0,0,0,1.49,2.85,4.54,4.54,0,0,0,3.15,1,4.44,4.44,0,0,0,2.92-1.45l17.16-19.84.17.06a11.74,11.74,0,0,0,4.4.5A10.83,10.83,0,0,0,585.83,154.35Zm-34.78,29.4a1.47,1.47,0,0,1-1.6-1.34,1.45,1.45,0,0,1,1.37-1.56,1.47,1.47,0,0,1,1.6,1.34A1.45,1.45,0,0,1,551.05,183.75Z" transform="translate(-0.87 -1.1)"/><rect class="cls-2" x="824.82" y="373.8" width="91.99" height="32.32"/><text class="cls-8" transform="translate(824.82 389.58) scale(0.98 1)">$658.555</text><rect class="cls-2" x="590.91" y="16.44" width="439.9" height="108.68"/><text class="cls-9" transform="translate(737.93 32.23)">VALPARAISO V</text><text class="cls-9" transform="translate(565.11 82.63)">Población:</text><text class="cls-3" x="-0.87" y="-1.1"/><text class="cls-10" transform="translate(682 82.63)"><tspan xml:space="preserve"> 1.</tspan><tspan class="cls-11" x="23.35" y="0">815.902</tspan><tspan x="111.09" y="0" xml:space="preserve">   </tspan></text><text class="cls-12" transform="translate(682 82.63)"><tspan xml:space="preserve"> 1.   </tspan></text><text class="cls-9" transform="translate(804.76 82.63)">Superficie:</text><text class="cls-3" x="-0.87" y="-1.1"/><text class="cls-10" transform="translate(934.41 82.63)"><tspan xml:space="preserve"> 16.</tspan><tspan class="cls-11" x="35.03" y="0">396,1 km</tspan></text><text class="cls-12" transform="translate(934.41 82.63)"><tspan xml:space="preserve"> 16.</tspan></text><text class="cls-13" transform="translate(1023.81 75.63)"><tspan xml:space="preserve">            2</tspan></text><text class="cls-3" x="-0.87" y="-1.1"/><rect class="cls-14" x="867.01" y="121.17" width="4.53" height="244"/><rect class="cls-2" x="17.25" y="173.67" width="105.45" height="23.66"/><text class="cls-15" transform="translate(17.25 185.59) scale(0.98 1)">MUJERES</text><rect class="cls-2" x="17.25" y="295.11" width="96.18" height="26.03"/><text class="cls-15" transform="translate(17.25 307.03) scale(0.98 1)">HOMBRES</text><rect class="cls-2" x="216.32" y="57.91" width="80.55" height="23.32"/><path class="cls-16" d="M456.77,289.09H442.93a3.41,3.41,0,0,0-3.16,3.61v15.82a3.41,3.41,0,0,0,3.16,3.61h13.84a3.41,3.41,0,0,0,3.16-3.61V292.7A3.41,3.41,0,0,0,456.77,289.09Zm2.06,19.43a2.22,2.22,0,0,1-2.06,2.35H442.93a2.23,2.23,0,0,1-2.06-2.35V292.7a2.22,2.22,0,0,1,2.06-2.35h13.84a2.23,2.23,0,0,1,2.06,2.35v15.82Z" transform="translate(-0.87 -1.1)"/><path class="cls-16" d="M452.17,299.56a2.42,2.42,0,0,0,1.49-2.5c0-1.72-1-3.07-3.58-3.07h-3.95v11.59h4.44c2.64,0,3.66-1.48,3.66-3.22A2.68,2.68,0,0,0,452.17,299.56Zm-4.32-3.77H450c1.09,0,1.84.32,1.84,1.56q0,1.44-1.86,1.44h-2.18v-3Zm2.68,8h-2.68V300.6h2.47c1.44,0,2.16.51,2.16,1.54C452.48,303.47,451.7,303.77,450.53,303.77Z" transform="translate(-0.87 -1.1)"/><path class="cls-16" d="M468.47,287.31a3.41,3.41,0,0,0,3.16-3.61V267.88a3.41,3.41,0,0,0-3.16-3.61H454.63a3.41,3.41,0,0,0-3.16,3.61V283.7a3.41,3.41,0,0,0,3.16,3.61Zm-15.9-3.61V267.88a2.22,2.22,0,0,1,2.06-2.35h13.84a2.23,2.23,0,0,1,2.06,2.35V283.7a2.22,2.22,0,0,1-2.06,2.35H454.63A2.21,2.21,0,0,1,452.57,283.7Z" transform="translate(-0.87 -1.1)"/><path class="cls-16" d="M459,278.13h5.08l1,2.64h1.83l-4.47-11.59h-1.83l-4.47,11.59H458Zm2.54-6.59,1.84,4.78h-3.68Z" transform="translate(-0.87 -1.1)"/><path class="cls-16" d="M480.23,289.09H466.39a3.41,3.41,0,0,0-3.16,3.61v15.82a3.41,3.41,0,0,0,3.16,3.61h13.84a3.41,3.41,0,0,0,3.16-3.61V292.7A3.41,3.41,0,0,0,480.23,289.09Zm2.06,19.43a2.22,2.22,0,0,1-2.06,2.35H466.39a2.23,2.23,0,0,1-2.06-2.35V292.7a2.22,2.22,0,0,1,2.06-2.35h13.84a2.23,2.23,0,0,1,2.06,2.35v15.82Z" transform="translate(-0.87 -1.1)"/><path class="cls-16" d="M474.14,295.63a3.53,3.53,0,0,1,2.89,1.43l1.09-1.36a4.83,4.83,0,0,0-3.94-2c-3.19,0-5.45,2.61-5.45,6s2.31,6,5.33,6a4.83,4.83,0,0,0,3.91-2l-1.1-1.29a3.56,3.56,0,0,1-2.86,1.43c-1.83,0-3.5-1.68-3.5-4.14A3.74,3.74,0,0,1,474.14,295.63Z" transform="translate(-0.87 -1.1)"/><rect class="cls-2" x="421.47" y="318.18" width="84.34" height="24.12"/><text class="cls-17" transform="translate(421.47 331.72)">$344.838</text><path class="cls-16" d="M315.57,168H301.73a3.41,3.41,0,0,0-3.16,3.61v15.82a3.41,3.41,0,0,0,3.16,3.61h13.84a3.41,3.41,0,0,0,3.16-3.61V171.6A3.41,3.41,0,0,0,315.57,168Zm2.06,19.43a2.22,2.22,0,0,1-2.06,2.35H301.73a2.23,2.23,0,0,1-2.06-2.35V171.6a2.22,2.22,0,0,1,2.06-2.35h13.84a2.23,2.23,0,0,1,2.06,2.35v15.82Z" transform="translate(-0.87 -1.1)"/><path class="cls-16" d="M311,178.46a2.42,2.42,0,0,0,1.49-2.5c0-1.72-1-3.07-3.58-3.07h-3.94v11.59h4.44c2.64,0,3.66-1.48,3.66-3.22A2.7,2.7,0,0,0,311,178.46Zm-4.32-3.77h2.19c1.09,0,1.84.32,1.84,1.56q0,1.44-1.86,1.44h-2.18v-3Zm2.68,8h-2.68V179.5h2.47c1.44,0,2.16.51,2.16,1.54C311.27,182.37,310.5,182.67,309.33,182.67Z" transform="translate(-0.87 -1.1)"/><path class="cls-16" d="M327.27,166.21a3.41,3.41,0,0,0,3.16-3.61V146.78a3.41,3.41,0,0,0-3.16-3.61H313.43a3.41,3.41,0,0,0-3.16,3.61V162.6a3.41,3.41,0,0,0,3.16,3.61Zm-15.9-3.61V146.78a2.22,2.22,0,0,1,2.06-2.35h13.84a2.23,2.23,0,0,1,2.06,2.35V162.6a2.22,2.22,0,0,1-2.06,2.35H313.43A2.22,2.22,0,0,1,311.37,162.6Z" transform="translate(-0.87 -1.1)"/><path class="cls-16" d="M317.81,157h5.08l1,2.64h1.83l-4.47-11.59h-1.83L315,159.66h1.83Zm2.54-6.58,1.84,4.78h-3.68Z" transform="translate(-0.87 -1.1)"/><path class="cls-16" d="M339,168H325.19A3.41,3.41,0,0,0,322,171.6v15.82a3.41,3.41,0,0,0,3.16,3.61H339a3.41,3.41,0,0,0,3.16-3.61V171.6A3.41,3.41,0,0,0,339,168Zm2.06,19.43a2.22,2.22,0,0,1-2.06,2.35H325.19a2.23,2.23,0,0,1-2.06-2.35V171.6a2.22,2.22,0,0,1,2.06-2.35H339a2.23,2.23,0,0,1,2.06,2.35v15.82Z" transform="translate(-0.87 -1.1)"/><path class="cls-16" d="M332.94,174.53a3.53,3.53,0,0,1,2.89,1.43l1.09-1.36a4.83,4.83,0,0,0-3.94-2c-3.19,0-5.45,2.61-5.45,6s2.31,6,5.33,6a4.83,4.83,0,0,0,3.91-2l-1.1-1.29a3.56,3.56,0,0,1-2.86,1.43c-1.83,0-3.5-1.68-3.5-4.14A3.73,3.73,0,0,1,332.94,174.53Z" transform="translate(-0.87 -1.1)"/><rect class="cls-2" x="274.72" y="196.5" width="93.09" height="18.81"/><text class="cls-17" transform="translate(274.72 210.03) scale(1.03 1)">$233.472</text><path class="cls-18" d="M623.69,305.52a3.35,3.35,0,0,0-2.06-.54,3,3,0,0,0-1.12.38l3.58,1.85a43.78,43.78,0,0,0-2.89,5.11,21.88,21.88,0,0,0-1.5,4,10,10,0,0,0-.38,3.5c1.71-.49,3.52-2.9,4.69-5.78a13.58,13.58,0,0,0,1.15-6.06A3.29,3.29,0,0,0,623.69,305.52Z" transform="translate(-0.87 -1.1)"/><path class="cls-18" d="M599.51,282.34v7.41l19.89,9.06h0a31.55,31.55,0,0,0,4.55-.33c3.88-.72,6.39-2.11,6.39-3.57V282.7L618.14,288Z" transform="translate(-0.87 -1.1)"/><polygon class="cls-18" points="612.73 265.91 586.4 275.13 598.64 278.83 617.18 284.44 629.48 279.13 643.02 273.26 612.73 265.91"/><path class="cls-18" d="M617.58,317.22c0-.15,0-.33.07-.52a3.28,3.28,0,0,1,.14-.63l0-.14a25.91,25.91,0,0,1,1.8-4.84,24.89,24.89,0,0,1,1.48-2.75.41.41,0,0,0,0-.09L618.74,307a12.26,12.26,0,0,0-1.44,2.56,23.25,23.25,0,0,0-1.31,3.65l-28.08-16-.17,1c-.24,1.48-.17,3.05.58,3.45l29.61,18C617.51,319.25,617.41,318.39,617.58,317.22Z" transform="translate(-0.87 -1.1)"/><path class="cls-18" d="M615.65,308.48c1.67-4.12,4.61-6.48,6.87-5.72l-.09,0L591.5,288.6c-1.15-.63-2.8,1-3.7,3.77a11.31,11.31,0,0,0-.46,1.93l27.76,15.81A11.57,11.57,0,0,1,615.65,308.48Z" transform="translate(-0.87 -1.1)"/><rect class="cls-2" x="575.81" y="325.16" width="100" height="20.96"/><text class="cls-17" transform="translate(575.81 338.69) scale(1.03 1)">$452.369</text><rect class="cls-2" x="521.1" y="195.71" width="103.71" height="22.29"/><text class="cls-17" transform="translate(521.1 209.25) scale(1.03 1)">$422.930</text><path class="cls-19" d="M760.42,285.56H756.7a17,17,0,0,0-2.75-6.15l3.15-3.07a1.5,1.5,0,0,0,.4-.78,1,1,0,0,0-.4-.78l-4.12-4a1.48,1.48,0,0,0-1.77,0l-3.15,3.07a21.6,21.6,0,0,0-5.72-2.51v-4a1.27,1.27,0,0,0-1.2-1.17h-5.89a1.28,1.28,0,0,0-1.2,1.17v3.86a20.08,20.08,0,0,0-5.89,2.29l-3.38-3.3a1.48,1.48,0,0,0-1.77,0l-4.12,4a1.5,1.5,0,0,0-.4.78,1.42,1.42,0,0,0,.4.78l3.38,3.3a21.6,21.6,0,0,0-2.75,6.37h-3.78a1.28,1.28,0,0,0-1.2,1.17v5.76a1.27,1.27,0,0,0,1.2,1.17h3.72a18.31,18.31,0,0,0,2.12,5.36l3-3.58a14.44,14.44,0,0,1-1.26-5.87,14.82,14.82,0,1,1,14.82,14.47,16.93,16.93,0,0,1-4.18-.56l-2.86,3.35a24.78,24.78,0,0,0,2.86.84v3.3a1.27,1.27,0,0,0,1.2,1.17h5.89a1.28,1.28,0,0,0,1.2-1.17v-3.46a17.91,17.91,0,0,0,6.29-2.68l2.57,2.51a1.51,1.51,0,0,0,.8.39,1.36,1.36,0,0,0,.8-.39l4.12-4a1.5,1.5,0,0,0,.4-.78,1,1,0,0,0-.4-.78l-2.57-2.51a14.63,14.63,0,0,0,2.35-5.76h3.72a1.28,1.28,0,0,0,1.2-1.17v-5.81C761.62,286.18,761.22,285.56,760.42,285.56Z" transform="translate(-0.87 -1.1)"/><path class="cls-19" d="M749.78,288.19a10.34,10.34,0,0,0-1.95-5.2l-7.15,8.27-4.69-3.8,7.15-8.21a11.91,11.91,0,0,0-5.21-.84,10.82,10.82,0,0,0-10,11.57,10.46,10.46,0,0,0,.92,3.46l.06.11-17.39,20.06a4.3,4.3,0,0,0-1,3.07,4.24,4.24,0,0,0,1.49,2.85,4.54,4.54,0,0,0,3.15,1,4.44,4.44,0,0,0,2.92-1.45l17.16-19.84.17.06a11.74,11.74,0,0,0,4.4.5A10.83,10.83,0,0,0,749.78,288.19ZM715,317.58a1.47,1.47,0,0,1-1.6-1.34,1.45,1.45,0,0,1,1.37-1.56,1.47,1.47,0,0,1,1.6,1.34A1.44,1.44,0,0,1,715,317.58Z" transform="translate(-0.87 -1.1)"/><rect class="cls-2" x="688.81" y="328.55" width="86.83" height="19.57"/><text class="cls-17" transform="translate(688.81 342.08) scale(1.03 1)">$540.685</text><path d="M991.17,138.33l-2.1,2.37a17.29,17.29,0,0,0-10.31-4.55c-8,13-17,20.56-28.85,28.67a2.28,2.28,0,0,0-1,.4c-2.1,1.38-3,3.76-3.5,6.72-1.22,6.72.87,14.83,7.17,16.21,3.67.79,6.12.2,7.69-1.78,1.22-1.38,6.47-7.51,13.29-14.63a258.42,258.42,0,0,1,20.8-18.58c3.5-3,2.8-7.71.35-11.27a11.32,11.32,0,0,0-3.32-3.36ZM962,181a75.59,75.59,0,0,0,.17-12.46,43.37,43.37,0,0,0,5.77-3.95c8.92-6.72,16.08-14.63,23.43-23.33,2.62,2.37,4.9,7.32,1.75,10.08a256.21,256.21,0,0,0-21,18.58C968.1,174.31,964.43,178.26,962,181Zm-3.32,3.76c-1,1.38-2.8,1.78-5.59,1.19-5.77-1.38-7-9.49-5.42-15.22,1.57-5.54,6.47-4.74,8-.79l-6.29,6.33c.17.59.52,4.55,3.67,5.54,2.27.79,4.2-1.58,4.9-4.35a16.32,16.32,0,0,0,0-6.52,7.46,7.46,0,0,0-4.37-6.13c11-7.71,18.53-14.23,26-26.1a15.26,15.26,0,0,1,7.87,3.56c-7.34,8.5-22.38,24.52-27.45,24.52,0,1.19.52,11.27-.17,14.83A6.33,6.33,0,0,1,958.66,184.79Zm-2.45-12.26c.17,2.17,0,4.94-1.22,6.33-1.22,1.78-2.8,0-3.32-1.78Z" transform="translate(-0.87 -1.1)"/><path class="cls-20" d="M988.9,179.85a28.19,28.19,0,0,0-3.32-7.12,16.92,16.92,0,0,0-6.12-4.74,20.51,20.51,0,0,1,3.67,7.71,45,45,0,0,1,1.4,6.52l-2.45-1.38-1.92,3.95a20.14,20.14,0,0,0-1.22-10.08c-1.92-4.74-3.32-6.13-3.32-6.13.52-8.5-3.15-13.05-10.66-13.64l5.59-5.73c6.64-.2,10.49,7.91,9.79,14.83,5.07,3.16,9.79,7.71,14,12.06l-3.85.79Z" transform="translate(-0.87 -1.1)"/><rect class="cls-2" x="929.44" y="192.31" width="92.37" height="17.8"/><text class="cls-17" transform="translate(929.44 205.85) scale(1.03 1)">$711.743</text><path d="M1278,271l-2.1,2.37a17.29,17.29,0,0,0-10.31-4.55c-8,13-17,20.56-28.85,28.67a2.28,2.28,0,0,0-1,.4c-2.1,1.38-3,3.76-3.5,6.72-1.22,6.72.87,14.83,7.17,16.21,3.67.79,6.12.2,7.69-1.78,1.22-1.38,6.47-7.51,13.29-14.63a258.42,258.42,0,0,1,20.8-18.58c3.5-3,2.8-7.71.35-11.27a11.32,11.32,0,0,0-3.32-3.36Zm-29.2,42.71a75.59,75.59,0,0,0,.17-12.46,43.37,43.37,0,0,0,5.77-3.95c8.92-6.72,16.08-14.63,23.43-23.33,2.62,2.37,4.9,7.32,1.75,10.08a256.21,256.21,0,0,0-21,18.58C1254.93,307,1251.26,311,1248.81,313.74Zm-3.32,3.75c-1,1.38-2.8,1.78-5.59,1.19-5.77-1.38-7-9.49-5.42-15.22,1.57-5.54,6.47-4.74,8-.79l-6.29,6.33c.17.59.52,4.55,3.67,5.54,2.27.79,4.2-1.58,4.9-4.35a16.32,16.32,0,0,0,0-6.52,7.46,7.46,0,0,0-4.37-6.13c11-7.71,18.53-14.23,26-26.1a15.26,15.26,0,0,1,7.87,3.56c-7.34,8.5-22.38,24.52-27.45,24.52,0,1.19.52,11.27-.17,14.83A6.3,6.3,0,0,1,1245.49,317.49ZM1243,305.24c.17,2.17,0,4.94-1.22,6.33-1.22,1.78-2.8,0-3.32-1.78Z" transform="translate(-0.87 -1.1)"/><path class="cls-20" d="M1275.73,312.55a28.19,28.19,0,0,0-3.32-7.12,16.92,16.92,0,0,0-6.12-4.74,20.51,20.51,0,0,1,3.67,7.71,45,45,0,0,1,1.4,6.52l-2.45-1.38-1.92,3.95a20.14,20.14,0,0,0-1.22-10.08c-1.92-4.74-3.32-6.13-3.32-6.13.52-8.5-3.15-13-10.66-13.64l5.59-5.73c6.64-.2,10.49,7.91,9.79,14.83,5.07,3.16,9.79,7.71,14,12.06l-3.85.79Z" transform="translate(-0.87 -1.1)"/><rect class="cls-2" x="1209.81" y="328.02" width="109" height="19.1"/><text class="cls-17" transform="translate(1209.81 341.55) scale(1.03 1)">$952.999</text><rect class="cls-2" x="383.25" y="196.18" width="99.56" height="21.94"/><text class="cls-17" transform="translate(383.25 209.71) scale(1.03 1)">$301.078</text><path class="cls-18" d="M441.62,178a3.35,3.35,0,0,0-2.06-.54,3,3,0,0,0-1.12.38l3.58,1.85a43.78,43.78,0,0,0-2.89,5.11,21.88,21.88,0,0,0-1.5,4,10,10,0,0,0-.38,3.5c1.71-.49,3.52-2.9,4.69-5.78a13.58,13.58,0,0,0,1.15-6.06A3.27,3.27,0,0,0,441.62,178Z" transform="translate(-0.87 -1.1)"/><path class="cls-18" d="M417.43,154.8v7.41l19.89,9.06h0a31.55,31.55,0,0,0,4.55-.33c3.88-.72,6.39-2.11,6.39-3.57V155.16l-12.21,5.29Z" transform="translate(-0.87 -1.1)"/><polygon class="cls-18" points="430.66 138.37 404.33 147.59 416.56 151.28 435.11 156.9 447.41 151.58 460.94 145.71 430.66 138.37"/><path class="cls-18" d="M435.51,189.68c0-.15.05-.33.07-.52a3.28,3.28,0,0,1,.14-.63l0-.14a25.91,25.91,0,0,1,1.8-4.84A24.89,24.89,0,0,1,439,180.8a.31.31,0,0,0,0-.1l-2.43-1.24a12.26,12.26,0,0,0-1.44,2.56,23.25,23.25,0,0,0-1.31,3.65l-28.08-16-.17,1c-.24,1.48-.17,3.05.58,3.45l29.61,18C435.44,191.71,435.34,190.85,435.51,189.68Z" transform="translate(-0.87 -1.1)"/><path class="cls-18" d="M433.58,180.93c1.67-4.12,4.61-6.48,6.87-5.72l-.09,0-30.93-14.12c-1.15-.63-2.8,1-3.7,3.77a11.31,11.31,0,0,0-.46,1.93L433,182.56A12,12,0,0,1,433.58,180.93Z" transform="translate(-0.87 -1.1)"/><rect class="cls-21" x="99.7" y="231.2" width="1385.4" height="21.3"/></svg>