<?xml version="1.0" encoding="utf-8"?>
<!-- Generator: Adobe Illustrator 22.0.1, SVG Export Plug-In . SVG Version: 6.00 Build 0)  -->
<svg version="1.1" id="Capa_1" xmlns="http://www.w3.org/2000/svg" xmlns:xlink="http://www.w3.org/1999/xlink" x="0px" y="0px"
	 viewBox="0 0 1500.5 410.2" style="enable-background:new 0 0 1500.5 410.2;" xml:space="preserve">
<style type="text/css">
	.st0{opacity:0.8;fill:#DCF4F3;stroke:#416190;stroke-width:5;stroke-miterlimit:5.83;}
	.st1{fill:none;}
	.st2{font-family:'Arial-BoldMT';}
	.st3{font-size:16px;}
	.st4{fill:#FF0000;}
	.st5{font-size:21px;}
	.st6{font-family:'Verdana-Bold';}
	.st7{font-family:'ArialMT';}
	.st8{font-family:'Verdana';}
	.st9{fill:none;stroke:#000000;stroke-width:0.25;stroke-miterlimit:10;}
	.st10{font-size:12.24px;}
	.st11{fill:#FCEE21;}
	.st12{font-size:16.65px;}
	.st13{fill:#FF0000;stroke:#FF0000;stroke-width:1.33;stroke-miterlimit:10;}
	.st14{font-size:18px;}
	.st15{fill:#FF0000;stroke:#FF0000;stroke-width:0.22;stroke-miterlimit:10;}
	.st16{fill:#FF0000;stroke:#FF0000;stroke-width:0.14;stroke-miterlimit:10;}
	.st17{fill:none;stroke:#000000;stroke-width:3.04;stroke-miterlimit:10;}
</style>
<title>valparaiso</title>
<path class="st0" d="M45,2.5h1410.5c23.5,0,42.5,19,42.5,42.5v320.2c0,23.5-19,42.5-42.5,42.5H45c-23.5,0-42.5-19-42.5-42.5V45
	C2.5,21.5,21.5,2.5,45,2.5z"/>
<rect x="113.8" y="234" class="st1" width="1371.8" height="36.8"/>
<g>
	<text transform="matrix(0.98 0 0 1 113.7998 246.02)" class="st2 st3">$100.000</text>
	<text transform="matrix(0.98 0 0 1 244.2695 246.02)" class="st2 st3">$200.000</text>
	<text transform="matrix(0.98 0 0 1 374.73 246.02)" class="st2 st3">$300.000</text>
	<text transform="matrix(0.98 0 0 1 505.1997 246.02)" class="st2 st3">$400.000</text>
	<text transform="matrix(0.98 0 0 1 635.6699 246.02)" class="st2 st3">$500.000</text>
	<text transform="matrix(0.98 0 0 1 766.1396 246.02)" class="st2 st3">$600.000</text>
	<text transform="matrix(0.98 0 0 1 896.5996 246.02)" class="st2 st3">$700.000</text>
	<text transform="matrix(0.98 0 0 1 1027.0693 246.02)" class="st2 st3">$800.000</text>
	<text transform="matrix(0.98 0 0 1 1157.54 246.02)" class="st2 st3">$900.000</text>
	<text transform="matrix(0.98 0 0 1 1288 246.02)" class="st2 st3">$1.000.000</text>
	<text transform="matrix(0.98 0 0 1 1418.4697 246.02)" class="st2 st3">   +++</text>
</g>
<path class="st4" d="M595.6,150.6h-3.7c-0.5-2.2-1.4-4.3-2.8-6.1l3.2-3.1c0.2-0.2,0.3-0.5,0.4-0.8c0-0.3-0.2-0.6-0.4-0.8l-4.1-4
	c-0.5-0.4-1.2-0.4-1.8,0l-3.2,3.1c-1.8-1.1-3.7-2-5.7-2.5v-4c0-0.6-0.6-1.1-1.2-1.2h-5.9c-0.6,0-1.1,0.5-1.2,1.2v3.9
	c-2.1,0.4-4.1,1.2-5.9,2.3l-3.4-3.3c-0.5-0.4-1.2-0.4-1.8,0l-4.1,4c-0.2,0.2-0.3,0.5-0.4,0.8c0,0.3,0.2,0.6,0.4,0.8l3.4,3.3
	c-1.3,2-2.2,4.1-2.8,6.4h-3.8c-0.6,0-1.1,0.5-1.2,1.2v5.8c0,0.6,0.6,1.1,1.2,1.2h3.7c0.4,1.9,1.1,3.7,2.1,5.4l3-3.6
	c-0.8-1.8-1.3-3.8-1.3-5.9c-0.2-8.2,6.3-15,14.5-15.2c8.2-0.2,15,6.3,15.2,14.5s-6.3,15-14.5,15.2c-0.1,0-0.2,0-0.3,0
	c-1.4,0-2.8-0.2-4.2-0.6l-2.9,3.4c0.9,0.3,1.9,0.6,2.9,0.8v3.3c0,0.6,0.6,1.1,1.2,1.2h5.9c0.6,0,1.1-0.5,1.2-1.2v-3.5
	c2.2-0.5,4.4-1.4,6.3-2.7l2.6,2.5c0.2,0.2,0.5,0.3,0.8,0.4c0.3,0,0.6-0.2,0.8-0.4l4.1-4c0.2-0.2,0.3-0.5,0.4-0.8
	c0-0.3-0.2-0.6-0.4-0.8l-2.6-2.5c1.2-1.7,2-3.7,2.3-5.8h3.7c0.6,0,1.1-0.5,1.2-1.2v-5.8C596.8,151.2,596.4,150.6,595.6,150.6z"/>
<path class="st4" d="M585,153.3c-0.2-1.9-0.9-3.7-2-5.2l-7.2,8.3l-4.7-3.8l7.2-8.2c-1.7-0.7-3.4-1-5.2-0.8c-6,0.4-10.4,5.6-10,11.6
	c0.1,1.2,0.4,2.4,0.9,3.5l0.1,0.1l-17.4,20.1c-0.7,0.9-1.1,2-1,3.1c0.1,1.1,0.6,2.1,1.5,2.9c0.9,0.7,2,1.1,3.2,1
	c1.1-0.1,2.2-0.6,2.9-1.4l17.2-19.8l0.2,0.1c1.4,0.4,2.9,0.6,4.4,0.5C580.9,164.4,585.4,159.2,585,153.3
	C585,153.3,585,153.3,585,153.3z M550.2,182.6c-0.8,0.1-1.5-0.5-1.6-1.3c0,0,0,0,0,0c-0.1-0.8,0.5-1.5,1.3-1.6c0,0,0,0,0,0
	c0.8-0.1,1.5,0.5,1.6,1.3c0,0,0,0,0,0C551.6,181.9,551,182.6,550.2,182.6C550.2,182.6,550.2,182.6,550.2,182.6L550.2,182.6z"/>
<rect x="824.8" y="373.8" class="st1" width="92" height="32.3"/>
<text transform="matrix(0.98 0 0 1 824.8193 389.5801)" class="st2 st5">$658.555</text>
<rect x="590.9" y="16.4" class="st1" width="439.9" height="108.7"/>
<text transform="matrix(1 0 0 1 737.93 32.23)" class="st6 st5">VALPARAISO V</text>
<text transform="matrix(1 0 0 1 565.11 82.63)" class="st6 st5">Población:</text>
<text transform="matrix(1 0 0 1 682 82.63)" class="st7 st5"> 1.</text>
<text transform="matrix(1 0 0 1 705.35 82.63)" class="st8 st5">815.902</text>
<text transform="matrix(1 0 0 1 793.09 82.63)" class="st7 st5">   </text>
<text transform="matrix(1 0 0 1 682 82.63)" class="st9 st7 st5"> 1.   </text>
<text transform="matrix(1 0 0 1 804.76 82.63)" class="st6 st5">Superficie:</text>
<text transform="matrix(1 0 0 1 934.41 82.63)" class="st7 st5"> 16.</text>
<text transform="matrix(1 0 0 1 969.4399 82.63)" class="st8 st5">396,1 km</text>
<text transform="matrix(1 0 0 1 934.41 82.63)" class="st9 st7 st5"> 16.</text>
<text transform="matrix(1 0 0 1 1023.81 75.63)" class="st8 st10">            2</text>
<rect x="867" y="121.2" class="st11" width="4.5" height="244"/>
<rect x="17.3" y="173.7" class="st1" width="105.4" height="23.7"/>
<text transform="matrix(0.98 0 0 1 17.25 185.5898)" class="st2 st12">MUJERES</text>
<rect x="17.3" y="295.1" class="st1" width="96.2" height="26"/>
<text transform="matrix(0.98 0 0 1 17.25 307.0298)" class="st2 st12">HOMBRES</text>
<rect x="216.3" y="57.9" class="st1" width="80.5" height="23.3"/>
<path class="st13" d="M455.9,288h-13.8c-1.9,0.1-3.3,1.7-3.2,3.6v15.8c-0.1,1.9,1.3,3.5,3.2,3.6h13.8c1.9-0.1,3.3-1.7,3.2-3.6v-15.8
	C459.2,289.7,457.8,288.1,455.9,288z M458,307.4c0.1,1.2-0.8,2.3-2.1,2.4h-13.8c-1.2-0.1-2.1-1.1-2.1-2.4v-15.8
	c-0.1-1.2,0.8-2.3,2.1-2.4h13.8c1.2,0.1,2.1,1.1,2.1,2.4V307.4L458,307.4z"/>
<path class="st13" d="M451.3,298.5c1-0.4,1.6-1.4,1.5-2.5c0-1.7-1-3.1-3.6-3.1h-4v11.6h4.4c2.6,0,3.7-1.5,3.7-3.2
	C453.5,299.9,452.6,298.8,451.3,298.5z M447,294.7h2.1c1.1,0,1.8,0.3,1.8,1.6c0,1-0.6,1.4-1.9,1.4h-2.2L447,294.7L447,294.7z
	 M449.7,302.7H447v-3.2h2.5c1.4,0,2.2,0.5,2.2,1.5C451.6,302.4,450.8,302.7,449.7,302.7L449.7,302.7z"/>
<path class="st13" d="M467.6,286.2c1.9-0.1,3.3-1.7,3.2-3.6v-15.8c0.1-1.9-1.3-3.5-3.2-3.6h-13.8c-1.9,0.1-3.3,1.7-3.2,3.6v15.8
	c-0.1,1.9,1.3,3.5,3.2,3.6H467.6z M451.7,282.6v-15.8c-0.1-1.2,0.8-2.3,2.1-2.4h13.8c1.2,0.1,2.1,1.1,2.1,2.4v15.8
	c0.1,1.2-0.8,2.3-2.1,2.4h-13.8C452.5,284.9,451.6,283.8,451.7,282.6z"/>
<path class="st13" d="M458.1,277h5.1l1,2.6h1.8l-4.5-11.6h-1.8l-4.5,11.6h1.9L458.1,277z M460.7,270.4l1.8,4.8h-3.7L460.7,270.4z"/>
<path class="st13" d="M479.4,288h-13.8c-1.9,0.1-3.3,1.7-3.2,3.6v15.8c-0.1,1.9,1.3,3.5,3.2,3.6h13.8c1.9-0.1,3.3-1.7,3.2-3.6v-15.8
	C482.6,289.7,481.2,288.1,479.4,288z M481.4,307.4c0.1,1.2-0.8,2.3-2.1,2.4h-13.8c-1.2-0.1-2.1-1.1-2.1-2.4v-15.8
	c-0.1-1.2,0.8-2.3,2.1-2.4h13.8c1.2,0.1,2.1,1.1,2.1,2.4V307.4L481.4,307.4z"/>
<path class="st13" d="M473.3,294.5c1.1,0,2.2,0.5,2.9,1.4l1.1-1.4c-0.9-1.3-2.4-2-3.9-2c-3.2,0-5.5,2.6-5.5,6s2.3,6,5.3,6
	c1.5,0,3-0.7,3.9-2l-1.1-1.3c-0.7,0.9-1.7,1.4-2.9,1.4c-1.8,0-3.5-1.7-3.5-4.1c-0.2-2.1,1.3-3.9,3.4-4.1
	C473.1,294.5,473.2,294.5,473.3,294.5z"/>
<rect x="421.5" y="318.2" class="st1" width="84.3" height="24.1"/>
<text transform="matrix(1 0 0 1 421.47 331.72)" class="st2 st14">$344.838</text>
<path class="st13" d="M314.7,166.9h-13.8c-1.9,0.1-3.3,1.7-3.2,3.6v15.8c-0.1,1.9,1.3,3.5,3.2,3.6h13.8c1.9-0.1,3.3-1.7,3.2-3.6
	v-15.8C318,168.6,316.6,167,314.7,166.9z M316.8,186.3c0.1,1.2-0.8,2.3-2.1,2.4h-13.8c-1.2-0.1-2.1-1.1-2.1-2.4v-15.8
	c-0.1-1.2,0.8-2.3,2.1-2.4h13.8c1.2,0.1,2.1,1.1,2.1,2.4V186.3L316.8,186.3z"/>
<path class="st13" d="M310.1,177.4c1-0.4,1.6-1.4,1.5-2.5c0-1.7-1-3.1-3.6-3.1h-3.9v11.6h4.4c2.6,0,3.7-1.5,3.7-3.2
	C312.3,178.8,311.4,177.7,310.1,177.4z M305.8,173.6h2.2c1.1,0,1.8,0.3,1.8,1.6c0,1-0.6,1.4-1.9,1.4h-2.2L305.8,173.6L305.8,173.6z
	 M308.5,181.6h-2.7v-3.2h2.5c1.4,0,2.2,0.5,2.2,1.5C310.4,181.3,309.6,181.6,308.5,181.6L308.5,181.6z"/>
<path class="st13" d="M326.4,165.1c1.9-0.1,3.3-1.7,3.2-3.6v-15.8c0.1-1.9-1.3-3.5-3.2-3.6h-13.8c-1.9,0.1-3.3,1.7-3.2,3.6v15.8
	c-0.1,1.9,1.3,3.5,3.2,3.6H326.4z M310.5,161.5v-15.8c-0.1-1.2,0.8-2.3,2.1-2.4h13.8c1.2,0.1,2.1,1.1,2.1,2.4v15.8
	c0.1,1.2-0.8,2.3-2.1,2.4h-13.8C311.3,163.8,310.4,162.7,310.5,161.5z"/>
<path class="st13" d="M316.9,155.9h5.1l1,2.6h1.8l-4.5-11.6h-1.8l-4.4,11.6h1.8L316.9,155.9z M319.5,149.3l1.8,4.8h-3.7L319.5,149.3
	z"/>
<path class="st13" d="M338.1,166.9h-13.8c-1.9,0.1-3.3,1.7-3.2,3.6v15.8c-0.1,1.9,1.3,3.5,3.2,3.6h13.8c1.9-0.1,3.3-1.7,3.2-3.6
	v-15.8C341.4,168.6,340,167,338.1,166.9z M340.2,186.3c0.1,1.2-0.8,2.3-2.1,2.4h-13.8c-1.2-0.1-2.1-1.1-2.1-2.4v-15.8
	c-0.1-1.2,0.8-2.3,2.1-2.4h13.8c1.2,0.1,2.1,1.1,2.1,2.4V186.3L340.2,186.3z"/>
<path class="st13" d="M332.1,173.4c1.1,0,2.2,0.5,2.9,1.4l1.1-1.4c-0.9-1.3-2.4-2-3.9-2c-3.2,0-5.5,2.6-5.5,6s2.3,6,5.3,6
	c1.5,0,3-0.7,3.9-2l-1.1-1.3c-0.7,0.9-1.7,1.4-2.9,1.4c-1.8,0-3.5-1.7-3.5-4.1c-0.2-2.1,1.3-3.9,3.4-4.1
	C331.9,173.4,332,173.4,332.1,173.4z"/>
<rect x="274.7" y="196.5" class="st1" width="93.1" height="18.8"/>
<text transform="matrix(1.03 0 0 1 274.7202 210.0303)" class="st2 st14">$233.472</text>
<path class="st15" d="M622.8,304.4c-0.6-0.4-1.3-0.6-2.1-0.5c-0.4,0.1-0.8,0.2-1.1,0.4l3.6,1.9c-1.1,1.6-2,3.3-2.9,5.1
	c-0.6,1.3-1.1,2.6-1.5,4c-0.3,1.1-0.5,2.3-0.4,3.5c1.7-0.5,3.5-2.9,4.7-5.8c0.8-1.9,1.2-4,1.2-6.1
	C624.2,305.9,623.7,305,622.8,304.4z"/>
<path class="st15" d="M598.6,281.2v7.4l19.9,9.1l0,0c1.5,0,3-0.1,4.5-0.3c3.9-0.7,6.4-2.1,6.4-3.6v-12.2l-12.2,5.3L598.6,281.2z"/>
<polygon class="st15" points="612.7,265.9 586.4,275.1 598.6,278.8 617.2,284.4 629.5,279.1 643,273.3 "/>
<path class="st15" d="M616.7,316.1c0-0.1,0-0.3,0.1-0.5c0-0.2,0.1-0.4,0.1-0.6v-0.1c0.4-1.7,1-3.3,1.8-4.8c0.4-0.9,0.9-1.9,1.5-2.8
	c0,0,0-0.1,0-0.1l-2.3-1.3c-0.6,0.8-1.1,1.7-1.4,2.6c-0.5,1.2-1,2.4-1.3,3.6l-28.1-16l-0.2,1c-0.2,1.5-0.2,3,0.6,3.5l29.6,18
	C616.6,318.1,616.5,317.3,616.7,316.1z"/>
<path class="st15" d="M614.8,307.4c1.7-4.1,4.6-6.5,6.9-5.7h-0.1l-30.9-14.2c-1.2-0.6-2.8,1-3.7,3.8c-0.2,0.6-0.4,1.3-0.5,1.9
	l27.8,15.8C614.4,308.5,614.6,307.9,614.8,307.4z"/>
<rect x="575.8" y="325.2" class="st1" width="100" height="21"/>
<text transform="matrix(1.03 0 0 1 575.8101 338.6899)" class="st2 st14">$452.369</text>
<rect x="521.1" y="195.7" class="st1" width="103.7" height="22.3"/>
<text transform="matrix(1.03 0 0 1 521.1001 209.25)" class="st2 st14">$422.930</text>
<path class="st16" d="M759.5,284.5h-3.7c-0.5-2.2-1.4-4.3-2.8-6.1l3.2-3.1c0.2-0.2,0.3-0.5,0.4-0.8c0-0.3-0.2-0.6-0.4-0.8l-4.1-4
	c-0.5-0.4-1.2-0.4-1.8,0l-3.2,3.1c-1.8-1.1-3.7-2-5.7-2.5v-4c0-0.6-0.6-1.1-1.2-1.2h-5.9c-0.6,0-1.1,0.5-1.2,1.2v3.9
	c-2.1,0.4-4.1,1.2-5.9,2.3l-3.4-3.3c-0.5-0.4-1.2-0.4-1.8,0l-4.1,4c-0.2,0.2-0.3,0.5-0.4,0.8c0,0.3,0.2,0.6,0.4,0.8l3.4,3.3
	c-1.3,2-2.2,4.1-2.8,6.4h-3.8c-0.6,0-1.1,0.5-1.2,1.2v5.8c0,0.6,0.6,1.1,1.2,1.2h3.7c0.4,1.9,1.1,3.7,2.1,5.4l3-3.6
	c-0.8-1.8-1.3-3.8-1.3-5.9c-0.2-8.2,6.3-15,14.5-15.2c8.2-0.2,15,6.3,15.2,14.5c0.2,8.2-6.3,15-14.5,15.2c-0.1,0-0.2,0-0.3,0
	c-1.4,0-2.8-0.2-4.2-0.6l-2.9,3.4c0.9,0.3,1.9,0.6,2.9,0.8v3.3c0,0.6,0.6,1.1,1.2,1.2h5.9c0.6,0,1.1-0.5,1.2-1.2v-3.5
	c2.2-0.5,4.4-1.4,6.3-2.7l2.6,2.5c0.2,0.2,0.5,0.3,0.8,0.4c0.3,0,0.6-0.2,0.8-0.4l4.1-4c0.2-0.2,0.3-0.5,0.4-0.8
	c0-0.3-0.2-0.6-0.4-0.8l-2.6-2.5c1.2-1.7,2-3.7,2.3-5.8h3.7c0.6,0,1.1-0.5,1.2-1.2v-5.8C760.8,285.1,760.3,284.5,759.5,284.5z"/>
<path class="st16" d="M748.9,287.1c-0.2-1.9-0.8-3.7-2-5.2l-7.2,8.3l-4.7-3.8l7.2-8.2c-1.7-0.7-3.4-1-5.2-0.8
	c-6,0.4-10.4,5.6-10,11.6c0.1,1.2,0.4,2.4,0.9,3.5l0.1,0.1l-17.4,20.1c-0.7,0.9-1.1,2-1,3.1c0.1,1.1,0.6,2.1,1.5,2.9
	c0.9,0.7,2,1.1,3.2,1c1.1-0.1,2.2-0.6,2.9-1.5l17.2-19.8l0.2,0.1c1.4,0.4,2.9,0.6,4.4,0.5C744.9,298.2,749.4,293,748.9,287.1z
	 M714.1,316.5c-0.8,0.1-1.5-0.5-1.6-1.3c0,0,0,0,0,0c-0.1-0.8,0.5-1.5,1.3-1.6c0,0,0,0,0,0c0.8-0.1,1.5,0.5,1.6,1.3c0,0,0,0,0,0
	C715.6,315.7,715,316.4,714.1,316.5C714.2,316.5,714.1,316.5,714.1,316.5z"/>
<rect x="688.8" y="328.5" class="st1" width="86.8" height="19.6"/>
<text transform="matrix(1.03 0 0 1 688.8105 342.0801)" class="st2 st14">$540.685</text>
<path d="M990.3,137.2l-2.1,2.4c-2.8-2.6-6.5-4.2-10.3-4.6c-8,13-17,20.6-28.8,28.7c-0.4,0.1-0.7,0.2-1,0.4c-2.1,1.4-3,3.8-3.5,6.7
	c-1.2,6.7,0.9,14.8,7.2,16.2c3.7,0.8,6.1,0.2,7.7-1.8c1.2-1.4,6.5-7.5,13.3-14.6c6.6-6.6,13.5-12.8,20.8-18.6
	c3.5-3,2.8-7.7,0.3-11.3c-0.9-1.3-2-2.5-3.3-3.4L990.3,137.2z M961.1,179.9c0.4-4.1,0.5-8.3,0.2-12.5c2-1.2,4-2.5,5.8-3.9
	c8.9-6.7,16.1-14.6,23.4-23.3c2.6,2.4,4.9,7.3,1.8,10.1c-7.3,5.8-14.3,12-21,18.6C967.2,173.2,963.6,177.2,961.1,179.9z
	 M957.8,183.7c-1,1.4-2.8,1.8-5.6,1.2c-5.8-1.4-7-9.5-5.4-15.2c1.6-5.5,6.5-4.7,8-0.8l-6.3,6.3c0.2,0.6,0.5,4.6,3.7,5.5
	c2.3,0.8,4.2-1.6,4.9-4.4c0.4-2.2,0.4-4.4,0-6.5c-0.2-2.7-1.9-5-4.4-6.1c11-7.7,18.5-14.2,26-26.1c2.9,0.4,5.6,1.6,7.9,3.6
	c-7.3,8.5-22.4,24.5-27.5,24.5c0,1.2,0.5,11.3-0.2,14.8C958.9,181.7,958.5,182.8,957.8,183.7L957.8,183.7z M955.4,171.4
	c0.2,2.2,0,4.9-1.2,6.3c-1.2,1.8-2.8,0-3.3-1.8L955.4,171.4z"/>
<path d="M988,178.8c-0.8-2.5-1.9-4.9-3.3-7.1c-1.6-2-3.7-3.7-6.1-4.7c1.8,2.3,3,4.9,3.7,7.7c0.6,2.1,1.1,4.3,1.4,6.5l-2.5-1.4
	l-1.9,3.9c0.5-3.4,0-6.9-1.2-10.1c-1.9-4.7-3.3-6.1-3.3-6.1c0.5-8.5-3.2-13.1-10.7-13.6l5.6-5.7c6.6-0.2,10.5,7.9,9.8,14.8
	c5.1,3.2,9.8,7.7,14,12.1l-3.8,0.8L988,178.8z"/>
<rect x="929.4" y="192.3" class="st1" width="92.4" height="17.8"/>
<text transform="matrix(1.03 0 0 1 929.4404 205.8501)" class="st2 st14">$711.743</text>
<path d="M1277.1,269.9l-2.1,2.4c-2.8-2.6-6.5-4.2-10.3-4.5c-8,13-17,20.6-28.8,28.7c-0.4,0.1-0.7,0.2-1,0.4c-2.1,1.4-3,3.8-3.5,6.7
	c-1.2,6.7,0.9,14.8,7.2,16.2c3.7,0.8,6.1,0.2,7.7-1.8c1.2-1.4,6.5-7.5,13.3-14.6c6.6-6.6,13.5-12.8,20.8-18.6
	c3.5-3,2.8-7.7,0.3-11.3c-0.9-1.3-2-2.5-3.3-3.4L1277.1,269.9z M1247.9,312.6c0.4-4.1,0.5-8.3,0.2-12.5c2-1.2,4-2.5,5.8-4
	c8.9-6.7,16.1-14.6,23.4-23.3c2.6,2.4,4.9,7.3,1.8,10.1c-7.3,5.8-14.3,12-21,18.6C1254.1,305.9,1250.4,309.9,1247.9,312.6
	L1247.9,312.6z M1244.6,316.4c-1,1.4-2.8,1.8-5.6,1.2c-5.8-1.4-7-9.5-5.4-15.2c1.6-5.5,6.5-4.7,8-0.8l-6.3,6.3
	c0.2,0.6,0.5,4.5,3.7,5.5c2.3,0.8,4.2-1.6,4.9-4.4c0.4-2.2,0.4-4.4,0-6.5c-0.2-2.7-1.9-5-4.4-6.1c11-7.7,18.5-14.2,26-26.1
	c2.9,0.4,5.6,1.6,7.9,3.6c-7.3,8.5-22.4,24.5-27.4,24.5c0,1.2,0.5,11.3-0.2,14.8C1245.7,314.4,1245.3,315.5,1244.6,316.4
	L1244.6,316.4z M1242.1,304.1c0.2,2.2,0,4.9-1.2,6.3c-1.2,1.8-2.8,0-3.3-1.8L1242.1,304.1z"/>
<path d="M1274.9,311.4c-0.8-2.5-1.9-4.9-3.3-7.1c-1.6-2-3.7-3.7-6.1-4.7c1.8,2.3,3,4.9,3.7,7.7c0.6,2.1,1.1,4.3,1.4,6.5l-2.4-1.4
	l-1.9,4c0.5-3.4,0-6.9-1.2-10.1c-1.9-4.7-3.3-6.1-3.3-6.1c0.5-8.5-3.2-13-10.7-13.6l5.6-5.7c6.6-0.2,10.5,7.9,9.8,14.8
	c5.1,3.2,9.8,7.7,14,12.1l-3.8,0.8L1274.9,311.4z"/>
<rect x="1209.8" y="328" class="st1" width="109" height="19.1"/>
<text transform="matrix(1.03 0 0 1 1209.8105 341.5498)" class="st2 st14">$952.999</text>
<rect x="383.3" y="196.2" class="st1" width="99.6" height="21.9"/>
<text transform="matrix(1.03 0 0 1 383.25 209.71)" class="st2 st14">$301.078</text>
<path class="st15" d="M440.8,176.9c-0.6-0.4-1.3-0.6-2.1-0.5c-0.4,0.1-0.8,0.2-1.1,0.4l3.6,1.9c-1.1,1.6-2,3.3-2.9,5.1
	c-0.6,1.3-1.1,2.6-1.5,4c-0.3,1.1-0.5,2.3-0.4,3.5c1.7-0.5,3.5-2.9,4.7-5.8c0.8-1.9,1.2-4,1.1-6.1
	C442.1,178.4,441.6,177.5,440.8,176.9z"/>
<path class="st15" d="M416.6,153.7v7.4l19.9,9.1l0,0c1.5,0,3-0.1,4.5-0.3c3.9-0.7,6.4-2.1,6.4-3.6v-12.2l-12.2,5.3L416.6,153.7z"/>
<polygon class="st15" points="430.7,138.4 404.3,147.6 416.6,151.3 435.1,156.9 447.4,151.6 460.9,145.7 "/>
<path class="st15" d="M434.6,188.6c0-0.1,0-0.3,0.1-0.5c0-0.2,0.1-0.4,0.1-0.6v-0.1c0.4-1.7,1-3.3,1.8-4.8c0.4-0.9,0.9-1.9,1.5-2.7
	c0,0,0-0.1,0-0.1l-2.4-1.2c-0.6,0.8-1.1,1.7-1.4,2.6c-0.5,1.2-1,2.4-1.3,3.6l-28.1-16l-0.2,1c-0.2,1.5-0.2,3.1,0.6,3.4l29.6,18
	C434.6,190.6,434.5,189.8,434.6,188.6z"/>
<path class="st15" d="M432.7,179.8c1.7-4.1,4.6-6.5,6.9-5.7h-0.1L408.6,160c-1.1-0.6-2.8,1-3.7,3.8c-0.2,0.6-0.4,1.3-0.5,1.9
	l27.7,15.8C432.3,180.9,432.5,180.4,432.7,179.8z"/>
<rect x="99.7" y="231.2" class="st17" width="1385.4" height="21.3"/>
</svg>
