<?xml version="1.0" encoding="utf-8"?>
<!-- Generator: Adobe Illustrator 22.0.1, SVG Export Plug-In . SVG Version: 6.00 Build 0)  -->
<svg version="1.1" id="Capa_1" xmlns="http://www.w3.org/2000/svg" xmlns:xlink="http://www.w3.org/1999/xlink" x="0px" y="0px"
	 viewBox="0 0 1500.4 410.1" style="enable-background:new 0 0 1500.4 410.1;" xml:space="preserve">
<style type="text/css">
	.st0{opacity:0.8;fill:#DCF4F3;stroke:#416190;stroke-width:5;stroke-miterlimit:5.83;}
	.st1{fill:none;stroke:#000000;stroke-width:3.0401;stroke-miterlimit:10;}
	.st2{fill:none;}
	.st3{font-family:'ArialMT';}
	.st4{font-size:16px;}
	.st5{letter-spacing:27.6;}
	.st6{letter-spacing:9.2;}
	.st7{fill:#FF0000;}
	.st8{font-size:21px;}
	.st9{font-family:'Verdana-Bold';}
	.st10{font-size:12.243px;}
	.st11{fill:#FCEE21;}
	.st12{font-size:16.6514px;}
	.st13{fill:#FF0000;stroke:#FF0000;stroke-width:1.3664;stroke-miterlimit:10;}
	.st14{font-size:18.9273px;}
	.st15{fill:#FF0000;stroke:#FF0000;stroke-width:1.3343;stroke-miterlimit:10;}
	.st16{font-size:18px;}
	.st17{fill:#FF0000;stroke:#FF0000;stroke-width:0.2169;stroke-miterlimit:10;}
	.st18{fill:#FF0000;stroke:#FF0000;stroke-width:0.1414;stroke-miterlimit:10;}
</style>
<path class="st0" d="M44.9,2.6h1410.5c23.5,0,42.5,19,42.5,42.5v320.2c0,23.5-19,42.5-42.5,42.5H44.9c-23.5,0-42.5-19-42.5-42.5
	V45.1C2.4,21.6,21.4,2.6,44.9,2.6z"/>
<rect x="97.6" y="228.5" class="st1" width="1385.4" height="21.3"/>
<rect x="111.5" y="232.9" class="st2" width="1371.8" height="36.8"/>
<text transform="matrix(0.9794 0 0 1 111.5127 244.9126)" class="st3 st4">$100.000</text>
<text transform="matrix(0.9794 0 0 1 176.8569 244.9126)" class="st3 st4 st5"> </text>
<text transform="matrix(0.9794 0 0 1 209.3643 244.9126)" class="st3 st4 st5"> </text>
<text transform="matrix(0.9794 0 0 1 241.978 244.9126)" class="st3 st4">$200.000</text>
<text transform="matrix(0.9794 0 0 1 307.3223 244.9126)" class="st3 st4 st5"> </text>
<text transform="matrix(0.9794 0 0 1 339.8291 244.9126)" class="st3 st4 st5"> </text>
<text transform="matrix(0.9794 0 0 1 372.4434 244.9126)" class="st3 st4">$300.000</text>
<text transform="matrix(0.9794 0 0 1 437.7891 244.9126)" class="st3 st4 st5"> </text>
<text transform="matrix(0.9794 0 0 1 470.2949 244.9126)" class="st3 st4 st5"> </text>
<text transform="matrix(0.9794 0 0 1 502.9092 244.9126)" class="st3 st4">$400.000</text>
<text transform="matrix(0.9794 0 0 1 568.2549 244.9126)" class="st3 st4 st5"> </text>
<text transform="matrix(0.9794 0 0 1 600.7607 244.9126)" class="st3 st4 st5"> </text>
<text transform="matrix(0.9794 0 0 1 633.3848 244.9126)" class="st3 st4">$500.000</text>
<text transform="matrix(0.9794 0 0 1 698.7305 244.9126)" class="st3 st4 st5"> </text>
<text transform="matrix(0.9794 0 0 1 731.2266 244.9126)" class="st3 st4 st5"> </text>
<text transform="matrix(0.9794 0 0 1 763.8506 244.9126)" class="st3 st4">$600.000</text>
<text transform="matrix(0.9794 0 0 1 829.1963 244.9126)" class="st3 st4 st5"> </text>
<text transform="matrix(0.9794 0 0 1 861.7021 244.9126)" class="st3 st4 st5"> </text>
<text transform="matrix(0.9794 0 0 1 894.3164 244.9126)" class="st3 st4">$700.000</text>
<text transform="matrix(0.9794 0 0 1 959.6621 244.9126)" class="st3 st4 st5"> </text>
<text transform="matrix(0.9794 0 0 1 992.168 244.9126)" class="st3 st4 st5"> </text>
<text transform="matrix(0.9794 0 0 1 1024.7822 244.9126)" class="st3 st4">$800.000</text>
<text transform="matrix(0.9794 0 0 1 1090.1279 244.9126)" class="st3 st4 st5"> </text>
<text transform="matrix(0.9794 0 0 1 1122.6338 244.9126)" class="st3 st4 st5"> </text>
<text transform="matrix(0.9794 0 0 1 1155.248 244.9126)" class="st3 st4">$900.000</text>
<text transform="matrix(0.9794 0 0 1 1220.5938 244.9126)" class="st3 st4 st5"> </text>
<text transform="matrix(0.9794 0 0 1 1253.0996 244.9126)" class="st3 st4 st5"> </text>
<text transform="matrix(0.9794 0 0 1 1285.7139 244.9126)" class="st3 st4">$1.000.000 </text>
<text transform="matrix(0.9794 0 0 1 1368.4834 244.9126)" class="st3 st4 st6"> </text>
<text transform="matrix(0.9794 0 0 1 1383.5654 244.9126)" class="st3 st4 st5"> </text>
<text transform="matrix(0.9794 0 0 1 1416.1797 244.9126)" class="st3 st4">   +++</text>
<path class="st7" d="M502.3,149.6h-3.7c-0.6-2.3-1.4-4.2-2.8-6.1l3.2-3.1c0.2-0.2,0.4-0.6,0.4-0.8c0-0.4-0.2-0.6-0.4-0.8l-4.1-4
	c-0.4-0.4-1.2-0.4-1.8,0l-3.2,3.1c-1.8-1.2-3.7-1.9-5.7-2.5v-4c0-0.6-0.6-1.2-1.2-1.2h-5.9c-0.6,0-1.2,0.6-1.2,1.2v3.9
	c-2.2,0.4-4.1,1.3-5.9,2.3l-3.4-3.3c-0.4-0.4-1.2-0.4-1.8,0l-4.1,4c-0.2,0.2-0.4,0.6-0.4,0.8s0.2,0.6,0.4,0.8l3.4,3.3
	c-1.2,1.9-2.2,4-2.8,6.4h-3.8c-0.6,0-1.2,0.6-1.2,1.2v5.8c0,0.6,0.6,1.2,1.2,1.2h3.7c0.3,2,1.3,3.7,2.1,5.4l3-3.6
	c-0.8-1.8-1.3-3.8-1.3-5.9c0-8,6.6-14.5,14.8-14.5s14.8,6.5,14.8,14.5s-6.6,14.5-14.8,14.5c-1.4,0-2.9-0.2-4.2-0.6l-2.9,3.4
	c0.9,0.3,1.9,0.6,2.9,0.8v3.3c0,0.6,0.6,1.2,1.2,1.2h5.9c0.6,0,1.2-0.6,1.2-1.2v-3.7c2.3-0.6,4.3-1.3,6.3-2.7l2.6,2.5
	c0.2,0.2,0.6,0.4,0.8,0.4s0.6-0.2,0.8-0.4l4.1-4c0.2-0.2,0.4-0.6,0.4-0.8c0-0.4-0.2-0.6-0.4-0.8l-2.6-2.5c1.2-1.7,2-3.6,2.3-5.8h3.7
	c0.6,0,1.2-0.6,1.2-1.2v-5.7C503.5,150.2,503.1,149.6,502.3,149.6z"/>
<path class="st7" d="M491.7,152.2c-0.2-1.8-0.8-3.6-2-5.2l-7.2,8.3l-4.7-3.8l7.2-8.2c-1.7-0.7-3.4-1-5.2-0.8
	c-6,0.5-10.5,5.7-10,11.6c0.1,1.2,0.4,2.4,0.9,3.5l0.1,0.1l-17.4,19.9c-0.7,0.8-1.1,2-1,3.1s0.6,2.1,1.5,2.8s2,1.1,3.2,1
	c1.1-0.1,2.2-0.6,2.9-1.5l17.2-19.8l0.2,0.1c1.4,0.5,2.9,0.6,4.4,0.5C487.7,163.3,492.2,158.1,491.7,152.2z M456.9,181.6
	c-0.9,0.1-1.5-0.6-1.6-1.3c-0.1-0.8,0.6-1.5,1.4-1.6c0.9-0.1,1.5,0.6,1.6,1.3C458.3,180.8,457.7,181.5,456.9,181.6z"/>
<rect x="797.5" y="372.7" class="st2" width="92" height="32.3"/>
<text transform="matrix(0.9794 0 0 1 797.5293 388.479)" class="st3 st8">$621.564</text>
<rect x="588.6" y="15.4" class="st2" width="439.9" height="108.7"/>
<text transform="matrix(1 0 0 1 753.1459 31.1224)" class="st9 st8"> ÑUBLE XVl</text>
<text transform="matrix(1 0 0 1 583.4144 81.5223)" class="st9 st8">Población: </text>
<text transform="matrix(1 0 0 1 708.1448 81.5223)" class="st3 st8">480.609 </text>
<text transform="matrix(1 0 0 1 791.8754 81.5223)" class="st9 st8">Superficie:</text>
<text transform="matrix(1 0 0 1 915.5244 81.5223)" class="st3 st8"> 13.178,5 km</text>
<text transform="matrix(1 0 0 1 1006.9227 74.5297)" class="st3 st10">2</text>
<rect x="835.7" y="120.1" class="st11" width="4.5" height="244"/>
<rect x="15" y="172.6" class="st2" width="105.4" height="23.7"/>
<text transform="matrix(0.9794 0 0 1 14.9629 184.4839)" class="st9 st12">MUJERES</text>
<rect x="15" y="294" class="st2" width="96.2" height="26"/>
<text transform="matrix(0.9794 0 0 1 14.9629 305.9282)" class="st9 st12">HOMBRES</text>
<rect x="214" y="56.8" class="st2" width="80.5" height="23.3"/>
<g>
	<g>
		<path class="st13" d="M391.5,290.2h-13.8c-1.7,0-3.2,1.7-3.2,3.8v16.6c0,2.1,1.4,3.8,3.2,3.8h13.8c1.7,0,3.2-1.7,3.2-3.8V294
			C394.7,291.9,393.2,290.2,391.5,290.2z M393.6,310.7c0,1.4-0.9,2.5-2,2.5h-13.8c-1.1,0-2-1.1-2-2.5v-16.6c0-1.4,0.9-2.5,2-2.5
			h13.8c1.1,0,2,1.1,2,2.5V310.7L393.6,310.7z"/>
		<path class="st13" d="M386.9,301.3c1-0.5,1.5-1.2,1.5-2.6c0-1.8-1-3.2-3.6-3.2h-3.9v12.2h4.4c2.6,0,3.7-1.6,3.7-3.4
			C389,302.6,388.2,301.6,386.9,301.3z M382.6,297.3h2.2c1.1,0,1.8,0.3,1.8,1.6c0,1-0.6,1.5-1.8,1.5h-2.2V297.3L382.6,297.3z
			 M385.3,305.7h-2.7v-3.3h2.5c1.4,0,2.2,0.5,2.2,1.6C387.2,305.4,386.5,305.7,385.3,305.7z"/>
		<path class="st13" d="M403.2,288.4c1.7,0,3.2-1.7,3.2-3.8V268c0-2.1-1.4-3.8-3.2-3.8h-13.8c-1.7,0-3.2,1.7-3.2,3.8v16.6
			c0,2.1,1.4,3.8,3.2,3.8H403.2L403.2,288.4z M387.3,284.6V268c0-1.4,0.9-2.5,2-2.5h13.8c1.1,0,2,1.1,2,2.5v16.6
			c0,1.4-0.9,2.5-2,2.5h-13.7C388.2,287.1,387.3,285.9,387.3,284.6z"/>
		<path class="st13" d="M393.7,278.7h5.1l1,2.8h1.8l-4.5-12.2h-1.7l-4.5,12.2h1.8L393.7,278.7z M396.3,271.8l1.8,5h-3.7L396.3,271.8
			z"/>
		<path class="st13" d="M414.9,290.2h-13.8c-1.7,0-3.2,1.7-3.2,3.8v16.6c0,2.1,1.4,3.8,3.2,3.8h13.8c1.7,0,3.2-1.7,3.2-3.8V294
			C418.1,291.9,416.6,290.2,414.9,290.2z M417,310.7c0,1.4-0.9,2.5-2,2.5h-13.8c-1.1,0-2-1.1-2-2.5v-16.6c0-1.4,0.9-2.5,2-2.5H415
			c1.1,0,2,1.1,2,2.5V310.7L417,310.7z"/>
		<path class="st13" d="M408.8,297.1c1.2,0,2,0.5,2.9,1.5l1.1-1.4c-1-1.4-2.4-2.1-3.9-2.1c-3.2,0-5.4,2.7-5.4,6.3
			c0,3.7,2.3,6.3,5.3,6.3c1.5,0,2.8-0.7,3.9-2.1l-1.1-1.4c-1,1.2-1.8,1.5-2.8,1.5c-1.8,0-3.5-1.8-3.5-4.3
			C405.2,298.8,406.8,297.1,408.8,297.1z"/>
	</g>
	<rect x="357.2" y="322" class="st2" width="84.1" height="25.4"/>
	<text transform="matrix(0.9484 0 0 1 357.1855 336.1772)" class="st3 st14">$300.343</text>
</g>
<g>
	<g>
		<path class="st15" d="M215.4,165.8h-13.8c-1.7,0-3.2,1.6-3.2,3.6v15.8c0,2,1.4,3.6,3.2,3.6h13.8c1.7,0,3.2-1.6,3.2-3.6v-15.8
			C218.6,167.5,217.1,165.8,215.4,165.8z M217.5,185.3c0,1.3-0.9,2.3-2.1,2.3h-13.8c-1.1,0-2.1-1.1-2.1-2.3v-15.9
			c0-1.3,0.9-2.4,2.1-2.4h13.8c1.1,0,2.1,1.1,2.1,2.4V185.3L217.5,185.3z"/>
		<path class="st15" d="M210.8,176.3c1-0.5,1.5-1.1,1.5-2.5c0-1.7-1-3.1-3.6-3.1h-4v11.6h4.4c2.6,0,3.7-1.5,3.7-3.2
			C212.9,177.6,212,176.6,210.8,176.3z M206.5,172.5h2.2c1.1,0,1.8,0.3,1.8,1.6c0,1-0.6,1.4-1.9,1.4h-2.2L206.5,172.5L206.5,172.5z
			 M209.2,180.5h-2.7v-3.2h2.5c1.4,0,2.2,0.5,2.2,1.5C211.1,180.2,210.3,180.5,209.2,180.5z"/>
		<path class="st15" d="M227.1,164.1c1.7,0,3.2-1.6,3.2-3.6v-15.8c0-2-1.4-3.6-3.2-3.6h-13.8c-1.7,0-3.2,1.6-3.2,3.6v15.7
			c0,2,1.4,3.6,3.2,3.6L227.1,164.1L227.1,164.1z M211.2,160.4v-15.8c0-1.3,0.9-2.4,2.1-2.4h13.8c1.1,0,2.1,1.1,2.1,2.4v15.8
			c0,1.3-0.9,2.4-2.1,2.4h-13.8C212.1,162.8,211.2,161.7,211.2,160.4z"/>
		<path class="st15" d="M217.6,154.9h5.1l1,2.6h1.8l-4.5-11.6h-1.8l-4.5,11.6h1.8L217.6,154.9z M220.2,148.3l1.8,4.8h-3.7
			L220.2,148.3z"/>
		<path class="st15" d="M238.9,165.8h-13.8c-1.7,0-3.2,1.6-3.2,3.6v15.8c0,2,1.4,3.6,3.2,3.6h13.8c1.7,0,3.2-1.6,3.2-3.6v-15.8
			C242,167.5,240.6,165.8,238.9,165.8z M240.9,185.3c0,1.3-0.9,2.3-2.1,2.3H225c-1.1,0-2.1-1.1-2.1-2.3v-15.9c0-1.3,0.9-2.4,2.1-2.4
			h13.8c1.1,0,2.1,1.1,2.1,2.4L240.9,185.3L240.9,185.3z"/>
		<path class="st15" d="M232.8,172.4c1.2,0,2,0.4,2.9,1.4l1.1-1.4c-1-1.3-2.4-2-3.9-2c-3.2,0-5.5,2.6-5.5,6c0,3.5,2.3,6,5.3,6
			c1.5,0,2.8-0.7,3.9-2l-1.1-1.3c-1,1.1-1.8,1.4-2.9,1.4c-1.8,0-3.5-1.7-3.5-4.1C229.1,174,230.8,172.4,232.8,172.4z"/>
	</g>
	<rect x="175.4" y="195.4" class="st2" width="93.1" height="18.8"/>
	<text transform="matrix(1.0255 0 0 1 175.4336 208.9233)" class="st3 st16">$172.607</text>
</g>
<g>
	<path class="st17" d="M497.5,301.4c-0.6-0.4-1.3-0.6-2.1-0.5c-0.4,0-0.8,0.2-1.1,0.4l3.6,1.8c-1.1,1.6-2,3.3-2.9,5.1
		c-0.6,1.2-1.1,2.6-1.5,4c-0.3,1.1-0.5,2.3-0.4,3.5c1.7-0.5,3.5-2.9,4.7-5.8c0.8-1.8,1.2-3.9,1.2-6.1
		C498.9,302.7,498.3,301.8,497.5,301.4z"/>
	<path class="st17" d="M473.3,278.2v7.4l19.9,9.1l0,0c1.5,0,3-0.1,4.5-0.3c3.9-0.7,6.4-2.1,6.4-3.6v-12.2l-12.2,5.3L473.3,278.2z"/>
	<polygon class="st17" points="487.4,262.8 461.1,272.1 473.3,275.8 491.9,281.4 504.2,276.1 517.7,270.2 	"/>
	<path class="st17" d="M491.4,313.1c0-0.2,0-0.3,0.1-0.5s0.1-0.4,0.1-0.6v-0.1c0.5-1.7,1-3.3,1.8-4.8c0.4-1,0.9-1.9,1.5-2.8v-0.1
		l-2.4-1.2c-0.6,0.8-1,1.6-1.4,2.6c-0.5,1.2-1,2.4-1.3,3.7l-28.1-16l-0.2,1c-0.2,1.5-0.2,3,0.6,3.5l29.6,18
		C491.3,315.1,491.2,314.2,491.4,313.1z"/>
	<path class="st17" d="M489.5,304.3c1.7-4.1,4.6-6.5,6.9-5.7h-0.1l-31-14.2c-1.2-0.6-2.8,1-3.7,3.8c-0.2,0.6-0.4,1.3-0.5,1.9
		l27.8,15.8C489.1,305.4,489.3,304.9,489.5,304.3z"/>
	<rect x="450.5" y="322.1" class="st2" width="100" height="21"/>
	<text transform="matrix(1.0255 0 0 1 450.5234 335.5874)" class="st3 st16">$381.391</text>
</g>
<rect x="427.8" y="194.6" class="st2" width="103.7" height="22.3"/>
<text transform="matrix(1.0255 0 0 1 427.8105 208.1411)" class="st3 st16">$362.963</text>
<g>
	<path class="st18" d="M633.3,279.4h-3.7c-0.6-2.3-1.4-4.2-2.8-6.2l3.2-3.1c0.2-0.2,0.4-0.6,0.4-0.8c0-0.4-0.2-0.6-0.4-0.8l-4.1-4
		c-0.4-0.4-1.2-0.4-1.8,0l-3.2,3.1c-1.8-1.2-3.7-1.9-5.7-2.5v-4c0-0.6-0.6-1.2-1.2-1.2h-5.9c-0.6,0-1.2,0.6-1.2,1.2v3.9
		c-2.2,0.4-4.1,1.3-5.9,2.3l-3.4-3.3c-0.4-0.4-1.2-0.4-1.8,0l-4.1,4c-0.2,0.2-0.4,0.6-0.4,0.8c0,0.2,0.2,0.6,0.4,0.8l3.4,3.3
		c-1.2,1.9-2.2,4-2.8,6.4h-3.8c-0.6,0-1.2,0.6-1.2,1.2v5.8c0,0.6,0.6,1.2,1.2,1.2h3.7c0.3,2,1.3,3.7,2.1,5.4l3-3.6
		c-0.8-1.8-1.3-3.8-1.3-5.9c0-8,6.6-14.5,14.8-14.5s14.8,6.5,14.8,14.5s-6.6,14.5-14.8,14.5c-1.4,0-2.9-0.2-4.2-0.6l-2.9,3.3
		c0.9,0.3,1.9,0.6,2.9,0.8v3.3c0,0.6,0.6,1.2,1.2,1.2h5.9c0.6,0,1.2-0.6,1.2-1.2v-3.5c2.3-0.6,4.3-1.3,6.3-2.7l2.6,2.5
		c0.2,0.2,0.6,0.4,0.8,0.4s0.6-0.2,0.8-0.4l4.1-4c0.2-0.2,0.4-0.6,0.4-0.8c0-0.4-0.2-0.6-0.4-0.8l-2.6-2.5c1.2-1.7,2-3.6,2.3-5.8
		h3.7c0.6,0,1.2-0.6,1.2-1.2v-5.8C634.5,280,634.1,279.4,633.3,279.4z"/>
	<path class="st18" d="M622.6,282c-0.2-1.8-0.8-3.6-2-5.2l-7.2,8.3l-4.7-3.8l7.2-8.2c-1.7-0.7-3.4-1-5.2-0.8
		c-6,0.5-10.5,5.7-10,11.6c0.1,1.2,0.4,2.3,0.9,3.5l0.1,0.1l-17.4,20.1c-0.7,0.8-1.1,2-1,3.1s0.6,2.1,1.5,2.8s2,1.1,3.2,1
		c1.1-0.1,2.2-0.6,2.9-1.5l17.2-19.8l0.2,0.1c1.4,0.5,2.9,0.6,4.4,0.5C618.6,293.2,623.1,288,622.6,282z M587.8,311.4
		c-0.9,0.1-1.5-0.6-1.6-1.3c-0.1-0.8,0.6-1.5,1.4-1.6c0.9-0.1,1.5,0.6,1.6,1.3C589.3,310.6,588.7,311.4,587.8,311.4z"/>
	<rect x="566.5" y="323.5" class="st2" width="86.8" height="19.6"/>
	<text transform="matrix(1.0255 0 0 1 566.5234 336.9741)" class="st3 st16">$465.172</text>
</g>
<g>
	<g>
		<path d="M1011,136.2c-0.5,0.6-1.2,1.4-2.1,2.4c-3.8-3.6-7.5-4.1-10.3-4.5c-8,13-17,20.6-28.8,28.7c-0.3,0-0.7,0.2-1.1,0.4
			c-2.1,1.4-3,3.8-3.5,6.7c-1.2,6.7,0.9,14.8,7.2,16.2c3.7,0.8,6.1,0.2,7.7-1.8c1.2-1.4,6.5-7.5,13.3-14.6
			c7.7-7.9,17-15.4,20.8-18.6c3.5-3,2.8-7.7,0.3-11.3c-0.9-1.4-2.1-2.6-3.3-3.4L1011,136.2z M981.8,178.9c0.5-3.6,0.3-10.3,0.2-12.5
			c0.9-0.4,2.6-1.6,5.8-4c8.9-6.7,16.1-14.6,23.4-23.3c2.6,2.4,4.9,7.3,1.8,10.1c-3.7,3-13.5,10.9-21,18.6
			C987.9,172.2,984.3,176.1,981.8,178.9z M978.5,182.6c-1.1,1.4-2.8,1.8-5.6,1.2c-5.8-1.4-7-9.5-5.4-15.2c1.6-5.5,6.5-4.7,8-0.8
			l-6.3,6.3c0.2,0.6,0.5,4.6,3.7,5.5c2.3,0.8,4.2-1.6,4.9-4.4c0.3-1.8,0.5-4,0-6.5c-0.3-3-2.1-5.1-4.4-6.1
			c11-7.7,18.5-14.2,26.1-26.1c3.2,0.6,5.2,1.4,7.9,3.6c-7.3,8.5-22.4,24.5-27.4,24.5c0,1.2,0.5,11.3-0.2,14.8
			C979.5,180.7,979.2,181.8,978.5,182.6z M976,170.4c0.2,2.2,0,4.9-1.2,6.3c-1.2,1.8-2.8,0-3.3-1.8L976,170.4z"/>
		<path d="M1008.7,177.7c0,0-1.2-4.1-3.3-7.1s-6.1-4.7-6.1-4.7s2.6,3.2,3.7,7.7c1.2,4.5,1.4,6.5,1.4,6.5l-2.4-1.4l-1.9,4
			c0,0,0.9-5.3-1.2-10.1c-1.9-4.7-3.3-6.1-3.3-6.1c0.5-8.5-3.2-13-10.7-13.6l5.6-5.7c6.6-0.2,10.5,7.9,9.8,14.8
			c5.1,3.2,9.8,7.7,14,12.1l-3.8,0.8L1008.7,177.7z"/>
	</g>
	<rect x="950.1" y="191.2" class="st2" width="92.4" height="17.8"/>
	<text transform="matrix(1.0255 0 0 1 950.1484 204.7417)" class="st3 st16">$767.062</text>
</g>
<g>
	<g>
		<path d="M1254.8,268.9c-0.5,0.6-1.2,1.4-2.1,2.4c-3.8-3.6-7.5-4.2-10.3-4.5c-8,13-17,20.6-28.8,28.7c-0.3,0-0.7,0.2-1.1,0.4
			c-2.1,1.4-3,3.8-3.5,6.7c-1.2,6.7,0.9,14.8,7.2,16.2c3.7,0.8,6.1,0.2,7.7-1.8c1.2-1.4,6.5-7.5,13.3-14.6
			c7.7-7.9,17-15.4,20.8-18.6c3.5-3,2.8-7.7,0.3-11.3c-0.9-1.4-2.1-2.6-3.3-3.4L1254.8,268.9z M1225.6,311.6
			c0.5-3.6,0.3-10.3,0.2-12.5c0.9-0.4,2.6-1.6,5.8-4c8.9-6.7,16.1-14.6,23.4-23.3c2.6,2.4,4.9,7.3,1.8,10.1
			c-3.7,3-13.5,10.9-21,18.6C1231.8,304.9,1228.1,308.8,1225.6,311.6z M1222.3,315.3c-1.1,1.4-2.8,1.8-5.6,1.2
			c-5.8-1.4-7-9.5-5.4-15.2c1.6-5.5,6.5-4.7,8-0.8l-6.3,6.3c0.2,0.6,0.5,4.5,3.7,5.5c2.3,0.8,4.2-1.6,4.9-4.3c0.3-1.8,0.5-4,0-6.5
			c-0.3-3-2.1-5.1-4.4-6.1c11-7.7,18.5-14.2,26.1-26.1c3.2,0.6,5.2,1.4,7.9,3.6c-7.3,8.5-22.4,24.5-27.4,24.5
			c0,1.2,0.5,11.3-0.2,14.8C1223.4,313.4,1223,314.5,1222.3,315.3z M1219.9,303.1c0.2,2.2,0,4.9-1.2,6.3c-1.2,1.8-2.8,0-3.3-1.8
			L1219.9,303.1z"/>
		<path d="M1252.6,310.4c0,0-1.2-4.2-3.3-7.1s-6.1-4.7-6.1-4.7s2.6,3.2,3.7,7.7c1.2,4.5,1.4,6.5,1.4,6.5l-2.4-1.4l-1.9,4
			c0,0,0.9-5.3-1.2-10.1c-1.9-4.7-3.3-6.1-3.3-6.1c0.5-8.5-3.2-13-10.7-13.6l5.6-5.7c6.6-0.2,10.5,7.9,9.8,14.8
			c5.1,3.2,9.8,7.7,14,12.1l-3.8,0.8L1252.6,310.4z"/>
	</g>
	<rect x="1187.5" y="327" class="st2" width="109" height="19.1"/>
	<text transform="matrix(1.0255 0 0 1 1187.5234 340.4487)" class="st3 st16">$934.793</text>
</g>
<g>
	<rect x="289" y="195.1" class="st2" width="99.6" height="21.9"/>
	<text transform="matrix(1.0255 0 0 1 288.9619 208.606)" class="st3 st16">$251.854</text>
	<path class="st17" d="M346.5,175.8c-0.6-0.4-1.3-0.6-2.1-0.5c-0.4,0-0.8,0.2-1.1,0.4l3.6,1.9c-1.1,1.6-2,3.3-2.9,5.1
		c-0.6,1.2-1.1,2.6-1.5,4c-0.3,1.1-0.5,2.3-0.4,3.5c1.7-0.5,3.5-2.9,4.7-5.8c0.8-1.8,1.2-3.9,1.2-6.1
		C347.8,177.2,347.2,176.3,346.5,175.8z"/>
	<path class="st17" d="M322.3,152.6v7.4l19.9,9.1l0,0c1.5,0,3-0.1,4.5-0.3c3.9-0.7,6.4-2.1,6.4-3.6V153l-12.2,5.3L322.3,152.6z"/>
	<polygon class="st17" points="336.4,137.3 310,146.5 322.3,150.2 340.8,155.8 353.1,150.5 366.6,144.6 	"/>
	<path class="st17" d="M340.3,187.5c0-0.2,0-0.3,0.1-0.5s0.1-0.4,0.1-0.6v-0.1c0.5-1.7,1-3.3,1.8-4.8c0.4-1,0.9-1.9,1.5-2.8v-0.1
		l-2.4-1.2c-0.6,0.8-1,1.6-1.4,2.6c-0.5,1.2-1,2.4-1.3,3.7l-28.1-16l-0.2,1c-0.2,1.5-0.2,3,0.6,3.5l29.6,18
		C340.3,189.6,340.2,188.7,340.3,187.5z"/>
	<path class="st17" d="M338.4,178.8c1.7-4.1,4.6-6.5,6.9-5.7h-0.1L314.3,159c-1.2-0.6-2.8,1-3.7,3.8c-0.2,0.6-0.4,1.3-0.5,1.9
		l27.8,15.8C338,179.9,338.2,179.3,338.4,178.8z"/>
</g>
</svg>
