<?xml version="1.0" encoding="utf-8"?>
<!-- Generator: Adobe Illustrator 24.2.3, SVG Export Plug-In . SVG Version: 6.00 Build 0)  -->
<svg version="1.1" id="Capa_1" xmlns="http://www.w3.org/2000/svg" xmlns:xlink="http://www.w3.org/1999/xlink" x="0px" y="0px"
	 viewBox="0 0 1495.5 408.4" style="enable-background:new 0 0 1495.5 408.4;" xml:space="preserve">
<style type="text/css">
	.st0{fill:#DCF4F3;fill-opacity:0.8;stroke:#416190;stroke-width:5;stroke-miterlimit:5.83;}
	.st1{fill:none;stroke:#000000;stroke-width:3.0401;stroke-miterlimit:10;}
	.st2{fill:none;}
	.st3{font-family:'Optima-Bold';}
	.st4{font-size:16px;}
	.st5{letter-spacing:27.6;}
	.st6{letter-spacing:9.2;}
	.st7{fill:#FF0000;}
	.st8{font-size:21px;}
	.st9{font-family:'Verdana-Bold';}
	.st10{font-family:'Optima-Regular';}
	.st11{font-size:12.243px;}
	.st12{fill:#FCEE21;}
	.st13{font-size:16.6514px;}
	.st14{fill:#FF0000;stroke:#FF0000;stroke-width:1.3664;stroke-miterlimit:10;}
	.st15{font-size:18.9273px;}
	.st16{fill:#FF0000;stroke:#FF0000;stroke-width:1.3343;stroke-miterlimit:10;}
	.st17{font-size:18px;}
	.st18{fill:#FF0000;stroke:#FF0000;stroke-width:0.2169;stroke-miterlimit:10;}
	.st19{fill:#FF0000;stroke:#FF0000;stroke-width:0.1414;stroke-miterlimit:10;}
	.st20{fill-rule:evenodd;clip-rule:evenodd;}
</style>
<rect y="3.2" class="st0" width="1495.5" height="405.2"/>
<rect x="95.2" y="229.1" class="st1" width="1385.4" height="21.3"/>
<rect x="109.1" y="233.5" class="st2" width="1371.8" height="36.8"/>
<text transform="matrix(0.9794 0 0 1 109.1088 245.5537)" class="st3 st4">$100.000</text>
<text transform="matrix(0.9794 0 0 1 174.4535 245.5537)" class="st3 st4 st5"> </text>
<text transform="matrix(0.9794 0 0 1 206.9604 245.5537)" class="st3 st4 st5"> </text>
<text transform="matrix(0.9794 0 0 1 239.5746 245.5537)" class="st3 st4">$200.000</text>
<text transform="matrix(0.9794 0 0 1 304.9193 245.5537)" class="st3 st4 st5"> </text>
<text transform="matrix(0.9794 0 0 1 337.4262 245.5537)" class="st3 st4 st5"> </text>
<text transform="matrix(0.9794 0 0 1 370.0404 245.5537)" class="st3 st4">$300.000</text>
<text transform="matrix(0.9794 0 0 1 435.3861 245.5537)" class="st3 st4 st5"> </text>
<text transform="matrix(0.9794 0 0 1 467.892 245.5537)" class="st3 st4 st5"> </text>
<text transform="matrix(0.9794 0 0 1 500.5063 245.5537)" class="st3 st4">$400.000</text>
<text transform="matrix(0.9794 0 0 1 565.8519 245.5537)" class="st3 st4 st5"> </text>
<text transform="matrix(0.9794 0 0 1 598.3578 245.5537)" class="st3 st4 st5"> </text>
<text transform="matrix(0.9794 0 0 1 630.9818 245.5537)" class="st3 st4">$500.000</text>
<text transform="matrix(0.9794 0 0 1 696.3275 245.5537)" class="st3 st4 st5"> </text>
<text transform="matrix(0.9794 0 0 1 728.8236 245.5537)" class="st3 st4 st5"> </text>
<text transform="matrix(0.9794 0 0 1 761.4476 245.5537)" class="st3 st4">$600.000</text>
<text transform="matrix(0.9794 0 0 1 826.7933 245.5537)" class="st3 st4 st5"> </text>
<text transform="matrix(0.9794 0 0 1 859.2992 245.5537)" class="st3 st4 st5"> </text>
<text transform="matrix(0.9794 0 0 1 891.9135 245.5537)" class="st3 st4">$700.000</text>
<text transform="matrix(0.9794 0 0 1 957.2592 245.5537)" class="st3 st4 st5"> </text>
<text transform="matrix(0.9794 0 0 1 989.765 245.5537)" class="st3 st4 st5"> </text>
<text transform="matrix(0.9794 0 0 1 1022.3793 245.5537)" class="st3 st4">$800.000</text>
<text transform="matrix(0.9794 0 0 1 1087.725 245.5537)" class="st3 st4 st5"> </text>
<text transform="matrix(0.9794 0 0 1 1120.2308 245.5537)" class="st3 st4 st5"> </text>
<text transform="matrix(0.9794 0 0 1 1152.8451 245.5537)" class="st3 st4">$900.000</text>
<text transform="matrix(0.9794 0 0 1 1218.1908 245.5537)" class="st3 st4 st5"> </text>
<text transform="matrix(0.9794 0 0 1 1250.6967 245.5537)" class="st3 st4 st5"> </text>
<text transform="matrix(0.9794 0 0 1 1283.3109 245.5537)" class="st3 st4">$1.000.000 </text>
<text transform="matrix(0.9794 0 0 1 1366.0804 245.5537)" class="st3 st4 st6"> </text>
<text transform="matrix(0.9794 0 0 1 1381.1625 245.5537)" class="st3 st4 st5"> </text>
<text transform="matrix(0.9794 0 0 1 1413.7767 245.5537)" class="st3 st4">   +++</text>
<path class="st7" d="M499.9,150.2h-3.7c-0.6-2.3-1.4-4.2-2.8-6.1l3.2-3.1c0.2-0.2,0.4-0.6,0.4-0.8c0-0.4-0.2-0.6-0.4-0.8l-4.1-4
	c-0.4-0.4-1.2-0.4-1.8,0l-3.2,3.1c-1.8-1.2-3.7-1.9-5.7-2.5v-4c0-0.6-0.6-1.2-1.2-1.2h-5.9c-0.6,0-1.2,0.6-1.2,1.2v3.9
	c-2.2,0.4-4.1,1.3-5.9,2.3l-3.4-3.3c-0.4-0.4-1.2-0.4-1.8,0l-4.1,4c-0.2,0.2-0.4,0.6-0.4,0.8c0,0.2,0.2,0.6,0.4,0.8l3.4,3.3
	c-1.2,1.9-2.2,4-2.8,6.4h-3.8c-0.6,0-1.2,0.6-1.2,1.2v5.8c0,0.6,0.6,1.2,1.2,1.2h3.7c0.3,2,1.3,3.7,2.1,5.4l3-3.6
	c-0.8-1.8-1.3-3.8-1.3-5.9c0-8,6.6-14.5,14.8-14.5s14.8,6.5,14.8,14.5s-6.6,14.5-14.8,14.5c-1.4,0-2.9-0.2-4.2-0.6l-2.9,3.4
	c0.9,0.3,1.9,0.6,2.9,0.8v3.3c0,0.6,0.6,1.2,1.2,1.2h5.9c0.6,0,1.2-0.6,1.2-1.2V172c2.3-0.6,4.3-1.3,6.3-2.7l2.6,2.5
	c0.2,0.2,0.6,0.4,0.8,0.4s0.6-0.2,0.8-0.4l4.1-4c0.2-0.2,0.4-0.6,0.4-0.8c0-0.4-0.2-0.6-0.4-0.8l-2.6-2.5c1.2-1.7,2-3.6,2.3-5.8h3.7
	c0.6,0,1.2-0.6,1.2-1.2V151C501.1,150.8,500.7,150.2,499.9,150.2z"/>
<path class="st7" d="M489.3,152.8c-0.2-1.8-0.8-3.6-2-5.2l-7.2,8.3l-4.7-3.8l7.2-8.2c-1.7-0.7-3.4-1-5.2-0.8
	c-6,0.5-10.5,5.7-10,11.6c0.1,1.2,0.4,2.4,0.9,3.5l0.1,0.1L451,178.2c-0.7,0.8-1.1,2-1,3.1c0.1,1.1,0.6,2.1,1.5,2.8s2,1.1,3.2,1
	c1.1-0.1,2.2-0.6,2.9-1.5l17.2-19.8l0.2,0.1c1.4,0.5,2.9,0.6,4.4,0.5C485.3,163.9,489.8,158.7,489.3,152.8z M454.5,182.2
	c-0.9,0.1-1.5-0.6-1.6-1.3c-0.1-0.8,0.6-1.5,1.4-1.6c0.9-0.1,1.5,0.6,1.6,1.3C455.9,181.4,455.3,182.1,454.5,182.2z"/>
<rect x="795.1" y="373.3" class="st2" width="92" height="32.3"/>
<text transform="matrix(0.9794 0 0 1 795.1263 389.1201)" class="st3 st8">$621.564</text>
<rect x="586.2" y="16" class="st2" width="439.9" height="108.7"/>
<text transform="matrix(1 0 0 1 750.7422 31.7636)" class="st9 st8"> ÑUBLE XVl</text>
<text transform="matrix(1 0 0 1 581.0107 82.1635)" class="st9 st8">Población: </text>
<text transform="matrix(1 0 0 1 705.7411 82.1635)" class="st10 st8">480.609 </text>
<text transform="matrix(1 0 0 1 789.4717 82.1635)" class="st9 st8">Superficie:</text>
<text transform="matrix(1 0 0 1 913.1206 82.1635)" class="st10 st8"> 13.178,5 km</text>
<text transform="matrix(1 0 0 1 1004.5189 75.1709)" class="st10 st11">2</text>
<rect x="833.3" y="120.7" class="st12" width="4.5" height="244"/>
<rect x="12.6" y="173.2" class="st2" width="105.4" height="23.7"/>
<text transform="matrix(0.9794 0 0 1 12.559 185.125)" class="st9 st13">MUJERES</text>
<rect x="12.6" y="294.6" class="st2" width="96.2" height="26"/>
<text transform="matrix(0.9794 0 0 1 12.559 306.5694)" class="st9 st13">HOMBRES</text>
<rect x="211.6" y="57.4" class="st2" width="80.5" height="23.3"/>
<g>
	<g>
		<path class="st14" d="M389.1,290.8h-13.8c-1.7,0-3.2,1.7-3.2,3.8v16.6c0,2.1,1.4,3.8,3.2,3.8h13.8c1.7,0,3.2-1.7,3.2-3.8v-16.6
			C392.3,292.5,390.8,290.8,389.1,290.8z M391.2,311.3c0,1.4-0.9,2.5-2,2.5h-13.8c-1.1,0-2-1.1-2-2.5v-16.6c0-1.4,0.9-2.5,2-2.5
			h13.8c1.1,0,2,1.1,2,2.5V311.3L391.2,311.3z"/>
		<path class="st14" d="M384.5,301.9c1-0.5,1.5-1.2,1.5-2.6c0-1.8-1-3.2-3.6-3.2h-3.9v12.2h4.4c2.6,0,3.7-1.6,3.7-3.4
			C386.6,303.2,385.8,302.2,384.5,301.9z M380.2,297.9h2.2c1.1,0,1.8,0.3,1.8,1.6c0,1-0.6,1.5-1.8,1.5h-2.2L380.2,297.9L380.2,297.9
			z M382.9,306.3h-2.7V303h2.5c1.4,0,2.2,0.5,2.2,1.6C384.8,306,384.1,306.3,382.9,306.3z"/>
		<path class="st14" d="M400.8,289c1.7,0,3.2-1.7,3.2-3.8v-16.6c0-2.1-1.4-3.8-3.2-3.8H387c-1.7,0-3.2,1.7-3.2,3.8v16.6
			c0,2.1,1.4,3.8,3.2,3.8H400.8L400.8,289z M384.9,285.2v-16.6c0-1.4,0.9-2.5,2-2.5h13.8c1.1,0,2,1.1,2,2.5v16.6
			c0,1.4-0.9,2.5-2,2.5H387C385.8,287.7,384.9,286.5,384.9,285.2z"/>
		<path class="st14" d="M391.3,279.3h5.1l1,2.8h1.8l-4.5-12.2H393l-4.5,12.2h1.8L391.3,279.3z M393.9,272.4l1.8,5H392L393.9,272.4z"
			/>
		<path class="st14" d="M412.5,290.8h-13.8c-1.7,0-3.2,1.7-3.2,3.8v16.6c0,2.1,1.4,3.8,3.2,3.8h13.8c1.7,0,3.2-1.7,3.2-3.8v-16.6
			C415.7,292.5,414.2,290.8,412.5,290.8z M414.6,311.3c0,1.4-0.9,2.5-2,2.5h-13.8c-1.1,0-2-1.1-2-2.5v-16.6c0-1.4,0.9-2.5,2-2.5
			h13.8c1.1,0,2,1.1,2,2.5V311.3L414.6,311.3z"/>
		<path class="st14" d="M406.4,297.7c1.2,0,2,0.5,2.9,1.5l1.1-1.4c-1-1.4-2.4-2.1-3.9-2.1c-3.2,0-5.4,2.7-5.4,6.3
			c0,3.7,2.3,6.3,5.3,6.3c1.5,0,2.8-0.7,3.9-2.1l-1.1-1.4c-1,1.2-1.8,1.5-2.8,1.5c-1.8,0-3.5-1.8-3.5-4.3
			C402.8,299.4,404.4,297.7,406.4,297.7z"/>
	</g>
	<rect x="354.8" y="322.6" class="st2" width="84.1" height="25.4"/>
	<text transform="matrix(0.9484 0 0 1 354.7816 336.8184)" class="st3 st15">$300.343</text>
</g>
<g>
	<g>
		<path class="st16" d="M213,166.4h-13.8c-1.7,0-3.2,1.6-3.2,3.6v15.8c0,2,1.4,3.6,3.2,3.6H213c1.7,0,3.2-1.6,3.2-3.6V170
			C216.2,168.1,214.7,166.4,213,166.4z M215.1,185.9c0,1.3-0.9,2.3-2.1,2.3h-13.8c-1.1,0-2.1-1.1-2.1-2.3V170c0-1.3,0.9-2.4,2.1-2.4
			H213c1.1,0,2.1,1.1,2.1,2.4V185.9L215.1,185.9z"/>
		<path class="st16" d="M208.4,176.9c1-0.5,1.5-1.1,1.5-2.5c0-1.7-1-3.1-3.6-3.1h-4v11.6h4.4c2.6,0,3.7-1.5,3.7-3.2
			C210.5,178.2,209.6,177.2,208.4,176.9z M204.1,173.1h2.2c1.1,0,1.8,0.3,1.8,1.6c0,1-0.6,1.4-1.9,1.4h-2.2L204.1,173.1L204.1,173.1
			z M206.8,181.1h-2.7v-3.2h2.5c1.4,0,2.2,0.5,2.2,1.5C208.7,180.8,207.9,181.1,206.8,181.1z"/>
		<path class="st16" d="M224.7,164.7c1.7,0,3.2-1.6,3.2-3.6v-15.8c0-2-1.4-3.6-3.2-3.6h-13.8c-1.7,0-3.2,1.6-3.2,3.6V161
			c0,2,1.4,3.6,3.2,3.6H224.7L224.7,164.7z M208.8,161v-15.8c0-1.3,0.9-2.4,2.1-2.4h13.8c1.1,0,2.1,1.1,2.1,2.4V161
			c0,1.3-0.9,2.4-2.1,2.4h-13.8C209.7,163.4,208.8,162.3,208.8,161z"/>
		<path class="st16" d="M215.2,155.5h5.1l1,2.6h1.8l-4.5-11.6h-1.8l-4.5,11.6h1.8L215.2,155.5z M217.8,148.9l1.8,4.8h-3.7
			L217.8,148.9z"/>
		<path class="st16" d="M236.5,166.4h-13.8c-1.7,0-3.2,1.6-3.2,3.6v15.8c0,2,1.4,3.6,3.2,3.6h13.8c1.7,0,3.2-1.6,3.2-3.6V170
			C239.6,168.1,238.2,166.4,236.5,166.4z M238.5,185.9c0,1.3-0.9,2.3-2.1,2.3h-13.8c-1.1,0-2.1-1.1-2.1-2.3V170
			c0-1.3,0.9-2.4,2.1-2.4h13.8c1.1,0,2.1,1.1,2.1,2.4V185.9L238.5,185.9z"/>
		<path class="st16" d="M230.4,173c1.2,0,2,0.4,2.9,1.4l1.1-1.4c-1-1.3-2.4-2-3.9-2c-3.2,0-5.5,2.6-5.5,6c0,3.5,2.3,6,5.3,6
			c1.5,0,2.8-0.7,3.9-2l-1.1-1.3c-1,1.1-1.8,1.4-2.9,1.4c-1.8,0-3.5-1.7-3.5-4.1C226.7,174.6,228.4,173,230.4,173z"/>
	</g>
	<rect x="173" y="196" class="st2" width="93.1" height="18.8"/>
	<text transform="matrix(1.0255 0 0 1 173.0297 209.5645)" class="st3 st17">$172.607</text>
</g>
<g>
	<path class="st18" d="M495.1,302c-0.6-0.4-1.3-0.6-2.1-0.5c-0.4,0-0.8,0.2-1.1,0.4l3.6,1.8c-1.1,1.6-2,3.3-2.9,5.1
		c-0.6,1.2-1.1,2.6-1.5,4c-0.3,1.1-0.5,2.3-0.4,3.5c1.7-0.5,3.5-2.9,4.7-5.8c0.8-1.8,1.2-3.9,1.2-6.1
		C496.5,303.3,495.9,302.4,495.1,302z"/>
	<path class="st18" d="M470.9,278.8v7.4l19.9,9.1h0c1.5,0,3-0.1,4.5-0.3c3.9-0.7,6.4-2.1,6.4-3.6v-12.2l-12.2,5.3L470.9,278.8z"/>
	<polygon class="st18" points="485,263.4 458.7,272.7 470.9,276.4 489.5,282 501.8,276.7 515.3,270.8 	"/>
	<path class="st18" d="M489,313.7c0-0.2,0-0.3,0.1-0.5s0.1-0.4,0.1-0.6l0-0.1c0.5-1.7,1-3.3,1.8-4.8c0.4-1,0.9-1.9,1.5-2.8
		c0,0,0-0.1,0-0.1l-2.4-1.2c-0.6,0.8-1,1.6-1.4,2.6c-0.5,1.2-1,2.4-1.3,3.7l-28.1-16l-0.2,1c-0.2,1.5-0.2,3,0.6,3.5l29.6,18
		C488.9,315.7,488.8,314.8,489,313.7z"/>
	<path class="st18" d="M487.1,304.9c1.7-4.1,4.6-6.5,6.9-5.7l-0.1,0L462.9,285c-1.2-0.6-2.8,1-3.7,3.8c-0.2,0.6-0.4,1.3-0.5,1.9
		l27.8,15.8C486.7,306,486.9,305.5,487.1,304.9z"/>
	<rect x="448.1" y="322.7" class="st2" width="100" height="21"/>
	<text transform="matrix(1.0255 0 0 1 448.1205 336.2285)" class="st3 st17">$381.391</text>
</g>
<rect x="425.4" y="195.2" class="st2" width="103.7" height="22.3"/>
<text transform="matrix(1.0255 0 0 1 425.4076 208.7823)" class="st3 st17">$362.963</text>
<g>
	<path class="st19" d="M630.9,280h-3.7c-0.6-2.3-1.4-4.2-2.8-6.2l3.2-3.1c0.2-0.2,0.4-0.6,0.4-0.8c0-0.4-0.2-0.6-0.4-0.8l-4.1-4
		c-0.4-0.4-1.2-0.4-1.8,0l-3.2,3.1c-1.8-1.2-3.7-1.9-5.7-2.5v-4c0-0.6-0.6-1.2-1.2-1.2h-5.9c-0.6,0-1.2,0.6-1.2,1.2v3.9
		c-2.2,0.4-4.1,1.3-5.9,2.3l-3.4-3.3c-0.4-0.4-1.2-0.4-1.8,0l-4.1,4c-0.2,0.2-0.4,0.6-0.4,0.8c0,0.2,0.2,0.6,0.4,0.8l3.4,3.3
		c-1.2,1.9-2.2,4-2.8,6.4h-3.8c-0.6,0-1.2,0.6-1.2,1.2v5.8c0,0.6,0.6,1.2,1.2,1.2h3.7c0.3,2,1.3,3.7,2.1,5.4l3-3.6
		c-0.8-1.8-1.3-3.8-1.3-5.9c0-8,6.6-14.5,14.8-14.5s14.8,6.5,14.8,14.5s-6.6,14.5-14.8,14.5c-1.4,0-2.9-0.2-4.2-0.6l-2.9,3.3
		c0.9,0.3,1.9,0.6,2.9,0.8v3.3c0,0.6,0.6,1.2,1.2,1.2h5.9c0.6,0,1.2-0.6,1.2-1.2v-3.5c2.3-0.6,4.3-1.3,6.3-2.7l2.6,2.5
		c0.2,0.2,0.6,0.4,0.8,0.4s0.6-0.2,0.8-0.4l4.1-4c0.2-0.2,0.4-0.6,0.4-0.8c0-0.4-0.2-0.6-0.4-0.8l-2.6-2.5c1.2-1.7,2-3.6,2.3-5.8
		h3.7c0.6,0,1.2-0.6,1.2-1.2v-5.8C632.1,280.6,631.7,280,630.9,280z"/>
	<path class="st19" d="M620.2,282.6c-0.2-1.8-0.8-3.6-2-5.2l-7.2,8.3l-4.7-3.8l7.2-8.2c-1.7-0.7-3.4-1-5.2-0.8
		c-6,0.5-10.5,5.7-10,11.6c0.1,1.2,0.4,2.3,0.9,3.5l0.1,0.1l-17.4,20.1c-0.7,0.8-1.1,2-1,3.1c0.1,1.1,0.6,2.1,1.5,2.8s2,1.1,3.2,1
		c1.1-0.1,2.2-0.6,2.9-1.5l17.2-19.8l0.2,0.1c1.4,0.5,2.9,0.6,4.4,0.5C616.2,293.8,620.7,288.6,620.2,282.6z M585.4,312
		c-0.9,0.1-1.5-0.6-1.6-1.3c-0.1-0.8,0.6-1.5,1.4-1.6c0.9-0.1,1.5,0.6,1.6,1.3C586.9,311.2,586.3,312,585.4,312z"/>
	<rect x="564.1" y="324.1" class="st2" width="86.8" height="19.6"/>
	<text transform="matrix(1.0255 0 0 1 564.1205 337.6153)" class="st3 st17">$465.172</text>
</g>
<g>
	<g>
		<path d="M1008.6,136.8c-0.5,0.6-1.2,1.4-2.1,2.4c-3.8-3.6-7.5-4.1-10.3-4.5c-8,13-17,20.6-28.8,28.7c-0.3,0-0.7,0.2-1.1,0.4
			c-2.1,1.4-3,3.8-3.5,6.7c-1.2,6.7,0.9,14.8,7.2,16.2c3.7,0.8,6.1,0.2,7.7-1.8c1.2-1.4,6.5-7.5,13.3-14.6
			c7.7-7.9,17-15.4,20.8-18.6c3.5-3,2.8-7.7,0.3-11.3c-0.9-1.4-2.1-2.6-3.3-3.4L1008.6,136.8z M979.4,179.5
			c0.5-3.6,0.3-10.3,0.2-12.5c0.9-0.4,2.6-1.6,5.8-4c8.9-6.7,16.1-14.6,23.4-23.3c2.6,2.4,4.9,7.3,1.8,10.1
			c-3.7,3-13.5,10.9-21,18.6C985.5,172.8,981.9,176.7,979.4,179.5z M976.1,183.2c-1.1,1.4-2.8,1.8-5.6,1.2c-5.8-1.4-7-9.5-5.4-15.2
			c1.6-5.5,6.5-4.7,8-0.8l-6.3,6.3c0.2,0.6,0.5,4.6,3.7,5.5c2.3,0.8,4.2-1.6,4.9-4.4c0.3-1.8,0.5-4,0-6.5c-0.3-3-2.1-5.1-4.4-6.1
			c11-7.7,18.5-14.2,26.1-26.1c3.2,0.6,5.2,1.4,7.9,3.6c-7.3,8.5-22.4,24.5-27.4,24.5c0,1.2,0.5,11.3-0.2,14.8
			C977.1,181.3,976.8,182.4,976.1,183.2z M973.6,171c0.2,2.2,0,4.9-1.2,6.3c-1.2,1.8-2.8,0-3.3-1.8L973.6,171z"/>
		<path class="st20" d="M1006.3,178.3c0,0-1.2-4.1-3.3-7.1s-6.1-4.7-6.1-4.7s2.6,3.2,3.7,7.7c1.2,4.5,1.4,6.5,1.4,6.5l-2.4-1.4
			l-1.9,4c0,0,0.9-5.3-1.2-10.1c-1.9-4.7-3.3-6.1-3.3-6.1c0.5-8.5-3.2-13-10.7-13.6l5.6-5.7c6.6-0.2,10.5,7.9,9.8,14.8
			c5.1,3.2,9.8,7.7,14,12.1l-3.8,0.8L1006.3,178.3z"/>
	</g>
	<rect x="947.7" y="191.8" class="st2" width="92.4" height="17.8"/>
	<text transform="matrix(1.0255 0 0 1 947.7455 205.3828)" class="st3 st17">$767.062</text>
</g>
<g>
	<g>
		<path d="M1252.4,269.5c-0.5,0.6-1.2,1.4-2.1,2.4c-3.8-3.6-7.5-4.2-10.3-4.5c-8,13-17,20.6-28.8,28.7c-0.3,0-0.7,0.2-1.1,0.4
			c-2.1,1.4-3,3.8-3.5,6.7c-1.2,6.7,0.9,14.8,7.2,16.2c3.7,0.8,6.1,0.2,7.7-1.8c1.2-1.4,6.5-7.5,13.3-14.6
			c7.7-7.9,17-15.4,20.8-18.6c3.5-3,2.8-7.7,0.3-11.3c-0.9-1.4-2.1-2.6-3.3-3.4L1252.4,269.5z M1223.2,312.2
			c0.5-3.6,0.3-10.3,0.2-12.5c0.9-0.4,2.6-1.6,5.8-4c8.9-6.7,16.1-14.6,23.4-23.3c2.6,2.4,4.9,7.3,1.8,10.1
			c-3.7,3-13.5,10.9-21,18.6C1229.4,305.5,1225.7,309.4,1223.2,312.2z M1219.9,315.9c-1.1,1.4-2.8,1.8-5.6,1.2
			c-5.8-1.4-7-9.5-5.4-15.2c1.6-5.5,6.5-4.7,8-0.8l-6.3,6.3c0.2,0.6,0.5,4.5,3.7,5.5c2.3,0.8,4.2-1.6,4.9-4.3c0.3-1.8,0.5-4,0-6.5
			c-0.3-3-2.1-5.1-4.4-6.1c11-7.7,18.5-14.2,26.1-26.1c3.2,0.6,5.2,1.4,7.9,3.6c-7.3,8.5-22.4,24.5-27.4,24.5
			c0,1.2,0.5,11.3-0.2,14.8C1221,314,1220.6,315.1,1219.9,315.9z M1217.5,303.7c0.2,2.2,0,4.9-1.2,6.3c-1.2,1.8-2.8,0-3.3-1.8
			L1217.5,303.7z"/>
		<path class="st20" d="M1250.2,311c0,0-1.2-4.2-3.3-7.1s-6.1-4.7-6.1-4.7s2.6,3.2,3.7,7.7c1.2,4.5,1.4,6.5,1.4,6.5l-2.4-1.4l-1.9,4
			c0,0,0.9-5.3-1.2-10.1c-1.9-4.7-3.3-6.1-3.3-6.1c0.5-8.5-3.2-13-10.7-13.6l5.6-5.7c6.6-0.2,10.5,7.9,9.8,14.8
			c5.1,3.2,9.8,7.7,14,12.1l-3.8,0.8L1250.2,311z"/>
	</g>
	<rect x="1185.1" y="327.6" class="st2" width="109" height="19.1"/>
	<text transform="matrix(1.0255 0 0 1 1185.1205 341.0899)" class="st3 st17">$934.793</text>
</g>
<g>
	<rect x="286.6" y="195.7" class="st2" width="99.6" height="21.9"/>
	<text transform="matrix(1.0255 0 0 1 286.558 209.2471)" class="st3 st17">$251.854</text>
	<path class="st18" d="M344.1,176.4c-0.6-0.4-1.3-0.6-2.1-0.5c-0.4,0-0.8,0.2-1.1,0.4l3.6,1.9c-1.1,1.6-2,3.3-2.9,5.1
		c-0.6,1.2-1.1,2.6-1.5,4c-0.3,1.1-0.5,2.3-0.4,3.5c1.7-0.5,3.5-2.9,4.7-5.8c0.8-1.8,1.2-3.9,1.2-6.1
		C345.4,177.8,344.8,176.9,344.1,176.4z"/>
	<path class="st18" d="M319.9,153.2v7.4l19.9,9.1h0c1.5,0,3-0.1,4.5-0.3c3.9-0.7,6.4-2.1,6.4-3.6v-12.2l-12.2,5.3L319.9,153.2z"/>
	<polygon class="st18" points="334,137.9 307.6,147.1 319.9,150.8 338.4,156.4 350.7,151.1 364.2,145.2 	"/>
	<path class="st18" d="M337.9,188.1c0-0.2,0-0.3,0.1-0.5s0.1-0.4,0.1-0.6l0-0.1c0.5-1.7,1-3.3,1.8-4.8c0.4-1,0.9-1.9,1.5-2.8
		c0,0,0-0.1,0-0.1l-2.4-1.2c-0.6,0.8-1,1.6-1.4,2.6c-0.5,1.2-1,2.4-1.3,3.7l-28.1-16l-0.2,1c-0.2,1.5-0.2,3,0.6,3.5l29.6,18
		C337.9,190.2,337.8,189.3,337.9,188.1z"/>
	<path class="st18" d="M336,179.4c1.7-4.1,4.6-6.5,6.9-5.7l-0.1,0l-30.9-14.1c-1.2-0.6-2.8,1-3.7,3.8c-0.2,0.6-0.4,1.3-0.5,1.9
		l27.8,15.8C335.6,180.5,335.8,179.9,336,179.4z"/>
</g>
</svg>
